<svg xmlns="http://www.w3.org/2000/svg" xmlns:xlink="http://www.w3.org/1999/xlink" width="500" zoomAndPan="magnify" viewBox="0 0 375 375" height="500" preserveAspectRatio="xMidYMid meet" xmlns:v="https://vecta.io/nano"><defs><clipPath id="A"><path d="M196.988 37.328h132.617v154.098H196.988zm0 0" clip-rule="nonzero"/></clipPath><clipPath id="B"><path d="M306.313 30.191h42.676v38.32h-42.676zm0 0" clip-rule="nonzero"/></clipPath><clipPath id="C"><path d="M207.508 188.355h12.398v3.07h-12.398zm0 0" clip-rule="nonzero"/></clipPath><path id="D" d="M88.461 221.299c-.867-.75-1.531-1.512-2-2.281s-.797-1.574-.984-2.406-.262-1.719-.219-2.656l.281-3.078-2.469 2.344c-.762.762-1.559 1.445-2.391 2.047s-1.766 1.094-2.797 1.469c-1.023.363-2.23.547-3.625.547-.699 0-1.387-.121-2.062-.359s-1.281-.555-1.812-.953c-.523-.406-.945-.875-1.266-1.406-.312-.539-.469-1.113-.469-1.719 0-1.363.258-2.75.781-4.156s1.227-2.773 2.125-4.109 1.926-2.613 3.094-3.844a33.81 33.81 0 0 1 3.688-3.359c1.289-1.02 2.602-1.906 3.938-2.656 1.344-.75 2.617-1.32 3.828-1.719 1.219-.406 2.336-.613 3.359-.625 1.031-.008 1.867.234 2.516.734.082-.156.266-.301.547-.437s.598-.227.953-.281c.363-.051.727-.039 1.094.031.363.063.672.219.922.469s.398.605.453 1.063c.063.461-.027 1.059-.266 1.797a290.79 290.79 0 0 0-4.078 12.594c-1.25 4.18-2.297 8.496-3.141 12.953zm1.719-25.656c-1.148.105-2.324.453-3.531 1.047-1.211.586-2.383 1.336-3.516 2.25-1.125.906-2.184 1.93-3.172 3.063s-1.844 2.297-2.562 3.484c-.711 1.188-1.25 2.367-1.625 3.531-.367 1.156-.496 2.203-.391 3.141.457.137 1.07-.02 1.844-.469.781-.457 1.676-1.129 2.688-2.016s2.102-1.957 3.281-3.219c1.188-1.27 2.422-2.656 3.703-4.156.82-.781 1.473-1.523 1.953-2.234.488-.707.848-1.352 1.078-1.937.238-.582.363-1.082.375-1.5.02-.414-.023-.742-.125-.984zm0 0"/><path id="E" d="M101.101 209.268c.039-.27.188-.832.438-1.687l1.047-3.172 1.547-4.281 1.906-5 2.109-5.312 2.219-5.219 2.188-4.75 2.016-3.891c.633-1.113 1.211-1.988 1.734-2.625s.957-.953 1.313-.953c.469 0 .82.102 1.063.297.238.188.406.445.5.766s.129.684.109 1.078l-.047 1.203c-.023.48-.09 1.09-.203 1.828l-.437 2.391-.594 2.688-.656 2.688-.687 2.406-.656 1.797c-1.625 3.781-2.992 7.215-4.094 10.297-1.094 3.074-1.984 5.746-2.672 8.016-.68 2.273-1.18 4.09-1.5 5.453l-.547 2.484c-.148.824-.184 1.504-.109 2.047.07.551.191 1.008.359 1.375a5.24 5.24 0 0 0 .484.875c.164.227.238.41.219.547-1.156 0-2.211-.293-3.156-.875-.937-.586-1.727-1.387-2.359-2.406-.625-1.008-1.078-2.203-1.359-3.578-.281-1.383-.34-2.879-.172-4.484zm0 0"/></defs><path fill="#fff" d="M-37.5-37.5h450v450h-450z"/><path d="M-37.5-37.5h450v450h-450z"/><g fill="#fff"><path d="M337.902 133.648s-13.984 6.336-26.77 5.148c0 0-30.574-20.945-45.727-22.48 0 0-22.156 6.695-27.582 7.148l-19.777 8.934s-8.012 12.141-13.504 17.234c0 0 2.93 8.492 13.066 3.469l1.773-2.742s-8.633 5.262-12.398-1.445l13.367-14.898 18.531-8.785s11.809.043 26.199-4.656c0 0 26 7.59 45.543 21.023 0 0 9.883 1.539 27.277-7.949m-70.599 2.882s-1.645 9.613-11.48 13.055c0 0-12.398 3.191-17.277 3.5 0 0-10.926-3.164-17.148-.02s-3.125 8.949-.848 10.355c2.277 1.414 3.188 4.25 32.855-.195s38.09 15.188 55.938-6.789c0 0-6.812 17.969-20.344 14.133s-27.898-6.449-44.934-4.383c-17.027 2.066-25.445 1.102-27.043-7.418l7.777-12.437s1.145 3.652 6.992 3.223 13.488-2.34 11.047-7.383c0 0 .969 5.641 5.914 5.887s13.516-2.062 18.551-11.527"/><path d="M257.09 147.324s4.383-6.711 1.844-17.219c0 0 4.156 8.766 1.344 15.707l-3.187 1.512"/><path d="M260.152 137.82s-6.438 4.855-16.902-.336c0 0-13.051 7.066-16.684 6.102l.875-2.07s6 .813 13.172-7.223c0 0 5.102 6.125 19.48.727l.059 2.801m2.36 12.499s5.199-2.316 7.598-10.336c0 0 .816 9.035-7.598 10.336m-42.219 7.516s-.113-3.219 3.73-3.965 7.367.508 7.367.508 1.16 4.918-.551 9.344c0 0 .523-6.105-.805-7.773 0 0-7.758-2.57-9.742 1.887m-6.464-17.345l3.07 3.285s-4.5 5.742-8.012 4.621c0 0 3.48-.281 6.469-4.578l-2.773-2.051 1.246-1.277m3.75 19.164l-4.996 8.617s4.344 4.531 9.113-3.637c0 0-3.578-.551-4.117-4.98m15.707 6.856s1.344 6.441 1.211 11.094c0 0 11.242 4.68 9.836-12.711l-2.148.816s1.555 14.004-6.715 10.656c0 0 .297-6.785-1.109-10.262l-1.074.406"/><path d="M236.453 165.984s3.27 10.707-1.703 7.941l.098.828s5.891 3.359 2.574-8.887l-.969.117m6.797 6.205s5.367 3.703 5.84-7.453l-5.801.844-.039 6.609"/></g><g clip-path="url(#A)"><path fill="#fff" d="M196.988 191.574c8.281-12.805 12.16-13.277 12.16-13.277 2.773-6.227 5.645-12.203 8.582-17.949l-.711-1.578c-3.164 6.043-6.207 12.141-8.523 17.355 0 0-.594-.555-3.391 2.414 0 0 17.336-37.719 28.523-49.723l-15.016 26.93 3.348-3.418c46.5-85.598 107.504-114.805 107.504-114.805-84.832 37.273-132.477 154.051-132.477 154.051"/></g><g fill="#fff"><path d="M304.129 163.566s3.75-1.191 10.828.691 7.41.258 9.512-.629c0 0-3.344 3.672-8.996 2.246-5.652-1.418-12.066-.43-14.652.84l3.309-3.148m-66.446-41.843s-9.371-11.227-1.926-28.57c0 0 .613 3.863 1.539 5.719 0 0 2.035-7.559 5.082-12.562 0 0 .18 2.645.691 4.555 0 0 2.266-5.617 6.105-9.875 0 0-5.426 8.527-4.828 14.633 0 0-2.062-1.996-2.859-3.867 0 0-3.148 6.426-2.242 12.777 0 0-3.102-3.555-3.609-5.461 0 0-1.445 12.398 4.324 19.422l-2.277 3.23"/><path d="M241.52 118.586s9.012.172 17.512-6.199 7.762-7.828 11.953-9.176c0 0-4.965-.383-9.852 2.176 0 0 6.57-3.75 9.379-6.055s11.277-8.957 17.137-8.125 2.148 4.941 1.488 5.301c0 0 2.809-1.184 2.73-4.121-.074-2.945-4.949-4.879-10.059-2.996s-21.82 15.855-28.438 19.188l5.727-.273s-6.824 7.43-16.5 8.746l-1.078 1.535m35.172-29.7s21.641-9.23 20.984-.723c0 0 6.953-13.348-20.984.723m-24.253-15.742s2.93-5.977 4.738-8.441l-.051 4.219s5.082-7.922 13.117-15.781l-1.055 5.188s8.277-7.047 15.387-12.129l-.805 2.629s6.121-3.973 12.48-7.137c0 0-10.766 7.352-15.168 12.801l.621-4.148s-7.937 5.18-14.895 15.016c0 0-.82-3.27-.52-5.418 0 0-4.754 4.793-9.875 14.688l-.445-5.988-3.531 4.504"/></g><g clip-path="url(#B)"><path fill="#fff" d="M320.426 30.188l-1.898 4.023s15.25-3.961 25.059-3.043l-4.184 3.738s6.156.941 9.586 4.879c0 0-15.633 3.164-25.781 11l7.422.922s-11.543 5.621-13.82 7.723l4.844.535s-7.207 1.996-15.273 8.457c0 0 6.195-5.668 9.32-7.73l-5.309-.902s6.258-3.996 14.504-6.68l-6.117-1.785s11.637-8.301 23.469-12.687c0 0-4.082-1.191-8.098-.703l3.324-5.039s-10.223-.867-22.336 4.68l5.289-7.387"/></g><path d="M250.477 104.434s-4.227-8.195 1.414-18.437c0 0-3.961 10.176-.09 16.59l-1.324 1.848m3.652-4.662s-2.594-5.164-.215-12.195c0 0-1.566 5.668 1.203 11.094l-.988 1.102m17.168-17.118s22.301-10.715 28.391-5.691c0 0-6.41-6.531-25.316 2.086l-3.074 3.605m9.62-9.875s11.898-3.836 17.941-1.477c0 0-6.02-3.344-16.586-.094l-1.355 1.57m6.176-4.682s6.176-1.176 10.449-.711c0 0-6.187-1.215-9.512-.809l-.937 1.52m5.922-6.766s2.086-8.262 7.32-14.934c0 0-5.574 9.664-5.395 13.438l-1.926 1.496m6.524-5.285s1.73-5.41 4.27-8.809c0 0-2.492 4.941-3.109 7.965l-1.16.844" fill="#fff"/><g clip-path="url(#C)"><path fill="#fff" d="M219.789 190.004c0 .914-2.707 1.648-6.043 1.648s-6.043-.734-6.043-1.648 2.703-1.648 6.043-1.648 6.043.738 6.043 1.648"/></g><g fill="#fff"><path d="M233.148 186.328c0 .637-1.895 1.152-4.23 1.152s-4.23-.516-4.23-1.152 1.895-1.156 4.23-1.156 4.23.52 4.23 1.156M27 208.58c0-1.594.242-3.258.734-5 .5-1.738 1.191-3.492 2.078-5.266.883-1.781 1.941-3.539 3.172-5.281A55.49 55.49 0 0 1 37 188.002a51.43 51.43 0 0 1 4.625-4.516 42.98 42.98 0 0 1 5.016-3.734c1.707-1.082 3.414-1.973 5.125-2.672 1.719-.695 3.395-1.148 5.031-1.359a2.23 2.23 0 0 0 .281-.687c.07-.258.16-.531.266-.812l.547-1.516c.195-.508.43-.969.703-1.375a3.65 3.65 0 0 1 .969-1.016c.375-.27.82-.406 1.344-.406h.922c.32.398.504.762.547 1.094s.051.621.031.859v.156c0 .281-.043.773-.125 1.469l-.391 2.359-.656 2.734c-.262.949-.57 1.82-.922 2.609-.344.781-.734 1.43-1.172 1.938s-.918.766-1.437.766c-.93 0-1.559-.191-1.891-.578-.336-.395-.527-.961-.578-1.703-1 .188-2.074.586-3.219 1.188-1.148.594-2.312 1.344-3.5 2.25s-2.383 1.938-3.578 3.094a50.92 50.92 0 0 0-3.422 3.656 46.35 46.35 0 0 0-3.047 3.984 38.8 38.8 0 0 0-2.453 4.094c-.699 1.344-1.246 2.652-1.641 3.922s-.594 2.445-.594 3.516a4.85 4.85 0 0 0 .063.766 8.26 8.26 0 0 0 .172.828l-.031-.031c.207.855.566 1.492 1.078 1.906s1.281.625 2.313.625c1.051 0 2.422-.211 4.109-.641 1.695-.437 3.797-1.102 6.297-2l8.906-3.375 11.938-4.781c.125 0 .211-.008.266-.031.051-.031.117-.062.203-.094l.172-.062a.91.91 0 0 1 .188-.062l.203-.062h.203c.352 0 .598.109.734.328.145.211.219.461.219.75 0 .105-.027.25-.078.438s-.242.352-.562.484a70.19 70.19 0 0 0-6.828 3.344l-6.594 3.828-5.625 3.25a84.69 84.69 0 0 1-5.812 2.969l-1.141.406-1.922.656a26.65 26.65 0 0 1-1.922.531 18.66 18.66 0 0 1-1.969.391 14.58 14.58 0 0 1-2.062.141c-1.437 0-2.734-.215-3.891-.641-1.148-.426-2.121-1.035-2.922-1.828s-1.418-1.758-1.844-2.906S27 210.01 27 208.58zm0 0"/><use xlink:href="#D"/><use xlink:href="#E"/><use xlink:href="#E" x="16.716"/><path d="M132.798 214.721c-.273-.5-.391-1.187-.359-2.062s.176-1.863.438-2.969a30.62 30.62 0 0 1 1.078-3.531l1.547-3.766c.582-1.258 1.219-2.469 1.906-3.625s1.379-2.191 2.078-3.109c.695-.926 1.391-1.687 2.078-2.281.695-.602 1.352-.969 1.969-1.094.27-.051.551-.047.844.016.301.063.578.168.828.313.258.148.473.328.641.547.176.219.266.469.266.75 0 .242-.062.484-.187.734l-.297.688-.641 1.547-.984 2.344-1.172 2.828-1.203 3-1.094 2.891-.844 2.438c-.219.711-.359 1.273-.422 1.688s-.016.625.141.625c.082 0 .234-.094.453-.281l.688-.562.594-.469c.176-.125.266-.129.266-.016a8.29 8.29 0 0 1-.172 1.047c-.094.43-.23.875-.406 1.344a13.32 13.32 0 0 1-.641 1.422 6.55 6.55 0 0 1-.875 1.266 4.74 4.74 0 0 1-1.109.922c-.398.238-.824.359-1.281.359-.293 0-.656-.117-1.094-.344-.437-.219-.867-.484-1.281-.797a10.85 10.85 0 0 1-1.125-.984c-.336-.344-.543-.633-.625-.875zm16.688-30.297c-.062.23-.219.594-.469 1.094-.25.492-.547.984-.891 1.484a7.26 7.26 0 0 1-1.125 1.297c-.418.375-.84.547-1.266.516a1.23 1.23 0 0 1-.656-.25c-.195-.148-.312-.363-.344-.656 0-.082-.012-.242-.031-.484l-.078-.766-.078-.766-.016-.484c0-.07-.027-.18-.078-.328a4.48 4.48 0 0 1-.109-.656c-.055-.32.066-.633.359-.937a4.18 4.18 0 0 1 1.063-.812c.414-.227.852-.41 1.313-.547.469-.133.844-.195 1.125-.187.332.043.602.141.813.297a1.25 1.25 0 0 1 .469.563c.102.23.156.484.156.766s-.055.57-.156.859zm-17.614 53.391c.074-.699.398-1.449.969-2.25.563-.793 1.313-1.617 2.25-2.469.93-.844 2-1.711 3.219-2.594l3.891-2.609 4.203-2.531 4.203-2.328 3.891-2.047 3.234-1.641 2.281-1.125 1-.531c.051-.031.188-.266.406-.703l.781-1.594.922-2.016.828-2.016-1.312 1.547a11.7 11.7 0 0 1-1.5 1.328c-.531.387-1.105.699-1.719.938a5.25 5.25 0 0 1-1.937.359c-.367 0-.789-.062-1.266-.187a12.47 12.47 0 0 1-1.484-.5 13.45 13.45 0 0 1-1.516-.766c-.492-.289-.922-.602-1.297-.937s-.672-.672-.891-1.016c-.219-.352-.312-.707-.281-1.062.102-1.008.445-2.164 1.031-3.469.594-1.312 1.352-2.648 2.281-4.016a36.01 36.01 0 0 1 3.172-4c1.188-1.312 2.426-2.477 3.719-3.5 1.301-1.02 2.613-1.848 3.938-2.484s2.582-.953 3.781-.953c.395 0 .852.078 1.375.234a6.75 6.75 0 0 1 1.469.641c.457.262.836.574 1.141.938.313.367.441.762.391 1.188-.023.156.004.375.078.656l.25.875a5.57 5.57 0 0 1 .203.859c.051.273.035.492-.047.656l-8.141 17.156h.156l8.375-3.172h.297c.395 0 .566.215.516.641-.031.219-.07.367-.109.438-.031.063-.168.133-.406.203-.355.137-.809.367-1.359.688l-1.797 1.109-1.953 1.297-1.906 1.344-1.578 1.188-1.031.844-.484.484a62.62 62.62 0 0 1-3.172 6.375 31.88 31.88 0 0 1-4.203 5.766c-1.469 1.488-2.977 2.758-4.516 3.813-1.543 1.063-3.184 1.926-4.922 2.594-1.75.664-3.609 1.148-5.578 1.453-1.969.313-4.098.469-6.391.469-.57 0-1.082-.059-1.531-.172-.457-.117-.836-.309-1.141-.578-.312-.273-.535-.637-.672-1.094s-.172-1.031-.109-1.719zm6.625-2.047c-.031.031-.031.094 0 .188a.52.52 0 0 0 .188.266c.105.094.246.156.422.188s.414.004.703-.078l4.344-1.281 3.594-1.297c1.094-.469 2.094-.996 3-1.578.914-.574 1.785-1.262 2.609-2.062s1.613-1.746 2.375-2.828c.77-1.074 1.547-2.336 2.328-3.781l-7 4.203-5.969 3.625-4.375 2.766c-1.164.77-1.906 1.328-2.219 1.672zm18.984-24.203c-.043.293-.008.48.109.563.125.074.301.109.531.109.727 0 1.453-.254 2.172-.766.727-.508 1.43-1.176 2.109-2s1.32-1.742 1.938-2.766l1.703-3.062 1.391-2.906 1.031-2.281h-.297a1.32 1.32 0 0 0-.266 0c-1.23.313-2.34.805-3.328 1.469a14.71 14.71 0 0 0-2.609 2.25 15.17 15.17 0 0 0-1.953 2.656c-.543.938-1 1.84-1.375 2.703-.367.867-.641 1.656-.828 2.375s-.297 1.273-.328 1.656zm19.626 3.156l.453-1.641.859-2.875 1.203-3.687 1.5-4.016 1.75-3.906c.613-1.27 1.25-2.395 1.906-3.375s1.32-1.758 2-2.344c.688-.594 1.379-.898 2.078-.922a3.84 3.84 0 0 1 .672.063c.219.043.41.121.578.234a1.45 1.45 0 0 1 .422.422c.106.164.145.383.125.641-.031.563-.121 1.152-.266 1.766l-.484 1.766 1.766-1.203a18.25 18.25 0 0 1 1.844-1.062c.625-.312 1.266-.562 1.922-.75.664-.187 1.352-.281 2.063-.281.352 0 .727.047 1.125.141.406.094.773.246 1.109.453a2.56 2.56 0 0 1 .828.75c.219.293.313.648.281 1.063-.012.199-.117.449-.312.75a8.67 8.67 0 0 1-.734.953l-.953 1-.953.906-.781.672c-.211.18-.328.266-.359.266-.117.055-.258.059-.422.016s-.242-.129-.219-.266c.02-.187.125-.391.313-.609l.531-.625c.164-.187.258-.332.281-.437.031-.113-.105-.16-.406-.141-1.398.086-2.656.414-3.781.984a12.07 12.07 0 0 0-3 2.172c-.875.875-1.656 1.867-2.344 2.969l-1.844 3.359-1.484 3.328-1.266 2.891c-.398.844-.793 1.531-1.187 2.063-.387.531-.805.813-1.25.844-.105 0-.352-.066-.734-.203a8.05 8.05 0 0 1-1.203-.547 6.61 6.61 0 0 1-1.125-.766c-.336-.289-.5-.562-.5-.812zm0 0"/><use xlink:href="#D" x="133.266"/><path d="M229.539 236.096c.055-1.023.273-2.18.656-3.469l1.375-4 1.766-4.094 1.719-3.781 1.328-3.047c.352-.863.531-1.492.531-1.891-.324-.352-.633-.836-.922-1.453s-.437-1.238-.437-1.875a2.88 2.88 0 0 1 .172-.953c.125-.332.285-.641.484-.922a2.79 2.79 0 0 1 .75-.703 1.72 1.72 0 0 1 .953-.281l-.469.953a2.43 2.43 0 0 0-.297.844 1.49 1.49 0 0 0 .125.844c.133.273.395.555.781.844.176-.102.367-.32.578-.656.219-.332.438-.719.656-1.156l.641-1.437.563-1.437.422-1.172.219-.656v-.172c0-.102-.039-.187-.109-.25a1.53 1.53 0 0 0-.219-.203c-.074-.07-.141-.156-.203-.25-.055-.094-.078-.219-.078-.375 0-.437.285-1.066.859-1.891l2.313-3 1.844-4.109c.539-1.051 1.023-1.875 1.453-2.469s.805-.992 1.141-1.203c.332-.219.645-.328.938-.328.164 0 .383.063.656.188.281.125.52.355.719.688.207.324.336.773.391 1.344.051.563-.043 1.281-.281 2.156 1.656-.102 3.094.012 4.313.344s2.227.875 3.031 1.625 1.398 1.699 1.797 2.844c.406 1.148.629 2.469.672 3.969.008 1.418-.25 2.762-.781 4.031a12.55 12.55 0 0 1-2.172 3.5c-.918 1.055-1.984 1.98-3.203 2.781-1.211.805-2.48 1.438-3.812 1.906s-2.687.758-4.062.875c-1.367.113-2.664.008-3.891-.312-.312.375-.672.953-1.078 1.734l-1.297 2.688-1.469 3.297-1.531 3.547-1.547 3.391-1.453 2.891c-.461.844-.898 1.52-1.312 2.031-.406.508-.766.773-1.078.797-.383.02-.711-.047-.984-.203a2.07 2.07 0 0 1-.687-.609 2.29 2.29 0 0 1-.375-.828 2.83 2.83 0 0 1-.094-.922zm20.25-35.641l-.875 2.234-1.031 2.547-1.078 2.656-1.031 2.531-.906 2.219-.641 1.688h.313c.801 0 1.629-.117 2.484-.359a12.29 12.29 0 0 0 2.484-1 14.02 14.02 0 0 0 2.281-1.516 11.33 11.33 0 0 0 1.875-1.953c.539-.707.969-1.461 1.281-2.266s.469-1.629.469-2.484c0-.539-.09-1.113-.266-1.719a3.7 3.7 0 0 0-.922-1.578c-.437-.457-1.016-.789-1.734-1-.711-.219-1.609-.219-2.703 0zm30.872-2.328c-.219.117-.555.32-1 .609l-1.516 1.047-1.781 1.313-1.781 1.453-1.562 1.438c-.469.48-.824.918-1.062 1.313a14.36 14.36 0 0 0-.547 1.125l-.734 1.75-.828 2.063-.812 2.047-.703 1.75-.453 1.141c-.187.418-.434.746-.734.984-.293.242-.687.359-1.187.359-.562 0-1.027-.176-1.391-.531-.355-.352-.531-.773-.531-1.266.02-1.258.234-2.609.641-4.047.414-1.437.957-2.988 1.625-4.656l2.266-5.437 2.594-6.375 2.625-7.5c.875-2.695 1.66-5.625 2.359-8.781a14.25 14.25 0 0 1 .313-1.266 11.25 11.25 0 0 1 .609-1.641c.258-.551.563-1.031.906-1.437.352-.414.742-.625 1.172-.625.531 0 .895.309 1.094.922.207.605.289 1.402.25 2.391s-.187 2.133-.437 3.422l-.891 3.969-1.141 4.078-1.203 3.703-1.078 2.844c-.324.773-.57 1.277-.734 1.516l1.641-1.047c.539-.375 1.098-.711 1.672-1.016a11.49 11.49 0 0 1 1.828-.781c.645-.207 1.352-.312 2.125-.312.32 0 .773.09 1.359.266a6.61 6.61 0 0 1 1.766.813c.582.375 1.082.871 1.5 1.484.414.605.613 1.352.594 2.234 0 .242-.078.672-.234 1.297l-.625 2.266-.953 2.938-1.25 3.281-1.437 3.375-1.609 3.125a22.86 22.86 0 0 1-1.687 2.547c-.562.742-1.133 1.305-1.703 1.703l-.109-2.797-.125-2.109a19.78 19.78 0 0 1 .078-2.062c.063-.719.191-1.617.391-2.703l.891-4.078 1.547-6.094zm15.513 37.485c0-.168-.078-.422-.234-.766a16.3 16.3 0 0 1-.531-1.359l-.578-2.047c-.199-.805-.352-1.75-.453-2.844 0-.031.086.051.266.25l.688.797.922 1.078.953 1.094.797.875c.227.238.367.359.422.359.156.031.363-.23.625-.781.27-.555.566-1.312.891-2.281l1.031-3.422 1.078-4.219 1.016-4.672.844-4.766-1.344.875-1.656 1.094c-.586.355-1.199.664-1.844.922-.648.25-1.289.375-1.922.375-.781 0-1.5-.066-2.156-.203a2.99 2.99 0 0 1-1.625-.906c-.43-.469-.742-1.141-.937-2.016-.199-.883-.23-2.066-.094-3.547.031-.477.148-1.195.359-2.156l.813-3.203 1.219-3.609c.469-1.227.984-2.352 1.547-3.375.563-1.031 1.16-1.875 1.797-2.531.645-.656 1.316-1 2.016-1.031.426-.031.758.133 1 .484.238.344.359.813.359 1.406l-1.109 5.078-.766 3.531-.5 2.313-.297 1.406-.172.828-.094.563-.125.625-.156 1.016c.02.148.133.199.344.156.207-.051.477-.148.813-.297a11.93 11.93 0 0 0 1.109-.562l1.266-.75 3.375-2.234c.32-.383.648-.988.984-1.812l1.016-2.766 1.016-3.125.984-2.937.906-2.187c.281-.57.539-.867.781-.891.406-.008.758.148 1.063.469s.547.711.734 1.156c.195.438.348.887.453 1.344s.156.809.156 1.047c0 .344-.055.797-.156 1.359l-.406 1.891-.531 2.156-.562 2.188-.516 1.953-.328 1.5-.875 4.078-1.187 4.797-1.422 5.125-1.594 5.031-1.672 4.516c-.562 1.406-1.117 2.602-1.656 3.594-.531 1-1.047 1.754-1.547 2.266-.5.52-.961.691-1.375.516-1.156-.461-1.984-.891-2.484-1.297a1.86 1.86 0 0 1-.734-1.516zm0 0"/></g></svg>