<svg xmlns="http://www.w3.org/2000/svg" xmlns:xlink="http://www.w3.org/1999/xlink" width="500" zoomAndPan="magnify" viewBox="0 0 375 374.999991" height="500" preserveAspectRatio="xMidYMid meet" version="1.0"><defs><g/><clipPath id="419fb2dd46"><path d="M 196.988281 37.328125 L 329.605469 37.328125 L 329.605469 191.425781 L 196.988281 191.425781 Z M 196.988281 37.328125 " clip-rule="nonzero"/></clipPath><clipPath id="56ff8869b3"><path d="M 306.3125 30.191406 L 348.988281 30.191406 L 348.988281 68.511719 L 306.3125 68.511719 Z M 306.3125 30.191406 " clip-rule="nonzero"/></clipPath><clipPath id="d51ae06891"><path d="M 207.507812 188.355469 L 219.90625 188.355469 L 219.90625 191.425781 L 207.507812 191.425781 Z M 207.507812 188.355469 " clip-rule="nonzero"/></clipPath></defs><rect x="-37.5" width="450" fill="#ffffff" y="-37.499999" height="449.999989" fill-opacity="1"/><rect x="-37.5" width="450" fill="#000000" y="-37.499999" height="449.999989" fill-opacity="1"/><path fill="#ffffff" d="M 337.902344 133.648438 C 337.902344 133.648438 323.917969 139.984375 311.132812 138.796875 C 311.132812 138.796875 280.558594 117.851562 265.40625 116.316406 C 265.40625 116.316406 243.25 123.011719 237.824219 123.464844 L 218.046875 132.398438 C 218.046875 132.398438 210.035156 144.539062 204.542969 149.632812 C 204.542969 149.632812 207.472656 158.125 217.609375 153.101562 L 219.382812 150.359375 C 219.382812 150.359375 210.75 155.621094 206.984375 148.914062 C 206.984375 148.914062 212.191406 143.222656 220.351562 134.015625 L 238.882812 125.230469 C 238.882812 125.230469 250.691406 125.273438 265.082031 120.574219 C 265.082031 120.574219 291.082031 128.164062 310.625 141.597656 C 310.625 141.597656 320.507812 143.136719 337.902344 133.648438 " fill-opacity="1" fill-rule="nonzero"/><path fill="#ffffff" d="M 267.300781 136.53125 C 267.300781 136.53125 265.65625 146.144531 255.820312 149.585938 C 255.820312 149.585938 243.421875 152.777344 238.542969 153.085938 C 238.542969 153.085938 227.617188 149.921875 221.394531 153.066406 C 215.175781 156.207031 218.269531 162.015625 220.546875 163.421875 C 222.824219 164.835938 223.734375 167.671875 253.402344 163.226562 C 283.070312 158.785156 291.492188 178.414062 309.339844 156.4375 C 309.339844 156.4375 302.527344 174.40625 288.996094 170.570312 C 275.464844 166.730469 261.097656 164.121094 244.0625 166.1875 C 227.035156 168.253906 218.617188 167.289062 217.019531 158.769531 L 224.796875 146.332031 C 224.796875 146.332031 225.941406 149.984375 231.789062 149.554688 C 237.640625 149.125 245.277344 147.214844 242.835938 142.171875 C 242.835938 142.171875 243.804688 147.8125 248.75 148.058594 C 253.695312 148.300781 262.265625 145.996094 267.300781 136.53125 " fill-opacity="1" fill-rule="nonzero"/><path fill="#ffffff" d="M 257.089844 147.324219 C 257.089844 147.324219 261.472656 140.613281 258.933594 130.105469 C 258.933594 130.105469 263.089844 138.871094 260.277344 145.8125 L 257.089844 147.324219 " fill-opacity="1" fill-rule="nonzero"/><path fill="#ffffff" d="M 260.152344 137.820312 C 260.152344 137.820312 253.714844 142.675781 243.25 137.484375 C 243.25 137.484375 230.199219 144.550781 226.566406 143.585938 L 227.441406 141.515625 C 227.441406 141.515625 233.441406 142.328125 240.613281 134.292969 C 240.613281 134.292969 245.714844 140.417969 260.09375 135.019531 L 260.152344 137.820312 " fill-opacity="1" fill-rule="nonzero"/><path fill="#ffffff" d="M 262.511719 150.320312 C 262.511719 150.320312 267.710938 148.003906 270.109375 139.984375 C 270.109375 139.984375 270.925781 149.019531 262.511719 150.320312 " fill-opacity="1" fill-rule="nonzero"/><path fill="#ffffff" d="M 220.292969 157.835938 C 220.292969 157.835938 220.179688 154.617188 224.023438 153.871094 C 227.867188 153.121094 231.390625 154.378906 231.390625 154.378906 C 231.390625 154.378906 232.550781 159.296875 230.839844 163.722656 C 230.839844 163.722656 231.363281 157.617188 230.035156 155.949219 C 230.035156 155.949219 222.277344 153.378906 220.292969 157.835938 " fill-opacity="1" fill-rule="nonzero"/><path fill="#ffffff" d="M 213.828125 140.492188 L 216.898438 143.777344 C 216.898438 143.777344 212.398438 149.519531 208.886719 148.398438 C 208.886719 148.398438 212.367188 148.117188 215.355469 143.820312 L 212.582031 141.769531 L 213.828125 140.492188 " fill-opacity="1" fill-rule="nonzero"/><path fill="#ffffff" d="M 217.578125 159.65625 L 212.582031 168.273438 C 212.582031 168.273438 216.925781 172.804688 221.695312 164.636719 C 221.695312 164.636719 218.117188 164.085938 217.578125 159.65625 " fill-opacity="1" fill-rule="nonzero"/><path fill="#ffffff" d="M 233.285156 166.511719 C 233.285156 166.511719 234.628906 172.953125 234.496094 177.605469 C 234.496094 177.605469 245.738281 182.285156 244.332031 164.894531 L 242.183594 165.710938 C 242.183594 165.710938 243.738281 179.714844 235.46875 176.367188 C 235.46875 176.367188 235.765625 169.582031 234.359375 166.105469 L 233.285156 166.511719 " fill-opacity="1" fill-rule="nonzero"/><path fill="#ffffff" d="M 236.453125 165.984375 C 236.453125 165.984375 239.722656 176.691406 234.75 173.925781 L 234.847656 174.753906 C 234.847656 174.753906 240.738281 178.113281 237.421875 165.867188 L 236.453125 165.984375 " fill-opacity="1" fill-rule="nonzero"/><path fill="#ffffff" d="M 243.25 172.1875 C 243.25 172.1875 248.617188 175.890625 249.089844 164.734375 L 243.289062 165.578125 L 243.25 172.1875 " fill-opacity="1" fill-rule="nonzero"/><g clip-path="url(#419fb2dd46)"><path fill="#ffffff" d="M 196.988281 191.574219 C 205.269531 178.769531 209.148438 178.296875 209.148438 178.296875 C 211.921875 172.070312 214.792969 166.09375 217.730469 160.347656 L 217.019531 158.769531 C 213.855469 164.8125 210.8125 170.910156 208.496094 176.125 C 208.496094 176.125 207.902344 175.570312 205.105469 178.539062 C 205.105469 178.539062 222.441406 140.820312 233.628906 128.816406 C 233.628906 128.816406 225.433594 143.09375 218.613281 155.746094 L 221.960938 152.328125 C 268.460938 66.730469 329.464844 37.523438 329.464844 37.523438 C 244.632812 74.796875 196.988281 191.574219 196.988281 191.574219 " fill-opacity="1" fill-rule="nonzero"/></g><path fill="#ffffff" d="M 304.128906 163.566406 C 304.128906 163.566406 307.878906 162.375 314.957031 164.257812 C 322.035156 166.136719 322.367188 164.515625 324.46875 163.628906 C 324.46875 163.628906 321.125 167.300781 315.472656 165.875 C 309.820312 164.457031 303.40625 165.445312 300.820312 166.714844 L 304.128906 163.566406 " fill-opacity="1" fill-rule="nonzero"/><path fill="#ffffff" d="M 237.683594 121.722656 C 237.683594 121.722656 228.3125 110.496094 235.757812 93.152344 C 235.757812 93.152344 236.371094 97.015625 237.296875 98.871094 C 237.296875 98.871094 239.332031 91.3125 242.378906 86.308594 C 242.378906 86.308594 242.558594 88.953125 243.070312 90.863281 C 243.070312 90.863281 245.335938 85.246094 249.175781 80.988281 C 249.175781 80.988281 243.75 89.515625 244.347656 95.621094 C 244.347656 95.621094 242.285156 93.625 241.488281 91.753906 C 241.488281 91.753906 238.339844 98.179688 239.246094 104.53125 C 239.246094 104.53125 236.144531 100.976562 235.636719 99.070312 C 235.636719 99.070312 234.191406 111.46875 239.960938 118.492188 L 237.683594 121.722656 " fill-opacity="1" fill-rule="nonzero"/><path fill="#ffffff" d="M 241.519531 118.585938 C 241.519531 118.585938 250.53125 118.757812 259.03125 112.386719 C 267.53125 106.019531 266.792969 104.558594 270.984375 103.210938 C 270.984375 103.210938 266.019531 102.828125 261.132812 105.386719 C 261.132812 105.386719 267.703125 101.636719 270.511719 99.332031 C 273.324219 97.023438 281.789062 90.375 287.648438 91.207031 C 293.511719 92.042969 289.796875 96.148438 289.136719 96.507812 C 289.136719 96.507812 291.945312 95.324219 291.867188 92.386719 C 291.792969 89.441406 286.917969 87.507812 281.808594 89.390625 C 276.699219 91.273438 259.988281 105.246094 253.371094 108.578125 L 259.097656 108.304688 C 259.097656 108.304688 252.273438 115.734375 242.597656 117.050781 L 241.519531 118.585938 " fill-opacity="1" fill-rule="nonzero"/><path fill="#ffffff" d="M 276.691406 88.886719 C 276.691406 88.886719 298.332031 79.65625 297.675781 88.164062 C 297.675781 88.164062 304.628906 74.816406 276.691406 88.886719 " fill-opacity="1" fill-rule="nonzero"/><path fill="#ffffff" d="M 252.4375 73.144531 C 252.4375 73.144531 255.367188 67.167969 257.175781 64.703125 L 257.125 68.921875 C 257.125 68.921875 262.207031 61 270.242188 53.140625 L 269.1875 58.328125 C 269.1875 58.328125 277.464844 51.28125 284.574219 46.199219 C 284.574219 46.199219 283.964844 48.101562 283.769531 48.828125 C 283.769531 48.828125 289.890625 44.855469 296.25 41.691406 C 296.25 41.691406 285.484375 49.042969 281.082031 54.492188 L 281.703125 50.34375 C 281.703125 50.34375 273.765625 55.523438 266.808594 65.359375 C 266.808594 65.359375 265.988281 62.089844 266.289062 59.941406 C 266.289062 59.941406 261.535156 64.734375 256.414062 74.628906 L 255.96875 68.640625 L 252.4375 73.144531 " fill-opacity="1" fill-rule="nonzero"/><g clip-path="url(#56ff8869b3)"><path fill="#ffffff" d="M 320.425781 30.1875 L 318.527344 34.210938 C 318.527344 34.210938 333.777344 30.25 343.585938 31.167969 L 339.402344 34.90625 C 339.402344 34.90625 345.558594 35.847656 348.988281 39.785156 C 348.988281 39.785156 333.355469 42.949219 323.207031 50.785156 L 330.628906 51.707031 C 330.628906 51.707031 319.085938 57.328125 316.808594 59.429688 L 321.652344 59.964844 C 321.652344 59.964844 314.445312 61.960938 306.378906 68.421875 C 306.378906 68.421875 312.574219 62.753906 315.699219 60.691406 L 310.390625 59.789062 C 310.390625 59.789062 316.648438 55.792969 324.894531 53.109375 L 318.777344 51.324219 C 318.777344 51.324219 330.414062 43.023438 342.246094 38.636719 C 342.246094 38.636719 338.164062 37.445312 334.148438 37.933594 L 337.472656 32.894531 C 337.472656 32.894531 327.25 32.027344 315.136719 37.574219 L 320.425781 30.1875 " fill-opacity="1" fill-rule="nonzero"/></g><path fill="#ffffff" d="M 250.476562 104.433594 C 250.476562 104.433594 246.25 96.238281 251.890625 85.996094 C 251.890625 85.996094 247.929688 96.171875 251.800781 102.585938 L 250.476562 104.433594 " fill-opacity="1" fill-rule="nonzero"/><path fill="#ffffff" d="M 254.128906 99.773438 C 254.128906 99.773438 251.535156 94.609375 253.914062 87.578125 C 253.914062 87.578125 252.347656 93.246094 255.117188 98.671875 L 254.128906 99.773438 " fill-opacity="1" fill-rule="nonzero"/><path fill="#ffffff" d="M 271.296875 82.65625 C 271.296875 82.65625 293.597656 71.941406 299.6875 76.964844 C 299.6875 76.964844 293.277344 70.433594 274.371094 79.050781 L 271.296875 82.65625 " fill-opacity="1" fill-rule="nonzero"/><path fill="#ffffff" d="M 280.917969 72.78125 C 280.917969 72.78125 292.816406 68.945312 298.859375 71.304688 C 298.859375 71.304688 292.839844 67.960938 282.273438 71.210938 L 280.917969 72.78125 " fill-opacity="1" fill-rule="nonzero"/><path fill="#ffffff" d="M 287.09375 68.097656 C 287.09375 68.097656 293.269531 66.921875 297.542969 67.386719 C 297.542969 67.386719 291.355469 66.171875 288.03125 66.578125 L 287.09375 68.097656 " fill-opacity="1" fill-rule="nonzero"/><path fill="#ffffff" d="M 293.015625 61.332031 C 293.015625 61.332031 295.101562 53.070312 300.335938 46.398438 C 300.335938 46.398438 294.761719 56.0625 294.941406 59.835938 L 293.015625 61.332031 " fill-opacity="1" fill-rule="nonzero"/><path fill="#ffffff" d="M 299.539062 56.046875 C 299.539062 56.046875 301.269531 50.636719 303.808594 47.238281 C 303.808594 47.238281 301.316406 52.179688 300.699219 55.203125 L 299.539062 56.046875 " fill-opacity="1" fill-rule="nonzero"/><g clip-path="url(#d51ae06891)"><path fill="#ffffff" d="M 219.789062 190.003906 C 219.789062 190.917969 217.082031 191.652344 213.746094 191.652344 C 210.40625 191.652344 207.703125 190.917969 207.703125 190.003906 C 207.703125 189.09375 210.40625 188.355469 213.746094 188.355469 C 217.082031 188.355469 219.789062 189.09375 219.789062 190.003906 " fill-opacity="1" fill-rule="nonzero"/></g><path fill="#ffffff" d="M 233.148438 186.328125 C 233.148438 186.964844 231.253906 187.480469 228.917969 187.480469 C 226.582031 187.480469 224.6875 186.964844 224.6875 186.328125 C 224.6875 185.691406 226.582031 185.171875 228.917969 185.171875 C 231.253906 185.171875 233.148438 185.691406 233.148438 186.328125 " fill-opacity="1" fill-rule="nonzero"/><g fill="#ffffff" fill-opacity="1"><g transform="translate(26.000419, 217.049313)"><g><path d="M 1 -8.46875 C 1 -10.0625 1.242188 -11.726562 1.734375 -13.46875 C 2.234375 -15.207031 2.925781 -16.960938 3.8125 -18.734375 C 4.695312 -20.515625 5.753906 -22.273438 6.984375 -24.015625 C 8.210938 -25.753906 9.550781 -27.429688 11 -29.046875 C 12.457031 -30.660156 14 -32.164062 15.625 -33.5625 C 17.257812 -34.96875 18.929688 -36.210938 20.640625 -37.296875 C 22.347656 -38.378906 24.054688 -39.269531 25.765625 -39.96875 C 27.484375 -40.664062 29.160156 -41.117188 30.796875 -41.328125 C 30.921875 -41.523438 31.015625 -41.753906 31.078125 -42.015625 C 31.148438 -42.273438 31.238281 -42.546875 31.34375 -42.828125 C 31.507812 -43.328125 31.691406 -43.832031 31.890625 -44.34375 C 32.085938 -44.851562 32.320312 -45.3125 32.59375 -45.71875 C 32.863281 -46.132812 33.1875 -46.472656 33.5625 -46.734375 C 33.9375 -47.003906 34.382812 -47.140625 34.90625 -47.140625 L 35.828125 -47.140625 C 36.148438 -46.742188 36.332031 -46.378906 36.375 -46.046875 C 36.414062 -45.710938 36.425781 -45.425781 36.40625 -45.1875 L 36.40625 -45.03125 C 36.40625 -44.75 36.363281 -44.257812 36.28125 -43.5625 C 36.195312 -42.875 36.066406 -42.085938 35.890625 -41.203125 C 35.722656 -40.328125 35.503906 -39.414062 35.234375 -38.46875 C 34.972656 -37.519531 34.664062 -36.648438 34.3125 -35.859375 C 33.96875 -35.078125 33.578125 -34.429688 33.140625 -33.921875 C 32.703125 -33.410156 32.222656 -33.15625 31.703125 -33.15625 C 30.773438 -33.15625 30.144531 -33.347656 29.8125 -33.734375 C 29.476562 -34.128906 29.285156 -34.695312 29.234375 -35.4375 C 28.234375 -35.25 27.160156 -34.851562 26.015625 -34.25 C 24.867188 -33.65625 23.703125 -32.90625 22.515625 -32 C 21.328125 -31.09375 20.132812 -30.0625 18.9375 -28.90625 C 17.75 -27.757812 16.609375 -26.539062 15.515625 -25.25 C 14.421875 -23.96875 13.40625 -22.640625 12.46875 -21.265625 C 11.53125 -19.890625 10.710938 -18.523438 10.015625 -17.171875 C 9.316406 -15.828125 8.769531 -14.519531 8.375 -13.25 C 7.976562 -11.976562 7.78125 -10.804688 7.78125 -9.734375 C 7.78125 -9.492188 7.800781 -9.238281 7.84375 -8.96875 C 7.882812 -8.707031 7.941406 -8.429688 8.015625 -8.140625 L 7.984375 -8.171875 C 8.191406 -7.316406 8.550781 -6.679688 9.0625 -6.265625 C 9.570312 -5.847656 10.34375 -5.640625 11.375 -5.640625 C 12.425781 -5.640625 13.796875 -5.851562 15.484375 -6.28125 C 17.179688 -6.71875 19.28125 -7.382812 21.78125 -8.28125 C 24.289062 -9.175781 27.257812 -10.300781 30.6875 -11.65625 C 34.125 -13.019531 38.101562 -14.613281 42.625 -16.4375 C 42.75 -16.4375 42.835938 -16.445312 42.890625 -16.46875 C 42.941406 -16.5 43.007812 -16.53125 43.09375 -16.5625 C 43.144531 -16.582031 43.203125 -16.601562 43.265625 -16.625 C 43.335938 -16.65625 43.398438 -16.675781 43.453125 -16.6875 L 43.65625 -16.75 L 43.859375 -16.75 C 44.210938 -16.75 44.457031 -16.640625 44.59375 -16.421875 C 44.738281 -16.210938 44.8125 -15.960938 44.8125 -15.671875 C 44.8125 -15.566406 44.785156 -15.421875 44.734375 -15.234375 C 44.679688 -15.046875 44.492188 -14.882812 44.171875 -14.75 C 41.859375 -13.769531 39.582031 -12.65625 37.34375 -11.40625 C 35.113281 -10.15625 32.914062 -8.878906 30.75 -7.578125 C 28.90625 -6.484375 27.03125 -5.398438 25.125 -4.328125 C 23.226562 -3.265625 21.289062 -2.273438 19.3125 -1.359375 L 18.171875 -0.953125 C 17.523438 -0.722656 16.882812 -0.503906 16.25 -0.296875 C 15.625 -0.0976562 14.984375 0.078125 14.328125 0.234375 C 13.679688 0.398438 13.023438 0.53125 12.359375 0.625 C 11.703125 0.71875 11.015625 0.765625 10.296875 0.765625 C 8.859375 0.765625 7.5625 0.550781 6.40625 0.125 C 5.257812 -0.300781 4.285156 -0.910156 3.484375 -1.703125 C 2.679688 -2.492188 2.066406 -3.460938 1.640625 -4.609375 C 1.210938 -5.753906 1 -7.039062 1 -8.46875 Z M 1 -8.46875 "/></g></g></g><g fill="#ffffff" fill-opacity="1"><g transform="translate(68.007826, 217.049313)"><g><path d="M 20.453125 4.25 C 19.585938 3.5 18.921875 2.738281 18.453125 1.96875 C 17.984375 1.195312 17.65625 0.394531 17.46875 -0.4375 C 17.28125 -1.269531 17.207031 -2.15625 17.25 -3.09375 C 17.289062 -4.03125 17.382812 -5.054688 17.53125 -6.171875 C 16.644531 -5.367188 15.820312 -4.585938 15.0625 -3.828125 C 14.300781 -3.066406 13.503906 -2.382812 12.671875 -1.78125 C 11.835938 -1.175781 10.90625 -0.6875 9.875 -0.3125 C 8.851562 0.0507812 7.644531 0.234375 6.25 0.234375 C 5.550781 0.234375 4.863281 0.113281 4.1875 -0.125 C 3.507812 -0.363281 2.90625 -0.679688 2.375 -1.078125 C 1.851562 -1.484375 1.429688 -1.953125 1.109375 -2.484375 C 0.796875 -3.023438 0.640625 -3.597656 0.640625 -4.203125 C 0.640625 -5.566406 0.898438 -6.953125 1.421875 -8.359375 C 1.941406 -9.765625 2.648438 -11.132812 3.546875 -12.46875 C 4.441406 -13.800781 5.472656 -15.082031 6.640625 -16.3125 C 7.804688 -17.539062 9.035156 -18.660156 10.328125 -19.671875 C 11.617188 -20.691406 12.929688 -21.578125 14.265625 -22.328125 C 15.609375 -23.078125 16.882812 -23.648438 18.09375 -24.046875 C 19.3125 -24.453125 20.429688 -24.660156 21.453125 -24.671875 C 22.484375 -24.679688 23.320312 -24.4375 23.96875 -23.9375 C 24.050781 -24.09375 24.234375 -24.238281 24.515625 -24.375 C 24.796875 -24.507812 25.113281 -24.601562 25.46875 -24.65625 C 25.832031 -24.707031 26.195312 -24.695312 26.5625 -24.625 C 26.925781 -24.5625 27.234375 -24.40625 27.484375 -24.15625 C 27.734375 -23.90625 27.882812 -23.550781 27.9375 -23.09375 C 28 -22.632812 27.910156 -22.035156 27.671875 -21.296875 C 26.203125 -17.085938 24.84375 -12.890625 23.59375 -8.703125 C 22.34375 -4.523438 21.296875 -0.207031 20.453125 4.25 Z M 22.171875 -21.40625 C 21.023438 -21.300781 19.847656 -20.953125 18.640625 -20.359375 C 17.429688 -19.773438 16.257812 -19.023438 15.125 -18.109375 C 14 -17.203125 12.941406 -16.179688 11.953125 -15.046875 C 10.960938 -13.910156 10.109375 -12.75 9.390625 -11.5625 C 8.679688 -10.375 8.140625 -9.195312 7.765625 -8.03125 C 7.398438 -6.875 7.269531 -5.828125 7.375 -4.890625 C 7.832031 -4.753906 8.445312 -4.910156 9.21875 -5.359375 C 10 -5.816406 10.894531 -6.488281 11.90625 -7.375 C 12.914062 -8.257812 14.007812 -9.332031 15.1875 -10.59375 C 16.375 -11.863281 17.609375 -13.25 18.890625 -14.75 C 19.710938 -15.53125 20.363281 -16.273438 20.84375 -16.984375 C 21.332031 -17.691406 21.691406 -18.335938 21.921875 -18.921875 C 22.160156 -19.503906 22.285156 -20.003906 22.296875 -20.421875 C 22.316406 -20.835938 22.273438 -21.164062 22.171875 -21.40625 Z M 22.171875 -21.40625 "/></g></g></g><g fill="#ffffff" fill-opacity="1"><g transform="translate(98.163045, 217.049313)"><g><path d="M 2.9375 -7.78125 C 2.976562 -8.050781 3.125 -8.613281 3.375 -9.46875 C 3.632812 -10.320312 3.984375 -11.378906 4.421875 -12.640625 C 4.867188 -13.910156 5.382812 -15.335938 5.96875 -16.921875 C 6.5625 -18.515625 7.195312 -20.179688 7.875 -21.921875 C 8.550781 -23.660156 9.253906 -25.429688 9.984375 -27.234375 C 10.722656 -29.035156 11.460938 -30.773438 12.203125 -32.453125 C 12.941406 -34.128906 13.671875 -35.710938 14.390625 -37.203125 C 15.109375 -38.691406 15.78125 -39.988281 16.40625 -41.09375 C 17.039062 -42.207031 17.617188 -43.082031 18.140625 -43.71875 C 18.660156 -44.351562 19.097656 -44.671875 19.453125 -44.671875 C 19.921875 -44.671875 20.273438 -44.570312 20.515625 -44.375 C 20.753906 -44.1875 20.921875 -43.929688 21.015625 -43.609375 C 21.109375 -43.285156 21.144531 -42.925781 21.125 -42.53125 C 21.101562 -42.132812 21.085938 -41.734375 21.078125 -41.328125 C 21.054688 -40.847656 20.988281 -40.238281 20.875 -39.5 C 20.769531 -38.769531 20.625 -37.972656 20.4375 -37.109375 C 20.257812 -36.253906 20.0625 -35.359375 19.84375 -34.421875 C 19.632812 -33.492188 19.414062 -32.597656 19.1875 -31.734375 C 18.957031 -30.867188 18.726562 -30.066406 18.5 -29.328125 C 18.269531 -28.597656 18.050781 -28 17.84375 -27.53125 C 16.21875 -23.75 14.851562 -20.316406 13.75 -17.234375 C 12.65625 -14.160156 11.765625 -11.488281 11.078125 -9.21875 C 10.398438 -6.945312 9.898438 -5.128906 9.578125 -3.765625 C 9.265625 -2.410156 9.082031 -1.582031 9.03125 -1.28125 C 8.882812 -0.457031 8.847656 0.222656 8.921875 0.765625 C 8.992188 1.316406 9.113281 1.773438 9.28125 2.140625 C 9.445312 2.503906 9.609375 2.796875 9.765625 3.015625 C 9.929688 3.242188 10.003906 3.425781 9.984375 3.5625 C 8.828125 3.5625 7.773438 3.269531 6.828125 2.6875 C 5.890625 2.101562 5.101562 1.300781 4.46875 0.28125 C 3.84375 -0.726562 3.390625 -1.921875 3.109375 -3.296875 C 2.828125 -4.679688 2.769531 -6.175781 2.9375 -7.78125 Z M 2.9375 -7.78125 "/></g></g></g><g fill="#ffffff" fill-opacity="1"><g transform="translate(114.878977, 217.049313)"><g><path d="M 2.9375 -7.78125 C 2.976562 -8.050781 3.125 -8.613281 3.375 -9.46875 C 3.632812 -10.320312 3.984375 -11.378906 4.421875 -12.640625 C 4.867188 -13.910156 5.382812 -15.335938 5.96875 -16.921875 C 6.5625 -18.515625 7.195312 -20.179688 7.875 -21.921875 C 8.550781 -23.660156 9.253906 -25.429688 9.984375 -27.234375 C 10.722656 -29.035156 11.460938 -30.773438 12.203125 -32.453125 C 12.941406 -34.128906 13.671875 -35.710938 14.390625 -37.203125 C 15.109375 -38.691406 15.78125 -39.988281 16.40625 -41.09375 C 17.039062 -42.207031 17.617188 -43.082031 18.140625 -43.71875 C 18.660156 -44.351562 19.097656 -44.671875 19.453125 -44.671875 C 19.921875 -44.671875 20.273438 -44.570312 20.515625 -44.375 C 20.753906 -44.1875 20.921875 -43.929688 21.015625 -43.609375 C 21.109375 -43.285156 21.144531 -42.925781 21.125 -42.53125 C 21.101562 -42.132812 21.085938 -41.734375 21.078125 -41.328125 C 21.054688 -40.847656 20.988281 -40.238281 20.875 -39.5 C 20.769531 -38.769531 20.625 -37.972656 20.4375 -37.109375 C 20.257812 -36.253906 20.0625 -35.359375 19.84375 -34.421875 C 19.632812 -33.492188 19.414062 -32.597656 19.1875 -31.734375 C 18.957031 -30.867188 18.726562 -30.066406 18.5 -29.328125 C 18.269531 -28.597656 18.050781 -28 17.84375 -27.53125 C 16.21875 -23.75 14.851562 -20.316406 13.75 -17.234375 C 12.65625 -14.160156 11.765625 -11.488281 11.078125 -9.21875 C 10.398438 -6.945312 9.898438 -5.128906 9.578125 -3.765625 C 9.265625 -2.410156 9.082031 -1.582031 9.03125 -1.28125 C 8.882812 -0.457031 8.847656 0.222656 8.921875 0.765625 C 8.992188 1.316406 9.113281 1.773438 9.28125 2.140625 C 9.445312 2.503906 9.609375 2.796875 9.765625 3.015625 C 9.929688 3.242188 10.003906 3.425781 9.984375 3.5625 C 8.828125 3.5625 7.773438 3.269531 6.828125 2.6875 C 5.890625 2.101562 5.101562 1.300781 4.46875 0.28125 C 3.84375 -0.726562 3.390625 -1.921875 3.109375 -3.296875 C 2.828125 -4.679688 2.769531 -6.175781 2.9375 -7.78125 Z M 2.9375 -7.78125 "/></g></g></g><g fill="#ffffff" fill-opacity="1"><g transform="translate(131.594909, 217.049313)"><g><path d="M 1.203125 -2.328125 C 0.929688 -2.828125 0.8125 -3.515625 0.84375 -4.390625 C 0.875 -5.265625 1.019531 -6.253906 1.28125 -7.359375 C 1.539062 -8.460938 1.898438 -9.640625 2.359375 -10.890625 C 2.816406 -12.148438 3.332031 -13.40625 3.90625 -14.65625 C 4.488281 -15.914062 5.125 -17.125 5.8125 -18.28125 C 6.5 -19.4375 7.191406 -20.472656 7.890625 -21.390625 C 8.585938 -22.316406 9.28125 -23.078125 9.96875 -23.671875 C 10.664062 -24.273438 11.320312 -24.640625 11.9375 -24.765625 C 12.207031 -24.816406 12.488281 -24.8125 12.78125 -24.75 C 13.082031 -24.6875 13.359375 -24.582031 13.609375 -24.4375 C 13.867188 -24.289062 14.082031 -24.109375 14.25 -23.890625 C 14.425781 -23.671875 14.515625 -23.421875 14.515625 -23.140625 C 14.515625 -22.898438 14.453125 -22.65625 14.328125 -22.40625 C 14.210938 -22.164062 14.113281 -21.9375 14.03125 -21.71875 C 13.894531 -21.375 13.679688 -20.859375 13.390625 -20.171875 C 13.097656 -19.492188 12.769531 -18.710938 12.40625 -17.828125 C 12.039062 -16.953125 11.648438 -16.007812 11.234375 -15 C 10.828125 -14 10.425781 -13 10.03125 -12 C 9.644531 -11 9.28125 -10.035156 8.9375 -9.109375 C 8.59375 -8.191406 8.3125 -7.378906 8.09375 -6.671875 C 7.875 -5.960938 7.734375 -5.398438 7.671875 -4.984375 C 7.609375 -4.566406 7.65625 -4.359375 7.8125 -4.359375 C 7.894531 -4.359375 8.046875 -4.453125 8.265625 -4.640625 C 8.492188 -4.828125 8.722656 -5.015625 8.953125 -5.203125 C 9.179688 -5.398438 9.378906 -5.554688 9.546875 -5.671875 C 9.722656 -5.796875 9.8125 -5.800781 9.8125 -5.6875 C 9.789062 -5.414062 9.734375 -5.066406 9.640625 -4.640625 C 9.546875 -4.210938 9.410156 -3.765625 9.234375 -3.296875 C 9.054688 -2.828125 8.84375 -2.351562 8.59375 -1.875 C 8.34375 -1.40625 8.050781 -0.984375 7.71875 -0.609375 C 7.382812 -0.234375 7.015625 0.0703125 6.609375 0.3125 C 6.210938 0.550781 5.785156 0.671875 5.328125 0.671875 C 5.035156 0.671875 4.671875 0.554688 4.234375 0.328125 C 3.796875 0.109375 3.367188 -0.15625 2.953125 -0.46875 C 2.535156 -0.789062 2.160156 -1.117188 1.828125 -1.453125 C 1.492188 -1.796875 1.285156 -2.085938 1.203125 -2.328125 Z M 17.890625 -32.625 C 17.828125 -32.394531 17.671875 -32.03125 17.421875 -31.53125 C 17.171875 -31.039062 16.875 -30.546875 16.53125 -30.046875 C 16.195312 -29.554688 15.820312 -29.125 15.40625 -28.75 C 14.988281 -28.375 14.566406 -28.203125 14.140625 -28.234375 C 13.898438 -28.253906 13.679688 -28.335938 13.484375 -28.484375 C 13.285156 -28.628906 13.171875 -28.847656 13.140625 -29.140625 C 13.140625 -29.222656 13.128906 -29.382812 13.109375 -29.625 C 13.085938 -29.863281 13.0625 -30.117188 13.03125 -30.390625 C 13 -30.660156 12.972656 -30.914062 12.953125 -31.15625 C 12.941406 -31.394531 12.9375 -31.554688 12.9375 -31.640625 C 12.9375 -31.710938 12.910156 -31.820312 12.859375 -31.96875 C 12.816406 -32.125 12.78125 -32.34375 12.75 -32.625 C 12.695312 -32.945312 12.816406 -33.257812 13.109375 -33.5625 C 13.398438 -33.875 13.753906 -34.144531 14.171875 -34.375 C 14.585938 -34.601562 15.023438 -34.785156 15.484375 -34.921875 C 15.953125 -35.054688 16.328125 -35.117188 16.609375 -35.109375 C 16.941406 -35.066406 17.210938 -34.96875 17.421875 -34.8125 C 17.640625 -34.664062 17.796875 -34.476562 17.890625 -34.25 C 17.992188 -34.019531 18.046875 -33.765625 18.046875 -33.484375 C 18.046875 -33.203125 17.992188 -32.914062 17.890625 -32.625 Z M 17.890625 -32.625 "/></g></g></g><g fill="#ffffff" fill-opacity="1"><g transform="translate(148.106051, 217.049313)"><g><path d="M -16.234375 20.765625 C -16.160156 20.066406 -15.835938 19.316406 -15.265625 18.515625 C -14.703125 17.722656 -13.953125 16.898438 -13.015625 16.046875 C -12.085938 15.203125 -11.015625 14.335938 -9.796875 13.453125 C -8.578125 12.578125 -7.28125 11.707031 -5.90625 10.84375 C -4.539062 9.976562 -3.140625 9.132812 -1.703125 8.3125 C -0.265625 7.5 1.132812 6.722656 2.5 5.984375 C 3.875 5.253906 5.171875 4.570312 6.390625 3.9375 C 7.609375 3.3125 8.6875 2.765625 9.625 2.296875 C 10.5625 1.828125 11.320312 1.453125 11.90625 1.171875 C 12.488281 0.890625 12.820312 0.710938 12.90625 0.640625 C 12.957031 0.609375 13.09375 0.375 13.3125 -0.0625 C 13.53125 -0.5 13.789062 -1.03125 14.09375 -1.65625 C 14.394531 -2.28125 14.703125 -2.953125 15.015625 -3.671875 C 15.328125 -4.398438 15.601562 -5.070312 15.84375 -5.6875 C 15.4375 -5.15625 15 -4.640625 14.53125 -4.140625 C 14.0625 -3.648438 13.5625 -3.207031 13.03125 -2.8125 C 12.5 -2.425781 11.925781 -2.113281 11.3125 -1.875 C 10.695312 -1.632812 10.050781 -1.515625 9.375 -1.515625 C 9.007812 -1.515625 8.585938 -1.578125 8.109375 -1.703125 C 7.640625 -1.828125 7.144531 -1.992188 6.625 -2.203125 C 6.113281 -2.421875 5.609375 -2.675781 5.109375 -2.96875 C 4.617188 -3.257812 4.1875 -3.570312 3.8125 -3.90625 C 3.4375 -4.238281 3.140625 -4.578125 2.921875 -4.921875 C 2.703125 -5.273438 2.609375 -5.628906 2.640625 -5.984375 C 2.742188 -6.992188 3.085938 -8.148438 3.671875 -9.453125 C 4.265625 -10.765625 5.023438 -12.101562 5.953125 -13.46875 C 6.878906 -14.832031 7.9375 -16.164062 9.125 -17.46875 C 10.3125 -18.78125 11.550781 -19.945312 12.84375 -20.96875 C 14.144531 -21.988281 15.457031 -22.816406 16.78125 -23.453125 C 18.101562 -24.085938 19.363281 -24.40625 20.5625 -24.40625 C 20.957031 -24.40625 21.414062 -24.328125 21.9375 -24.171875 C 22.457031 -24.015625 22.945312 -23.800781 23.40625 -23.53125 C 23.863281 -23.269531 24.242188 -22.957031 24.546875 -22.59375 C 24.859375 -22.226562 24.988281 -21.832031 24.9375 -21.40625 C 24.914062 -21.25 24.941406 -21.03125 25.015625 -20.75 C 25.097656 -20.46875 25.179688 -20.175781 25.265625 -19.875 C 25.359375 -19.582031 25.425781 -19.296875 25.46875 -19.015625 C 25.519531 -18.742188 25.503906 -18.523438 25.421875 -18.359375 L 17.28125 -1.203125 L 17.4375 -1.203125 L 25.8125 -4.375 L 26.109375 -4.375 C 26.503906 -4.375 26.675781 -4.160156 26.625 -3.734375 C 26.59375 -3.515625 26.554688 -3.367188 26.515625 -3.296875 C 26.484375 -3.234375 26.347656 -3.164062 26.109375 -3.09375 C 25.753906 -2.957031 25.300781 -2.726562 24.75 -2.40625 C 24.195312 -2.082031 23.597656 -1.710938 22.953125 -1.296875 C 22.316406 -0.890625 21.664062 -0.457031 21 0 C 20.332031 0.457031 19.695312 0.90625 19.09375 1.34375 C 18.5 1.78125 17.972656 2.175781 17.515625 2.53125 C 17.054688 2.894531 16.710938 3.175781 16.484375 3.375 L 16 3.859375 C 15.0625 6.046875 14.003906 8.171875 12.828125 10.234375 C 11.648438 12.304688 10.25 14.226562 8.625 16 C 7.15625 17.488281 5.648438 18.757812 4.109375 19.8125 C 2.566406 20.875 0.925781 21.738281 -0.8125 22.40625 C -2.5625 23.070312 -4.421875 23.554688 -6.390625 23.859375 C -8.359375 24.171875 -10.488281 24.328125 -12.78125 24.328125 C -13.351562 24.328125 -13.863281 24.269531 -14.3125 24.15625 C -14.769531 24.039062 -15.148438 23.847656 -15.453125 23.578125 C -15.765625 23.304688 -15.988281 22.941406 -16.125 22.484375 C -16.257812 22.023438 -16.296875 21.453125 -16.234375 20.765625 Z M -9.609375 18.71875 C -9.640625 18.75 -9.640625 18.8125 -9.609375 18.90625 C -9.585938 19 -9.523438 19.085938 -9.421875 19.171875 C -9.316406 19.265625 -9.175781 19.328125 -9 19.359375 C -8.820312 19.390625 -8.585938 19.363281 -8.296875 19.28125 C -6.710938 18.832031 -5.265625 18.40625 -3.953125 18 C -2.648438 17.601562 -1.453125 17.171875 -0.359375 16.703125 C 0.734375 16.234375 1.734375 15.707031 2.640625 15.125 C 3.554688 14.550781 4.425781 13.863281 5.25 13.0625 C 6.070312 12.257812 6.863281 11.316406 7.625 10.234375 C 8.394531 9.160156 9.171875 7.898438 9.953125 6.453125 C 7.515625 7.921875 5.179688 9.320312 2.953125 10.65625 C 0.722656 11.988281 -1.265625 13.195312 -3.015625 14.28125 C -4.765625 15.363281 -6.222656 16.285156 -7.390625 17.046875 C -8.554688 17.816406 -9.296875 18.375 -9.609375 18.71875 Z M 9.375 -5.484375 C 9.332031 -5.191406 9.367188 -5.003906 9.484375 -4.921875 C 9.609375 -4.847656 9.785156 -4.8125 10.015625 -4.8125 C 10.742188 -4.8125 11.46875 -5.066406 12.1875 -5.578125 C 12.914062 -6.085938 13.617188 -6.753906 14.296875 -7.578125 C 14.972656 -8.398438 15.617188 -9.320312 16.234375 -10.34375 C 16.847656 -11.363281 17.414062 -12.382812 17.9375 -13.40625 C 18.457031 -14.4375 18.921875 -15.40625 19.328125 -16.3125 C 19.742188 -17.226562 20.085938 -17.988281 20.359375 -18.59375 C 20.316406 -18.59375 20.21875 -18.59375 20.0625 -18.59375 C 19.914062 -18.601562 19.828125 -18.601562 19.796875 -18.59375 C 18.566406 -18.28125 17.457031 -17.789062 16.46875 -17.125 C 15.488281 -16.457031 14.617188 -15.707031 13.859375 -14.875 C 13.097656 -14.039062 12.445312 -13.15625 11.90625 -12.21875 C 11.363281 -11.28125 10.90625 -10.378906 10.53125 -9.515625 C 10.164062 -8.648438 9.890625 -7.859375 9.703125 -7.140625 C 9.515625 -6.421875 9.40625 -5.867188 9.375 -5.484375 Z M 9.375 -5.484375 "/></g></g></g><g fill="#ffffff" fill-opacity="1"><g transform="translate(175.701405, 217.049313)"><g><path d="M 1.40625 -2.328125 C 1.476562 -2.617188 1.628906 -3.164062 1.859375 -3.96875 C 2.085938 -4.769531 2.375 -5.726562 2.71875 -6.84375 C 3.070312 -7.96875 3.472656 -9.195312 3.921875 -10.53125 C 4.378906 -11.875 4.878906 -13.210938 5.421875 -14.546875 C 5.972656 -15.890625 6.554688 -17.191406 7.171875 -18.453125 C 7.785156 -19.722656 8.421875 -20.847656 9.078125 -21.828125 C 9.734375 -22.804688 10.398438 -23.585938 11.078125 -24.171875 C 11.765625 -24.765625 12.457031 -25.070312 13.15625 -25.09375 C 13.382812 -25.09375 13.609375 -25.070312 13.828125 -25.03125 C 14.046875 -24.988281 14.238281 -24.910156 14.40625 -24.796875 C 14.582031 -24.679688 14.722656 -24.539062 14.828125 -24.375 C 14.929688 -24.207031 14.972656 -23.992188 14.953125 -23.734375 C 14.921875 -23.171875 14.832031 -22.582031 14.6875 -21.96875 C 14.539062 -21.351562 14.378906 -20.765625 14.203125 -20.203125 C 14.773438 -20.609375 15.363281 -21.007812 15.96875 -21.40625 C 16.570312 -21.800781 17.1875 -22.15625 17.8125 -22.46875 C 18.4375 -22.78125 19.078125 -23.03125 19.734375 -23.21875 C 20.398438 -23.40625 21.085938 -23.5 21.796875 -23.5 C 22.148438 -23.5 22.523438 -23.453125 22.921875 -23.359375 C 23.328125 -23.265625 23.695312 -23.113281 24.03125 -22.90625 C 24.375 -22.707031 24.648438 -22.457031 24.859375 -22.15625 C 25.078125 -21.863281 25.171875 -21.507812 25.140625 -21.09375 C 25.128906 -20.894531 25.023438 -20.644531 24.828125 -20.34375 C 24.628906 -20.039062 24.382812 -19.722656 24.09375 -19.390625 C 23.800781 -19.054688 23.484375 -18.722656 23.140625 -18.390625 C 22.804688 -18.054688 22.488281 -17.753906 22.1875 -17.484375 C 21.882812 -17.210938 21.625 -16.988281 21.40625 -16.8125 C 21.195312 -16.632812 21.078125 -16.546875 21.046875 -16.546875 C 20.929688 -16.492188 20.789062 -16.488281 20.625 -16.53125 C 20.457031 -16.570312 20.382812 -16.660156 20.40625 -16.796875 C 20.425781 -16.984375 20.53125 -17.1875 20.71875 -17.40625 C 20.90625 -17.632812 21.082031 -17.84375 21.25 -18.03125 C 21.414062 -18.21875 21.507812 -18.363281 21.53125 -18.46875 C 21.5625 -18.582031 21.425781 -18.628906 21.125 -18.609375 C 19.726562 -18.523438 18.46875 -18.195312 17.34375 -17.625 C 16.226562 -17.050781 15.226562 -16.328125 14.34375 -15.453125 C 13.46875 -14.578125 12.6875 -13.585938 12 -12.484375 C 11.320312 -11.378906 10.707031 -10.257812 10.15625 -9.125 C 9.613281 -7.988281 9.117188 -6.878906 8.671875 -5.796875 C 8.234375 -4.710938 7.8125 -3.75 7.40625 -2.90625 C 7.007812 -2.0625 6.613281 -1.375 6.21875 -0.84375 C 5.832031 -0.3125 5.414062 -0.03125 4.96875 0 C 4.863281 0 4.617188 -0.0664062 4.234375 -0.203125 C 3.847656 -0.335938 3.445312 -0.519531 3.03125 -0.75 C 2.613281 -0.976562 2.238281 -1.234375 1.90625 -1.515625 C 1.570312 -1.804688 1.40625 -2.078125 1.40625 -2.328125 Z M 1.40625 -2.328125 "/></g></g></g><g fill="#ffffff" fill-opacity="1"><g transform="translate(201.274473, 217.049313)"><g><path d="M 20.453125 4.25 C 19.585938 3.5 18.921875 2.738281 18.453125 1.96875 C 17.984375 1.195312 17.65625 0.394531 17.46875 -0.4375 C 17.28125 -1.269531 17.207031 -2.15625 17.25 -3.09375 C 17.289062 -4.03125 17.382812 -5.054688 17.53125 -6.171875 C 16.644531 -5.367188 15.820312 -4.585938 15.0625 -3.828125 C 14.300781 -3.066406 13.503906 -2.382812 12.671875 -1.78125 C 11.835938 -1.175781 10.90625 -0.6875 9.875 -0.3125 C 8.851562 0.0507812 7.644531 0.234375 6.25 0.234375 C 5.550781 0.234375 4.863281 0.113281 4.1875 -0.125 C 3.507812 -0.363281 2.90625 -0.679688 2.375 -1.078125 C 1.851562 -1.484375 1.429688 -1.953125 1.109375 -2.484375 C 0.796875 -3.023438 0.640625 -3.597656 0.640625 -4.203125 C 0.640625 -5.566406 0.898438 -6.953125 1.421875 -8.359375 C 1.941406 -9.765625 2.648438 -11.132812 3.546875 -12.46875 C 4.441406 -13.800781 5.472656 -15.082031 6.640625 -16.3125 C 7.804688 -17.539062 9.035156 -18.660156 10.328125 -19.671875 C 11.617188 -20.691406 12.929688 -21.578125 14.265625 -22.328125 C 15.609375 -23.078125 16.882812 -23.648438 18.09375 -24.046875 C 19.3125 -24.453125 20.429688 -24.660156 21.453125 -24.671875 C 22.484375 -24.679688 23.320312 -24.4375 23.96875 -23.9375 C 24.050781 -24.09375 24.234375 -24.238281 24.515625 -24.375 C 24.796875 -24.507812 25.113281 -24.601562 25.46875 -24.65625 C 25.832031 -24.707031 26.195312 -24.695312 26.5625 -24.625 C 26.925781 -24.5625 27.234375 -24.40625 27.484375 -24.15625 C 27.734375 -23.90625 27.882812 -23.550781 27.9375 -23.09375 C 28 -22.632812 27.910156 -22.035156 27.671875 -21.296875 C 26.203125 -17.085938 24.84375 -12.890625 23.59375 -8.703125 C 22.34375 -4.523438 21.296875 -0.207031 20.453125 4.25 Z M 22.171875 -21.40625 C 21.023438 -21.300781 19.847656 -20.953125 18.640625 -20.359375 C 17.429688 -19.773438 16.257812 -19.023438 15.125 -18.109375 C 14 -17.203125 12.941406 -16.179688 11.953125 -15.046875 C 10.960938 -13.910156 10.109375 -12.75 9.390625 -11.5625 C 8.679688 -10.375 8.140625 -9.195312 7.765625 -8.03125 C 7.398438 -6.875 7.269531 -5.828125 7.375 -4.890625 C 7.832031 -4.753906 8.445312 -4.910156 9.21875 -5.359375 C 10 -5.816406 10.894531 -6.488281 11.90625 -7.375 C 12.914062 -8.257812 14.007812 -9.332031 15.1875 -10.59375 C 16.375 -11.863281 17.609375 -13.25 18.890625 -14.75 C 19.710938 -15.53125 20.363281 -16.273438 20.84375 -16.984375 C 21.332031 -17.691406 21.691406 -18.335938 21.921875 -18.921875 C 22.160156 -19.503906 22.285156 -20.003906 22.296875 -20.421875 C 22.316406 -20.835938 22.273438 -21.164062 22.171875 -21.40625 Z M 22.171875 -21.40625 "/></g></g></g><g fill="#ffffff" fill-opacity="1"><g transform="translate(231.429693, 217.049313)"><g><path d="M -1.890625 19.046875 C -1.835938 18.023438 -1.617188 16.867188 -1.234375 15.578125 C -0.859375 14.285156 -0.398438 12.953125 0.140625 11.578125 C 0.691406 10.210938 1.28125 8.847656 1.90625 7.484375 C 2.53125 6.128906 3.101562 4.867188 3.625 3.703125 C 4.15625 2.546875 4.597656 1.53125 4.953125 0.65625 C 5.304688 -0.207031 5.484375 -0.835938 5.484375 -1.234375 C 5.160156 -1.585938 4.851562 -2.070312 4.5625 -2.6875 C 4.269531 -3.300781 4.125 -3.925781 4.125 -4.5625 C 4.125 -4.863281 4.179688 -5.179688 4.296875 -5.515625 C 4.421875 -5.847656 4.582031 -6.15625 4.78125 -6.4375 C 4.988281 -6.71875 5.238281 -6.953125 5.53125 -7.140625 C 5.820312 -7.328125 6.140625 -7.421875 6.484375 -7.421875 C 6.328125 -7.078125 6.171875 -6.757812 6.015625 -6.46875 C 5.859375 -6.1875 5.757812 -5.90625 5.71875 -5.625 C 5.675781 -5.34375 5.71875 -5.0625 5.84375 -4.78125 C 5.976562 -4.507812 6.238281 -4.226562 6.625 -3.9375 C 6.800781 -4.039062 6.992188 -4.257812 7.203125 -4.59375 C 7.421875 -4.925781 7.640625 -5.3125 7.859375 -5.75 C 8.078125 -6.195312 8.289062 -6.675781 8.5 -7.1875 C 8.707031 -7.707031 8.894531 -8.1875 9.0625 -8.625 C 9.226562 -9.070312 9.367188 -9.460938 9.484375 -9.796875 C 9.597656 -10.128906 9.671875 -10.347656 9.703125 -10.453125 L 9.703125 -10.625 C 9.703125 -10.726562 9.664062 -10.8125 9.59375 -10.875 C 9.53125 -10.945312 9.457031 -11.015625 9.375 -11.078125 C 9.300781 -11.148438 9.234375 -11.234375 9.171875 -11.328125 C 9.117188 -11.421875 9.09375 -11.546875 9.09375 -11.703125 C 9.09375 -12.140625 9.378906 -12.769531 9.953125 -13.59375 C 10.523438 -14.414062 11.296875 -15.414062 12.265625 -16.59375 C 12.960938 -18.28125 13.578125 -19.648438 14.109375 -20.703125 C 14.648438 -21.753906 15.132812 -22.578125 15.5625 -23.171875 C 15.988281 -23.765625 16.367188 -24.164062 16.703125 -24.375 C 17.035156 -24.59375 17.347656 -24.703125 17.640625 -24.703125 C 17.804688 -24.703125 18.023438 -24.640625 18.296875 -24.515625 C 18.578125 -24.390625 18.816406 -24.160156 19.015625 -23.828125 C 19.222656 -23.503906 19.351562 -23.054688 19.40625 -22.484375 C 19.457031 -21.921875 19.363281 -21.203125 19.125 -20.328125 C 20.78125 -20.429688 22.21875 -20.316406 23.4375 -19.984375 C 24.65625 -19.648438 25.664062 -19.109375 26.46875 -18.359375 C 27.269531 -17.609375 27.867188 -16.660156 28.265625 -15.515625 C 28.671875 -14.367188 28.894531 -13.046875 28.9375 -11.546875 C 28.945312 -10.128906 28.6875 -8.785156 28.15625 -7.515625 C 27.632812 -6.242188 26.910156 -5.078125 25.984375 -4.015625 C 25.066406 -2.960938 24 -2.035156 22.78125 -1.234375 C 21.570312 -0.429688 20.300781 0.203125 18.96875 0.671875 C 17.632812 1.140625 16.28125 1.429688 14.90625 1.546875 C 13.539062 1.660156 12.242188 1.554688 11.015625 1.234375 C 10.703125 1.609375 10.34375 2.1875 9.9375 2.96875 C 9.539062 3.75 9.109375 4.644531 8.640625 5.65625 C 8.171875 6.675781 7.679688 7.773438 7.171875 8.953125 C 6.671875 10.140625 6.160156 11.320312 5.640625 12.5 C 5.117188 13.675781 4.601562 14.804688 4.09375 15.890625 C 3.582031 16.972656 3.097656 17.9375 2.640625 18.78125 C 2.179688 19.625 1.742188 20.300781 1.328125 20.8125 C 0.921875 21.320312 0.5625 21.585938 0.25 21.609375 C -0.132812 21.628906 -0.460938 21.5625 -0.734375 21.40625 C -1.015625 21.25 -1.242188 21.046875 -1.421875 20.796875 C -1.597656 20.554688 -1.722656 20.28125 -1.796875 19.96875 C -1.878906 19.664062 -1.910156 19.359375 -1.890625 19.046875 Z M 18.359375 -16.59375 C 18.097656 -15.925781 17.804688 -15.179688 17.484375 -14.359375 C 17.160156 -13.546875 16.816406 -12.695312 16.453125 -11.8125 C 16.097656 -10.9375 15.738281 -10.050781 15.375 -9.15625 C 15.007812 -8.269531 14.664062 -7.425781 14.34375 -6.625 C 14.019531 -5.820312 13.71875 -5.082031 13.4375 -4.40625 C 13.164062 -3.738281 12.953125 -3.175781 12.796875 -2.71875 L 13.109375 -2.71875 C 13.910156 -2.71875 14.738281 -2.835938 15.59375 -3.078125 C 16.445312 -3.316406 17.273438 -3.648438 18.078125 -4.078125 C 18.878906 -4.503906 19.640625 -5.007812 20.359375 -5.59375 C 21.078125 -6.1875 21.703125 -6.835938 22.234375 -7.546875 C 22.773438 -8.253906 23.203125 -9.007812 23.515625 -9.8125 C 23.828125 -10.613281 23.984375 -11.441406 23.984375 -12.296875 C 23.984375 -12.835938 23.894531 -13.410156 23.71875 -14.015625 C 23.539062 -14.617188 23.234375 -15.144531 22.796875 -15.59375 C 22.359375 -16.050781 21.78125 -16.382812 21.0625 -16.59375 C 20.351562 -16.8125 19.453125 -16.8125 18.359375 -16.59375 Z M 18.359375 -16.59375 "/></g></g></g><g fill="#ffffff" fill-opacity="1"><g transform="translate(262.583268, 217.049313)"><g><path d="M 18.078125 -18.921875 C 17.859375 -18.804688 17.523438 -18.601562 17.078125 -18.3125 C 16.628906 -18.019531 16.125 -17.671875 15.5625 -17.265625 C 15 -16.867188 14.40625 -16.429688 13.78125 -15.953125 C 13.164062 -15.472656 12.570312 -14.988281 12 -14.5 C 11.425781 -14.019531 10.90625 -13.539062 10.4375 -13.0625 C 9.96875 -12.582031 9.613281 -12.144531 9.375 -11.75 C 9.238281 -11.507812 9.054688 -11.132812 8.828125 -10.625 C 8.609375 -10.113281 8.363281 -9.53125 8.09375 -8.875 C 7.820312 -8.226562 7.546875 -7.539062 7.265625 -6.8125 C 6.984375 -6.09375 6.710938 -5.410156 6.453125 -4.765625 C 6.191406 -4.117188 5.957031 -3.535156 5.75 -3.015625 C 5.550781 -2.492188 5.398438 -2.113281 5.296875 -1.875 C 5.109375 -1.457031 4.863281 -1.128906 4.5625 -0.890625 C 4.269531 -0.648438 3.875 -0.53125 3.375 -0.53125 C 2.8125 -0.53125 2.347656 -0.707031 1.984375 -1.0625 C 1.628906 -1.414062 1.453125 -1.835938 1.453125 -2.328125 C 1.472656 -3.585938 1.6875 -4.9375 2.09375 -6.375 C 2.507812 -7.8125 3.050781 -9.363281 3.71875 -11.03125 C 4.382812 -12.707031 5.140625 -14.519531 5.984375 -16.46875 C 6.828125 -18.425781 7.691406 -20.550781 8.578125 -22.84375 C 9.460938 -25.144531 10.335938 -27.644531 11.203125 -30.34375 C 12.078125 -33.039062 12.863281 -35.96875 13.5625 -39.125 C 13.613281 -39.414062 13.71875 -39.835938 13.875 -40.390625 C 14.03125 -40.941406 14.234375 -41.488281 14.484375 -42.03125 C 14.742188 -42.582031 15.046875 -43.0625 15.390625 -43.46875 C 15.742188 -43.882812 16.132812 -44.09375 16.5625 -44.09375 C 17.09375 -44.09375 17.457031 -43.785156 17.65625 -43.171875 C 17.863281 -42.566406 17.945312 -41.769531 17.90625 -40.78125 C 17.863281 -39.789062 17.71875 -38.648438 17.46875 -37.359375 C 17.226562 -36.078125 16.929688 -34.753906 16.578125 -33.390625 C 16.222656 -32.023438 15.84375 -30.664062 15.4375 -29.3125 C 15.03125 -27.96875 14.628906 -26.734375 14.234375 -25.609375 C 13.835938 -24.492188 13.476562 -23.546875 13.15625 -22.765625 C 12.832031 -21.992188 12.585938 -21.488281 12.421875 -21.25 C 12.984375 -21.570312 13.53125 -21.921875 14.0625 -22.296875 C 14.601562 -22.671875 15.160156 -23.007812 15.734375 -23.3125 C 16.316406 -23.625 16.925781 -23.882812 17.5625 -24.09375 C 18.207031 -24.300781 18.914062 -24.40625 19.6875 -24.40625 C 20.007812 -24.40625 20.460938 -24.316406 21.046875 -24.140625 C 21.640625 -23.972656 22.226562 -23.703125 22.8125 -23.328125 C 23.394531 -22.953125 23.894531 -22.457031 24.3125 -21.84375 C 24.726562 -21.238281 24.925781 -20.492188 24.90625 -19.609375 C 24.90625 -19.367188 24.828125 -18.9375 24.671875 -18.3125 C 24.523438 -17.695312 24.316406 -16.941406 24.046875 -16.046875 C 23.785156 -15.160156 23.46875 -14.179688 23.09375 -13.109375 C 22.71875 -12.046875 22.300781 -10.953125 21.84375 -9.828125 C 21.394531 -8.703125 20.914062 -7.578125 20.40625 -6.453125 C 19.894531 -5.335938 19.359375 -4.296875 18.796875 -3.328125 C 18.242188 -2.367188 17.679688 -1.519531 17.109375 -0.78125 C 16.546875 -0.0390625 15.976562 0.523438 15.40625 0.921875 C 15.394531 -0.203125 15.359375 -1.132812 15.296875 -1.875 C 15.234375 -2.625 15.191406 -3.328125 15.171875 -3.984375 C 15.160156 -4.640625 15.1875 -5.328125 15.25 -6.046875 C 15.3125 -6.765625 15.441406 -7.664062 15.640625 -8.75 C 15.847656 -9.84375 16.144531 -11.203125 16.53125 -12.828125 C 16.914062 -14.453125 17.429688 -16.484375 18.078125 -18.921875 Z M 18.078125 -18.921875 "/></g></g></g><g fill="#ffffff" fill-opacity="1"><g transform="translate(288.642687, 217.049313)"><g><path d="M 7.53125 18.5625 C 7.53125 18.394531 7.453125 18.140625 7.296875 17.796875 C 7.140625 17.453125 6.960938 17 6.765625 16.4375 C 6.578125 15.875 6.382812 15.191406 6.1875 14.390625 C 5.988281 13.585938 5.835938 12.640625 5.734375 11.546875 C 5.734375 11.515625 5.820312 11.597656 6 11.796875 C 6.175781 12.003906 6.40625 12.269531 6.6875 12.59375 C 6.976562 12.914062 7.285156 13.273438 7.609375 13.671875 C 7.941406 14.066406 8.257812 14.429688 8.5625 14.765625 C 8.875 15.109375 9.140625 15.398438 9.359375 15.640625 C 9.585938 15.878906 9.726562 16 9.78125 16 C 9.9375 16.03125 10.144531 15.769531 10.40625 15.21875 C 10.675781 14.664062 10.972656 13.90625 11.296875 12.9375 C 11.617188 11.976562 11.960938 10.835938 12.328125 9.515625 C 12.691406 8.203125 13.050781 6.796875 13.40625 5.296875 C 13.769531 3.796875 14.109375 2.238281 14.421875 0.625 C 14.742188 -0.988281 15.023438 -2.578125 15.265625 -4.140625 C 14.890625 -3.921875 14.441406 -3.628906 13.921875 -3.265625 C 13.410156 -2.898438 12.859375 -2.535156 12.265625 -2.171875 C 11.679688 -1.816406 11.066406 -1.507812 10.421875 -1.25 C 9.773438 -1 9.132812 -0.875 8.5 -0.875 C 7.71875 -0.875 7 -0.941406 6.34375 -1.078125 C 5.695312 -1.210938 5.15625 -1.515625 4.71875 -1.984375 C 4.289062 -2.453125 3.976562 -3.125 3.78125 -4 C 3.582031 -4.882812 3.550781 -6.066406 3.6875 -7.546875 C 3.71875 -8.023438 3.835938 -8.742188 4.046875 -9.703125 C 4.253906 -10.660156 4.523438 -11.726562 4.859375 -12.90625 C 5.203125 -14.082031 5.609375 -15.285156 6.078125 -16.515625 C 6.546875 -17.742188 7.0625 -18.867188 7.625 -19.890625 C 8.1875 -20.921875 8.785156 -21.765625 9.421875 -22.421875 C 10.066406 -23.078125 10.738281 -23.421875 11.4375 -23.453125 C 11.863281 -23.484375 12.195312 -23.320312 12.4375 -22.96875 C 12.675781 -22.625 12.796875 -22.15625 12.796875 -21.5625 C 12.367188 -19.582031 12 -17.890625 11.6875 -16.484375 C 11.382812 -15.085938 11.128906 -13.910156 10.921875 -12.953125 C 10.722656 -11.992188 10.554688 -11.222656 10.421875 -10.640625 C 10.296875 -10.066406 10.195312 -9.597656 10.125 -9.234375 C 10.050781 -8.878906 9.992188 -8.601562 9.953125 -8.40625 C 9.921875 -8.207031 9.890625 -8.019531 9.859375 -7.84375 C 9.828125 -7.664062 9.785156 -7.457031 9.734375 -7.21875 C 9.691406 -6.976562 9.640625 -6.640625 9.578125 -6.203125 C 9.597656 -6.054688 9.710938 -6.003906 9.921875 -6.046875 C 10.128906 -6.097656 10.398438 -6.195312 10.734375 -6.34375 C 11.066406 -6.488281 11.4375 -6.675781 11.84375 -6.90625 C 12.257812 -7.144531 12.679688 -7.394531 13.109375 -7.65625 C 14.097656 -8.269531 15.222656 -9.015625 16.484375 -9.890625 C 16.804688 -10.273438 17.132812 -10.878906 17.46875 -11.703125 C 17.800781 -12.535156 18.140625 -13.457031 18.484375 -14.46875 C 18.828125 -15.476562 19.164062 -16.519531 19.5 -17.59375 C 19.832031 -18.664062 20.160156 -19.644531 20.484375 -20.53125 C 20.804688 -21.414062 21.109375 -22.144531 21.390625 -22.71875 C 21.671875 -23.289062 21.929688 -23.585938 22.171875 -23.609375 C 22.578125 -23.617188 22.929688 -23.460938 23.234375 -23.140625 C 23.535156 -22.816406 23.78125 -22.429688 23.96875 -21.984375 C 24.164062 -21.546875 24.316406 -21.097656 24.421875 -20.640625 C 24.523438 -20.179688 24.578125 -19.832031 24.578125 -19.59375 C 24.578125 -19.25 24.523438 -18.796875 24.421875 -18.234375 C 24.316406 -17.671875 24.179688 -17.039062 24.015625 -16.34375 C 23.859375 -15.65625 23.679688 -14.9375 23.484375 -14.1875 C 23.296875 -13.4375 23.109375 -12.707031 22.921875 -12 C 22.734375 -11.300781 22.5625 -10.648438 22.40625 -10.046875 C 22.25 -9.441406 22.140625 -8.941406 22.078125 -8.546875 C 21.847656 -7.359375 21.554688 -6 21.203125 -4.46875 C 20.859375 -2.9375 20.460938 -1.335938 20.015625 0.328125 C 19.578125 2.003906 19.101562 3.710938 18.59375 5.453125 C 18.082031 7.191406 17.550781 8.867188 17 10.484375 C 16.457031 12.097656 15.898438 13.601562 15.328125 15 C 14.765625 16.40625 14.210938 17.601562 13.671875 18.59375 C 13.140625 19.59375 12.625 20.347656 12.125 20.859375 C 11.625 21.378906 11.164062 21.550781 10.75 21.375 C 9.59375 20.914062 8.765625 20.484375 8.265625 20.078125 C 7.773438 19.679688 7.53125 19.175781 7.53125 18.5625 Z M 7.53125 18.5625 "/></g></g></g></svg>