<svg xmlns="http://www.w3.org/2000/svg" xmlns:xlink="http://www.w3.org/1999/xlink" width="500" zoomAndPan="magnify" viewBox="0 0 375 375" height="500" preserveAspectRatio="xMidYMid meet" xmlns:v="https://vecta.io/nano"><style><![CDATA[.B{fill:#fff}.C{clip-rule:nonzero}]]></style><defs><clipPath id="A"><path d="M240 147h70.406v16H240zm0 0" class="C"/></clipPath><clipPath id="B"><path d="M241 177h69.406v18H241zm0 0" class="C"/></clipPath><clipPath id="C"><path d="M139 130h107v166.156H139zm0 0" class="C"/></clipPath><clipPath id="D"><path d="M64.406 155H72v8h-7.594zm0 0" class="C"/></clipPath><clipPath id="E"><path d="M64.406 173H69v5h-4.594zm0 0" class="C"/></clipPath><path id="F" d="M85.96 319.405c1.227-1.531 2.594-2.566 4.094-3.109a5.62 5.62 0 0 1 1.219-.312l1.406-.141.656-.047c.52-.051.988.09 1.406.422.426.324.672.746.734 1.266.07.512-.059.98-.391 1.406-.324.43-.746.684-1.266.766-.406.055-.781.078-1.125.078a4.68 4.68 0 0 0-.766.047 4.59 4.59 0 0 0-.562.109c-1.148.438-2.25 1.508-3.312 3.203-.844 1.367-1.621 3.043-2.328 5.031l-.859 2.781v.156a2.43 2.43 0 0 1-.031.234c-.012.125-.016.281-.016.469-.105 1.148-.586 1.953-1.437 2.422-.625.352-1.242.391-1.844.109-.73-.293-1.137-.852-1.219-1.672-.031-.32.008-.719.125-1.187l.156-.562.094-.328c.02-.062.031-.117.031-.172.031-.082.07-.422.125-1.016l.125-1.406.594-4.406.672-5.906c.051-.539.273-.984.672-1.328a1.83 1.83 0 0 1 1.391-.453c.531.043.969.262 1.313.656a1.86 1.86 0 0 1 .469 1.375l-.125 1.516zm0 0"/><path id="G" d="M109.3 319.327c-.086-.082-.246-.191-.484-.328-.773-.469-2.102-.238-3.984.688-1.605.793-3.117 1.898-4.531 3.313l1 .156.547.078c.051.012.219.016.5.016.457-.082 1.27-.375 2.438-.875 1.176-.508 2.219-1.078 3.125-1.703.738-.52 1.203-.969 1.391-1.344zm-11.094 6.344c-.625 1.086-.898 1.984-.812 2.703.156 1.031 1.379 1.715 3.672 2.047 1.289.188 2.258.242 2.906.156.719-.082 1.703-.328 2.953-.734l.906-.328.641-.266c.164-.07.348-.176.547-.312l.438-.328.578-.406.781-.609c.406-.301.875-.414 1.406-.344a1.76 1.76 0 0 1 1.266.734c.32.418.445.891.375 1.422a1.84 1.84 0 0 1-.75 1.297l-.781.609-.734.5c-.086.086-.277.219-.578.406l-.766.438-.859.359-1.234.422c-1.5.551-2.746.879-3.734.984-.98.113-2.289.063-3.922-.156-1.969-.305-3.562-.898-4.781-1.781-1.207-.883-1.922-2.066-2.141-3.547-.332-2.258.609-4.711 2.828-7.359 1.875-2.27 4.109-4.047 6.703-5.328 3.145-1.551 5.695-1.754 7.656-.609.926.543 1.609 1.211 2.047 2 .438.824.504 1.727.203 2.703-.355 1.199-1.324 2.359-2.906 3.484-1.117.762-2.398 1.461-3.844 2.094-1.449.625-2.57.992-3.359 1.094-.242.055-.547.074-.922.063l-.937-.062-.781-.094-.422-.062a1.8 1.8 0 0 1-1.641-1.187zm0 0"/><path id="H" d="M136.234 319.28c-.355-.383-.523-.836-.5-1.359.031-.539.242-.988.641-1.344a1.83 1.83 0 0 1 1.375-.484l1.266.031c1.395-1.332 2.609-2.672 3.641-4.016.031-.02.086-.129.172-.328l.172-.422.234-.516c.25-.57.535-.992.859-1.266.438-.383.941-.578 1.516-.578.602.031 1.117.266 1.547.703.738.711.93 1.555.578 2.531-.137.418-.406.844-.812 1.281l-.391.422-.266.25a.75.75 0 0 0-.125.125c-.031.043-.047.074-.047.094l-.984 1.844h1.969a1.82 1.82 0 0 1 1.922 1.922 1.86 1.86 0 0 1-.578 1.359c-.375.375-.824.563-1.344.563h-3.797l-.547 1.188c-.812 1.855-1.387 3.574-1.719 5.156-.219 1.043-.297 1.977-.234 2.797a3.83 3.83 0 0 0 .125.813c.508-.27 1.109-.816 1.797-1.641.352-.375.797-.582 1.328-.625s.992.109 1.391.453c.395.336.613.766.656 1.297a2.01 2.01 0 0 1-.422 1.422c-1.312 1.5-2.531 2.453-3.656 2.859-.711.27-1.414.32-2.109.156-.687-.156-1.281-.523-1.781-1.094-.68-.789-1.074-1.91-1.187-3.359-.074-1.176.035-2.473.328-3.891.281-1.25.707-2.641 1.281-4.172-.742.168-1.355-.039-1.844-.625-.418-.426-.57-.941-.453-1.547zm0 0"/><path id="I" d="M153.269 328.858l.938-1.062c.375-.383.828-.578 1.359-.578a1.81 1.81 0 0 1 1.359.578 1.94 1.94 0 0 1 .547 1.375c0 .531-.187.977-.562 1.328l-.375.406-.406.531-.5.656c-.781.957-1.625 1.582-2.531 1.875-.656.219-1.266.223-1.828.016a2.58 2.58 0 0 1-1.328-1.078c-.324-.539-.527-1.25-.609-2.125-.031-.383-.043-.754-.031-1.109l.078-.859.031-.359c.195-1.414.57-2.852 1.125-4.312.563-1.469 1.332-3.145 2.313-5.031l1.766-3.469a1.85 1.85 0 0 1 1.078-1.016c.508-.195 1.004-.187 1.484.031s.813.586 1 1.094c.188.5.172.98-.047 1.438l-1.906 3.844-2.047 4.313c-.469 1.168-.773 2.34-.906 3.516zm6.047-21.531c.383.387.578.84.578 1.359 0 .512-.195.961-.578 1.344-.375.375-.824.563-1.344.563s-.977-.187-1.359-.562a1.86 1.86 0 0 1-.562-1.344 1.89 1.89 0 0 1 .563-1.359 1.86 1.86 0 0 1 1.359-.578 1.82 1.82 0 0 1 1.344.578zm0 0"/></defs><path d="M-37.5-37.5h450v450h-450z" class="B"/><path d="M-37.5-37.5h450v450h-450z"/><g clip-path="url(#A)" class="B"><path d="M310.266 158.145c.219 1.684-.156 2.363-2.012 2.418l-34.148 1.285-30.434 1.027-3.375.004-.098-.738c1.055-1.156 2.563-1.371 3.941-1.723 14.047-3.57 28.266-6.332 42.473-9.125l20.531-3.961c1.508-.312 1.945.184 2.086 1.551l1.035 9.262zm0 0"/></g><g clip-path="url(#B)" class="B"><path d="M307.66 179.637c2.07.059 2.922.73 2.57 2.949-.547 3.461-.973 6.945-1.383 10.43-.16 1.367-.738 1.691-2.012 1.391l-60.906-14.324c-1.594-.379-3.281-.695-4.734-2.008 1.246-.965 2.492-.855 3.688-.844 15.047.188 30.078.992 45.109 1.625l17.668.781zm0 0"/></g><path d="M300.984 212.793c2.066.695 2.109 1.57 1.465 3.387-2.004 5.656-1.941 5.676-7.273 3.199l-52.719-24.5c-1.504-.699-3.137-1.238-4.574-2.902 3.609.586 6.676 1.676 9.758 2.652 17.902 5.672 35.547 12.16 53.344 18.164zm-.492-90.641c2.457 5.996 2.512 5.996-3.531 8.035l-56.203 18.965c-1.32.445-2.684.746-4.098 1.133-.246-.129-.613-.199-.73-.41-.25-.457.156-.738.473-.926l2.855-1.586c19.316-9.184 38.961-17.598 58.48-26.309 1.48-.66 2.117-.453 2.754 1.098zm-10.648 115.434c1.508.898 1.758 1.57.66 3-1.43 1.871-2.348 4.961-4.297 5.391-2.004.445-3.793-2.285-5.617-3.703l-45.777-35.648c-1.281-1-2.652-1.914-3.895-3.734 1.75.301 2.836 1.086 3.945 1.75l54.98 32.945zm-2.992-139.66c2.965 4.137 3.008 4.125-1.25 6.848l-53.77 34.285c-.879.539-1.684 1.453-3.367 1.027l7.199-5.984c15.953-12.57 32.25-24.652 48.633-36.613 1.223-.895 1.746-.691 2.555.438zm-13.137 162.902l-.805.945c-2.773 2.789-5.652 5.445-8.68 7.949-1.062.879-1.582.684-2.352-.359l-39.02-52.73c-.652-.883-1.16-1.883-1.707-2.844-.191-.336-.395-.727-.012-1.07.359-.324.758-.164 1.066.059.957.68 1.941 1.332 2.809 2.121 16.098 14.625 31.957 29.523 47.598 44.668.387.371.711.809 1.102 1.262zm-5.524-182.742c.949.805 1.082 1.418.121 2.48l-45.223 48.945c-.684.707-1.352 1.461-2.672 1.418l8.711-11.355 34.461-42.777c1.133-1.41 1.945-1.582 3.09-.195.449.543.973 1.031 1.512 1.484zm-21.496-15.43c1.133.574 1.363 1.152.613 2.367l-36.055 59.125c-.523.824-.98 1.758-2.039 2.309-.352-1.52.266-2.664.699-3.797L229.336 72l5.023-13.629c.445-1.262.969-1.613 2.176-.969l10.16 5.254zm0 0" class="B"/><g clip-path="url(#C)" class="B"><path d="M245.016 279.211c.848 1.879.746 2.766-1.242 3.719-17.75 8.52-36.344 13.125-58.262 13.203-3.066.074-8.391-.398-13.703-1.109-2.484-.328-2.453-.324-1.109-2.648 8.359-14.449 11.074-29.812 6.805-46.203-1.27-4.887-3.359-9.441-6.793-13.199-3.039-3.328-6.609-5.172-11.211-4.359-2.711.477-5.437.25-8.027-.746-3.203-1.23-4.82-3.848-4.031-7.109.609-2.508.059-4.352-1.703-6.004-1.035-.973-1.863-2.016-.676-3.469.535-.652.273-1.148-.324-1.586-1.621-1.176-1.328-2.641-.676-4.246 1.43-3.516 1.266-3.91-2.031-5.836-3.371-1.969-3.691-3.863-1.137-6.844 1.691-1.977 3.52-3.84 5.09-5.91 3.676-4.848 3.816-9.234.359-14.234-1.461-2.117-1.203-4.25-.609-6.395 4.578-16.535 15.004-27.469 30.691-32.914 18.637-6.469 38.305-.402 49.684 15.051 12.293 16.695 11.059 40.113-4.812 55.582-10.375 10.109-12.016 20.137-6.121 33.691 3.066 7.043 7.797 12.828 12.992 18.246 6.68 6.965 12.801 14.328 16.848 23.32zm-40.187-78.98c11.59-5.941 18.336-18.133 16.379-30.559-1.836-11.672-8.406-19.734-19.488-22.961-11.199-3.262-21.355-.633-29.109 8.629-11.832 14.129-5.195 34.813 12.293 38.824 1.953.449 4.02.926 6.133.09-.184-.445-.203-.578-.242-.582-.535-.082-1.066-.152-1.605-.215-8.34-.941-14.77-4.973-18.059-13.043-3.328-8.168-2.023-16.051 3.336-22.937 8.34-10.715 24.387-12.133 35.094-3.32 10.328 8.5 12.145 24.336 3.777 35.191-7.453 9.668-17.445 12.777-29.047 10.797-14.785-2.523-25.102-15.727-23.937-31.039 1-13.152 8.355-21.559 19.93-26.391 2.66-1.113 5.477-1.68 8.336-2.023.828-.098 2.34.148 2.234-.922-.102-1.02-1.559-.473-2.398-.453-2.801.074-5.535.645-8.211 1.484-20.031 6.305-28.805 29.008-18.191 47.059 8.426 14.332 27.941 19.977 42.777 12.371zm.977-20.301c2.91-6.129 1.664-13.437-3.117-18.297-5.07-5.156-13.246-6.402-19.594-2.988-4.84 2.602-8.285 8.145-7.559 12.629 4.863-10.031 8.746-12.863 16.625-12.355 5.598.359 11.137 4.313 12.461 9.918 2.707 11.477-3.449 17.008-13.551 19.504 5.938.969 11.965-2.586 14.734-8.41zm-7.387-5.488c.086-4.125-3.051-7.363-7.18-7.41-4.121-.047-7.297 2.961-7.348 6.953-.051 4.164 3.121 7.477 7.156 7.477 4.055-.004 7.289-3.082 7.371-7.02zm0 0"/></g><g class="B"><path d="M210.832 49.586c5.715 1.051 5.727.895 4.367 6.59l-15.305 64.086c-.266 1.109-.363 2.324-1.469 3.145-.348-3.625.297-7.133.789-10.625l8.621-60.824c.285-2.035.727-2.789 2.996-2.371zM196.23 174.215c.047 2.84-2.129 4.977-5.066 4.98-2.871.008-5.141-2.172-5.164-4.957-.023-2.77 2.293-5.078 5.086-5.066s5.098 2.27 5.145 5.043zm-4.922 2.555c1.723.066 2.484-.957 2.613-2.75-.129-1.645-1.238-2.414-2.762-2.391-1.449.023-2.465.844-2.469 2.516 0 1.781 1.016 2.563 2.617 2.625zm-5.808-69.036c2.809.051 5.105 2.379 5.051 5.117-.047 2.543-2.457 4.766-5.156 4.762-2.672-.008-4.93-2.312-4.887-4.996.043-2.715 2.309-4.934 4.992-4.883zm.246-59.156c5.223-.336 4.27-.609 4.207 4.156l-.016 15.543-.52.012-1.098 21.023c-.023.477-.039.965-.145 1.426-.156.68-.219 1.492-1.176 1.52-1.004.031-1.336-.672-1.457-1.523-.469-3.312-1.004-6.617-1.348-9.945l-3.004-29.984c-.18-1.66.258-2.168 1.77-2.102.926.039 1.855-.066 2.785-.125zm0 0"/><path d="M186.98 100.137c.031 1.047-.672 1.637-1.598 1.684-.977.051-1.621-.637-1.68-1.609-.062-1.035.633-1.535 1.441-1.672 1.121.086 1.805.555 1.836 1.598zm-7.996-8.246c.098 1.129-.668 1.559-1.59 1.598-.914.039-1.461-.582-1.445-1.484.016-.887.566-1.437 1.453-1.543.871.094 1.504.508 1.582 1.43zm-.546 11.168c.035 2.129-1.883 3.945-4.152 3.93-2.289-.016-4.094-1.754-4.121-3.973-.027-2.262 1.906-4 4.375-3.93 2.09.055 3.863 1.863 3.898 3.973zm-1.137 17.347c.008 2.496-1.961 4.391-4.531 4.371-2.703-.023-4.629-1.988-4.531-4.625.09-2.41 2.195-4.355 4.66-4.301 2.496.055 4.398 2.023 4.402 4.555zm-2.117-41.496c1.277.059 1.918.828 2.035 2.094-.137 1.336-.949 2.09-2.133 2.051-1.254-.047-2.234-.812-2.121-2.273.094-1.297.961-1.93 2.219-1.871zm-7.266-14.316c2.195.043 4.082 1.922 4.051 4.035-.031 2.137-1.887 3.801-4.23 3.797-2.359-.004-4.16-1.668-4.156-3.844.004-2.211 1.984-4.035 4.336-3.988zm.426 21.558c1.621.047 2.648 1.055 2.633 2.688-.02 1.621-1.262 2.207-2.668 2.402-1.465-.164-2.652-.832-2.621-2.445.031-1.586.977-2.691 2.656-2.645zm.125 25.735c.039 2.215-1.863 4.125-4.172 4.191-2.586.07-4.469-1.785-4.434-4.371.031-2.332 1.82-4.031 4.242-4.043 2.48-.008 4.32 1.773 4.363 4.223zm-1.422 130.414c6.578 12.695 5.645 32.117-8.711 43.691 9.426-13.195 12.828-27.645 8.711-43.691zm-2.891-191.613c1.941-.031 3.668 1.648 3.66 3.555-.012 1.887-1.531 3.355-3.512 3.395-2.047.043-3.496-1.273-3.578-3.25-.086-2.07 1.395-3.668 3.43-3.699zm1.114 193.523c3.059 15.715-1.691 29.031-11.77 40.727 8.379-12.238 13.699-25.398 11.77-40.727zm0 0"/><path d="M163.648 93.906c1.344.012 2.051.941 2.215 2.242-.289 1.57-1.262 2.266-2.656 2.199-1.383-.062-2.129-.945-1.992-2.383.141-1.445 1.184-2.07 2.434-2.059zm1.317-14.793c-.09 1.406-1.004 1.957-2.176 1.961-1.09.004-1.977-.535-1.984-1.844-.008-1.324.711-2.137 1.977-2.145 1.215-.004 1.992.73 2.184 2.027zm-6.461 42.91c2.926.031 5.074 2.219 4.992 5.09-.078 2.719-2.273 4.734-5.121 4.707-2.855-.027-4.965-2.07-4.988-4.836-.023-2.809 2.23-4.992 5.117-4.961zm0 0"/><path d="M162.16 101.441c.914.059 1.414.504 1.43 1.484-.125.906-.609 1.422-1.535 1.359-.898-.062-1.422-.578-1.402-1.523.02-.984.574-1.379 1.508-1.32zm-2.09-17.765c1.207-.035 1.988.617 1.953 1.84-.027 1.141-.738 1.887-1.93 2.016-1.141-.133-1.965-.77-1.977-1.945s.766-1.871 1.953-1.91zm.852 168.836c.016 1.59-.902 2.25-2.406 2.344-1.297-.145-2.355-.68-2.383-2.277-.031-1.582.906-2.348 2.34-2.316 1.348.031 2.43.617 2.449 2.25zm-.149-12.074c-.195 1.25-.766 2.055-1.949 2.098-1.227.043-2.113-.523-2.199-1.902-.082-1.297.727-1.91 1.84-1.984 1.234-.082 2 .641 2.309 1.789zM159.074 91.34c.023 1.223-.801 1.578-1.852 1.539-.953-.023-1.672-.328-1.617-1.496.055-1.09.578-1.863 1.676-1.824 1.008.039 1.77.676 1.793 1.781zm-3.457 170.219c1.59-.105 2.965 1.191 2.844 2.711-.125 1.594-1.105 2.336-2.562 2.516-1.582-.187-2.746-1-2.762-2.648-.016-1.492.934-2.48 2.48-2.578zm0 0"/><path d="M157.504 109.473c.02 2.082-1.195 3.375-2.914 3.25-1.617-.117-2.953-.957-2.937-2.73.012-1.785 1.09-2.871 2.988-2.852 1.742.016 2.75.809 2.863 2.332zm-.309-45.055c.02 1.191-.746 1.609-1.781 1.664-.945-.066-1.672-.418-1.648-1.527.027-1.137.719-1.75 1.762-1.719.898.027 1.645.527 1.668 1.582zm-.179 32.363c.027 1.266-.797 1.781-1.941 1.809-1.145.051-1.816-.578-1.852-1.66-.043-1.242.723-1.848 1.922-1.809 1.055.031 1.844.523 1.871 1.66zm-2.09-16.129c0 1.234-.816 1.816-1.973 1.754-1.086-.059-1.961-.531-1.945-1.82s.836-1.742 2.633-1.746c.535-.008 1.281.609 1.285 1.813zm-.735-9.351c.969-.027 1.566.543 1.816 1.543-.215 1.008-.742 1.754-1.836 1.738-.93-.008-1.699-.473-1.738-1.523-.039-1.16.703-1.727 1.758-1.758zm-2.332 45.457c1.426.18 2.531 1.051 2.426 2.875-.09 1.566-1.137 2.445-2.625 2.426-1.691-.023-2.863-1.078-2.832-2.789.027-1.582 1.082-2.566 3.031-2.512zm0 0"/><path d="M151.965 85.098c1.164.063 1.641.781 1.574 1.855-.082 1.277-.898 1.723-2.332 1.559-.812-.133-1.687-.543-1.578-1.875.125-1.504 1.184-1.602 2.336-1.539zm-3.352 47.789c2.309.066 3.898 1.781 3.852 4.145-.047 2.246-1.805 3.863-4.156 3.828-2.434-.035-4.008-1.605-3.977-3.961.031-2.324 1.91-4.082 4.281-4.012zm0 0"/><path d="M152.242 100.418c1-.016 1.605.441 1.703 1.512-.066 1.121-.77 1.465-1.723 1.453s-1.672-.367-1.672-1.5.75-1.449 1.691-1.465zm-.121 139.562c.48 12.469-3.555 23.277-11.594 32.539-5 5.758-9.047 8.988-11.68 9.027 12.641-11.18 21.215-24.422 23.273-41.566zm-2.473-149.132c1.047.02 1.793.414 1.867 1.707-.203.957-.707 1.723-1.812 1.676-1.172-.051-1.516-.922-1.52-1.98-.004-1 .543-1.422 1.465-1.402zm0 0"/><path d="M149.789 104.816c.566.246 1.254.496 1.152 1.242-.098.707-.504 1.301-1.406 1.176-.754-.105-1.094-.691-1-1.277.09-.555.488-1.16 1.254-1.141zm-1.605-8.402c.762.051 1.523.422 1.477 1.449-.039.844-.562 1.23-1.305 1.293-.855-.113-1.66-.477-1.695-1.32s.668-1.48 1.523-1.422zm.929 13.117c.016.742-.531 1.047-1.227 1.016-.711-.027-1.215-.594-1.258-1.137-.055-.66.625-.961 1.254-1.094.535.289 1.215.504 1.23 1.215zm-.48 15.774c.066 1.633-1.102 2.418-2.547 2.465-1.484.043-2.543-.758-2.57-2.406-.031-1.684 1.051-2.332 2.469-2.496 1.617.027 2.59.902 2.648 2.438zm-1.012-23.477c.043.695-.359 1.34-1.191 1.52-.602-.395-1.719-.297-1.723-1.23-.008-.625.703-1.16 1.52-1.16.668-.004 1.352.141 1.395.871zm-.281 177.543c.02 1.594-.961 2.227-2.145 2.352-1.723.031-2.637-.805-2.711-2.254-.09-1.641.988-2.512 2.496-2.496 1.402.016 2.34.848 2.359 2.398zm-.469-212.008c.023 1.156-.715 1.723-1.699 1.816-1.082.105-2.055-.344-2.172-1.602-.129-1.367.891-1.727 1.949-1.805 1.035-.078 1.793.359 1.922 1.59zm-1.914 4.848c1.086.039 1.832.609 1.797 1.719-.039 1.125-.902 1.551-1.965 1.609-.906-.238-1.844-.559-1.762-1.77.078-1.141.855-1.602 1.93-1.559zm.672 38.859c.688.227 1.125.816 1.086 1.406-.07 1.078-.961 1.055-1.762.988-.543-.043-1.242-.047-.969-.891.25-.773.824-1.324 1.645-1.504zm-1.313-52.789c1.285.086 2.27.652 2.238 2.121-.027 1.445-1.094 2.098-2.328 2.113-1.266.012-2.316-.75-2.277-2.148.035-1.359.996-2.051 2.367-2.086zm0 0"/><path d="M144.27 83.637c.961.047 1.648.418 1.625 1.641-.113.902-.723 1.332-1.598 1.23-.992-.117-1.777-.555-1.703-1.812.07-1.199.891-1.098 1.676-1.059zm.191-5.649c1.129.051 1.637.738 1.773 1.801-.187 1.098-.926 1.449-1.855 1.406-1.004-.047-1.871-.398-1.824-1.668.043-1.242.844-1.586 1.906-1.539zm.16 26.41c.742.043 1.438.434 1.73 1.293-.352.727-.703 1.477-1.605 1.445-.75-.023-1.371-.469-1.336-1.301.035-.707.375-1.488 1.211-1.437zm.961 140.676c.031 1.336-.758 1.984-1.996 2.063-1.266-.125-2.117-.82-2.133-2.074-.016-1.266.813-2.086 2.063-2.062 1.215.02 2.039.766 2.066 2.074zm0 0"/><path d="M145.324 117.211c.004 1.773-1.16 2.824-2.84 2.805-1.566-.016-2.684-.941-2.602-2.707.078-1.754 1.195-2.465 3.332-2.461 1.074-.043 2.109.762 2.109 2.363zm-.824-28.09c.023.883-.75.828-1.336.988-.523-.176-1.336.008-1.316-.926.016-.707.379-1.187 1.16-1.137.715.043 1.465.125 1.492 1.074zm0 0"/><path d="M142.969 91.598c.75.109 1.738.117 1.992 1.172-.105.914-.648 1.336-1.398 1.332-.809-.004-1.543-.391-1.672-1.293-.102-.711.43-1.305 1.078-1.211zm.996 54.195c.035 3.465-3.004 6.363-6.75 6.43-3.484.066-6.301-2.82-6.328-6.484-.023-3.621 2.703-6.371 6.363-6.418 3.566-.051 6.676 2.949 6.715 6.473zm0 0"/><path d="M141.875 95.309c.668.168 1.602.262 1.418 1.402-.109.664-.457 1.109-.988 1.195-.953-.301-1.625-.656-1.488-1.656.082-.602.469-1.09 1.059-.941zm-.418 4.16c.563.121 1.355-.047 1.172 1.035-.16.77-.441 1.438-1.426 1.445-.789.004-1.16-.527-1.164-1.16 0-.844.363-1.547 1.418-1.32zm1.086 157.371c.016 1.688-1.637 3.23-3.414 3.188s-3.363-1.578-3.375-3.277c-.012-1.68 1.672-3.277 3.402-3.234 1.711.047 3.375 1.676 3.387 3.324zm0 0"/><path d="M139.52 129.688c1.75-.051 2.867.863 2.859 2.676-.008 1.699-1.148 2.484-2.672 2.652-1.699-.082-2.676-.957-2.75-2.645-.078-1.758.914-2.637 2.563-2.684zm.972 99.816c1.004.059 1.691.641 1.77 1.797-.109 1.141-.812 1.613-1.852 1.617-1.094.008-1.801-.641-1.75-1.719.051-1.027.758-1.762 1.832-1.695zm0 0"/><path d="M140.395 175.762c.031 3.613-2.676 6.238-6.473 6.277-3.625.039-6.406-2.715-6.426-6.363-.02-3.562 2.859-6.5 6.387-6.516 3.699-.02 6.48 2.797 6.512 6.602zm-4.379-21c2.414.035 4.348 1.992 4.305 4.363-.039 2.242-2.016 4.105-4.316 4.07-2.289-.031-4.164-1.941-4.129-4.211.035-2.359 1.895-4.25 4.141-4.223zm-.977 62.195c1.891.027 3.43 1.582 3.398 3.43-.031 1.828-1.66 3.32-3.559 3.262-1.801-.059-3.277-1.535-3.285-3.297-.008-1.812 1.629-3.426 3.445-3.395zm-.387-95.457c2.016-.043 3.684 1.551 3.648 3.484-.031 1.613-1.715 3.082-3.539 3.082-1.805 0-3.297-1.473-3.309-3.262-.012-1.902 1.309-3.27 3.199-3.305zm3.625-34.082c.016.895-.527 1.406-1.348 1.516-.891-.105-1.59-.453-1.609-1.387s.754-1.074 1.449-1.094c.676-.016 1.492-.027 1.508.965zm-.429-5.711c.094 1.152-.867 1.387-1.75 1.371-.945-.02-1.687-.566-1.703-1.57-.016-1.012.809-1.211 1.836-1.23.797-.039 1.535.473 1.617 1.43zm0 0"/><path d="M138.09 97.336c-.062 1.199-.625 1.684-1.637 1.723-.898.031-1.602-.363-1.605-1.277-.008-.875.387-1.781 1.449-1.805.93-.02 1.563.523 1.793 1.359zm-.75-21.16c.102 1.211-.816 1.621-1.812 1.609s-1.812-.406-1.805-1.652c.004-1.137.734-1.437 1.234-1.484 1.492-.055 2.293.434 2.383 1.527zm0 0"/><path d="M136.734 91.32c1.055-.027 1.484.625 1.738 1.5-.238 1.117-1 1.441-1.902 1.387-.828-.051-1.578-.484-1.574-1.426.008-1.062.762-1.441 1.738-1.461zm-2.617 111.309c1.73.031 3.242 1.609 3.242 3.383s-1.531 3.168-3.414 3.121c-1.84-.047-3.34-1.562-3.277-3.316.059-1.664 1.742-3.219 3.449-3.187zm1.879 33.391c.043 2.273-1.828 4.031-4.262 4.008-2.461-.027-4.191-1.723-4.18-4.094.016-2.305 1.887-4.117 4.234-4.098 2.313.02 4.164 1.863 4.207 4.184zm0 0"/><path d="M131.836 187.277c2.309.133 4.164 2.098 4.078 4.32-.09 2.363-1.914 4.016-4.344 3.941-2.359-.074-4.121-1.926-4.059-4.277a4.09 4.09 0 0 1 4.324-3.984zm3.887-83.933c.012.336.055 1.156-.758 1.402-.551.168-1.242.129-1.465-.723-.051-.191-.348-.5-.414-.473-.934.418-1.84.508-1.621-.887.234-1.484 1.617-1.934 2.809-1.961 1.266-.027 1.422 1.18 1.449 2.641zm-.825-32.039c.012.941-.57 1.25-1.32 1.328-.844.09-1.633-.164-1.793-1.082-.18-1.004.609-1.406 1.418-1.469.82-.062 1.5.289 1.695 1.223zm0 0"/><path d="M132.965 105.883c.727-.125 1.633.281 1.582 1.008-.09 1.25-1.305 1.613-2.199 2.148-.773-.312-1.805-.41-1.742-1.367.094-1.344 1.313-1.613 2.359-1.789zm-.899-45.106c1.012.211 1.824.648 1.766 1.832-.066 1.273-1 1.797-2.055 1.781-.977-.012-1.797-.562-1.727-1.777.078-1.277.969-1.672 2.016-1.836zm0 0"/><path d="M131.438 88.637c.926.09 1.563.801 1.469 1.82-.105 1.113-1.055.934-1.578 1.031-1.035-.105-1.863-.258-1.699-1.379.148-1 .898-1.562 1.809-1.473zm-2.403 42.25c2.004.023 3.77 1.816 3.738 3.793-.035 2.082-1.668 3.676-3.793 3.699-2.07.02-3.805-1.621-3.844-3.637-.039-2.148 1.711-3.883 3.898-3.855zm0 0"/><path d="M130.992 94.195c.766.141 1.395.59 1.363 1.523-.027.879-.531 1.484-1.477 1.441-.883-.039-1.473-.562-1.418-1.477.051-.824.449-1.523 1.531-1.488zm1.188 174.418c.004 1.789-1.223 2.672-2.883 2.77-1.637.094-3.016-1.324-2.926-2.988.102-1.801 1.172-2.652 2.695-2.777 1.992.121 3.105 1.156 3.113 2.996zm-2.582-158.898c.52.395 1.508.355 1.352 1.348-.121.773-.707 1.211-1.5 1.129-.734-.074-1.094-.652-1.035-1.324.059-.629.387-1.203 1.184-1.152zm.097-25.957c.848.031 1.23.543 1.273 1.391-.176.98-.687 1.535-1.73 1.492-.875-.035-1.32-.578-1.266-1.359.074-.992.703-1.562 1.723-1.523zm0 0"/><path d="M130.43 103.781c-.16.887-.789 1.336-1.582 1.457-.871.133-1.328-.613-1.371-1.289-.059-.918.652-1.367 1.512-1.461.902-.102 1.184.555 1.441 1.293zm-.907 146.129c.035 4.121-3.293 7.461-7.453 7.484-4.176.027-7.66-3.418-7.68-7.582-.016-4.199 3.234-7.469 7.422-7.469s7.68 3.434 7.711 7.566zm-7.469 3.086c2.063-.012 3.535-1.379 3.523-3.285-.008-2.031-1.559-3.535-3.613-3.512-2.004.02-3.496 1.438-3.512 3.336-.016 2.07 1.438 3.473 3.602 3.461zm5.766-135.687c1.016.328 1.555 1.047 1.449 2.098-.09.902-.719 1.32-1.613 1.266-1.02-.062-1.574-.605-1.422-1.66.133-.902.59-1.598 1.586-1.703zm0 0"/><path d="M128.645 215.656c.008 2.395-1.75 4.219-4.117 4.258-2.508.039-4.227-1.562-4.285-3.992s1.652-4.238 4.039-4.289c2.328-.047 4.355 1.816 4.363 4.023zm-2.606-64.586c1.484.098 2.547.938 2.539 2.477-.008 1.477-.918 2.547-2.512 2.531-1.535-.012-2.48-.883-2.547-2.48-.066-1.687.984-2.367 2.52-2.527zm0 0"/><path d="M124.531 160.676c2.309.07 3.949 1.809 3.887 4.125-.062 2.301-1.793 3.891-4.145 3.805-2.32-.082-3.984-1.812-3.934-4.086.051-2.18 1.941-3.91 4.191-3.844zm3.707-61.485c.074.895-.309 1.301-1.187 1.336-.871.035-1.355-.547-1.457-1.223-.109-.715.324-1.477 1.125-1.5s1.5.363 1.52 1.387zm.473-18.398c-.082 1.359-.961 1.695-1.906 1.75-.879.051-1.457-.473-1.391-1.461.074-1.109.918-1.418 1.77-1.5s1.473.332 1.527 1.211zm-.758 119.469c.059 1.605-.922 2.539-2.387 2.621-1.484.082-2.422-.801-2.605-2.383.051-1.621.945-2.535 2.414-2.613 1.492-.082 2.523.766 2.578 2.375zm0 0"/><path d="M125.738 92.848c1.051-.004 1.348.887 1.301 1.629-.059.859-.73 1.371-1.602 1.207-.91.109-1.594-.328-1.551-1.105.055-1.023.746-1.727 1.852-1.73zm.793 14.875c.078.793-.395 1.422-1.266 1.316-.895-.109-1.73-.547-1.73-1.598-.004-.844.672-1.18 1.699-1.184.707.012 1.215.641 1.297 1.465zm-.203 18.465c.082.813-.27 1.453-1.094 1.555-.895.113-1.527-.375-1.617-1.309-.082-.84.449-1.297 1.227-1.461.762.07 1.395.344 1.484 1.215zm-3.426 53.777c1.832.023 2.625 1.172 2.586 2.93-.035 1.832-1.312 2.309-2.5 2.492-1.992-.078-2.941-1.113-2.945-2.711-.004-1.762 1.109-2.738 2.859-2.711zm2.457-89.703c-.059.859-.633 1.227-1.367 1.242-.707.02-1.687.223-1.77-.906-.066-.902.613-1.41 1.41-1.566.91-.18 1.391.434 1.727 1.23zm0 0"/><path d="M124.121 142.867c.016 2.512-1.719 4.176-4.375 4.195-2.641.023-4.512-1.848-4.449-4.441.055-2.227 2.008-4.148 4.293-4.215 2.406-.074 4.516 2 4.531 4.461zm-1.59-68.535c.816.168 1.543.531 1.465 1.508-.078 1.004-.828 1.527-1.742 1.574-1.016.051-1.605-.598-1.555-1.629.051-1.125.98-1.27 1.832-1.453zm.508 36.445c-.023.777-.496 1.141-1.172 1.176-.832.047-1.305-.547-1.363-1.297-.055-.695.43-1.211 1.137-1.227.828-.02 1.18.609 1.398 1.348zm0 0"/><path d="M122.164 102.023c.84-.062 1.418.473 1.445 1.629-.016.805-.547 1.211-1.465 1.18-.773-.027-1.375-.34-1.375-1.223 0-.906.582-1.523 1.395-1.586zm-2.527 87.086c1.473.066 2.285.934 2.258 2.395-.031 1.496-.996 2.32-2.414 2.273-1.246-.043-2.324-.711-2.316-2.129.004-1.52.871-2.473 2.473-2.539zm-1.164 77.735c1.551.031 2.461.926 2.375 2.582-.078 1.598-1.168 2.09-2.461 2.203-1.516-.164-2.395-.914-2.324-2.469.07-1.516.973-2.344 2.41-2.316zm0 0"/><path d="M118.684 171.922c1.348.066 2.133.852 2.117 2.289-.016 1.508-.918 2.059-2.672 2.074-.988.012-1.867-.773-1.867-2.125-.004-1.469.949-2.316 2.422-2.238zm.566-74.274c.895.031 1.504.578 1.438 1.496-.062.883-.684 1.379-1.652 1.414-.82-.062-1.437-.559-1.477-1.453-.047-1.113.742-1.492 1.691-1.457zm0 0"/><path d="M120.203 106.961c.129.668-.379.93-.937 1.008-.715-.145-1.395-.285-1.324-1.258.039-.512.188-.918.781-.914.777 0 1.336.406 1.48 1.164zm-.445 7.613c.063.926-.57 1.238-1.355 1.191-.742-.043-1.355-.344-1.395-1.254-.035-.855.406-1.309 1.191-1.453.809.203 1.496.59 1.559 1.516zm-3.668 11.524c1.996.031 3.383 1.453 3.355 3.441-.027 1.953-1.508 3.352-3.48 3.277-1.953-.07-3.531-1.621-3.469-3.41.059-1.797 1.734-3.34 3.594-3.309zm0 0"/><path d="M118.09 118.133c.836.129 1.418.559 1.457 1.512-.223 1.016-.836 1.5-1.812 1.441-.934-.055-1.437-.719-1.391-1.566.051-1.004.719-1.543 1.746-1.387zm-2.496 34.168c1.996.023 3.391 1.473 3.348 3.469-.043 1.902-1.398 3.219-3.309 3.219-2.016 0-3.375-1.41-3.328-3.445.043-1.922 1.41-3.266 3.289-3.242zm2.664-83.231c.004 1.059-.805 1.387-1.684 1.559-.734-.137-1.367-.48-1.289-1.332.094-1.043.871-1.359 1.793-1.379.758-.012 1.176.5 1.18 1.152zm-3.563 13.164c1.426.004 2.461.652 2.398 2.262-.062 1.563-1.141 2.133-2.52 2.238-1.332-.117-2.305-.754-2.293-2.191.016-1.512.945-2.316 2.414-2.309zm3.645 147.196c-.242 1.465-1.086 2.324-2.496 2.301-1.504-.023-2.516-.906-2.465-2.52.051-1.469.957-2.277 2.426-2.285 1.621-.004 2.305 1.008 2.535 2.504zm-6.012-49.075c1.84.012 3.32 1.473 3.285 3.246-.031 1.574-1.633 3.074-3.262 3.055-1.781-.027-3.277-1.559-3.23-3.312.047-1.738 1.402-3 3.207-2.988zm0 0"/><path d="M115.035 165.383c.043 1.895-1.504 3.34-3.512 3.277-1.844-.059-3.102-1.336-3.09-3.148.008-1.828 1.477-3.242 3.344-3.219 1.703.02 3.223 1.457 3.258 3.09zm.113-61.551c-.047.703-.344 1.254-1.043 1.348-.687.09-1.195-.27-1.23-1.043-.039-.867.43-1.309 1.258-1.312.629 0 .98.348 1.016 1.008zm-.332 104.426c-.113 1.754-.961 2.801-2.703 2.902-1.762.102-3.023-1.102-2.984-2.82.047-1.844 1.145-2.762 2.789-2.789s2.715.902 2.898 2.707zm-4.558-16.461c1.945.02 3.25 1.391 3.137 3.219-.117 1.836-1.211 2.684-2.898 2.754-1.777.07-3.273-1.348-3.168-3.055.117-1.922 1.344-2.734 2.93-2.918zm0 0"/><path d="M111.371 108.352c1.109.07 1.895.898 1.805 2.051-.09 1.16-.945 1.734-2.113 1.688-1.078-.047-1.812-.617-1.777-1.727.035-1.273.844-2.09 2.086-2.012zm-.105-15.586c.98.051 1.641.563 1.563 1.621-.086 1.168-.992 1.461-1.891 1.605-1.008-.156-1.719-.664-1.629-1.687.098-1.109.895-1.594 1.957-1.539zm-3.719 23.093c1.813-.055 3.406 1.434 3.391 3.168-.012 1.75-1.523 3.168-3.391 3.188-1.82.016-3.172-1.246-3.223-3.012-.051-1.805 1.375-3.285 3.223-3.344zm-1.274 140.469c1.441.238 2.344 1.035 2.297 2.52-.043 1.441-1.062 2.125-2.344 2.051-1.363-.078-2.332-.812-2.227-2.426.098-1.465 1.051-1.984 2.273-2.145zm0 0"/><path d="M108.809 175.594c-.082.984-.637 1.547-1.625 1.574-1.008.027-1.641-.539-1.617-1.57.023-.887.602-1.445 1.496-1.492.965-.051 1.629.359 1.746 1.488zm-2.262-75.992c1.016.047 1.695.66 1.711 1.813-.145 1.289-1.008 1.801-2.074 1.77-1.004-.031-1.789-.625-1.691-1.812.105-1.227.941-1.82 2.055-1.77zm-1.77 32.984c1.715.172 2.773 1.023 2.723 2.711-.043 1.555-1.066 2.438-2.578 2.48-1.543.043-2.543-.855-2.586-2.41-.043-1.641.91-2.605 2.441-2.781zm0 0"/><path d="M107.152 144.598c1.094-.062 1.684.551 1.898 1.617-.152 1.105-.77 1.695-1.84 1.684-1-.012-1.605-.668-1.621-1.621s.559-1.617 1.563-1.68zm-8.57 67.199c4.918.102 8.797 4.078 8.738 8.961-.059 4.66-3.891 8.234-8.816 8.219-4.699-.012-8.496-3.863-8.465-8.59.031-4.707 3.984-8.684 8.543-8.59zm4.484 8.832c.059-2.48-1.937-4.516-4.418-4.508-2.391.008-4.348 1.887-4.437 4.266a4.54 4.54 0 0 0 4.316 4.656c2.426.086 4.477-1.91 4.539-4.414zm2.622 14.156c1.246.063 1.84.945 2.016 2.039-.145 1.359-.926 2.008-2.004 1.977-1.148-.031-2.102-.684-2.078-2.027.02-1.297.816-2.051 2.066-1.988zm0 0"/><path d="M104.777 156.438c.887.055 1.355.617 1.52 1.41-.23.988-.793 1.504-1.66 1.426-.875-.078-1.41-.687-1.305-1.617.09-.801.637-1.27 1.445-1.219zm-1.711 29.414c.93.039 1.281.746 1.414 1.578-.152.855-.645 1.297-1.453 1.254-.922-.051-1.434-.586-1.359-1.559.066-.848.609-1.309 1.398-1.273zm.516 13.398c0 .852-.41 1.379-1.254 1.352-.922-.027-1.453-.652-1.398-1.543.047-.781.641-1.219 1.449-1.258.816.113 1.203.621 1.203 1.449zm-1.269-88.84c.02 1.355-.805 1.961-1.996 2.074-1.273-.055-2.215-.59-2.273-1.918-.062-1.437.875-2.215 2.18-2.215 1.195 0 2.07.711 2.09 2.059zm-.286 61.031c.016 2.492-1.977 4.582-4.383 4.605-2.441.02-4.391-1.98-4.395-4.512s1.91-4.461 4.418-4.441c2.301.023 4.348 2.063 4.359 4.348zm-.039-81.066c.016 1.914-1.668 3.477-3.707 3.438-1.973-.035-3.363-1.504-3.309-3.496.055-1.953 1.527-3.344 3.516-3.32 1.953.023 3.484 1.5 3.5 3.379zm-.593 154.148c.004 2.445-2.16 4.504-4.758 4.527s-4.672-1.937-4.746-4.5c-.078-2.715 1.926-4.754 4.691-4.773 2.652-.016 4.809 2.109 4.813 4.746zm-2.973-143.476c.066.887-.445 1.293-1.25 1.285-.711-.004-1.16-.43-1.164-1.16-.004-.723.414-1.145 1.152-1.164.688.004 1.207.27 1.262 1.039zm-7.199 18.117c3.785-.008 6.762 2.945 6.742 6.691-.02 3.695-3.121 6.762-6.781 6.715-3.625-.051-6.652-3.199-6.648-6.91.008-3.594 2.988-6.488 6.688-6.496zm2.754 5.832c.051-1.754-.965-2.785-2.691-2.922-1.687-.137-3.074 1.113-3.082 2.793-.012 1.918 1.258 2.543 2.84 2.828 1.629-.148 2.883-.883 2.934-2.699zm-.536 21c1.996.113 3.656 1.938 3.602 3.961-.062 2.305-1.887 3.926-4.223 3.746-2.078-.16-3.578-1.895-3.473-4.02.102-2.156 1.938-3.809 4.094-3.687zm2.262 55.965c.039 1.852-1.117 2.469-2.5 2.707-1.785-.031-2.871-.887-2.926-2.562-.047-1.633.902-2.754 2.555-2.812 1.68-.059 2.828.738 2.871 2.668zm-2.246-12.91c.043 2.105-1.48 3.652-3.672 3.723-2.078.066-3.777-1.547-3.801-3.617-.027-2.168 1.688-3.922 3.816-3.902 2.012.023 3.613 1.684 3.656 3.797zm-2.437-82.43c0 2.727-2.156 4.84-4.965 4.867-2.68.027-4.812-2.059-4.809-4.703.008-2.68 2.234-4.875 4.961-4.895 2.609-.016 4.813 2.148 4.813 4.73zm-5.27 66.856c.063 3.398-2.961 6.5-6.391 6.555-3.465.055-6.332-2.875-6.344-6.488s2.633-6.383 6.117-6.41c3.438-.027 6.555 2.961 6.617 6.344zm-7.285 2.352c2.121.039 3.633-1.238 3.504-2.793-.137-1.691-1.086-2.785-2.797-2.941-1.684-.152-3.113 1.109-3.133 2.746-.023 1.941.996 2.895 2.426 2.988zm5.672 51.058c.035 1.863-1.242 3.09-3.125 3.016-1.93-.074-2.809-1.301-2.781-3.113.027-1.895 1.242-2.797 3.008-3.004 1.727.281 2.859 1.164 2.898 3.102zm0 0"/><path d="M82.496 156.793c1.352-.051 2.125.777 2.301 2.176-.164 1.395-.945 2.215-2.289 2.184-1.191-.023-2.133-.68-2.145-2.031-.016-1.387.781-2.281 2.133-2.328zm-7.394 49.687c1.957.121 3.617 1.98 3.57 4-.043 1.871-1.785 3.512-3.723 3.512-2.191 0-3.895-1.773-3.777-3.937.109-2.02 1.953-3.691 3.93-3.574zm1.07-86.613c1.309.004 2.191.781 2.18 2.219-.016 1.336-.812 1.969-2.082 1.992-1.391-.012-2.195-.715-2.176-2.16.02-1.332.883-2.051 2.078-2.051zm0 0"/><path d="M76.676 139.281c.023 2.582-1.793 4.5-4.328 4.57-2.559.07-4.547-1.785-4.602-4.289-.055-2.582 1.98-4.719 4.504-4.73 2.547-.012 4.398 1.852 4.426 4.449zm-2.297 53.309c.008 2.09-1.641 3.734-3.742 3.73-2.023 0-3.535-1.539-3.551-3.609-.02-2.141 1.578-3.75 3.711-3.738 2 .012 3.574 1.602 3.582 3.617zm0 0"/></g><g clip-path="url(#D)" class="B"><path d="M67.836 155.688c1.746.078 3.188 1.637 3.176 3.438-.016 1.809-1.48 3.188-3.355 3.156a3.23 3.23 0 0 1-3.18-3.348c.07-1.766 1.676-3.32 3.359-3.246zm0 0"/></g><g clip-path="url(#E)" class="B"><path d="M66.563 173.938c1.195.043 2.105.754 1.996 2.109-.094 1.199-.934 1.742-2.094 1.734-1.199-.07-1.895-.758-1.859-1.953s.828-1.937 1.957-1.891zm0 0"/></g><g class="B"><path d="M76.713 311.374c-.023-.02-.359-.332-1.016-.937l-.5-.406c-.105-.051-.703-.133-1.797-.25-1.855-.238-3.711.105-5.562 1.031-1.836.93-3.527 2.305-5.078 4.125-1.5 1.805-2.637 3.758-3.406 5.859-.762 2.125-1.047 4.125-.859 6 .195 1.867 1.113 3.059 2.75 3.578.738.25 1.594.313 2.563.188s1.891-.43 2.766-.922c1.602-.906 3.332-2.227 5.188-3.969.414-.352.879-.516 1.391-.484.52.023.961.23 1.328.625.375.398.547.855.516 1.375-.023.512-.227.961-.609 1.344-2.105 1.906-4.086 3.398-5.937 4.469a11.18 11.18 0 0 1-4.141 1.375c-1.469.195-2.887.094-4.25-.312a7.84 7.84 0 0 1-3.672-2.5c-.969-1.176-1.547-2.633-1.734-4.375-.242-2.457.113-4.992 1.063-7.609a23.92 23.92 0 0 1 4.094-7.141c1.852-2.207 4-3.914 6.438-5.125 2.445-1.219 5-1.676 7.656-1.375l.484.078.734.078c.219.031.5.09.844.172a3.66 3.66 0 0 1 .875.328c.488.219.992.574 1.516 1.063l.25.25.297.281c.102.086.191.168.266.25.414.324.648.75.703 1.281a1.87 1.87 0 0 1-.437 1.422c-.336.406-.766.637-1.297.688a1.82 1.82 0 0 1-1.422-.453zm0 0"/><use xlink:href="#F"/><use xlink:href="#G"/><path d="M125.351 318.374c-.137.031-.328.117-.578.25-.574.355-1.273.914-2.094 1.672-.812.793-1.969 2.063-3.469 3.813a2.36 2.36 0 0 1-.531.453c-.469.793-.828 1.586-1.078 2.375-.211.711-.312 1.328-.312 1.859s.035.887.109 1.063c.082.18.172.309.266.391.102.086.25.141.438.172.188.023.52-.035 1-.172s1.02-.406 1.625-.812c.625-.437 1.266-1.051 1.922-1.844s1.211-1.598 1.672-2.422c.625-1.195 1.047-2.656 1.266-4.375.113-.875.086-1.555-.078-2.047-.055-.187-.105-.312-.156-.375zm7.359-.359c-.086.156-.59 1.262-1.516 3.313l-1.922 4.547c-.594 1.688-.891 2.996-.891 3.922-.031.523.02.824.156.906.758.305 1.375.328 1.844.078.301-.164.703-.461 1.203-.891l1.453-1.187a1.98 1.98 0 0 1 1.438-.344c.52.063.938.313 1.25.75s.43.918.359 1.438c-.062.512-.312.934-.75 1.266l-.812.656-1.187.969-1.078.703c-1.523.844-3.227.895-5.109.156-1.367-.543-2.199-1.586-2.5-3.141-.605.574-1.203 1.063-1.797 1.469-.844.57-1.695 1-2.547 1.281-.844.289-1.711.395-2.594.313s-1.672-.383-2.359-.891c-1.012-.77-1.625-1.863-1.844-3.281-.207-1.414-.07-2.832.422-4.25.656-2.133 1.781-4.094 3.375-5.875 1.594-1.789 3.383-3.328 5.375-4.609.195-.113.406-.195.625-.25 1.164-.57 2.227-.695 3.188-.375 1.145.387 1.977 1.152 2.5 2.297l.125-.359a1.79 1.79 0 0 1 1.016-1.062c.488-.219.977-.234 1.469-.047.5.188.859.531 1.078 1.031.219.492.227.98.031 1.469zm0 0"/><use xlink:href="#H"/><use xlink:href="#I"/><path d="M159.938 318.827c2.039-2.539 3.785-4.016 5.234-4.422 1.113-.27 2.082-.066 2.906.609.602.5 1.023 1.227 1.266 2.172.301 1.18.359 2.75.172 4.719l4.578-5.906a1.84 1.84 0 0 1 1.297-.75c.531-.07 1.004.055 1.422.375a1.76 1.76 0 0 1 .734 1.266c.07.531-.043 1-.344 1.406l-2.609 3.359-2.703 3.516-.375.5a.55.55 0 0 1-.031.125c-.031.137-.078.273-.141.406-.055.137-.133.289-.234.453l-2.172 3.313c-.055.055-.137.203-.25.453l-.484.938c-.305.523-.648.918-1.031 1.188-.812.594-1.672.645-2.578.156-.492-.238-.82-.633-.984-1.187-.023-.156-.031-.332-.031-.531v-.453c.02-.187.07-.398.156-.641.082-.383.223-.906.422-1.562l.313-1.062.297-.937.156-.453a28.47 28.47 0 0 0 .734-4.094c.164-1.445.164-2.566 0-3.359-.73.523-1.625 1.449-2.687 2.781a1.79 1.79 0 0 1-1.297.734c-.531.055-1.012-.082-1.437-.406-.418-.32-.656-.75-.719-1.281-.055-.539.086-1.016.422-1.422zm0 0"/><use xlink:href="#G" x="82.072"/><path d="M213.141 306.749c.063 0 .102-.008.125-.031.031-.031.109-.094.234-.187l.5-.344c1.156-.719 2.207-.773 3.156-.172.707.469 1.172 1.234 1.391 2.297.133.625.191 1.43.172 2.406-.031 1.5-.25 3.43-.656 5.781l-1.641 8.141 2.984-3.891 3.156-3.891 1.141-1.297.5-.5.281-.25c.27-.156.555-.266.859-.328 1.094-.187 2.02.227 2.781 1.234.352.438.641.984.859 1.641.113.273.18.652.203 1.141.031.305.047.699.047 1.188l.047 1.719c1.633-3.437 3.285-6.5 4.953-9.187s3.563-5.066 5.688-7.141a1.97 1.97 0 0 1 1.375-.531 1.79 1.79 0 0 1 1.344.578 1.85 1.85 0 0 1 .563 1.359c0 .531-.195.992-.578 1.375-2.187 2.125-4.121 4.617-5.797 7.469s-3.469 6.355-5.375 10.5c-.148.25-.602 1.277-1.359 3.078l-.687 1.625a8.93 8.93 0 0 0-.25.578c-.055.086-.094.168-.125.25-.055.086-.105.152-.156.203a.86.86 0 0 1-.219.25 1.8 1.8 0 0 1-.859.484c-.594.168-1.152.109-1.672-.172-.523-.289-.852-.738-.984-1.344-.105-.383-.105-.863 0-1.437l.078-.5c.031-.156.063-.258.094-.312v-.156a.55.55 0 0 0 .031-.125v-1.156l.016-2.125.031-2.125v-3.078-.281l-2.953 3.688c-2.68 3.387-4.289 5.484-4.828 6.297l-.125.203c-.086.148-.18.297-.281.453l-.406.625c-.137.242-.277.453-.422.641-.43.605-.824 1.074-1.187 1.406-.324.289-.648.504-.969.641-.824.332-1.578.238-2.266-.281-.98-.812-1.195-1.93-.641-3.359l.188-.5a4.01 4.01 0 0 1 .125-.297.53.53 0 0 1 .094-.094l.031-.125.578-3.312c.031-.195.289-1.453.781-3.766.488-2.32.867-4.273 1.141-5.859.383-2.207.586-3.957.609-5.25v-.406l-.312.172c-.5.188-.996.172-1.484-.047s-.836-.57-1.031-1.062c-.187-.488-.172-.977.047-1.469a1.91 1.91 0 0 1 1.063-1.031zm0 0"/><use xlink:href="#F" x="163.325"/><use xlink:href="#I" x="109.825"/><use xlink:href="#H" x="133.607"/><use xlink:href="#I" x="133.607"/><path d="M291.076 325.468a1.8 1.8 0 0 1 .031-.328l.047-.344.016-.359c.055-.656.188-1.211.406-1.672.574-1.289 1.523-2.738 2.859-4.344.82-.977 1.602-1.727 2.344-2.25 1.25-.844 2.438-1.062 3.563-.656 1.438.543 2.266 1.773 2.484 3.688.063.656.051 1.418-.031 2.281l1.516-2 1.516-1.641c.707-.676 1.398-1.047 2.078-1.109 1.094-.07 2.008.422 2.75 1.484.383.543.672 1.184.859 1.922.102.461.063 1.184-.125 2.172-.055.406-.215 1.227-.484 2.453l-.953 5.531v.406c.633-.539 1.426-1.375 2.375-2.5l2.172-2.531a1.96 1.96 0 0 1 1.328-.641 1.82 1.82 0 0 1 1.391.453c.399.344.613.781.656 1.313a1.96 1.96 0 0 1-.422 1.406l-2.172 2.547c-1.312 1.523-2.449 2.633-3.406 3.344-1.199.926-2.289 1.313-3.266 1.156-1.262-.219-2.055-1.055-2.375-2.5-.168-.707-.195-1.633-.078-2.781.07-1.258.398-3.254.984-5.984l.484-2.375v-.078l-.328.406-3.187 4.297-3.156 4.422-1.187 1.594c-.219.25-.414.445-.578.578-.375.383-.781.602-1.219.656-.742.133-1.355-.027-1.844-.484-.605-.551-.812-1.223-.625-2.016.082-.375.289-.82.625-1.344l.453-.625.281-.453.125-.234c.789-1.988 1.375-3.898 1.75-5.734.25-1.281.332-2.273.25-2.984 0-.113-.012-.195-.031-.25-.437.305-.961.809-1.562 1.516-1.094 1.336-1.859 2.48-2.297 3.438a4.81 4.81 0 0 0-.078.531l-.156 1.266a1.92 1.92 0 0 1-.766 1.266 1.81 1.81 0 0 1-1.437.328 1.99 1.99 0 0 1-1.266-.781c-.312-.426-.414-.91-.312-1.453zm39.585-4.844c-.574 0-.996-.023-1.266-.078-.406-.051-.758-.211-1.047-.484a1.87 1.87 0 0 1-.547-.984c-1.555.273-3.012 1.25-4.375 2.938-.656.824-1.125 1.609-1.406 2.359-.273.75-.359 1.406-.266 1.969a2.59 2.59 0 0 0 .719 1.406c.551.492 1.25.574 2.094.25 1.063-.469 2.195-1.395 3.406-2.781 1.082-1.312 1.91-2.633 2.484-3.969l.25-.578zm-5.484 17.234a5.26 5.26 0 0 0-.859 0c-.512.031-1.34.195-2.484.5a19.37 19.37 0 0 0-3.203 1.063c-1.117.488-1.914.977-2.406 1.469-.25.27-.348.504-.297.703.281.758 1.172 1.02 2.672.781a11.43 11.43 0 0 0 2.484-.766c.852-.367 1.508-.727 1.969-1.078.789-.574 1.5-1.465 2.125-2.672zm9.703-15.844c-.293.418-.578.906-.859 1.469l-.672 1.453c-.18.406-.402 1.031-.672 1.875l-.5 1.766-.594 2.125-.547 2.047-.578 2.094c.195.02.461.078.797.172l.922.219.75.172a1.82 1.82 0 0 1 1.188.844 1.85 1.85 0 0 1 .266 1.453 1.79 1.79 0 0 1-.828 1.203c-.449.289-.934.379-1.453.266l-1.75-.406-1.234-.281c-1.012 2.313-2.266 4.031-3.766 5.156-.711.52-1.625 1.016-2.75 1.484a15.45 15.45 0 0 1-3.344 1.016c-.586.156-1.219.207-1.906.156-.695-.055-1.359-.168-1.984-.344-.633-.18-1.227-.543-1.781-1.094-.562-.543-.977-1.227-1.25-2.047-.57-1.605-.207-3.117 1.094-4.531.824-.875 2.027-1.668 3.609-2.375 1.227-.555 2.523-1 3.891-1.344 1.363-.336 2.441-.516 3.234-.547a17.73 17.73 0 0 1 2.453.078l.703-2.375.281-1.016c-.523.355-1.043.625-1.562.813-2.344.992-4.402.664-6.172-.984-.844-.758-1.43-1.645-1.75-2.656-.312-1.008-.375-2.008-.187-3 .195-1 .504-1.941.922-2.828a11.58 11.58 0 0 1 1.578-2.437c1.313-1.633 2.93-2.895 4.859-3.781 1.926-.895 3.773-.957 5.547-.187.539.242 1.047.664 1.516 1.266l.047.047a3.51 3.51 0 0 1 1.344.688c.57.469.883 1.125.938 1.969.332.324.508.715.531 1.172.031.449-.078.859-.328 1.234zm0 0"/></g></svg>