<svg xmlns="http://www.w3.org/2000/svg" xmlns:xlink="http://www.w3.org/1999/xlink" width="500" zoomAndPan="magnify" viewBox="0 0 375 374.999991" height="500" preserveAspectRatio="xMidYMid meet" version="1.0"><defs><g/><clipPath id="4974d2211a"><path d="M 186.136719 109.285156 L 249 109.285156 L 249 218.433594 L 186.136719 218.433594 Z M 186.136719 109.285156 " clip-rule="nonzero"/></clipPath><clipPath id="f9d2e3a8b8"><path d="M 205.085938 183.550781 C 201.632812 185.886719 196.628906 187.089844 193.226562 190.371094 C 189.929688 193.542969 188.117188 198.617188 190.644531 208.492188 C 190.644531 208.492188 192.84375 208.734375 196.070312 209.589844 C 198.808594 210.320312 202.3125 211.492188 205.851562 213.339844 L 212.882812 218.046875 L 225.542969 204.8125 C 225.542969 204.8125 227.863281 192.375 222.527344 182.136719 L 219.511719 177.65625 L 219.527344 177.65625 C 219.839844 177.65625 225.839844 177.792969 231.144531 187.996094 C 231.144531 187.996094 237.910156 174.269531 247.644531 172.351562 L 247.78125 171.898438 C 248.671875 168.234375 250.050781 160.789062 246.910156 156.691406 L 243.910156 151.039062 C 242.566406 147.167969 242.410156 143.191406 243.089844 140.453125 C 243.089844 140.453125 242.882812 138.691406 241.78125 136.109375 C 240.71875 133.5625 238.800781 130.230469 235.433594 126.933594 C 232.417969 124.003906 228.25 121.109375 222.457031 118.894531 L 229.519531 115.195312 C 229.519531 115.195312 228.5625 114.34375 226.765625 113.296875 C 223.957031 111.675781 219.125 109.582031 212.761719 109.582031 C 205.609375 109.582031 196.523438 112.214844 186.214844 121.109375 L 186.214844 177.933594 C 194.898438 176.90625 204.039062 172.316406 204.039062 172.316406 C 204.039062 172.316406 211.851562 178.960938 205.070312 183.53125 Z M 193.539062 147.273438 L 193.503906 147.027344 C 193.488281 146.90625 206.203125 154.597656 215.707031 144.238281 C 217.714844 142.058594 220.347656 140.503906 223.277344 140.015625 C 227.988281 139.214844 234.316406 140.101562 237.003906 149.347656 L 230.601562 149.347656 C 230.601562 149.347656 225.738281 163.179688 214.589844 162.289062 L 215.8125 169.492188 C 215.8125 169.492188 208.085938 164.835938 206.429688 156.863281 C 206.429688 156.863281 195.214844 157.300781 193.558594 147.273438 " clip-rule="nonzero"/></clipPath><clipPath id="3859e78e9b"><path d="M 158.433594 218 L 215.5 218 L 215.5 270.515625 L 158.433594 270.515625 Z M 158.433594 218 " clip-rule="nonzero"/></clipPath><clipPath id="46955f65c5"><path d="M 207.144531 234.757812 C 208.15625 238.351562 212.988281 242.1875 214.921875 245.378906 C 212.898438 250.175781 210.265625 254.535156 206.917969 258.511719 C 206.933594 253.472656 205.679688 249.179688 203.097656 244.875 C 202.957031 249.792969 201.300781 254.675781 198.421875 258.652344 L 192.824219 264.792969 C 190.890625 266.691406 188.96875 268.574219 187.035156 270.460938 L 181.242188 264.792969 C 179.253906 262.855469 177.265625 260.902344 175.644531 258.652344 C 172.765625 254.675781 171.109375 249.792969 170.972656 244.875 C 168.371094 249.179688 167.132812 253.472656 167.152344 258.511719 L 162.40625 251.851562 C 161.167969 249.792969 160.085938 247.628906 159.144531 245.378906 C 161.03125 242.292969 164.832031 238.613281 165.984375 235.125 L 166.050781 234.898438 L 162.789062 237.773438 L 158.972656 241.246094 C 159.128906 240.949219 159.285156 240.652344 159.441406 240.355469 C 161.0625 237.234375 162.285156 233.902344 163.035156 230.46875 L 163.769531 225.949219 C 167.238281 223.492188 171.914062 221.328125 176.65625 219.742188 C 183.40625 217.472656 190.714844 217.472656 197.464844 219.742188 C 202.207031 221.328125 206.882812 223.492188 210.351562 225.949219 C 210.910156 231.304688 212.550781 236.535156 215.148438 241.246094 L 207.179688 234.738281 " clip-rule="nonzero"/></clipPath><clipPath id="877396b361"><path d="M 128.511719 131 L 180.59375 131 L 180.59375 152 L 128.511719 152 Z M 128.511719 131 " clip-rule="nonzero"/></clipPath><clipPath id="65a36ca4c8"><path d="M 178.925781 147.253906 L 178.960938 147.011719 C 178.976562 146.886719 166.261719 154.578125 156.757812 144.21875 C 154.75 142.039062 152.117188 140.488281 149.1875 140 C 144.476562 139.195312 138.144531 140.085938 135.460938 149.328125 L 141.859375 149.328125 C 136.699219 149.488281 132.113281 150.21875 128.554688 151.003906 C 129.898438 147.132812 130.054688 143.15625 129.375 140.417969 C 129.375 140.417969 129.582031 138.65625 130.679688 136.074219 C 145.839844 124.773438 156.53125 136.285156 157.210938 136.285156 C 176.605469 136.285156 180.335938 142.492188 180.335938 142.492188 C 179.96875 144.535156 179.464844 146.085938 178.925781 147.253906 " clip-rule="nonzero"/></clipPath><clipPath id="87e2045f84"><path d="M 124.632812 167 L 153 167 L 153 188 L 124.632812 188 Z M 124.632812 167 " clip-rule="nonzero"/></clipPath><clipPath id="ff5143aefa"><path d="M 152.917969 177.636719 C 152.605469 177.636719 146.605469 177.777344 141.304688 187.960938 C 141.304688 187.960938 134.535156 174.234375 124.804688 172.316406 L 124.664062 171.863281 C 126.25 168.933594 129.234375 167.015625 134.117188 167.46875 C 134.117188 167.46875 143.570312 177.359375 152.917969 177.621094 " clip-rule="nonzero"/></clipPath><clipPath id="91ceb39f3f"><path d="M 149.566406 177.433594 L 153 177.433594 L 153 182.421875 L 149.566406 182.421875 Z M 149.566406 177.433594 " clip-rule="nonzero"/></clipPath><clipPath id="4accc799c6"><path d="M 152.9375 177.636719 L 149.917969 182.121094 L 151.734375 179.050781 " clip-rule="nonzero"/></clipPath><clipPath id="e95618a0a7"><path d="M 153.445312 189 L 183 189 L 183 210.125 L 153.445312 210.125 Z M 153.445312 189 " clip-rule="nonzero"/></clipPath><clipPath id="44c84cc555"><path d="M 181.800781 208.492188 C 181.800781 208.492188 179.605469 208.734375 176.378906 209.589844 C 170.691406 207.113281 163.714844 207.6875 157.941406 210.113281 C 157.941406 210.113281 163.246094 203.625 174.144531 203.921875 C 174.144531 203.921875 169.296875 198.757812 157.941406 202.300781 C 158.152344 202.140625 166.4375 195.304688 173.394531 196.019531 C 173.394531 196.019531 162.5625 192.183594 153.511719 195.199219 C 153.773438 194.992188 164.308594 186.566406 179.21875 190.371094 C 182.515625 193.542969 184.332031 198.636719 181.800781 208.492188 " clip-rule="nonzero"/></clipPath><clipPath id="d188c4dcf9"><path d="M 137 113 L 173.945312 113 L 173.945312 127 L 137 127 Z M 137 113 " clip-rule="nonzero"/></clipPath><clipPath id="a513635efb"><path d="M 173.550781 123.535156 C 157.191406 117.167969 143.65625 122.921875 137.011719 126.917969 C 140.03125 123.988281 144.199219 121.09375 149.988281 118.878906 L 142.925781 115.179688 C 142.925781 115.179688 143.882812 114.324219 145.679688 113.277344 C 164.867188 111.902344 173.570312 123.515625 173.570312 123.515625 " clip-rule="nonzero"/></clipPath><clipPath id="91abfc8396"><path d="M 148 146.40625 L 161.757812 146.40625 L 161.757812 156 L 148 156 Z M 148 146.40625 " clip-rule="nonzero"/></clipPath><clipPath id="0fb3de20ef"><path d="M 149.257812 146.886719 C 149.257812 146.886719 147.042969 151.894531 152.132812 154.632812 C 157.226562 157.371094 161.359375 154.929688 161.359375 154.929688 L 153.511719 147.566406 L 156.269531 151.945312 L 149.257812 146.90625 " clip-rule="nonzero"/></clipPath><clipPath id="307860c8e4"><path d="M 128.511719 44 L 186.6875 44 L 186.6875 107.621094 L 128.511719 107.621094 Z M 128.511719 44 " clip-rule="nonzero"/></clipPath><clipPath id="54d8a7f10d"><path d="M 186.230469 44.316406 L 163.835938 58.773438 C 163.835938 58.773438 176.953125 75.308594 174.144531 88.460938 C 174.144531 88.460938 146.605469 94.511719 149.847656 66.308594 L 128.554688 75.03125 C 128.554688 75.03125 136 86.542969 138.949219 102.34375 C 138.949219 102.34375 163.246094 90.082031 186.230469 107.503906 L 186.230469 89.175781 C 184.664062 83.820312 179.5 67.234375 174.335938 62.507812 L 186.230469 53.089844 Z M 142.070312 93.1875 L 137.011719 79.234375 L 143.273438 75.917969 C 145.488281 89.417969 142.054688 93.1875 142.054688 93.1875 " clip-rule="nonzero"/></clipPath><clipPath id="26cc287a3c"><path d="M 192 131 L 244 131 L 244 152 L 192 152 Z M 192 131 " clip-rule="nonzero"/></clipPath><clipPath id="373143f4fa"><path d="M 193.539062 147.253906 L 193.503906 147.011719 C 193.488281 146.886719 206.203125 154.578125 215.707031 144.21875 C 217.714844 142.039062 220.347656 140.488281 223.277344 140 C 227.988281 139.195312 234.316406 140.085938 237.003906 149.328125 L 230.601562 149.328125 C 235.765625 149.488281 240.351562 150.21875 243.910156 151.003906 C 242.566406 147.132812 242.410156 143.15625 243.089844 140.417969 C 243.089844 140.417969 242.882812 138.65625 241.78125 136.074219 C 226.625 124.773438 215.933594 136.285156 215.253906 136.285156 C 195.859375 136.285156 192.128906 142.492188 192.128906 142.492188 C 192.476562 144.535156 193 146.085938 193.539062 147.253906 " clip-rule="nonzero"/></clipPath><clipPath id="01afbf6bed"><path d="M 219.378906 167 L 248 167 L 248 188 L 219.378906 188 Z M 219.378906 167 " clip-rule="nonzero"/></clipPath><clipPath id="80800322cc"><path d="M 219.527344 177.636719 C 219.839844 177.636719 225.839844 177.777344 231.144531 187.960938 C 231.144531 187.960938 237.910156 174.234375 247.644531 172.316406 L 247.78125 171.863281 C 246.195312 168.933594 243.210938 167.015625 238.328125 167.46875 C 238.328125 167.46875 228.875 177.359375 219.527344 177.621094 " clip-rule="nonzero"/></clipPath><clipPath id="1cee54eac0"><path d="M 219.378906 177.433594 L 222.703125 177.433594 L 222.703125 182.421875 L 219.378906 182.421875 Z M 219.378906 177.433594 " clip-rule="nonzero"/></clipPath><clipPath id="f1a2d2bbe7"><path d="M 219.511719 177.636719 L 222.527344 182.121094 L 220.714844 179.050781 " clip-rule="nonzero"/></clipPath><clipPath id="2c1f693182"><path d="M 189 189 L 219 189 L 219 210.125 L 189 210.125 Z M 189 189 " clip-rule="nonzero"/></clipPath><clipPath id="0a7678d419"><path d="M 190.644531 208.492188 C 190.644531 208.492188 192.84375 208.734375 196.070312 209.589844 C 201.753906 207.113281 208.730469 207.6875 214.503906 210.113281 C 214.503906 210.113281 209.203125 203.625 198.300781 203.921875 C 198.300781 203.921875 203.148438 198.757812 214.503906 202.300781 C 214.296875 202.140625 206.011719 195.304688 199.050781 196.019531 C 199.050781 196.019531 209.882812 192.183594 218.933594 195.199219 C 218.671875 194.992188 208.136719 186.566406 193.226562 190.371094 C 189.929688 193.542969 188.117188 198.636719 190.644531 208.492188 " clip-rule="nonzero"/></clipPath><clipPath id="459012cdb1"><path d="M 198.324219 113 L 235.445312 113 L 235.445312 127 L 198.324219 127 Z M 198.324219 113 " clip-rule="nonzero"/></clipPath><clipPath id="04637ee744"><path d="M 198.894531 123.535156 C 215.253906 117.167969 228.789062 122.921875 235.433594 126.917969 C 232.417969 123.988281 228.25 121.09375 222.457031 118.878906 L 229.519531 115.179688 C 229.519531 115.179688 228.5625 114.324219 226.765625 113.277344 C 207.582031 111.902344 198.878906 123.515625 198.878906 123.515625 " clip-rule="nonzero"/></clipPath><clipPath id="9cbd9d4efd"><path d="M 211.066406 146.40625 L 224 146.40625 L 224 156 L 211.066406 156 Z M 211.066406 146.40625 " clip-rule="nonzero"/></clipPath><clipPath id="5e8ef8ac18"><path d="M 223.191406 146.886719 C 223.191406 146.886719 225.40625 151.894531 220.3125 154.632812 C 215.21875 157.371094 211.085938 154.929688 211.085938 154.929688 L 218.933594 147.566406 L 216.179688 151.945312 L 223.191406 146.90625 " clip-rule="nonzero"/></clipPath><clipPath id="5d3dd94af3"><path d="M 186.136719 44 L 244 44 L 244 107.621094 L 186.136719 107.621094 Z M 186.136719 44 " clip-rule="nonzero"/></clipPath><clipPath id="0e2f020b13"><path d="M 186.230469 53.105469 L 198.128906 62.523438 C 192.964844 67.234375 187.800781 83.820312 186.230469 89.191406 L 186.230469 107.503906 C 209.203125 90.082031 233.515625 102.34375 233.515625 102.34375 C 236.464844 86.542969 243.910156 75.03125 243.910156 75.03125 L 222.613281 66.308594 C 225.859375 94.511719 198.320312 88.460938 198.320312 88.460938 C 195.527344 75.328125 208.625 58.773438 208.625 58.773438 L 186.230469 44.316406 Z M 229.15625 75.917969 L 235.417969 79.234375 L 230.359375 93.1875 C 230.359375 93.1875 226.941406 89.417969 229.136719 75.917969 " clip-rule="nonzero"/></clipPath><clipPath id="6ab8f96582"><path d="M 162.308594 244.476562 L 171 244.476562 L 171 258.882812 L 162.308594 258.882812 Z M 162.308594 244.476562 " clip-rule="nonzero"/></clipPath><clipPath id="81904cf1a5"><path d="M 170.953125 244.875 C 168.355469 249.179688 167.117188 253.472656 167.132812 258.511719 L 162.390625 251.851562 C 164.5 249.042969 167.324219 246.339844 170.972656 244.875 " clip-rule="nonzero"/></clipPath><clipPath id="f3a98ad34a"><path d="M 159 225.085938 L 176 225.085938 L 176 240.597656 L 159 240.597656 Z M 159 225.085938 " clip-rule="nonzero"/></clipPath><clipPath id="b8f445b908"><path d="M 175.644531 225.355469 C 175.644531 225.355469 172.574219 229.386719 165.949219 235.125 L 162.757812 237.773438 C 161.710938 238.613281 160.59375 239.484375 159.40625 240.375 C 161.03125 237.25 162.25 233.921875 163 230.484375 C 166.785156 229.070312 175.644531 225.355469 175.644531 225.355469 " clip-rule="nonzero"/></clipPath><clipPath id="b9535323cc"><path d="M 203 244.476562 L 212 244.476562 L 212 258.882812 L 203 258.882812 Z M 203 244.476562 " clip-rule="nonzero"/></clipPath><clipPath id="32f5adc93a"><path d="M 203.097656 244.875 C 205.695312 249.179688 206.933594 253.472656 206.917969 258.511719 L 211.660156 251.851562 C 209.550781 249.042969 206.726562 246.339844 203.082031 244.875 " clip-rule="nonzero"/></clipPath><clipPath id="cfcabc2bf6"><path d="M 198.324219 225.085938 L 214.945312 225.085938 L 214.945312 240.597656 L 198.324219 240.597656 Z M 198.324219 225.085938 " clip-rule="nonzero"/></clipPath><clipPath id="70faedb2b3"><path d="M 198.40625 225.355469 C 198.40625 225.355469 201.476562 229.386719 208.101562 235.125 L 211.296875 237.773438 C 212.339844 238.613281 213.457031 239.484375 214.644531 240.375 C 213.023438 237.25 211.800781 233.921875 211.050781 230.484375 C 207.265625 229.070312 198.40625 225.355469 198.40625 225.355469 " clip-rule="nonzero"/></clipPath></defs><rect x="-37.5" width="450" fill="#ffffff" y="-37.499999" height="449.999989" fill-opacity="1"/><rect x="-37.5" width="450" fill="#000000" y="-37.499999" height="449.999989" fill-opacity="1"/><g clip-path="url(#4974d2211a)"><g clip-path="url(#f9d2e3a8b8)"><path fill="#555758" d="M 115.769531 35.59375 L 257.609375 35.59375 L 257.609375 279.382812 L 115.769531 279.382812 Z M 115.769531 35.59375 " fill-opacity="1" fill-rule="nonzero"/></g></g><g clip-path="url(#3859e78e9b)"><g clip-path="url(#46955f65c5)"><path fill="#555758" d="M 115.769531 35.59375 L 257.609375 35.59375 L 257.609375 279.382812 L 115.769531 279.382812 Z M 115.769531 35.59375 " fill-opacity="1" fill-rule="nonzero"/></g></g><g clip-path="url(#877396b361)"><g clip-path="url(#65a36ca4c8)"><path fill="#373a3c" d="M 115.769531 35.59375 L 257.609375 35.59375 L 257.609375 279.382812 L 115.769531 279.382812 Z M 115.769531 35.59375 " fill-opacity="1" fill-rule="nonzero"/></g></g><g clip-path="url(#87e2045f84)"><g clip-path="url(#ff5143aefa)"><path fill="#373a3c" d="M 115.769531 35.59375 L 257.609375 35.59375 L 257.609375 279.382812 L 115.769531 279.382812 Z M 115.769531 35.59375 " fill-opacity="1" fill-rule="nonzero"/></g></g><g clip-path="url(#91ceb39f3f)"><g clip-path="url(#4accc799c6)"><path fill="#ffffff" d="M 115.769531 35.59375 L 257.609375 35.59375 L 257.609375 279.382812 L 115.769531 279.382812 Z M 115.769531 35.59375 " fill-opacity="1" fill-rule="nonzero"/></g></g><g clip-path="url(#e95618a0a7)"><g clip-path="url(#44c84cc555)"><path fill="#373a3c" d="M 115.769531 35.59375 L 257.609375 35.59375 L 257.609375 279.382812 L 115.769531 279.382812 Z M 115.769531 35.59375 " fill-opacity="1" fill-rule="nonzero"/></g></g><g clip-path="url(#d188c4dcf9)"><g clip-path="url(#a513635efb)"><path fill="#373a3c" d="M 115.769531 35.59375 L 257.609375 35.59375 L 257.609375 279.382812 L 115.769531 279.382812 Z M 115.769531 35.59375 " fill-opacity="1" fill-rule="nonzero"/></g></g><g clip-path="url(#91abfc8396)"><g clip-path="url(#0fb3de20ef)"><path fill="#ffffff" d="M 115.769531 35.59375 L 257.609375 35.59375 L 257.609375 279.382812 L 115.769531 279.382812 Z M 115.769531 35.59375 " fill-opacity="1" fill-rule="nonzero"/></g></g><g clip-path="url(#307860c8e4)"><g clip-path="url(#54d8a7f10d)"><path fill="#373a3c" d="M 115.769531 35.59375 L 257.609375 35.59375 L 257.609375 279.382812 L 115.769531 279.382812 Z M 115.769531 35.59375 " fill-opacity="1" fill-rule="nonzero"/></g></g><g clip-path="url(#26cc287a3c)"><g clip-path="url(#373143f4fa)"><path fill="#373a3c" d="M 115.769531 35.59375 L 257.609375 35.59375 L 257.609375 279.382812 L 115.769531 279.382812 Z M 115.769531 35.59375 " fill-opacity="1" fill-rule="nonzero"/></g></g><g clip-path="url(#01afbf6bed)"><g clip-path="url(#80800322cc)"><path fill="#373a3c" d="M 115.769531 35.59375 L 257.609375 35.59375 L 257.609375 279.382812 L 115.769531 279.382812 Z M 115.769531 35.59375 " fill-opacity="1" fill-rule="nonzero"/></g></g><g clip-path="url(#1cee54eac0)"><g clip-path="url(#f1a2d2bbe7)"><path fill="#ffffff" d="M 115.769531 35.59375 L 257.609375 35.59375 L 257.609375 279.382812 L 115.769531 279.382812 Z M 115.769531 35.59375 " fill-opacity="1" fill-rule="nonzero"/></g></g><g clip-path="url(#2c1f693182)"><g clip-path="url(#0a7678d419)"><path fill="#373a3c" d="M 115.769531 35.59375 L 257.609375 35.59375 L 257.609375 279.382812 L 115.769531 279.382812 Z M 115.769531 35.59375 " fill-opacity="1" fill-rule="nonzero"/></g></g><g clip-path="url(#459012cdb1)"><g clip-path="url(#04637ee744)"><path fill="#373a3c" d="M 115.769531 35.59375 L 257.609375 35.59375 L 257.609375 279.382812 L 115.769531 279.382812 Z M 115.769531 35.59375 " fill-opacity="1" fill-rule="nonzero"/></g></g><g clip-path="url(#9cbd9d4efd)"><g clip-path="url(#5e8ef8ac18)"><path fill="#ffffff" d="M 115.769531 35.59375 L 257.609375 35.59375 L 257.609375 279.382812 L 115.769531 279.382812 Z M 115.769531 35.59375 " fill-opacity="1" fill-rule="nonzero"/></g></g><g clip-path="url(#5d3dd94af3)"><g clip-path="url(#0e2f020b13)"><path fill="#555758" d="M 115.769531 35.59375 L 257.609375 35.59375 L 257.609375 279.382812 L 115.769531 279.382812 Z M 115.769531 35.59375 " fill-opacity="1" fill-rule="nonzero"/></g></g><g clip-path="url(#6ab8f96582)"><g clip-path="url(#81904cf1a5)"><path fill="#373a3c" d="M 115.769531 35.59375 L 257.609375 35.59375 L 257.609375 279.382812 L 115.769531 279.382812 Z M 115.769531 35.59375 " fill-opacity="1" fill-rule="nonzero"/></g></g><g clip-path="url(#f3a98ad34a)"><g clip-path="url(#b8f445b908)"><path fill="#373a3c" d="M 115.769531 35.59375 L 257.609375 35.59375 L 257.609375 279.382812 L 115.769531 279.382812 Z M 115.769531 35.59375 " fill-opacity="1" fill-rule="nonzero"/></g></g><g clip-path="url(#b9535323cc)"><g clip-path="url(#32f5adc93a)"><path fill="#373a3c" d="M 115.769531 35.59375 L 257.609375 35.59375 L 257.609375 279.382812 L 115.769531 279.382812 Z M 115.769531 35.59375 " fill-opacity="1" fill-rule="nonzero"/></g></g><g clip-path="url(#cfcabc2bf6)"><g clip-path="url(#70faedb2b3)"><path fill="#373a3c" d="M 115.769531 35.59375 L 257.609375 35.59375 L 257.609375 279.382812 L 115.769531 279.382812 Z M 115.769531 35.59375 " fill-opacity="1" fill-rule="nonzero"/></g></g><g fill="#ffffff" fill-opacity="1"><g transform="translate(23.941854, 311.823509)"><g><path d="M 19.554688 -6.5625 C 19.554688 -7.371094 19.285156 -7.707031 18.546875 -7.707031 L 15.246094 -7.707031 C 14.507812 -7.707031 14.4375 -7.167969 14.339844 -6.496094 C 14.070312 -4.878906 12.621094 -4.207031 10.804688 -4.207031 C 8.582031 -4.207031 7.066406 -5.417969 7.066406 -7.574219 L 7.066406 -14.574219 C 7.066406 -16.695312 8.582031 -17.9375 10.804688 -17.9375 C 12.621094 -17.9375 13.5625 -17.433594 14.269531 -16.324219 C 14.539062 -15.921875 14.574219 -15.28125 15.28125 -15.28125 L 18.511719 -15.28125 C 19.285156 -15.28125 19.554688 -15.449219 19.554688 -16.257812 C 19.117188 -20.53125 14.976562 -22.652344 10.804688 -22.652344 C 6.796875 -22.652344 1.785156 -20.328125 1.785156 -15.042969 L 1.785156 -7.101562 C 1.785156 -1.816406 6.796875 0.503906 10.804688 0.503906 C 14.976562 0.503906 19.554688 -2.222656 19.554688 -6.5625 Z M 19.554688 -6.5625 "/></g></g></g><g fill="#ffffff" fill-opacity="1"><g transform="translate(45.20397, 311.823509)"><g><path d="M 17.46875 -4.710938 L 7.773438 -4.710938 L 7.773438 -21.171875 C 7.773438 -21.945312 7.40625 -22.148438 6.796875 -22.148438 L 3.464844 -22.148438 C 2.859375 -22.148438 2.492188 -21.945312 2.492188 -21.171875 L 2.492188 -0.976562 C 2.492188 -0.371094 2.691406 0 3.464844 0 L 17.46875 0 C 18.242188 0 18.445312 -0.371094 18.445312 -0.976562 L 18.445312 -3.734375 C 18.445312 -4.34375 18.242188 -4.710938 17.46875 -4.710938 Z M 17.46875 -4.710938 "/></g></g></g><g fill="#ffffff" fill-opacity="1"><g transform="translate(64.783956, 311.823509)"><g><path d="M 21.539062 -0.941406 L 14.101562 -21.101562 C 13.800781 -21.808594 13.464844 -22.148438 12.722656 -22.148438 L 9.492188 -22.148438 C 8.75 -22.148438 8.378906 -21.808594 8.113281 -21.101562 L 0.640625 -0.941406 C 0.472656 -0.539062 0.472656 0 1.210938 0 L 4.746094 0 C 5.484375 0 5.753906 -0.203125 6.023438 -1.007812 L 6.96875 -3.667969 L 15.214844 -3.667969 L 16.15625 -1.007812 C 16.425781 -0.203125 16.695312 0 17.433594 0 L 20.96875 0 C 21.710938 0 21.710938 -0.539062 21.539062 -0.941406 Z M 11.105469 -15.820312 L 13.632812 -8.378906 L 8.582031 -8.378906 Z M 11.105469 -15.820312 "/></g></g></g><g fill="#ffffff" fill-opacity="1"><g transform="translate(86.819861, 311.823509)"><g><path d="M 12.925781 -12.855469 C 11.578125 -13.394531 6.628906 -14.136719 6.628906 -16.1875 C 6.628906 -17.703125 8.480469 -18.140625 9.59375 -18.140625 C 10.601562 -18.140625 11.8125 -17.839844 12.453125 -17.234375 C 12.855469 -16.828125 13.027344 -16.558594 13.160156 -16.222656 C 13.328125 -15.785156 13.429688 -15.3125 14.070312 -15.3125 L 17.367188 -15.3125 C 18.140625 -15.3125 18.34375 -15.449219 18.34375 -16.257812 C 18.34375 -20.699219 13.664062 -22.652344 9.390625 -22.652344 C 5.183594 -22.484375 1.210938 -20.328125 1.210938 -15.953125 C 1.210938 -11.679688 4.34375 -10.332031 7.742188 -9.253906 C 10.601562 -8.347656 13.597656 -8.3125 13.597656 -6.429688 C 13.597656 -4.542969 12.117188 -4.140625 10.300781 -4.140625 C 9.054688 -4.140625 7.675781 -4.441406 7 -5.25 C 6.5625 -5.753906 6.394531 -6.191406 6.359375 -6.628906 C 6.292969 -7.472656 5.921875 -7.574219 5.148438 -7.574219 L 1.886719 -7.574219 C 1.109375 -7.574219 0.910156 -7.40625 0.910156 -6.628906 C 0.910156 -1.917969 5.753906 0.503906 9.960938 0.503906 C 15.144531 0.503906 18.914062 -1.785156 18.914062 -6.5625 C 18.914062 -11.140625 15.347656 -12.117188 12.925781 -12.855469 Z M 12.925781 -12.855469 "/></g></g></g><g fill="#ffffff" fill-opacity="1"><g transform="translate(107.173637, 311.823509)"><g><path d="M 19.589844 -22.148438 L 16.257812 -22.148438 C 15.652344 -22.148438 15.28125 -21.945312 15.28125 -21.171875 L 15.28125 -13.5625 L 7.773438 -13.5625 L 7.773438 -21.171875 C 7.773438 -21.945312 7.4375 -22.148438 6.796875 -22.148438 L 3.464844 -22.148438 C 2.859375 -22.148438 2.492188 -21.945312 2.492188 -21.171875 L 2.492188 -0.976562 C 2.492188 -0.203125 2.859375 0 3.464844 0 L 6.796875 0 C 7.4375 0 7.773438 -0.203125 7.773438 -0.976562 L 7.773438 -8.582031 L 15.28125 -8.582031 L 15.28125 -0.976562 C 15.28125 -0.203125 15.652344 0 16.257812 0 L 19.589844 0 C 20.195312 0 20.566406 -0.203125 20.566406 -0.976562 L 20.566406 -21.171875 C 20.566406 -21.945312 20.195312 -22.148438 19.589844 -22.148438 Z M 19.589844 -22.148438 "/></g></g></g><g fill="#ffffff" fill-opacity="1"><g transform="translate(130.21882, 311.823509)"><g/></g></g><g fill="#ffffff" fill-opacity="1"><g transform="translate(139.335971, 311.823509)"><g><path d="M 19.890625 -7.101562 L 19.890625 -15.042969 C 19.890625 -20.363281 14.84375 -22.652344 10.835938 -22.652344 C 6.832031 -22.652344 1.851562 -20.363281 1.851562 -15.042969 L 1.851562 -7.101562 C 1.851562 -1.785156 6.832031 0.503906 10.835938 0.503906 C 14.84375 0.503906 19.890625 -1.785156 19.890625 -7.101562 Z M 14.605469 -14.574219 L 14.605469 -7.574219 C 14.605469 -5.417969 13.058594 -4.171875 10.835938 -4.171875 C 8.648438 -4.171875 7.101562 -5.417969 7.101562 -7.574219 L 7.101562 -14.574219 C 7.101562 -16.726562 8.648438 -17.972656 10.835938 -17.972656 C 13.058594 -17.972656 14.605469 -16.726562 14.605469 -14.574219 Z M 14.605469 -14.574219 "/></g></g></g><g fill="#ffffff" fill-opacity="1"><g transform="translate(161.03545, 311.823509)"><g><path d="M 17.9375 -22.148438 L 3.464844 -22.148438 C 2.691406 -22.148438 2.492188 -21.777344 2.492188 -21.171875 L 2.492188 -0.976562 C 2.492188 -0.371094 2.691406 0 3.464844 0 L 6.796875 0 C 7.574219 0 7.773438 -0.132812 7.773438 -1.007812 L 7.773438 -8.886719 L 16.527344 -8.886719 C 17.300781 -8.886719 17.5 -9.253906 17.5 -9.863281 L 17.5 -12.519531 C 17.5 -13.125 17.300781 -13.496094 16.527344 -13.496094 L 7.773438 -13.496094 L 7.773438 -17.433594 L 17.9375 -17.433594 C 18.714844 -17.433594 18.914062 -17.804688 18.914062 -18.410156 L 18.914062 -21.171875 C 18.914062 -21.777344 18.714844 -22.148438 17.9375 -22.148438 Z M 17.9375 -22.148438 "/></g></g></g><g fill="#ffffff" fill-opacity="1"><g transform="translate(181.288288, 311.823509)"><g/></g></g><g fill="#ffffff" fill-opacity="1"><g transform="translate(190.405439, 311.823509)"><g><path d="M 19.890625 -7.101562 L 19.890625 -15.042969 C 19.890625 -20.363281 14.84375 -22.652344 10.835938 -22.652344 C 6.832031 -22.652344 1.851562 -20.363281 1.851562 -15.042969 L 1.851562 -7.101562 C 1.851562 -1.785156 6.832031 0.503906 10.835938 0.503906 C 14.84375 0.503906 19.890625 -1.785156 19.890625 -7.101562 Z M 14.605469 -14.574219 L 14.605469 -7.574219 C 14.605469 -5.417969 13.058594 -4.171875 10.835938 -4.171875 C 8.648438 -4.171875 7.101562 -5.417969 7.101562 -7.574219 L 7.101562 -14.574219 C 7.101562 -16.726562 8.648438 -17.972656 10.835938 -17.972656 C 13.058594 -17.972656 14.605469 -16.726562 14.605469 -14.574219 Z M 14.605469 -14.574219 "/></g></g></g><g fill="#ffffff" fill-opacity="1"><g transform="translate(212.104919, 311.823509)"><g><path d="M 11.039062 -22.148438 L 3.464844 -22.148438 C 2.691406 -22.148438 2.492188 -21.777344 2.492188 -21.171875 L 2.492188 -0.976562 C 2.492188 -0.203125 2.859375 0 3.464844 0 L 6.796875 0 C 7.40625 0 7.773438 -0.203125 7.773438 -0.976562 L 7.773438 -6.5625 L 11.007812 -6.5625 C 16.761719 -6.5625 19.859375 -9.660156 19.859375 -14.339844 C 19.859375 -18.984375 16.828125 -22.148438 11.039062 -22.148438 Z M 11.007812 -11.105469 L 7.773438 -11.105469 L 7.773438 -17.402344 L 11.007812 -17.402344 C 13.632812 -17.402344 14.777344 -15.988281 14.777344 -14.238281 C 14.777344 -12.554688 13.632812 -11.105469 11.007812 -11.105469 Z M 11.007812 -11.105469 "/></g></g></g><g fill="#ffffff" fill-opacity="1"><g transform="translate(233.232464, 311.823509)"><g><path d="M 12.117188 -4.609375 L 9.996094 -4.609375 L 9.996094 -17.46875 L 12.015625 -17.46875 C 12.789062 -17.46875 12.992188 -17.839844 12.992188 -18.445312 L 12.992188 -21.171875 C 12.992188 -21.777344 12.789062 -22.148438 12.015625 -22.148438 L 2.660156 -22.148438 C 1.886719 -22.148438 1.683594 -21.777344 1.683594 -21.171875 L 1.683594 -18.445312 C 1.683594 -17.839844 1.886719 -17.46875 2.660156 -17.46875 L 4.710938 -17.46875 L 4.710938 -4.609375 L 2.589844 -4.609375 C 1.816406 -4.609375 1.617188 -4.242188 1.617188 -3.636719 L 1.617188 -0.976562 C 1.617188 -0.371094 1.816406 0 2.589844 0 L 12.117188 0 C 12.890625 0 13.09375 -0.371094 13.09375 -0.976562 L 13.09375 -3.636719 C 13.09375 -4.242188 12.890625 -4.609375 12.117188 -4.609375 Z M 12.117188 -4.609375 "/></g></g></g><g fill="#ffffff" fill-opacity="1"><g transform="translate(248.169773, 311.823509)"><g><path d="M 19.488281 -22.148438 L 16.257812 -22.148438 C 15.652344 -22.148438 15.28125 -21.945312 15.28125 -21.171875 L 15.28125 -9.492188 L 8.144531 -21.003906 C 7.707031 -21.675781 7.472656 -22.148438 6.628906 -22.148438 L 3.464844 -22.148438 C 2.691406 -22.148438 2.492188 -21.777344 2.492188 -21.171875 L 2.492188 -0.976562 C 2.492188 -0.203125 2.859375 0 3.464844 0 L 6.796875 0 C 7.40625 0 7.773438 -0.203125 7.773438 -0.976562 L 7.773438 -12.6875 L 14.910156 -1.144531 C 15.347656 -0.472656 15.582031 0 16.425781 0 L 19.488281 0 C 20.261719 0 20.464844 -0.371094 20.464844 -0.976562 L 20.464844 -21.171875 C 20.464844 -21.945312 20.09375 -22.148438 19.488281 -22.148438 Z M 19.488281 -22.148438 "/></g></g></g><g fill="#ffffff" fill-opacity="1"><g transform="translate(271.114018, 311.823509)"><g><path d="M 12.117188 -4.609375 L 9.996094 -4.609375 L 9.996094 -17.46875 L 12.015625 -17.46875 C 12.789062 -17.46875 12.992188 -17.839844 12.992188 -18.445312 L 12.992188 -21.171875 C 12.992188 -21.777344 12.789062 -22.148438 12.015625 -22.148438 L 2.660156 -22.148438 C 1.886719 -22.148438 1.683594 -21.777344 1.683594 -21.171875 L 1.683594 -18.445312 C 1.683594 -17.839844 1.886719 -17.46875 2.660156 -17.46875 L 4.710938 -17.46875 L 4.710938 -4.609375 L 2.589844 -4.609375 C 1.816406 -4.609375 1.617188 -4.242188 1.617188 -3.636719 L 1.617188 -0.976562 C 1.617188 -0.371094 1.816406 0 2.589844 0 L 12.117188 0 C 12.890625 0 13.09375 -0.371094 13.09375 -0.976562 L 13.09375 -3.636719 C 13.09375 -4.242188 12.890625 -4.609375 12.117188 -4.609375 Z M 12.117188 -4.609375 "/></g></g></g><g fill="#ffffff" fill-opacity="1"><g transform="translate(286.051327, 311.823509)"><g><path d="M 19.890625 -7.101562 L 19.890625 -15.042969 C 19.890625 -20.363281 14.84375 -22.652344 10.835938 -22.652344 C 6.832031 -22.652344 1.851562 -20.363281 1.851562 -15.042969 L 1.851562 -7.101562 C 1.851562 -1.785156 6.832031 0.503906 10.835938 0.503906 C 14.84375 0.503906 19.890625 -1.785156 19.890625 -7.101562 Z M 14.605469 -14.574219 L 14.605469 -7.574219 C 14.605469 -5.417969 13.058594 -4.171875 10.835938 -4.171875 C 8.648438 -4.171875 7.101562 -5.417969 7.101562 -7.574219 L 7.101562 -14.574219 C 7.101562 -16.726562 8.648438 -17.972656 10.835938 -17.972656 C 13.058594 -17.972656 14.605469 -16.726562 14.605469 -14.574219 Z M 14.605469 -14.574219 "/></g></g></g><g fill="#ffffff" fill-opacity="1"><g transform="translate(307.750806, 311.823509)"><g><path d="M 19.488281 -22.148438 L 16.257812 -22.148438 C 15.652344 -22.148438 15.28125 -21.945312 15.28125 -21.171875 L 15.28125 -9.492188 L 8.144531 -21.003906 C 7.707031 -21.675781 7.472656 -22.148438 6.628906 -22.148438 L 3.464844 -22.148438 C 2.691406 -22.148438 2.492188 -21.777344 2.492188 -21.171875 L 2.492188 -0.976562 C 2.492188 -0.203125 2.859375 0 3.464844 0 L 6.796875 0 C 7.40625 0 7.773438 -0.203125 7.773438 -0.976562 L 7.773438 -12.6875 L 14.910156 -1.144531 C 15.347656 -0.472656 15.582031 0 16.425781 0 L 19.488281 0 C 20.261719 0 20.464844 -0.371094 20.464844 -0.976562 L 20.464844 -21.171875 C 20.464844 -21.945312 20.09375 -22.148438 19.488281 -22.148438 Z M 19.488281 -22.148438 "/></g></g></g><g fill="#ffffff" fill-opacity="1"><g transform="translate(330.695051, 311.823509)"><g><path d="M 12.925781 -12.855469 C 11.578125 -13.394531 6.628906 -14.136719 6.628906 -16.1875 C 6.628906 -17.703125 8.480469 -18.140625 9.59375 -18.140625 C 10.601562 -18.140625 11.8125 -17.839844 12.453125 -17.234375 C 12.855469 -16.828125 13.027344 -16.558594 13.160156 -16.222656 C 13.328125 -15.785156 13.429688 -15.3125 14.070312 -15.3125 L 17.367188 -15.3125 C 18.140625 -15.3125 18.34375 -15.449219 18.34375 -16.257812 C 18.34375 -20.699219 13.664062 -22.652344 9.390625 -22.652344 C 5.183594 -22.484375 1.210938 -20.328125 1.210938 -15.953125 C 1.210938 -11.679688 4.34375 -10.332031 7.742188 -9.253906 C 10.601562 -8.347656 13.597656 -8.3125 13.597656 -6.429688 C 13.597656 -4.542969 12.117188 -4.140625 10.300781 -4.140625 C 9.054688 -4.140625 7.675781 -4.441406 7 -5.25 C 6.5625 -5.753906 6.394531 -6.191406 6.359375 -6.628906 C 6.292969 -7.472656 5.921875 -7.574219 5.148438 -7.574219 L 1.886719 -7.574219 C 1.109375 -7.574219 0.910156 -7.40625 0.910156 -6.628906 C 0.910156 -1.917969 5.753906 0.503906 9.960938 0.503906 C 15.144531 0.503906 18.914062 -1.785156 18.914062 -6.5625 C 18.914062 -11.140625 15.347656 -12.117188 12.925781 -12.855469 Z M 12.925781 -12.855469 "/></g></g></g><g fill="#ffffff" fill-opacity="1"><g transform="translate(66.107603, 334.06119)"><g><path d="M 1.34375 0 L 0.109375 0 L 3.515625 -8.59375 L 4.71875 -8.59375 L 8.078125 0 L 6.84375 0 L 6.0625 -2.0625 L 2.125 -2.0625 Z M 4.078125 -7.515625 C 3.992188 -7.203125 3.890625 -6.863281 3.765625 -6.5 C 3.640625 -6.144531 3.515625 -5.789062 3.390625 -5.4375 L 2.5 -3.09375 L 5.671875 -3.09375 L 4.796875 -5.4375 C 4.609375 -5.9375 4.460938 -6.34375 4.359375 -6.65625 C 4.253906 -6.96875 4.160156 -7.253906 4.078125 -7.515625 Z M 4.078125 -7.515625 "/></g></g></g><g fill="#ffffff" fill-opacity="1"><g transform="translate(79.522219, 334.06119)"><g/></g></g><g fill="#ffffff" fill-opacity="1"><g transform="translate(87.08943, 334.06119)"><g><path d="M 3.484375 0 L 0.984375 0 L 0.984375 -8.59375 L 3.484375 -8.59375 C 4.359375 -8.59375 5.050781 -8.519531 5.5625 -8.375 C 6.082031 -8.226562 6.5 -7.992188 6.8125 -7.671875 C 7.125 -7.347656 7.347656 -6.914062 7.484375 -6.375 C 7.628906 -5.832031 7.703125 -5.140625 7.703125 -4.296875 C 7.703125 -2.804688 7.367188 -1.71875 6.703125 -1.03125 C 6.035156 -0.34375 4.960938 0 3.484375 0 Z M 5.9375 -6.84375 C 5.726562 -7.082031 5.4375 -7.253906 5.0625 -7.359375 C 4.6875 -7.472656 4.160156 -7.53125 3.484375 -7.53125 L 2.15625 -7.53125 L 2.15625 -1.09375 L 3.484375 -1.09375 C 4.617188 -1.09375 5.40625 -1.332031 5.84375 -1.8125 C 6.289062 -2.300781 6.515625 -3.128906 6.515625 -4.296875 C 6.515625 -4.953125 6.46875 -5.476562 6.375 -5.875 C 6.28125 -6.28125 6.132812 -6.601562 5.9375 -6.84375 Z M 5.9375 -6.84375 "/></g></g></g><g fill="#ffffff" fill-opacity="1"><g transform="translate(100.613586, 334.06119)"><g><path d="M 6.6875 -1.09375 L 6.6875 0 L 0.984375 0 L 0.984375 -8.59375 L 6.5625 -8.59375 L 6.5625 -7.53125 L 2.15625 -7.53125 L 2.15625 -4.90625 L 6.0625 -4.90625 L 6.0625 -3.875 L 2.15625 -3.875 L 2.15625 -1.09375 Z M 6.6875 -1.09375 "/></g></g></g><g fill="#ffffff" fill-opacity="1"><g transform="translate(113.001139, 334.06119)"><g><path d="M 7.15625 -2.46875 C 7.15625 -1.59375 6.914062 -0.960938 6.4375 -0.578125 C 5.96875 -0.191406 5.207031 0 4.15625 0 L 0.984375 0 L 0.984375 -8.59375 L 4.140625 -8.59375 C 5.085938 -8.59375 5.757812 -8.429688 6.15625 -8.109375 C 6.5625 -7.785156 6.765625 -7.238281 6.765625 -6.46875 C 6.765625 -5.90625 6.664062 -5.472656 6.46875 -5.171875 C 6.28125 -4.878906 5.953125 -4.675781 5.484375 -4.5625 C 6.035156 -4.488281 6.453125 -4.273438 6.734375 -3.921875 C 7.015625 -3.578125 7.15625 -3.09375 7.15625 -2.46875 Z M 5.6875 -6.296875 C 5.6875 -6.773438 5.570312 -7.109375 5.34375 -7.296875 C 5.113281 -7.484375 4.71875 -7.578125 4.15625 -7.578125 L 2.15625 -7.578125 L 2.15625 -4.890625 L 4.15625 -4.890625 C 4.695312 -4.890625 5.085938 -5 5.328125 -5.21875 C 5.566406 -5.4375 5.6875 -5.796875 5.6875 -6.296875 Z M 6.03125 -2.53125 C 6.03125 -3.039062 5.890625 -3.394531 5.609375 -3.59375 C 5.328125 -3.800781 4.84375 -3.90625 4.15625 -3.90625 L 2.15625 -3.90625 L 2.15625 -1.046875 L 4.15625 -1.046875 C 4.84375 -1.046875 5.328125 -1.15625 5.609375 -1.375 C 5.890625 -1.59375 6.03125 -1.976562 6.03125 -2.53125 Z M 6.03125 -2.53125 "/></g></g></g><g fill="#ffffff" fill-opacity="1"><g transform="translate(125.895377, 334.06119)"><g><path d="M 1.34375 0 L 0.109375 0 L 3.515625 -8.59375 L 4.71875 -8.59375 L 8.078125 0 L 6.84375 0 L 6.0625 -2.0625 L 2.125 -2.0625 Z M 4.078125 -7.515625 C 3.992188 -7.203125 3.890625 -6.863281 3.765625 -6.5 C 3.640625 -6.144531 3.515625 -5.789062 3.390625 -5.4375 L 2.5 -3.09375 L 5.671875 -3.09375 L 4.796875 -5.4375 C 4.609375 -5.9375 4.460938 -6.34375 4.359375 -6.65625 C 4.253906 -6.96875 4.160156 -7.253906 4.078125 -7.515625 Z M 4.078125 -7.515625 "/></g></g></g><g fill="#ffffff" fill-opacity="1"><g transform="translate(139.309992, 334.06119)"><g><path d="M 7.078125 -8.59375 L 7.078125 -7.53125 L 4.21875 -7.53125 L 4.21875 0 L 3.0625 0 L 3.0625 -7.53125 L 0.203125 -7.53125 L 0.203125 -8.59375 Z M 7.078125 -8.59375 "/></g></g></g><g fill="#ffffff" fill-opacity="1"><g transform="translate(151.807081, 334.06119)"><g><path d="M 6.6875 -1.09375 L 6.6875 0 L 0.984375 0 L 0.984375 -8.59375 L 6.5625 -8.59375 L 6.5625 -7.53125 L 2.15625 -7.53125 L 2.15625 -4.90625 L 6.0625 -4.90625 L 6.0625 -3.875 L 2.15625 -3.875 L 2.15625 -1.09375 Z M 6.6875 -1.09375 "/></g></g></g><g fill="#ffffff" fill-opacity="1"><g transform="translate(164.194639, 334.06119)"><g/></g></g><g fill="#ffffff" fill-opacity="1"><g transform="translate(171.761856, 334.06119)"><g><path d="M 4.40625 -0.984375 C 4.769531 -0.984375 5.160156 -1.023438 5.578125 -1.109375 C 5.992188 -1.203125 6.378906 -1.320312 6.734375 -1.46875 L 6.734375 -0.421875 C 6.234375 -0.222656 5.789062 -0.0820312 5.40625 0 C 5.019531 0.0703125 4.613281 0.109375 4.1875 0.109375 C 2.875 0.109375 1.945312 -0.226562 1.40625 -0.90625 C 0.875 -1.59375 0.609375 -2.726562 0.609375 -4.3125 C 0.609375 -5.84375 0.921875 -6.960938 1.546875 -7.671875 C 2.171875 -8.378906 3.164062 -8.734375 4.53125 -8.734375 C 4.957031 -8.734375 5.332031 -8.722656 5.65625 -8.703125 C 5.988281 -8.679688 6.285156 -8.648438 6.546875 -8.609375 L 6.546875 -7.578125 C 6.234375 -7.609375 5.910156 -7.628906 5.578125 -7.640625 C 5.253906 -7.660156 4.90625 -7.671875 4.53125 -7.671875 C 3.507812 -7.671875 2.796875 -7.414062 2.390625 -6.90625 C 1.992188 -6.40625 1.796875 -5.539062 1.796875 -4.3125 C 1.796875 -3.070312 1.976562 -2.207031 2.34375 -1.71875 C 2.707031 -1.226562 3.394531 -0.984375 4.40625 -0.984375 Z M 4.40625 -0.984375 "/></g></g></g><g fill="#ffffff" fill-opacity="1"><g transform="translate(184.080932, 334.06119)"><g><path d="M 8.28125 -4.3125 C 8.28125 -2.75 7.976562 -1.617188 7.375 -0.921875 C 6.78125 -0.234375 5.804688 0.109375 4.453125 0.109375 C 3.003906 0.109375 2 -0.210938 1.4375 -0.859375 C 0.882812 -1.503906 0.609375 -2.65625 0.609375 -4.3125 C 0.609375 -5.863281 0.910156 -6.988281 1.515625 -7.6875 C 2.117188 -8.382812 3.097656 -8.734375 4.453125 -8.734375 C 5.898438 -8.734375 6.898438 -8.410156 7.453125 -7.765625 C 8.003906 -7.117188 8.28125 -5.96875 8.28125 -4.3125 Z M 2.203125 -1.84375 C 2.378906 -1.53125 2.632812 -1.304688 2.96875 -1.171875 C 3.3125 -1.046875 3.804688 -0.984375 4.453125 -0.984375 C 5.460938 -0.984375 6.15625 -1.226562 6.53125 -1.71875 C 6.90625 -2.207031 7.09375 -3.070312 7.09375 -4.3125 C 7.09375 -4.9375 7.0625 -5.445312 7 -5.84375 C 6.9375 -6.238281 6.835938 -6.5625 6.703125 -6.8125 C 6.523438 -7.125 6.269531 -7.34375 5.9375 -7.46875 C 5.601562 -7.601562 5.109375 -7.671875 4.453125 -7.671875 C 3.429688 -7.671875 2.734375 -7.421875 2.359375 -6.921875 C 1.984375 -6.429688 1.796875 -5.5625 1.796875 -4.3125 C 1.796875 -3.695312 1.828125 -3.1875 1.890625 -2.78125 C 1.953125 -2.382812 2.054688 -2.070312 2.203125 -1.84375 Z M 2.203125 -1.84375 "/></g></g></g><g fill="#ffffff" fill-opacity="1"><g transform="translate(198.193952, 334.06119)"><g><path d="M 9.078125 -8.59375 L 9.078125 0 L 7.984375 0 L 7.984375 -6.765625 L 5.53125 -1.71875 L 4.53125 -1.71875 L 2.078125 -6.78125 L 2.078125 0 L 0.984375 0 L 0.984375 -8.59375 L 2.453125 -8.59375 L 5.0625 -3.125 L 7.671875 -8.59375 Z M 9.078125 -8.59375 "/></g></g></g><g fill="#ffffff" fill-opacity="1"><g transform="translate(213.484653, 334.06119)"><g><path d="M 2.15625 -2.78125 L 2.15625 0 L 0.984375 0 L 0.984375 -8.59375 L 3.90625 -8.59375 C 5.125 -8.59375 5.992188 -8.375 6.515625 -7.9375 C 7.035156 -7.5 7.296875 -6.78125 7.296875 -5.78125 C 7.296875 -4.769531 7.019531 -4.015625 6.46875 -3.515625 C 5.925781 -3.023438 5.085938 -2.78125 3.953125 -2.78125 Z M 6.125 -5.78125 C 6.125 -6.414062 5.953125 -6.863281 5.609375 -7.125 C 5.265625 -7.394531 4.695312 -7.53125 3.90625 -7.53125 L 2.15625 -7.53125 L 2.15625 -3.8125 L 3.90625 -3.8125 C 4.695312 -3.8125 5.265625 -3.960938 5.609375 -4.265625 C 5.953125 -4.578125 6.125 -5.082031 6.125 -5.78125 Z M 6.125 -5.78125 "/></g></g></g><g fill="#ffffff" fill-opacity="1"><g transform="translate(226.419974, 334.06119)"><g><path d="M 6.6875 -1.09375 L 6.6875 0 L 0.984375 0 L 0.984375 -8.59375 L 6.5625 -8.59375 L 6.5625 -7.53125 L 2.15625 -7.53125 L 2.15625 -4.90625 L 6.0625 -4.90625 L 6.0625 -3.875 L 2.15625 -3.875 L 2.15625 -1.09375 Z M 6.6875 -1.09375 "/></g></g></g><g fill="#ffffff" fill-opacity="1"><g transform="translate(238.807532, 334.06119)"><g><path d="M 7.078125 -8.59375 L 7.078125 -7.53125 L 4.21875 -7.53125 L 4.21875 0 L 3.0625 0 L 3.0625 -7.53125 L 0.203125 -7.53125 L 0.203125 -8.59375 Z M 7.078125 -8.59375 "/></g></g></g><g fill="#ffffff" fill-opacity="1"><g transform="translate(251.304631, 334.06119)"><g><path d="M 2.15625 -8.59375 L 2.15625 0 L 0.984375 0 L 0.984375 -8.59375 Z M 2.15625 -8.59375 "/></g></g></g><g fill="#ffffff" fill-opacity="1"><g transform="translate(259.666116, 334.06119)"><g><path d="M 7.078125 -8.59375 L 7.078125 -7.53125 L 4.21875 -7.53125 L 4.21875 0 L 3.0625 0 L 3.0625 -7.53125 L 0.203125 -7.53125 L 0.203125 -8.59375 Z M 7.078125 -8.59375 "/></g></g></g><g fill="#ffffff" fill-opacity="1"><g transform="translate(272.163215, 334.06119)"><g><path d="M 2.15625 -8.59375 L 2.15625 0 L 0.984375 0 L 0.984375 -8.59375 Z M 2.15625 -8.59375 "/></g></g></g><g fill="#ffffff" fill-opacity="1"><g transform="translate(280.5247, 334.06119)"><g><path d="M 8.28125 -4.3125 C 8.28125 -2.75 7.976562 -1.617188 7.375 -0.921875 C 6.78125 -0.234375 5.804688 0.109375 4.453125 0.109375 C 3.003906 0.109375 2 -0.210938 1.4375 -0.859375 C 0.882812 -1.503906 0.609375 -2.65625 0.609375 -4.3125 C 0.609375 -5.863281 0.910156 -6.988281 1.515625 -7.6875 C 2.117188 -8.382812 3.097656 -8.734375 4.453125 -8.734375 C 5.898438 -8.734375 6.898438 -8.410156 7.453125 -7.765625 C 8.003906 -7.117188 8.28125 -5.96875 8.28125 -4.3125 Z M 2.203125 -1.84375 C 2.378906 -1.53125 2.632812 -1.304688 2.96875 -1.171875 C 3.3125 -1.046875 3.804688 -0.984375 4.453125 -0.984375 C 5.460938 -0.984375 6.15625 -1.226562 6.53125 -1.71875 C 6.90625 -2.207031 7.09375 -3.070312 7.09375 -4.3125 C 7.09375 -4.9375 7.0625 -5.445312 7 -5.84375 C 6.9375 -6.238281 6.835938 -6.5625 6.703125 -6.8125 C 6.523438 -7.125 6.269531 -7.34375 5.9375 -7.46875 C 5.601562 -7.601562 5.109375 -7.671875 4.453125 -7.671875 C 3.429688 -7.671875 2.734375 -7.421875 2.359375 -6.921875 C 1.984375 -6.429688 1.796875 -5.5625 1.796875 -4.3125 C 1.796875 -3.695312 1.828125 -3.1875 1.890625 -2.78125 C 1.953125 -2.382812 2.054688 -2.070312 2.203125 -1.84375 Z M 2.203125 -1.84375 "/></g></g></g><g fill="#ffffff" fill-opacity="1"><g transform="translate(294.637721, 334.06119)"><g><path d="M 8.015625 -8.59375 L 8.015625 0 L 6.84375 0 L 2.078125 -6.6875 L 2.078125 0 L 0.984375 0 L 0.984375 -8.59375 L 2.171875 -8.59375 L 6.921875 -1.8125 L 6.921875 -8.59375 Z M 8.015625 -8.59375 "/></g></g></g></svg>