<svg xmlns="http://www.w3.org/2000/svg" xmlns:xlink="http://www.w3.org/1999/xlink" width="500" zoomAndPan="magnify" viewBox="0 0 375 375" height="500" preserveAspectRatio="xMidYMid meet" xmlns:v="https://vecta.io/nano"><style><![CDATA[.B{clip-rule:nonzero}.C{fill:#373a3c}.D{fill:#fff}.E{fill:#555758}]]></style><defs><clipPath id="A"><path d="M186.137 109.285H249v109.148h-62.863zm0 0" class="B"/></clipPath><clipPath id="B"><path d="M205.086 183.551c-3.453 2.336-8.457 3.539-11.859 6.82-3.297 3.172-5.109 8.246-2.582 18.121 0 0 2.199.242 5.426 1.098 2.738.73 6.242 1.902 9.781 3.75l7.031 4.707 12.66-13.234s2.32-12.437-3.016-22.676l-3.016-4.48h.016c.313 0 6.313.137 11.617 10.34 0 0 6.766-13.727 16.5-15.645l.137-.453c.891-3.664 2.27-11.109-.871-15.207l-3-5.652c-1.344-3.871-1.5-7.848-.82-10.586 0 0-.207-1.762-1.309-4.344-1.062-2.547-2.98-5.879-6.348-9.176-3.016-2.93-7.184-5.824-12.977-8.039l7.063-3.699s-.957-.852-2.754-1.898a28.03 28.03 0 0 0-14.004-3.715c-7.152 0-16.238 2.633-26.547 11.527v56.824c8.684-1.027 17.824-5.617 17.824-5.617s7.813 6.645 1.031 11.215zm-11.547-36.277l-.035-.246c-.016-.121 12.699 7.57 22.203-2.789 2.008-2.18 4.641-3.734 7.57-4.223 4.711-.801 11.039.086 13.727 9.332h-6.402s-4.863 13.832-16.012 12.941l1.223 7.203s-7.727-4.656-9.383-12.629c0 0-11.215.438-12.871-9.59" class="B"/></clipPath><clipPath id="C"><path d="M158.434 218H215.5v52.516h-57.066zm0 0" class="B"/></clipPath><clipPath id="D"><path d="M207.145 234.758c1.012 3.594 5.844 7.43 7.777 10.621-2.023 4.797-4.656 9.156-8.004 13.133.016-5.039-1.238-9.332-3.82-13.637-.141 4.918-1.797 9.801-4.676 13.777l-5.598 6.141-5.789 5.668-5.793-5.668c-1.988-1.937-3.977-3.891-5.598-6.141a24.88 24.88 0 0 1-4.672-13.777c-2.602 4.305-3.84 8.598-3.82 13.637l-4.746-6.66a49.92 49.92 0 0 1-3.262-6.473c1.887-3.086 5.688-6.766 6.84-10.254l.066-.227-3.262 2.875-3.816 3.473.469-.891c1.621-3.121 2.844-6.453 3.594-9.887l.734-4.52c3.469-2.457 8.145-4.621 12.887-6.207a32.65 32.65 0 0 1 20.809 0c4.742 1.586 9.418 3.75 12.887 6.207a40.46 40.46 0 0 0 4.797 15.297l-7.969-6.508" class="B"/></clipPath><clipPath id="E"><path d="M128.512 131h52.082v21h-52.082zm0 0" class="B"/></clipPath><clipPath id="F"><path d="M178.926 147.254l.035-.242c.016-.125-12.699 7.566-22.203-2.793-2.008-2.18-4.641-3.73-7.57-4.219-4.711-.805-11.043.086-13.727 9.328h6.398c-5.16.16-9.746.891-13.305 1.676 1.344-3.871 1.5-7.848.82-10.586 0 0 .207-1.762 1.305-4.344 15.16-11.301 25.852.211 26.531.211 19.395 0 23.125 6.207 23.125 6.207-.367 2.043-.871 3.594-1.41 4.762" class="B"/></clipPath><clipPath id="G"><path d="M124.633 167H153v21h-28.367zm0 0" class="B"/></clipPath><clipPath id="H"><path d="M152.918 177.637c-.312 0-6.312.141-11.613 10.324 0 0-6.77-13.727-16.5-15.645l-.141-.453c1.586-2.93 4.57-4.848 9.453-4.395 0 0 9.453 9.891 18.801 10.152" class="B"/></clipPath><clipPath id="I"><path d="M149.566 177.434H153v4.988h-3.434zm0 0" class="B"/></clipPath><clipPath id="J"><path d="M152.938 177.637l-3.02 4.484 1.816-3.07" class="B"/></clipPath><clipPath id="K"><path d="M153.445 189H183v21.125h-29.555zm0 0" class="B"/></clipPath><clipPath id="L"><path d="M181.801 208.492s-2.195.242-5.422 1.098c-5.687-2.477-12.664-1.902-18.437.523 0 0 5.305-6.488 16.203-6.191 0 0-4.848-5.164-16.203-1.621.211-.16 8.496-6.996 15.453-6.281 0 0-10.832-3.836-19.883-.82.262-.207 10.797-8.633 25.707-4.828 3.297 3.172 5.113 8.266 2.582 18.121" class="B"/></clipPath><clipPath id="M"><path d="M137 113h36.945v14H137zm0 0" class="B"/></clipPath><clipPath id="N"><path d="M173.551 123.535c-16.359-6.367-29.895-.613-36.539 3.383 3.02-2.93 7.188-5.824 12.977-8.039l-7.062-3.699s.957-.855 2.754-1.902c19.188-1.375 27.891 10.238 27.891 10.238" class="B"/></clipPath><clipPath id="O"><path d="M148 146.406h13.758V156H148zm0 0" class="B"/></clipPath><clipPath id="P"><path d="M149.258 146.887s-2.215 5.008 2.875 7.746 9.227.297 9.227.297l-7.848-7.363 2.758 4.379-7.012-5.039" class="B"/></clipPath><clipPath id="Q"><path d="M128.512 44h58.176v63.621h-58.176zm0 0" class="B"/></clipPath><clipPath id="R"><path d="M186.23 44.316l-22.395 14.457s13.117 16.535 10.309 29.688c0 0-27.539 6.051-24.297-22.152l-21.293 8.723s7.445 11.512 10.395 27.313c0 0 24.297-12.262 47.281 5.16V89.176c-1.566-5.355-6.73-21.941-11.895-26.668l11.895-9.418zm-44.16 48.871l-5.059-13.953 6.262-3.316c2.215 13.5-1.219 17.27-1.219 17.27" class="B"/></clipPath><clipPath id="S"><path d="M192 131h52v21h-52zm0 0" class="B"/></clipPath><clipPath id="T"><path d="M193.539 147.254l-.035-.242c-.016-.125 12.699 7.566 22.203-2.793 2.008-2.18 4.641-3.73 7.57-4.219 4.711-.805 11.039.086 13.727 9.328h-6.402c5.164.16 9.75.891 13.309 1.676-1.344-3.871-1.5-7.848-.82-10.586 0 0-.207-1.762-1.309-4.344-15.156-11.301-25.848.211-26.527.211-19.395 0-23.125 6.207-23.125 6.207.348 2.043.871 3.594 1.41 4.762" class="B"/></clipPath><clipPath id="U"><path d="M219.379 167H248v21h-28.621zm0 0" class="B"/></clipPath><clipPath id="V"><path d="M219.527 177.637c.313 0 6.313.141 11.617 10.324 0 0 6.766-13.727 16.5-15.645l.137-.453c-1.586-2.93-4.57-4.848-9.453-4.395 0 0-9.453 9.891-18.801 10.152" class="B"/></clipPath><clipPath id="W"><path d="M219.379 177.434h3.324v4.988h-3.324zm0 0" class="B"/></clipPath><clipPath id="X"><path d="M219.512 177.637l3.016 4.484-1.812-3.07" class="B"/></clipPath><clipPath id="Y"><path d="M189 189h30v21.125h-30zm0 0" class="B"/></clipPath><clipPath id="Z"><path d="M190.645 208.492s2.199.242 5.426 1.098c5.684-2.477 12.66-1.902 18.434.523 0 0-5.301-6.488-16.203-6.191 0 0 4.848-5.164 16.203-1.621-.207-.16-8.492-6.996-15.453-6.281 0 0 10.832-3.836 19.883-.82-.262-.207-10.797-8.633-25.707-4.828-3.297 3.172-5.109 8.266-2.582 18.121" class="B"/></clipPath><clipPath id="a"><path d="M198.324 113h37.121v14h-37.121zm0 0" class="B"/></clipPath><clipPath id="b"><path d="M198.895 123.535c16.359-6.367 29.895-.613 36.539 3.383-3.016-2.93-7.184-5.824-12.977-8.039l7.063-3.699s-.957-.855-2.754-1.902c-19.184-1.375-27.887 10.238-27.887 10.238" class="B"/></clipPath><clipPath id="c"><path d="M211.066 146.406H224V156h-12.934zm0 0" class="B"/></clipPath><clipPath id="d"><path d="M223.191 146.887s2.215 5.008-2.879 7.746-9.227.297-9.227.297l7.848-7.363-2.754 4.379 7.012-5.039" class="B"/></clipPath><clipPath id="e"><path d="M186.137 44H244v63.621h-57.863zm0 0" class="B"/></clipPath><clipPath id="f"><path d="M186.23 53.105l11.898 9.418c-5.164 4.711-10.328 21.297-11.898 26.668v18.313c22.973-17.422 47.285-5.16 47.285-5.16 2.949-15.801 10.395-27.312 10.395-27.312l-21.297-8.723c3.246 28.203-24.293 22.152-24.293 22.152-2.793-13.133 10.305-29.687 10.305-29.687L186.23 44.316zm42.926 22.813l6.262 3.316-5.059 13.953s-3.418-3.77-1.223-17.27" class="B"/></clipPath><clipPath id="g"><path d="M162.309 244.477H171v14.406h-8.691zm0 0" class="B"/></clipPath><clipPath id="h"><path d="M170.953 244.875c-2.598 4.305-3.836 8.598-3.82 13.637l-4.742-6.66c2.109-2.809 4.934-5.512 8.582-6.977" class="B"/></clipPath><clipPath id="i"><path d="M159 225.086h17v15.512h-17zm0 0" class="B"/></clipPath><clipPath id="j"><path d="M175.645 225.355s-3.07 4.031-9.695 9.77l-3.191 2.648a130.05 130.05 0 0 1-3.352 2.602c1.625-3.125 2.844-6.453 3.594-9.891 3.785-1.414 12.645-5.129 12.645-5.129" class="B"/></clipPath><clipPath id="k"><path d="M203 244.477h9v14.406h-9zm0 0" class="B"/></clipPath><clipPath id="l"><path d="M203.098 244.875c2.598 4.305 3.836 8.598 3.82 13.637l4.742-6.66c-2.109-2.809-4.934-5.512-8.578-6.977" class="B"/></clipPath><clipPath id="m"><path d="M198.324 225.086h16.621v15.512h-16.621zm0 0" class="B"/></clipPath><clipPath id="n"><path d="M198.406 225.355s3.07 4.031 9.695 9.77l3.195 2.648a123.24 123.24 0 0 0 3.348 2.602 40.06 40.06 0 0 1-3.594-9.891c-3.785-1.414-12.645-5.129-12.645-5.129" class="B"/></clipPath><path id="o" d="M115.77 35.594h141.84v243.789H115.77zm0 0"/><path id="p" d="M99.746 298.969c-1.348-.539-6.297-1.281-6.297-3.332 0-1.516 1.852-1.953 2.965-1.953 1.008 0 2.219.301 2.859.906.402.406.574.676.707 1.012.168.438.27.91.91.91h3.297c.773 0 .977-.137.977-.945 0-4.441-4.68-6.395-8.953-6.395-4.207.168-8.18 2.324-8.18 6.699 0 4.273 3.133 5.621 6.531 6.699 2.859.906 5.855.941 5.855 2.824s-1.48 2.289-3.297 2.289c-1.246 0-2.625-.301-3.301-1.109-.437-.504-.605-.941-.641-1.379-.066-.844-.437-.945-1.211-.945h-3.262c-.777 0-.977.168-.977.945 0 4.711 4.844 7.133 9.051 7.133 5.184 0 8.953-2.289 8.953-7.066 0-4.578-3.566-5.555-5.988-6.293zm0 0"/><path id="q" d="M159.227 304.722v-7.941c0-5.32-5.047-7.609-9.055-7.609s-8.984 2.289-8.984 7.609v7.941c0 5.316 4.98 7.605 8.984 7.605s9.055-2.289 9.055-7.605zm-5.285-7.473v7c0 2.156-1.547 3.402-3.77 3.402-2.187 0-3.734-1.246-3.734-3.402v-7c0-2.152 1.547-3.398 3.734-3.398 2.223 0 3.77 1.246 3.77 3.398zm0 0"/><path id="r" d="M245.349 307.215h-2.121v-12.859h2.02c.773 0 .977-.371.977-.977v-2.727c0-.605-.203-.977-.977-.977h-9.355c-.773 0-.977.371-.977.977v2.727c0 .605.203.977.977.977h2.051v12.859h-2.121c-.773 0-.973.367-.973.973v2.66c0 .605.199.977.973.977h9.527c.773 0 .977-.371.977-.977v-2.66c0-.605-.203-.973-.977-.973zm0 0"/><path id="s" d="M67.452 334.061h-1.234l3.406-8.594h1.203l3.359 8.594h-1.234l-.781-2.062h-3.937zm2.734-7.516l-.312 1.016-.375 1.063-.891 2.344h3.172l-.875-2.344-.437-1.219-.281-.859zm0 0"/><path id="t" d="M107.302 332.967v1.094h-5.703v-8.594h5.578v1.063h-4.406v2.625h3.906v1.031h-3.906v2.781zm0 0"/><path id="u" d="M146.388 325.467v1.063h-2.859v7.531h-1.156v-7.531h-2.859v-1.062zm0 0"/><path id="v" d="M192.362 329.749c0 1.563-.305 2.695-.906 3.391-.594.688-1.57 1.031-2.922 1.031-1.449 0-2.453-.32-3.016-.969-.555-.645-.828-1.797-.828-3.453 0-1.551.301-2.676.906-3.375s1.582-1.047 2.938-1.047c1.445 0 2.445.324 3 .969s.828 1.797.828 3.453zm-6.078 2.469a1.48 1.48 0 0 0 .766.672c.344.125.836.188 1.484.188 1.008 0 1.703-.242 2.078-.734s.563-1.352.563-2.594c0-.625-.031-1.133-.094-1.531s-.164-.719-.297-.969a1.45 1.45 0 0 0-.766-.656c-.336-.133-.828-.203-1.484-.203-1.023 0-1.719.25-2.094.75-.375.492-.562 1.359-.562 2.609a10.33 10.33 0 0 0 .094 1.531c.063.398.164.711.313.938zm0 0"/></defs><path d="M-37.5-37.5h450v450h-450z" class="D"/><path d="M-37.5-37.5h450v450h-450z"/><g clip-path="url(#A)" class="E"><g clip-path="url(#B)"><use xlink:href="#o"/></g></g><g clip-path="url(#C)" class="E"><g clip-path="url(#D)"><use xlink:href="#o"/></g></g><g clip-path="url(#E)" class="C"><g clip-path="url(#F)"><use xlink:href="#o"/></g></g><g clip-path="url(#G)" class="C"><g clip-path="url(#H)"><use xlink:href="#o"/></g></g><g clip-path="url(#I)" class="D"><g clip-path="url(#J)"><use xlink:href="#o"/></g></g><g clip-path="url(#K)" class="C"><g clip-path="url(#L)"><use xlink:href="#o"/></g></g><g clip-path="url(#M)" class="C"><g clip-path="url(#N)"><use xlink:href="#o"/></g></g><g clip-path="url(#O)" class="D"><g clip-path="url(#P)"><use xlink:href="#o"/></g></g><g clip-path="url(#Q)" class="C"><g clip-path="url(#R)"><use xlink:href="#o"/></g></g><g clip-path="url(#S)" class="C"><g clip-path="url(#T)"><use xlink:href="#o"/></g></g><g clip-path="url(#U)" class="C"><g clip-path="url(#V)"><use xlink:href="#o"/></g></g><g clip-path="url(#W)" class="D"><g clip-path="url(#X)"><use xlink:href="#o"/></g></g><g clip-path="url(#Y)" class="C"><g clip-path="url(#Z)"><use xlink:href="#o"/></g></g><g clip-path="url(#a)" class="C"><g clip-path="url(#b)"><use xlink:href="#o"/></g></g><g clip-path="url(#c)" class="D"><g clip-path="url(#d)"><use xlink:href="#o"/></g></g><g clip-path="url(#e)" class="E"><g clip-path="url(#f)"><use xlink:href="#o"/></g></g><g clip-path="url(#g)" class="C"><g clip-path="url(#h)"><use xlink:href="#o"/></g></g><g clip-path="url(#i)" class="C"><g clip-path="url(#j)"><use xlink:href="#o"/></g></g><g clip-path="url(#k)" class="C"><g clip-path="url(#l)"><use xlink:href="#o"/></g></g><g clip-path="url(#m)" class="C"><g clip-path="url(#n)"><use xlink:href="#o"/></g></g><g class="D"><path d="M43.497 305.262c0-.809-.27-1.145-1.008-1.145h-3.301c-.738 0-.809.539-.906 1.211-.27 1.617-1.719 2.289-3.535 2.289-2.223 0-3.738-1.211-3.738-3.367v-7c0-2.121 1.516-3.363 3.738-3.363 1.816 0 2.758.504 3.465 1.613.27.402.305 1.043 1.012 1.043h3.23c.773 0 1.043-.168 1.043-.977-.437-4.273-4.578-6.395-8.75-6.395-4.008 0-9.02 2.324-9.02 7.609v7.941c0 5.285 5.012 7.605 9.02 7.605 4.172 0 8.75-2.727 8.75-7.066zm19.176 1.851h-9.695v-16.461c0-.773-.367-.977-.977-.977h-3.332c-.605 0-.973.203-.973.977v20.195c0 .605.199.977.973.977h14.004c.773 0 .977-.371.977-.977v-2.758c0-.609-.203-.977-.977-.977zm23.65 3.77l-7.437-20.16c-.301-.707-.637-1.047-1.379-1.047h-3.23c-.742 0-1.113.34-1.379 1.047l-7.473 20.16c-.168.402-.168.941.57.941h3.535c.738 0 1.008-.203 1.277-1.008l.945-2.66h8.246l.941 2.66c.27.805.539 1.008 1.277 1.008h3.535c.742 0 .742-.539.57-.941zm-10.434-14.879l2.527 7.441h-5.051zm0 0"/><use xlink:href="#p"/><path d="M126.764 289.676h-3.332c-.605 0-.977.203-.977.977v7.609h-7.508v-7.609c0-.773-.336-.977-.977-.977h-3.332c-.605 0-.973.203-.973.977v20.195c0 .773.367.977.973.977h3.332c.641 0 .977-.203.977-.977v-7.605h7.508v7.605c0 .773.371.977.977.977h3.332c.605 0 .977-.203.977-.977v-20.195c0-.773-.371-.977-.977-.977zm0 0"/><use xlink:href="#q"/><path d="M178.973 289.676H164.5c-.773 0-.973.371-.973.977v20.195c0 .605.199.977.973.977h3.332c.777 0 .977-.133.977-1.008v-7.879h8.754c.773 0 .973-.367.973-.977v-2.656c0-.605-.199-.977-.973-.977h-8.754v-3.937h10.164c.777 0 .977-.371.977-.977v-2.762c0-.605-.199-.977-.977-.977zm0 0"/><use xlink:href="#q" x="51.069"/><path d="M223.144 289.676h-7.574c-.773 0-.973.371-.973.977v20.195c0 .773.367.977.973.977h3.332c.609 0 .977-.203.977-.977v-5.586h3.234c5.754 0 8.852-3.098 8.852-7.777 0-4.645-3.031-7.809-8.82-7.809zm-.031 11.043h-3.234v-6.297h3.234c2.625 0 3.77 1.414 3.77 3.164 0 1.684-1.145 3.133-3.77 3.133zm0 0"/><use xlink:href="#r"/><path d="M267.658 289.676h-3.23c-.605 0-.977.203-.977.977v11.68l-7.137-11.512c-.437-.672-.672-1.145-1.516-1.145h-3.164c-.773 0-.973.371-.973.977v20.195c0 .773.367.977.973.977h3.332c.609 0 .977-.203.977-.977v-11.711l7.137 11.543c.438.672.672 1.145 1.516 1.145h3.063c.773 0 .977-.371.977-.977v-20.195c0-.773-.371-.977-.977-.977zm0 0"/><use xlink:href="#r" x="37.882"/><use xlink:href="#q" x="146.715"/><path d="M327.239 289.676h-3.23c-.605 0-.977.203-.977.977v11.68l-7.137-11.512c-.438-.672-.672-1.145-1.516-1.145h-3.164c-.773 0-.973.371-.973.977v20.195c0 .773.367.977.973.977h3.332c.609 0 .977-.203.977-.977v-11.711l7.137 11.543c.438.672.672 1.145 1.516 1.145h3.063c.773 0 .977-.371.977-.977v-20.195c0-.773-.371-.977-.977-.977zm0 0"/><use xlink:href="#p" x="243.875"/><use xlink:href="#s"/><path d="M90.573 334.061h-2.5v-8.594h2.5c.875 0 1.566.074 2.078.219.52.148.938.383 1.25.703s.535.758.672 1.297c.145.543.219 1.234.219 2.078 0 1.492-.336 2.578-1 3.266s-1.742 1.031-3.219 1.031zm2.453-6.844c-.211-.238-.5-.41-.875-.516-.375-.113-.902-.172-1.578-.172h-1.328v6.438h1.328c1.133 0 1.922-.238 2.359-.719.445-.488.672-1.316.672-2.484 0-.656-.047-1.18-.141-1.578-.094-.406-.242-.727-.437-.969zm0 0"/><use xlink:href="#t"/><path d="M120.157 331.592c0 .875-.242 1.508-.719 1.891-.469.387-1.23.578-2.281.578h-3.172v-8.594h3.156c.945 0 1.617.164 2.016.484.406.324.609.871.609 1.641 0 .563-.102.996-.297 1.297-.187.293-.516.496-.984.609.551.074.969.289 1.25.641.281.344.422.828.422 1.453zm-1.469-3.828c0-.477-.117-.812-.344-1s-.625-.281-1.187-.281h-2v2.688h2c.539 0 .93-.109 1.172-.328s.359-.578.359-1.078zm.344 3.766c0-.508-.141-.863-.422-1.062-.281-.207-.766-.312-1.453-.312h-2v2.859h2c.688 0 1.172-.109 1.453-.328s.422-.602.422-1.156zm0 0"/><use xlink:href="#s" x="59.787"/><use xlink:href="#u"/><use xlink:href="#t" x="51.193"/><path d="M176.168 333.077c.363 0 .754-.039 1.172-.125a7.03 7.03 0 0 0 1.156-.359v1.047c-.5.199-.945.34-1.328.422a6.8 6.8 0 0 1-1.219.109c-1.312 0-2.242-.336-2.781-1.016-.531-.687-.797-1.82-.797-3.406 0-1.531.313-2.648.938-3.359s1.617-1.062 2.984-1.062l1.125.031.891.094v1.031l-.969-.062-1.047-.031c-1.023 0-1.734.258-2.141.766-.398.5-.594 1.367-.594 2.594 0 1.242.18 2.105.547 2.594s1.051.734 2.063.734zm0 0"/><use xlink:href="#v"/><path d="M207.272 325.467v8.594h-1.094v-6.766l-2.453 5.047h-1l-2.453-5.062v6.781h-1.094v-8.594h1.469l2.609 5.469 2.609-5.469zm8.369 5.813v2.781h-1.172v-8.594h2.922c1.219 0 2.086.219 2.609.656s.781 1.156.781 2.156c0 1.012-.277 1.766-.828 2.266-.543.492-1.383.734-2.516.734zm3.969-3c0-.633-.172-1.082-.516-1.344-.344-.27-.914-.406-1.703-.406h-1.75v3.719h1.75c.789 0 1.359-.148 1.703-.453.344-.312.516-.816.516-1.516zm0 0"/><use xlink:href="#t" x="125.806"/><use xlink:href="#u" x="99.498"/><path d="M253.461 325.467v8.594h-1.172v-8.594zm0 0"/><use xlink:href="#u" x="120.356"/><path d="M274.319 325.467v8.594h-1.172v-8.594zm0 0"/><use xlink:href="#v" x="96.444"/><path d="M302.654 325.467v8.594h-1.172l-4.766-6.687v6.688h-1.094v-8.594h1.188l4.75 6.781v-6.781zm0 0"/></g></svg>