<svg xmlns="http://www.w3.org/2000/svg" xmlns:xlink="http://www.w3.org/1999/xlink" width="500" zoomAndPan="magnify" viewBox="0 0 375 374.999991" height="500" preserveAspectRatio="xMidYMid meet" version="1.0"><defs><g/></defs><rect x="-37.5" width="450" fill="#ffffff" y="-37.499999" height="449.999989" fill-opacity="1"/><rect x="-37.5" width="450" fill="#000000" y="-37.499999" height="449.999989" fill-opacity="1"/><path fill="#ffffff" d="M 83.625 201.648438 C 117.722656 212.757812 125.699219 213.167969 161.941406 216.148438 L 164.1875 219.734375 C 130.261719 221.546875 100.027344 223.628906 83.59375 201.648438 Z M 209.066406 206.160156 L 209.652344 198.246094 L 212.464844 198.195312 C 212.355469 199.722656 212.0625 201.214844 211.578125 202.667969 C 210.464844 205.894531 210.1875 205.480469 209.066406 206.160156 Z M 195.617188 205.347656 L 194.855469 204.492188 C 194.628906 203.949219 194.507812 203.382812 194.492188 202.792969 C 194.347656 200.226562 195.617188 197.515625 196.328125 195.21875 Z M 196.9375 194.269531 L 196.636719 187.480469 L 199.449219 187.789062 C 198.542969 189.3125 196.6875 192.117188 196.9375 194.269531 Z M 209.992188 193.734375 L 209.703125 187.890625 C 220.71875 187.695312 228.953125 185.828125 238.90625 184.945312 C 240.113281 194.339844 218.121094 194.980469 209.992188 193.734375 Z M 136.300781 177.597656 C 136.199219 181.273438 137.179688 180.738281 140.507812 180.617188 C 157.480469 179.914062 172.371094 184.738281 188.34375 186.550781 C 185.671875 190.457031 186.601562 186.777344 181.859375 187.992188 C 177.324219 189.148438 179.089844 192.023438 174.316406 191.085938 C 155.253906 187.3125 153.191406 187.734375 134.34375 186.199219 C 130.707031 185.902344 127.191406 186.148438 126.410156 182.996094 C 125.625 179.84375 127.996094 176.628906 129.4375 175.257812 C 137.476562 167.683594 154.933594 171.785156 166.414062 173.742188 C 179.203125 175.917969 193.464844 178.429688 206.601562 179.050781 C 213.585938 179.414062 220.507812 178.90625 227.367188 177.523438 C 237.339844 175.464844 242.917969 171.515625 244.007812 171.339844 C 249.976562 170.382812 245.203125 179.152344 237.105469 180.914062 C 230.527344 182.265625 223.882812 183.113281 217.175781 183.449219 C 202.128906 184.253906 190.382812 182.933594 176.183594 180.359375 C 168.269531 178.9375 142.238281 173.742188 136.300781 177.574219 Z M 217.9375 153.636719 C 217.855469 153.542969 217.691406 153.246094 217.667969 153.339844 C 217.082031 155.171875 216.640625 142.960938 216.546875 142.355469 C 216.125 137.34375 215.339844 136.859375 213.453125 132.933594 L 219.75 133.070312 C 215.703125 140.644531 220.410156 149.929688 217.894531 153.679688 Z M 222.285156 143.796875 C 221.59375 131.800781 224.554688 132.460938 243.402344 132.675781 C 242.9375 132.851562 234.125 141.953125 222.285156 143.796875 Z M 147.855469 135.171875 C 141.351562 145.847656 145.410156 146.949219 143.164062 150.90625 C 138.1875 141.519531 151.152344 137.367188 140.742188 129.78125 L 140.433594 124.96875 L 149.585938 128.976562 C 148.429688 131.996094 149.214844 132.957031 147.855469 135.160156 Z M 129.304688 117.25 C 136.042969 115.449219 140.710938 115.613281 147.523438 112.832031 C 156.941406 108.996094 162.664062 102.011719 183.683594 106.183594 C 191.578125 107.75 195.019531 108.246094 194.9375 117.21875 C 194.9375 128.804688 172.863281 129.78125 162.703125 128.339844 C 156.679688 127.464844 150.933594 125.679688 145.472656 122.992188 C 142.835938 121.671875 141.167969 119.980469 138.148438 119.003906 C 135.4375 118.128906 131.574219 118.425781 129.304688 117.25 Z M 198.347656 111.582031 C 208.652344 108.296875 217.144531 106.019531 229.261719 106.429688 C 238.742188 106.699219 252.542969 108.707031 252.757812 118.496094 C 252.902344 124.804688 250.046875 127.09375 244.605469 128.214844 C 239.546875 129.246094 233.324219 129 227.996094 129 C 218.207031 129 204.4375 130.316406 197.863281 124.164062 C 197.863281 119.011719 199.789062 123.484375 198.359375 111.636719 Z M 190.105469 93.242188 C 207.777344 89.707031 235.816406 86.902344 246.050781 105.039062 C 234.445312 100.917969 219.988281 101.949219 207.726562 104.503906 C 204.777344 105.121094 198.820312 107.460938 196.84375 107.511719 C 196.132812 97.269531 192.421875 99.1875 186.539062 94.558594 Z M 192.101562 104.0625 C 178.707031 100.96875 168.609375 98.910156 155.203125 104.144531 C 149.398438 106.390625 147.410156 108.800781 140.527344 110.851562 C 134.273438 112.707031 126.8125 111.738281 124.171875 116.570312 C 124.730469 123.332031 130.738281 120.746094 134.933594 122.867188 C 136.671875 125.453125 136.300781 126.535156 136.519531 129.800781 C 136.785156 133.925781 137.847656 133.121094 140.640625 134.808594 C 140.640625 139.621094 133.984375 150.660156 141.847656 155.082031 C 149.535156 157.417969 145.96875 144.136719 151.027344 137.6875 C 153.523438 134.511719 152.152344 135.203125 153.347656 132.53125 C 155.203125 128.328125 165.824219 136.902344 186.683594 130.597656 C 189.660156 129.699219 193.691406 127.277344 194.925781 127.03125 C 199.046875 140.003906 155.34375 135.4375 154.582031 136.304688 C 150.390625 140.992188 172.027344 140.839844 175.757812 141.128906 C 172.234375 144.796875 160.839844 146.527344 164.371094 150.042969 C 169.464844 152.730469 195.410156 135.078125 199.347656 130.070312 C 205.210938 132.191406 211.917969 130.410156 212.589844 144.691406 C 208.582031 144.527344 203.128906 142.765625 200.222656 143.457031 L 212.785156 148.792969 C 213.042969 153.441406 213.167969 157.957031 217.9375 157.863281 C 222.925781 157.769531 222.945312 152.441406 222.675781 147.804688 L 232.085938 145.363281 C 234.148438 149.042969 242.679688 153.484375 242.234375 167.292969 C 221.453125 183.140625 175.863281 169.828125 149.8125 167.292969 C 140.539062 166.375 133.714844 166.558594 127.585938 171.414062 C 122.804688 175.238281 118.527344 185.789062 126.707031 188.929688 C 136.847656 192.898438 162.199219 189.839844 174.277344 195.402344 L 171.082031 203.761719 C 169.496094 201.566406 167.03125 196.660156 162.722656 198.949219 C 158.726562 201.007812 160.816406 208.007812 161.117188 211.839844 C 134.015625 211.355469 85.890625 207.890625 76.792969 187.890625 C 67.742188 168.136719 80.605469 118.847656 99 109.820312 C 98.925781 113.726562 97.464844 117.703125 99.121094 120.804688 L 101.585938 120.898438 C 102.71875 118.785156 103.636719 85.214844 128.480469 72.414062 C 148.78125 61.894531 173.265625 67.4375 178.253906 87.582031 C 167.339844 82.429688 160.527344 78.226562 145.503906 82.503906 C 140.453125 83.964844 135.769531 86.199219 131.460938 89.210938 C 130.273438 90.027344 125.996094 92.417969 128.027344 94.558594 C 130.058594 96.703125 131.117188 94.25 134.789062 91.910156 C 143.949219 86.121094 155.5625 82.699219 167.761719 86.902344 C 173.769531 88.964844 176.675781 91.652344 180.675781 94.765625 C 182.34375 96.074219 184.394531 98.371094 186.167969 99.308594 C 189.546875 101.113281 191.011719 100.792969 192.15625 104.0625 Z M 177.832031 76.960938 C 180.777344 73.753906 217.515625 57.152344 226.027344 87.675781 C 208.210938 85.613281 199.925781 87.550781 183.292969 90.511719 C 182.519531 84.699219 179.859375 81.113281 177.832031 76.960938 Z M 136.324219 224.433594 C 142.382812 224.699219 148.359375 224.691406 154.4375 224.433594 C 177.5 224.628906 179.375 234.859375 179.171875 255.417969 C 179.367188 258.777344 182.261719 259.902344 183.632812 253.59375 C 182.902344 244.050781 183.632812 232.035156 174.59375 227.140625 C 177.851562 228.050781 179.746094 229.492188 182.488281 227.761719 C 182.707031 223.773438 180.097656 224.75 176.554688 223.339844 C 166.90625 219.527344 163.898438 213.210938 164.371094 202.625 C 169.9375 205.585938 168.050781 214.261719 173.964844 214.035156 C 175.109375 211.859375 174.875 204.976562 176.378906 200.824219 C 177.574219 197.527344 179.851562 192.722656 182.992188 192.300781 C 181.964844 195.394531 177.945312 210.417969 184.734375 207.347656 C 186.199219 205.957031 183.117188 193.640625 192.546875 189.074219 C 193.667969 197.671875 186.023438 202.472656 193.867188 210.882812 C 204.171875 210.664062 196.398438 192.035156 205.128906 188.589844 C 207.25 193.570312 203.996094 209.46875 203.953125 212.292969 C 203.902344 215.488281 203.261719 213.808594 205.066406 215.199219 C 207.128906 216.859375 207.324219 214.703125 208.003906 212.984375 C 209.34375 209.582031 208.539062 211.777344 211.589844 209.675781 C 214.960938 207.355469 214.835938 203.996094 216.617188 200.824219 C 220.523438 213.589844 219.988281 215.25 209.878906 221.175781 C 198.378906 227.84375 192.917969 225.296875 192.742188 228.65625 C 192.566406 232.015625 196.699219 230.460938 199.214844 230.097656 C 193.957031 237.46875 194.578125 255.386719 196.792969 256.46875 C 197.574219 256.765625 198.378906 256.890625 199.214844 256.839844 C 200.699219 254.222656 193.792969 238.941406 203.6875 228.820312 L 211.054688 225.359375 C 219.234375 233.316406 227.324219 241.457031 235.445312 249.96875 C 234.671875 252.730469 233.105469 254.089844 234.476562 256.644531 C 238.597656 257.304688 240.144531 251.246094 239.988281 247.875 C 236.382812 245.503906 216.84375 226.140625 214.597656 222.8125 C 218.019531 221.546875 222.214844 217.445312 222.945312 212.808594 C 223.675781 208.171875 221.308594 202.019531 220.039062 198.03125 C 225.5625 197.496094 231.519531 197.257812 236.207031 195.320312 C 241.679688 193.023438 242.628906 189.664062 243.164062 182.839844 C 258.1875 173.277344 246.535156 167.382812 246.347656 166.941406 C 246.140625 160.757812 245.410156 158.007812 243 153.171875 C 240.585938 148.339844 238.578125 147.09375 235.652344 143.691406 C 236.546875 142.765625 242.09375 139.457031 248.417969 133.316406 L 254.40625 127.359375 C 257.496094 123.558594 258.230469 115.304688 253.46875 109.996094 C 251.292969 107.554688 251.003906 105.308594 249.296875 102.214844 C 242.503906 89.851562 231.929688 92.273438 229.902344 86.410156 C 222.140625 63.769531 203.59375 61.480469 183.046875 69.703125 C 180.128906 70.878906 177.160156 72.609375 174.347656 73.300781 C 163.746094 59.058594 120.761719 54.320312 103.335938 96.320312 C 98.503906 107.90625 102.523438 103.535156 96.527344 106.460938 C 78.253906 115.324219 67.507812 157.378906 69.886719 177.101562 C 70.484375 181.964844 71.351562 186.191406 73.351562 190.066406 C 87.878906 218.105469 99.597656 222.835938 136.324219 224.433594 Z M 136.324219 224.433594 " fill-opacity="1" fill-rule="evenodd"/><path fill="#ffffff" d="M 273.808594 182.234375 C 265.308594 179.914062 267 165.210938 258.960938 166.292969 C 253.972656 166.972656 253.808594 171.308594 255.539062 175.8125 C 260.371094 188.332031 261.722656 187.035156 251.800781 191.269531 C 232.777344 199.402344 240.84375 209.820312 245.667969 231.832031 C 246.398438 235.078125 246.839844 238.367188 246.996094 241.691406 C 247.378906 250.484375 244.679688 251.027344 249.902344 251.171875 C 256.085938 241.601562 238.90625 213.445312 243.71875 202.058594 C 246.347656 195.878906 256.488281 195.082031 261.082031 191.125 C 268.472656 184.777344 255.992188 174.464844 259.199219 170.414062 C 262.03125 170.660156 263.445312 177.472656 265.132812 180.078125 C 270.089844 187.726562 281.394531 192.023438 276.46875 173.101562 C 275.4375 169.640625 273.027344 163.726562 273.738281 160.375 C 275.851562 152.402344 283.011719 174.082031 283.15625 174.597656 C 284.085938 177.597656 284.042969 179.59375 287.382812 178.492188 C 288.949219 175.917969 286.011719 170.414062 284.960938 167.15625 C 284.445312 165.550781 280.300781 156.851562 280.984375 156.171875 C 286.992188 149.988281 291.289062 167.910156 292.246094 171.816406 C 293.203125 175.722656 292.441406 177.832031 296.460938 177.410156 C 299.222656 172.207031 291.710938 164.015625 294.511719 158.53125 C 298.097656 154.90625 303.230469 169.1875 302.539062 174.183594 C 301.511719 181.273438 296.359375 188.066406 290.113281 194.332031 C 283.332031 201.03125 273.933594 204.132812 269.503906 212.242188 C 269.195312 216.796875 263.597656 253.234375 271.480469 250.769531 C 272.996094 249.554688 271.222656 244.175781 270.894531 242.710938 C 268.585938 227.792969 271.605469 220.433594 271.605469 212.902344 C 278.5 204.933594 288.925781 200.421875 296.335938 193.652344 C 300.757812 188.304688 305.765625 181.667969 306.640625 174.382812 C 307.519531 167.09375 304.46875 164.273438 302.367188 159.191406 C 301.335938 156.761719 301.242188 154.410156 298.242188 153.800781 C 295.246094 153.195312 292.214844 154.535156 291.164062 155.863281 C 283.835938 146.289062 277.292969 153.988281 276.085938 154.542969 C 273.441406 155.707031 272.160156 155.328125 270.523438 157.234375 C 266.863281 161.519531 273.675781 174.515625 273.78125 182.214844 Z M 273.808594 182.234375 " fill-opacity="1" fill-rule="evenodd"/><g fill="#ffffff" fill-opacity="1"><g transform="translate(67.306231, 305.958521)"><g><path d="M 37.34375 -17.871094 C 37.292969 -22.226562 36.742188 -27.53125 33.238281 -30.585938 C 29.382812 -33.988281 25.628906 -32.1875 22.726562 -28.734375 C 22.625 -28.933594 22.476562 -29.132812 22.375 -29.285156 C 19.671875 -33.4375 13.964844 -33.1875 10.664062 -29.933594 C 7.109375 -26.480469 5.304688 -20.722656 4.253906 -16.019531 C 3.152344 -10.863281 2.804688 -5.554688 2.503906 -0.351562 C 2.203125 4.503906 9.710938 4.457031 10.011719 -0.351562 C 10.363281 -6.65625 10.761719 -13.066406 12.914062 -19.023438 C 13.414062 -20.375 13.964844 -21.675781 14.71875 -22.875 C 14.96875 -23.277344 15.617188 -24.628906 16.21875 -24.777344 C 16.21875 -24.828125 16.269531 -24.828125 16.269531 -24.828125 C 16.269531 -24.777344 16.269531 -24.679688 16.367188 -24.578125 C 16.96875 -23.777344 16.769531 -21.425781 16.820312 -20.472656 C 16.871094 -18.671875 16.769531 -16.871094 16.570312 -15.015625 C 16.167969 -10.863281 23.277344 -9.863281 23.976562 -14.066406 C 24.378906 -16.71875 25.230469 -19.222656 26.679688 -21.523438 C 27.179688 -22.277344 28.28125 -23.175781 28.933594 -23.976562 C 29.035156 -23.175781 29.433594 -22.375 29.535156 -21.625 C 30.734375 -14.96875 29.433594 -7.609375 28.78125 -1 C 28.28125 3.804688 35.792969 3.804688 36.292969 -1 C 36.84375 -6.558594 37.441406 -12.214844 37.34375 -17.871094 Z M 37.34375 -17.871094 "/></g></g></g><g fill="#ffffff" fill-opacity="1"><g transform="translate(107.202295, 305.958521)"><g><path d="M 20.875 -10.613281 C 17.421875 -10.761719 13.964844 -10.613281 10.5625 -10.3125 C 10.8125 -12.214844 11.113281 -14.117188 11.363281 -16.019531 C 13.066406 -16.019531 14.765625 -15.96875 16.46875 -15.769531 C 18.519531 -15.566406 20.222656 -17.621094 20.222656 -19.523438 C 20.222656 -21.726562 18.519531 -23.078125 16.46875 -23.277344 C 15.167969 -23.425781 13.867188 -23.476562 12.515625 -23.527344 C 12.816406 -25.429688 13.164062 -27.382812 13.464844 -29.332031 C 16.019531 -29.332031 18.519531 -29.234375 21.074219 -29.082031 C 25.878906 -28.734375 25.878906 -36.242188 21.074219 -36.59375 C 17.46875 -36.84375 13.816406 -36.890625 10.210938 -36.742188 C 8.808594 -36.742188 7.808594 -36.042969 7.207031 -35.089844 C 6.957031 -34.691406 6.757812 -34.1875 6.65625 -33.640625 C 5.003906 -24.429688 3.652344 -15.21875 2.503906 -6.007812 C 2.152344 -3.304688 5.15625 -2.050781 7.257812 -2.351562 C 11.761719 -3.105469 16.320312 -3.304688 20.875 -3.105469 C 25.679688 -2.902344 25.679688 -10.410156 20.875 -10.613281 Z M 20.875 -10.613281 "/></g></g></g><g fill="#ffffff" fill-opacity="1"><g transform="translate(134.383685, 305.958521)"><g><path d="M 37.34375 -17.871094 C 37.292969 -22.226562 36.742188 -27.53125 33.238281 -30.585938 C 29.382812 -33.988281 25.628906 -32.1875 22.726562 -28.734375 C 22.625 -28.933594 22.476562 -29.132812 22.375 -29.285156 C 19.671875 -33.4375 13.964844 -33.1875 10.664062 -29.933594 C 7.109375 -26.480469 5.304688 -20.722656 4.253906 -16.019531 C 3.152344 -10.863281 2.804688 -5.554688 2.503906 -0.351562 C 2.203125 4.503906 9.710938 4.457031 10.011719 -0.351562 C 10.363281 -6.65625 10.761719 -13.066406 12.914062 -19.023438 C 13.414062 -20.375 13.964844 -21.675781 14.71875 -22.875 C 14.96875 -23.277344 15.617188 -24.628906 16.21875 -24.777344 C 16.21875 -24.828125 16.269531 -24.828125 16.269531 -24.828125 C 16.269531 -24.777344 16.269531 -24.679688 16.367188 -24.578125 C 16.96875 -23.777344 16.769531 -21.425781 16.820312 -20.472656 C 16.871094 -18.671875 16.769531 -16.871094 16.570312 -15.015625 C 16.167969 -10.863281 23.277344 -9.863281 23.976562 -14.066406 C 24.378906 -16.71875 25.230469 -19.222656 26.679688 -21.523438 C 27.179688 -22.277344 28.28125 -23.175781 28.933594 -23.976562 C 29.035156 -23.175781 29.433594 -22.375 29.535156 -21.625 C 30.734375 -14.96875 29.433594 -7.609375 28.78125 -1 C 28.28125 3.804688 35.792969 3.804688 36.292969 -1 C 36.84375 -6.558594 37.441406 -12.214844 37.34375 -17.871094 Z M 37.34375 -17.871094 "/></g></g></g><g fill="#ffffff" fill-opacity="1"><g transform="translate(174.279748, 305.958521)"><g><path d="M 20.875 -10.613281 C 17.421875 -10.761719 13.964844 -10.613281 10.5625 -10.3125 C 10.8125 -12.214844 11.113281 -14.117188 11.363281 -16.019531 C 13.066406 -16.019531 14.765625 -15.96875 16.46875 -15.769531 C 18.519531 -15.566406 20.222656 -17.621094 20.222656 -19.523438 C 20.222656 -21.726562 18.519531 -23.078125 16.46875 -23.277344 C 15.167969 -23.425781 13.867188 -23.476562 12.515625 -23.527344 C 12.816406 -25.429688 13.164062 -27.382812 13.464844 -29.332031 C 16.019531 -29.332031 18.519531 -29.234375 21.074219 -29.082031 C 25.878906 -28.734375 25.878906 -36.242188 21.074219 -36.59375 C 17.46875 -36.84375 13.816406 -36.890625 10.210938 -36.742188 C 8.808594 -36.742188 7.808594 -36.042969 7.207031 -35.089844 C 6.957031 -34.691406 6.757812 -34.1875 6.65625 -33.640625 C 5.003906 -24.429688 3.652344 -15.21875 2.503906 -6.007812 C 2.152344 -3.304688 5.15625 -2.050781 7.257812 -2.351562 C 11.761719 -3.105469 16.320312 -3.304688 20.875 -3.105469 C 25.679688 -2.902344 25.679688 -10.410156 20.875 -10.613281 Z M 20.875 -10.613281 "/></g></g></g><g fill="#ffffff" fill-opacity="1"><g transform="translate(201.461138, 305.958521)"><g><path d="M 22.074219 -21.023438 C 16.71875 -21.125 11.414062 -21.273438 6.105469 -21.375 C 1.25 -21.476562 1.25 -13.964844 6.105469 -13.867188 C 11.414062 -13.765625 16.71875 -13.617188 22.074219 -13.515625 C 26.882812 -13.414062 26.882812 -20.925781 22.074219 -21.023438 Z M 22.074219 -21.023438 "/></g></g></g><g fill="#ffffff" fill-opacity="1"><g transform="translate(229.643674, 305.958521)"><g><path d="M 22.023438 -12.464844 C 18.121094 -12.164062 14.265625 -11.613281 10.460938 -10.8125 C 11.113281 -16.96875 11.714844 -23.125 12.3125 -29.285156 C 12.765625 -34.089844 5.257812 -34.089844 4.804688 -29.285156 C 4.054688 -21.476562 3.253906 -13.664062 2.503906 -5.855469 C 2.253906 -3.402344 5.105469 -1.652344 7.257812 -2.253906 C 12.113281 -3.652344 17.019531 -4.554688 22.023438 -4.957031 C 26.832031 -5.304688 26.882812 -12.816406 22.023438 -12.464844 Z M 22.023438 -12.464844 "/></g></g></g><g fill="#ffffff" fill-opacity="1"><g transform="translate(257.826209, 305.958521)"><g><path d="M 4.753906 -30.835938 C 3.753906 -21.824219 3.003906 -12.765625 2.503906 -3.703125 C 2.203125 1.152344 9.710938 1.101562 10.011719 -3.703125 C 10.511719 -12.765625 11.261719 -21.824219 12.265625 -30.835938 C 12.765625 -35.640625 5.257812 -35.640625 4.753906 -30.835938 Z M 4.753906 -30.835938 "/></g></g></g><g fill="#ffffff" fill-opacity="1"><g transform="translate(272.643313, 305.958521)"><g><path d="M 22.777344 -34.441406 C 17.21875 -35.140625 11.664062 -35.242188 6.058594 -34.691406 C 1.300781 -34.1875 1.25 -26.679688 6.058594 -27.179688 C 7.558594 -27.332031 9.011719 -27.429688 10.460938 -27.480469 C 10.011719 -20.171875 9.609375 -12.816406 9.160156 -5.507812 C 8.859375 -0.699219 16.367188 -0.699219 16.667969 -5.507812 C 17.121094 -12.816406 17.519531 -20.074219 17.972656 -27.382812 C 19.574219 -27.28125 21.175781 -27.132812 22.777344 -26.929688 C 27.582031 -26.332031 27.53125 -33.839844 22.777344 -34.441406 Z M 22.777344 -34.441406 "/></g></g></g><g fill="#ffffff" fill-opacity="1"><g transform="translate(69.79803, 326.167829)"><g><path d="M 3.65625 0 C 3.550781 0 3.460938 -0.03125 3.390625 -0.09375 C 3.328125 -0.164062 3.296875 -0.253906 3.296875 -0.359375 L 3.296875 -8.09375 L 0.671875 -8.09375 C 0.566406 -8.09375 0.476562 -8.125 0.40625 -8.1875 C 0.34375 -8.257812 0.3125 -8.347656 0.3125 -8.453125 L 0.3125 -9.75 C 0.3125 -9.863281 0.34375 -9.953125 0.40625 -10.015625 C 0.476562 -10.085938 0.566406 -10.125 0.671875 -10.125 L 8.234375 -10.125 C 8.335938 -10.125 8.421875 -10.085938 8.484375 -10.015625 C 8.554688 -9.953125 8.59375 -9.863281 8.59375 -9.75 L 8.59375 -8.453125 C 8.59375 -8.347656 8.554688 -8.257812 8.484375 -8.1875 C 8.421875 -8.125 8.335938 -8.09375 8.234375 -8.09375 L 5.625 -8.09375 L 5.625 -0.359375 C 5.625 -0.253906 5.585938 -0.164062 5.515625 -0.09375 C 5.453125 -0.03125 5.367188 0 5.265625 0 Z M 3.65625 0 "/></g></g></g><g fill="#ffffff" fill-opacity="1"><g transform="translate(81.605206, 326.167829)"><g><path d="M 1.421875 0 C 1.316406 0 1.226562 -0.03125 1.15625 -0.09375 C 1.09375 -0.164062 1.0625 -0.253906 1.0625 -0.359375 L 1.0625 -9.75 C 1.0625 -9.863281 1.09375 -9.953125 1.15625 -10.015625 C 1.226562 -10.085938 1.316406 -10.125 1.421875 -10.125 L 3 -10.125 C 3.113281 -10.125 3.203125 -10.085938 3.265625 -10.015625 C 3.335938 -9.953125 3.375 -9.863281 3.375 -9.75 L 3.375 -6.140625 L 7.28125 -6.140625 L 7.28125 -9.75 C 7.28125 -9.863281 7.3125 -9.953125 7.375 -10.015625 C 7.445312 -10.085938 7.53125 -10.125 7.625 -10.125 L 9.21875 -10.125 C 9.320312 -10.125 9.40625 -10.085938 9.46875 -10.015625 C 9.539062 -9.953125 9.578125 -9.863281 9.578125 -9.75 L 9.578125 -0.359375 C 9.578125 -0.253906 9.539062 -0.164062 9.46875 -0.09375 C 9.40625 -0.03125 9.320312 0 9.21875 0 L 7.625 0 C 7.53125 0 7.445312 -0.03125 7.375 -0.09375 C 7.3125 -0.164062 7.28125 -0.253906 7.28125 -0.359375 L 7.28125 -4.09375 L 3.375 -4.09375 L 3.375 -0.359375 C 3.375 -0.253906 3.335938 -0.164062 3.265625 -0.09375 C 3.203125 -0.03125 3.113281 0 3 0 Z M 1.421875 0 "/></g></g></g><g fill="#ffffff" fill-opacity="1"><g transform="translate(95.146301, 326.167829)"><g><path d="M 1.421875 0 C 1.316406 0 1.226562 -0.03125 1.15625 -0.09375 C 1.09375 -0.164062 1.0625 -0.253906 1.0625 -0.359375 L 1.0625 -9.75 C 1.0625 -9.863281 1.09375 -9.953125 1.15625 -10.015625 C 1.226562 -10.085938 1.316406 -10.125 1.421875 -10.125 L 7.984375 -10.125 C 8.085938 -10.125 8.171875 -10.085938 8.234375 -10.015625 C 8.304688 -9.953125 8.34375 -9.863281 8.34375 -9.75 L 8.34375 -8.59375 C 8.34375 -8.488281 8.304688 -8.398438 8.234375 -8.328125 C 8.171875 -8.265625 8.085938 -8.234375 7.984375 -8.234375 L 3.296875 -8.234375 L 3.296875 -5.984375 L 7.65625 -5.984375 C 7.757812 -5.984375 7.84375 -5.945312 7.90625 -5.875 C 7.976562 -5.8125 8.015625 -5.726562 8.015625 -5.625 L 8.015625 -4.546875 C 8.015625 -4.453125 7.976562 -4.367188 7.90625 -4.296875 C 7.84375 -4.222656 7.757812 -4.1875 7.65625 -4.1875 L 3.296875 -4.1875 L 3.296875 -1.875 L 8.09375 -1.875 C 8.195312 -1.875 8.28125 -1.835938 8.34375 -1.765625 C 8.414062 -1.703125 8.453125 -1.617188 8.453125 -1.515625 L 8.453125 -0.359375 C 8.453125 -0.253906 8.414062 -0.164062 8.34375 -0.09375 C 8.28125 -0.03125 8.195312 0 8.09375 0 Z M 1.421875 0 "/></g></g></g><g fill="#ffffff" fill-opacity="1"><g transform="translate(107.155773, 326.167829)"><g/></g></g><g fill="#ffffff" fill-opacity="1"><g transform="translate(113.241051, 326.167829)"><g><path d="M 1.4375 0 C 1.320312 0 1.226562 -0.03125 1.15625 -0.09375 C 1.09375 -0.164062 1.0625 -0.253906 1.0625 -0.359375 L 1.0625 -9.75 C 1.0625 -9.863281 1.09375 -9.953125 1.15625 -10.015625 C 1.226562 -10.085938 1.320312 -10.125 1.4375 -10.125 L 2.796875 -10.125 C 2.929688 -10.125 3.035156 -10.082031 3.109375 -10 C 3.179688 -9.925781 3.226562 -9.867188 3.25 -9.828125 L 5.921875 -4.9375 L 8.59375 -9.828125 C 8.613281 -9.867188 8.660156 -9.925781 8.734375 -10 C 8.804688 -10.082031 8.914062 -10.125 9.0625 -10.125 L 10.40625 -10.125 C 10.507812 -10.125 10.59375 -10.085938 10.65625 -10.015625 C 10.726562 -9.953125 10.765625 -9.863281 10.765625 -9.75 L 10.765625 -0.359375 C 10.765625 -0.253906 10.726562 -0.164062 10.65625 -0.09375 C 10.59375 -0.03125 10.507812 0 10.40625 0 L 8.9375 0 C 8.832031 0 8.742188 -0.03125 8.671875 -0.09375 C 8.609375 -0.164062 8.578125 -0.253906 8.578125 -0.359375 L 8.578125 -6.1875 L 6.75 -2.765625 C 6.707031 -2.671875 6.644531 -2.585938 6.5625 -2.515625 C 6.488281 -2.453125 6.390625 -2.421875 6.265625 -2.421875 L 5.578125 -2.421875 C 5.453125 -2.421875 5.347656 -2.453125 5.265625 -2.515625 C 5.191406 -2.585938 5.132812 -2.671875 5.09375 -2.765625 L 3.265625 -6.1875 L 3.265625 -0.359375 C 3.265625 -0.253906 3.226562 -0.164062 3.15625 -0.09375 C 3.09375 -0.03125 3.007812 0 2.90625 0 Z M 1.4375 0 "/></g></g></g><g fill="#ffffff" fill-opacity="1"><g transform="translate(127.966972, 326.167829)"><g><path d="M 1.421875 0 C 1.316406 0 1.226562 -0.03125 1.15625 -0.09375 C 1.09375 -0.164062 1.0625 -0.253906 1.0625 -0.359375 L 1.0625 -9.75 C 1.0625 -9.863281 1.09375 -9.953125 1.15625 -10.015625 C 1.226562 -10.085938 1.316406 -10.125 1.421875 -10.125 L 7.984375 -10.125 C 8.085938 -10.125 8.171875 -10.085938 8.234375 -10.015625 C 8.304688 -9.953125 8.34375 -9.863281 8.34375 -9.75 L 8.34375 -8.59375 C 8.34375 -8.488281 8.304688 -8.398438 8.234375 -8.328125 C 8.171875 -8.265625 8.085938 -8.234375 7.984375 -8.234375 L 3.296875 -8.234375 L 3.296875 -5.984375 L 7.65625 -5.984375 C 7.757812 -5.984375 7.84375 -5.945312 7.90625 -5.875 C 7.976562 -5.8125 8.015625 -5.726562 8.015625 -5.625 L 8.015625 -4.546875 C 8.015625 -4.453125 7.976562 -4.367188 7.90625 -4.296875 C 7.84375 -4.222656 7.757812 -4.1875 7.65625 -4.1875 L 3.296875 -4.1875 L 3.296875 -1.875 L 8.09375 -1.875 C 8.195312 -1.875 8.28125 -1.835938 8.34375 -1.765625 C 8.414062 -1.703125 8.453125 -1.617188 8.453125 -1.515625 L 8.453125 -0.359375 C 8.453125 -0.253906 8.414062 -0.164062 8.34375 -0.09375 C 8.28125 -0.03125 8.195312 0 8.09375 0 Z M 1.421875 0 "/></g></g></g><g fill="#ffffff" fill-opacity="1"><g transform="translate(139.976447, 326.167829)"><g><path d="M 1.4375 0 C 1.320312 0 1.226562 -0.03125 1.15625 -0.09375 C 1.09375 -0.164062 1.0625 -0.253906 1.0625 -0.359375 L 1.0625 -9.75 C 1.0625 -9.863281 1.09375 -9.953125 1.15625 -10.015625 C 1.226562 -10.085938 1.320312 -10.125 1.4375 -10.125 L 2.796875 -10.125 C 2.929688 -10.125 3.035156 -10.082031 3.109375 -10 C 3.179688 -9.925781 3.226562 -9.867188 3.25 -9.828125 L 5.921875 -4.9375 L 8.59375 -9.828125 C 8.613281 -9.867188 8.660156 -9.925781 8.734375 -10 C 8.804688 -10.082031 8.914062 -10.125 9.0625 -10.125 L 10.40625 -10.125 C 10.507812 -10.125 10.59375 -10.085938 10.65625 -10.015625 C 10.726562 -9.953125 10.765625 -9.863281 10.765625 -9.75 L 10.765625 -0.359375 C 10.765625 -0.253906 10.726562 -0.164062 10.65625 -0.09375 C 10.59375 -0.03125 10.507812 0 10.40625 0 L 8.9375 0 C 8.832031 0 8.742188 -0.03125 8.671875 -0.09375 C 8.609375 -0.164062 8.578125 -0.253906 8.578125 -0.359375 L 8.578125 -6.1875 L 6.75 -2.765625 C 6.707031 -2.671875 6.644531 -2.585938 6.5625 -2.515625 C 6.488281 -2.453125 6.390625 -2.421875 6.265625 -2.421875 L 5.578125 -2.421875 C 5.453125 -2.421875 5.347656 -2.453125 5.265625 -2.515625 C 5.191406 -2.585938 5.132812 -2.671875 5.09375 -2.765625 L 3.265625 -6.1875 L 3.265625 -0.359375 C 3.265625 -0.253906 3.226562 -0.164062 3.15625 -0.09375 C 3.09375 -0.03125 3.007812 0 2.90625 0 Z M 1.4375 0 "/></g></g></g><g fill="#ffffff" fill-opacity="1"><g transform="translate(154.702371, 326.167829)"><g><path d="M 1.421875 0 C 1.316406 0 1.226562 -0.03125 1.15625 -0.09375 C 1.09375 -0.164062 1.0625 -0.253906 1.0625 -0.359375 L 1.0625 -9.75 C 1.0625 -9.863281 1.09375 -9.953125 1.15625 -10.015625 C 1.226562 -10.085938 1.316406 -10.125 1.421875 -10.125 L 7.984375 -10.125 C 8.085938 -10.125 8.171875 -10.085938 8.234375 -10.015625 C 8.304688 -9.953125 8.34375 -9.863281 8.34375 -9.75 L 8.34375 -8.59375 C 8.34375 -8.488281 8.304688 -8.398438 8.234375 -8.328125 C 8.171875 -8.265625 8.085938 -8.234375 7.984375 -8.234375 L 3.296875 -8.234375 L 3.296875 -5.984375 L 7.65625 -5.984375 C 7.757812 -5.984375 7.84375 -5.945312 7.90625 -5.875 C 7.976562 -5.8125 8.015625 -5.726562 8.015625 -5.625 L 8.015625 -4.546875 C 8.015625 -4.453125 7.976562 -4.367188 7.90625 -4.296875 C 7.84375 -4.222656 7.757812 -4.1875 7.65625 -4.1875 L 3.296875 -4.1875 L 3.296875 -1.875 L 8.09375 -1.875 C 8.195312 -1.875 8.28125 -1.835938 8.34375 -1.765625 C 8.414062 -1.703125 8.453125 -1.617188 8.453125 -1.515625 L 8.453125 -0.359375 C 8.453125 -0.253906 8.414062 -0.164062 8.34375 -0.09375 C 8.28125 -0.03125 8.195312 0 8.09375 0 Z M 1.421875 0 "/></g></g></g><g fill="#ffffff" fill-opacity="1"><g transform="translate(166.711846, 326.167829)"><g/></g></g><g fill="#ffffff" fill-opacity="1"><g transform="translate(172.797127, 326.167829)"><g><path d="M 5.09375 0.140625 C 4.195312 0.140625 3.425781 -0.0078125 2.78125 -0.3125 C 2.144531 -0.613281 1.65625 -1.054688 1.3125 -1.640625 C 0.96875 -2.222656 0.773438 -2.929688 0.734375 -3.765625 C 0.722656 -4.160156 0.71875 -4.582031 0.71875 -5.03125 C 0.71875 -5.488281 0.722656 -5.925781 0.734375 -6.34375 C 0.773438 -7.175781 0.96875 -7.882812 1.3125 -8.46875 C 1.664062 -9.050781 2.160156 -9.492188 2.796875 -9.796875 C 3.441406 -10.109375 4.207031 -10.265625 5.09375 -10.265625 C 5.75 -10.265625 6.335938 -10.179688 6.859375 -10.015625 C 7.378906 -9.847656 7.832031 -9.609375 8.21875 -9.296875 C 8.601562 -8.992188 8.90625 -8.632812 9.125 -8.21875 C 9.34375 -7.8125 9.457031 -7.351562 9.46875 -6.84375 C 9.476562 -6.75 9.453125 -6.671875 9.390625 -6.609375 C 9.328125 -6.554688 9.25 -6.53125 9.15625 -6.53125 L 7.5 -6.53125 C 7.382812 -6.53125 7.289062 -6.554688 7.21875 -6.609375 C 7.15625 -6.660156 7.101562 -6.753906 7.0625 -6.890625 C 6.914062 -7.472656 6.675781 -7.867188 6.34375 -8.078125 C 6.007812 -8.285156 5.59375 -8.390625 5.09375 -8.390625 C 4.5 -8.390625 4.03125 -8.222656 3.6875 -7.890625 C 3.34375 -7.566406 3.15625 -7.023438 3.125 -6.265625 C 3.09375 -5.484375 3.09375 -4.675781 3.125 -3.84375 C 3.15625 -3.09375 3.34375 -2.550781 3.6875 -2.21875 C 4.03125 -1.894531 4.5 -1.734375 5.09375 -1.734375 C 5.59375 -1.734375 6.007812 -1.835938 6.34375 -2.046875 C 6.6875 -2.265625 6.925781 -2.65625 7.0625 -3.21875 C 7.101562 -3.351562 7.15625 -3.445312 7.21875 -3.5 C 7.289062 -3.550781 7.382812 -3.578125 7.5 -3.578125 L 9.15625 -3.578125 C 9.25 -3.578125 9.328125 -3.546875 9.390625 -3.484375 C 9.453125 -3.429688 9.476562 -3.363281 9.46875 -3.28125 C 9.457031 -2.769531 9.34375 -2.304688 9.125 -1.890625 C 8.90625 -1.472656 8.601562 -1.109375 8.21875 -0.796875 C 7.832031 -0.492188 7.378906 -0.257812 6.859375 -0.09375 C 6.335938 0.0625 5.75 0.140625 5.09375 0.140625 Z M 5.09375 0.140625 "/></g></g></g><g fill="#ffffff" fill-opacity="1"><g transform="translate(185.702445, 326.167829)"><g><path d="M 5.09375 0.140625 C 4.207031 0.140625 3.445312 0 2.8125 -0.28125 C 2.175781 -0.570312 1.679688 -1.007812 1.328125 -1.59375 C 0.972656 -2.175781 0.78125 -2.910156 0.75 -3.796875 C 0.738281 -4.210938 0.734375 -4.625 0.734375 -5.03125 C 0.734375 -5.445312 0.738281 -5.863281 0.75 -6.28125 C 0.78125 -7.15625 0.972656 -7.882812 1.328125 -8.46875 C 1.691406 -9.0625 2.191406 -9.507812 2.828125 -9.8125 C 3.472656 -10.113281 4.226562 -10.265625 5.09375 -10.265625 C 5.9375 -10.265625 6.675781 -10.113281 7.3125 -9.8125 C 7.957031 -9.507812 8.460938 -9.0625 8.828125 -8.46875 C 9.191406 -7.882812 9.390625 -7.15625 9.421875 -6.28125 C 9.441406 -5.863281 9.453125 -5.445312 9.453125 -5.03125 C 9.453125 -4.625 9.441406 -4.210938 9.421875 -3.796875 C 9.390625 -2.910156 9.191406 -2.175781 8.828125 -1.59375 C 8.472656 -1.007812 7.976562 -0.570312 7.34375 -0.28125 C 6.707031 0 5.957031 0.140625 5.09375 0.140625 Z M 5.09375 -1.734375 C 5.644531 -1.734375 6.101562 -1.898438 6.46875 -2.234375 C 6.832031 -2.578125 7.019531 -3.125 7.03125 -3.875 C 7.050781 -4.300781 7.0625 -4.695312 7.0625 -5.0625 C 7.0625 -5.4375 7.050781 -5.832031 7.03125 -6.25 C 7.03125 -6.75 6.941406 -7.15625 6.765625 -7.46875 C 6.585938 -7.789062 6.359375 -8.023438 6.078125 -8.171875 C 5.796875 -8.316406 5.46875 -8.390625 5.09375 -8.390625 C 4.71875 -8.390625 4.382812 -8.316406 4.09375 -8.171875 C 3.8125 -8.023438 3.582031 -7.789062 3.40625 -7.46875 C 3.238281 -7.15625 3.144531 -6.75 3.125 -6.25 C 3.113281 -5.832031 3.109375 -5.4375 3.109375 -5.0625 C 3.109375 -4.695312 3.113281 -4.300781 3.125 -3.875 C 3.15625 -3.125 3.347656 -2.578125 3.703125 -2.234375 C 4.054688 -1.898438 4.519531 -1.734375 5.09375 -1.734375 Z M 5.09375 -1.734375 "/></g></g></g><g fill="#ffffff" fill-opacity="1"><g transform="translate(198.752257, 326.167829)"><g><path d="M 1.4375 0 C 1.320312 0 1.226562 -0.03125 1.15625 -0.09375 C 1.09375 -0.164062 1.0625 -0.253906 1.0625 -0.359375 L 1.0625 -9.75 C 1.0625 -9.863281 1.09375 -9.953125 1.15625 -10.015625 C 1.226562 -10.085938 1.320312 -10.125 1.4375 -10.125 L 2.796875 -10.125 C 2.929688 -10.125 3.035156 -10.082031 3.109375 -10 C 3.179688 -9.925781 3.226562 -9.867188 3.25 -9.828125 L 5.921875 -4.9375 L 8.59375 -9.828125 C 8.613281 -9.867188 8.660156 -9.925781 8.734375 -10 C 8.804688 -10.082031 8.914062 -10.125 9.0625 -10.125 L 10.40625 -10.125 C 10.507812 -10.125 10.59375 -10.085938 10.65625 -10.015625 C 10.726562 -9.953125 10.765625 -9.863281 10.765625 -9.75 L 10.765625 -0.359375 C 10.765625 -0.253906 10.726562 -0.164062 10.65625 -0.09375 C 10.59375 -0.03125 10.507812 0 10.40625 0 L 8.9375 0 C 8.832031 0 8.742188 -0.03125 8.671875 -0.09375 C 8.609375 -0.164062 8.578125 -0.253906 8.578125 -0.359375 L 8.578125 -6.1875 L 6.75 -2.765625 C 6.707031 -2.671875 6.644531 -2.585938 6.5625 -2.515625 C 6.488281 -2.453125 6.390625 -2.421875 6.265625 -2.421875 L 5.578125 -2.421875 C 5.453125 -2.421875 5.347656 -2.453125 5.265625 -2.515625 C 5.191406 -2.585938 5.132812 -2.671875 5.09375 -2.765625 L 3.265625 -6.1875 L 3.265625 -0.359375 C 3.265625 -0.253906 3.226562 -0.164062 3.15625 -0.09375 C 3.09375 -0.03125 3.007812 0 2.90625 0 Z M 1.4375 0 "/></g></g></g><g fill="#ffffff" fill-opacity="1"><g transform="translate(213.478181, 326.167829)"><g><path d="M 1.421875 0 C 1.316406 0 1.226562 -0.03125 1.15625 -0.09375 C 1.09375 -0.164062 1.0625 -0.253906 1.0625 -0.359375 L 1.0625 -9.75 C 1.0625 -9.863281 1.09375 -9.953125 1.15625 -10.015625 C 1.226562 -10.085938 1.316406 -10.125 1.421875 -10.125 L 5.375 -10.125 C 6.15625 -10.125 6.832031 -10 7.40625 -9.75 C 7.988281 -9.507812 8.4375 -9.144531 8.75 -8.65625 C 9.070312 -8.175781 9.234375 -7.570312 9.234375 -6.84375 C 9.234375 -6.113281 9.070312 -5.507812 8.75 -5.03125 C 8.4375 -4.5625 7.988281 -4.207031 7.40625 -3.96875 C 6.832031 -3.738281 6.15625 -3.625 5.375 -3.625 L 3.4375 -3.625 L 3.4375 -0.359375 C 3.4375 -0.253906 3.398438 -0.164062 3.328125 -0.09375 C 3.265625 -0.03125 3.179688 0 3.078125 0 Z M 3.40625 -5.421875 L 5.296875 -5.421875 C 5.796875 -5.421875 6.175781 -5.539062 6.4375 -5.78125 C 6.707031 -6.019531 6.84375 -6.375 6.84375 -6.84375 C 6.84375 -7.28125 6.71875 -7.632812 6.46875 -7.90625 C 6.226562 -8.175781 5.835938 -8.3125 5.296875 -8.3125 L 3.40625 -8.3125 Z M 3.40625 -5.421875 "/></g></g></g><g fill="#ffffff" fill-opacity="1"><g transform="translate(226.022278, 326.167829)"><g><path d="M 1.421875 0 C 1.316406 0 1.226562 -0.03125 1.15625 -0.09375 C 1.09375 -0.164062 1.0625 -0.253906 1.0625 -0.359375 L 1.0625 -9.75 C 1.0625 -9.863281 1.09375 -9.953125 1.15625 -10.015625 C 1.226562 -10.085938 1.316406 -10.125 1.421875 -10.125 L 7.984375 -10.125 C 8.085938 -10.125 8.171875 -10.085938 8.234375 -10.015625 C 8.304688 -9.953125 8.34375 -9.863281 8.34375 -9.75 L 8.34375 -8.59375 C 8.34375 -8.488281 8.304688 -8.398438 8.234375 -8.328125 C 8.171875 -8.265625 8.085938 -8.234375 7.984375 -8.234375 L 3.296875 -8.234375 L 3.296875 -5.984375 L 7.65625 -5.984375 C 7.757812 -5.984375 7.84375 -5.945312 7.90625 -5.875 C 7.976562 -5.8125 8.015625 -5.726562 8.015625 -5.625 L 8.015625 -4.546875 C 8.015625 -4.453125 7.976562 -4.367188 7.90625 -4.296875 C 7.84375 -4.222656 7.757812 -4.1875 7.65625 -4.1875 L 3.296875 -4.1875 L 3.296875 -1.875 L 8.09375 -1.875 C 8.195312 -1.875 8.28125 -1.835938 8.34375 -1.765625 C 8.414062 -1.703125 8.453125 -1.617188 8.453125 -1.515625 L 8.453125 -0.359375 C 8.453125 -0.253906 8.414062 -0.164062 8.34375 -0.09375 C 8.28125 -0.03125 8.195312 0 8.09375 0 Z M 1.421875 0 "/></g></g></g><g fill="#ffffff" fill-opacity="1"><g transform="translate(238.031753, 326.167829)"><g><path d="M 3.65625 0 C 3.550781 0 3.460938 -0.03125 3.390625 -0.09375 C 3.328125 -0.164062 3.296875 -0.253906 3.296875 -0.359375 L 3.296875 -8.09375 L 0.671875 -8.09375 C 0.566406 -8.09375 0.476562 -8.125 0.40625 -8.1875 C 0.34375 -8.257812 0.3125 -8.347656 0.3125 -8.453125 L 0.3125 -9.75 C 0.3125 -9.863281 0.34375 -9.953125 0.40625 -10.015625 C 0.476562 -10.085938 0.566406 -10.125 0.671875 -10.125 L 8.234375 -10.125 C 8.335938 -10.125 8.421875 -10.085938 8.484375 -10.015625 C 8.554688 -9.953125 8.59375 -9.863281 8.59375 -9.75 L 8.59375 -8.453125 C 8.59375 -8.347656 8.554688 -8.257812 8.484375 -8.1875 C 8.421875 -8.125 8.335938 -8.09375 8.234375 -8.09375 L 5.625 -8.09375 L 5.625 -0.359375 C 5.625 -0.253906 5.585938 -0.164062 5.515625 -0.09375 C 5.453125 -0.03125 5.367188 0 5.265625 0 Z M 3.65625 0 "/></g></g></g><g fill="#ffffff" fill-opacity="1"><g transform="translate(249.838931, 326.167829)"><g><path d="M 1.421875 0 C 1.316406 0 1.226562 -0.03125 1.15625 -0.09375 C 1.09375 -0.164062 1.0625 -0.253906 1.0625 -0.359375 L 1.0625 -9.75 C 1.0625 -9.863281 1.09375 -9.953125 1.15625 -10.015625 C 1.226562 -10.085938 1.316406 -10.125 1.421875 -10.125 L 3.078125 -10.125 C 3.171875 -10.125 3.25 -10.085938 3.3125 -10.015625 C 3.382812 -9.953125 3.421875 -9.863281 3.421875 -9.75 L 3.421875 -0.359375 C 3.421875 -0.253906 3.382812 -0.164062 3.3125 -0.09375 C 3.25 -0.03125 3.171875 0 3.078125 0 Z M 1.421875 0 "/></g></g></g><g fill="#ffffff" fill-opacity="1"><g transform="translate(257.22465, 326.167829)"><g><path d="M 3.65625 0 C 3.550781 0 3.460938 -0.03125 3.390625 -0.09375 C 3.328125 -0.164062 3.296875 -0.253906 3.296875 -0.359375 L 3.296875 -8.09375 L 0.671875 -8.09375 C 0.566406 -8.09375 0.476562 -8.125 0.40625 -8.1875 C 0.34375 -8.257812 0.3125 -8.347656 0.3125 -8.453125 L 0.3125 -9.75 C 0.3125 -9.863281 0.34375 -9.953125 0.40625 -10.015625 C 0.476562 -10.085938 0.566406 -10.125 0.671875 -10.125 L 8.234375 -10.125 C 8.335938 -10.125 8.421875 -10.085938 8.484375 -10.015625 C 8.554688 -9.953125 8.59375 -9.863281 8.59375 -9.75 L 8.59375 -8.453125 C 8.59375 -8.347656 8.554688 -8.257812 8.484375 -8.1875 C 8.421875 -8.125 8.335938 -8.09375 8.234375 -8.09375 L 5.625 -8.09375 L 5.625 -0.359375 C 5.625 -0.253906 5.585938 -0.164062 5.515625 -0.09375 C 5.453125 -0.03125 5.367188 0 5.265625 0 Z M 3.65625 0 "/></g></g></g><g fill="#ffffff" fill-opacity="1"><g transform="translate(269.031828, 326.167829)"><g><path d="M 1.421875 0 C 1.316406 0 1.226562 -0.03125 1.15625 -0.09375 C 1.09375 -0.164062 1.0625 -0.253906 1.0625 -0.359375 L 1.0625 -9.75 C 1.0625 -9.863281 1.09375 -9.953125 1.15625 -10.015625 C 1.226562 -10.085938 1.316406 -10.125 1.421875 -10.125 L 3.078125 -10.125 C 3.171875 -10.125 3.25 -10.085938 3.3125 -10.015625 C 3.382812 -9.953125 3.421875 -9.863281 3.421875 -9.75 L 3.421875 -0.359375 C 3.421875 -0.253906 3.382812 -0.164062 3.3125 -0.09375 C 3.25 -0.03125 3.171875 0 3.078125 0 Z M 1.421875 0 "/></g></g></g><g fill="#ffffff" fill-opacity="1"><g transform="translate(276.417546, 326.167829)"><g><path d="M 5.09375 0.140625 C 4.207031 0.140625 3.445312 0 2.8125 -0.28125 C 2.175781 -0.570312 1.679688 -1.007812 1.328125 -1.59375 C 0.972656 -2.175781 0.78125 -2.910156 0.75 -3.796875 C 0.738281 -4.210938 0.734375 -4.625 0.734375 -5.03125 C 0.734375 -5.445312 0.738281 -5.863281 0.75 -6.28125 C 0.78125 -7.15625 0.972656 -7.882812 1.328125 -8.46875 C 1.691406 -9.0625 2.191406 -9.507812 2.828125 -9.8125 C 3.472656 -10.113281 4.226562 -10.265625 5.09375 -10.265625 C 5.9375 -10.265625 6.675781 -10.113281 7.3125 -9.8125 C 7.957031 -9.507812 8.460938 -9.0625 8.828125 -8.46875 C 9.191406 -7.882812 9.390625 -7.15625 9.421875 -6.28125 C 9.441406 -5.863281 9.453125 -5.445312 9.453125 -5.03125 C 9.453125 -4.625 9.441406 -4.210938 9.421875 -3.796875 C 9.390625 -2.910156 9.191406 -2.175781 8.828125 -1.59375 C 8.472656 -1.007812 7.976562 -0.570312 7.34375 -0.28125 C 6.707031 0 5.957031 0.140625 5.09375 0.140625 Z M 5.09375 -1.734375 C 5.644531 -1.734375 6.101562 -1.898438 6.46875 -2.234375 C 6.832031 -2.578125 7.019531 -3.125 7.03125 -3.875 C 7.050781 -4.300781 7.0625 -4.695312 7.0625 -5.0625 C 7.0625 -5.4375 7.050781 -5.832031 7.03125 -6.25 C 7.03125 -6.75 6.941406 -7.15625 6.765625 -7.46875 C 6.585938 -7.789062 6.359375 -8.023438 6.078125 -8.171875 C 5.796875 -8.316406 5.46875 -8.390625 5.09375 -8.390625 C 4.71875 -8.390625 4.382812 -8.316406 4.09375 -8.171875 C 3.8125 -8.023438 3.582031 -7.789062 3.40625 -7.46875 C 3.238281 -7.15625 3.144531 -6.75 3.125 -6.25 C 3.113281 -5.832031 3.109375 -5.4375 3.109375 -5.0625 C 3.109375 -4.695312 3.113281 -4.300781 3.125 -3.875 C 3.15625 -3.125 3.347656 -2.578125 3.703125 -2.234375 C 4.054688 -1.898438 4.519531 -1.734375 5.09375 -1.734375 Z M 5.09375 -1.734375 "/></g></g></g><g fill="#ffffff" fill-opacity="1"><g transform="translate(289.467358, 326.167829)"><g><path d="M 1.421875 0 C 1.316406 0 1.226562 -0.03125 1.15625 -0.09375 C 1.09375 -0.164062 1.0625 -0.253906 1.0625 -0.359375 L 1.0625 -9.75 C 1.0625 -9.863281 1.09375 -9.953125 1.15625 -10.015625 C 1.226562 -10.085938 1.316406 -10.125 1.421875 -10.125 L 2.75 -10.125 C 2.894531 -10.125 3 -10.085938 3.0625 -10.015625 C 3.132812 -9.953125 3.175781 -9.898438 3.1875 -9.859375 L 7.03125 -3.84375 L 7.03125 -9.75 C 7.03125 -9.863281 7.0625 -9.953125 7.125 -10.015625 C 7.195312 -10.085938 7.289062 -10.125 7.40625 -10.125 L 8.875 -10.125 C 8.976562 -10.125 9.0625 -10.085938 9.125 -10.015625 C 9.195312 -9.953125 9.234375 -9.863281 9.234375 -9.75 L 9.234375 -0.359375 C 9.234375 -0.265625 9.195312 -0.179688 9.125 -0.109375 C 9.0625 -0.0351562 8.976562 0 8.875 0 L 7.546875 0 C 7.398438 0 7.289062 -0.0351562 7.21875 -0.109375 C 7.15625 -0.179688 7.113281 -0.234375 7.09375 -0.265625 L 3.265625 -6.078125 L 3.265625 -0.359375 C 3.265625 -0.253906 3.226562 -0.164062 3.15625 -0.09375 C 3.09375 -0.03125 3.007812 0 2.90625 0 Z M 1.421875 0 "/></g></g></g></svg>