<svg xmlns="http://www.w3.org/2000/svg" xmlns:xlink="http://www.w3.org/1999/xlink" width="500" zoomAndPan="magnify" viewBox="0 0 375 375" height="500" preserveAspectRatio="xMidYMid meet" xmlns:v="https://vecta.io/nano"><path fill="#fff" d="M-37.5-37.5h450v450h-450z"/><path d="M-37.5-37.5h450v450h-450z"/><g fill="#fff"><path d="M83.625 201.648c34.098 11.109 42.074 11.52 78.316 14.5l2.246 3.586c-33.926 1.813-64.16 3.895-80.594-18.086zm125.441 4.512l.586-7.914 2.813-.051a18.2 18.2 0 0 1-.887 4.473c-1.113 3.227-1.391 2.813-2.512 3.492zm-13.449-.812l-.762-.855a4.7 4.7 0 0 1-.363-1.699c-.145-2.566 1.125-5.277 1.836-7.574zm1.32-11.078l-.301-6.789 2.813.309c-.906 1.523-2.762 4.328-2.512 6.48zm13.055-.535l-.289-5.844c11.016-.195 19.25-2.062 29.203-2.945 1.207 9.395-20.785 10.035-28.914 8.789zm-73.691-16.137c-.102 3.676.879 3.141 4.207 3.02 16.973-.703 31.863 4.121 47.836 5.934-2.672 3.906-1.742.227-6.484 1.441-4.535 1.156-2.77 4.031-7.543 3.094-19.062-3.773-21.125-3.352-39.973-4.887-3.637-.297-7.152-.051-7.934-3.203s1.586-6.367 3.027-7.738c8.039-7.574 25.496-3.473 36.977-1.516 12.789 2.176 27.051 4.688 40.188 5.309a82.88 82.88 0 0 0 20.766-1.527c9.973-2.059 15.551-6.008 16.641-6.184 5.969-.957 1.195 7.813-6.902 9.574a131.56 131.56 0 0 1-19.93 2.535c-15.047.805-26.793-.516-40.992-3.09-7.914-1.422-33.945-6.617-39.883-2.785zm81.637-23.961c-.082-.094-.246-.391-.27-.297-.586 1.832-1.027-10.379-1.121-10.984-.422-5.012-1.207-5.496-3.094-9.422l6.297.137c-4.047 7.574.66 16.859-1.855 20.609zm4.348-9.84c-.691-11.996 2.27-11.336 21.117-11.121-.465.176-9.277 9.277-21.117 11.121zm-74.43-8.625c-6.504 10.676-2.445 11.777-4.691 15.734-4.977-9.387 7.988-13.539-2.422-21.125l-.309-4.812 9.152 4.008c-1.156 3.02-.371 3.98-1.73 6.184zm-18.551-17.922c6.738-1.801 11.406-1.637 18.219-4.418 9.418-3.836 15.141-10.82 36.16-6.648 7.895 1.566 11.336 2.063 11.254 11.035 0 11.586-22.074 12.563-32.234 11.121-6.023-.875-11.77-2.66-17.23-5.348-2.637-1.32-4.305-3.012-7.324-3.988-2.711-.875-6.574-.578-8.844-1.754zm69.043-5.668c10.305-3.285 18.797-5.562 30.914-5.152 9.48.27 23.281 2.277 23.496 12.066.145 6.309-2.711 8.598-8.152 9.719-5.059 1.031-11.281.785-16.609.785-9.789 0-23.559 1.316-30.133-4.836 0-5.152 1.926-.68.496-12.527zm-8.242-18.34c17.672-3.535 45.711-6.34 55.945 11.797-11.605-4.121-26.062-3.09-38.324-.535-2.949.617-8.906 2.957-10.883 3.008-.711-10.242-4.422-8.324-10.305-12.953zm1.996 10.82c-13.395-3.094-23.492-5.152-36.898.082-5.805 2.246-7.793 4.656-14.676 6.707-6.254 1.855-13.715.887-16.355 5.719.559 6.762 6.566 4.176 10.762 6.297 1.738 2.586 1.367 3.668 1.586 6.934.266 4.125 1.328 3.32 4.121 5.008 0 4.813-6.656 15.852 1.207 20.273 7.688 2.336 4.121-10.945 9.18-17.395 2.496-3.176 1.125-2.484 2.32-5.156 1.855-4.203 12.477 4.371 33.336-1.934 2.977-.898 7.008-3.32 8.242-3.566 4.121 12.973-39.582 8.406-40.344 9.273-4.191 4.688 17.445 4.535 21.176 4.824-3.523 3.668-14.918 5.398-11.387 8.914 5.094 2.688 31.039-14.965 34.977-19.973 5.863 2.121 12.57.34 13.242 14.621-4.008-.164-9.461-1.926-12.367-1.234l12.563 5.336c.258 4.648.383 9.164 5.152 9.07 4.988-.094 5.008-5.422 4.738-10.059l9.41-2.441c2.063 3.68 10.594 8.121 10.148 21.93-20.781 15.848-66.371 2.535-92.422 0-9.273-.918-16.098-.734-22.227 4.121-4.781 3.824-9.059 14.375-.879 17.516 10.141 3.969 35.492.91 47.57 6.473l-3.195 8.359c-1.586-2.195-4.051-7.102-8.359-4.812-3.996 2.059-1.906 9.059-1.605 12.891-27.102-.484-75.227-3.949-84.324-23.949-9.051-19.754 3.813-69.043 22.207-78.07-.074 3.906-1.535 7.883.121 10.984l2.465.094c1.133-2.113 2.051-35.684 26.895-48.484 20.301-10.52 44.785-4.977 49.773 15.168-10.914-5.152-17.727-9.355-32.75-5.078a47.28 47.28 0 0 0-14.043 6.707c-1.187.816-5.465 3.207-3.434 5.348s3.09-.309 6.762-2.648c9.16-5.789 20.773-9.211 32.973-5.008 6.008 2.063 8.914 4.75 12.914 7.863 1.668 1.309 3.719 3.605 5.492 4.543 3.379 1.805 4.844 1.484 5.988 4.754zm-14.27-27.102c2.945-3.207 39.684-19.809 48.195 10.715-17.816-2.062-26.102-.125-42.734 2.836-.773-5.812-3.434-9.398-5.461-13.551zm-41.508 147.473a208.8 208.8 0 0 0 18.113 0c23.063.195 24.938 10.426 24.734 30.984.195 3.359 3.09 4.484 4.461-1.824-.73-9.543 0-21.559-9.039-26.453 3.258.91 5.152 2.352 7.895.621.219-3.988-2.391-3.012-5.934-4.422-9.648-3.812-12.656-10.129-12.184-20.715 5.566 2.961 3.68 11.637 9.594 11.41 1.145-2.176.91-9.059 2.414-13.211 1.195-3.297 3.473-8.102 6.613-8.523-1.027 3.094-5.047 18.117 1.742 15.047 1.465-1.391-1.617-13.707 7.813-18.273 1.121 8.598-6.523 13.398 1.32 21.809 10.305-.219 2.531-18.848 11.262-22.293 2.121 4.98-1.133 20.879-1.176 23.703-.051 3.195-.691 1.516 1.113 2.906 2.063 1.66 2.258-.496 2.938-2.215 1.34-3.402.535-1.207 3.586-3.309 3.371-2.32 3.246-5.68 5.027-8.852 3.906 12.766 3.371 14.426-6.738 20.352-11.5 6.668-16.961 4.121-17.137 7.48s3.957 1.805 6.473 1.441c-5.258 7.371-4.637 25.289-2.422 26.371a5.75 5.75 0 0 0 2.422.371c1.484-2.617-5.422-17.898 4.473-28.02l7.367-3.461c8.18 7.957 16.27 16.098 24.391 24.609-.773 2.762-2.34 4.121-.969 6.676 4.121.66 5.668-5.398 5.512-8.77-3.605-2.371-23.145-21.734-25.391-25.062 3.422-1.266 7.617-5.367 8.348-10.004s-1.637-10.789-2.906-14.777c5.523-.535 11.48-.773 16.168-2.711 5.473-2.297 6.422-5.656 6.957-12.48 15.023-9.562 3.371-15.457 3.184-15.898-.207-6.184-.937-8.934-3.348-13.77s-4.422-6.078-7.348-9.48c.895-.926 6.441-4.234 12.766-10.375l5.988-5.957c3.09-3.801 3.824-12.055-.937-17.363-2.176-2.441-2.465-4.687-4.172-7.781-6.793-12.363-17.367-9.941-19.395-15.805-7.762-22.641-26.309-24.93-46.855-16.707-2.918 1.176-5.887 2.906-8.699 3.598-10.602-14.242-53.586-18.98-71.012 23.02-4.832 11.586-.812 7.215-6.809 10.141-18.273 8.863-29.02 50.918-26.641 70.641.598 4.863 1.465 9.09 3.465 12.965 14.527 28.039 26.246 32.77 62.973 34.367zm137.485-42.199c-8.5-2.32-6.809-17.023-14.848-15.941-4.988.68-5.152 5.016-3.422 9.52 4.832 12.52 6.184 11.223-3.738 15.457-19.023 8.133-10.957 18.551-6.133 40.563.73 3.246 1.172 6.535 1.328 9.859.383 8.793-2.316 9.336 2.906 9.48 6.184-9.57-10.996-37.727-6.184-49.113 2.629-6.18 12.77-6.977 17.363-10.934 7.391-6.348-5.09-16.66-1.883-20.711 2.832.246 4.246 7.059 5.934 9.664 4.957 7.648 16.262 11.945 11.336-6.977-1.031-3.461-3.441-9.375-2.73-12.727 2.113-7.973 9.273 13.707 9.418 14.223.93 3 .887 4.996 4.227 3.895 1.566-2.574-1.371-8.078-2.422-11.336-.516-1.605-4.66-10.305-3.977-10.984 6.008-6.184 10.305 11.738 11.262 15.645s.195 6.016 4.215 5.594c2.762-5.203-4.75-13.395-1.949-18.879 3.586-3.625 8.719 10.656 8.027 15.652-1.027 7.09-6.18 13.883-12.426 20.148-6.781 6.699-16.18 9.801-20.609 17.91-.309 4.555-5.906 40.992 1.977 38.527 1.516-1.215-.258-6.594-.586-8.059-2.309-14.918.711-22.277.711-29.809 6.895-7.969 17.32-12.48 24.73-19.25 4.422-5.348 9.43-11.984 10.305-19.27s-2.172-10.109-4.273-15.191c-1.031-2.43-1.125-4.781-4.125-5.391s-6.027.734-7.078 2.063c-7.328-9.574-13.871-1.875-15.078-1.32-2.645 1.164-3.926.785-5.562 2.691-3.66 4.285 3.152 17.281 3.258 24.98zm0 0" fill-rule="evenodd"/><use xlink:href="#B"/><use xlink:href="#C"/><use xlink:href="#B" x="67.078"/><use xlink:href="#C" x="67.078"/><path d="M223.535 284.936l-15.969-.352c-4.855-.102-4.855 7.41 0 7.508l15.969.352c4.809.102 4.809-7.41 0-7.508zm28.132 8.558a89.63 89.63 0 0 0-11.562 1.652l1.852-18.473c.453-4.805-7.055-4.805-7.508 0l-2.301 23.43c-.25 2.453 2.602 4.203 4.754 3.602a74.81 74.81 0 0 1 14.766-2.703c4.809-.348 4.859-7.859 0-7.508zm10.913-18.371c-1 9.012-1.75 18.07-2.25 27.133-.301 4.855 7.207 4.805 7.508 0a488.05 488.05 0 0 1 2.254-27.133c.5-4.805-7.008-4.805-7.512 0zm32.84-3.605c-5.559-.699-11.113-.801-16.719-.25-4.758.504-4.809 8.012 0 7.512a66.33 66.33 0 0 1 4.402-.301l-1.301 21.973c-.301 4.809 7.207 4.809 7.508 0l1.305-21.875a76.8 76.8 0 0 1 4.805.453c4.805.598 4.754-6.91 0-7.512zm-221.966 54.65c-.105 0-.195-.031-.266-.094a.39.39 0 0 1-.094-.266v-7.734H70.47c-.105 0-.195-.031-.266-.094a.39.39 0 0 1-.094-.266v-1.297c0-.113.031-.203.094-.266.07-.07.16-.109.266-.109h7.563c.102 0 .188.039.25.109.07.063.109.152.109.266v1.297a.37.37 0 0 1-.109.266c-.062.063-.148.094-.25.094h-2.609v7.734a.37.37 0 0 1-.109.266c-.062.063-.148.094-.25.094zm0 0"/><path d="M83.027 326.168c-.105 0-.195-.031-.266-.094-.062-.07-.094-.16-.094-.266v-9.391c0-.113.031-.203.094-.266.07-.07.16-.109.266-.109h1.578c.113 0 .203.039.266.109.07.063.109.152.109.266v3.609h3.906v-3.609c0-.113.031-.203.094-.266a.35.35 0 0 1 .25-.109h1.594c.102 0 .188.039.25.109.07.063.109.152.109.266v9.391c0 .105-.039.195-.109.266-.062.063-.148.094-.25.094H89.23a.37.37 0 0 1-.25-.094c-.062-.07-.094-.16-.094-.266v-3.734H84.98v3.734c0 .105-.039.195-.109.266-.062.063-.152.094-.266.094zm0 0"/><use xlink:href="#D"/><use xlink:href="#E"/><use xlink:href="#D" x="32.821"/><use xlink:href="#E" x="26.735"/><use xlink:href="#D" x="59.556"/><path d="M177.891 326.309c-.898 0-1.668-.148-2.312-.453a3.28 3.28 0 0 1-1.469-1.328c-.344-.582-.539-1.289-.578-2.125l-.016-1.266.016-1.312c.039-.832.234-1.539.578-2.125.352-.582.848-1.023 1.484-1.328.645-.312 1.41-.469 2.297-.469.656 0 1.242.086 1.766.25s.973.406 1.359.719a3.41 3.41 0 0 1 .906 1.078 3.01 3.01 0 0 1 .344 1.375.28.28 0 0 1-.078.234.34.34 0 0 1-.234.078h-1.656c-.117 0-.211-.023-.281-.078-.062-.051-.117-.145-.156-.281-.148-.582-.387-.977-.719-1.187s-.75-.312-1.25-.312c-.594 0-1.062.168-1.406.5-.344.324-.531.867-.562 1.625v2.422c.031.75.219 1.293.563 1.625.344.324.813.484 1.406.484.5 0 .914-.102 1.25-.312.344-.219.582-.609.719-1.172.039-.133.094-.227.156-.281a.47.47 0 0 1 .281-.078h1.656c.094 0 .172.031.234.094.063.055.086.121.078.203-.012.512-.125.977-.344 1.391a3.51 3.51 0 0 1-.906 1.094c-.387.305-.84.539-1.359.703-.523.156-1.109.234-1.766.234zm0 0"/><use xlink:href="#F"/><use xlink:href="#E" x="85.511"/><path d="M214.9 326.168c-.105 0-.195-.031-.266-.094-.062-.07-.094-.16-.094-.266v-9.391c0-.113.031-.203.094-.266.07-.07.16-.109.266-.109h3.953c.781 0 1.457.125 2.031.375.582.242 1.031.605 1.344 1.094.32.48.484 1.086.484 1.813s-.164 1.336-.484 1.813c-.312.469-.762.824-1.344 1.063-.574.23-1.25.344-2.031.344h-1.937v3.266c0 .105-.039.195-.109.266-.062.063-.148.094-.25.094zm1.984-5.422h1.891c.5 0 .879-.117 1.141-.359.27-.238.406-.594.406-1.062 0-.437-.125-.789-.375-1.062-.242-.27-.633-.406-1.172-.406h-1.891zm0 0"/><use xlink:href="#D" x="130.876"/><use xlink:href="#G"/><use xlink:href="#H"/><use xlink:href="#G" x="19.193"/><use xlink:href="#H" x="19.193"/><use xlink:href="#F" x="90.716"/><path d="M290.889 326.168c-.105 0-.195-.031-.266-.094-.062-.07-.094-.16-.094-.266v-9.391c0-.113.031-.203.094-.266.07-.07.16-.109.266-.109h1.328c.145 0 .25.039.313.109.07.063.113.117.125.156l3.844 6.016v-5.906c0-.113.031-.203.094-.266.07-.07.164-.109.281-.109h1.469c.102 0 .188.039.25.109.07.063.109.152.109.266v9.391a.35.35 0 0 1-.109.25c-.062.074-.148.109-.25.109h-1.328c-.148 0-.258-.035-.328-.109-.062-.07-.105-.125-.125-.156l-3.828-5.812v5.719c0 .105-.039.195-.109.266-.062.063-.148.094-.25.094zm0 0"/></g><defs ><path id="B" d="M104.65 288.088c-.051-4.355-.602-9.66-4.105-12.715-3.855-3.402-7.609-1.602-10.512 1.852-.102-.199-.25-.398-.352-.551-2.703-4.152-8.41-3.902-11.711-.648-3.555 3.453-5.359 9.211-6.41 13.914-1.102 5.156-1.449 10.465-1.75 15.668-.301 4.855 7.207 4.809 7.508 0 .352-6.305.75-12.715 2.902-18.672.5-1.352 1.051-2.652 1.805-3.852.25-.402.898-1.754 1.5-1.902 0-.051.051-.051.051-.051 0 .051 0 .148.098.25.602.801.402 3.152.453 4.105.051 1.801-.051 3.602-.25 5.457-.402 4.152 6.707 5.152 7.406.949.402-2.652 1.254-5.156 2.703-7.457.5-.754 1.602-1.652 2.254-2.453.102.801.5 1.602.602 2.352 1.199 6.656-.102 14.016-.754 20.625-.5 4.805 7.012 4.805 7.512 0 .551-5.559 1.148-11.215 1.051-16.871zm0 0"/><path id="C" d="M128.077 295.346c-3.453-.148-6.91 0-10.312.301l.801-5.707c1.703 0 3.402.051 5.105.25 2.051.203 3.754-1.852 3.754-3.754 0-2.203-1.703-3.555-3.754-3.754-1.301-.148-2.602-.199-3.953-.25l.949-5.805c2.555 0 5.055.098 7.609.25 4.805.348 4.805-7.16 0-7.512a98.83 98.83 0 0 0-10.863-.148c-1.402 0-2.402.699-3.004 1.652-.25.398-.449.902-.551 1.449-1.652 9.211-3.004 18.422-4.152 27.633-.352 2.703 2.652 3.957 4.754 3.656 4.504-.754 9.063-.953 13.617-.754 4.805.203 4.805-7.305 0-7.508zm0 0"/><path id="D" d="M96.568 326.168c-.105 0-.195-.031-.266-.094-.062-.07-.094-.16-.094-.266v-9.391c0-.113.031-.203.094-.266.07-.07.16-.109.266-.109h6.563c.102 0 .188.039.25.109.07.063.109.152.109.266v1.156c0 .105-.039.195-.109.266-.062.063-.148.094-.25.094h-4.687v2.25h4.359c.102 0 .188.039.25.109.07.063.109.148.109.25v1.078a.35.35 0 0 1-.109.25c-.062.074-.148.109-.25.109h-4.359v2.313h4.797c.102 0 .188.039.25.109.07.063.109.148.109.25v1.156c0 .105-.039.195-.109.266-.062.063-.148.094-.25.094zm0 0"/><path id="E" d="M114.679 326.168c-.117 0-.211-.031-.281-.094-.062-.07-.094-.16-.094-.266v-9.391c0-.113.031-.203.094-.266.07-.07.164-.109.281-.109h1.359c.133 0 .238.043.313.125.07.074.117.133.141.172l2.672 4.891 2.672-4.891c.02-.039.066-.098.141-.172.07-.082.18-.125.328-.125h1.344c.102 0 .188.039.25.109.07.063.109.152.109.266v9.391c0 .105-.039.195-.109.266-.062.063-.148.094-.25.094h-1.469c-.105 0-.195-.031-.266-.094-.062-.07-.094-.16-.094-.266v-5.828l-1.828 3.422c-.043.094-.105.18-.187.25-.074.063-.172.094-.297.094h-.687c-.125 0-.23-.031-.312-.094-.074-.07-.133-.156-.172-.25l-1.828-3.422v5.828c0 .105-.039.195-.109.266-.062.063-.148.094-.25.094zm0 0"/><path id="F" d="M190.796 326.309c-.887 0-1.648-.141-2.281-.422-.637-.289-1.133-.727-1.484-1.312s-.547-1.316-.578-2.203l-.016-1.234.016-1.25c.031-.875.223-1.602.578-2.187.363-.594.863-1.039 1.5-1.344.645-.301 1.398-.453 2.266-.453.844 0 1.582.152 2.219.453a3.49 3.49 0 0 1 1.516 1.344c.363.586.563 1.313.594 2.188l.031 1.25-.031 1.234c-.031.887-.23 1.621-.594 2.203-.355.586-.852 1.023-1.484 1.313-.637.281-1.387.422-2.25.422zm0-1.875c.551 0 1.008-.164 1.375-.5.363-.344.551-.891.563-1.641l.031-1.187-.031-1.187c0-.5-.09-.906-.266-1.219-.18-.32-.406-.555-.687-.703s-.609-.219-.984-.219-.711.074-1 .219c-.281.148-.512.383-.687.703-.168.313-.262.719-.281 1.219l-.016 1.188.016 1.188c.031.75.223 1.297.578 1.641.352.336.816.5 1.391.5zm0 0"/><path id="G" d="M241.688 326.168c-.105 0-.195-.031-.266-.094-.062-.07-.094-.16-.094-.266v-7.734h-2.625c-.105 0-.195-.031-.266-.094-.062-.07-.094-.16-.094-.266v-1.297c0-.113.031-.203.094-.266.07-.07.16-.109.266-.109h7.563c.102 0 .188.039.25.109.07.063.109.152.109.266v1.297c0 .105-.039.195-.109.266-.062.063-.148.094-.25.094h-2.609v7.734c0 .105-.039.195-.109.266-.062.063-.148.094-.25.094zm0 0"/><path id="H" d="M251.261 326.168c-.105 0-.195-.031-.266-.094-.062-.07-.094-.16-.094-.266v-9.391c0-.113.031-.203.094-.266.07-.07.16-.109.266-.109h1.656c.094 0 .172.039.234.109.07.063.109.152.109.266v9.391c0 .105-.039.195-.109.266-.062.063-.141.094-.234.094zm0 0"/></defs></svg>