<svg xmlns="http://www.w3.org/2000/svg" xmlns:xlink="http://www.w3.org/1999/xlink" width="500" zoomAndPan="magnify" viewBox="0 0 375 375" height="500" preserveAspectRatio="xMidYMid meet" xmlns:v="https://vecta.io/nano"><defs><clipPath id="A"><path d="M103 134h169v53.695H103zm0 0" clip-rule="nonzero"/></clipPath><clipPath id="B"><path d="M134 71.418h107V143H134zm0 0" clip-rule="nonzero"/></clipPath><clipPath id="C"><path d="M102.969 201.813h169.055v43.789H102.969zm0 0" clip-rule="nonzero"/></clipPath><path id="D" d="M105.698 259.63c2.02 0 3.891.5 5.609 1.5 1.727.992 3.086 2.324 4.078 4s1.484 3.527 1.484 5.547c0 2.012-.496 3.867-1.484 5.563a11.09 11.09 0 0 1-4.078 4.031c-1.719.988-3.59 1.484-5.609 1.484s-3.887-.496-5.594-1.484a11.33 11.33 0 0 1-4.078-4.031c-1.012-1.695-1.516-3.551-1.516-5.562 0-1.988.504-3.828 1.516-5.516a11.21 11.21 0 0 1 4.078-4.031c1.707-1 3.57-1.5 5.594-1.5zm-9.187 11.047c0 1.656.414 3.18 1.25 4.563s1.945 2.484 3.344 3.297a8.96 8.96 0 0 0 4.594 1.219c1.656 0 3.18-.406 4.578-1.219 1.406-.812 2.52-1.91 3.344-3.297a8.69 8.69 0 0 0 1.25-4.562c0-1.602-.402-3.094-1.203-4.469-.793-1.383-1.891-2.492-3.297-3.328-1.398-.832-2.937-1.25-4.625-1.25-1.699 0-3.258.414-4.672 1.234-1.406.813-2.523 1.914-3.344 3.297-.812 1.375-1.219 2.883-1.219 4.516zm0 0"/></defs><path fill="#fff" d="M-37.5-37.5h450v450h-450z"/><path d="M-37.5-37.5h450v450h-450z"/><g clip-path="url(#A)"><path fill="#fff" d="M261.324 134.707c-3.27 0-6.543 2.059-12.34 3.586-1.055.266-2.215.527-3.48.793v11.441c0 14.133-57.434 15.824-58.016 15.824s-58.012-1.687-58.012-15.824v-11.441c-8.07-1.531-11.973-4.379-15.824-4.379-5.273 0-10.551 5.273-10.551 10.551 0 10.598 31.594 42.191 84.387 42.191s84.391-31.645 84.391-42.191c-.008-5.277-5.277-10.551-10.555-10.551zm0 0"/></g><g clip-path="url(#B)"><path fill="#fff" d="M137.387 134.445c2.953 1.16 6.383 2.371 8.648 2.898 3.797.949 8.492 1.848 13.559 2.637 9.496 1.527 20.148 2.637 27.902 2.637s18.406-1.109 27.898-2.637c5.016-.789 9.707-1.687 13.555-2.637 2.477-.578 5.906-1.844 8.648-2.949h.055l2.582-1.215c-.531-51.426-26.641-61.762-52.746-61.762s-52.27 10.336-52.742 61.863c.789.367 1.633.738 2.582 1.105.008.008.059.008.059.059zm0 0"/></g><path fill="#fff" d="M187.488 161.074c15.824 0 52.742-5.273 52.742-10.547v-11.441l-2.27.84h-.367v.105c-.105.055-.16.055-.266.105-2.16.793-4.531 1.582-6.27 2.109h-.008c-.422.16-.895.266-1.316.371-3.047.777-6.422 1.453-9.898 2.035l-3.508.547c-2.344.344-4.703.648-7.004.918-6.906.805-13.305 1.281-17.363 1.531l-4.473.238c-.156 0-3.852-.156-9.266-.57a310.59 310.59 0 0 1-9.184-.828c-4.453-.461-9.266-1.066-13.898-1.836l-3.434-.613c-2.254-.426-4.43-.902-6.461-1.422-.473-.105-1-.266-1.477-.371-.316-.051-.578-.156-.844-.262-1.105-.266-2.105-.633-3.055-1.004-.055 0-.105-.051-.105-.051-.844-.266-1.637-.582-2.375-.898v-.105c-.367 0-2.16-.473-2.633-.684v11.285c-.012 5.277 36.906 10.547 52.73 10.547zm0 0"/><g clip-path="url(#C)"><path fill="#fff" d="M236.668 214.359c-.082.699.023.703.23.031 1.02-3.348 4.453-7.48 12.625-8.07 10.328-.742 24.098 14.609 10.238 23.914-14.691 9.855-26.484-17.012-36.277-23.691-13.867-9.461-30.465-2.191-34.871.047-.625.316-1.609.316-2.234 0-4.406-2.238-21.012-9.508-34.879-.047-9.789 6.68-21.586 33.547-36.27 23.691-13.867-9.305-.098-24.656 10.234-23.914 8.168.59 11.605 4.723 12.625 8.07.203.672.309.668.227-.031-.293-2.5-1.969-8.004-10.871-9.895-11.66-2.484-27.227 9.094-24.062 24.559 3.84 18.797 25.555 20.102 39.199 11.414 13.164-8.371 38.555-11.441 44.355-21.437.352-.609.766-.609 1.117 0 5.797 9.996 31.188 13.066 44.352 21.438 13.648 8.688 35.355 7.383 39.203-11.414 3.16-15.465-12.41-27.043-24.07-24.559-8.898 1.891-10.574 7.395-10.871 9.895"/></g><g fill="#fff"><path d="M73.128 270.333l7.422-17.234h5.031c.844 0 1.266.324 1.266.969 0 .324-.105.578-.312.766-.211.18-.512.266-.906.266h-1.359v23.875h1.797c.82 0 1.234.324 1.234.969 0 .688-.43 1.031-1.281 1.031h-7.562c-.844 0-1.266-.344-1.266-1.031 0-.645.422-.969 1.266-.969h3.813v-23.875h-.437l-7.578 17.531h-2.297l-7.656-17.531h-.391v23.875h3.797c.82 0 1.234.324 1.234.969 0 .688-.414 1.031-1.234 1.031h-7.609c-.812 0-1.219-.344-1.219-1.031 0-.645.391-.969 1.172-.969h1.859v-23.875h-1.422c-.355 0-.641-.086-.859-.266-.211-.187-.312-.441-.312-.766 0-.645.406-.969 1.219-.969h5.031zm0 0"/><use xlink:href="#D"/><path d="M139.627 259.583c1.5 0 2.82.32 3.969.953 1.156.637 2.055 1.469 2.703 2.5.656 1.023.984 2.086.984 3.188v12.75h1.813c.813 0 1.219.324 1.219.969 0 .688-.422 1.031-1.266 1.031h-5.562c-.812 0-1.219-.344-1.219-1.031 0-.645.391-.969 1.172-.969h1.797v-12.359c0-1.332-.496-2.492-1.484-3.484-.992-1-2.418-1.5-4.281-1.5-1 0-1.844.133-2.531.391s-1.398.719-2.125 1.375c-.73.648-1.668 1.656-2.812 3.031v12.547h2.344c.813 0 1.219.324 1.219.969 0 .688-.406 1.031-1.219 1.031h-6.734c-.812 0-1.219-.344-1.219-1.031 0-.645.406-.969 1.219-.969h2.344v-16.609h-1.812c-.781 0-1.172-.336-1.172-1.016 0-.687.41-1.031 1.234-1.031h3.797v3.031c1.301-1.363 2.547-2.332 3.734-2.906s2.484-.859 3.891-.859zm0 0"/><use xlink:href="#D" x="65.514"/><path d="M248.196 278.974h1.656c.781 0 1.172.324 1.172.969 0 .688-.406 1.031-1.219 1.031h-7.656c-.812 0-1.219-.344-1.219-1.031 0-.645.406-.969 1.219-.969h3.953l-2.781-7.328H230.18l-2.734 7.328h3.953c.813 0 1.219.324 1.219.969 0 .688-.406 1.031-1.219 1.031h-7.656c-.855 0-1.281-.344-1.281-1.031 0-.645.406-.969 1.219-.969h1.672l8.875-23.875h-6c-.844 0-1.266-.344-1.266-1.031 0-.645.422-.969 1.266-.969h10.156zm-17.281-9.328h11.672l-5.562-14.547h-.734zm39.194-10.063c3.031 0 5.602.93 7.719 2.781v-.437c0-.457.055-.836.172-1.141.113-.312.398-.469.859-.469.645 0 .984.422 1.016 1.266l-.047 4.344c0 .492-.047.887-.141 1.188-.094.293-.371.438-.828.438-.586 0-.93-.41-1.031-1.234-.125-1.332-.953-2.445-2.484-3.344s-3.309-1.344-5.328-1.344c-1.762 0-3.336.391-4.719 1.172a8.33 8.33 0 0 0-3.219 3.25c-.762 1.387-1.141 2.977-1.141 4.766 0 1.73.391 3.273 1.172 4.625a8.4 8.4 0 0 0 3.25 3.172c1.383.762 2.953 1.141 4.703 1.141a13.82 13.82 0 0 0 4.797-.859c1.563-.574 3.008-1.488 4.344-2.75.32-.332.613-.5.875-.5s.484.102.672.297a.96.96 0 0 1 .297.688c0 .492-.512 1.152-1.531 1.984-1.023.824-2.371 1.555-4.047 2.188s-3.512.953-5.5.953c-2.148 0-4.055-.469-5.719-1.406-1.656-.945-2.961-2.25-3.906-3.906-.937-1.664-1.406-3.539-1.406-5.625 0-2.113.477-4.023 1.438-5.734a10.46 10.46 0 0 1 4-4.031c1.711-.98 3.617-1.469 5.734-1.469zm28.461-6.484c.656 0 .984.406.984 1.219v6h10.984c.844 0 1.266.344 1.266 1.031 0 .68-.422 1.016-1.266 1.016h-10.984v13.438c0 1.012.438 1.922 1.313 2.734.883.813 2.254 1.219 4.109 1.219 1.363 0 2.828-.187 4.391-.562s2.781-.836 3.656-1.391c.426-.227.707-.344.844-.344a.86.86 0 0 1 .672.328c.195.211.297.445.297.703 0 .48-.555.977-1.656 1.484-1.105.5-2.437.922-4 1.266s-2.965.516-4.203.516c-1.625 0-2.996-.281-4.109-.844-1.105-.57-1.934-1.305-2.484-2.203a5.33 5.33 0 0 1-.828-2.859v-13.484h-3.766c-.844 0-1.266-.336-1.266-1.016 0-.687.422-1.031 1.266-1.031h3.766v-6c0-.812.336-1.219 1.016-1.219zm0 0"/></g></svg>