<svg xmlns="http://www.w3.org/2000/svg" xmlns:xlink="http://www.w3.org/1999/xlink" width="500" zoomAndPan="magnify" viewBox="0 0 375 374.999991" height="500" preserveAspectRatio="xMidYMid meet" version="1.0"><defs><g/><clipPath id="1b8042139f"><path d="M 103 134 L 272 134 L 272 187.695312 L 103 187.695312 Z M 103 134 " clip-rule="nonzero"/></clipPath><clipPath id="6ea460b5f4"><path d="M 134 71.417969 L 241 71.417969 L 241 143 L 134 143 Z M 134 71.417969 " clip-rule="nonzero"/></clipPath><clipPath id="c93f95d1dd"><path d="M 102.96875 201.8125 L 272.023438 201.8125 L 272.023438 245.601562 L 102.96875 245.601562 Z M 102.96875 201.8125 " clip-rule="nonzero"/></clipPath></defs><rect x="-37.5" width="450" fill="#ffffff" y="-37.499999" height="449.999989" fill-opacity="1"/><rect x="-37.5" width="450" fill="#000000" y="-37.499999" height="449.999989" fill-opacity="1"/><g clip-path="url(#1b8042139f)"><path fill="#ffffff" d="M 261.324219 134.707031 C 258.054688 134.707031 254.78125 136.765625 248.984375 138.292969 C 247.929688 138.558594 246.769531 138.820312 245.503906 139.085938 L 245.503906 150.527344 C 245.503906 164.660156 188.070312 166.351562 187.488281 166.351562 C 186.910156 166.351562 129.476562 164.664062 129.476562 150.527344 L 129.476562 139.085938 C 121.40625 137.554688 117.503906 134.707031 113.652344 134.707031 C 108.378906 134.707031 103.101562 139.980469 103.101562 145.257812 C 103.101562 155.855469 134.695312 187.449219 187.488281 187.449219 C 240.285156 187.449219 271.878906 155.804688 271.878906 145.257812 C 271.871094 139.980469 266.601562 134.707031 261.324219 134.707031 Z M 261.324219 134.707031 " fill-opacity="1" fill-rule="nonzero"/></g><g clip-path="url(#6ea460b5f4)"><path fill="#ffffff" d="M 137.386719 134.445312 C 140.339844 135.605469 143.769531 136.816406 146.035156 137.34375 C 149.832031 138.292969 154.527344 139.191406 159.59375 139.980469 C 169.089844 141.507812 179.742188 142.617188 187.496094 142.617188 C 195.25 142.617188 205.902344 141.507812 215.394531 139.980469 C 220.410156 139.191406 225.101562 138.292969 228.949219 137.34375 C 231.425781 136.765625 234.855469 135.5 237.597656 134.394531 C 237.597656 134.394531 237.597656 134.394531 237.652344 134.394531 C 238.652344 133.917969 239.546875 133.496094 240.234375 133.179688 C 239.703125 81.753906 213.59375 71.417969 187.488281 71.417969 C 161.386719 71.417969 135.21875 81.753906 134.746094 133.28125 C 135.535156 133.648438 136.378906 134.019531 137.328125 134.386719 C 137.335938 134.394531 137.386719 134.394531 137.386719 134.445312 Z M 137.386719 134.445312 " fill-opacity="1" fill-rule="nonzero"/></g><path fill="#ffffff" d="M 187.488281 161.074219 C 203.3125 161.074219 240.230469 155.800781 240.230469 150.527344 L 240.230469 139.085938 C 239.542969 139.347656 238.753906 139.609375 237.960938 139.925781 L 237.59375 139.925781 L 237.59375 140.03125 C 237.488281 140.085938 237.433594 140.085938 237.328125 140.136719 C 235.167969 140.929688 232.796875 141.71875 231.058594 142.246094 L 231.050781 142.246094 C 230.628906 142.40625 230.15625 142.511719 229.734375 142.617188 C 226.6875 143.394531 223.3125 144.070312 219.835938 144.652344 C 218.675781 144.84375 217.503906 145.023438 216.328125 145.199219 C 213.984375 145.542969 211.625 145.847656 209.324219 146.117188 C 202.417969 146.921875 196.019531 147.398438 191.960938 147.648438 C 189.25 147.820312 187.578125 147.886719 187.488281 147.886719 C 187.332031 147.886719 183.636719 147.730469 178.222656 147.316406 C 175.515625 147.113281 172.378906 146.839844 169.039062 146.488281 C 164.585938 146.027344 159.773438 145.421875 155.140625 144.652344 C 153.980469 144.457031 152.835938 144.253906 151.707031 144.039062 C 149.453125 143.613281 147.277344 143.136719 145.246094 142.617188 C 144.773438 142.511719 144.246094 142.351562 143.769531 142.246094 C 143.453125 142.195312 143.191406 142.089844 142.925781 141.984375 C 141.820312 141.71875 140.820312 141.351562 139.871094 140.980469 C 139.816406 140.980469 139.765625 140.929688 139.765625 140.929688 C 138.921875 140.664062 138.128906 140.347656 137.390625 140.03125 L 137.390625 139.925781 C 137.023438 139.925781 135.230469 139.453125 134.757812 139.242188 L 134.757812 150.527344 C 134.746094 155.804688 171.664062 161.074219 187.488281 161.074219 Z M 187.488281 161.074219 " fill-opacity="1" fill-rule="nonzero"/><g clip-path="url(#c93f95d1dd)"><path fill="#ffffff" d="M 236.667969 214.359375 C 236.585938 215.058594 236.691406 215.0625 236.898438 214.390625 C 237.917969 211.042969 241.351562 206.910156 249.523438 206.320312 C 259.851562 205.578125 273.621094 220.929688 259.761719 230.234375 C 245.070312 240.089844 233.277344 213.222656 223.484375 206.542969 C 209.617188 197.082031 193.019531 204.351562 188.613281 206.589844 C 187.988281 206.90625 187.003906 206.90625 186.378906 206.589844 C 181.972656 204.351562 165.367188 197.082031 151.5 206.542969 C 141.710938 213.222656 129.914062 240.089844 115.230469 230.234375 C 101.363281 220.929688 115.132812 205.578125 125.464844 206.320312 C 133.632812 206.910156 137.070312 211.042969 138.089844 214.390625 C 138.292969 215.0625 138.398438 215.058594 138.316406 214.359375 C 138.023438 211.859375 136.347656 206.355469 127.445312 204.464844 C 115.785156 201.980469 100.21875 213.558594 103.382812 229.023438 C 107.222656 247.820312 128.9375 249.125 142.582031 240.4375 C 155.746094 232.066406 181.136719 228.996094 186.9375 219 C 187.289062 218.390625 187.703125 218.390625 188.054688 219 C 193.851562 228.996094 219.242188 232.066406 232.40625 240.4375 C 246.054688 249.125 267.761719 247.820312 271.609375 229.023438 C 274.769531 213.558594 259.199219 201.980469 247.539062 204.464844 C 238.640625 206.355469 236.964844 211.859375 236.667969 214.359375 " fill-opacity="1" fill-rule="nonzero"/></g><g fill="#ffffff" fill-opacity="1"><g transform="translate(58.190486, 280.974222)"><g><path d="M 14.9375 -10.640625 L 22.359375 -27.875 L 27.390625 -27.875 C 28.234375 -27.875 28.65625 -27.550781 28.65625 -26.90625 C 28.65625 -26.582031 28.550781 -26.328125 28.34375 -26.140625 C 28.132812 -25.960938 27.832031 -25.875 27.4375 -25.875 L 26.078125 -25.875 L 26.078125 -2 L 27.875 -2 C 28.695312 -2 29.109375 -1.675781 29.109375 -1.03125 C 29.109375 -0.34375 28.679688 0 27.828125 0 L 20.265625 0 C 19.421875 0 19 -0.34375 19 -1.03125 C 19 -1.675781 19.421875 -2 20.265625 -2 L 24.078125 -2 L 24.078125 -25.875 L 23.640625 -25.875 L 16.0625 -8.34375 L 13.765625 -8.34375 L 6.109375 -25.875 L 5.71875 -25.875 L 5.71875 -2 L 9.515625 -2 C 10.335938 -2 10.75 -1.675781 10.75 -1.03125 C 10.75 -0.34375 10.335938 0 9.515625 0 L 1.90625 0 C 1.09375 0 0.6875 -0.34375 0.6875 -1.03125 C 0.6875 -1.675781 1.078125 -2 1.859375 -2 L 3.71875 -2 L 3.71875 -25.875 L 2.296875 -25.875 C 1.941406 -25.875 1.65625 -25.960938 1.4375 -26.140625 C 1.226562 -26.328125 1.125 -26.582031 1.125 -26.90625 C 1.125 -27.550781 1.53125 -27.875 2.34375 -27.875 L 7.375 -27.875 Z M 14.9375 -10.640625 "/></g></g></g><g fill="#ffffff" fill-opacity="1"><g transform="translate(90.947785, 280.974222)"><g><path d="M 14.75 -21.34375 C 16.769531 -21.34375 18.640625 -20.84375 20.359375 -19.84375 C 22.085938 -18.851562 23.445312 -17.519531 24.4375 -15.84375 C 25.425781 -14.164062 25.921875 -12.316406 25.921875 -10.296875 C 25.921875 -8.285156 25.425781 -6.429688 24.4375 -4.734375 C 23.445312 -3.046875 22.085938 -1.703125 20.359375 -0.703125 C 18.640625 0.285156 16.769531 0.78125 14.75 0.78125 C 12.726562 0.78125 10.863281 0.285156 9.15625 -0.703125 C 7.445312 -1.703125 6.085938 -3.046875 5.078125 -4.734375 C 4.066406 -6.429688 3.5625 -8.285156 3.5625 -10.296875 C 3.5625 -12.285156 4.066406 -14.125 5.078125 -15.8125 C 6.085938 -17.507812 7.445312 -18.851562 9.15625 -19.84375 C 10.863281 -20.84375 12.726562 -21.34375 14.75 -21.34375 Z M 5.5625 -10.296875 C 5.5625 -8.640625 5.976562 -7.117188 6.8125 -5.734375 C 7.644531 -4.347656 8.757812 -3.25 10.15625 -2.4375 C 11.550781 -1.625 13.082031 -1.21875 14.75 -1.21875 C 16.40625 -1.21875 17.929688 -1.625 19.328125 -2.4375 C 20.734375 -3.25 21.847656 -4.347656 22.671875 -5.734375 C 23.503906 -7.117188 23.921875 -8.640625 23.921875 -10.296875 C 23.921875 -11.898438 23.519531 -13.390625 22.71875 -14.765625 C 21.925781 -16.148438 20.828125 -17.257812 19.421875 -18.09375 C 18.023438 -18.925781 16.484375 -19.34375 14.796875 -19.34375 C 13.097656 -19.34375 11.539062 -18.929688 10.125 -18.109375 C 8.71875 -17.296875 7.601562 -16.195312 6.78125 -14.8125 C 5.96875 -13.4375 5.5625 -11.929688 5.5625 -10.296875 Z M 5.5625 -10.296875 "/></g></g></g><g fill="#ffffff" fill-opacity="1"><g transform="translate(123.705083, 280.974222)"><g><path d="M 15.921875 -21.390625 C 17.421875 -21.390625 18.742188 -21.070312 19.890625 -20.4375 C 21.046875 -19.800781 21.945312 -18.96875 22.59375 -17.9375 C 23.25 -16.914062 23.578125 -15.851562 23.578125 -14.75 L 23.578125 -2 L 25.390625 -2 C 26.203125 -2 26.609375 -1.675781 26.609375 -1.03125 C 26.609375 -0.34375 26.1875 0 25.34375 0 L 19.78125 0 C 18.96875 0 18.5625 -0.34375 18.5625 -1.03125 C 18.5625 -1.675781 18.953125 -2 19.734375 -2 L 21.53125 -2 L 21.53125 -14.359375 C 21.53125 -15.691406 21.035156 -16.851562 20.046875 -17.84375 C 19.054688 -18.84375 17.628906 -19.34375 15.765625 -19.34375 C 14.765625 -19.34375 13.921875 -19.210938 13.234375 -18.953125 C 12.546875 -18.691406 11.835938 -18.234375 11.109375 -17.578125 C 10.378906 -16.929688 9.441406 -15.921875 8.296875 -14.546875 L 8.296875 -2 L 10.640625 -2 C 11.453125 -2 11.859375 -1.675781 11.859375 -1.03125 C 11.859375 -0.34375 11.453125 0 10.640625 0 L 3.90625 0 C 3.09375 0 2.6875 -0.34375 2.6875 -1.03125 C 2.6875 -1.675781 3.09375 -2 3.90625 -2 L 6.25 -2 L 6.25 -18.609375 L 4.4375 -18.609375 C 3.65625 -18.609375 3.265625 -18.945312 3.265625 -19.625 C 3.265625 -20.3125 3.675781 -20.65625 4.5 -20.65625 L 8.296875 -20.65625 L 8.296875 -17.625 C 9.597656 -18.988281 10.84375 -19.957031 12.03125 -20.53125 C 13.21875 -21.101562 14.515625 -21.390625 15.921875 -21.390625 Z M 15.921875 -21.390625 "/></g></g></g><g fill="#ffffff" fill-opacity="1"><g transform="translate(156.462385, 280.974222)"><g><path d="M 14.75 -21.34375 C 16.769531 -21.34375 18.640625 -20.84375 20.359375 -19.84375 C 22.085938 -18.851562 23.445312 -17.519531 24.4375 -15.84375 C 25.425781 -14.164062 25.921875 -12.316406 25.921875 -10.296875 C 25.921875 -8.285156 25.425781 -6.429688 24.4375 -4.734375 C 23.445312 -3.046875 22.085938 -1.703125 20.359375 -0.703125 C 18.640625 0.285156 16.769531 0.78125 14.75 0.78125 C 12.726562 0.78125 10.863281 0.285156 9.15625 -0.703125 C 7.445312 -1.703125 6.085938 -3.046875 5.078125 -4.734375 C 4.066406 -6.429688 3.5625 -8.285156 3.5625 -10.296875 C 3.5625 -12.285156 4.066406 -14.125 5.078125 -15.8125 C 6.085938 -17.507812 7.445312 -18.851562 9.15625 -19.84375 C 10.863281 -20.84375 12.726562 -21.34375 14.75 -21.34375 Z M 5.5625 -10.296875 C 5.5625 -8.640625 5.976562 -7.117188 6.8125 -5.734375 C 7.644531 -4.347656 8.757812 -3.25 10.15625 -2.4375 C 11.550781 -1.625 13.082031 -1.21875 14.75 -1.21875 C 16.40625 -1.21875 17.929688 -1.625 19.328125 -2.4375 C 20.734375 -3.25 21.847656 -4.347656 22.671875 -5.734375 C 23.503906 -7.117188 23.921875 -8.640625 23.921875 -10.296875 C 23.921875 -11.898438 23.519531 -13.390625 22.71875 -14.765625 C 21.925781 -16.148438 20.828125 -17.257812 19.421875 -18.09375 C 18.023438 -18.925781 16.484375 -19.34375 14.796875 -19.34375 C 13.097656 -19.34375 11.539062 -18.929688 10.125 -18.109375 C 8.71875 -17.296875 7.601562 -16.195312 6.78125 -14.8125 C 5.96875 -13.4375 5.5625 -11.929688 5.5625 -10.296875 Z M 5.5625 -10.296875 "/></g></g></g><g fill="#ffffff" fill-opacity="1"><g transform="translate(189.219681, 280.974222)"><g/></g></g><g fill="#ffffff" fill-opacity="1"><g transform="translate(221.976976, 280.974222)"><g><path d="M 26.21875 -2 L 27.875 -2 C 28.65625 -2 29.046875 -1.675781 29.046875 -1.03125 C 29.046875 -0.34375 28.640625 0 27.828125 0 L 20.171875 0 C 19.359375 0 18.953125 -0.34375 18.953125 -1.03125 C 18.953125 -1.675781 19.359375 -2 20.171875 -2 L 24.125 -2 L 21.34375 -9.328125 L 8.203125 -9.328125 L 5.46875 -2 L 9.421875 -2 C 10.234375 -2 10.640625 -1.675781 10.640625 -1.03125 C 10.640625 -0.34375 10.234375 0 9.421875 0 L 1.765625 0 C 0.910156 0 0.484375 -0.34375 0.484375 -1.03125 C 0.484375 -1.675781 0.890625 -2 1.703125 -2 L 3.375 -2 L 12.25 -25.875 L 6.25 -25.875 C 5.40625 -25.875 4.984375 -26.21875 4.984375 -26.90625 C 4.984375 -27.550781 5.40625 -27.875 6.25 -27.875 L 16.40625 -27.875 Z M 8.9375 -11.328125 L 20.609375 -11.328125 L 15.046875 -25.875 L 14.3125 -25.875 Z M 8.9375 -11.328125 "/></g></g></g><g fill="#ffffff" fill-opacity="1"><g transform="translate(254.734271, 280.974222)"><g><path d="M 15.375 -21.390625 C 18.40625 -21.390625 20.976562 -20.460938 23.09375 -18.609375 L 23.09375 -19.046875 C 23.09375 -19.503906 23.148438 -19.882812 23.265625 -20.1875 C 23.378906 -20.5 23.664062 -20.65625 24.125 -20.65625 C 24.769531 -20.65625 25.109375 -20.234375 25.140625 -19.390625 L 25.09375 -15.046875 C 25.09375 -14.554688 25.046875 -14.160156 24.953125 -13.859375 C 24.859375 -13.566406 24.582031 -13.421875 24.125 -13.421875 C 23.539062 -13.421875 23.195312 -13.832031 23.09375 -14.65625 C 22.96875 -15.988281 22.140625 -17.101562 20.609375 -18 C 19.078125 -18.894531 17.300781 -19.34375 15.28125 -19.34375 C 13.519531 -19.34375 11.945312 -18.953125 10.5625 -18.171875 C 9.1875 -17.390625 8.113281 -16.304688 7.34375 -14.921875 C 6.582031 -13.535156 6.203125 -11.945312 6.203125 -10.15625 C 6.203125 -8.425781 6.59375 -6.882812 7.375 -5.53125 C 8.15625 -4.1875 9.238281 -3.128906 10.625 -2.359375 C 12.007812 -1.597656 13.578125 -1.21875 15.328125 -1.21875 C 16.960938 -1.21875 18.5625 -1.503906 20.125 -2.078125 C 21.6875 -2.648438 23.132812 -3.566406 24.46875 -4.828125 C 24.789062 -5.160156 25.082031 -5.328125 25.34375 -5.328125 C 25.601562 -5.328125 25.828125 -5.226562 26.015625 -5.03125 C 26.210938 -4.832031 26.3125 -4.601562 26.3125 -4.34375 C 26.3125 -3.851562 25.800781 -3.191406 24.78125 -2.359375 C 23.757812 -1.535156 22.410156 -0.804688 20.734375 -0.171875 C 19.054688 0.460938 17.222656 0.78125 15.234375 0.78125 C 13.085938 0.78125 11.179688 0.3125 9.515625 -0.625 C 7.859375 -1.570312 6.554688 -2.875 5.609375 -4.53125 C 4.671875 -6.195312 4.203125 -8.070312 4.203125 -10.15625 C 4.203125 -12.269531 4.679688 -14.179688 5.640625 -15.890625 C 6.597656 -17.597656 7.929688 -18.941406 9.640625 -19.921875 C 11.347656 -20.898438 13.257812 -21.390625 15.375 -21.390625 Z M 15.375 -21.390625 "/></g></g></g><g fill="#ffffff" fill-opacity="1"><g transform="translate(287.49158, 280.974222)"><g><path d="M 11.078125 -27.875 C 11.734375 -27.875 12.0625 -27.46875 12.0625 -26.65625 L 12.0625 -20.65625 L 23.046875 -20.65625 C 23.890625 -20.65625 24.3125 -20.3125 24.3125 -19.625 C 24.3125 -18.945312 23.890625 -18.609375 23.046875 -18.609375 L 12.0625 -18.609375 L 12.0625 -5.171875 C 12.0625 -4.160156 12.5 -3.25 13.375 -2.4375 C 14.257812 -1.625 15.628906 -1.21875 17.484375 -1.21875 C 18.847656 -1.21875 20.3125 -1.40625 21.875 -1.78125 C 23.4375 -2.15625 24.65625 -2.617188 25.53125 -3.171875 C 25.957031 -3.398438 26.238281 -3.515625 26.375 -3.515625 C 26.632812 -3.515625 26.859375 -3.40625 27.046875 -3.1875 C 27.242188 -2.976562 27.34375 -2.742188 27.34375 -2.484375 C 27.34375 -2.003906 26.789062 -1.507812 25.6875 -1 C 24.582031 -0.5 23.25 -0.078125 21.6875 0.265625 C 20.125 0.609375 18.722656 0.78125 17.484375 0.78125 C 15.859375 0.78125 14.488281 0.5 13.375 -0.0625 C 12.269531 -0.632812 11.441406 -1.367188 10.890625 -2.265625 C 10.335938 -3.160156 10.0625 -4.113281 10.0625 -5.125 L 10.0625 -18.609375 L 6.296875 -18.609375 C 5.453125 -18.609375 5.03125 -18.945312 5.03125 -19.625 C 5.03125 -20.3125 5.453125 -20.65625 6.296875 -20.65625 L 10.0625 -20.65625 L 10.0625 -26.65625 C 10.0625 -27.46875 10.398438 -27.875 11.078125 -27.875 Z M 11.078125 -27.875 "/></g></g></g></svg>