<svg xmlns="http://www.w3.org/2000/svg" xmlns:xlink="http://www.w3.org/1999/xlink" width="500" zoomAndPan="magnify" viewBox="0 0 375 374.999991" height="500" preserveAspectRatio="xMidYMid meet" version="1.0"><defs><g/><clipPath id="994f8e7850"><path d="M 114 69.960938 L 126 69.960938 L 126 100 L 114 100 Z M 114 69.960938 " clip-rule="nonzero"/></clipPath><clipPath id="fa75e52730"><path d="M 79 205 L 93 205 L 93 253.710938 L 79 253.710938 Z M 79 205 " clip-rule="nonzero"/></clipPath><clipPath id="23cd81e366"><path d="M 96 207 L 111 207 L 111 253.710938 L 96 253.710938 Z M 96 207 " clip-rule="nonzero"/></clipPath><clipPath id="750017ff65"><path d="M 65.667969 121 L 144 121 L 144 206 L 65.667969 206 Z M 65.667969 121 " clip-rule="nonzero"/></clipPath><clipPath id="e219083acb"><path d="M 133 162 L 186 162 L 186 253.710938 L 133 253.710938 Z M 133 162 " clip-rule="nonzero"/></clipPath><clipPath id="84ea250690"><path d="M 249 162 L 302 162 L 302 253.710938 L 249 253.710938 Z M 249 162 " clip-rule="nonzero"/></clipPath><clipPath id="d0c7bd85a2"><path d="M 213 229 L 224 229 L 224 253.710938 L 213 253.710938 Z M 213 229 " clip-rule="nonzero"/></clipPath><clipPath id="f75b5a36e2"><path d="M 227 228 L 238 228 L 238 253.710938 L 227 253.710938 Z M 227 228 " clip-rule="nonzero"/></clipPath></defs><rect x="-37.5" width="450" fill="#ffffff" y="-37.499999" height="449.999989" fill-opacity="1"/><rect x="-37.5" width="450" fill="#000000" y="-37.499999" height="449.999989" fill-opacity="1"/><path fill="#ffffff" d="M 105.648438 128.050781 L 110.613281 129.265625 C 115.441406 126.90625 118.730469 121.921875 118.621094 116.199219 C 118.492188 109.359375 113.566406 103.746094 107.117188 102.484375 C 107.476562 103.449219 107.683594 104.488281 107.683594 105.578125 C 107.683594 110.480469 103.695312 114.46875 98.789062 114.46875 C 95.726562 114.46875 93.019531 112.914062 91.421875 110.550781 C 90.558594 112.433594 90.078125 114.527344 90.121094 116.734375 C 90.195312 120.703125 91.886719 124.261719 94.554688 126.792969 C 96.074219 126.820312 97.625 126.890625 99.191406 127.035156 C 101.386719 127.242188 103.402344 127.570312 105.25 127.976562 C 105.382812 128 105.515625 128.015625 105.648438 128.050781 Z M 105.648438 128.050781 " fill-opacity="1" fill-rule="nonzero"/><path fill="#ffffff" d="M 106.160156 105.578125 C 106.160156 106.058594 106.113281 106.539062 106.015625 107.015625 C 105.921875 107.488281 105.785156 107.949219 105.597656 108.398438 C 105.414062 108.84375 105.1875 109.269531 104.917969 109.671875 C 104.648438 110.074219 104.34375 110.445312 104 110.789062 C 103.660156 111.128906 103.285156 111.433594 102.882812 111.703125 C 102.480469 111.972656 102.058594 112.199219 101.609375 112.382812 C 101.164062 112.570312 100.703125 112.710938 100.226562 112.804688 C 99.753906 112.898438 99.273438 112.945312 98.789062 112.945312 C 98.304688 112.945312 97.828125 112.898438 97.351562 112.804688 C 96.878906 112.710938 96.417969 112.570312 95.96875 112.382812 C 95.523438 112.199219 95.097656 111.972656 94.695312 111.703125 C 94.292969 111.433594 93.921875 111.128906 93.578125 110.789062 C 93.238281 110.445312 92.933594 110.074219 92.664062 109.671875 C 92.394531 109.269531 92.167969 108.84375 91.980469 108.398438 C 91.796875 107.949219 91.65625 107.488281 91.5625 107.015625 C 91.46875 106.539062 91.421875 106.058594 91.421875 105.578125 C 91.421875 105.09375 91.46875 104.613281 91.5625 104.140625 C 91.65625 103.664062 91.796875 103.203125 91.980469 102.757812 C 92.167969 102.308594 92.394531 101.886719 92.664062 101.484375 C 92.933594 101.082031 93.238281 100.707031 93.578125 100.367188 C 93.921875 100.023438 94.292969 99.71875 94.695312 99.449219 C 95.097656 99.179688 95.523438 98.953125 95.96875 98.769531 C 96.417969 98.582031 96.878906 98.445312 97.351562 98.347656 C 97.828125 98.253906 98.304688 98.207031 98.789062 98.207031 C 99.273438 98.207031 99.753906 98.253906 100.226562 98.347656 C 100.703125 98.445312 101.164062 98.582031 101.609375 98.769531 C 102.058594 98.953125 102.480469 99.179688 102.882812 99.449219 C 103.285156 99.71875 103.660156 100.023438 104 100.367188 C 104.34375 100.707031 104.648438 101.082031 104.917969 101.484375 C 105.1875 101.886719 105.414062 102.308594 105.597656 102.757812 C 105.785156 103.203125 105.921875 103.664062 106.015625 104.140625 C 106.113281 104.613281 106.160156 105.09375 106.160156 105.578125 Z M 106.160156 105.578125 " fill-opacity="1" fill-rule="nonzero"/><path fill="#ffffff" d="M 144.519531 83.105469 L 142.0625 79.785156 L 119.910156 102.886719 L 121.050781 103.707031 Z M 144.519531 83.105469 " fill-opacity="1" fill-rule="nonzero"/><g clip-path="url(#994f8e7850)"><path fill="#ffffff" d="M 116.023438 99.839844 L 125.449219 70.070312 L 122.433594 69.960938 L 114.621094 99.726562 Z M 116.023438 99.839844 " fill-opacity="1" fill-rule="nonzero"/></g><path fill="#ffffff" d="M 153.203125 99 L 123.816406 108.136719 L 124.464844 109.386719 L 154.710938 101.613281 Z M 153.203125 99 " fill-opacity="1" fill-rule="nonzero"/><g clip-path="url(#fa75e52730)"><path fill="#ffffff" d="M 80.398438 205.703125 C 80.117188 205.902344 79.867188 206.042969 79.640625 206.136719 L 79.640625 246.910156 C 79.640625 250.570312 82.609375 253.539062 86.269531 253.539062 C 89.929688 253.539062 92.898438 250.570312 92.898438 246.910156 L 92.898438 207.214844 C 92.511719 207.183594 92.132812 207.148438 91.734375 207.113281 C 87.28125 206.699219 83.546875 206.214844 80.398438 205.703125 Z M 80.398438 205.703125 " fill-opacity="1" fill-rule="nonzero"/></g><g clip-path="url(#23cd81e366)"><path fill="#ffffff" d="M 105.207031 208.835938 C 105.203125 208.835938 105.199219 208.835938 105.195312 208.835938 C 104.835938 208.835938 104.214844 208.824219 103.238281 207.824219 C 101.359375 207.777344 99.277344 207.683594 96.972656 207.53125 L 96.972656 246.910156 C 96.972656 250.570312 99.941406 253.539062 103.601562 253.539062 C 107.261719 253.539062 110.230469 250.570312 110.230469 246.910156 L 110.230469 207.746094 C 109.257812 207.800781 108.183594 207.832031 107.015625 207.847656 C 106.621094 208.421875 106.046875 208.835938 105.207031 208.835938 Z M 105.207031 208.835938 " fill-opacity="1" fill-rule="nonzero"/></g><g clip-path="url(#750017ff65)"><path fill="#ffffff" d="M 82.46875 157.167969 C 82.019531 159.503906 81.492188 161.335938 80.933594 162.996094 L 80.910156 162.996094 L 65.683594 199.191406 C 65.683594 199.191406 69.3125 203.027344 91.921875 205.132812 C 114.527344 207.238281 118.800781 204.140625 118.800781 204.140625 L 110.519531 165.753906 L 110.496094 165.75 C 110.253906 164.015625 110.074219 162.117188 110.0625 159.738281 C 110.042969 154.609375 113.324219 146.78125 115.890625 141.445312 L 121.433594 152.589844 C 122.171875 154.066406 123.675781 154.980469 125.292969 154.980469 C 125.480469 154.980469 125.667969 154.96875 125.855469 154.941406 C 127.683594 154.699219 129.152344 153.328125 129.515625 151.523438 C 129.53125 151.464844 130.730469 145.582031 132.949219 139.714844 C 136.015625 131.617188 138.65625 129.761719 139.417969 129.730469 C 141.796875 129.628906 143.640625 127.621094 143.542969 125.242188 C 143.441406 122.863281 141.417969 121.011719 139.054688 121.117188 C 133.390625 121.355469 128.757812 126.441406 124.890625 136.664062 C 124.632812 137.347656 124.386719 138.03125 124.152344 138.707031 L 122.464844 135.3125 C 121.898438 134.175781 120.863281 133.347656 119.632812 133.046875 L 105.285156 129.53125 C 105.128906 129.492188 104.972656 129.464844 104.816406 129.441406 C 103.058594 129.058594 101.136719 128.75 99.050781 128.554688 C 88.199219 127.542969 81.535156 129.785156 79.511719 130.609375 C 79.078125 130.785156 78.851562 130.898438 78.851562 130.898438 C 78.851562 130.898438 78.855469 130.902344 78.855469 130.902344 C 78.640625 130.980469 78.433594 131.070312 78.226562 131.183594 C 76.148438 132.34375 75.402344 134.96875 76.5625 137.046875 L 82.332031 147.390625 C 82.332031 147.398438 82.332031 147.40625 82.332031 147.414062 C 82.796875 151.050781 82.964844 154.585938 82.46875 157.167969 Z M 82.46875 157.167969 " fill-opacity="1" fill-rule="nonzero"/></g><g clip-path="url(#e219083acb)"><path fill="#ffffff" d="M 150.914062 193.355469 C 151.203125 193.355469 151.515625 193.320312 151.839844 193.25 C 152.300781 193.148438 154.351562 192.558594 154.886719 190.09375 L 155.644531 196.050781 L 155.644531 247.105469 C 155.644531 250.730469 158.582031 253.671875 162.214844 253.671875 C 165.839844 253.671875 168.78125 250.730469 168.78125 247.105469 L 168.78125 213.375 L 172.558594 212.898438 L 172.558594 247.105469 C 172.558594 250.730469 175.5 253.671875 179.125 253.671875 C 182.753906 253.671875 185.695312 250.730469 185.695312 247.105469 L 185.695312 204.304688 C 185.695312 203.714844 185.609375 203.148438 185.464844 202.605469 C 185.472656 202.058594 185.457031 201.605469 185.417969 201.300781 L 183.507812 186.222656 C 183.050781 185.570312 182.515625 184.765625 181.898438 183.839844 C 174.25 172.332031 171.234375 170.3125 170.113281 170.128906 C 168.964844 169.941406 167.933594 169.394531 167.140625 168.570312 C 166.714844 168.664062 166.28125 168.742188 165.839844 168.800781 C 165.230469 168.875 164.613281 168.914062 164.003906 168.914062 C 160.949219 168.914062 158.09375 167.945312 155.734375 166.296875 L 155.707031 166.300781 C 155.496094 166.328125 155.296875 166.375 155.097656 166.429688 C 150.738281 167.121094 148.828125 170.355469 148.003906 175.15625 C 143.734375 166.167969 141.199219 162.375 137.636719 162.226562 C 135.511719 162.152344 133.757812 163.777344 133.667969 165.878906 C 133.597656 167.601562 134.683594 169.105469 136.234375 169.640625 C 137.96875 171.472656 141.589844 179.378906 143.367188 183.261719 C 144.414062 185.550781 145.316406 187.527344 146.082031 189.027344 C 146.929688 190.6875 148.289062 193.355469 150.914062 193.355469 Z M 150.914062 193.355469 " fill-opacity="1" fill-rule="nonzero"/></g><path fill="#ffffff" d="M 183.742188 168.175781 L 183.921875 170.839844 C 180.007812 165.773438 175.898438 161.804688 171.585938 161.101562 C 169.5 160.761719 167.546875 162.171875 167.207031 164.25 C 166.871094 166.328125 168.277344 168.285156 170.355469 168.625 C 174.015625 169.222656 180.886719 179.5625 183.140625 182.957031 C 183.839844 184.007812 184.445312 184.917969 184.925781 185.585938 C 184.941406 185.605469 184.957031 185.628906 184.96875 185.644531 C 186.175781 187.308594 187.476562 188.144531 188.851562 188.144531 C 189.375 188.144531 189.910156 188.023438 190.457031 187.777344 C 191.179688 187.457031 193.453125 186.128906 192.527344 182.523438 C 192.527344 182.519531 192.527344 182.515625 192.527344 182.511719 C 191.335938 177.914062 187.914062 164.65625 179.398438 163.625 C 180.882812 164.925781 182.328125 166.472656 183.742188 168.175781 Z M 183.742188 168.175781 " fill-opacity="1" fill-rule="nonzero"/><path fill="#ffffff" d="M 165.648438 167.285156 C 165.828125 167.261719 165.996094 167.222656 166.171875 167.191406 C 165.695312 166.207031 165.523438 165.105469 165.703125 164.003906 C 166.128906 161.410156 168.339844 159.527344 170.964844 159.527344 C 171.253906 159.527344 171.542969 159.550781 171.832031 159.597656 C 173.015625 159.789062 174.171875 160.199219 175.3125 160.777344 C 176.636719 158.429688 177.257812 155.660156 176.894531 152.777344 C 175.992188 145.667969 169.5 140.632812 162.386719 141.535156 C 155.277344 142.433594 150.242188 148.929688 151.144531 156.039062 C 152.042969 163.152344 158.539062 168.1875 165.648438 167.285156 Z M 155.496094 158.242188 C 154.921875 155.988281 158.648438 157.445312 162.539062 156.460938 C 166.433594 155.476562 169.019531 152.425781 169.589844 154.675781 C 170.15625 156.929688 167.464844 159.554688 163.574219 160.539062 C 159.679688 161.523438 156.0625 160.496094 155.496094 158.242188 Z M 155.496094 158.242188 " fill-opacity="1" fill-rule="nonzero"/><g clip-path="url(#84ea250690)"><path fill="#ffffff" d="M 286.003906 170.261719 C 284.816406 170.066406 283.757812 169.492188 282.953125 168.621094 C 281.050781 169.5 278.9375 169.992188 276.707031 169.992188 C 273.609375 169.992188 270.730469 169.046875 268.339844 167.429688 C 265.804688 168.824219 264.527344 171.59375 263.894531 175.285156 C 259.625 166.296875 257.09375 162.507812 253.527344 162.359375 C 253.472656 162.355469 253.421875 162.355469 253.367188 162.355469 C 251.335938 162.355469 249.648438 163.960938 249.5625 166.007812 C 249.488281 167.734375 250.574219 169.238281 252.125 169.773438 C 253.859375 171.601562 257.480469 179.511719 259.257812 183.394531 C 260.304688 185.679688 261.210938 187.65625 261.976562 189.15625 C 262.820312 190.820312 264.183594 193.488281 266.804688 193.488281 C 267.097656 193.488281 267.40625 193.453125 267.734375 193.382812 C 268.195312 193.28125 270.246094 192.691406 270.78125 190.226562 L 271.535156 196.183594 L 271.535156 247.238281 C 271.535156 250.863281 274.476562 253.804688 278.105469 253.804688 C 281.730469 253.804688 284.671875 250.863281 284.671875 247.238281 L 284.671875 213.507812 L 288.449219 213.03125 L 288.449219 247.238281 C 288.449219 250.863281 291.390625 253.804688 295.019531 253.804688 C 298.648438 253.804688 301.589844 250.863281 301.589844 247.238281 L 301.589844 204.4375 C 301.589844 203.847656 301.503906 203.28125 301.359375 202.738281 C 301.367188 202.191406 301.351562 201.738281 301.3125 201.433594 L 299.402344 186.355469 C 298.945312 185.703125 298.40625 184.898438 297.792969 183.972656 C 290.144531 172.464844 287.125 170.445312 286.003906 170.261719 Z M 286.003906 170.261719 " fill-opacity="1" fill-rule="nonzero"/></g><path fill="#ffffff" d="M 308.421875 182.644531 C 307.230469 178.046875 303.808594 164.792969 295.292969 163.757812 C 296.773438 165.058594 298.222656 166.605469 299.636719 168.308594 L 299.816406 170.972656 C 295.898438 165.90625 291.789062 161.9375 287.476562 161.234375 C 285.394531 160.894531 283.441406 162.304688 283.101562 164.382812 C 282.761719 166.460938 284.171875 168.417969 286.25 168.757812 C 289.910156 169.355469 296.777344 179.695312 299.035156 183.089844 C 299.734375 184.140625 300.335938 185.050781 300.820312 185.71875 C 300.832031 185.738281 300.847656 185.757812 300.859375 185.777344 C 302.066406 187.441406 303.367188 188.277344 304.742188 188.277344 C 305.269531 188.277344 305.804688 188.15625 306.351562 187.910156 C 307.070312 187.589844 309.335938 186.265625 308.425781 182.675781 C 308.425781 182.664062 308.421875 182.65625 308.421875 182.644531 Z M 308.421875 182.644531 " fill-opacity="1" fill-rule="nonzero"/><path fill="#ffffff" d="M 235.023438 169.992188 C 235.90625 170.324219 236.433594 170.664062 236.703125 170.878906 C 236.894531 170.988281 237.085938 171.085938 237.273438 171.203125 C 239.664062 172.675781 241.863281 174.621094 243.859375 177.011719 C 245.945312 176.628906 246.957031 175.257812 245.757812 175.421875 C 243.632812 175.714844 240.855469 174.710938 240.308594 166.808594 C 239.953125 161.699219 238.117188 159.050781 235.902344 157.679688 C 235.5625 159.585938 234.835938 161.375 233.800781 162.953125 C 234.296875 164.976562 234.457031 167.59375 235.023438 169.992188 Z M 235.023438 169.992188 " fill-opacity="1" fill-rule="nonzero"/><path fill="#ffffff" d="M 223.375 167.769531 C 230.324219 166.976562 235.3125 160.699219 234.515625 153.753906 C 233.722656 146.804688 227.445312 141.816406 220.5 142.609375 C 213.550781 143.40625 208.5625 149.679688 209.355469 156.628906 C 210.152344 163.578125 216.425781 168.566406 223.375 167.769531 Z M 213.878906 160.808594 C 213.308594 158.554688 217.035156 160.011719 220.925781 159.027344 C 224.820312 158.042969 227.402344 154.992188 227.972656 157.246094 C 228.542969 159.496094 225.851562 162.121094 221.960938 163.105469 C 218.066406 164.089844 214.449219 163.0625 213.878906 160.808594 Z M 213.878906 160.808594 " fill-opacity="1" fill-rule="nonzero"/><g clip-path="url(#d0c7bd85a2)"><path fill="#ffffff" d="M 213.269531 229.292969 L 213.269531 248.777344 C 213.269531 251.621094 215.578125 253.929688 218.421875 253.929688 C 221.265625 253.929688 223.570312 251.621094 223.570312 248.777344 L 223.570312 229.601562 C 222.570312 229.636719 221.574219 229.660156 220.597656 229.660156 C 217.601562 229.664062 215.140625 229.492188 213.269531 229.292969 Z M 213.269531 229.292969 " fill-opacity="1" fill-rule="nonzero"/></g><g clip-path="url(#f75b5a36e2)"><path fill="#ffffff" d="M 227.132812 229.394531 L 227.132812 248.777344 C 227.132812 251.621094 229.441406 253.929688 232.285156 253.929688 C 235.125 253.929688 237.433594 251.621094 237.433594 248.777344 L 237.433594 228 C 235.3125 228.417969 232.960938 228.796875 230.386719 229.089844 C 229.296875 229.214844 228.214844 229.3125 227.132812 229.394531 Z M 227.132812 229.394531 " fill-opacity="1" fill-rule="nonzero"/></g><path fill="#ffffff" d="M 239.113281 191.183594 C 236 189.109375 230.207031 185.25 224.550781 185.25 C 224.066406 185.25 223.589844 185.28125 223.128906 185.335938 C 222.917969 185.359375 222.714844 185.371094 222.515625 185.371094 C 219.898438 185.371094 217.6875 183.414062 217.378906 180.816406 C 217.039062 177.988281 219.066406 175.40625 221.894531 175.066406 C 222.757812 174.964844 223.640625 174.910156 224.523438 174.910156 C 229.472656 174.910156 234.089844 176.542969 237.851562 178.414062 L 238.851562 180.65625 C 234.398438 178.199219 228.433594 175.820312 222.078125 176.582031 C 220.078125 176.820312 218.652344 178.636719 218.890625 180.636719 C 219.132812 182.632812 220.949219 184.054688 222.945312 183.820312 C 229.605469 183.019531 236.34375 187.503906 239.957031 189.914062 C 241.539062 190.96875 243.058594 191.980469 244.582031 191.980469 C 245.339844 191.980469 246.097656 191.726562 246.863281 191.101562 C 246.871094 191.09375 246.878906 191.09375 246.882812 191.085938 C 247.78125 190.347656 249.0625 188.660156 247.578125 185.652344 C 244.609375 179.632812 240.871094 175.207031 236.476562 172.503906 C 236.265625 172.371094 236.046875 172.261719 235.835938 172.140625 C 235.835938 172.140625 235.832031 172.132812 235.832031 172.132812 C 235.832031 172.132812 235.441406 171.757812 234.363281 171.375 C 230.980469 169.78125 227.367188 169.175781 223.582031 169.609375 C 222.382812 169.746094 218.738281 170.160156 214.773438 172.808594 C 214.308594 173.117188 213.863281 173.453125 213.421875 173.800781 C 212.617188 174.328125 212.300781 174.726562 212.234375 174.8125 C 210.597656 176.316406 209.148438 178.105469 207.902344 180.1875 C 206.300781 174.078125 204.367188 169.003906 200.179688 168.539062 C 198.183594 168.316406 196.375 169.757812 196.152344 171.761719 C 195.964844 173.46875 196.988281 175.03125 198.535156 175.589844 C 199.703125 177.214844 201.148438 183.179688 201.785156 185.800781 C 202.199219 187.503906 202.554688 188.976562 202.910156 190.132812 C 203.296875 191.398438 204.210938 194.363281 207.226562 194.40625 C 207.242188 194.40625 207.257812 194.40625 207.273438 194.40625 C 207.839844 194.40625 209.226562 194.253906 210.289062 192.941406 C 209.296875 204.242188 208.492188 218.285156 209.507812 227.183594 C 209.507812 227.183594 217.410156 229.039062 230.210938 227.574219 C 243.011719 226.109375 250.292969 222.519531 250.292969 222.519531 C 249.394531 214.675781 246.21875 203.261719 243.066406 193.28125 C 241.675781 192.886719 240.378906 192.027344 239.113281 191.183594 Z M 239.113281 191.183594 " fill-opacity="1" fill-rule="nonzero"/><path fill="#ffffff" d="M 281.597656 164.136719 C 282.019531 161.542969 284.230469 159.660156 286.855469 159.660156 C 287.144531 159.660156 287.4375 159.683594 287.722656 159.730469 C 288.054688 159.78125 288.386719 159.859375 288.714844 159.945312 C 289.335938 158.425781 289.6875 156.765625 289.6875 155.023438 C 289.6875 154.726562 289.664062 154.4375 289.644531 154.148438 L 284.703125 153.046875 C 284.691406 153.101562 284.683594 153.15625 284.671875 153.210938 C 284.058594 155.980469 281.3125 157.726562 278.542969 157.109375 C 275.773438 156.492188 274.027344 153.75 274.644531 150.980469 C 274.65625 150.925781 274.675781 150.871094 274.6875 150.820312 L 272.570312 150.347656 C 272.558594 150.402344 272.550781 150.457031 272.539062 150.511719 C 271.925781 153.28125 269.179688 155.027344 266.410156 154.410156 C 265.421875 154.1875 264.566406 153.695312 263.898438 153.027344 C 263.796875 153.679688 263.730469 154.34375 263.730469 155.023438 C 263.730469 162.191406 269.539062 168 276.707031 168 C 278.550781 168 280.304688 167.613281 281.890625 166.917969 C 281.550781 166.042969 281.441406 165.089844 281.597656 164.136719 Z M 266.96875 156.886719 L 278.773438 159.492188 C 277.113281 161.203125 274.636719 162.050781 272.140625 161.5 C 269.648438 160.949219 267.753906 159.140625 266.96875 156.886719 Z M 266.96875 156.886719 " fill-opacity="1" fill-rule="nonzero"/><path fill="#ffffff" d="M 275.855469 151.25 C 275.390625 153.347656 276.714844 155.429688 278.8125 155.898438 C 280.910156 156.363281 282.992188 155.042969 283.460938 152.941406 C 283.925781 150.84375 282.601562 148.761719 280.503906 148.292969 C 278.40625 147.828125 276.324219 149.152344 275.855469 151.25 Z M 275.855469 151.25 " fill-opacity="1" fill-rule="nonzero"/><path fill="#ffffff" d="M 263.722656 148.550781 C 263.257812 150.648438 264.582031 152.730469 266.679688 153.195312 C 268.777344 153.664062 270.859375 152.339844 271.328125 150.242188 C 271.792969 148.140625 270.46875 146.0625 268.371094 145.59375 C 266.273438 145.125 264.191406 146.449219 263.722656 148.550781 Z M 263.722656 148.550781 " fill-opacity="1" fill-rule="nonzero"/><path fill="#ffffff" d="M 270.445312 143.660156 C 269.984375 143.914062 269.542969 144.203125 269.117188 144.511719 C 271.039062 145.136719 272.371094 146.816406 272.617188 148.746094 L 275.324219 149.347656 C 276.449219 147.570312 278.601562 146.597656 280.773438 147.082031 C 282.949219 147.5625 284.484375 149.359375 284.75 151.445312 L 289.4375 152.488281 C 288.714844 148.851562 286.46875 145.769531 283.398438 143.917969 C 282.972656 143.027344 282.632812 142.078125 282.578125 141.257812 C 282.5 140.160156 282.929688 139.285156 284.339844 139.066406 C 289.460938 138.277344 280.796875 137.003906 277.664062 140.089844 C 277.546875 140.203125 277.4375 140.324219 277.339844 140.453125 C 277.210938 140.324219 277.085938 140.195312 276.96875 140.0625 C 275.804688 138.730469 275.390625 137.261719 277.0625 135.96875 C 282.273438 131.941406 271.46875 136.054688 270.339844 141.480469 C 270.191406 142.191406 270.203125 142.921875 270.445312 143.660156 Z M 270.445312 143.660156 " fill-opacity="1" fill-rule="nonzero"/><path fill="#ffffff" d="M 243.820312 112.605469 L 263.675781 137.710938 L 264.648438 136.691406 L 247.449219 110.625 Z M 243.820312 112.605469 " fill-opacity="1" fill-rule="nonzero"/><path fill="#ffffff" d="M 231.40625 130.703125 L 259.824219 142.515625 L 260.125 141.140625 L 231.925781 127.734375 Z M 231.40625 130.703125 " fill-opacity="1" fill-rule="nonzero"/><path fill="#ffffff" d="M 270.738281 134.085938 L 267.175781 103.0625 L 264.378906 104.195312 L 269.410156 134.558594 Z M 270.738281 134.085938 " fill-opacity="1" fill-rule="nonzero"/><path fill="#ffffff" d="M 190.3125 116.957031 L 210.167969 142.0625 L 211.136719 141.042969 L 193.941406 114.980469 Z M 190.3125 116.957031 " fill-opacity="1" fill-rule="nonzero"/><path fill="#ffffff" d="M 177.898438 135.058594 L 206.316406 146.871094 L 206.617188 145.496094 L 178.417969 132.085938 Z M 177.898438 135.058594 " fill-opacity="1" fill-rule="nonzero"/><path fill="#ffffff" d="M 217.230469 138.441406 L 213.667969 107.417969 L 210.871094 108.550781 L 215.902344 138.910156 Z M 217.230469 138.441406 " fill-opacity="1" fill-rule="nonzero"/><g fill="#ffffff" fill-opacity="1"><g transform="translate(35.219321, 305.991366)"><g><path d="M 16 -21.0625 L 16.5 -19.015625 C 16.945312 -17.148438 17.394531 -15.515625 17.84375 -14.109375 C 18.289062 -12.710938 19.425781 -9.476562 21.25 -4.40625 C 21.425781 -5.050781 21.78125 -6.472656 22.3125 -8.671875 C 22.976562 -11.546875 23.425781 -13.347656 23.65625 -14.078125 C 24.300781 -16.234375 24.925781 -17.816406 25.53125 -18.828125 C 26.144531 -19.847656 26.820312 -20.578125 27.5625 -21.015625 C 28.3125 -21.460938 29.160156 -21.6875 30.109375 -21.6875 C 30.867188 -21.6875 31.445312 -21.539062 31.84375 -21.25 C 32.25 -20.957031 32.453125 -20.609375 32.453125 -20.203125 C 32.453125 -19.910156 32.34375 -19.65625 32.125 -19.4375 C 31.90625 -19.21875 31.648438 -19.109375 31.359375 -19.109375 C 31.148438 -19.109375 30.90625 -19.164062 30.625 -19.28125 C 30.039062 -19.507812 29.691406 -19.644531 29.578125 -19.6875 C 29.367188 -19.726562 29.144531 -19.75 28.90625 -19.75 C 28.332031 -19.75 27.84375 -19.554688 27.4375 -19.171875 C 26.707031 -18.492188 25.90625 -16.796875 25.03125 -14.078125 C 24.164062 -11.359375 23.066406 -7.015625 21.734375 -1.046875 L 21.140625 1.5625 C 19.804688 -1.363281 18.90625 -3.441406 18.4375 -4.671875 C 17.8125 -6.316406 17.09375 -8.394531 16.28125 -10.90625 L 14.359375 -16.953125 C 14.128906 -15.554688 13.582031 -13.195312 12.71875 -9.875 C 11.863281 -6.550781 11.359375 -4.640625 11.203125 -4.140625 C 10.660156 -2.566406 10.082031 -1.359375 9.46875 -0.515625 C 8.851562 0.316406 8.179688 0.925781 7.453125 1.3125 C 6.734375 1.695312 5.9375 1.890625 5.0625 1.890625 C 3.957031 1.890625 3.054688 1.644531 2.359375 1.15625 C 1.828125 0.789062 1.5625 0.328125 1.5625 -0.234375 C 1.5625 -0.472656 1.660156 -0.6875 1.859375 -0.875 C 2.054688 -1.070312 2.296875 -1.171875 2.578125 -1.171875 C 2.929688 -1.171875 3.320312 -0.976562 3.75 -0.59375 C 4.488281 0.09375 5.171875 0.4375 5.796875 0.4375 C 6.453125 0.4375 7.101562 0.140625 7.75 -0.453125 C 8.707031 -1.359375 9.628906 -3.265625 10.515625 -6.171875 C 11.585938 -9.679688 12.617188 -14.140625 13.609375 -19.546875 C 13.203125 -19.546875 12.421875 -19.425781 11.265625 -19.1875 C 10.109375 -18.957031 9.140625 -18.628906 8.359375 -18.203125 C 7.585938 -17.773438 6.992188 -17.21875 6.578125 -16.53125 C 6.171875 -15.851562 5.96875 -15.140625 5.96875 -14.390625 C 5.96875 -14.023438 6.019531 -13.648438 6.125 -13.265625 C 6.195312 -13.003906 6.347656 -12.6875 6.578125 -12.3125 C 6.847656 -11.882812 6.984375 -11.5625 6.984375 -11.34375 C 6.984375 -11.0625 6.878906 -10.820312 6.671875 -10.625 C 6.472656 -10.425781 6.21875 -10.328125 5.90625 -10.328125 C 5.46875 -10.328125 5.085938 -10.554688 4.765625 -11.015625 C 4.453125 -11.472656 4.296875 -12.175781 4.296875 -13.125 C 4.296875 -14.6875 4.691406 -16.015625 5.484375 -17.109375 C 6.273438 -18.203125 7.328125 -19.03125 8.640625 -19.59375 C 9.484375 -19.945312 11.101562 -20.285156 13.5 -20.609375 C 14.382812 -20.722656 15.21875 -20.875 16 -21.0625 Z M 16 -21.0625 "/></g></g></g><g fill="#ffffff" fill-opacity="1"><g transform="translate(63.886306, 305.991366)"><g><path d="M 16.234375 -20.90625 C 15.054688 -18.832031 13.894531 -16.191406 12.75 -12.984375 C 11.945312 -10.703125 11.546875 -8.800781 11.546875 -7.28125 C 11.546875 -5.570312 11.957031 -4.242188 12.78125 -3.296875 C 13.601562 -2.359375 14.632812 -1.890625 15.875 -1.890625 C 17.03125 -1.890625 18.125 -2.179688 19.15625 -2.765625 C 20.519531 -3.535156 21.78125 -4.707031 22.9375 -6.28125 C 24.101562 -7.851562 25.050781 -9.738281 25.78125 -11.9375 C 26.519531 -14.132812 26.890625 -16.191406 26.890625 -18.109375 C 26.890625 -19.429688 26.601562 -20.691406 26.03125 -21.890625 C 25.726562 -22.492188 25.5625 -22.851562 25.53125 -22.96875 C 25.476562 -23.132812 25.453125 -23.3125 25.453125 -23.5 C 25.453125 -23.84375 25.554688 -24.125 25.765625 -24.34375 C 25.984375 -24.570312 26.253906 -24.6875 26.578125 -24.6875 C 27.117188 -24.6875 27.550781 -24.394531 27.875 -23.8125 C 28.320312 -23.019531 28.546875 -21.789062 28.546875 -20.125 C 28.546875 -16.550781 27.765625 -12.992188 26.203125 -9.453125 C 24.640625 -5.921875 22.832031 -3.394531 20.78125 -1.875 C 18.738281 -0.363281 16.59375 0.390625 14.34375 0.390625 C 12.507812 0.390625 11.101562 -0.21875 10.125 -1.4375 C 9.144531 -2.65625 8.65625 -4.160156 8.65625 -5.953125 C 8.65625 -7.421875 8.882812 -8.925781 9.34375 -10.46875 C 9.9375 -12.476562 11.164062 -15.488281 13.03125 -19.5 C 11.570312 -19.539062 10.265625 -19.363281 9.109375 -18.96875 C 7.953125 -18.582031 7.117188 -18.082031 6.609375 -17.46875 C 6.109375 -16.863281 5.859375 -16.265625 5.859375 -15.671875 C 5.859375 -15.429688 5.992188 -15.097656 6.265625 -14.671875 C 6.546875 -14.191406 6.6875 -13.820312 6.6875 -13.5625 C 6.6875 -13.21875 6.578125 -12.9375 6.359375 -12.71875 C 6.148438 -12.5 5.890625 -12.390625 5.578125 -12.390625 C 5.191406 -12.390625 4.851562 -12.5625 4.5625 -12.90625 C 4.28125 -13.257812 4.140625 -13.71875 4.140625 -14.28125 C 4.140625 -15.175781 4.398438 -16.070312 4.921875 -16.96875 C 5.453125 -17.875 6.132812 -18.601562 6.96875 -19.15625 C 7.800781 -19.707031 8.832031 -20.109375 10.0625 -20.359375 C 10.664062 -20.492188 11.925781 -20.613281 13.84375 -20.71875 C 15.144531 -20.78125 15.941406 -20.84375 16.234375 -20.90625 Z M 16.234375 -20.90625 "/></g></g></g><g fill="#ffffff" fill-opacity="1"><g transform="translate(93.970172, 305.991366)"><g><path d="M 27.140625 -20.640625 L 27.03125 -20.203125 C 26.082031 -19.972656 25.296875 -19.679688 24.671875 -19.328125 C 24.054688 -18.984375 23.226562 -18.347656 22.1875 -17.421875 C 19.394531 -14.984375 16.96875 -13.113281 14.90625 -11.8125 C 15.5 -11.070312 16.003906 -10.25 16.421875 -9.34375 C 16.847656 -8.4375 17.578125 -6.34375 18.609375 -3.0625 C 19.546875 -0.132812 20.5 1.84375 21.46875 2.875 C 22.4375 3.894531 23.421875 4.40625 24.421875 4.40625 C 25.390625 4.40625 26.050781 3.894531 26.40625 2.875 C 26.613281 2.257812 26.789062 1.882812 26.9375 1.75 C 27.144531 1.5625 27.378906 1.46875 27.640625 1.46875 C 27.921875 1.46875 28.160156 1.5625 28.359375 1.75 C 28.554688 1.945312 28.65625 2.179688 28.65625 2.453125 C 28.65625 3.148438 28.238281 3.820312 27.40625 4.46875 C 26.582031 5.125 25.535156 5.453125 24.265625 5.453125 C 23.171875 5.453125 22.128906 5.171875 21.140625 4.609375 C 20.148438 4.054688 19.25 3.175781 18.4375 1.96875 C 17.625 0.769531 16.789062 -1.085938 15.9375 -3.609375 C 15.144531 -5.984375 14.53125 -7.609375 14.09375 -8.484375 C 13.664062 -9.367188 13.066406 -10.300781 12.296875 -11.28125 L 10.4375 -4.203125 C 10.070312 -2.765625 9.84375 -1.738281 9.75 -1.125 C 10.539062 -0.78125 11.25 -0.609375 11.875 -0.609375 C 12.03125 -0.609375 12.25 -0.617188 12.53125 -0.640625 L 12.296875 0.234375 C 12.066406 0.242188 11.921875 0.25 11.859375 0.25 C 11.472656 0.25 10.925781 0.207031 10.21875 0.125 C 9.46875 0.0390625 8.851562 0 8.375 0 C 7.40625 0 5.875 0.1875 3.78125 0.5625 L 3.890625 -0.28125 C 5.003906 -0.5 5.785156 -0.800781 6.234375 -1.1875 C 6.691406 -1.582031 7.054688 -2.203125 7.328125 -3.046875 C 7.941406 -4.929688 8.75 -7.769531 9.75 -11.5625 L 11.875 -19.65625 C 9.570312 -19.519531 7.75 -19 6.40625 -18.09375 C 5.363281 -17.40625 4.84375 -16.632812 4.84375 -15.78125 C 4.84375 -15.476562 4.988281 -15.09375 5.28125 -14.625 C 5.550781 -14.207031 5.6875 -13.867188 5.6875 -13.609375 C 5.6875 -13.296875 5.566406 -13.019531 5.328125 -12.78125 C 5.097656 -12.539062 4.828125 -12.421875 4.515625 -12.421875 C 4.148438 -12.421875 3.820312 -12.597656 3.53125 -12.953125 C 3.25 -13.316406 3.109375 -13.796875 3.109375 -14.390625 C 3.109375 -16.015625 3.914062 -17.476562 5.53125 -18.78125 C 7.144531 -20.082031 9.953125 -20.734375 13.953125 -20.734375 L 15.09375 -20.734375 C 14.457031 -19.066406 14.039062 -17.859375 13.84375 -17.109375 L 12.4375 -11.8125 C 13.300781 -12.132812 14.304688 -12.6875 15.453125 -13.46875 C 16.597656 -14.257812 17.703125 -15.097656 18.765625 -15.984375 C 20.710938 -17.617188 21.820312 -18.613281 22.09375 -18.96875 C 22.175781 -19.082031 22.21875 -19.179688 22.21875 -19.265625 C 22.21875 -19.359375 22.097656 -19.441406 21.859375 -19.515625 C 21.617188 -19.585938 20.945312 -19.632812 19.84375 -19.65625 L 20.0625 -20.640625 C 21.5625 -20.503906 22.785156 -20.4375 23.734375 -20.4375 C 24.710938 -20.4375 25.847656 -20.503906 27.140625 -20.640625 Z M 27.140625 -20.640625 "/></g></g></g><g fill="#ffffff" fill-opacity="1"><g transform="translate(121.202789, 305.991366)"><g><path d="M 27.140625 -20.640625 L 27.03125 -20.203125 C 26.082031 -19.972656 25.296875 -19.679688 24.671875 -19.328125 C 24.054688 -18.984375 23.226562 -18.347656 22.1875 -17.421875 C 19.394531 -14.984375 16.96875 -13.113281 14.90625 -11.8125 C 15.5 -11.070312 16.003906 -10.25 16.421875 -9.34375 C 16.847656 -8.4375 17.578125 -6.34375 18.609375 -3.0625 C 19.546875 -0.132812 20.5 1.84375 21.46875 2.875 C 22.4375 3.894531 23.421875 4.40625 24.421875 4.40625 C 25.390625 4.40625 26.050781 3.894531 26.40625 2.875 C 26.613281 2.257812 26.789062 1.882812 26.9375 1.75 C 27.144531 1.5625 27.378906 1.46875 27.640625 1.46875 C 27.921875 1.46875 28.160156 1.5625 28.359375 1.75 C 28.554688 1.945312 28.65625 2.179688 28.65625 2.453125 C 28.65625 3.148438 28.238281 3.820312 27.40625 4.46875 C 26.582031 5.125 25.535156 5.453125 24.265625 5.453125 C 23.171875 5.453125 22.128906 5.171875 21.140625 4.609375 C 20.148438 4.054688 19.25 3.175781 18.4375 1.96875 C 17.625 0.769531 16.789062 -1.085938 15.9375 -3.609375 C 15.144531 -5.984375 14.53125 -7.609375 14.09375 -8.484375 C 13.664062 -9.367188 13.066406 -10.300781 12.296875 -11.28125 L 10.4375 -4.203125 C 10.070312 -2.765625 9.84375 -1.738281 9.75 -1.125 C 10.539062 -0.78125 11.25 -0.609375 11.875 -0.609375 C 12.03125 -0.609375 12.25 -0.617188 12.53125 -0.640625 L 12.296875 0.234375 C 12.066406 0.242188 11.921875 0.25 11.859375 0.25 C 11.472656 0.25 10.925781 0.207031 10.21875 0.125 C 9.46875 0.0390625 8.851562 0 8.375 0 C 7.40625 0 5.875 0.1875 3.78125 0.5625 L 3.890625 -0.28125 C 5.003906 -0.5 5.785156 -0.800781 6.234375 -1.1875 C 6.691406 -1.582031 7.054688 -2.203125 7.328125 -3.046875 C 7.941406 -4.929688 8.75 -7.769531 9.75 -11.5625 L 11.875 -19.65625 C 9.570312 -19.519531 7.75 -19 6.40625 -18.09375 C 5.363281 -17.40625 4.84375 -16.632812 4.84375 -15.78125 C 4.84375 -15.476562 4.988281 -15.09375 5.28125 -14.625 C 5.550781 -14.207031 5.6875 -13.867188 5.6875 -13.609375 C 5.6875 -13.296875 5.566406 -13.019531 5.328125 -12.78125 C 5.097656 -12.539062 4.828125 -12.421875 4.515625 -12.421875 C 4.148438 -12.421875 3.820312 -12.597656 3.53125 -12.953125 C 3.25 -13.316406 3.109375 -13.796875 3.109375 -14.390625 C 3.109375 -16.015625 3.914062 -17.476562 5.53125 -18.78125 C 7.144531 -20.082031 9.953125 -20.734375 13.953125 -20.734375 L 15.09375 -20.734375 C 14.457031 -19.066406 14.039062 -17.859375 13.84375 -17.109375 L 12.4375 -11.8125 C 13.300781 -12.132812 14.304688 -12.6875 15.453125 -13.46875 C 16.597656 -14.257812 17.703125 -15.097656 18.765625 -15.984375 C 20.710938 -17.617188 21.820312 -18.613281 22.09375 -18.96875 C 22.175781 -19.082031 22.21875 -19.179688 22.21875 -19.265625 C 22.21875 -19.359375 22.097656 -19.441406 21.859375 -19.515625 C 21.617188 -19.585938 20.945312 -19.632812 19.84375 -19.65625 L 20.0625 -20.640625 C 21.5625 -20.503906 22.785156 -20.4375 23.734375 -20.4375 C 24.710938 -20.4375 25.847656 -20.503906 27.140625 -20.640625 Z M 27.140625 -20.640625 "/></g></g></g><g fill="#ffffff" fill-opacity="1"><g transform="translate(148.435405, 305.991366)"><g><path d="M 22.71875 -0.765625 L 22.546875 0.234375 C 22.128906 0.265625 21.765625 0.28125 21.453125 0.28125 C 20.992188 0.28125 20.441406 0.242188 19.796875 0.171875 C 18.703125 0.0546875 18.007812 0 17.71875 0 C 17.226562 0 16.476562 0.078125 15.46875 0.234375 C 15.820312 -0.679688 16.125 -1.640625 16.375 -2.640625 C 16.550781 -3.347656 16.738281 -4.570312 16.9375 -6.3125 C 15.570312 -6.320312 13.453125 -6.296875 10.578125 -6.234375 C 7.617188 -1.703125 5.445312 1.140625 4.0625 2.296875 C 2.6875 3.460938 1.375 4.046875 0.125 4.046875 C -0.53125 4.046875 -1.015625 3.914062 -1.328125 3.65625 C -1.648438 3.40625 -1.8125 3.082031 -1.8125 2.6875 C -1.8125 2.382812 -1.71875 2.132812 -1.53125 1.9375 C -1.351562 1.738281 -1.125 1.640625 -0.84375 1.640625 C -0.675781 1.640625 -0.453125 1.671875 -0.171875 1.734375 C 0.523438 1.898438 0.988281 1.984375 1.21875 1.984375 C 2 1.984375 2.863281 1.535156 3.8125 0.640625 C 5.351562 -0.796875 7.628906 -3.828125 10.640625 -8.453125 C 14.046875 -13.671875 16.800781 -17.472656 18.90625 -19.859375 C 16.03125 -19.597656 14.234375 -19.351562 13.515625 -19.125 C 12.535156 -18.8125 11.800781 -18.34375 11.3125 -17.71875 C 10.820312 -17.101562 10.578125 -16.472656 10.578125 -15.828125 C 10.578125 -15.617188 10.65625 -15.320312 10.8125 -14.9375 C 10.976562 -14.507812 11.0625 -14.195312 11.0625 -14 C 11.0625 -13.738281 10.960938 -13.507812 10.765625 -13.3125 C 10.566406 -13.113281 10.328125 -13.015625 10.046875 -13.015625 C 9.648438 -13.015625 9.332031 -13.160156 9.09375 -13.453125 C 8.851562 -13.753906 8.734375 -14.203125 8.734375 -14.796875 C 8.734375 -15.640625 8.953125 -16.453125 9.390625 -17.234375 C 9.828125 -18.023438 10.453125 -18.6875 11.265625 -19.21875 C 12.078125 -19.75 13.097656 -20.15625 14.328125 -20.4375 C 14.953125 -20.582031 16.0625 -20.710938 17.65625 -20.828125 C 19.03125 -20.953125 19.890625 -21.066406 20.234375 -21.171875 C 20.785156 -21.316406 21.3125 -21.613281 21.8125 -22.0625 C 21.46875 -20.625 21.21875 -19.367188 21.0625 -18.296875 L 19.703125 -8.1875 L 18.90625 -0.9375 C 19.769531 -0.71875 20.546875 -0.609375 21.234375 -0.609375 C 21.691406 -0.609375 22.1875 -0.660156 22.71875 -0.765625 Z M 17.09375 -7.609375 C 17.65625 -12.347656 18.210938 -15.804688 18.765625 -17.984375 C 17.285156 -16.023438 16.375 -14.789062 16.03125 -14.28125 L 11.53125 -7.609375 C 12.5 -7.578125 13.878906 -7.5625 15.671875 -7.5625 C 16.117188 -7.5625 16.59375 -7.578125 17.09375 -7.609375 Z M 17.09375 -7.609375 "/></g></g></g><g fill="#ffffff" fill-opacity="1"><g transform="translate(174.233648, 305.991366)"><g><path d="M 11.375 -16.828125 L 11.546875 -17.578125 C 12.816406 -17.679688 14.316406 -17.9375 16.046875 -18.34375 C 15.546875 -17.050781 15.101562 -15.582031 14.71875 -13.9375 L 13.5625 -9.0625 C 12.726562 -5.539062 11.796875 -2.878906 10.765625 -1.078125 C 11.765625 -0.878906 12.648438 -0.78125 13.421875 -0.78125 C 15.460938 -0.78125 17.238281 -1.207031 18.75 -2.0625 C 20.269531 -2.925781 21.472656 -4.179688 22.359375 -5.828125 C 23.253906 -7.472656 23.703125 -9.285156 23.703125 -11.265625 C 23.703125 -13.867188 22.941406 -15.957031 21.421875 -17.53125 C 19.910156 -19.113281 17.929688 -19.90625 15.484375 -19.90625 C 13.421875 -19.90625 11.472656 -19.414062 9.640625 -18.4375 C 7.804688 -17.457031 6.351562 -16.160156 5.28125 -14.546875 C 4.21875 -12.929688 3.6875 -11.359375 3.6875 -9.828125 C 3.6875 -8.335938 4.34375 -7.242188 5.65625 -6.546875 C 6.019531 -6.335938 6.257812 -6.15625 6.375 -6 C 6.488281 -5.84375 6.546875 -5.65625 6.546875 -5.4375 C 6.546875 -5.15625 6.4375 -4.90625 6.21875 -4.6875 C 6 -4.476562 5.75 -4.375 5.46875 -4.375 C 4.851562 -4.375 4.253906 -4.78125 3.671875 -5.59375 C 2.878906 -6.738281 2.484375 -7.910156 2.484375 -9.109375 C 2.484375 -11.117188 3.082031 -13.054688 4.28125 -14.921875 C 5.476562 -16.796875 7.140625 -18.285156 9.265625 -19.390625 C 11.398438 -20.503906 13.773438 -21.0625 16.390625 -21.0625 C 19.609375 -21.0625 22.171875 -20.203125 24.078125 -18.484375 C 25.984375 -16.765625 26.9375 -14.601562 26.9375 -12 C 26.9375 -9.582031 26.269531 -7.363281 24.9375 -5.34375 C 23.613281 -3.320312 22.007812 -1.878906 20.125 -1.015625 C 18.238281 -0.160156 16.359375 0.265625 14.484375 0.265625 C 13.878906 0.265625 12.832031 0.207031 11.34375 0.09375 C 10.082031 0 8.882812 -0.046875 7.75 -0.046875 C 7.226562 -0.046875 6.429688 -0.03125 5.359375 0 L 5.75 -0.859375 C 6.820312 -0.910156 7.488281 -1 7.75 -1.125 C 8.019531 -1.257812 8.25 -1.476562 8.4375 -1.78125 C 8.769531 -2.320312 9.226562 -3.488281 9.8125 -5.28125 L 11.015625 -9.84375 L 12.421875 -15.546875 C 12.492188 -15.828125 12.53125 -16.066406 12.53125 -16.265625 C 12.53125 -16.453125 12.46875 -16.597656 12.34375 -16.703125 C 12.226562 -16.816406 12.066406 -16.875 11.859375 -16.875 C 11.773438 -16.875 11.613281 -16.859375 11.375 -16.828125 Z M 11.375 -16.828125 "/></g></g></g><g fill="#ffffff" fill-opacity="1"><g transform="translate(202.900638, 305.991366)"><g/></g></g><g fill="#ffffff" fill-opacity="1"><g transform="translate(214.355201, 305.991366)"><g><path d="M 16 -21.0625 L 16.5 -19.015625 C 16.945312 -17.148438 17.394531 -15.515625 17.84375 -14.109375 C 18.289062 -12.710938 19.425781 -9.476562 21.25 -4.40625 C 21.425781 -5.050781 21.78125 -6.472656 22.3125 -8.671875 C 22.976562 -11.546875 23.425781 -13.347656 23.65625 -14.078125 C 24.300781 -16.234375 24.925781 -17.816406 25.53125 -18.828125 C 26.144531 -19.847656 26.820312 -20.578125 27.5625 -21.015625 C 28.3125 -21.460938 29.160156 -21.6875 30.109375 -21.6875 C 30.867188 -21.6875 31.445312 -21.539062 31.84375 -21.25 C 32.25 -20.957031 32.453125 -20.609375 32.453125 -20.203125 C 32.453125 -19.910156 32.34375 -19.65625 32.125 -19.4375 C 31.90625 -19.21875 31.648438 -19.109375 31.359375 -19.109375 C 31.148438 -19.109375 30.90625 -19.164062 30.625 -19.28125 C 30.039062 -19.507812 29.691406 -19.644531 29.578125 -19.6875 C 29.367188 -19.726562 29.144531 -19.75 28.90625 -19.75 C 28.332031 -19.75 27.84375 -19.554688 27.4375 -19.171875 C 26.707031 -18.492188 25.90625 -16.796875 25.03125 -14.078125 C 24.164062 -11.359375 23.066406 -7.015625 21.734375 -1.046875 L 21.140625 1.5625 C 19.804688 -1.363281 18.90625 -3.441406 18.4375 -4.671875 C 17.8125 -6.316406 17.09375 -8.394531 16.28125 -10.90625 L 14.359375 -16.953125 C 14.128906 -15.554688 13.582031 -13.195312 12.71875 -9.875 C 11.863281 -6.550781 11.359375 -4.640625 11.203125 -4.140625 C 10.660156 -2.566406 10.082031 -1.359375 9.46875 -0.515625 C 8.851562 0.316406 8.179688 0.925781 7.453125 1.3125 C 6.734375 1.695312 5.9375 1.890625 5.0625 1.890625 C 3.957031 1.890625 3.054688 1.644531 2.359375 1.15625 C 1.828125 0.789062 1.5625 0.328125 1.5625 -0.234375 C 1.5625 -0.472656 1.660156 -0.6875 1.859375 -0.875 C 2.054688 -1.070312 2.296875 -1.171875 2.578125 -1.171875 C 2.929688 -1.171875 3.320312 -0.976562 3.75 -0.59375 C 4.488281 0.09375 5.171875 0.4375 5.796875 0.4375 C 6.453125 0.4375 7.101562 0.140625 7.75 -0.453125 C 8.707031 -1.359375 9.628906 -3.265625 10.515625 -6.171875 C 11.585938 -9.679688 12.617188 -14.140625 13.609375 -19.546875 C 13.203125 -19.546875 12.421875 -19.425781 11.265625 -19.1875 C 10.109375 -18.957031 9.140625 -18.628906 8.359375 -18.203125 C 7.585938 -17.773438 6.992188 -17.21875 6.578125 -16.53125 C 6.171875 -15.851562 5.96875 -15.140625 5.96875 -14.390625 C 5.96875 -14.023438 6.019531 -13.648438 6.125 -13.265625 C 6.195312 -13.003906 6.347656 -12.6875 6.578125 -12.3125 C 6.847656 -11.882812 6.984375 -11.5625 6.984375 -11.34375 C 6.984375 -11.0625 6.878906 -10.820312 6.671875 -10.625 C 6.472656 -10.425781 6.21875 -10.328125 5.90625 -10.328125 C 5.46875 -10.328125 5.085938 -10.554688 4.765625 -11.015625 C 4.453125 -11.472656 4.296875 -12.175781 4.296875 -13.125 C 4.296875 -14.6875 4.691406 -16.015625 5.484375 -17.109375 C 6.273438 -18.203125 7.328125 -19.03125 8.640625 -19.59375 C 9.484375 -19.945312 11.101562 -20.285156 13.5 -20.609375 C 14.382812 -20.722656 15.21875 -20.875 16 -21.0625 Z M 16 -21.0625 "/></g></g></g><g fill="#ffffff" fill-opacity="1"><g transform="translate(243.022179, 305.991366)"><g><path d="M 22.71875 -0.765625 L 22.546875 0.234375 C 22.128906 0.265625 21.765625 0.28125 21.453125 0.28125 C 20.992188 0.28125 20.441406 0.242188 19.796875 0.171875 C 18.703125 0.0546875 18.007812 0 17.71875 0 C 17.226562 0 16.476562 0.078125 15.46875 0.234375 C 15.820312 -0.679688 16.125 -1.640625 16.375 -2.640625 C 16.550781 -3.347656 16.738281 -4.570312 16.9375 -6.3125 C 15.570312 -6.320312 13.453125 -6.296875 10.578125 -6.234375 C 7.617188 -1.703125 5.445312 1.140625 4.0625 2.296875 C 2.6875 3.460938 1.375 4.046875 0.125 4.046875 C -0.53125 4.046875 -1.015625 3.914062 -1.328125 3.65625 C -1.648438 3.40625 -1.8125 3.082031 -1.8125 2.6875 C -1.8125 2.382812 -1.71875 2.132812 -1.53125 1.9375 C -1.351562 1.738281 -1.125 1.640625 -0.84375 1.640625 C -0.675781 1.640625 -0.453125 1.671875 -0.171875 1.734375 C 0.523438 1.898438 0.988281 1.984375 1.21875 1.984375 C 2 1.984375 2.863281 1.535156 3.8125 0.640625 C 5.351562 -0.796875 7.628906 -3.828125 10.640625 -8.453125 C 14.046875 -13.671875 16.800781 -17.472656 18.90625 -19.859375 C 16.03125 -19.597656 14.234375 -19.351562 13.515625 -19.125 C 12.535156 -18.8125 11.800781 -18.34375 11.3125 -17.71875 C 10.820312 -17.101562 10.578125 -16.472656 10.578125 -15.828125 C 10.578125 -15.617188 10.65625 -15.320312 10.8125 -14.9375 C 10.976562 -14.507812 11.0625 -14.195312 11.0625 -14 C 11.0625 -13.738281 10.960938 -13.507812 10.765625 -13.3125 C 10.566406 -13.113281 10.328125 -13.015625 10.046875 -13.015625 C 9.648438 -13.015625 9.332031 -13.160156 9.09375 -13.453125 C 8.851562 -13.753906 8.734375 -14.203125 8.734375 -14.796875 C 8.734375 -15.640625 8.953125 -16.453125 9.390625 -17.234375 C 9.828125 -18.023438 10.453125 -18.6875 11.265625 -19.21875 C 12.078125 -19.75 13.097656 -20.15625 14.328125 -20.4375 C 14.953125 -20.582031 16.0625 -20.710938 17.65625 -20.828125 C 19.03125 -20.953125 19.890625 -21.066406 20.234375 -21.171875 C 20.785156 -21.316406 21.3125 -21.613281 21.8125 -22.0625 C 21.46875 -20.625 21.21875 -19.367188 21.0625 -18.296875 L 19.703125 -8.1875 L 18.90625 -0.9375 C 19.769531 -0.71875 20.546875 -0.609375 21.234375 -0.609375 C 21.691406 -0.609375 22.1875 -0.660156 22.71875 -0.765625 Z M 17.09375 -7.609375 C 17.65625 -12.347656 18.210938 -15.804688 18.765625 -17.984375 C 17.285156 -16.023438 16.375 -14.789062 16.03125 -14.28125 L 11.53125 -7.609375 C 12.5 -7.578125 13.878906 -7.5625 15.671875 -7.5625 C 16.117188 -7.5625 16.59375 -7.578125 17.09375 -7.609375 Z M 17.09375 -7.609375 "/></g></g></g><g fill="#ffffff" fill-opacity="1"><g transform="translate(268.820434, 305.991366)"><g><path d="M 17.34375 -1 L 17.09375 0 C 16.289062 0.175781 15.628906 0.265625 15.109375 0.265625 C 14.617188 0.265625 13.8125 0.210938 12.6875 0.109375 C 11.832031 0.0351562 11.066406 0 10.390625 0 C 9.222656 0 8.019531 0.101562 6.78125 0.3125 L 7.03125 -0.640625 C 8.207031 -0.765625 9.066406 -1.007812 9.609375 -1.375 C 9.992188 -1.644531 10.320312 -2.101562 10.59375 -2.75 C 10.863281 -3.394531 11.484375 -5.65625 12.453125 -9.53125 L 14.6875 -18.8125 L 14.8125 -19.25 C 14.125 -19.269531 13.609375 -19.28125 13.265625 -19.28125 C 11.109375 -19.28125 9.394531 -19.046875 8.125 -18.578125 C 6.863281 -18.109375 5.914062 -17.429688 5.28125 -16.546875 C 4.644531 -15.660156 4.328125 -14.707031 4.328125 -13.6875 C 4.328125 -13.320312 4.390625 -12.988281 4.515625 -12.6875 C 4.609375 -12.476562 4.863281 -12.140625 5.28125 -11.671875 C 5.675781 -11.234375 5.875 -10.835938 5.875 -10.484375 C 5.875 -10.160156 5.753906 -9.890625 5.515625 -9.671875 C 5.285156 -9.453125 5.007812 -9.34375 4.6875 -9.34375 C 4.195312 -9.34375 3.800781 -9.578125 3.5 -10.046875 C 3.050781 -10.734375 2.828125 -11.609375 2.828125 -12.671875 C 2.828125 -14.085938 3.265625 -15.46875 4.140625 -16.8125 C 5.023438 -18.15625 6.238281 -19.191406 7.78125 -19.921875 C 9.320312 -20.660156 11.195312 -21.03125 13.40625 -21.03125 C 14.445312 -21.03125 16.117188 -20.878906 18.421875 -20.578125 C 20.054688 -20.367188 21.238281 -20.265625 21.96875 -20.265625 C 22.707031 -20.265625 23.226562 -20.382812 23.53125 -20.625 C 23.832031 -20.875 23.984375 -21.203125 23.984375 -21.609375 C 23.984375 -21.691406 23.96875 -21.851562 23.9375 -22.09375 C 23.894531 -22.3125 23.875 -22.457031 23.875 -22.53125 C 23.875 -22.84375 23.976562 -23.101562 24.1875 -23.3125 C 24.40625 -23.53125 24.660156 -23.640625 24.953125 -23.640625 C 25.296875 -23.640625 25.582031 -23.507812 25.8125 -23.25 C 26.039062 -22.988281 26.15625 -22.644531 26.15625 -22.21875 C 26.15625 -21.332031 25.679688 -20.566406 24.734375 -19.921875 C 23.785156 -19.285156 22.207031 -18.96875 20 -18.96875 C 19.207031 -18.96875 18.359375 -19 17.453125 -19.0625 C 17.335938 -18.644531 16.972656 -17.222656 16.359375 -14.796875 L 14.828125 -8.75 L 13.90625 -5.0625 L 12.953125 -0.84375 C 13.734375 -0.75 14.378906 -0.703125 14.890625 -0.703125 C 15.671875 -0.703125 16.488281 -0.800781 17.34375 -1 Z M 17.34375 -1 "/></g></g></g><g fill="#ffffff" fill-opacity="1"><g transform="translate(290.315573, 305.991366)"><g><path d="M 22.71875 -0.765625 L 22.546875 0.234375 C 22.128906 0.265625 21.765625 0.28125 21.453125 0.28125 C 20.992188 0.28125 20.441406 0.242188 19.796875 0.171875 C 18.703125 0.0546875 18.007812 0 17.71875 0 C 17.226562 0 16.476562 0.078125 15.46875 0.234375 C 15.820312 -0.679688 16.125 -1.640625 16.375 -2.640625 C 16.550781 -3.347656 16.738281 -4.570312 16.9375 -6.3125 C 15.570312 -6.320312 13.453125 -6.296875 10.578125 -6.234375 C 7.617188 -1.703125 5.445312 1.140625 4.0625 2.296875 C 2.6875 3.460938 1.375 4.046875 0.125 4.046875 C -0.53125 4.046875 -1.015625 3.914062 -1.328125 3.65625 C -1.648438 3.40625 -1.8125 3.082031 -1.8125 2.6875 C -1.8125 2.382812 -1.71875 2.132812 -1.53125 1.9375 C -1.351562 1.738281 -1.125 1.640625 -0.84375 1.640625 C -0.675781 1.640625 -0.453125 1.671875 -0.171875 1.734375 C 0.523438 1.898438 0.988281 1.984375 1.21875 1.984375 C 2 1.984375 2.863281 1.535156 3.8125 0.640625 C 5.351562 -0.796875 7.628906 -3.828125 10.640625 -8.453125 C 14.046875 -13.671875 16.800781 -17.472656 18.90625 -19.859375 C 16.03125 -19.597656 14.234375 -19.351562 13.515625 -19.125 C 12.535156 -18.8125 11.800781 -18.34375 11.3125 -17.71875 C 10.820312 -17.101562 10.578125 -16.472656 10.578125 -15.828125 C 10.578125 -15.617188 10.65625 -15.320312 10.8125 -14.9375 C 10.976562 -14.507812 11.0625 -14.195312 11.0625 -14 C 11.0625 -13.738281 10.960938 -13.507812 10.765625 -13.3125 C 10.566406 -13.113281 10.328125 -13.015625 10.046875 -13.015625 C 9.648438 -13.015625 9.332031 -13.160156 9.09375 -13.453125 C 8.851562 -13.753906 8.734375 -14.203125 8.734375 -14.796875 C 8.734375 -15.640625 8.953125 -16.453125 9.390625 -17.234375 C 9.828125 -18.023438 10.453125 -18.6875 11.265625 -19.21875 C 12.078125 -19.75 13.097656 -20.15625 14.328125 -20.4375 C 14.953125 -20.582031 16.0625 -20.710938 17.65625 -20.828125 C 19.03125 -20.953125 19.890625 -21.066406 20.234375 -21.171875 C 20.785156 -21.316406 21.3125 -21.613281 21.8125 -22.0625 C 21.46875 -20.625 21.21875 -19.367188 21.0625 -18.296875 L 19.703125 -8.1875 L 18.90625 -0.9375 C 19.769531 -0.71875 20.546875 -0.609375 21.234375 -0.609375 C 21.691406 -0.609375 22.1875 -0.660156 22.71875 -0.765625 Z M 17.09375 -7.609375 C 17.65625 -12.347656 18.210938 -15.804688 18.765625 -17.984375 C 17.285156 -16.023438 16.375 -14.789062 16.03125 -14.28125 L 11.53125 -7.609375 C 12.5 -7.578125 13.878906 -7.5625 15.671875 -7.5625 C 16.117188 -7.5625 16.59375 -7.578125 17.09375 -7.609375 Z M 17.09375 -7.609375 "/></g></g></g><g fill="#ffffff" fill-opacity="1"><g transform="translate(316.113827, 305.991366)"><g><path d="M 27.140625 -20.640625 L 27.03125 -20.203125 C 26.082031 -19.972656 25.296875 -19.679688 24.671875 -19.328125 C 24.054688 -18.984375 23.226562 -18.347656 22.1875 -17.421875 C 19.394531 -14.984375 16.96875 -13.113281 14.90625 -11.8125 C 15.5 -11.070312 16.003906 -10.25 16.421875 -9.34375 C 16.847656 -8.4375 17.578125 -6.34375 18.609375 -3.0625 C 19.546875 -0.132812 20.5 1.84375 21.46875 2.875 C 22.4375 3.894531 23.421875 4.40625 24.421875 4.40625 C 25.390625 4.40625 26.050781 3.894531 26.40625 2.875 C 26.613281 2.257812 26.789062 1.882812 26.9375 1.75 C 27.144531 1.5625 27.378906 1.46875 27.640625 1.46875 C 27.921875 1.46875 28.160156 1.5625 28.359375 1.75 C 28.554688 1.945312 28.65625 2.179688 28.65625 2.453125 C 28.65625 3.148438 28.238281 3.820312 27.40625 4.46875 C 26.582031 5.125 25.535156 5.453125 24.265625 5.453125 C 23.171875 5.453125 22.128906 5.171875 21.140625 4.609375 C 20.148438 4.054688 19.25 3.175781 18.4375 1.96875 C 17.625 0.769531 16.789062 -1.085938 15.9375 -3.609375 C 15.144531 -5.984375 14.53125 -7.609375 14.09375 -8.484375 C 13.664062 -9.367188 13.066406 -10.300781 12.296875 -11.28125 L 10.4375 -4.203125 C 10.070312 -2.765625 9.84375 -1.738281 9.75 -1.125 C 10.539062 -0.78125 11.25 -0.609375 11.875 -0.609375 C 12.03125 -0.609375 12.25 -0.617188 12.53125 -0.640625 L 12.296875 0.234375 C 12.066406 0.242188 11.921875 0.25 11.859375 0.25 C 11.472656 0.25 10.925781 0.207031 10.21875 0.125 C 9.46875 0.0390625 8.851562 0 8.375 0 C 7.40625 0 5.875 0.1875 3.78125 0.5625 L 3.890625 -0.28125 C 5.003906 -0.5 5.785156 -0.800781 6.234375 -1.1875 C 6.691406 -1.582031 7.054688 -2.203125 7.328125 -3.046875 C 7.941406 -4.929688 8.75 -7.769531 9.75 -11.5625 L 11.875 -19.65625 C 9.570312 -19.519531 7.75 -19 6.40625 -18.09375 C 5.363281 -17.40625 4.84375 -16.632812 4.84375 -15.78125 C 4.84375 -15.476562 4.988281 -15.09375 5.28125 -14.625 C 5.550781 -14.207031 5.6875 -13.867188 5.6875 -13.609375 C 5.6875 -13.296875 5.566406 -13.019531 5.328125 -12.78125 C 5.097656 -12.539062 4.828125 -12.421875 4.515625 -12.421875 C 4.148438 -12.421875 3.820312 -12.597656 3.53125 -12.953125 C 3.25 -13.316406 3.109375 -13.796875 3.109375 -14.390625 C 3.109375 -16.015625 3.914062 -17.476562 5.53125 -18.78125 C 7.144531 -20.082031 9.953125 -20.734375 13.953125 -20.734375 L 15.09375 -20.734375 C 14.457031 -19.066406 14.039062 -17.859375 13.84375 -17.109375 L 12.4375 -11.8125 C 13.300781 -12.132812 14.304688 -12.6875 15.453125 -13.46875 C 16.597656 -14.257812 17.703125 -15.097656 18.765625 -15.984375 C 20.710938 -17.617188 21.820312 -18.613281 22.09375 -18.96875 C 22.175781 -19.082031 22.21875 -19.179688 22.21875 -19.265625 C 22.21875 -19.359375 22.097656 -19.441406 21.859375 -19.515625 C 21.617188 -19.585938 20.945312 -19.632812 19.84375 -19.65625 L 20.0625 -20.640625 C 21.5625 -20.503906 22.785156 -20.4375 23.734375 -20.4375 C 24.710938 -20.4375 25.847656 -20.503906 27.140625 -20.640625 Z M 27.140625 -20.640625 "/></g></g></g></svg>