<svg xmlns="http://www.w3.org/2000/svg" xmlns:xlink="http://www.w3.org/1999/xlink" width="500" zoomAndPan="magnify" viewBox="0 0 375 375" height="500" preserveAspectRatio="xMidYMid meet" xmlns:v="https://vecta.io/nano"><style><![CDATA[.B{fill:#fff}.C{clip-rule:nonzero}]]></style><defs><clipPath id="A"><path d="M114 69.961h12V100h-12zm0 0" class="C"/></clipPath><clipPath id="B"><path d="M79 205h14v48.711H79zm0 0" class="C"/></clipPath><clipPath id="C"><path d="M96 207h15v46.711H96zm0 0" class="C"/></clipPath><clipPath id="D"><path d="M65.668 121H144v85H65.668zm0 0" class="C"/></clipPath><clipPath id="E"><path d="M133 162h53v91.711h-53zm0 0" class="C"/></clipPath><clipPath id="F"><path d="M249 162h53v91.711h-53zm0 0" class="C"/></clipPath><clipPath id="G"><path d="M213 229h11v24.711h-11zm0 0" class="C"/></clipPath><clipPath id="H"><path d="M227 228h11v25.711h-11zm0 0" class="C"/></clipPath><path id="I" d="M51.219 284.929l.5 2.047 1.344 4.906c.445 1.398 1.582 4.633 3.406 9.703.176-.645.531-2.066 1.063-4.266.664-2.875 1.113-4.676 1.344-5.406.645-2.156 1.27-3.738 1.875-4.75.613-1.02 1.289-1.75 2.031-2.187.75-.445 1.598-.672 2.547-.672.758 0 1.336.148 1.734.438.406.293.609.641.609 1.047 0 .293-.109.547-.328.766s-.477.328-.766.328c-.211 0-.453-.055-.734-.172l-1.047-.406a3.67 3.67 0 0 0-.672-.062c-.574 0-1.062.195-1.469.578-.73.68-1.531 2.375-2.406 5.094-.867 2.719-1.965 7.063-3.297 13.031l-.594 2.609c-1.336-2.926-2.234-5.004-2.703-6.234-.625-1.645-1.344-3.723-2.156-6.234l-1.922-6.047c-.23 1.398-.777 3.758-1.641 7.078l-1.516 5.734c-.543 1.574-1.121 2.781-1.734 3.625-.617.832-1.289 1.441-2.016 1.828-.719.383-1.516.578-2.391.578-1.105 0-2.008-.246-2.703-.734-.531-.367-.797-.828-.797-1.391 0-.238.098-.453.297-.641.195-.195.438-.297.719-.297.352 0 .742.195 1.172.578.738.688 1.422 1.031 2.047 1.031.656 0 1.305-.297 1.953-.891.957-.906 1.879-2.812 2.766-5.719 1.07-3.508 2.102-7.969 3.094-13.375-.406 0-1.187.121-2.344.359-1.156.23-2.125.559-2.906.984-.773.43-1.367.984-1.781 1.672-.406.68-.609 1.391-.609 2.141a4.22 4.22 0 0 0 .156 1.125c.07.262.223.578.453.953.27.43.406.75.406.969 0 .281-.105.523-.312.719-.199.199-.453.297-.766.297-.437 0-.82-.227-1.141-.687-.312-.457-.469-1.16-.469-2.109 0-1.562.395-2.891 1.188-3.984s1.844-1.922 3.156-2.484c.844-.352 2.461-.691 4.859-1.016a23.61 23.61 0 0 0 2.5-.453zm0 0"/><path id="J" d="M121.111 285.35l-.109.438c-.949.23-1.734.523-2.359.875-.617.344-1.445.98-2.484 1.906-2.793 2.438-5.219 4.309-7.281 5.609.594.742 1.098 1.563 1.516 2.469.426.906 1.156 3 2.188 6.281.938 2.93 1.891 4.906 2.859 5.938.969 1.02 1.953 1.531 2.953 1.531.969 0 1.629-.512 1.984-1.531.207-.617.383-.992.531-1.125a1.02 1.02 0 0 1 .703-.281 1.01 1.01 0 0 1 .719.281c.195.195.297.43.297.703 0 .695-.418 1.367-1.25 2.016-.824.656-1.871.984-3.141.984-1.094 0-2.137-.281-3.125-.844-.992-.555-1.891-1.434-2.703-2.641-.812-1.199-1.648-3.055-2.5-5.578l-1.844-4.875c-.43-.883-1.027-1.816-1.797-2.797l-1.859 7.078-.687 3.078c.789.344 1.5.516 2.125.516l.656-.031-.234.875-.437.016c-.387 0-.934-.043-1.641-.125l-1.844-.125c-.969 0-2.5.188-4.594.563l.109-.844c1.113-.219 1.895-.52 2.344-.906.457-.395.82-1.016 1.094-1.859l2.422-8.516 2.125-8.094c-2.305.137-4.125.656-5.469 1.563-1.043.688-1.562 1.461-1.562 2.313 0 .305.145.688.438 1.156.27.418.406.758.406 1.016a1.14 1.14 0 0 1-.359.828 1.08 1.08 0 0 1-.812.359c-.367 0-.695-.176-.984-.531-.281-.363-.422-.844-.422-1.437 0-1.625.805-3.086 2.422-4.391s4.422-1.953 8.422-1.953h1.141l-1.25 3.625-1.406 5.297c.863-.32 1.867-.875 3.016-1.656l3.313-2.516 3.328-2.984c.082-.113.125-.211.125-.297 0-.094-.121-.176-.359-.25s-.914-.117-2.016-.141l.219-.984 3.672.203c.977 0 2.113-.066 3.406-.203zm0 0"/><path id="K" d="M171.154 305.225l-.172 1-1.094.047c-.461 0-1.012-.039-1.656-.109l-2.078-.172c-.492 0-1.242.078-2.25.234.352-.914.656-1.875.906-2.875.176-.707.363-1.93.563-3.672-1.367-.008-3.484.016-6.359.078-2.961 4.531-5.133 7.375-6.516 8.531-1.375 1.164-2.687 1.75-3.937 1.75-.656 0-1.141-.133-1.453-.391-.32-.25-.484-.574-.484-.969 0-.305.094-.555.281-.75a.88.88 0 0 1 .688-.297c.168 0 .391.031.672.094.695.164 1.16.25 1.391.25.781 0 1.645-.449 2.594-1.344 1.539-1.437 3.816-4.469 6.828-9.094 3.406-5.219 6.16-9.02 8.266-11.406-2.875.262-4.672.508-5.391.734-.98.313-1.715.781-2.203 1.406-.492.617-.734 1.246-.734 1.891 0 .211.078.508.234.891.164.43.25.742.25.938 0 .262-.102.492-.297.688s-.437.297-.719.297c-.398 0-.715-.145-.953-.437-.242-.301-.359-.75-.359-1.344 0-.844.219-1.656.656-2.437.438-.789 1.063-1.453 1.875-1.984s1.832-.937 3.063-1.219c.625-.145 1.734-.273 3.328-.391 1.375-.125 2.234-.238 2.578-.344.551-.145 1.078-.441 1.578-.891-.344 1.438-.594 2.695-.75 3.766l-1.359 10.109-.797 7.25c.863.219 1.641.328 2.328.328a7.65 7.65 0 0 0 1.484-.156zm-5.625-6.844c.563-4.738 1.117-8.195 1.672-10.375l-2.734 3.703-4.5 6.672c.969.031 2.348.047 4.141.047a22.91 22.91 0 0 0 1.422-.047zm0 0"/></defs><path d="M-37.5-37.5h450v450h-450z" class="B"/><path d="M-37.5-37.5h450v450h-450z"/><path d="M105.648 128.051l4.965 1.215c4.828-2.359 8.117-7.344 8.008-13.066-.129-6.84-5.055-12.453-11.504-13.715.359.965.566 2.004.566 3.094 0 4.902-3.988 8.891-8.895 8.891-3.062 0-5.77-1.555-7.367-3.918a14.14 14.14 0 0 0-1.301 6.184 14.19 14.19 0 0 0 4.434 10.059 62.73 62.73 0 0 1 4.637.242 50.05 50.05 0 0 1 6.059.941c.133.023.266.039.398.074zm.512-22.473a7.15 7.15 0 0 1-.145 1.438c-.094.473-.23.934-.418 1.383a7.25 7.25 0 0 1-.68 1.273 7.39 7.39 0 0 1-2.035 2.031c-.402.269-.824.496-1.273.68a7.07 7.07 0 0 1-1.383.422 7.38 7.38 0 0 1-1.437.141 7.41 7.41 0 0 1-1.437-.141 7.21 7.21 0 0 1-1.383-.422 7.25 7.25 0 0 1-1.273-.68c-.402-.27-.773-.574-1.117-.914s-.645-.715-.914-1.117a7.61 7.61 0 0 1-.684-1.273c-.188-.445-.324-.91-.418-1.383a7.44 7.44 0 0 1-.141-1.437 7.38 7.38 0 0 1 .141-1.437c.094-.477.234-.937.418-1.383a7.39 7.39 0 0 1 .684-1.273 7.45 7.45 0 0 1 .914-1.117 7.39 7.39 0 0 1 1.117-.918 7.25 7.25 0 0 1 1.273-.68 7.58 7.58 0 0 1 1.383-.422 7.41 7.41 0 0 1 1.438-.141 7.38 7.38 0 0 1 1.438.141 7.32 7.32 0 0 1 1.383.422c.445.188.871.41 1.273.68a7.2 7.2 0 0 1 2.035 2.035c.27.402.496.824.68 1.273a7.06 7.06 0 0 1 .418 1.383c.098.473.145.953.145 1.438zm38.36-22.473l-2.457-3.32-22.152 23.102 1.141.82zm0 0" class="B"/><g clip-path="url(#A)" class="B"><path d="M116.023 99.84l9.426-29.77-3.016-.109-7.812 29.766zm0 0"/></g><path d="M153.203 99l-29.387 9.137.648 1.25 30.246-7.773zm0 0" class="B"/><g clip-path="url(#B)" class="B"><path d="M80.398 205.703a3.93 3.93 0 0 1-.758.434v40.773a6.63 6.63 0 0 0 6.629 6.629 6.63 6.63 0 0 0 6.629-6.629v-39.695l-1.164-.102c-4.453-.414-8.187-.898-11.336-1.41zm0 0"/></g><g clip-path="url(#C)" class="B"><path d="M105.207 208.836c-.371 0-.992-.012-1.969-1.012l-6.266-.293v39.379a6.63 6.63 0 0 0 6.629 6.629 6.63 6.63 0 0 0 6.629-6.629v-39.164l-3.215.102c-.395.574-.969.988-1.809.988zm0 0"/></g><g clip-path="url(#D)" class="B"><path d="M82.469 157.168c-.449 2.336-.977 4.168-1.535 5.828h-.023l-15.227 36.195s3.629 3.836 26.238 5.941 26.879-.992 26.879-.992l-8.281-38.387-.023-.004c-.242-1.734-.422-3.633-.434-6.012-.02-5.129 3.262-12.957 5.828-18.293l5.543 11.145a4.32 4.32 0 0 0 3.859 2.391 3.89 3.89 0 0 0 .563-.039c1.828-.242 3.297-1.613 3.66-3.418.016-.059 1.215-5.941 3.434-11.809 3.066-8.098 5.707-9.953 6.469-9.984 2.379-.102 4.223-2.109 4.125-4.488a4.32 4.32 0 0 0-4.488-4.125c-5.664.238-10.297 5.324-14.164 15.547l-.738 2.043-1.687-3.395c-.566-1.137-1.602-1.965-2.832-2.266l-14.348-3.516a4.95 4.95 0 0 0-.469-.09 48.2 48.2 0 0 0-5.766-.887c-10.852-1.012-17.516 1.23-19.539 2.055-.434.176-.66.289-.66.289a5.24 5.24 0 0 0-.625.285 4.31 4.31 0 0 0-1.664 5.863l5.77 10.344v.023c.465 3.637.633 7.172.137 9.754zm0 0"/></g><g clip-path="url(#E)" class="B"><path d="M150.914 193.355a4.4 4.4 0 0 0 .926-.105c.461-.102 2.512-.691 3.047-3.156l.758 5.957v51.055a6.57 6.57 0 0 0 6.57 6.566 6.57 6.57 0 0 0 6.566-6.566v-33.73l3.777-.477v34.207a6.57 6.57 0 0 0 6.566 6.566 6.57 6.57 0 0 0 6.57-6.566v-42.801c0-.59-.086-1.156-.23-1.699.008-.547-.008-1-.047-1.305l-1.91-15.078-1.609-2.383c-7.648-11.508-10.664-13.527-11.785-13.711a5.29 5.29 0 0 1-2.973-1.559c-.426.094-.859.172-1.301.23a15.24 15.24 0 0 1-1.836.113c-3.055 0-5.91-.969-8.27-2.617l-.027.004c-.211.027-.41.074-.609.129-4.359.691-6.27 3.926-7.094 8.727-4.27-8.988-6.805-12.781-10.367-12.93-2.125-.074-3.879 1.551-3.969 3.652a3.82 3.82 0 0 0 2.566 3.762c1.734 1.832 5.355 9.738 7.133 13.621l2.715 5.766c.848 1.66 2.207 4.328 4.832 4.328zm0 0"/></g><path d="M183.742 168.176l.18 2.664c-3.914-5.066-8.023-9.035-12.336-9.738a3.81 3.81 0 0 0-4.379 3.148c-.336 2.078 1.07 4.035 3.148 4.375 3.66.598 10.531 10.938 12.785 14.332l1.785 2.629c.016.02.031.043.043.059 1.207 1.664 2.508 2.5 3.883 2.5.523 0 1.059-.121 1.605-.367.723-.32 2.996-1.648 2.07-5.254-1.191-4.609-4.613-17.867-13.129-18.898 1.484 1.301 2.93 2.848 4.344 4.551zm-18.094-.891l.523-.094a5.32 5.32 0 0 1-.469-3.187c.426-2.594 2.637-4.477 5.262-4.477a5.41 5.41 0 0 1 .867.07c1.184.191 2.34.602 3.48 1.18a12.93 12.93 0 0 0 1.582-8 12.98 12.98 0 0 0-14.508-11.242c-7.109.898-12.145 7.395-11.242 14.504s7.395 12.148 14.504 11.246zm-10.152-9.043c-.574-2.254 3.152-.797 7.043-1.781s6.48-4.035 7.051-1.785-2.125 4.879-6.016 5.863-7.512-.043-8.078-2.297zm0 0" class="B"/><g clip-path="url(#F)" class="B"><path d="M286.004 170.262c-1.187-.195-2.246-.77-3.051-1.641-1.902.879-4.016 1.371-6.246 1.371a14.88 14.88 0 0 1-8.367-2.562c-2.535 1.395-3.812 4.164-4.445 7.855-4.27-8.988-6.801-12.777-10.367-12.926-.055-.004-.105-.004-.16-.004-2.031 0-3.719 1.605-3.805 3.652a3.81 3.81 0 0 0 2.563 3.766c1.734 1.828 5.355 9.738 7.133 13.621l2.719 5.762c.844 1.664 2.207 4.332 4.828 4.332.293 0 .602-.035.93-.105.461-.102 2.512-.691 3.047-3.156l.754 5.957v51.055a6.57 6.57 0 0 0 6.57 6.566 6.57 6.57 0 0 0 6.566-6.566v-33.73l3.777-.477v34.207a6.57 6.57 0 1 0 13.141 0v-42.801c0-.59-.086-1.156-.23-1.699.008-.547-.008-1-.047-1.305l-1.91-15.078c-.457-.652-.996-1.457-1.609-2.383-7.648-11.508-10.668-13.527-11.789-13.711zm0 0"/></g><path d="M308.422 182.645c-1.191-4.598-4.613-17.852-13.129-18.887 1.48 1.301 2.93 2.848 4.344 4.551l.18 2.664c-3.918-5.066-8.027-9.035-12.34-9.738a3.811 3.811 0 1 0-1.227 7.523c3.66.598 10.527 10.938 12.785 14.332l1.785 2.629c.012.02.027.039.039.059 1.207 1.664 2.508 2.5 3.883 2.5.527 0 1.063-.121 1.609-.367.719-.32 2.984-1.645 2.074-5.234 0-.012-.004-.02-.004-.031zm-73.399-12.653c.883.332 1.41.672 1.68.887l.57.324c2.391 1.473 4.59 3.418 6.586 5.809 2.086-.383 3.098-1.754 1.898-1.59-2.125.293-4.902-.711-5.449-8.613-.355-5.109-2.191-7.758-4.406-9.129a14.14 14.14 0 0 1-2.102 5.273c.496 2.023.656 4.641 1.223 7.039zm-11.648-2.222a12.66 12.66 0 0 0 11.141-14.016c-.793-6.949-7.07-11.937-14.016-11.145a12.67 12.67 0 0 0-11.145 14.02c.797 6.949 7.07 11.938 14.02 11.141zm-9.496-6.961c-.57-2.254 3.156-.797 7.047-1.781s6.477-4.035 7.047-1.781-2.121 4.875-6.012 5.859-7.512-.043-8.082-2.297zm0 0" class="B"/><g clip-path="url(#G)" class="B"><path d="M213.27 229.293v19.484c0 2.844 2.309 5.152 5.152 5.152s5.148-2.309 5.148-5.152v-19.176l-2.973.059c-2.996.004-5.457-.168-7.328-.367zm0 0"/></g><g clip-path="url(#H)" class="B"><path d="M227.133 229.395v19.383c0 2.844 2.309 5.152 5.152 5.152s5.148-2.309 5.148-5.152V228l-7.047 1.09-3.254.305zm0 0"/></g><g class="B"><path d="M239.113 191.184c-3.113-2.074-8.906-5.934-14.562-5.934a12.03 12.03 0 0 0-1.422.086c-.211.023-.414.035-.613.035-2.617 0-4.828-1.957-5.137-4.555a5.18 5.18 0 0 1 4.516-5.75c.863-.102 1.746-.156 2.629-.156 4.949 0 9.566 1.633 13.328 3.504l1 2.242c-4.453-2.457-10.418-4.836-16.773-4.074a3.65 3.65 0 0 0-3.187 4.055c.242 1.996 2.059 3.418 4.055 3.184 6.66-.801 13.398 3.684 17.012 6.094 1.582 1.055 3.102 2.066 4.625 2.066.758 0 1.516-.254 2.281-.879.008-.008.016-.008.02-.016.898-.738 2.18-2.426.695-5.434-2.969-6.02-6.707-10.445-11.102-13.148-.211-.133-.43-.242-.641-.363-.004-.008-.395-.383-1.473-.766-3.383-1.594-6.996-2.199-10.781-1.766-1.199.137-4.844.551-8.809 3.199-.465.309-.91.645-1.352.992-.805.527-1.121.926-1.187 1.012-1.637 1.504-3.086 3.293-4.332 5.375-1.602-6.109-3.535-11.184-7.723-11.648a3.65 3.65 0 0 0-1.645 7.051c1.168 1.625 2.613 7.59 3.25 10.211.414 1.703.77 3.176 1.125 4.332.387 1.266 1.301 4.23 4.316 4.273h.047c.566 0 1.953-.152 3.016-1.465-.992 11.301-1.797 25.344-.781 34.242 0 0 7.902 1.855 20.703.391s20.082-5.055 20.082-5.055c-.898-7.844-4.074-19.258-7.227-29.238-1.391-.395-2.687-1.254-3.953-2.098zm42.485-27.047a5.31 5.31 0 0 1 5.258-4.477c.289 0 .582.023.867.07a9.77 9.77 0 0 1 .992.215 12.98 12.98 0 0 0 .973-4.922l-.043-.875-4.941-1.102-.031.164c-.613 2.77-3.359 4.516-6.129 3.898s-4.516-3.359-3.898-6.129c.012-.055.031-.109.043-.16l-2.117-.473-.031.164c-.613 2.77-3.359 4.516-6.129 3.898a5.13 5.13 0 0 1-2.512-1.383 12.88 12.88 0 0 0-.168 1.996A12.98 12.98 0 0 0 276.707 168a12.88 12.88 0 0 0 5.184-1.082 5.29 5.29 0 0 1-.293-2.781zm-14.629-7.25l11.805 2.605c-1.66 1.711-4.137 2.559-6.633 2.008s-4.387-2.359-5.172-4.613zm0 0"/><path d="M275.855 151.25a3.9 3.9 0 0 0 2.957 4.648 3.9 3.9 0 0 0 4.648-2.957 3.9 3.9 0 0 0-2.957-4.648 3.9 3.9 0 0 0-4.648 2.957zm-12.132-2.699c-.465 2.098.859 4.18 2.957 4.645a3.9 3.9 0 0 0 4.648-2.953 3.9 3.9 0 0 0-2.957-4.648c-2.098-.469-4.18.855-4.648 2.957zm6.722-4.891a12.74 12.74 0 0 0-1.328.852c1.922.625 3.254 2.305 3.5 4.234l2.707.602a5.13 5.13 0 0 1 5.449-2.266c2.172.484 3.711 2.277 3.977 4.363l4.688 1.043c-.723-3.637-2.969-6.719-6.039-8.57-.426-.891-.766-1.84-.82-2.66-.078-1.098.352-1.973 1.762-2.191 5.121-.789-3.543-2.062-6.676 1.023a3.17 3.17 0 0 0-.324.363c-.129-.129-.254-.258-.371-.391-1.164-1.332-1.578-2.801.094-4.094 5.211-4.027-5.594.086-6.723 5.512-.148.711-.137 1.441.105 2.18zm-26.625-31.055l19.855 25.105.973-1.02-17.199-26.066zm-12.414 18.098l28.418 11.813.301-1.375-28.199-13.406zm0 0"/><path d="M270.738 134.086l-3.562-31.023-2.797 1.133 5.031 30.363zm-80.425-17.129l19.855 25.105.969-1.02-17.195-26.062zm-12.415 18.102l28.418 11.813.301-1.375-28.199-13.41zm0 0"/><path d="M217.23 138.441l-3.562-31.023-2.797 1.133 5.031 30.359zm0 0"/><use xlink:href="#I"/><path d="M80.12 285.085c-1.18 2.074-2.34 4.715-3.484 7.922-.805 2.281-1.203 4.184-1.203 5.703 0 1.711.41 3.039 1.234 3.984.82.938 1.852 1.406 3.094 1.406 1.156 0 2.25-.289 3.281-.875 1.363-.77 2.625-1.941 3.781-3.516 1.164-1.57 2.113-3.457 2.844-5.656.738-2.195 1.109-4.254 1.109-6.172 0-1.32-.289-2.582-.859-3.781l-.5-1.078a1.68 1.68 0 0 1-.078-.531c0-.344.102-.625.313-.844.219-.227.488-.344.813-.344.539 0 .973.293 1.297.875.445.793.672 2.023.672 3.688 0 3.574-.781 7.133-2.344 10.672-1.562 3.531-3.371 6.059-5.422 7.578-2.043 1.512-4.187 2.266-6.437 2.266-1.836 0-3.242-.609-4.219-1.828s-1.469-2.723-1.469-4.516c0-1.469.227-2.973.688-4.516.594-2.008 1.82-5.02 3.688-9.031-1.461-.039-2.766.137-3.922.531-1.156.387-1.992.887-2.5 1.5-.5.605-.75 1.203-.75 1.797 0 .242.133.574.406 1 .281.48.422.852.422 1.109 0 .344-.109.625-.328.844-.211.219-.469.328-.781.328-.387 0-.727-.172-1.016-.516-.281-.352-.422-.812-.422-1.375 0-.895.258-1.789.781-2.687.531-.906 1.211-1.633 2.047-2.187s1.863-.953 3.094-1.203c.602-.133 1.863-.254 3.781-.359 1.301-.062 2.098-.125 2.391-.187zm0 0"/><use xlink:href="#J"/><use xlink:href="#J" x="27.233"/><use xlink:href="#K"/><path d="M185.609 289.163l.172-.75c1.27-.102 2.77-.359 4.5-.766-.5 1.293-.945 2.762-1.328 4.406l-1.156 4.875c-.836 3.523-1.766 6.184-2.797 7.984 1 .199 1.883.297 2.656.297 2.039 0 3.816-.426 5.328-1.281 1.52-.863 2.723-2.117 3.609-3.766.895-1.645 1.344-3.457 1.344-5.437 0-2.602-.762-4.691-2.281-6.266-1.512-1.582-3.492-2.375-5.937-2.375a12.25 12.25 0 0 0-5.844 1.469c-1.836.98-3.289 2.277-4.359 3.891-1.062 1.617-1.594 3.188-1.594 4.719 0 1.492.656 2.586 1.969 3.281.363.211.602.391.719.547s.172.344.172.563c0 .281-.109.531-.328.75-.219.211-.469.313-.75.313-.617 0-1.215-.406-1.797-1.219-.793-1.145-1.187-2.316-1.187-3.516 0-2.008.598-3.945 1.797-5.812 1.195-1.875 2.859-3.363 4.984-4.469 2.133-1.113 4.508-1.672 7.125-1.672 3.219 0 5.781.859 7.688 2.578s2.859 3.883 2.859 6.484a11.84 11.84 0 0 1-2 6.656c-1.324 2.023-2.93 3.465-4.812 4.328-1.887.855-3.766 1.281-5.641 1.281-.605 0-1.652-.059-3.141-.172l-3.594-.141-2.391.047.391-.859c1.07-.051 1.738-.141 2-.266.27-.133.5-.352.688-.656.332-.539.789-1.707 1.375-3.5l1.203-4.562 1.406-5.703c.07-.281.109-.52.109-.719a.54.54 0 0 0-.187-.437c-.117-.113-.277-.172-.484-.172-.086 0-.246.016-.484.047zm0 0"/><use xlink:href="#I" x="179.136"/><use xlink:href="#K" x="94.587"/><path d="M286.164 304.991l-.25 1c-.805.176-1.465.266-1.984.266-.492 0-1.297-.055-2.422-.156l-2.297-.109a21.47 21.47 0 0 0-3.609.313l.25-.953c1.176-.125 2.035-.367 2.578-.734.383-.27.711-.727.984-1.375s.891-2.906 1.859-6.781l2.234-9.281.125-.437-1.547-.031c-2.156 0-3.871.234-5.141.703-1.262.469-2.211 1.148-2.844 2.031s-.953 1.84-.953 2.859c0 .367.063.699.188 1 .094.211.348.547.766 1.016.395.438.594.836.594 1.188 0 .324-.121.594-.359.813a1.16 1.16 0 0 1-.828.328c-.492 0-.887-.234-1.187-.703-.449-.687-.672-1.562-.672-2.625 0-1.414.438-2.797 1.313-4.141.883-1.344 2.098-2.379 3.641-3.109 1.539-.738 3.414-1.109 5.625-1.109 1.039 0 2.711.152 5.016.453l3.547.313c.738 0 1.258-.117 1.563-.359.301-.25.453-.578.453-.984 0-.082-.016-.242-.047-.484-.043-.219-.062-.363-.062-.437 0-.312.102-.57.313-.781.219-.219.473-.328.766-.328.344 0 .629.133.859.391s.344.605.344 1.031c0 .887-.477 1.652-1.422 2.297-.949.637-2.527.953-4.734.953a37.11 37.11 0 0 1-2.547-.094l-1.094 4.266-1.531 6.047-.922 3.688-.953 4.219 1.938.141c.781 0 1.598-.098 2.453-.297zm0 0"/><use xlink:href="#K" x="141.881"/><use xlink:href="#J" x="222.144"/></g></svg>