<svg xmlns="http://www.w3.org/2000/svg" xmlns:xlink="http://www.w3.org/1999/xlink" width="500" zoomAndPan="magnify" viewBox="0 0 375 374.999991" height="500" preserveAspectRatio="xMidYMid meet" version="1.0"><defs><g/><clipPath id="52a3e2bc61"><path d="M 70 50.65625 L 305 50.65625 L 305 257.65625 L 70 257.65625 Z M 70 50.65625 " clip-rule="nonzero"/></clipPath></defs><rect x="-37.5" width="450" fill="#ffffff" y="-37.499999" height="449.999989" fill-opacity="1"/><rect x="-37.5" width="450" fill="#000000" y="-37.499999" height="449.999989" fill-opacity="1"/><g clip-path="url(#52a3e2bc61)"><path fill="#ffffff" d="M 126.101562 115.894531 C 125.542969 115.433594 124.917969 115.007812 124.433594 114.578125 C 123.90625 114.121094 123.417969 113.4375 122.707031 113.308594 C 122.15625 113.1875 121.621094 113.1875 121.078125 113.1875 C 121.023438 113.242188 120.972656 113.292969 120.902344 113.332031 C 113.976562 118.269531 107.757812 123.066406 102.078125 129.457031 C 99.242188 132.644531 96.71875 136.019531 94.074219 139.359375 C 93.339844 140.285156 92.527344 141.078125 91.710938 141.84375 C 91.9375 141.738281 92.175781 141.644531 92.414062 141.554688 C 94.242188 140.285156 95.9375 139.007812 96.75 138.511719 C 101.214844 135.742188 104.058594 131.429688 107.902344 127.9375 C 111.296875 124.855469 115.984375 123.257812 119.601562 120.558594 C 121.851562 118.867188 123.921875 117.382812 126.101562 115.894531 Z M 127.4375 123.824219 C 127.722656 123.652344 128.003906 123.625 128.273438 123.675781 C 128.066406 121.597656 128.019531 119.527344 128.273438 117.53125 C 119.679688 123.050781 110.769531 128.402344 103.882812 135.996094 C 103.300781 136.613281 102.675781 137.21875 102.023438 137.808594 C 104.164062 136.867188 106.28125 135.820312 108.332031 134.519531 C 111.621094 132.410156 115.472656 131.390625 118.753906 129.320312 C 121.652344 127.476562 124.457031 125.527344 127.4375 123.824219 Z M 131.757812 191.894531 C 131.0625 186.359375 130.359375 180.808594 129.71875 175.273438 C 119.121094 172.160156 109.28125 166.703125 98.683594 163.46875 C 92.289062 161.53125 86.066406 159.40625 79.890625 157.050781 C 81.164062 158.175781 82.496094 159.238281 84.019531 160.035156 C 86.695312 161.417969 89.539062 162.65625 91.953125 164.460938 C 97.351562 168.453125 103.117188 172.113281 108.621094 175.9375 C 116.253906 181.273438 124.640625 185.832031 131.757812 191.894531 Z M 132.90625 201.621094 C 132.867188 201.351562 132.851562 201.078125 132.828125 200.800781 C 132.632812 199.160156 132.425781 197.5 132.226562 195.839844 C 123.90625 188.003906 113.082031 182.558594 103.691406 175.9375 C 98.90625 172.558594 94.277344 168.300781 89.019531 165.570312 C 83.621094 162.785156 79.460938 159.039062 74.523438 155.8125 C 78.023438 164.734375 80.085938 173.851562 82.878906 183.027344 C 83.871094 186.289062 84.332031 190.367188 86.363281 193.164062 C 86.839844 193.796875 88.851562 195.886719 89.1875 196.964844 C 90.074219 199.6875 91.953125 201.925781 92.582031 204.808594 C 97.671875 205.421875 101.648438 208.164062 106.566406 209.328125 C 110.566406 210.269531 114.296875 212.109375 118.308594 212.8125 C 118.449219 212.652344 118.648438 212.539062 118.921875 212.484375 C 121.894531 211.933594 123.441406 208.273438 126.132812 207.070312 C 127.652344 206.375 128.546875 205.398438 129.769531 204.328125 C 130.796875 203.449219 132.019531 202.652344 132.90625 201.621094 Z M 135.894531 244.085938 C 135.894531 242.917969 135.910156 241.921875 135.804688 241.464844 C 134.382812 234.964844 134.910156 228.40625 134.421875 221.796875 C 134 216.09375 133.730469 210.414062 133.203125 204.71875 C 132.644531 205.160156 132.089844 205.621094 131.628906 206.175781 C 130.695312 207.285156 129.574219 208.363281 128.234375 208.960938 C 125.472656 210.199219 123.683594 213.328125 120.972656 214.566406 C 122.59375 218.074219 125.328125 221.003906 126.996094 224.511719 C 128.3125 227.332031 129.328125 230.261719 130.828125 233 C 132.523438 236.074219 133.472656 239.652344 135.300781 242.625 C 135.453125 242.878906 135.667969 243.421875 135.894531 244.085938 Z M 150.339844 244.46875 C 150.101562 243.828125 149.84375 243.199219 149.527344 242.601562 C 147.546875 238.765625 147.738281 232.402344 147.1875 228.066406 C 146.355469 221.613281 144.972656 214.417969 143.273438 208.148438 C 141.5 201.542969 142.058594 194.410156 140.214844 187.980469 C 138.664062 182.542969 137.554688 175.625 137.554688 169.996094 C 137.554688 164.003906 134.824219 158.804688 133.886719 152.992188 C 132.816406 146.308594 131.757812 139.742188 130.101562 133.128906 C 129.542969 130.925781 128.992188 128.5625 128.59375 126.15625 C 128.089844 126.460938 127.578125 126.742188 127.058594 127.050781 C 127.074219 127.109375 127.109375 127.164062 127.109375 127.226562 C 127.386719 133.585938 128.769531 139.726562 129.082031 146.074219 C 129.351562 151.769531 130.152344 157.902344 131.132812 163.527344 C 132.976562 174.019531 133.695312 184.761719 135.125 195.359375 C 136.78125 207.628906 136.230469 220.125 137.308594 232.425781 C 137.792969 237.847656 138.617188 243.136719 139.070312 248.511719 C 139.097656 248.859375 147.464844 245.523438 150.339844 244.46875 Z M 170.609375 214.671875 C 170.53125 214.589844 170.449219 214.511719 170.386719 214.398438 C 166.058594 206.582031 160.371094 199.21875 157.519531 190.585938 C 156.074219 186.214844 153.789062 181.96875 152.640625 177.542969 C 151.617188 173.542969 151.113281 169.460938 150.09375 165.449219 C 147.6875 155.941406 144.527344 146.683594 142.257812 137.140625 C 140.78125 130.910156 136.226562 125.375 136.246094 118.84375 C 134.949219 118.492188 133.664062 117.917969 132.660156 116.988281 C 132.332031 116.664062 131.613281 116.558594 131.109375 116.359375 C 129.566406 123.378906 132.800781 130.269531 133.90625 136.996094 C 134.933594 143.097656 135.925781 149.246094 137.1875 155.277344 C 137.816406 158.214844 139.0625 160.8125 139.464844 163.765625 C 139.824219 166.417969 140.0625 169.339844 140.574219 171.929688 C 141.683594 177.582031 142.164062 183.507812 143.015625 189.1875 C 143.925781 195.3125 144.34375 201.429688 145.796875 207.445312 C 146.777344 211.523438 147.011719 215.710938 148.121094 219.765625 C 148.695312 221.851562 149.636719 223.609375 149.636719 225.78125 C 149.636719 231.265625 151.441406 237.558594 152.519531 242.769531 C 153.199219 246.019531 154.175781 250.449219 155.828125 253.726562 C 156.019531 253.101562 156.21875 252.40625 156.539062 251.992188 C 157.976562 250.25 158.65625 248.269531 159.859375 246.386719 C 161.386719 243.996094 162.40625 241.097656 163.527344 238.453125 C 166.050781 232.511719 167.824219 227.1875 169.277344 220.894531 C 169.746094 218.832031 170.1875 216.757812 170.609375 214.671875 Z M 171.382812 210.839844 C 173.191406 201.140625 174.394531 191.269531 174.707031 181.457031 C 172.8125 182.429688 170.792969 182.988281 168.691406 183.78125 C 166.769531 184.515625 164.875 185.34375 162.957031 186.105469 C 161.671875 186.617188 160.285156 186.75 159.039062 187.285156 C 159.566406 188.683594 160.148438 190.066406 160.800781 191.4375 C 164.027344 198.171875 167.757812 204.417969 171.382812 210.839844 Z M 181.664062 235.578125 C 183.308594 234.175781 184.746094 232.59375 185.777344 230.613281 C 180.425781 230.667969 174.578125 231.171875 169.453125 232.738281 C 169.277344 232.792969 169.117188 232.808594 168.964844 232.777344 C 167.511719 236.746094 165.691406 240.613281 163.949219 244.390625 C 162.71875 247.023438 161.179688 250.464844 159.339844 252.695312 C 159.023438 253.0625 158.828125 253.453125 158.644531 253.828125 C 160.691406 252.421875 162.304688 250.25 164.324219 248.859375 C 167.121094 246.90625 169.445312 244.363281 172.105469 242.3125 C 175.003906 240.066406 178.324219 238.28125 181.144531 236.003906 C 181.265625 235.820312 181.457031 235.683594 181.664062 235.578125 Z M 204.289062 214.734375 C 202.394531 212.8125 200.3125 211.835938 198.667969 209.496094 C 195.957031 205.640625 192.84375 202.171875 189.960938 198.449219 C 185.769531 193.070312 183.042969 185.65625 177.292969 181.671875 C 176.785156 196.375 173.882812 210.621094 171.128906 225.101562 C 170.960938 226.058594 170.722656 226.996094 170.488281 227.9375 C 173.765625 226.132812 177.878906 224.789062 181.175781 224.121094 C 187.558594 222.851562 193.425781 220.230469 199.144531 217.292969 C 200.839844 216.414062 202.5625 215.582031 204.289062 214.734375 Z M 221.761719 206.285156 C 218.113281 203.1875 215.75 199.296875 212.652344 195.71875 C 212.109375 195.601562 211.636719 195.175781 211.582031 194.554688 C 211.390625 194.347656 211.203125 194.144531 211.011719 193.929688 C 206.285156 189.179688 200.863281 179.996094 193.800781 178.757812 C 193.675781 178.742188 193.617188 178.691406 193.523438 178.652344 C 193.394531 178.742188 193.234375 178.8125 193.058594 178.8125 C 190.441406 178.8125 187.070312 178.910156 184.019531 179.242188 C 182.4375 179.425781 180.3125 179.125 178.582031 179.394531 C 184.226562 183.222656 186.980469 189.898438 190.863281 195.273438 C 195.550781 201.78125 200.992188 207.371094 206.390625 213.144531 C 206.507812 213.273438 206.582031 213.417969 206.636719 213.554688 C 211.660156 211.117188 216.730469 208.722656 221.761719 206.285156 Z M 220.308594 228.425781 C 222.265625 224.636719 225.558594 221.867188 227.90625 218.371094 C 225.214844 218.730469 222.722656 218.738281 219.824219 218.417969 C 219.628906 218.402344 219.445312 218.335938 219.296875 218.242188 C 214 221.027344 208.609375 223.609375 202.980469 225.988281 C 198.5 227.882812 193.628906 229.988281 188.675781 230.5 C 187.710938 232.738281 186.40625 234.476562 184.90625 235.949219 C 188.378906 236.699219 191.789062 237.496094 195.367188 238.070312 C 199.402344 238.695312 210.765625 242.992188 213.609375 238.488281 C 215.695312 235.195312 218.519531 231.867188 220.308594 228.425781 Z M 227.710938 69.855469 C 228.160156 67.578125 229.996094 61.140625 230.21875 56.699219 C 226.914062 65.09375 224.40625 74.335938 222.832031 83.0625 C 220.972656 93.246094 217.417969 102.847656 214.273438 112.628906 C 207.484375 133.808594 201.191406 155.171875 194.1875 176.25 C 194.28125 176.25 194.386719 176.226562 194.496094 176.25 C 200.695312 177.335938 205.621094 184.179688 209.535156 188.539062 C 210.414062 189.515625 211.269531 190.5625 212.117188 191.621094 C 213.617188 184.570312 214.640625 177.175781 215.941406 170.113281 C 217.433594 161.992188 218.625 153.789062 218.863281 145.535156 C 219.144531 135.667969 220.949219 125.503906 222.96875 115.839844 C 225.125 105.617188 224.300781 95.3125 226.25 85.085938 C 227.203125 80.070312 226.746094 74.757812 227.710938 69.855469 Z M 283.121094 178.261719 C 284.3125 177.429688 285.519531 176.625 286.734375 175.816406 C 267.933594 185.234375 249.652344 195.640625 230.730469 204.769531 C 225.207031 207.429688 219.8125 210.359375 214.183594 212.960938 C 209.160156 215.300781 203.59375 217.410156 198.929688 220.375 C 191.605469 225.023438 182.054688 225.453125 174.203125 228.941406 C 182.910156 227.410156 191.75 227.90625 200.207031 224.34375 C 212.132812 219.328125 224.390625 214.144531 234.84375 206.414062 C 245.105469 198.792969 256.941406 194.035156 267.644531 187.246094 C 272.714844 184.035156 278.179688 181.695312 283.121094 178.261719 Z M 287.125 178.683594 C 286.8125 178.890625 286.476562 179.085938 286.164062 179.308594 C 281.070312 182.871094 275.542969 185.34375 270.320312 188.644531 C 265.210938 191.878906 259.585938 194.148438 254.433594 197.285156 C 248.308594 201.023438 242.273438 204.953125 236.148438 208.664062 C 231.960938 211.222656 227.761719 213.648438 223.542969 215.972656 C 226.914062 215.910156 230.140625 215.320312 233.613281 214.765625 C 235.011719 214.527344 236.371094 214.511719 237.761719 214.550781 C 241.539062 214.679688 243.550781 212.300781 246.242188 210.199219 C 251.28125 206.269531 256.582031 202.707031 261.625 198.777344 C 268.050781 193.761719 275.832031 189.882812 281.574219 184.089844 C 283.433594 182.230469 285.277344 180.441406 287.125 178.683594 Z M 302.875 165.371094 C 304.078125 164.523438 305.714844 166.21875 304.535156 167.328125 C 302.457031 169.300781 300.039062 170.945312 297.523438 172.488281 C 294.519531 174.796875 291.445312 177.101562 288.984375 179.882812 C 286.214844 182.988281 283.53125 186.421875 280.0625 188.78125 C 272.914062 193.699219 265.910156 198.800781 259.132812 204.21875 C 253.714844 208.554688 247.519531 213.777344 241.320312 216.820312 C 238.65625 218.128906 234.285156 217.554688 231.132812 217.890625 C 231.117188 218.066406 231.066406 218.242188 230.964844 218.425781 C 229.550781 220.925781 227.738281 222.578125 225.972656 224.789062 C 224 227.242188 222.6875 230.0625 220.636719 232.402344 C 218.234375 235.15625 216.523438 241.671875 212.769531 242.96875 C 207.820312 244.675781 201.382812 241.632812 196.40625 240.851562 C 191.628906 240.109375 187.085938 239.046875 182.382812 238.085938 C 179.339844 240.378906 175.898438 242.273438 172.855469 245.285156 C 169.835938 248.292969 166.203125 250.683594 163.015625 253.515625 C 161.152344 255.164062 159.300781 256.917969 156.847656 257.550781 C 156.554688 257.621094 156.3125 257.582031 156.089844 257.496094 C 155.539062 257.636719 155.003906 257.398438 154.660156 256.917969 C 152.535156 253.949219 152.027344 250.394531 151.113281 246.960938 C 151.058594 246.960938 151.019531 246.960938 150.964844 246.960938 C 146.90625 248.34375 142.816406 251.632812 138.535156 251.664062 C 137.816406 251.671875 137.296875 251.28125 136.914062 250.683594 C 136.691406 250.667969 136.46875 250.609375 136.246094 250.449219 C 134.75 249.414062 134.433594 247.863281 134.082031 246.128906 C 133.648438 243.957031 131.628906 240.890625 130.75 238.8125 C 129.082031 234.859375 127.027344 229.46875 124.734375 225.835938 C 122.644531 222.53125 120.046875 219.054688 118.515625 215.46875 C 109.363281 214.054688 101.175781 208.050781 91.855469 207.316406 C 91.417969 207.285156 91.089844 207.078125 90.882812 206.796875 C 90.53125 206.691406 90.25 206.429688 90.15625 205.933594 C 89.539062 202.222656 87.253906 198.792969 85.058594 195.785156 C 82.398438 192.140625 81.585938 188.003906 80.355469 183.738281 C 77.449219 173.519531 75.050781 163.152344 70.707031 153.375 C 69.222656 152.679688 70.539062 150.46875 72.050781 151.125 C 82.289062 155.515625 92.78125 158.453125 103.300781 162.089844 C 112.101562 165.148438 120.542969 169.683594 129.417969 172.4375 C 129.183594 170.203125 128.9375 167.96875 128.738281 165.753906 C 128.152344 159.238281 126.507812 152.617188 126.46875 146.074219 C 126.429688 140.101562 124.992188 134.382812 124.585938 128.472656 C 119.027344 131.652344 113.515625 134.75 107.851562 137.824219 C 102.503906 140.726562 96.917969 142.417969 91.441406 144.726562 C 89.53125 145.71875 87.816406 147.417969 85.625 147.089844 C 85.140625 147.027344 84.882812 146.738281 84.757812 146.402344 C 84.316406 145.941406 84.148438 145.183594 84.722656 144.582031 C 88.023438 141.148438 91.402344 138.488281 94.347656 134.59375 C 96.582031 131.613281 99.074219 128.625 101.695312 125.980469 C 107.390625 120.230469 113.003906 115.777344 119.601562 111.085938 C 119.769531 110.953125 119.953125 110.878906 120.121094 110.855469 C 120.328125 110.695312 120.582031 110.578125 120.902344 110.578125 C 122.8125 110.578125 124.25 110.839844 125.65625 112.171875 C 126.484375 112.941406 127.476562 113.621094 128.296875 114.417969 C 128.609375 114.210938 128.898438 114.011719 129.214844 113.8125 C 129.496094 112.925781 130.582031 112.339844 131.300781 113.242188 C 132.097656 114.25 133.371094 114.082031 134.238281 114.875 C 135.191406 115.777344 136.316406 116.222656 137.578125 116.503906 C 138.296875 116.664062 138.550781 117.253906 138.480469 117.8125 C 138.71875 118.035156 138.863281 118.332031 138.863281 118.738281 C 138.808594 123.257812 141.484375 126.886719 142.898438 131.003906 C 143.953125 134.097656 144.765625 137.125 145.667969 140.261719 C 148.046875 148.417969 150.246094 156.585938 152.609375 164.742188 C 154.566406 171.488281 155.890625 178.300781 158.152344 184.882812 C 159.078125 184.585938 160.027344 184.476562 161.035156 184.089844 C 162.902344 183.332031 164.796875 182.621094 166.640625 181.800781 C 169.628906 180.441406 172.917969 180.105469 175.480469 177.878906 C 175.503906 177.871094 175.515625 177.871094 175.53125 177.855469 C 175.648438 177.703125 175.792969 177.566406 176.015625 177.464844 C 178.195312 176.511719 180.570312 177.007812 182.878906 176.761719 C 185.679688 176.441406 188.929688 176.273438 191.453125 176.226562 C 195.183594 164.980469 198.148438 153.398438 202.453125 142.339844 C 206.390625 132.277344 210.136719 120.960938 212.25 110.34375 C 213.441406 104.402344 216.4375 99.035156 217.914062 93.148438 C 219.03125 88.6875 219.496094 83.902344 220.882812 79.535156 C 223.816406 70.253906 225.476562 61.085938 229.328125 52.085938 C 229.328125 51.8125 229.460938 51.566406 229.667969 51.363281 C 230.035156 50.703125 230.746094 50.6875 231.265625 51.046875 C 231.472656 51.125 231.667969 51.261719 231.835938 51.492188 C 234.164062 54.59375 231.746094 61.660156 231.332031 64.949219 C 230.675781 70.085938 230.882812 75.972656 229.789062 81.003906 C 228.496094 86.953125 227.449219 93 227.441406 99.101562 C 227.441406 103.371094 227.578125 108.308594 226.46875 112.46875 C 223.207031 124.808594 222.226562 137.898438 221.195312 150.554688 C 220.566406 158.175781 219.535156 165.777344 217.984375 173.269531 C 216.539062 180.21875 215.789062 187.414062 214.238281 194.28125 C 217.324219 198.226562 220.492188 202.238281 224.3125 205.046875 C 226.601562 203.921875 228.878906 202.78125 231.132812 201.621094 C 254.707031 189.410156 278.050781 176.367188 302.304688 165.492188 C 302.503906 165.410156 302.691406 165.371094 302.875 165.371094 " fill-opacity="1" fill-rule="nonzero"/></g><g fill="#ffffff" fill-opacity="1"><g transform="translate(101.222028, 308.804629)"><g><path d="M 8.109375 -34.4375 C 7.757812 -34.136719 7.507812 -33.988281 7.40625 -33.9375 C 7.308594 -33.835938 7.257812 -33.835938 7.15625 -33.835938 C 7.058594 -33.835938 6.957031 -33.789062 6.957031 -33.789062 C 6.257812 -33.285156 5.90625 -32.886719 5.804688 -32.535156 L 5.707031 -32.4375 C 5.554688 -32.4375 5.304688 -32.285156 4.957031 -31.984375 C 4.753906 -31.785156 4.554688 -31.433594 4.253906 -30.933594 C 4.203125 -30.832031 4.15625 -30.734375 4.105469 -30.632812 C 4.054688 -30.535156 4.003906 -30.433594 4.003906 -30.433594 C 3.503906 -29.632812 3.304688 -28.832031 3.304688 -28.132812 L 3.304688 -28.03125 C 3.101562 -27.28125 2.953125 -26.480469 2.851562 -25.628906 C 2.703125 -24.277344 2.601562 -23.175781 2.601562 -22.324219 C 2.503906 -21.625 2.503906 -20.421875 2.503906 -18.820312 L 2.503906 -11.914062 C 2.503906 -11.710938 2.503906 -11.460938 2.554688 -11.113281 C 2.554688 -10.710938 2.601562 -10.460938 2.601562 -10.3125 C 2.601562 -8.660156 2.652344 -7.457031 2.851562 -6.65625 C 3.304688 -5.253906 3.605469 -4.503906 3.703125 -4.304688 C 3.902344 -3.703125 4.503906 -2.851562 5.457031 -1.800781 C 5.855469 -1.25 6.65625 -0.699219 7.757812 -0.199219 C 8.660156 0.300781 9.761719 0.5 11.0625 0.402344 C 11.164062 0.402344 11.363281 0.351562 11.710938 0.351562 C 11.8125 0.351562 12.011719 0.402344 12.261719 0.402344 C 12.515625 0.402344 12.714844 0.402344 12.8125 0.402344 C 13.015625 0.402344 13.664062 0.25 14.765625 0 C 15.667969 -0.25 16.367188 -0.300781 16.769531 -0.199219 C 16.867188 -0.0507812 17.019531 -0.0507812 17.167969 -0.199219 C 17.621094 -0.449219 17.917969 -0.699219 18.121094 -0.902344 C 18.171875 -0.949219 18.320312 -1.050781 18.519531 -1.203125 C 18.71875 -1.351562 18.871094 -1.5 19.019531 -1.703125 C 19.121094 -1.851562 19.269531 -2.003906 19.371094 -2.203125 C 19.472656 -2.203125 19.570312 -2.203125 19.570312 -2.253906 C 19.671875 -2.253906 19.722656 -2.253906 19.722656 -2.351562 L 20.472656 -4.054688 C 20.472656 -4.203125 20.574219 -4.554688 20.671875 -5.105469 C 20.773438 -5.605469 20.871094 -6.007812 20.972656 -6.308594 L 21.273438 -6.957031 C 21.375 -8.558594 21.421875 -9.410156 21.421875 -9.460938 C 21.421875 -9.609375 21.421875 -9.710938 21.523438 -9.8125 C 21.523438 -10.011719 21.574219 -10.210938 21.722656 -10.511719 C 21.722656 -10.5625 21.773438 -10.660156 21.824219 -10.761719 C 21.824219 -10.863281 21.875 -10.960938 21.925781 -11.0625 C 22.125 -11.460938 22.175781 -11.8125 22.023438 -12.113281 C 21.925781 -12.113281 21.925781 -12.113281 21.925781 -12.164062 C 22.023438 -12.863281 22.222656 -13.316406 22.425781 -13.515625 C 22.523438 -13.816406 22.574219 -13.964844 22.574219 -14.066406 C 22.574219 -14.164062 22.523438 -14.316406 22.523438 -14.566406 C 22.476562 -14.765625 22.476562 -14.964844 22.476562 -15.117188 C 22.476562 -15.316406 22.523438 -15.71875 22.625 -16.21875 C 22.726562 -16.71875 22.773438 -17.070312 22.773438 -17.320312 C 22.726562 -17.367188 22.726562 -17.417969 22.726562 -17.46875 C 22.726562 -17.46875 22.726562 -17.519531 22.773438 -17.621094 L 22.773438 -17.71875 C 22.824219 -18.519531 22.773438 -19.171875 22.675781 -19.773438 C 22.425781 -19.722656 22.222656 -19.773438 22.125 -19.972656 C 21.972656 -20.121094 21.925781 -20.324219 22.023438 -20.621094 C 22.074219 -20.773438 22.125 -21.023438 22.125 -21.324219 L 21.824219 -24.476562 L 21.824219 -25.929688 C 21.824219 -26.179688 21.773438 -26.328125 21.722656 -26.429688 L 21.671875 -26.527344 C 21.625 -26.578125 21.625 -26.628906 21.625 -26.679688 L 21.273438 -27.53125 L 20.722656 -28.882812 L 19.972656 -30.484375 C 19.972656 -30.535156 19.921875 -30.632812 19.820312 -30.785156 C 19.722656 -30.882812 19.621094 -31.035156 19.621094 -31.183594 C 19.519531 -31.382812 19.222656 -31.835938 18.71875 -32.535156 L 17.871094 -33.085938 L 17.769531 -33.1875 C 17.367188 -33.535156 17.070312 -33.738281 16.769531 -33.789062 C 16.667969 -33.835938 16.417969 -33.9375 16.117188 -34.136719 L 15.316406 -34.539062 C 14.816406 -34.589844 14.566406 -34.636719 14.566406 -34.6875 C 13.964844 -34.988281 13.316406 -35.136719 12.5625 -35.136719 L 10.863281 -35.136719 C 10.660156 -35.136719 10.5625 -35.089844 10.511719 -35.039062 C 10.363281 -34.988281 10.160156 -34.9375 9.859375 -34.886719 C 9.558594 -34.839844 9.308594 -34.789062 9.160156 -34.789062 C 8.960938 -34.636719 8.609375 -34.589844 8.109375 -34.589844 L 8.007812 -34.589844 C 8.058594 -34.539062 8.109375 -34.488281 8.109375 -34.4375 Z M 8.109375 -8.507812 C 8.058594 -8.910156 8.007812 -9.558594 8.007812 -10.460938 C 7.957031 -11.3125 7.910156 -11.964844 7.910156 -12.414062 C 7.808594 -13.113281 7.859375 -14.464844 8.007812 -16.46875 C 8.058594 -16.867188 8.109375 -17.46875 8.109375 -18.320312 C 8.109375 -19.320312 8.109375 -20.324219 8.109375 -21.324219 C 8.109375 -21.421875 8.109375 -21.671875 8.109375 -21.972656 C 8.109375 -22.273438 8.160156 -22.523438 8.160156 -22.726562 L 8.160156 -24.628906 C 8.160156 -25.378906 8.257812 -26.128906 8.507812 -26.828125 C 8.558594 -27.53125 8.660156 -27.929688 8.757812 -28.132812 C 8.859375 -28.429688 9.109375 -28.980469 9.511719 -29.734375 C 9.558594 -29.78125 9.660156 -29.832031 9.8125 -29.933594 C 9.960938 -29.984375 10.0625 -30.03125 10.109375 -30.082031 L 10.613281 -30.234375 C 10.863281 -30.332031 11.0625 -30.382812 11.210938 -30.484375 C 11.5625 -30.582031 11.914062 -30.582031 12.214844 -30.433594 C 13.214844 -29.78125 14.015625 -29.082031 14.667969 -28.382812 C 14.667969 -28.332031 14.714844 -28.28125 14.816406 -28.179688 C 14.867188 -28.082031 14.917969 -27.980469 15.015625 -27.929688 C 15.617188 -26.929688 16.019531 -26.277344 16.117188 -26.078125 C 16.167969 -25.980469 16.316406 -25.578125 16.617188 -24.976562 C 16.617188 -24.878906 16.667969 -24.476562 16.820312 -23.828125 C 16.917969 -23.175781 17.019531 -22.675781 17.070312 -22.375 C 17.269531 -21.574219 17.367188 -20.722656 17.367188 -19.820312 C 17.367188 -19.671875 17.367188 -19.421875 17.320312 -19.121094 C 17.269531 -18.769531 17.269531 -18.519531 17.269531 -18.421875 C 17.269531 -18.21875 17.269531 -17.96875 17.320312 -17.667969 C 17.320312 -17.367188 17.367188 -17.117188 17.367188 -16.96875 C 17.367188 -16.71875 17.417969 -16.367188 17.417969 -15.96875 C 17.417969 -14.667969 17.367188 -13.613281 17.269531 -12.914062 C 17.167969 -12.3125 17.019531 -11.710938 16.867188 -11.113281 C 16.769531 -10.460938 16.617188 -9.960938 16.46875 -9.609375 C 16.367188 -8.910156 16.21875 -8.210938 16.019531 -7.507812 C 16.019531 -7.109375 15.96875 -6.859375 15.917969 -6.65625 C 15.917969 -6.558594 15.867188 -6.507812 15.867188 -6.507812 C 15.316406 -5.707031 15.015625 -5.253906 14.917969 -5.15625 L 13.714844 -4.40625 C 13.613281 -4.355469 13.566406 -4.304688 13.464844 -4.203125 C 13.363281 -4.105469 13.265625 -4.054688 13.265625 -4.054688 C 13.113281 -3.953125 12.914062 -3.855469 12.664062 -3.753906 C 12.414062 -3.605469 12.214844 -3.503906 12.113281 -3.453125 L 11.8125 -3.304688 C 11.460938 -3.101562 11.164062 -3.203125 10.863281 -3.554688 C 10.8125 -3.554688 10.761719 -3.605469 10.660156 -3.703125 C 10.5625 -3.753906 10.460938 -3.804688 10.410156 -3.855469 C 10.363281 -3.855469 10.3125 -3.855469 10.261719 -3.953125 C 10.160156 -3.953125 10.109375 -4.003906 10.109375 -4.054688 C 10.0625 -4.054688 9.960938 -4.105469 9.859375 -4.203125 C 9.710938 -4.304688 9.609375 -4.355469 9.511719 -4.40625 C 9.261719 -4.453125 9.160156 -4.605469 9.160156 -4.90625 C 8.960938 -5.105469 8.859375 -5.40625 8.757812 -5.757812 C 8.660156 -5.90625 8.609375 -6.207031 8.507812 -6.605469 C 8.410156 -7.007812 8.359375 -7.308594 8.257812 -7.507812 C 8.160156 -7.808594 8.109375 -8.160156 8.109375 -8.507812 Z M 8.109375 -8.507812 "/></g></g></g><g fill="#ffffff" fill-opacity="1"><g transform="translate(126.547698, 308.804629)"><g><path d="M 2.503906 -32.285156 C 2.554688 -32.183594 2.703125 -32.136719 3.003906 -32.035156 C 3.101562 -31.933594 3.203125 -31.886719 3.203125 -31.785156 C 3.203125 -31.683594 3.101562 -31.484375 3.003906 -31.234375 C 2.902344 -30.984375 2.851562 -30.785156 2.902344 -30.683594 C 2.902344 -30.382812 2.851562 -29.933594 2.804688 -29.332031 C 2.753906 -28.730469 2.753906 -28.332031 2.753906 -28.082031 C 2.753906 -27.179688 2.753906 -26.578125 2.804688 -26.179688 C 2.804688 -26.078125 2.804688 -26.027344 2.851562 -25.980469 C 2.851562 -25.878906 2.902344 -25.828125 2.902344 -25.828125 L 2.902344 -25.128906 C 2.902344 -24.878906 2.902344 -24.578125 2.953125 -24.175781 C 2.953125 -23.777344 3.003906 -23.476562 3.003906 -23.277344 L 3.003906 -22.523438 C 3.003906 -22.324219 3.054688 -21.972656 3.054688 -21.574219 L 3.054688 -21.375 C 3.054688 -21.171875 3.054688 -20.921875 3.101562 -20.523438 C 3.152344 -20.121094 3.203125 -19.820312 3.203125 -19.621094 L 3.203125 -16.769531 C 3.203125 -16.316406 3.152344 -15.71875 3.101562 -14.964844 C 3.054688 -14.164062 3.054688 -13.613281 3.054688 -13.214844 C 3.054688 -13.113281 3.003906 -12.765625 3.003906 -12.113281 C 2.953125 -11.414062 2.902344 -10.910156 2.902344 -10.613281 C 2.804688 -10.011719 2.753906 -9.410156 2.753906 -8.910156 C 2.703125 -8.410156 2.652344 -6.757812 2.554688 -4.003906 C 2.503906 -3.304688 2.503906 -2.351562 2.503906 -1.152344 C 2.503906 -0.550781 2.554688 -0.199219 2.753906 -0.101562 L 2.753906 0.101562 C 2.753906 0.148438 2.804688 0.199219 2.804688 0.300781 C 3.101562 0.0507812 3.355469 0 3.652344 0.148438 C 3.804688 0.25 4.054688 0.25 4.355469 0.25 C 4.503906 0.25 4.753906 0.25 5.105469 0.148438 C 5.457031 0.0507812 5.707031 0.0507812 5.855469 0.101562 C 6.207031 0.148438 6.605469 0.101562 7.007812 -0.0507812 L 7.109375 -0.0507812 C 7.257812 -0.148438 7.359375 -0.25 7.359375 -0.351562 C 7.457031 -0.75 7.558594 -1.351562 7.558594 -2.253906 C 7.558594 -2.652344 7.609375 -3.253906 7.660156 -4.054688 C 7.707031 -4.804688 7.757812 -5.507812 7.808594 -6.15625 C 7.808594 -6.757812 7.859375 -7.359375 7.859375 -7.910156 C 7.910156 -8.710938 7.957031 -9.910156 7.957031 -11.414062 C 7.957031 -12.414062 7.957031 -13.164062 8.007812 -13.664062 L 8.007812 -15.765625 C 8.007812 -15.96875 8.210938 -16.117188 8.507812 -16.117188 L 10.863281 -16.117188 C 11.3125 -15.867188 11.664062 -15.71875 11.914062 -15.71875 C 11.964844 -15.71875 12.0625 -15.667969 12.164062 -15.617188 L 12.3125 -15.46875 C 12.3125 -15.46875 12.363281 -15.417969 12.414062 -15.367188 C 12.414062 -15.316406 12.464844 -15.316406 12.515625 -15.316406 L 12.863281 -14.714844 C 13.464844 -13.816406 13.863281 -12.863281 14.117188 -11.964844 C 14.164062 -11.761719 14.316406 -11.164062 14.566406 -10.109375 C 14.566406 -9.960938 14.566406 -9.8125 14.617188 -9.609375 C 14.617188 -9.410156 14.667969 -9.210938 14.667969 -9.058594 C 14.667969 -8.859375 14.714844 -8.710938 14.714844 -8.558594 C 14.714844 -8.359375 14.714844 -8.007812 14.714844 -7.609375 C 14.714844 -7.207031 14.765625 -6.90625 14.816406 -6.707031 C 14.816406 -6.457031 14.917969 -6.007812 15.015625 -5.355469 C 15.117188 -4.65625 15.214844 -4.15625 15.265625 -3.804688 C 15.316406 -3.203125 15.367188 -2.402344 15.367188 -1.402344 C 15.417969 -1 15.617188 -0.851562 16.019531 -0.851562 C 16.117188 -0.851562 16.21875 -0.800781 16.269531 -0.800781 L 16.019531 -0.75 L 15.917969 -0.699219 C 15.96875 -0.699219 16.019531 -0.652344 16.117188 -0.652344 C 16.21875 -0.601562 16.269531 -0.601562 16.316406 -0.601562 C 16.71875 -0.402344 17.019531 -0.300781 17.21875 -0.300781 L 17.71875 -0.402344 C 18.019531 -0.402344 18.171875 -0.402344 18.21875 -0.351562 C 18.46875 -0.300781 18.820312 -0.300781 19.222656 -0.402344 C 19.621094 -0.5 19.871094 -0.550781 19.972656 -0.550781 C 20.273438 -0.550781 20.523438 -0.800781 20.621094 -1.203125 C 20.621094 -1.402344 20.621094 -1.652344 20.621094 -2.050781 C 20.621094 -2.453125 20.671875 -2.753906 20.722656 -2.953125 C 20.773438 -3.355469 20.824219 -4.003906 20.824219 -4.90625 C 20.824219 -5.003906 20.773438 -5.253906 20.773438 -5.605469 C 20.722656 -5.90625 20.722656 -6.207031 20.722656 -6.40625 C 20.621094 -7.609375 20.523438 -8.359375 20.523438 -8.609375 C 20.222656 -9.859375 20.070312 -10.660156 20.023438 -10.960938 C 19.972656 -11.164062 19.820312 -11.710938 19.621094 -12.613281 C 19.269531 -13.464844 19.019531 -14.164062 18.871094 -14.667969 C 18.621094 -15.265625 18.46875 -15.617188 18.421875 -15.71875 C 18.320312 -15.816406 18.21875 -16.019531 18.121094 -16.269531 C 17.96875 -16.519531 17.871094 -16.71875 17.871094 -16.820312 C 17.871094 -16.820312 17.820312 -16.917969 17.769531 -17.019531 C 17.71875 -17.117188 17.667969 -17.167969 17.667969 -17.269531 C 17.667969 -17.367188 17.667969 -17.417969 17.667969 -17.46875 C 17.96875 -17.667969 18.171875 -17.820312 18.21875 -17.820312 C 18.621094 -17.96875 18.871094 -18.320312 18.972656 -18.820312 C 19.121094 -19.121094 19.222656 -19.269531 19.269531 -19.320312 C 19.421875 -19.472656 19.621094 -19.570312 19.820312 -19.671875 C 20.171875 -20.472656 20.421875 -20.972656 20.621094 -21.273438 C 20.824219 -21.671875 20.972656 -22.222656 21.074219 -22.875 C 21.125 -23.175781 21.171875 -23.425781 21.273438 -23.574219 C 21.773438 -24.878906 21.824219 -26.128906 21.523438 -27.230469 L 21.523438 -27.480469 C 21.523438 -27.929688 21.375 -28.28125 21.171875 -28.480469 C 20.972656 -28.933594 20.871094 -29.183594 20.871094 -29.28125 C 20.472656 -30.285156 19.921875 -31.085938 19.121094 -31.683594 C 18.820312 -31.835938 18.269531 -32.234375 17.46875 -32.9375 C 16.71875 -33.585938 16.066406 -34.039062 15.46875 -34.238281 C 15.117188 -34.4375 14.566406 -34.6875 13.765625 -34.988281 C 13.664062 -35.039062 13.566406 -35.089844 13.414062 -35.089844 L 12.414062 -35.089844 C 12.011719 -34.988281 11.8125 -35.039062 11.710938 -35.238281 L 11.261719 -35.238281 C 11.113281 -35.238281 10.910156 -35.1875 10.660156 -35.1875 C 10.363281 -35.1875 10.210938 -35.1875 10.109375 -35.1875 C 9.660156 -35.039062 9.308594 -34.988281 9.109375 -35.039062 C 8.960938 -35.039062 8.460938 -34.9375 7.660156 -34.789062 C 7.359375 -34.6875 7.007812 -34.589844 6.507812 -34.488281 C 6.007812 -34.386719 5.65625 -34.289062 5.457031 -34.238281 C 5.355469 -34.1875 5.15625 -34.136719 4.753906 -34.039062 C 4.355469 -33.9375 4.105469 -33.835938 3.902344 -33.789062 L 3.753906 -33.738281 L 3.605469 -33.636719 C 3.503906 -33.6875 3.402344 -33.6875 3.355469 -33.636719 C 3.304688 -33.535156 3.304688 -33.4375 3.402344 -33.335938 C 3.304688 -33.335938 3.152344 -33.285156 3.054688 -33.238281 L 3.402344 -32.886719 C 3.054688 -32.6875 2.753906 -32.484375 2.503906 -32.285156 Z M 15.515625 -25.378906 L 15.816406 -22.875 C 15.71875 -22.675781 15.566406 -22.476562 15.367188 -22.273438 L 13.414062 -21.375 C 13.214844 -21.273438 12.613281 -21.074219 11.613281 -20.871094 C 11.5625 -20.871094 11.460938 -20.871094 11.363281 -20.921875 C 11.210938 -20.972656 11.113281 -21.023438 11.0625 -21.023438 C 10.363281 -20.722656 10.011719 -20.621094 9.910156 -20.621094 L 7.308594 -20.621094 C 7.308594 -20.621094 7.308594 -20.722656 7.308594 -20.824219 C 7.308594 -20.921875 7.359375 -20.972656 7.359375 -21.074219 C 7.359375 -21.574219 7.40625 -22.425781 7.40625 -23.527344 C 7.40625 -25.277344 7.359375 -26.628906 7.359375 -27.53125 C 7.308594 -27.628906 7.308594 -27.78125 7.308594 -28.03125 C 7.308594 -28.082031 7.257812 -28.179688 7.257812 -28.28125 C 7.207031 -28.382812 7.207031 -28.480469 7.207031 -28.53125 C 7.207031 -28.730469 7.308594 -28.882812 7.558594 -29.03125 C 8.058594 -29.230469 8.910156 -29.382812 10.109375 -29.382812 C 10.3125 -29.382812 10.660156 -29.332031 11.113281 -29.332031 C 11.511719 -29.28125 11.863281 -29.28125 12.0625 -29.28125 L 12.8125 -29.28125 C 13.316406 -29.28125 13.664062 -29.082031 13.863281 -28.730469 C 14.316406 -28.230469 14.617188 -27.878906 14.816406 -27.679688 C 15.214844 -27.03125 15.417969 -26.277344 15.515625 -25.378906 Z M 15.515625 -25.378906 "/></g></g></g><g fill="#ffffff" fill-opacity="1"><g transform="translate(149.070527, 308.804629)"><g><path d="M 7.558594 -29.382812 L 7.558594 -25.777344 L 7.40625 -22.023438 L 7.40625 -20.070312 C 7.40625 -18.71875 7.359375 -17.71875 7.359375 -17.117188 C 7.308594 -16.820312 7.257812 -16.417969 7.257812 -15.917969 C 7.207031 -15.367188 7.15625 -14.964844 7.15625 -14.714844 C 7.15625 -14.566406 7.109375 -14.367188 7.058594 -14.066406 C 7.007812 -13.765625 6.957031 -13.566406 6.957031 -13.414062 C 6.90625 -13.015625 6.859375 -12.363281 6.808594 -11.5625 C 6.757812 -10.761719 6.707031 -10.160156 6.707031 -9.761719 C 6.605469 -8.910156 6.558594 -7.707031 6.507812 -6.105469 C 6.507812 -5.90625 6.457031 -5.855469 6.355469 -5.855469 C 5.855469 -5.757812 5.554688 -5.757812 5.507812 -5.757812 C 4.753906 -5.90625 4.15625 -5.957031 3.753906 -5.855469 C 3.453125 -5.757812 3.304688 -5.65625 3.304688 -5.507812 C 3.152344 -5.15625 3.003906 -4.957031 2.851562 -4.90625 C 2.753906 -4.804688 2.753906 -4.707031 2.753906 -4.605469 C 2.703125 -4.503906 2.703125 -4.453125 2.703125 -4.355469 L 2.703125 -4.105469 L 2.402344 -2.253906 C 2.300781 -1.75 2.453125 -1.402344 2.851562 -1.152344 C 2.902344 -1.101562 3.054688 -1 3.355469 -0.800781 C 3.605469 -0.601562 3.804688 -0.5 3.953125 -0.402344 C 4.054688 -0.300781 4.503906 -0.101562 5.207031 0.148438 C 5.304688 0.25 5.554688 0.25 5.855469 0.25 C 5.957031 0.25 6.105469 0.25 6.355469 0.199219 C 6.558594 0.148438 6.707031 0.101562 6.808594 0.101562 L 9.910156 -0.0507812 C 10.613281 -0.0507812 11.113281 -0.0507812 11.460938 -0.101562 C 11.664062 -0.101562 11.964844 -0.101562 12.414062 -0.199219 C 12.8125 -0.25 13.164062 -0.300781 13.414062 -0.300781 L 14.316406 -0.449219 C 14.414062 -0.449219 14.566406 -0.449219 14.765625 -0.5 C 14.964844 -0.5 15.117188 -0.550781 15.214844 -0.550781 C 15.316406 -0.550781 15.566406 -0.5 15.96875 -0.5 C 16.316406 -0.449219 16.617188 -0.449219 16.820312 -0.5 C 17.117188 -0.5 17.269531 -0.699219 17.269531 -1.101562 C 17.21875 -1.402344 17.21875 -1.851562 17.21875 -2.453125 C 17.21875 -2.554688 17.21875 -2.652344 17.269531 -2.851562 C 17.320312 -3.054688 17.367188 -3.152344 17.367188 -3.253906 L 17.320312 -4.304688 C 17.320312 -5.003906 17.367188 -5.355469 17.519531 -5.355469 L 17.519531 -5.457031 C 17.417969 -6.007812 17.070312 -6.308594 16.519531 -6.40625 C 15.765625 -6.457031 15.214844 -6.457031 14.867188 -6.457031 C 14.617188 -6.457031 14.265625 -6.40625 13.816406 -6.355469 C 13.316406 -6.308594 13.0625 -6.308594 13.015625 -6.308594 C 12.8125 -6.308594 12.714844 -6.355469 12.714844 -6.558594 L 12.714844 -7.15625 C 12.714844 -7.558594 12.714844 -8.210938 12.714844 -9.109375 C 12.714844 -9.960938 12.765625 -10.613281 12.765625 -11.113281 C 12.765625 -11.460938 12.714844 -12.011719 12.714844 -12.765625 C 12.714844 -13.464844 12.714844 -14.015625 12.714844 -14.414062 C 12.664062 -14.867188 12.664062 -15.566406 12.664062 -16.519531 C 12.664062 -16.71875 12.664062 -16.96875 12.664062 -17.320312 C 12.664062 -17.621094 12.714844 -17.917969 12.714844 -18.121094 L 12.714844 -21.671875 C 12.714844 -21.875 12.664062 -22.222656 12.664062 -22.726562 C 12.664062 -23.226562 12.664062 -23.574219 12.664062 -23.828125 C 12.664062 -23.976562 12.664062 -24.226562 12.765625 -24.578125 C 12.863281 -24.925781 12.914062 -25.226562 12.964844 -25.429688 C 12.964844 -25.628906 13.015625 -25.980469 13.015625 -26.429688 C 13.015625 -26.878906 13.0625 -27.230469 13.0625 -27.480469 C 13.0625 -27.582031 13.113281 -27.78125 13.113281 -28.082031 C 13.113281 -28.382812 13.113281 -28.582031 13.164062 -28.730469 C 13.164062 -28.832031 13.164062 -28.933594 13.265625 -28.933594 C 13.515625 -28.980469 13.714844 -29.03125 13.816406 -29.03125 L 15.96875 -29.183594 C 16.46875 -29.230469 16.769531 -29.132812 16.867188 -28.933594 C 17.21875 -29.230469 17.570312 -29.433594 17.96875 -29.53125 C 18.171875 -29.582031 18.269531 -29.683594 18.21875 -29.882812 C 18.171875 -29.882812 18.171875 -29.984375 18.269531 -30.132812 C 18.371094 -30.234375 18.46875 -30.332031 18.519531 -30.433594 C 18.570312 -30.734375 18.621094 -31.035156 18.71875 -31.234375 C 18.769531 -31.632812 18.769531 -31.984375 18.671875 -32.183594 C 18.519531 -32.386719 18.46875 -32.6875 18.46875 -32.984375 C 18.46875 -33.035156 18.421875 -33.136719 18.421875 -33.285156 C 18.421875 -33.4375 18.421875 -33.585938 18.421875 -33.6875 C 18.421875 -33.789062 18.371094 -33.886719 18.269531 -33.886719 C 18.121094 -33.886719 17.917969 -34.085938 17.71875 -34.4375 C 17.519531 -34.839844 17.269531 -35.039062 16.96875 -35.089844 C 16.820312 -35.089844 16.566406 -35.136719 16.269531 -35.136719 C 15.96875 -35.136719 15.617188 -35.089844 15.117188 -35.089844 C 14.617188 -35.039062 14.214844 -35.039062 13.964844 -35.039062 C 13.363281 -35.039062 12.515625 -34.988281 11.414062 -34.9375 C 10.261719 -34.886719 9.660156 -34.886719 9.660156 -34.886719 C 9.558594 -34.886719 9.410156 -34.886719 9.261719 -34.988281 C 9.058594 -35.039062 8.960938 -35.089844 8.910156 -35.089844 C 8.859375 -35.039062 8.808594 -35.039062 8.757812 -35.039062 C 8.660156 -35.039062 8.609375 -34.988281 8.609375 -34.988281 C 8.507812 -34.886719 8.210938 -34.886719 7.707031 -34.9375 C 7.15625 -34.988281 6.859375 -35.039062 6.808594 -35.039062 C 6.207031 -35.039062 5.304688 -35.039062 4.203125 -35.136719 L 3.652344 -35.136719 C 3.402344 -34.839844 3.253906 -34.589844 3.253906 -34.4375 C 3.203125 -34.335938 3.152344 -34.136719 3.101562 -33.886719 C 3.003906 -33.636719 2.953125 -33.488281 2.953125 -33.386719 C 2.953125 -33.285156 2.953125 -33.085938 3.003906 -32.835938 C 3.003906 -32.4375 2.902344 -32.183594 2.804688 -32.085938 C 2.753906 -32.035156 2.753906 -31.984375 2.753906 -31.886719 C 2.753906 -31.683594 2.851562 -31.433594 3.003906 -31.035156 C 3.054688 -30.632812 3.003906 -30.332031 2.851562 -30.234375 C 3.101562 -29.832031 3.203125 -29.582031 3.203125 -29.433594 L 4.003906 -29.433594 C 5.207031 -29.332031 6.105469 -29.332031 6.707031 -29.332031 C 6.859375 -29.332031 6.957031 -29.28125 7.007812 -29.28125 C 7.007812 -29.230469 7.058594 -29.132812 7.058594 -28.980469 C 7.058594 -28.933594 7.058594 -28.933594 7.109375 -28.933594 C 7.109375 -28.933594 7.109375 -28.980469 7.109375 -28.980469 C 7.109375 -28.980469 7.15625 -29.03125 7.15625 -29.082031 C 7.257812 -29.28125 7.359375 -29.382812 7.558594 -29.382812 Z M 7.558594 -29.382812 "/></g></g></g><g fill="#ffffff" fill-opacity="1"><g transform="translate(169.34108, 308.804629)"><g><path d="M 7.40625 -33.535156 C 7.308594 -33.4375 7.257812 -33.386719 7.257812 -33.335938 L 7.207031 -33.238281 C 6.707031 -32.886719 6.257812 -32.484375 5.855469 -32.085938 C 5.65625 -31.886719 5.457031 -31.632812 5.207031 -31.335938 C 4.90625 -30.984375 4.753906 -30.785156 4.707031 -30.734375 C 4.65625 -30.683594 4.554688 -30.582031 4.40625 -30.433594 C 4.253906 -30.234375 4.15625 -30.132812 4.105469 -30.082031 C 3.804688 -29.582031 3.605469 -29.132812 3.503906 -28.832031 C 3.054688 -28.132812 2.804688 -27.429688 2.804688 -26.730469 C 2.804688 -26.578125 2.703125 -26.328125 2.601562 -25.929688 C 2.554688 -25.726562 2.453125 -25.476562 2.351562 -25.128906 C 2.253906 -24.726562 2.152344 -24.476562 2.152344 -24.375 C 2.050781 -24.175781 2.003906 -23.976562 2.003906 -23.675781 C 1.953125 -23.375 1.902344 -23.175781 1.902344 -23.074219 L 1.75 -21.824219 L 1.601562 -19.269531 C 1.601562 -19.019531 1.550781 -18.671875 1.550781 -18.269531 C 1.550781 -17.871094 1.550781 -17.570312 1.550781 -17.367188 L 1.75 -16.066406 C 1.75 -15.765625 1.851562 -15.367188 1.953125 -14.867188 C 2.050781 -14.367188 2.101562 -13.964844 2.152344 -13.765625 C 2.351562 -12.863281 2.503906 -12.363281 2.554688 -12.214844 C 2.601562 -11.914062 2.652344 -11.460938 2.753906 -10.960938 C 2.804688 -10.460938 2.851562 -9.960938 2.953125 -9.558594 C 3.054688 -9.109375 3.152344 -8.710938 3.304688 -8.359375 C 3.402344 -8.109375 3.503906 -7.707031 3.703125 -7.109375 C 3.902344 -6.507812 4.054688 -6.105469 4.203125 -5.804688 C 4.304688 -5.507812 4.453125 -5.207031 4.65625 -4.90625 C 4.855469 -4.605469 5.15625 -4.304688 5.554688 -4.003906 C 5.90625 -3.652344 6.15625 -3.402344 6.308594 -3.253906 C 6.40625 -3.101562 6.605469 -2.953125 6.90625 -2.753906 C 7.207031 -2.554688 7.40625 -2.351562 7.558594 -2.253906 C 8.359375 -1.601562 8.859375 -1.25 9.109375 -1.203125 C 9.261719 -1.152344 9.511719 -1.050781 9.8125 -0.949219 C 10.109375 -0.800781 10.410156 -0.699219 10.613281 -0.652344 C 10.710938 -0.550781 10.960938 -0.402344 11.363281 -0.300781 C 11.710938 -0.199219 11.964844 -0.101562 12.113281 -0.0507812 L 13.164062 -0.0507812 C 13.414062 0 13.714844 -0.0507812 14.015625 -0.148438 C 14.117188 -0.148438 14.464844 -0.300781 15.066406 -0.5 C 15.167969 -0.5 15.417969 -0.550781 15.816406 -0.550781 C 16.167969 -0.550781 16.46875 -0.601562 16.71875 -0.699219 C 16.820312 -0.75 16.917969 -0.800781 17.019531 -0.851562 C 17.117188 -0.851562 17.269531 -0.902344 17.417969 -0.949219 C 17.570312 -0.949219 17.667969 -1 17.769531 -1.050781 C 18.171875 -1.203125 18.46875 -1.402344 18.71875 -1.601562 C 19.222656 -1.703125 19.621094 -1.851562 19.921875 -2.003906 C 20.824219 -2.601562 21.523438 -3.304688 21.972656 -4.203125 C 22.375 -4.855469 22.675781 -5.757812 22.875 -6.859375 C 22.875 -7.058594 22.875 -7.308594 22.875 -7.707031 C 22.875 -8.058594 22.925781 -8.410156 22.925781 -8.710938 C 22.925781 -9.011719 22.976562 -9.261719 23.023438 -9.558594 C 23.023438 -9.761719 23.023438 -10.109375 22.925781 -10.5625 C 22.824219 -11.011719 22.824219 -11.363281 22.824219 -11.5625 C 22.824219 -11.761719 22.875 -12.011719 22.875 -12.3125 C 22.773438 -12.464844 22.875 -12.5625 23.074219 -12.664062 C 23.175781 -12.765625 23.425781 -12.8125 23.777344 -12.8125 C 24.175781 -12.964844 24.777344 -13.113281 25.679688 -13.265625 C 25.679688 -13.265625 25.726562 -13.265625 25.828125 -13.316406 L 26.027344 -13.464844 C 26.078125 -13.515625 26.128906 -13.566406 26.179688 -13.613281 C 26.230469 -13.714844 26.277344 -13.863281 26.277344 -14.066406 C 26.527344 -14.867188 26.429688 -15.566406 25.929688 -16.167969 C 25.878906 -16.21875 25.878906 -16.316406 25.878906 -16.46875 C 26.078125 -16.667969 25.980469 -16.867188 25.679688 -16.96875 C 24.777344 -17.570312 23.925781 -17.769531 23.125 -17.570312 C 23.074219 -17.519531 23.023438 -17.519531 22.925781 -17.519531 C 22.824219 -17.519531 22.324219 -17.46875 21.421875 -17.417969 C 20.472656 -17.320312 19.773438 -17.269531 19.269531 -17.21875 C 18.871094 -17.167969 18.320312 -17.070312 17.519531 -16.96875 C 16.71875 -16.867188 16.167969 -16.769531 15.765625 -16.769531 C 15.515625 -16.667969 14.917969 -16.617188 14.015625 -16.566406 C 13.863281 -16.566406 13.664062 -16.566406 13.414062 -16.617188 C 13.113281 -16.617188 12.964844 -16.667969 12.964844 -16.667969 C 12.8125 -16.617188 12.664062 -16.566406 12.464844 -16.519531 C 12.261719 -16.46875 12.164062 -16.46875 12.0625 -16.46875 C 11.863281 -16.367188 11.710938 -16.019531 11.5625 -15.417969 L 11.5625 -12.8125 C 11.5625 -12.613281 11.511719 -12.464844 11.511719 -12.464844 C 11.414062 -12.363281 11.414062 -12.261719 11.460938 -12.0625 C 11.460938 -11.863281 11.511719 -11.710938 11.613281 -11.710938 C 11.914062 -11.5625 12.164062 -11.460938 12.3125 -11.460938 C 12.8125 -11.363281 13.414062 -11.3125 14.214844 -11.414062 C 14.265625 -11.414062 14.367188 -11.414062 14.566406 -11.460938 C 14.714844 -11.460938 14.816406 -11.511719 14.917969 -11.511719 L 16.117188 -11.710938 C 16.867188 -11.8125 17.519531 -11.914062 18.019531 -12.0625 C 18.269531 -12.0625 18.46875 -11.964844 18.570312 -11.8125 L 18.570312 -11.460938 C 18.621094 -11.261719 18.71875 -10.710938 18.820312 -9.910156 C 18.871094 -9.558594 18.871094 -9.359375 18.820312 -9.308594 C 18.71875 -9.160156 18.671875 -8.960938 18.671875 -8.660156 C 18.671875 -8.359375 18.621094 -8.160156 18.621094 -8.058594 C 18.570312 -7.957031 18.519531 -7.808594 18.519531 -7.609375 C 18.46875 -7.359375 18.421875 -7.15625 18.320312 -7.007812 C 18.21875 -6.859375 18.121094 -6.757812 17.96875 -6.65625 L 17.96875 -6.605469 C 17.917969 -6.40625 17.71875 -6.257812 17.367188 -6.058594 C 16.566406 -5.65625 16.066406 -5.40625 15.816406 -5.40625 C 14.917969 -5.003906 14.164062 -4.855469 13.515625 -4.855469 C 13.265625 -4.855469 12.914062 -4.90625 12.515625 -4.957031 C 12.113281 -4.957031 11.761719 -5.003906 11.5625 -5.054688 C 11.363281 -5.054688 11.3125 -5.054688 11.3125 -5.105469 L 9.511719 -6.15625 L 9.410156 -6.308594 C 9.359375 -6.40625 9.308594 -6.558594 9.210938 -6.808594 C 9.109375 -7.007812 9.011719 -7.207031 9.011719 -7.359375 C 8.410156 -8.558594 7.957031 -9.8125 7.660156 -11.011719 C 7.558594 -11.3125 7.457031 -11.460938 7.457031 -11.5625 C 7.457031 -11.664062 7.40625 -11.863281 7.359375 -12.113281 C 7.257812 -12.3125 7.207031 -12.515625 7.207031 -12.714844 L 6.90625 -14.816406 C 6.859375 -15.167969 6.757812 -15.566406 6.65625 -16.019531 C 6.757812 -16.019531 6.90625 -15.96875 7.007812 -15.917969 L 6.757812 -16.417969 L 6.757812 -16.519531 C 6.859375 -16.566406 6.859375 -16.769531 6.808594 -17.167969 C 6.808594 -17.269531 6.757812 -17.519531 6.65625 -17.917969 C 6.558594 -18.320312 6.507812 -18.671875 6.558594 -18.972656 C 6.65625 -19.070312 6.65625 -19.171875 6.605469 -19.320312 C 6.507812 -19.519531 6.507812 -20.070312 6.605469 -20.972656 C 6.808594 -21.972656 6.957031 -23.074219 7.058594 -24.175781 C 7.207031 -24.476562 7.308594 -24.726562 7.308594 -24.925781 C 7.207031 -25.328125 7.15625 -25.628906 7.207031 -25.828125 C 7.257812 -26.230469 7.359375 -26.527344 7.558594 -26.730469 C 7.808594 -26.929688 8.007812 -27.28125 8.160156 -27.832031 C 8.257812 -28.132812 8.359375 -28.332031 8.460938 -28.429688 C 8.460938 -28.480469 8.660156 -28.679688 9.058594 -29.082031 C 9.109375 -29.28125 9.210938 -29.382812 9.308594 -29.433594 L 9.558594 -29.53125 L 9.859375 -29.683594 C 9.960938 -29.734375 10.0625 -29.78125 10.160156 -29.78125 C 10.660156 -30.082031 11.414062 -30.285156 12.3125 -30.484375 C 13.015625 -30.535156 13.664062 -30.433594 14.367188 -30.132812 C 14.765625 -29.984375 15.015625 -29.78125 15.167969 -29.53125 L 15.617188 -28.632812 C 15.71875 -28.582031 15.816406 -28.480469 15.917969 -28.332031 C 15.917969 -28.28125 15.96875 -28.179688 16.066406 -27.980469 C 16.117188 -27.78125 16.167969 -27.628906 16.269531 -27.53125 C 16.269531 -27.480469 16.316406 -27.429688 16.417969 -27.328125 C 16.617188 -26.230469 16.769531 -25.527344 16.769531 -25.277344 C 16.820312 -24.375 16.96875 -23.625 17.167969 -23.074219 C 17.167969 -22.976562 17.21875 -22.925781 17.367188 -22.875 C 17.769531 -22.675781 18.070312 -22.523438 18.371094 -22.523438 C 18.371094 -22.476562 18.46875 -22.476562 18.570312 -22.523438 C 19.472656 -22.574219 20.273438 -22.726562 20.972656 -22.976562 C 20.972656 -22.976562 21.023438 -22.976562 21.074219 -23.023438 C 21.074219 -23.074219 21.125 -23.125 21.171875 -23.125 C 21.375 -22.925781 21.875 -22.976562 22.574219 -23.175781 C 23.175781 -23.375 23.527344 -23.527344 23.625 -23.625 C 23.777344 -23.925781 23.875 -24.125 23.875 -24.175781 C 23.726562 -24.828125 23.625 -25.476562 23.574219 -26.179688 C 23.476562 -26.328125 23.476562 -26.578125 23.476562 -26.878906 C 23.425781 -26.980469 23.375 -27.128906 23.375 -27.378906 C 23.375 -27.582031 23.375 -27.78125 23.375 -27.878906 C 23.277344 -28.03125 23.175781 -28.230469 23.175781 -28.429688 C 22.976562 -28.632812 22.824219 -29.082031 22.726562 -29.683594 C 22.675781 -29.683594 22.625 -29.78125 22.574219 -29.882812 C 22.476562 -29.984375 22.425781 -30.03125 22.375 -30.132812 C 22.375 -30.132812 22.222656 -30.484375 21.972656 -31.085938 C 21.925781 -31.085938 21.875 -31.183594 21.773438 -31.335938 C 21.671875 -31.433594 21.574219 -31.535156 21.574219 -31.632812 C 21.472656 -31.886719 21.273438 -32.136719 21.023438 -32.4375 C 20.523438 -32.835938 20.023438 -33.1875 19.519531 -33.585938 C 19.421875 -33.636719 19.320312 -33.6875 19.121094 -33.738281 C 18.921875 -33.789062 18.769531 -33.886719 18.71875 -33.988281 C 18.320312 -34.289062 17.820312 -34.488281 17.320312 -34.539062 C 17.21875 -34.539062 17.070312 -34.589844 16.867188 -34.6875 C 16.667969 -34.789062 16.566406 -34.839844 16.566406 -34.839844 C 16.46875 -34.839844 16.316406 -34.886719 16.21875 -34.886719 C 16.117188 -34.886719 15.96875 -34.9375 15.816406 -34.988281 C 15.667969 -34.988281 15.566406 -35.039062 15.566406 -35.039062 C 15.167969 -35.238281 14.714844 -35.289062 14.265625 -35.238281 C 14.214844 -35.238281 14.164062 -35.1875 14.117188 -35.1875 C 14.015625 -35.136719 13.964844 -35.136719 13.914062 -35.1875 C 13.714844 -35.238281 13.265625 -35.238281 12.5625 -35.1875 C 12.414062 -35.1875 12.113281 -35.136719 11.710938 -35.136719 C 11.261719 -35.136719 10.910156 -35.089844 10.710938 -35.089844 C 10.511719 -35.039062 10.210938 -34.9375 9.8125 -34.789062 C 9.410156 -34.589844 9.109375 -34.488281 8.910156 -34.488281 L 8.757812 -34.386719 C 8.558594 -34.289062 8.160156 -34.039062 7.660156 -33.6875 Z M 7.40625 -33.535156 "/></g></g></g><g fill="#ffffff" fill-opacity="1"><g transform="translate(195.067156, 308.804629)"><g><path d="M 11.261719 -34.9375 L 11.164062 -34.9375 C 11.164062 -34.636719 11.0625 -34.488281 10.8125 -34.488281 C 10.511719 -34.4375 10.0625 -34.4375 9.511719 -34.4375 C 9.210938 -34.4375 9.058594 -34.386719 9.011719 -34.386719 C 8.808594 -34.289062 8.507812 -34.085938 8.109375 -33.835938 C 7.457031 -33.386719 7.007812 -32.984375 6.757812 -32.585938 C 6.355469 -32.136719 6.007812 -31.683594 5.707031 -31.234375 C 5.40625 -30.785156 5.207031 -30.535156 5.207031 -30.433594 C 5.105469 -30.183594 4.804688 -29.183594 4.203125 -27.378906 C 4.203125 -27.28125 4.105469 -26.878906 3.902344 -26.128906 C 3.902344 -26.027344 3.855469 -25.578125 3.753906 -24.675781 C 3.703125 -24.425781 3.703125 -24.027344 3.703125 -23.527344 L 3.554688 -20.523438 C 3.554688 -20.324219 3.503906 -20.023438 3.503906 -19.722656 C 3.503906 -19.371094 3.503906 -19.121094 3.503906 -18.972656 C 3.453125 -18.570312 3.402344 -18.019531 3.355469 -17.269531 C 3.304688 -16.46875 3.253906 -15.917969 3.253906 -15.515625 C 3.253906 -14.964844 3.203125 -14.265625 3.152344 -13.414062 L 3.152344 -12.0625 C 3.101562 -11.613281 3.054688 -10.910156 2.953125 -9.960938 C 2.851562 -9.011719 2.804688 -8.308594 2.804688 -7.808594 C 2.804688 -7.457031 2.753906 -6.957031 2.753906 -6.308594 C 2.753906 -5.65625 2.753906 -5.207031 2.753906 -4.90625 L 2.753906 -2.851562 C 2.753906 -2.253906 2.703125 -1.800781 2.601562 -1.601562 L 2.601562 -1.300781 C 2.652344 -1.203125 2.703125 -1.050781 2.753906 -0.902344 C 2.804688 -0.699219 2.851562 -0.601562 2.953125 -0.550781 L 3.304688 -0.199219 C 3.503906 -0.0507812 3.605469 0.101562 3.703125 0.25 C 3.703125 0.300781 3.753906 0.351562 3.855469 0.351562 C 3.855469 0.449219 3.902344 0.449219 3.953125 0.449219 C 4.15625 0.550781 4.65625 0.601562 5.40625 0.601562 L 7.207031 0.449219 C 7.359375 0.402344 7.457031 0.25 7.558594 0.0507812 L 7.707031 -1.75 L 7.707031 -3.402344 L 7.660156 -4.105469 C 7.609375 -4.605469 7.609375 -4.855469 7.707031 -4.855469 C 7.707031 -5.253906 7.660156 -5.804688 7.558594 -6.558594 C 7.507812 -6.707031 7.457031 -6.957031 7.457031 -7.308594 C 7.457031 -7.609375 7.457031 -7.859375 7.457031 -7.957031 C 7.457031 -8.007812 7.457031 -8.160156 7.507812 -8.359375 C 7.507812 -8.558594 7.507812 -8.660156 7.507812 -8.757812 C 7.308594 -9.410156 7.308594 -10.011719 7.507812 -10.613281 C 7.507812 -10.613281 7.457031 -10.660156 7.457031 -10.710938 C 7.457031 -10.761719 7.457031 -10.8125 7.457031 -10.863281 C 7.359375 -11.0625 7.359375 -11.460938 7.359375 -11.964844 C 7.359375 -12.113281 7.457031 -12.214844 7.660156 -12.214844 C 7.757812 -12.214844 7.859375 -12.214844 8.058594 -12.214844 C 8.210938 -12.214844 8.308594 -12.261719 8.410156 -12.261719 C 8.507812 -12.261719 8.660156 -12.3125 8.859375 -12.3125 C 9.058594 -12.3125 9.261719 -12.363281 9.460938 -12.414062 C 9.609375 -12.464844 9.761719 -12.5625 9.859375 -12.714844 L 10.109375 -12.714844 C 10.109375 -12.714844 10.511719 -12.765625 11.261719 -12.863281 C 12.3125 -12.964844 13.015625 -13.0625 13.414062 -13.113281 L 14.515625 -13.113281 C 15.117188 -13.164062 15.566406 -13.265625 15.867188 -13.363281 C 16.019531 -13.363281 16.117188 -13.265625 16.117188 -13.113281 C 16.117188 -13.015625 16.117188 -12.863281 16.117188 -12.714844 C 16.117188 -12.515625 16.167969 -12.363281 16.167969 -12.261719 C 16.167969 -10.960938 16.167969 -9.960938 16.21875 -9.308594 L 16.21875 -7.757812 C 16.21875 -7.558594 16.21875 -7.359375 16.269531 -7.109375 C 16.269531 -6.808594 16.316406 -6.605469 16.316406 -6.457031 C 16.316406 -6.15625 16.269531 -5.707031 16.21875 -5.105469 C 16.167969 -4.503906 16.167969 -4.105469 16.167969 -3.804688 C 16.167969 -3.503906 16.117188 -3.101562 16.117188 -2.554688 C 16.117188 -2.003906 16.117188 -1.601562 16.117188 -1.351562 C 16.117188 -0.351562 16.21875 0.25 16.417969 0.5 C 16.566406 0.699219 16.867188 1 17.269531 1.402344 C 17.269531 1.453125 17.269531 1.453125 17.367188 1.453125 C 17.46875 1.453125 17.570312 1.5 17.667969 1.5 C 17.769531 1.5 17.871094 1.5 17.96875 1.5 C 18.269531 1.601562 18.421875 1.652344 18.421875 1.703125 C 18.46875 1.800781 18.519531 1.800781 18.621094 1.800781 C 18.71875 1.800781 18.921875 1.800781 19.171875 1.800781 C 19.421875 1.800781 19.621094 1.75 19.722656 1.75 C 19.921875 1.75 20.222656 1.703125 20.621094 1.703125 L 20.921875 1.703125 C 21.023438 1.703125 21.171875 1.703125 21.273438 1.652344 C 21.375 1.601562 21.421875 1.453125 21.421875 1.25 C 21.375 0.949219 21.273438 0.550781 21.125 0.148438 C 20.921875 -0.351562 20.871094 -0.699219 20.921875 -0.902344 C 20.921875 -0.902344 20.972656 -1.300781 21.074219 -2.003906 C 21.074219 -2.253906 21.074219 -2.652344 21.171875 -3.203125 C 21.273438 -4.105469 21.375 -4.90625 21.421875 -5.554688 C 21.421875 -5.757812 21.472656 -6.007812 21.523438 -6.308594 C 21.523438 -6.605469 21.574219 -6.90625 21.625 -7.257812 C 21.625 -7.609375 21.671875 -7.910156 21.722656 -8.109375 C 21.722656 -8.710938 21.722656 -9.160156 21.773438 -9.558594 L 21.773438 -10.863281 C 21.824219 -13.566406 21.824219 -15.214844 21.722656 -15.917969 C 21.671875 -16.117188 21.625 -16.519531 21.625 -17.117188 C 21.574219 -17.71875 21.523438 -18.171875 21.472656 -18.519531 C 21.421875 -19.070312 21.421875 -19.921875 21.421875 -21.023438 C 21.421875 -21.171875 21.375 -21.421875 21.375 -21.773438 C 21.375 -22.074219 21.324219 -22.375 21.324219 -22.675781 C 21.324219 -22.925781 21.273438 -23.175781 21.273438 -23.476562 C 21.222656 -23.875 21.171875 -24.425781 21.074219 -25.175781 C 20.972656 -25.929688 20.921875 -26.429688 20.921875 -26.730469 C 20.871094 -27.128906 20.824219 -27.53125 20.722656 -27.832031 C 20.621094 -28.132812 20.472656 -28.78125 20.324219 -29.832031 C 19.972656 -30.882812 19.621094 -31.632812 19.320312 -32.136719 C 18.820312 -32.9375 18.46875 -33.4375 18.371094 -33.585938 L 18.070312 -33.988281 L 17.019531 -34.539062 C 16.917969 -34.539062 16.769531 -34.636719 16.566406 -34.789062 C 16.367188 -34.886719 16.167969 -34.988281 16.066406 -35.039062 C 15.46875 -35.136719 14.414062 -35.089844 12.914062 -34.988281 C 12.8125 -34.988281 12.613281 -34.9375 12.363281 -34.839844 C 12.0625 -34.738281 11.863281 -34.738281 11.761719 -34.738281 C 11.664062 -34.738281 11.460938 -34.839844 11.261719 -34.9375 Z M 16.117188 -21.171875 L 16.019531 -21.171875 C 16.019531 -21.125 16.066406 -20.222656 16.167969 -18.519531 C 16.167969 -18.269531 16.117188 -18.121094 16.117188 -18.070312 C 16.066406 -18.019531 15.96875 -17.96875 15.765625 -17.96875 C 15.667969 -17.96875 15.367188 -17.917969 14.917969 -17.871094 C 14.464844 -17.820312 14.164062 -17.820312 13.964844 -17.820312 C 12.964844 -17.71875 12.3125 -17.71875 12.011719 -17.71875 C 10.613281 -17.71875 9.460938 -17.621094 8.558594 -17.417969 C 8.359375 -17.367188 8.109375 -17.367188 7.757812 -17.367188 C 7.609375 -17.367188 7.558594 -17.46875 7.558594 -17.667969 C 7.558594 -17.871094 7.609375 -18.171875 7.609375 -18.671875 L 7.609375 -20.222656 C 8.007812 -21.222656 8.308594 -22.324219 8.410156 -23.625 C 8.410156 -23.828125 8.410156 -24.078125 8.507812 -24.476562 C 8.558594 -24.878906 8.609375 -25.175781 8.660156 -25.378906 C 8.660156 -25.476562 8.710938 -25.679688 8.710938 -25.929688 L 8.710938 -26.527344 C 8.757812 -26.980469 8.910156 -27.328125 9.210938 -27.628906 L 9.359375 -27.929688 C 9.410156 -28.03125 9.460938 -28.132812 9.511719 -28.179688 C 9.609375 -28.480469 9.8125 -28.78125 10.109375 -29.082031 C 10.460938 -29.433594 10.960938 -29.632812 11.664062 -29.734375 C 11.863281 -29.734375 12.113281 -29.734375 12.464844 -29.734375 C 12.8125 -29.734375 13.0625 -29.78125 13.265625 -29.78125 C 13.964844 -29.78125 14.515625 -29.480469 14.816406 -28.78125 C 14.816406 -28.679688 14.867188 -28.53125 14.964844 -28.332031 C 15.015625 -28.132812 15.066406 -28.03125 15.117188 -27.929688 C 15.316406 -27.230469 15.417969 -26.828125 15.417969 -26.730469 C 15.667969 -25.027344 15.816406 -23.777344 15.867188 -22.925781 C 15.867188 -22.625 15.917969 -22.074219 16.117188 -21.171875 Z M 16.117188 -21.171875 "/></g></g></g><g fill="#ffffff" fill-opacity="1"><g transform="translate(220.342781, 308.804629)"><g><path d="M 26.480469 0.0507812 L 26.179688 0.199219 L 26.128906 0.25 L 26.128906 0.300781 L 26.878906 0.300781 C 27.78125 0 28.53125 -0.300781 29.03125 -0.5 C 29.332031 -0.699219 29.683594 -0.75 29.984375 -0.699219 C 30.132812 -0.699219 30.234375 -0.75 30.332031 -0.949219 C 30.582031 -1.453125 30.734375 -1.703125 30.785156 -1.800781 C 30.882812 -1.953125 30.984375 -2.203125 30.984375 -2.503906 L 30.984375 -7.058594 C 30.882812 -8.410156 30.832031 -9.160156 30.882812 -9.308594 C 30.984375 -10.210938 30.882812 -11.011719 30.683594 -11.761719 C 30.582031 -11.863281 30.582031 -12.113281 30.582031 -12.414062 L 30.582031 -12.964844 C 30.582031 -13.664062 30.535156 -14.164062 30.433594 -14.566406 C 30.332031 -14.867188 30.285156 -15.167969 30.285156 -15.566406 C 30.285156 -16.667969 30.234375 -17.46875 30.132812 -18.019531 C 30.03125 -18.46875 29.984375 -18.921875 29.984375 -19.421875 C 29.984375 -20.523438 29.984375 -21.324219 30.03125 -21.925781 C 30.03125 -22.222656 30.082031 -22.625 30.082031 -23.226562 C 30.082031 -23.828125 30.132812 -24.277344 30.132812 -24.578125 C 30.132812 -24.878906 30.132812 -25.378906 30.183594 -26.027344 C 30.183594 -26.628906 30.234375 -27.128906 30.234375 -27.480469 C 30.234375 -27.582031 30.234375 -27.730469 30.234375 -27.980469 C 30.183594 -28.179688 30.183594 -28.332031 30.183594 -28.382812 L 30.183594 -29.332031 C 30.132812 -29.53125 30.132812 -29.78125 30.132812 -30.183594 C 30.132812 -30.582031 30.082031 -30.882812 30.082031 -31.085938 C 29.984375 -31.886719 29.933594 -32.335938 29.933594 -32.386719 C 29.734375 -33.085938 29.480469 -33.738281 29.230469 -34.289062 C 29.03125 -34.539062 28.730469 -34.6875 28.230469 -34.789062 C 27.230469 -34.789062 26.480469 -34.789062 26.027344 -34.839844 C 25.828125 -34.839844 25.429688 -34.789062 24.828125 -34.589844 C 24.527344 -34.488281 24.328125 -34.289062 24.175781 -33.988281 C 24.125 -33.789062 24.027344 -33.585938 23.875 -33.386719 C 23.828125 -33.335938 23.777344 -33.238281 23.726562 -33.136719 C 23.625 -32.9375 23.527344 -32.734375 23.375 -32.4375 L 23.074219 -31.785156 L 22.625 -30.832031 L 21.722656 -28.78125 C 21.523438 -28.332031 21.273438 -27.628906 20.871094 -26.730469 C 20.722656 -26.429688 20.523438 -25.828125 20.222656 -25.027344 C 19.921875 -24.226562 19.722656 -23.625 19.519531 -23.277344 C 19.320312 -22.773438 19.019531 -22.125 18.621094 -21.273438 C 18.21875 -20.421875 17.96875 -19.820312 17.820312 -19.472656 C 17.667969 -19.171875 17.570312 -18.972656 17.46875 -18.871094 C 17.367188 -19.070312 17.21875 -19.722656 17.019531 -20.722656 C 17.019531 -20.722656 16.96875 -20.773438 16.96875 -20.871094 C 16.917969 -20.972656 16.917969 -21.023438 16.917969 -21.074219 L 16.519531 -21.671875 C 16.46875 -21.722656 16.367188 -21.925781 16.269531 -22.273438 L 16.117188 -22.726562 C 16.019531 -22.925781 15.96875 -23.074219 15.917969 -23.226562 C 15.816406 -23.375 15.765625 -23.527344 15.667969 -23.675781 C 15.46875 -23.925781 15.316406 -24.226562 15.167969 -24.527344 C 15.015625 -24.828125 14.867188 -25.226562 14.714844 -25.628906 C 14.515625 -26.027344 14.414062 -26.328125 14.316406 -26.527344 C 14.066406 -26.929688 13.863281 -27.429688 13.714844 -28.03125 C 13.613281 -28.132812 13.515625 -28.382812 13.414062 -28.679688 C 13.316406 -28.980469 13.214844 -29.230469 13.164062 -29.382812 C 12.964844 -29.882812 12.664062 -30.582031 12.261719 -31.535156 C 12.113281 -31.886719 12.011719 -32.136719 12.011719 -32.285156 C 11.914062 -32.484375 11.863281 -32.734375 11.761719 -33.035156 C 11.664062 -33.285156 11.613281 -33.585938 11.511719 -33.9375 C 11.414062 -34.238281 11.3125 -34.488281 11.261719 -34.6875 C 11.113281 -34.886719 11.011719 -35.039062 10.960938 -35.1875 C 10.863281 -35.289062 10.710938 -35.390625 10.5625 -35.4375 C 10.410156 -35.4375 10.210938 -35.488281 10.011719 -35.488281 C 9.8125 -35.488281 9.660156 -35.539062 9.609375 -35.589844 C 9.511719 -35.589844 8.960938 -35.640625 8.058594 -35.640625 C 7.558594 -35.640625 7.207031 -35.589844 7.007812 -35.589844 C 6.957031 -35.589844 6.707031 -35.539062 6.308594 -35.4375 C 5.855469 -35.339844 5.507812 -35.339844 5.304688 -35.390625 C 5.105469 -35.390625 4.855469 -35.390625 4.554688 -35.339844 C 4.253906 -35.289062 4.003906 -35.289062 3.902344 -35.289062 C 3.703125 -35.289062 3.605469 -35.1875 3.605469 -34.988281 C 3.605469 -34.789062 3.605469 -34.4375 3.652344 -33.9375 C 3.703125 -33.4375 3.753906 -33.035156 3.804688 -32.734375 C 3.804688 -32.234375 3.855469 -31.433594 3.855469 -30.433594 C 3.855469 -29.734375 3.855469 -28.980469 3.855469 -28.28125 C 3.804688 -28.03125 3.753906 -27.53125 3.652344 -26.78125 C 3.554688 -25.980469 3.503906 -25.378906 3.503906 -24.976562 C 3.453125 -24.628906 3.402344 -24.125 3.355469 -23.425781 C 3.304688 -22.726562 3.253906 -22.222656 3.253906 -21.925781 C 3.203125 -21.574219 3.152344 -21.074219 3.101562 -20.421875 C 3.054688 -19.722656 3.003906 -19.222656 3.003906 -18.921875 C 2.902344 -17.96875 2.753906 -16.566406 2.652344 -14.714844 C 2.554688 -13.566406 2.503906 -12.664062 2.453125 -12.011719 C 2.453125 -11.664062 2.402344 -11.164062 2.351562 -10.5625 C 2.253906 -9.960938 2.253906 -9.558594 2.253906 -9.359375 C 2.253906 -9.308594 2.203125 -8.359375 2.101562 -6.558594 L 2.101562 -6.007812 C 2.101562 -5.757812 2.050781 -5.554688 2.050781 -5.457031 C 2.050781 -5.355469 1.953125 -5.253906 1.851562 -5.054688 C 1.953125 -4.855469 1.953125 -4.707031 1.851562 -4.605469 C 1.75 -4.503906 1.703125 -4.40625 1.652344 -4.253906 C 1.601562 -4.054688 1.550781 -3.953125 1.453125 -3.902344 L 1.453125 -3.804688 C 1.453125 -3.753906 1.453125 -3.703125 1.453125 -3.652344 C 1.453125 -3.554688 1.5 -3.503906 1.5 -3.503906 C 1.5 -3.453125 1.5 -3.402344 1.5 -3.304688 C 1.5 -3.203125 1.550781 -3.152344 1.550781 -3.101562 L 1.550781 -1.5 C 1.453125 -1 1.75 -0.601562 2.453125 -0.300781 C 2.503906 -0.300781 2.554688 -0.25 2.601562 -0.25 C 2.601562 -0.199219 2.703125 -0.148438 2.804688 -0.101562 C 2.902344 -0.0507812 2.953125 0 3.054688 0.0507812 C 3.203125 0.25 3.355469 0.25 3.554688 0.148438 C 3.804688 0.101562 4.003906 0.0507812 4.203125 0.0507812 L 5.003906 0.0507812 C 5.804688 -0.101562 6.257812 -0.199219 6.40625 -0.300781 C 6.605469 -0.351562 6.707031 -0.449219 6.707031 -0.652344 C 6.757812 -0.851562 6.808594 -1.25 6.90625 -1.800781 C 6.90625 -2.203125 6.957031 -2.652344 7.007812 -3.152344 C 7.058594 -3.652344 7.109375 -4.15625 7.207031 -4.753906 C 7.257812 -5.355469 7.308594 -5.804688 7.359375 -6.15625 C 7.457031 -7.359375 7.558594 -8.210938 7.558594 -8.808594 C 7.558594 -8.910156 7.558594 -9.359375 7.609375 -10.109375 C 7.660156 -10.863281 7.660156 -11.3125 7.609375 -11.460938 C 7.558594 -11.863281 7.558594 -12.664062 7.660156 -13.914062 C 7.859375 -16.21875 8.007812 -17.621094 8.058594 -18.121094 C 8.058594 -18.769531 8.109375 -19.773438 8.160156 -21.074219 C 8.210938 -22.375 8.257812 -23.324219 8.308594 -24.027344 C 8.308594 -24.328125 8.308594 -24.777344 8.359375 -25.476562 C 8.410156 -26.179688 8.460938 -26.679688 8.507812 -27.03125 L 8.558594 -27.128906 C 8.558594 -27.179688 8.609375 -27.230469 8.609375 -27.28125 C 8.710938 -26.929688 8.859375 -26.527344 9.058594 -26.078125 C 9.058594 -25.980469 9.109375 -25.777344 9.210938 -25.527344 C 9.261719 -25.226562 9.308594 -25.027344 9.410156 -24.925781 C 9.609375 -24.277344 9.910156 -23.277344 10.410156 -21.972656 L 11.3125 -19.019531 C 11.8125 -17.621094 12.164062 -16.519531 12.414062 -15.617188 C 12.8125 -14.464844 13.164062 -13.015625 13.464844 -11.3125 C 13.464844 -11.210938 13.515625 -11.011719 13.613281 -10.8125 C 13.714844 -10.613281 13.765625 -10.460938 13.816406 -10.363281 C 13.816406 -10.261719 13.863281 -10.109375 13.964844 -9.910156 C 14.066406 -9.710938 14.117188 -9.558594 14.164062 -9.460938 L 14.464844 -9.308594 L 14.964844 -8.910156 L 15.367188 -8.757812 C 15.765625 -8.507812 16.117188 -8.410156 16.367188 -8.507812 L 16.519531 -8.507812 C 16.867188 -8.507812 17.117188 -8.507812 17.320312 -8.558594 L 18.871094 -8.859375 C 19.671875 -8.960938 20.121094 -9.210938 20.273438 -9.558594 C 20.273438 -9.558594 20.273438 -9.609375 20.324219 -9.660156 L 20.371094 -9.710938 C 20.574219 -9.960938 20.722656 -10.210938 20.824219 -10.511719 C 21.074219 -11.0625 21.324219 -11.664062 21.523438 -12.363281 C 21.523438 -12.664062 21.671875 -13.015625 21.875 -13.515625 C 22.125 -14.015625 22.324219 -14.464844 22.425781 -14.765625 C 22.625 -15.617188 22.824219 -16.167969 23.023438 -16.367188 C 23.125 -16.519531 23.226562 -16.867188 23.324219 -17.417969 C 23.425781 -17.871094 23.574219 -18.21875 23.675781 -18.519531 C 23.675781 -18.71875 23.777344 -18.972656 23.875 -19.320312 C 23.976562 -19.671875 24.078125 -19.921875 24.125 -20.121094 C 24.175781 -20.273438 24.226562 -20.523438 24.328125 -20.824219 C 24.425781 -21.125 24.476562 -21.324219 24.527344 -21.472656 L 24.628906 -21.523438 C 24.726562 -21.574219 24.777344 -21.625 24.828125 -21.671875 L 24.976562 -21.375 L 24.976562 -20.671875 L 25.128906 -17.621094 C 25.128906 -17.167969 25.128906 -16.519531 25.175781 -15.617188 C 25.175781 -14.714844 25.226562 -14.066406 25.226562 -13.664062 C 25.226562 -12.515625 25.226562 -10.761719 25.328125 -8.359375 L 25.476562 -4.90625 C 25.476562 -4.605469 25.476562 -4.253906 25.476562 -3.753906 C 25.476562 -3.253906 25.527344 -2.851562 25.578125 -2.601562 C 25.578125 -1.652344 25.679688 -1 25.929688 -0.699219 C 25.929688 -0.652344 25.929688 -0.601562 25.980469 -0.601562 C 25.980469 -0.5 26.078125 -0.351562 26.230469 -0.25 C 26.230469 -0.148438 26.328125 -0.0507812 26.480469 0.0507812 Z M 26.480469 0.0507812 "/></g></g></g><g fill="#ffffff" fill-opacity="1"><g transform="translate(253.476366, 308.804629)"><g><path d="M 7.558594 -29.382812 L 7.558594 -25.777344 L 7.40625 -22.023438 L 7.40625 -20.070312 C 7.40625 -18.71875 7.359375 -17.71875 7.359375 -17.117188 C 7.308594 -16.820312 7.257812 -16.417969 7.257812 -15.917969 C 7.207031 -15.367188 7.15625 -14.964844 7.15625 -14.714844 C 7.15625 -14.566406 7.109375 -14.367188 7.058594 -14.066406 C 7.007812 -13.765625 6.957031 -13.566406 6.957031 -13.414062 C 6.90625 -13.015625 6.859375 -12.363281 6.808594 -11.5625 C 6.757812 -10.761719 6.707031 -10.160156 6.707031 -9.761719 C 6.605469 -8.910156 6.558594 -7.707031 6.507812 -6.105469 C 6.507812 -5.90625 6.457031 -5.855469 6.355469 -5.855469 C 5.855469 -5.757812 5.554688 -5.757812 5.507812 -5.757812 C 4.753906 -5.90625 4.15625 -5.957031 3.753906 -5.855469 C 3.453125 -5.757812 3.304688 -5.65625 3.304688 -5.507812 C 3.152344 -5.15625 3.003906 -4.957031 2.851562 -4.90625 C 2.753906 -4.804688 2.753906 -4.707031 2.753906 -4.605469 C 2.703125 -4.503906 2.703125 -4.453125 2.703125 -4.355469 L 2.703125 -4.105469 L 2.402344 -2.253906 C 2.300781 -1.75 2.453125 -1.402344 2.851562 -1.152344 C 2.902344 -1.101562 3.054688 -1 3.355469 -0.800781 C 3.605469 -0.601562 3.804688 -0.5 3.953125 -0.402344 C 4.054688 -0.300781 4.503906 -0.101562 5.207031 0.148438 C 5.304688 0.25 5.554688 0.25 5.855469 0.25 C 5.957031 0.25 6.105469 0.25 6.355469 0.199219 C 6.558594 0.148438 6.707031 0.101562 6.808594 0.101562 L 9.910156 -0.0507812 C 10.613281 -0.0507812 11.113281 -0.0507812 11.460938 -0.101562 C 11.664062 -0.101562 11.964844 -0.101562 12.414062 -0.199219 C 12.8125 -0.25 13.164062 -0.300781 13.414062 -0.300781 L 14.316406 -0.449219 C 14.414062 -0.449219 14.566406 -0.449219 14.765625 -0.5 C 14.964844 -0.5 15.117188 -0.550781 15.214844 -0.550781 C 15.316406 -0.550781 15.566406 -0.5 15.96875 -0.5 C 16.316406 -0.449219 16.617188 -0.449219 16.820312 -0.5 C 17.117188 -0.5 17.269531 -0.699219 17.269531 -1.101562 C 17.21875 -1.402344 17.21875 -1.851562 17.21875 -2.453125 C 17.21875 -2.554688 17.21875 -2.652344 17.269531 -2.851562 C 17.320312 -3.054688 17.367188 -3.152344 17.367188 -3.253906 L 17.320312 -4.304688 C 17.320312 -5.003906 17.367188 -5.355469 17.519531 -5.355469 L 17.519531 -5.457031 C 17.417969 -6.007812 17.070312 -6.308594 16.519531 -6.40625 C 15.765625 -6.457031 15.214844 -6.457031 14.867188 -6.457031 C 14.617188 -6.457031 14.265625 -6.40625 13.816406 -6.355469 C 13.316406 -6.308594 13.0625 -6.308594 13.015625 -6.308594 C 12.8125 -6.308594 12.714844 -6.355469 12.714844 -6.558594 L 12.714844 -7.15625 C 12.714844 -7.558594 12.714844 -8.210938 12.714844 -9.109375 C 12.714844 -9.960938 12.765625 -10.613281 12.765625 -11.113281 C 12.765625 -11.460938 12.714844 -12.011719 12.714844 -12.765625 C 12.714844 -13.464844 12.714844 -14.015625 12.714844 -14.414062 C 12.664062 -14.867188 12.664062 -15.566406 12.664062 -16.519531 C 12.664062 -16.71875 12.664062 -16.96875 12.664062 -17.320312 C 12.664062 -17.621094 12.714844 -17.917969 12.714844 -18.121094 L 12.714844 -21.671875 C 12.714844 -21.875 12.664062 -22.222656 12.664062 -22.726562 C 12.664062 -23.226562 12.664062 -23.574219 12.664062 -23.828125 C 12.664062 -23.976562 12.664062 -24.226562 12.765625 -24.578125 C 12.863281 -24.925781 12.914062 -25.226562 12.964844 -25.429688 C 12.964844 -25.628906 13.015625 -25.980469 13.015625 -26.429688 C 13.015625 -26.878906 13.0625 -27.230469 13.0625 -27.480469 C 13.0625 -27.582031 13.113281 -27.78125 13.113281 -28.082031 C 13.113281 -28.382812 13.113281 -28.582031 13.164062 -28.730469 C 13.164062 -28.832031 13.164062 -28.933594 13.265625 -28.933594 C 13.515625 -28.980469 13.714844 -29.03125 13.816406 -29.03125 L 15.96875 -29.183594 C 16.46875 -29.230469 16.769531 -29.132812 16.867188 -28.933594 C 17.21875 -29.230469 17.570312 -29.433594 17.96875 -29.53125 C 18.171875 -29.582031 18.269531 -29.683594 18.21875 -29.882812 C 18.171875 -29.882812 18.171875 -29.984375 18.269531 -30.132812 C 18.371094 -30.234375 18.46875 -30.332031 18.519531 -30.433594 C 18.570312 -30.734375 18.621094 -31.035156 18.71875 -31.234375 C 18.769531 -31.632812 18.769531 -31.984375 18.671875 -32.183594 C 18.519531 -32.386719 18.46875 -32.6875 18.46875 -32.984375 C 18.46875 -33.035156 18.421875 -33.136719 18.421875 -33.285156 C 18.421875 -33.4375 18.421875 -33.585938 18.421875 -33.6875 C 18.421875 -33.789062 18.371094 -33.886719 18.269531 -33.886719 C 18.121094 -33.886719 17.917969 -34.085938 17.71875 -34.4375 C 17.519531 -34.839844 17.269531 -35.039062 16.96875 -35.089844 C 16.820312 -35.089844 16.566406 -35.136719 16.269531 -35.136719 C 15.96875 -35.136719 15.617188 -35.089844 15.117188 -35.089844 C 14.617188 -35.039062 14.214844 -35.039062 13.964844 -35.039062 C 13.363281 -35.039062 12.515625 -34.988281 11.414062 -34.9375 C 10.261719 -34.886719 9.660156 -34.886719 9.660156 -34.886719 C 9.558594 -34.886719 9.410156 -34.886719 9.261719 -34.988281 C 9.058594 -35.039062 8.960938 -35.089844 8.910156 -35.089844 C 8.859375 -35.039062 8.808594 -35.039062 8.757812 -35.039062 C 8.660156 -35.039062 8.609375 -34.988281 8.609375 -34.988281 C 8.507812 -34.886719 8.210938 -34.886719 7.707031 -34.9375 C 7.15625 -34.988281 6.859375 -35.039062 6.808594 -35.039062 C 6.207031 -35.039062 5.304688 -35.039062 4.203125 -35.136719 L 3.652344 -35.136719 C 3.402344 -34.839844 3.253906 -34.589844 3.253906 -34.4375 C 3.203125 -34.335938 3.152344 -34.136719 3.101562 -33.886719 C 3.003906 -33.636719 2.953125 -33.488281 2.953125 -33.386719 C 2.953125 -33.285156 2.953125 -33.085938 3.003906 -32.835938 C 3.003906 -32.4375 2.902344 -32.183594 2.804688 -32.085938 C 2.753906 -32.035156 2.753906 -31.984375 2.753906 -31.886719 C 2.753906 -31.683594 2.851562 -31.433594 3.003906 -31.035156 C 3.054688 -30.632812 3.003906 -30.332031 2.851562 -30.234375 C 3.101562 -29.832031 3.203125 -29.582031 3.203125 -29.433594 L 4.003906 -29.433594 C 5.207031 -29.332031 6.105469 -29.332031 6.707031 -29.332031 C 6.859375 -29.332031 6.957031 -29.28125 7.007812 -29.28125 C 7.007812 -29.230469 7.058594 -29.132812 7.058594 -28.980469 C 7.058594 -28.933594 7.058594 -28.933594 7.109375 -28.933594 C 7.109375 -28.933594 7.109375 -28.980469 7.109375 -28.980469 C 7.109375 -28.980469 7.15625 -29.03125 7.15625 -29.082031 C 7.257812 -29.28125 7.359375 -29.382812 7.558594 -29.382812 Z M 7.558594 -29.382812 "/></g></g></g></svg>