<svg xmlns="http://www.w3.org/2000/svg" xmlns:xlink="http://www.w3.org/1999/xlink" width="500" zoomAndPan="magnify" viewBox="0 0 375 375" height="500" preserveAspectRatio="xMidYMid meet" xmlns:v="https://vecta.io/nano"><defs><clipPath id="A"><path d="M70 50.656h235v207H70zm0 0" clip-rule="nonzero"/></clipPath><path id="B" d="M156.63 279.422v3.605l-.152 3.754v1.953l-.047 2.953a7.03 7.03 0 0 0-.102 1.199l-.102 1.203c0 .148-.047.348-.098.648l-.102.652-.148 1.852-.102 1.801c-.102.852-.148 2.055-.199 3.656 0 .199-.051.25-.152.25-.5.098-.801.098-.848.098-.754-.148-1.352-.199-1.754-.098-.301.098-.449.199-.449.348-.152.352-.301.551-.453.602-.098.102-.098.199-.098.301-.051.102-.051.152-.051.25v.25l-.301 1.852c-.102.504.051.852.449 1.102.051.051.203.152.504.352.25.199.449.301.598.398.102.102.551.301 1.254.551.098.102.348.102.648.102.102 0 .25 0 .5-.051.203-.051.352-.098.453-.098l3.102-.152 1.551-.051c.203 0 .504 0 .953-.098l1-.102.902-.148c.098 0 .25 0 .449-.051.199 0 .352-.051.449-.051s.352.051.754.051c.348.051.648.051.852 0 .297 0 .449-.199.449-.602-.051-.301-.051-.75-.051-1.352 0-.102 0-.199.051-.398s.098-.301.098-.402l-.047-1.051c0-.699.047-1.051.199-1.051v-.102c-.102-.551-.449-.852-1-.949l-1.652-.051c-.25 0-.602.051-1.051.102l-.801.047c-.203 0-.301-.047-.301-.25v-.598-1.953l.051-2.004-.051-1.652v-1.648c-.051-.453-.051-1.152-.051-2.105v-.801c0-.301.051-.598.051-.801v-3.551l-.051-1.055v-1.102c0-.148 0-.398.102-.75l.199-.852c0-.199.051-.551.051-1l.047-1.051c0-.102.051-.301.051-.602s0-.5.051-.648c0-.102 0-.203.102-.203l.551-.098 2.152-.152c.5-.047.801.051.898.25.352-.297.703-.5 1.102-.598.203-.051.301-.152.25-.352-.047 0-.047-.102.051-.25.102-.102.199-.199.25-.301.051-.301.102-.602.199-.801.051-.398.051-.75-.047-.949-.152-.203-.203-.504-.203-.801 0-.051-.047-.152-.047-.301v-.402c0-.102-.051-.199-.152-.199-.148 0-.352-.199-.551-.551-.199-.402-.449-.602-.75-.652-.148 0-.402-.047-.699-.047l-1.152.047c-.5.051-.902.051-1.152.051l-2.551.102-1.754.051c-.102 0-.25 0-.398-.102l-.352-.102c-.051.051-.102.051-.152.051-.098 0-.148.051-.148.051-.102.102-.398.102-.902.051l-.898-.102c-.602 0-1.504 0-2.605-.098h-.551c-.25.297-.398.547-.398.699-.051.102-.102.301-.152.551-.098.25-.148.398-.148.5a2.65 2.65 0 0 0 .051.551c0 .398-.102.652-.199.75-.051.051-.051.102-.051.199 0 .203.098.453.25.852.051.402 0 .703-.152.801.25.402.352.652.352.801h.801l2.703.102c.152 0 .25.051.301.051 0 .051.051.148.051.301 0 .047 0 .047.051.047v-.047s.047-.051.047-.102c.102-.199.203-.301.402-.301zm0 0"/></defs><path fill="#fff" d="M-37.5-37.5h450v450h-450z"/><path d="M-37.5-37.5h450v450h-450z"/><g clip-path="url(#A)"><path fill="#fff" d="M126.102 115.895l-1.668-1.316c-.527-.457-1.016-1.141-1.727-1.27-.551-.121-1.086-.121-1.629-.121a.79.79 0 0 1-.176.145c-6.926 4.938-13.145 9.734-18.824 16.125-2.836 3.188-5.359 6.563-8.004 9.902-.734.926-1.547 1.719-2.363 2.484a10.19 10.19 0 0 1 .703-.289l4.336-3.043c4.465-2.77 7.309-7.082 11.152-10.574 3.395-3.082 8.082-4.68 11.699-7.379a171.97 171.97 0 0 1 6.5-4.664zm1.336 7.93c.285-.172.566-.199.836-.148-.207-2.078-.254-4.148 0-6.145-8.594 5.52-17.504 10.871-24.391 18.465-.582.617-1.207 1.223-1.859 1.813 2.141-.941 4.258-1.988 6.309-3.289 3.289-2.109 7.141-3.129 10.422-5.199 2.898-1.844 5.703-3.793 8.684-5.496zm4.32 68.07l-2.039-16.621c-10.598-3.113-20.437-8.57-31.035-11.805-6.395-1.937-12.617-4.062-18.793-6.418 1.273 1.125 2.605 2.188 4.129 2.984 2.676 1.383 5.52 2.621 7.934 4.426 5.398 3.992 11.164 7.652 16.668 11.477 7.633 5.336 16.02 9.895 23.137 15.957zm1.148 9.727c-.039-.27-.055-.543-.078-.82l-.602-4.961c-8.32-7.836-19.145-13.281-28.535-19.902-4.785-3.379-9.414-7.637-14.672-10.367-5.398-2.785-9.559-6.531-14.496-9.758 3.5 8.922 5.563 18.039 8.355 27.215.992 3.262 1.453 7.34 3.484 10.137.477.633 2.488 2.723 2.824 3.801.887 2.723 2.766 4.961 3.395 7.844 5.09.613 9.066 3.355 13.984 4.52 4 .941 7.73 2.781 11.742 3.484.141-.16.34-.273.613-.328 2.973-.551 4.52-4.211 7.211-5.414 1.52-.695 2.414-1.672 3.637-2.742 1.027-.879 2.25-1.676 3.137-2.707zm2.988 42.465c0-1.168.016-2.164-.09-2.621-1.422-6.5-.895-13.059-1.383-19.668l-1.219-17.078c-.559.441-1.113.902-1.574 1.457-.934 1.109-2.055 2.188-3.395 2.785-2.762 1.238-4.551 4.367-7.262 5.605 1.621 3.508 4.355 6.438 6.023 9.945 1.316 2.82 2.332 5.75 3.832 8.488 1.695 3.074 2.645 6.652 4.473 9.625.152.254.367.797.594 1.461zm14.445.383c-.238-.641-.496-1.27-.812-1.867-1.98-3.836-1.789-10.199-2.34-14.535-.832-6.453-2.215-13.648-3.914-19.918-1.773-6.605-1.215-13.738-3.059-20.168-1.551-5.437-2.66-12.355-2.66-17.984 0-5.992-2.73-11.191-3.668-17.004-1.07-6.684-2.129-13.25-3.785-19.863-.559-2.203-1.109-4.566-1.508-6.973-.504.305-1.016.586-1.535.895.016.059.051.113.051.176.277 6.359 1.66 12.5 1.973 18.848.27 5.695 1.07 11.828 2.051 17.453 1.844 10.492 2.563 21.234 3.992 31.832 1.656 12.27 1.105 24.766 2.184 37.066.484 5.422 1.309 10.711 1.762 16.086.027.348 8.395-2.988 11.27-4.043zm20.27-29.797c-.078-.082-.16-.16-.223-.273-4.328-7.816-10.016-15.18-12.867-23.812-1.445-4.371-3.73-8.617-4.879-13.043-1.023-4-1.527-8.082-2.547-12.094-2.406-9.508-5.566-18.766-7.836-28.309-1.477-6.23-6.031-11.766-6.012-18.297-1.297-.352-2.582-.926-3.586-1.855-.328-.324-1.047-.43-1.551-.629-1.543 7.02 1.691 13.91 2.797 20.637l3.281 18.281c.629 2.938 1.875 5.535 2.277 8.488.359 2.652.598 5.574 1.109 8.164 1.109 5.652 1.59 11.578 2.441 17.258.91 6.125 1.328 12.242 2.781 18.258.98 4.078 1.215 8.266 2.324 12.32.574 2.086 1.516 3.844 1.516 6.016 0 5.484 1.805 11.777 2.883 16.988.68 3.25 1.656 7.68 3.309 10.957.191-.625.391-1.32.711-1.734 1.438-1.742 2.117-3.723 3.32-5.605 1.527-2.391 2.547-5.289 3.668-7.934 2.523-5.941 4.297-11.266 5.75-17.559l1.332-6.223zm.773-3.832c1.809-9.699 3.012-19.57 3.324-29.383-1.895.973-3.914 1.531-6.016 2.324-1.922.734-3.816 1.563-5.734 2.324-1.285.512-2.672.645-3.918 1.18.527 1.398 1.109 2.781 1.762 4.152 3.227 6.734 6.957 12.98 10.582 19.402zm10.281 24.738c1.645-1.402 3.082-2.984 4.113-4.965-5.352.055-11.199.559-16.324 2.125-.176.055-.336.07-.488.039-1.453 3.969-3.273 7.836-5.016 11.613-1.23 2.633-2.77 6.074-4.609 8.305-.316.367-.512.758-.695 1.133 2.047-1.406 3.66-3.578 5.68-4.969 2.797-1.953 5.121-4.496 7.781-6.547 2.898-2.246 6.219-4.031 9.039-6.309.121-.184.313-.32.52-.426zm22.625-20.844c-1.895-1.922-3.977-2.898-5.621-5.238-2.711-3.855-5.824-7.324-8.707-11.047-4.191-5.379-6.918-12.793-12.668-16.777-.508 14.703-3.41 28.949-6.164 43.43-.168.957-.406 1.895-.641 2.836 3.277-1.805 7.391-3.148 10.688-3.816 6.383-1.27 12.25-3.891 17.969-6.828 1.695-.879 3.418-1.711 5.145-2.559zm17.473-8.449c-3.648-3.098-6.012-6.988-9.109-10.566-.543-.117-1.016-.543-1.07-1.164l-.57-.625c-4.727-4.75-10.148-13.934-17.211-15.172-.125-.016-.184-.066-.277-.105-.129.09-.289.16-.465.16-2.617 0-5.988.098-9.039.43-1.582.184-3.707-.117-5.437.152 5.645 3.828 8.398 10.504 12.281 15.879 4.688 6.508 10.129 12.098 15.527 17.871.117.129.191.273.246.41l15.125-7.27zm-1.453 22.141c1.957-3.789 5.25-6.559 7.598-10.055-2.691.359-5.184.367-8.082.047-.195-.016-.379-.082-.527-.176-5.297 2.785-10.687 5.367-16.316 7.746-4.48 1.895-9.352 4-14.305 4.512-.965 2.238-2.27 3.977-3.77 5.449 3.473.75 6.883 1.547 10.461 2.121 4.035.625 15.398 4.922 18.242.418 2.086-3.293 4.91-6.621 6.699-10.062zm7.402-158.57c.449-2.277 2.285-8.715 2.508-13.156-3.305 8.395-5.812 17.637-7.387 26.363-1.859 10.184-5.414 19.785-8.559 29.566l-20.086 63.621c.094 0 .199-.023.309 0 6.199 1.086 11.125 7.93 15.039 12.289.879.977 1.734 2.023 2.582 3.082 1.5-7.051 2.523-14.445 3.824-21.508 1.492-8.121 2.684-16.324 2.922-24.578.281-9.867 2.086-20.031 4.105-29.695 2.156-10.223 1.332-20.527 3.281-30.754.953-5.016.496-10.328 1.461-15.23zm55.41 108.406c1.191-.832 2.398-1.637 3.613-2.445L230.73 204.77l-16.547 8.191c-5.023 2.34-10.59 4.449-15.254 7.414-7.324 4.648-16.875 5.078-24.727 8.566 8.707-1.531 17.547-1.035 26.004-4.598 11.926-5.016 24.184-10.199 34.637-17.93 10.262-7.621 22.098-12.379 32.801-19.168 5.07-3.211 10.535-5.551 15.477-8.984zm4.004.422c-.312.207-.648.402-.961.625-5.094 3.563-10.621 6.035-15.844 9.336-5.109 3.234-10.734 5.504-15.887 8.641l-18.285 11.379c-4.187 2.559-8.387 4.984-12.605 7.309 3.371-.062 6.598-.652 10.07-1.207 1.398-.238 2.758-.254 4.148-.215 3.777.129 5.789-2.25 8.48-4.352 5.039-3.93 10.34-7.492 15.383-11.422 6.426-5.016 14.207-8.895 19.949-14.687l5.551-5.406zm15.75-13.312c1.203-.848 2.84.848 1.66 1.957-2.078 1.973-4.496 3.617-7.012 5.16-3.004 2.309-6.078 4.613-8.539 7.395-2.77 3.105-5.453 6.539-8.922 8.898-7.148 4.918-14.152 10.02-20.93 15.438-5.418 4.336-11.613 9.559-17.812 12.602-2.664 1.309-7.035.734-10.187 1.07a1.33 1.33 0 0 1-.168.535c-1.414 2.5-3.227 4.152-4.992 6.363-1.973 2.453-3.285 5.273-5.336 7.613-2.402 2.754-4.113 9.27-7.867 10.566-4.949 1.707-11.387-1.336-16.363-2.117-4.777-.742-9.32-1.805-14.023-2.766-3.043 2.293-6.484 4.188-9.527 7.199-3.02 3.008-6.652 5.398-9.84 8.23-1.863 1.648-3.715 3.402-6.168 4.035a1.22 1.22 0 0 1-.758-.055c-.551.141-1.086-.098-1.43-.578-2.125-2.969-2.633-6.523-3.547-9.957h-.148c-4.059 1.383-8.148 4.672-12.43 4.703-.719.008-1.238-.383-1.621-.98-.223-.016-.445-.074-.668-.234-1.496-1.035-1.812-2.586-2.164-4.32-.434-2.172-2.453-5.238-3.332-7.316-1.668-3.953-3.723-9.344-6.016-12.977-2.09-3.305-4.687-6.781-6.219-10.367-9.152-1.414-17.34-7.418-26.66-8.152a1.29 1.29 0 0 1-.973-.52c-.352-.105-.633-.367-.727-.863-.617-3.711-2.902-7.141-5.098-10.148-2.66-3.645-3.473-7.781-4.703-12.047-2.906-10.219-5.305-20.586-9.648-30.363-1.484-.695-.168-2.906 1.344-2.25 10.238 4.391 20.73 7.328 31.25 10.965 8.801 3.059 17.242 7.594 26.117 10.348l-.68-6.684c-.586-6.516-2.23-13.137-2.27-19.68-.039-5.973-1.477-11.691-1.883-17.602l-16.734 9.352c-5.348 2.902-10.934 4.594-16.41 6.902-1.91.992-3.625 2.691-5.816 2.363a1.01 1.01 0 0 1-.867-.687c-.441-.461-.609-1.219-.035-1.82 3.301-3.434 6.68-6.094 9.625-9.988 2.234-2.98 4.727-5.969 7.348-8.613 5.695-5.75 11.309-10.203 17.906-14.895.168-.133.352-.207.52-.23.207-.16.461-.277.781-.277 1.91 0 3.348.262 4.754 1.594.828.77 1.82 1.449 2.641 2.246l.918-.605c.281-.887 1.367-1.473 2.086-.57.797 1.008 2.07.84 2.938 1.633.953.902 2.078 1.348 3.34 1.629.719.16.973.75.902 1.309.238.223.383.52.383.926-.055 4.52 2.621 8.148 4.035 12.266 1.055 3.094 1.867 6.121 2.77 9.258l6.941 24.48c1.957 6.746 3.281 13.559 5.543 20.141.926-.297 1.875-.406 2.883-.793 1.867-.758 3.762-1.469 5.605-2.289 2.988-1.359 6.277-1.695 8.84-3.922.023-.008.035-.008.051-.023.117-.152.262-.289.484-.391 2.18-.953 4.555-.457 6.863-.703 2.801-.32 6.051-.488 8.574-.535 3.73-11.246 6.695-22.828 11-33.887 3.938-10.062 7.684-21.379 9.797-31.996 1.191-5.941 4.188-11.309 5.664-17.195 1.117-4.461 1.582-9.246 2.969-13.613 2.934-9.281 4.594-18.449 8.445-27.449 0-.273.133-.52.34-.723.367-.66 1.078-.676 1.598-.316.207.078.402.215.57.445 2.328 3.102-.09 10.168-.504 13.457-.656 5.137-.449 11.023-1.543 16.055-1.293 5.949-2.34 11.996-2.348 18.098 0 4.27.137 9.207-.973 13.367-3.262 12.34-4.242 25.43-5.273 38.086-.629 7.621-1.66 15.223-3.211 22.715-1.445 6.949-2.195 14.145-3.746 21.012 3.086 3.945 6.254 7.957 10.074 10.766l6.82-3.426c23.574-12.211 46.918-25.254 71.172-36.129.199-.082.387-.121.57-.121"/></g><g fill="#fff"><path d="M109.331 274.368c-.352.301-.602.449-.703.5-.098.102-.148.102-.25.102s-.199.047-.199.047c-.699.504-1.051.902-1.152 1.254l-.098.098c-.152 0-.402.152-.75.453-.203.199-.402.551-.703 1.051l-.148.301-.102.199c-.5.801-.699 1.602-.699 2.301v.102c-.203.75-.352 1.551-.453 2.402l-.25 3.305c-.098.699-.098 1.902-.098 3.504v6.906a5.06 5.06 0 0 0 .051.801c0 .402.047.652.047.801 0 1.652.051 2.855.25 3.656l.852 2.352c.199.602.801 1.453 1.754 2.504.398.551 1.199 1.102 2.301 1.602.902.5 2.004.699 3.305.602.102 0 .301-.051.648-.051.102 0 .301.051.551.051h.551c.203 0 .852-.152 1.953-.402.902-.25 1.602-.301 2.004-.199.098.148.25.148.398 0a4.16 4.16 0 0 0 .953-.703c.051-.047.199-.148.398-.301a2.25 2.25 0 0 0 .5-.5c.102-.148.25-.301.352-.5.102 0 .199 0 .199-.051.102 0 .152 0 .152-.098l.75-1.703c0-.148.102-.5.199-1.051l.301-1.203.301-.648.148-2.504c0-.148 0-.25.102-.352 0-.199.051-.398.199-.699 0-.051.051-.148.102-.25 0-.102.051-.199.102-.301.199-.398.25-.75.098-1.051-.098 0-.098 0-.098-.051.098-.699.297-1.152.5-1.352.098-.301.148-.449.148-.551s-.051-.25-.051-.5c-.047-.199-.047-.398-.047-.551 0-.199.047-.602.148-1.102s.148-.852.148-1.102c-.047-.047-.047-.098-.047-.148 0 0 0-.051.047-.152v-.098a8.93 8.93 0 0 0-.098-2.055c-.25.051-.453 0-.551-.199-.152-.148-.199-.352-.102-.648.051-.152.102-.402.102-.703l-.301-3.152v-1.453c0-.25-.051-.398-.102-.5l-.051-.098c-.047-.051-.047-.102-.047-.152l-.352-.852-.551-1.352-.75-1.602c0-.051-.051-.148-.152-.301-.098-.098-.199-.25-.199-.398-.102-.199-.398-.652-.902-1.352l-.848-.551-.102-.102c-.402-.348-.699-.551-1-.602-.102-.047-.352-.148-.652-.348l-.801-.402c-.5-.051-.75-.098-.75-.148-.602-.301-1.25-.449-2.004-.449h-1.699c-.203 0-.301.047-.352.098-.148.051-.352.102-.652.152l-.699.098c-.199.152-.551.199-1.051.199h-.102c.051.051.102.102.102.152zm0 25.93a16.04 16.04 0 0 1-.102-1.953l-.098-1.953c-.102-.699-.051-2.051.098-4.055a14.69 14.69 0 0 0 .102-1.852v-3.004-.648c0-.301.051-.551.051-.754v-1.902c0-.75.098-1.5.348-2.199.051-.703.152-1.102.25-1.305.102-.297.352-.848.754-1.602.047-.047.148-.098.301-.199.148-.051.25-.098.297-.148l.504-.152c.25-.098.449-.148.598-.25.352-.098.703-.098 1.004.051a13.17 13.17 0 0 1 2.453 2.051c0 .051.047.102.148.203.051.098.102.199.199.25l1.102 1.852c.051.098.199.5.5 1.102 0 .098.051.5.203 1.148l.25 1.453c.199.801.297 1.652.297 2.555 0 .148 0 .398-.047.699-.051.352-.051.602-.051.699 0 .203 0 .453.051.754 0 .301.047.551.047.699 0 .25.051.602.051 1l-.148 3.055c-.102.602-.25 1.203-.402 1.801-.098.652-.25 1.152-.398 1.504a16.43 16.43 0 0 1-.449 2.102c0 .398-.051.648-.102.852 0 .098-.051.148-.051.148l-.949 1.352-1.203.75c-.102.051-.148.102-.25.203s-.199.148-.199.148a3.42 3.42 0 0 1-.602.301l-.551.301-.301.148c-.352.203-.648.102-.949-.25-.051 0-.102-.051-.203-.148-.098-.051-.199-.102-.25-.152-.047 0-.098 0-.148-.098-.102 0-.152-.051-.152-.102-.047 0-.148-.051-.25-.148-.148-.102-.25-.152-.348-.203-.25-.047-.352-.199-.352-.5-.199-.199-.301-.5-.402-.852-.098-.148-.148-.449-.25-.848s-.148-.703-.25-.902a3.31 3.31 0 0 1-.148-1zm19.721-23.778c.051.102.199.148.5.25.098.102.199.148.199.25s-.102.301-.199.551-.152.449-.102.551c0 .301-.051.75-.098 1.352l-.051 1.25.051 1.902c0 .102 0 .152.047.199 0 .102.051.152.051.152v.699a7.03 7.03 0 0 0 .051.953c0 .398.051.699.051.898v.754c0 .199.051.551.051.949v.199a6.52 6.52 0 0 0 .047.852l.102.902v2.852c0 .453-.051 1.051-.102 1.805l-.047 1.75c0 .102-.051.449-.051 1.102l-.102 1.5a10.96 10.96 0 0 0-.148 1.703c-.051.5-.102 2.152-.199 4.906-.051.699-.051 1.652-.051 2.852 0 .602.051.953.25 1.051v.203c0 .047.051.098.051.199.297-.25.551-.301.848-.152.152.102.402.102.703.102.148 0 .398 0 .75-.102s.602-.098.75-.047a2.39 2.39 0 0 0 1.152-.152h.102c.148-.098.25-.199.25-.301.098-.398.199-1 .199-1.902 0-.398.051-1 .102-1.801l.148-2.102.051-1.754.098-3.504.051-2.25v-2.102c0-.203.203-.352.5-.352h2.355c.449.25.801.398 1.051.398.051 0 .148.051.25.102l.148.148.102.102c0 .051.051.051.102.051l.348.602c.602.898 1 1.852 1.254 2.75l.449 1.855c0 .148 0 .297.051.5 0 .199.051.398.051.551 0 .199.047.348.047.5v.949a3.67 3.67 0 0 0 .102.902c0 .25.102.699.199 1.352l.25 1.551.102 2.402c.051.402.25.551.652.551.098 0 .199.051.25.051l-.25.051-.102.051c.051 0 .102.047.199.047a.38.38 0 0 0 .199.051c.402.199.703.301.902.301l.5-.102c.301 0 .453 0 .5.051.25.051.602.051 1.004-.051l.75-.148c.301 0 .551-.25.648-.652v-.848a3.67 3.67 0 0 1 .102-.902 16.04 16.04 0 0 0 .102-1.953c0-.098-.051-.348-.051-.699-.051-.301-.051-.602-.051-.801l-.199-2.203-.5-2.352-.402-1.652-.75-2.055-.449-1.051c-.102-.098-.203-.301-.301-.551-.152-.25-.25-.449-.25-.551l-.102-.199c-.051-.098-.102-.148-.102-.25v-.199l.551-.352c.402-.148.652-.5.754-1 .148-.301.25-.449.297-.5.152-.152.352-.25.551-.352.352-.801.602-1.301.801-1.602.203-.398.352-.949.453-1.602.051-.301.098-.551.199-.699.5-1.305.551-2.555.25-3.656v-.25c0-.449-.148-.801-.352-1-.199-.453-.301-.703-.301-.801-.398-1.004-.949-1.805-1.75-2.402-.301-.152-.852-.551-1.652-1.254-.75-.648-1.402-1.102-2-1.301-.352-.199-.902-.449-1.703-.75-.102-.051-.199-.102-.352-.102h-1c-.402.102-.602.051-.703-.148h-.449c-.148 0-.352.051-.602.051h-.551c-.449.148-.801.199-1 .148-.148 0-.648.102-1.449.25-.301.102-.652.199-1.152.301l-1.051.25c-.102.051-.301.102-.703.199l-.852.25-.148.051-.148.102c-.102-.051-.203-.051-.25 0-.051.102-.051.199.047.301-.098 0-.25.051-.348.098l.348.352a7.16 7.16 0 0 0-.898.602zm13.012 6.906l.301 2.504c-.098.199-.25.398-.449.602l-1.953.898c-.199.102-.801.301-1.801.504-.051 0-.152 0-.25-.051-.152-.051-.25-.102-.301-.102-.699.301-1.051.402-1.152.402h-2.602v-.203c0-.098.051-.148.051-.25l.047-2.453-.047-4.004c-.051-.098-.051-.25-.051-.5 0-.051-.051-.148-.051-.25-.051-.102-.051-.199-.051-.25 0-.199.102-.352.352-.5.5-.199 1.352-.352 2.551-.352.203 0 .551.051 1.004.051a7.3 7.3 0 0 0 .949.051h.75c.504 0 .852.199 1.051.551l.953 1.051c.398.648.602 1.402.699 2.301zm0 0"/><use xlink:href="#B"/><path d="M176.747 275.27c-.098.098-.148.148-.148.199l-.051.098c-.5.352-.949.754-1.352 1.152-.199.199-.398.453-.648.75l-.5.602-.301.301a3.38 3.38 0 0 1-.301.352 6.78 6.78 0 0 0-.602 1.25c-.449.699-.699 1.402-.699 2.102 0 .152-.102.402-.203.801-.047.203-.148.453-.25.801l-.199.754a1.42 1.42 0 0 0-.148.699l-.102.602-.152 1.25-.148 2.555c0 .25-.051.598-.051 1v.902l.199 1.301c0 .301.102.699.203 1.199l.199 1.102.402 1.551.199 1.254.199 1.402c.102.449.199.848.352 1.199.098.25.199.652.398 1.25l.5 1.305a3.81 3.81 0 0 0 .453.898c.203.3.5.602.898.902l.754.75c.098.152.297.301.598.5s.5.402.652.5c.801.652 1.301 1.004 1.551 1.051l.703.254a3.89 3.89 0 0 0 .801.297c.098.102.348.25.75.352l.75.25h1.051c.25.051.551 0 .852-.098.102 0 .449-.152 1.051-.352.102 0 .352-.051.75-.051a2.48 2.48 0 0 0 .902-.148l.301-.152c.098 0 .25-.051.398-.098.152 0 .25-.051.352-.102.402-.152.699-.352.949-.551.504-.102.902-.25 1.203-.402.902-.598 1.602-1.301 2.051-2.199.402-.652.703-1.555.902-2.656v-.848c0-.352.051-.703.051-1.004s.051-.551.098-.848c0-.203 0-.551-.098-1.004a4.53 4.53 0 0 1-.102-1c0-.199.051-.449.051-.75-.102-.152 0-.25.199-.352.102-.102.352-.148.703-.148.398-.152 1-.301 1.902-.453 0 0 .047 0 .148-.051l.199-.148.152-.148a1 1 0 0 0 .098-.453c.25-.801.152-1.5-.348-2.102-.051-.051-.051-.148-.051-.301.199-.199.102-.398-.199-.5-.902-.602-1.754-.801-2.555-.602-.051.051-.102.051-.199.051s-.602.051-1.504.102l-2.152.199-1.75.25-1.754.199c-.25.102-.848.152-1.75.203-.152 0-.352 0-.602-.051-.301 0-.449-.051-.449-.051l-.5.148c-.203.051-.301.051-.402.051-.199.102-.352.449-.5 1.051v2.605c0 .199-.051.348-.051.348-.098.102-.098.203-.051.402 0 .199.051.352.152.352.301.148.551.25.699.25.5.098 1.102.148 1.902.047.051 0 .152 0 .352-.047.148 0 .25-.051.352-.051l1.199-.199 1.902-.352c.25 0 .449.098.551.25v.352c.051.199.148.75.25 1.551.051.352.051.551 0 .602-.102.148-.148.348-.148.648s-.051.5-.051.602a.99.99 0 0 0-.102.449c-.051.25-.098.453-.199.602s-.199.25-.352.352v.051c-.051.199-.25.348-.602.547-.801.402-1.301.652-1.551.652-.898.402-1.652.551-2.301.551-.25 0-.602-.051-1-.102-.402 0-.754-.047-.953-.098-.199 0-.25 0-.25-.051l-1.801-1.051-.102-.152c-.051-.098-.102-.25-.199-.5-.102-.199-.199-.398-.199-.551a17.74 17.74 0 0 1-1.352-3.652c-.102-.301-.203-.449-.203-.551s-.051-.301-.098-.551a1.32 1.32 0 0 1-.152-.602l-.301-2.102c-.047-.352-.148-.75-.25-1.203.102 0 .25.051.352.102l-.25-.5v-.102c.102-.047.102-.25.051-.648 0-.102-.051-.352-.152-.75s-.148-.754-.098-1.055c.098-.098.098-.199.047-.348-.098-.199-.098-.75 0-1.652a30.4 30.4 0 0 0 .453-3.203c.148-.301.25-.551.25-.75-.102-.402-.152-.703-.102-.902.051-.402.152-.699.352-.902.25-.199.449-.551.602-1.102.098-.301.199-.5.301-.598 0-.051.199-.25.598-.652a.51.51 0 0 1 .25-.352l.25-.098.301-.152c.102-.051.203-.098.301-.098.5-.301 1.254-.504 2.152-.703a4.24 4.24 0 0 1 2.055.352c.398.148.648.352.801.602l.449.898c.102.051.199.152.301.301 0 .051.051.152.148.352.051.199.102.352.203.449 0 .051.047.102.148.203l.352 2.051c.051.902.199 1.652.398 2.203 0 .098.051.148.199.199.402.199.703.352 1.004.352 0 .047.098.047.199 0 .902-.051 1.703-.203 2.402-.453 0 0 .051 0 .102-.047a.11.11 0 0 1 .098-.102c.203.199.703.148 1.402-.051.602-.199.953-.352 1.051-.449l.25-.551c-.148-.652-.25-1.301-.301-2.004-.098-.148-.098-.398-.098-.699-.051-.102-.102-.25-.102-.5v-.5c-.098-.152-.199-.352-.199-.551-.199-.203-.352-.652-.449-1.254-.051 0-.102-.098-.152-.199-.098-.102-.148-.148-.199-.25l-.402-.953c-.047 0-.098-.098-.199-.25-.102-.098-.199-.199-.199-.297-.102-.254-.301-.504-.551-.805l-1.504-1.148a1.6 1.6 0 0 0-.398-.152c-.199-.05-.352-.148-.402-.25a2.84 2.84 0 0 0-1.398-.551c-.102 0-.25-.051-.453-.148l-.301-.152c-.098 0-.25-.047-.348-.047s-.25-.051-.402-.102c-.148 0-.25-.051-.25-.051-.398-.199-.852-.25-1.301-.199-.051 0-.102.051-.148.051-.102.051-.152.051-.203 0-.199-.051-.648-.051-1.352 0-.148 0-.449.051-.852.051l-1 .047c-.199.051-.5.152-.898.301-.402.199-.703.301-.902.301l-.152.102c-.199.098-.598.348-1.098.699zm29.582-1.402h-.098c0 .301-.102.449-.352.449-.301.051-.75.051-1.301.051-.301 0-.453.051-.5.051-.203.098-.504.301-.902.551-.652.449-1.102.852-1.352 1.25a12.19 12.19 0 0 0-1.051 1.352c-.301.449-.5.699-.5.801-.102.25-.402 1.25-1.004 3.055 0 .098-.098.5-.301 1.25 0 .102-.047.551-.148 1.453-.051.25-.051.648-.051 1.148l-.148 3.004c0 .199-.051.5-.051.801v.75l-.148 1.703-.102 1.754-.102 2.102v1.352l-.199 2.102-.148 2.152-.051 1.5v1.402 2.055c0 .598-.051 1.051-.152 1.25v.301c.051.098.102.25.152.398.051.203.098.301.199.352l.352.352c.199.148.301.301.398.449 0 .051.051.102.152.102 0 .098.047.098.098.098.203.102.703.152 1.453.152l1.801-.152c.152-.047.25-.199.352-.398l.148-1.801v-1.652l-.047-.703c-.051-.5-.051-.75.047-.75 0-.398-.047-.949-.148-1.703-.051-.148-.102-.398-.102-.75v-.648c0-.051 0-.203.051-.402v-.398c-.199-.652-.199-1.254 0-1.855 0 0-.051-.047-.051-.098v-.152c-.098-.199-.098-.598-.098-1.102 0-.148.098-.25.301-.25h.398c.152 0 .25-.047.352-.047s.25-.051.449-.051.402-.051.602-.102a.76.76 0 0 0 .398-.301h.25l1.152-.148 2.152-.25h1.102c.602-.051 1.051-.152 1.352-.25.152 0 .25.098.25.25v.398c0 .199.051.352.051.453l.051 2.953v1.551c0 .199 0 .398.051.648 0 .301.047.504.047.652 0 .301-.047.75-.098 1.352l-.051 1.301-.051 1.25v1.203c0 1 .102 1.602.301 1.852.148.199.449.5.852.902 0 .051 0 .051.098.051s.203.047.301.047h.301c.301.102.453.152.453.203.047.098.098.098.199.098h.551c.25 0 .449-.051.551-.051.199 0 .5-.047.898-.047h.301c.102 0 .25 0 .352-.051s.148-.199.148-.402a6.03 6.03 0 0 0-.297-1.102c-.203-.5-.254-.848-.203-1.051l.152-1.102c0-.25 0-.648.098-1.199l.25-2.352c0-.203.051-.453.102-.754 0-.297.051-.598.102-.949a3.56 3.56 0 0 1 .098-.852l.051-1.449v-1.305l-.051-5.055c-.051-.199-.098-.602-.098-1.199l-.152-1.402c-.051-.551-.051-1.402-.051-2.504 0-.148-.047-.398-.047-.75 0-.301-.051-.602-.051-.902 0-.25-.051-.5-.051-.801l-.199-1.699-.152-1.555c-.051-.398-.098-.801-.199-1.102s-.25-.949-.398-2c-.352-1.051-.703-1.801-1.004-2.305l-.949-1.449-.301-.402-1.051-.551c-.102 0-.25-.098-.453-.25l-.5-.25c-.598-.098-1.652-.051-3.152.051-.102 0-.301.051-.551.148-.301.102-.5.102-.602.102s-.301-.102-.5-.199zm4.855 13.766h-.098a214.18 214.18 0 0 0 .148 2.652c0 .25-.051.398-.051.449-.051.051-.148.102-.352.102-.098 0-.398.051-.848.098s-.754.051-.953.051l-1.953.102c-1.398 0-2.551.098-3.453.301-.199.051-.449.051-.801.051-.148 0-.199-.102-.199-.301s.051-.504.051-1.004v-1.551a11.42 11.42 0 0 0 .801-3.402c0-.203 0-.453.098-.852l.152-.902c0-.098.051-.301.051-.551v-.598c.047-.453.199-.801.5-1.102l.148-.301c.051-.102.102-.203.152-.25.098-.301.301-.602.598-.902.352-.352.852-.551 1.555-.652h.801c.348 0 .598-.047.801-.047.699 0 1.25.301 1.551 1 0 .102.051.25.148.449.051.199.102.301.152.402l.301 1.199.449 3.805c0 .301.051.852.25 1.754zm35.639 21.222l-.301.148-.051.051v.051h.75l2.152-.801c.301-.199.652-.25.953-.199.148 0 .25-.051.348-.25l.453-.852a1.33 1.33 0 0 0 .199-.703v-4.555l-.102-2.25c.102-.902 0-1.703-.199-2.453-.102-.102-.102-.352-.102-.652v-.551c0-.699-.047-1.199-.148-1.602a2.97 2.97 0 0 1-.148-1c0-1.102-.051-1.902-.152-2.453a6.25 6.25 0 0 1-.148-1.402l.047-2.504.051-1.301.051-1.352.051-1.449.051-1.453v-.5c-.051-.199-.051-.352-.051-.402v-.949c-.051-.199-.051-.449-.051-.852s-.051-.699-.051-.902l-.148-1.301c-.199-.699-.453-1.352-.703-1.902-.199-.25-.5-.398-1-.5-1 0-1.75 0-2.203-.051-.199 0-.598.051-1.199.25-.301.102-.5.301-.652.602-.051.199-.148.402-.301.602a1.19 1.19 0 0 0-.148.25l-.352.699-.301.652-.449.953-.902 2.051-.852 2.051c-.148.301-.348.902-.648 1.703l-.703 1.75-.898 2.004-.801 1.801c-.152.301-.25.5-.352.602-.102-.199-.25-.852-.449-1.852 0 0-.051-.051-.051-.148-.051-.102-.051-.152-.051-.203l-.398-.598c-.051-.051-.152-.254-.25-.602l-.152-.453a3.65 3.65 0 0 1-.199-.5c-.102-.148-.152-.301-.25-.449-.199-.25-.352-.551-.5-.852s-.301-.699-.453-1.102l-.398-.898c-.25-.402-.453-.902-.602-1.504-.102-.102-.199-.352-.301-.648l-.25-.703-.902-2.152c-.148-.352-.25-.602-.25-.75-.098-.199-.148-.449-.25-.75-.098-.25-.148-.551-.25-.902l-.25-.75c-.148-.199-.25-.352-.301-.5a1.02 1.02 0 0 0-.398-.25c-.152 0-.352-.051-.551-.051s-.352-.051-.402-.102c-.098 0-.648-.051-1.551-.051l-1.051.051c-.051 0-.301.051-.699.152-.453.098-.801.098-1.004.047-.199 0-.449 0-.75.051a3.83 3.83 0 0 1-.652.051.26.26 0 0 0-.297.301l.047 1.051.152 1.203.051 2.301v2.152c-.051.25-.102.75-.203 1.5l-.148 1.805c-.051.348-.102.852-.148 1.551l-.102 1.5-.152 1.504-.098 1.5-.352 4.207-.199 2.703c0 .348-.051.848-.102 1.449-.098.602-.098 1.004-.098 1.203a321.5 321.5 0 0 1-.152 2.801v.551c0 .25-.051.453-.051.551s-.098.203-.199.402c.102.199.102.348 0 .449a.79.79 0 0 0-.199.352c-.051.199-.102.301-.199.352V305v.152c0 .098.047.148.047.148v.199c0 .102.051.152.051.203v1.602c-.098.5.199.898.902 1.199.051 0 .102.051.148.051 0 .051.102.102.203.148s.148.102.25.152c.148.199.301.199.5.098.25-.047.449-.098.648-.098h.801c.801-.152 1.254-.25 1.402-.352.199-.051.301-.148.301-.352.051-.199.102-.598.199-1.148 0-.402.051-.852.102-1.352l.199-1.602.152-1.402.199-2.652.051-1.301c.051-.754.051-1.203 0-1.352-.051-.402-.051-1.203.051-2.453l.398-4.207.102-2.953.148-2.953.051-1.449.148-1.555.051-.098c0-.051.051-.102.051-.152a9.55 9.55 0 0 0 .449 1.203c0 .098.051.301.152.551.051.301.098.5.199.602l1 2.953.902 2.953 1.102 3.402c.398 1.152.75 2.602 1.051 4.305 0 .102.051.301.148.5l.203.449c0 .102.047.254.148.453s.152.352.199.449l.301.152.5.398.402.152c.398.25.75.348 1 .25h.152c.348 0 .598 0 .801-.051l1.551-.301c.801-.102 1.25-.352 1.402-.699 0 0 0-.051.051-.102l.047-.051a2.51 2.51 0 0 0 .453-.801 13.01 13.01 0 0 0 .699-1.852c0-.301.148-.652.352-1.152l.551-1.25c.199-.852.398-1.402.598-1.602.102-.152.203-.5.301-1.051.102-.453.25-.801.352-1.102 0-.199.102-.453.199-.801l.25-.801.203-.703.199-.648.102-.051c.098-.051.148-.102.199-.148l.148.297v.703l.152 3.051.047 2.004.051 1.953.102 5.305.148 3.453v1.152a6.01 6.01 0 0 0 .102 1.152c0 .949.102 1.602.352 1.902 0 .047 0 .098.051.098 0 .102.098.25.25.352 0 .102.098.199.25.301zm0 0"/><use xlink:href="#B" x="104.405"/></g></svg>