<svg xmlns="http://www.w3.org/2000/svg" xmlns:xlink="http://www.w3.org/1999/xlink" width="500" zoomAndPan="magnify" viewBox="0 0 375 375" height="500" preserveAspectRatio="xMidYMid meet" xmlns:v="https://vecta.io/nano"><style><![CDATA[.B{clip-rule:nonzero}.C{fill:#fff}]]></style><defs><clipPath id="A"><path d="M269 59h44v88h-44zm0 0" class="B"/></clipPath><clipPath id="B"><path d="M253.539 37.5l74.789 38.719-73.648 142.258-74.789-38.719zm0 0" class="B"/></clipPath><clipPath id="C"><path d="M253.539 37.5l74.789 38.719-84.172 162.578-74.785-38.719zm0 0" class="B"/></clipPath><clipPath id="D"><path d="M199.191 8.336L507.02 167.703 133.258 889.652-174.57 730.285zm0 0" class="B"/></clipPath><clipPath id="E"><path d="M199.191 8.336l307.82 159.363L133.25 889.645-174.57 730.285zm0 0" class="B"/></clipPath><clipPath id="F"><path d="M306 86h3v5h-3zm0 0" class="B"/></clipPath><clipPath id="G"><path d="M253.539 37.5l74.789 38.719-73.648 142.258-74.789-38.719zm0 0" class="B"/></clipPath><clipPath id="H"><path d="M253.539 37.5l74.789 38.719-84.172 162.578-74.785-38.719zm0 0" class="B"/></clipPath><clipPath id="I"><path d="M199.191 8.336L507.02 167.703 133.258 889.652-174.57 730.285zm0 0" class="B"/></clipPath><clipPath id="J"><path d="M199.191 8.336l307.82 159.363L133.25 889.645-174.57 730.285zm0 0" class="B"/></clipPath><clipPath id="K"><path d="M299 97h2v2h-2zm0 0" class="B"/></clipPath><clipPath id="L"><path d="M253.539 37.5l74.789 38.719-73.648 142.258-74.789-38.719zm0 0" class="B"/></clipPath><clipPath id="M"><path d="M253.539 37.5l74.789 38.719-84.172 162.578-74.785-38.719zm0 0" class="B"/></clipPath><clipPath id="N"><path d="M199.191 8.336L507.02 167.703 133.258 889.652-174.57 730.285zm0 0" class="B"/></clipPath><clipPath id="O"><path d="M199.191 8.336l307.82 159.363L133.25 889.645-174.57 730.285zm0 0" class="B"/></clipPath><clipPath id="P"><path d="M294 104h2v2h-2zm0 0" class="B"/></clipPath><clipPath id="Q"><path d="M253.539 37.5l74.789 38.719-73.648 142.258-74.789-38.719zm0 0" class="B"/></clipPath><clipPath id="R"><path d="M253.539 37.5l74.789 38.719-84.172 162.578-74.785-38.719zm0 0" class="B"/></clipPath><clipPath id="S"><path d="M199.191 8.336L507.02 167.703 133.258 889.652-174.57 730.285zm0 0" class="B"/></clipPath><clipPath id="T"><path d="M199.191 8.336l307.82 159.363L133.25 889.645-174.57 730.285zm0 0" class="B"/></clipPath><clipPath id="U"><path d="M293 106h1v2h-1zm0 0" class="B"/></clipPath><clipPath id="V"><path d="M253.539 37.5l74.789 38.719-73.648 142.258-74.789-38.719zm0 0" class="B"/></clipPath><clipPath id="W"><path d="M253.539 37.5l74.789 38.719-84.172 162.578-74.785-38.719zm0 0" class="B"/></clipPath><clipPath id="X"><path d="M199.191 8.336L507.02 167.703 133.258 889.652-174.57 730.285zm0 0" class="B"/></clipPath><clipPath id="Y"><path d="M199.191 8.336l307.82 159.363L133.25 889.645-174.57 730.285zm0 0" class="B"/></clipPath><clipPath id="Z"><path d="M210 52h106v146H210zm0 0" class="B"/></clipPath><clipPath id="a"><path d="M253.539 37.5l74.789 38.719-73.648 142.258-74.789-38.719zm0 0" class="B"/></clipPath><clipPath id="b"><path d="M253.539 37.5l74.789 38.719-84.172 162.578-74.785-38.719zm0 0" class="B"/></clipPath><clipPath id="c"><path d="M199.191 8.336L507.02 167.703 133.258 889.652-174.57 730.285zm0 0" class="B"/></clipPath><clipPath id="d"><path d="M199.191 8.336l307.82 159.363L133.25 889.645-174.57 730.285zm0 0" class="B"/></clipPath><clipPath id="e"><path d="M299 89h2v2h-2zm0 0" class="B"/></clipPath><clipPath id="f"><path d="M253.539 37.5l74.789 38.719-73.648 142.258-74.789-38.719zm0 0" class="B"/></clipPath><clipPath id="g"><path d="M253.539 37.5l74.789 38.719-84.172 162.578-74.785-38.719zm0 0" class="B"/></clipPath><clipPath id="h"><path d="M199.191 8.336L507.02 167.703 133.258 889.652-174.57 730.285zm0 0" class="B"/></clipPath><clipPath id="i"><path d="M199.191 8.336l307.82 159.363L133.25 889.645-174.57 730.285zm0 0" class="B"/></clipPath><clipPath id="j"><path d="M293 96h3v2h-3zm0 0" class="B"/></clipPath><clipPath id="k"><path d="M253.539 37.5l74.789 38.719-73.648 142.258-74.789-38.719zm0 0" class="B"/></clipPath><clipPath id="l"><path d="M253.539 37.5l74.789 38.719-84.172 162.578-74.785-38.719zm0 0" class="B"/></clipPath><clipPath id="m"><path d="M199.191 8.336L507.02 167.703 133.258 889.652-174.57 730.285zm0 0" class="B"/></clipPath><clipPath id="n"><path d="M199.191 8.336l307.82 159.363L133.25 889.645-174.57 730.285zm0 0" class="B"/></clipPath><clipPath id="o"><path d="M280 117h3v4h-3zm0 0" class="B"/></clipPath><clipPath id="p"><path d="M253.539 37.5l74.789 38.719-73.648 142.258-74.789-38.719zm0 0" class="B"/></clipPath><clipPath id="q"><path d="M253.539 37.5l74.789 38.719-84.172 162.578-74.785-38.719zm0 0" class="B"/></clipPath><clipPath id="r"><path d="M199.191 8.336L507.02 167.703 133.258 889.652-174.57 730.285zm0 0" class="B"/></clipPath><clipPath id="s"><path d="M199.191 8.336l307.82 159.363L133.25 889.645-174.57 730.285zm0 0" class="B"/></clipPath><clipPath id="t"><path d="M274 120h7v10h-7zm0 0" class="B"/></clipPath><clipPath id="u"><path d="M253.539 37.5l74.789 38.719-73.648 142.258-74.789-38.719zm0 0" class="B"/></clipPath><clipPath id="v"><path d="M253.539 37.5l74.789 38.719-84.172 162.578-74.785-38.719zm0 0" class="B"/></clipPath><clipPath id="w"><path d="M199.191 8.336L507.02 167.703 133.258 889.652-174.57 730.285zm0 0" class="B"/></clipPath><clipPath id="x"><path d="M199.191 8.336l307.82 159.363L133.25 889.645-174.57 730.285zm0 0" class="B"/></clipPath><clipPath id="y"><path d="M273 129h2v2h-2zm0 0" class="B"/></clipPath><clipPath id="z"><path d="M253.539 37.5l74.789 38.719-73.648 142.258-74.789-38.719zm0 0" class="B"/></clipPath><clipPath id="AA"><path d="M253.539 37.5l74.789 38.719-84.172 162.578-74.785-38.719zm0 0" class="B"/></clipPath><clipPath id="AB"><path d="M199.191 8.336L507.02 167.703 133.258 889.652-174.57 730.285zm0 0" class="B"/></clipPath><clipPath id="AC"><path d="M199.191 8.336l307.82 159.363L133.25 889.645-174.57 730.285zm0 0" class="B"/></clipPath><clipPath id="AD"><path d="M278 117h2v3h-2zm0 0" class="B"/></clipPath><clipPath id="AE"><path d="M253.539 37.5l74.789 38.719-73.648 142.258-74.789-38.719zm0 0" class="B"/></clipPath><clipPath id="AF"><path d="M253.539 37.5l74.789 38.719-84.172 162.578-74.785-38.719zm0 0" class="B"/></clipPath><clipPath id="AG"><path d="M199.191 8.336L507.02 167.703 133.258 889.652-174.57 730.285zm0 0" class="B"/></clipPath><clipPath id="AH"><path d="M199.191 8.336l307.82 159.363L133.25 889.645-174.57 730.285zm0 0" class="B"/></clipPath><clipPath id="AI"><path d="M277 119h2v3h-2zm0 0" class="B"/></clipPath><clipPath id="AJ"><path d="M253.539 37.5l74.789 38.719-73.648 142.258-74.789-38.719zm0 0" class="B"/></clipPath><clipPath id="AK"><path d="M253.539 37.5l74.789 38.719-84.172 162.578-74.785-38.719zm0 0" class="B"/></clipPath><clipPath id="AL"><path d="M199.191 8.336L507.02 167.703 133.258 889.652-174.57 730.285zm0 0" class="B"/></clipPath><clipPath id="AM"><path d="M199.191 8.336l307.82 159.363L133.25 889.645-174.57 730.285zm0 0" class="B"/></clipPath><clipPath id="AN"><path d="M279 117h1v1h-1zm0 0" class="B"/></clipPath><clipPath id="AO"><path d="M253.539 37.5l74.789 38.719-73.648 142.258-74.789-38.719zm0 0" class="B"/></clipPath><clipPath id="AP"><path d="M253.539 37.5l74.789 38.719-84.172 162.578-74.785-38.719zm0 0" class="B"/></clipPath><clipPath id="AQ"><path d="M199.191 8.336L507.02 167.703 133.258 889.652-174.57 730.285zm0 0" class="B"/></clipPath><clipPath id="AR"><path d="M199.191 8.336l307.82 159.363L133.25 889.645-174.57 730.285zm0 0" class="B"/></clipPath><clipPath id="AS"><path d="M232 198h2v3h-2zm0 0" class="B"/></clipPath><clipPath id="AT"><path d="M253.539 37.5l74.789 38.719-73.648 142.258-74.789-38.719zm0 0" class="B"/></clipPath><clipPath id="AU"><path d="M253.539 37.5l74.789 38.719-84.172 162.578-74.785-38.719zm0 0" class="B"/></clipPath><clipPath id="AV"><path d="M199.191 8.336L507.02 167.703 133.258 889.652-174.57 730.285zm0 0" class="B"/></clipPath><clipPath id="AW"><path d="M199.191 8.336l307.82 159.363L133.25 889.645-174.57 730.285zm0 0" class="B"/></clipPath><clipPath id="AX"><path d="M235 156h12v17h-12zm0 0" class="B"/></clipPath><clipPath id="AY"><path d="M253.539 37.5l74.789 38.719-73.648 142.258-74.789-38.719zm0 0" class="B"/></clipPath><clipPath id="AZ"><path d="M253.539 37.5l74.789 38.719-84.172 162.578-74.785-38.719zm0 0" class="B"/></clipPath><clipPath id="Aa"><path d="M199.191 8.336L507.02 167.703 133.258 889.652-174.57 730.285zm0 0" class="B"/></clipPath><clipPath id="Ab"><path d="M199.191 8.336l307.82 159.363L133.25 889.645-174.57 730.285zm0 0" class="B"/></clipPath><clipPath id="Ac"><path d="M293 61h6v5h-6zm0 0" class="B"/></clipPath><clipPath id="Ad"><path d="M253.539 37.5l74.789 38.719-73.648 142.258-74.789-38.719zm0 0" class="B"/></clipPath><clipPath id="Ae"><path d="M253.539 37.5l74.789 38.719-84.172 162.578-74.785-38.719zm0 0" class="B"/></clipPath><clipPath id="Af"><path d="M199.191 8.336L507.02 167.703 133.258 889.652-174.57 730.285zm0 0" class="B"/></clipPath><clipPath id="Ag"><path d="M199.191 8.336l307.82 159.363L133.25 889.645-174.57 730.285zm0 0" class="B"/></clipPath><clipPath id="Ah"><path d="M201 193h34v20h-34zm0 0" class="B"/></clipPath><clipPath id="Ai"><path d="M253.539 37.5l74.789 38.719-73.648 142.258-74.789-38.719zm0 0" class="B"/></clipPath><clipPath id="Aj"><path d="M253.539 37.5l74.789 38.719-84.172 162.578-74.785-38.719zm0 0" class="B"/></clipPath><clipPath id="Ak"><path d="M199.191 8.336L507.02 167.703 133.258 889.652-174.57 730.285zm0 0" class="B"/></clipPath><clipPath id="Al"><path d="M199.191 8.336l307.82 159.363L133.25 889.645-174.57 730.285zm0 0" class="B"/></clipPath><clipPath id="Am"><path d="M236 161h5v11h-5zm0 0" class="B"/></clipPath><clipPath id="An"><path d="M253.539 37.5l74.789 38.719-73.648 142.258-74.789-38.719zm0 0" class="B"/></clipPath><clipPath id="Ao"><path d="M253.539 37.5l74.789 38.719-84.172 162.578-74.785-38.719zm0 0" class="B"/></clipPath><clipPath id="Ap"><path d="M199.191 8.336L507.02 167.703 133.258 889.652-174.57 730.285zm0 0" class="B"/></clipPath><clipPath id="Aq"><path d="M199.191 8.336l307.82 159.363L133.25 889.645-174.57 730.285zm0 0" class="B"/></clipPath><clipPath id="Ar"><path d="M219 200h4v2h-4zm0 0" class="B"/></clipPath><clipPath id="As"><path d="M253.539 37.5l74.789 38.719-73.648 142.258-74.789-38.719zm0 0" class="B"/></clipPath><clipPath id="At"><path d="M253.539 37.5l74.789 38.719-84.172 162.578-74.785-38.719zm0 0" class="B"/></clipPath><clipPath id="Au"><path d="M199.191 8.336L507.02 167.703 133.258 889.652-174.57 730.285zm0 0" class="B"/></clipPath><clipPath id="Av"><path d="M199.191 8.336l307.82 159.363L133.25 889.645-174.57 730.285zm0 0" class="B"/></clipPath><clipPath id="Aw"><path d="M229 182h3v1h-3zm0 0" class="B"/></clipPath><clipPath id="Ax"><path d="M253.539 37.5l74.789 38.719-73.648 142.258-74.789-38.719zm0 0" class="B"/></clipPath><clipPath id="Ay"><path d="M253.539 37.5l74.789 38.719-84.172 162.578-74.785-38.719zm0 0" class="B"/></clipPath><clipPath id="Az"><path d="M199.191 8.336L507.02 167.703 133.258 889.652-174.57 730.285zm0 0" class="B"/></clipPath><clipPath id="BA"><path d="M199.191 8.336l307.82 159.363L133.25 889.645-174.57 730.285zm0 0" class="B"/></clipPath><clipPath id="BB"><path d="M289 60h3v2h-3zm0 0" class="B"/></clipPath><clipPath id="BC"><path d="M253.539 37.5l74.789 38.719-73.648 142.258-74.789-38.719zm0 0" class="B"/></clipPath><clipPath id="BD"><path d="M253.539 37.5l74.789 38.719-84.172 162.578-74.785-38.719zm0 0" class="B"/></clipPath><clipPath id="BE"><path d="M199.191 8.336L507.02 167.703 133.258 889.652-174.57 730.285zm0 0" class="B"/></clipPath><clipPath id="BF"><path d="M199.191 8.336l307.82 159.363L133.25 889.645-174.57 730.285zm0 0" class="B"/></clipPath><clipPath id="BG"><path d="M244 143h1v2h-1zm0 0" class="B"/></clipPath><clipPath id="BH"><path d="M253.539 37.5l74.789 38.719-73.648 142.258-74.789-38.719zm0 0" class="B"/></clipPath><clipPath id="BI"><path d="M253.539 37.5l74.789 38.719-84.172 162.578-74.785-38.719zm0 0" class="B"/></clipPath><clipPath id="BJ"><path d="M199.191 8.336L507.02 167.703 133.258 889.652-174.57 730.285zm0 0" class="B"/></clipPath><clipPath id="BK"><path d="M199.191 8.336l307.82 159.363L133.25 889.645-174.57 730.285zm0 0" class="B"/></clipPath><clipPath id="BL"><path d="M212 197h3v2h-3zm0 0" class="B"/></clipPath><clipPath id="BM"><path d="M253.539 37.5l74.789 38.719-73.648 142.258-74.789-38.719zm0 0" class="B"/></clipPath><clipPath id="BN"><path d="M253.539 37.5l74.789 38.719-84.172 162.578-74.785-38.719zm0 0" class="B"/></clipPath><clipPath id="BO"><path d="M199.191 8.336L507.02 167.703 133.258 889.652-174.57 730.285zm0 0" class="B"/></clipPath><clipPath id="BP"><path d="M199.191 8.336l307.82 159.363L133.25 889.645-174.57 730.285zm0 0" class="B"/></clipPath><clipPath id="BQ"><path d="M239 142h3v2h-3zm0 0" class="B"/></clipPath><clipPath id="BR"><path d="M253.539 37.5l74.789 38.719-73.648 142.258-74.789-38.719zm0 0" class="B"/></clipPath><clipPath id="BS"><path d="M253.539 37.5l74.789 38.719-84.172 162.578-74.785-38.719zm0 0" class="B"/></clipPath><clipPath id="BT"><path d="M199.191 8.336L507.02 167.703 133.258 889.652-174.57 730.285zm0 0" class="B"/></clipPath><clipPath id="BU"><path d="M199.191 8.336l307.82 159.363L133.25 889.645-174.57 730.285zm0 0" class="B"/></clipPath><clipPath id="BV"><path d="M227 161h2v6h-2zm0 0" class="B"/></clipPath><clipPath id="BW"><path d="M253.539 37.5l74.789 38.719-73.648 142.258-74.789-38.719zm0 0" class="B"/></clipPath><clipPath id="BX"><path d="M253.539 37.5l74.789 38.719-84.172 162.578-74.785-38.719zm0 0" class="B"/></clipPath><clipPath id="BY"><path d="M199.191 8.336L507.02 167.703 133.258 889.652-174.57 730.285zm0 0" class="B"/></clipPath><clipPath id="BZ"><path d="M199.191 8.336l307.82 159.363L133.25 889.645-174.57 730.285zm0 0" class="B"/></clipPath><clipPath id="Ba"><path d="M277 64h3v4h-3zm0 0" class="B"/></clipPath><clipPath id="Bb"><path d="M253.539 37.5l74.789 38.719-73.648 142.258-74.789-38.719zm0 0" class="B"/></clipPath><clipPath id="Bc"><path d="M253.539 37.5l74.789 38.719-84.172 162.578-74.785-38.719zm0 0" class="B"/></clipPath><clipPath id="Bd"><path d="M199.191 8.336L507.02 167.703 133.258 889.652-174.57 730.285zm0 0" class="B"/></clipPath><clipPath id="Be"><path d="M199.191 8.336l307.82 159.363L133.25 889.645-174.57 730.285zm0 0" class="B"/></clipPath><clipPath id="Bf"><path d="M244 131h2v2h-2zm0 0" class="B"/></clipPath><clipPath id="Bg"><path d="M253.539 37.5l74.789 38.719-73.648 142.258-74.789-38.719zm0 0" class="B"/></clipPath><clipPath id="Bh"><path d="M253.539 37.5l74.789 38.719-84.172 162.578-74.785-38.719zm0 0" class="B"/></clipPath><clipPath id="Bi"><path d="M199.191 8.336L507.02 167.703 133.258 889.652-174.57 730.285zm0 0" class="B"/></clipPath><clipPath id="Bj"><path d="M199.191 8.336l307.82 159.363L133.25 889.645-174.57 730.285zm0 0" class="B"/></clipPath><clipPath id="Bk"><path d="M270 70h5v3h-5zm0 0" class="B"/></clipPath><clipPath id="Bl"><path d="M253.539 37.5l74.789 38.719-73.648 142.258-74.789-38.719zm0 0" class="B"/></clipPath><clipPath id="Bm"><path d="M253.539 37.5l74.789 38.719-84.172 162.578-74.785-38.719zm0 0" class="B"/></clipPath><clipPath id="Bn"><path d="M199.191 8.336L507.02 167.703 133.258 889.652-174.57 730.285zm0 0" class="B"/></clipPath><clipPath id="Bo"><path d="M199.191 8.336l307.82 159.363L133.25 889.645-174.57 730.285zm0 0" class="B"/></clipPath><clipPath id="Bp"><path d="M233 137h6v6h-6zm0 0" class="B"/></clipPath><clipPath id="Bq"><path d="M253.539 37.5l74.789 38.719-73.648 142.258-74.789-38.719zm0 0" class="B"/></clipPath><clipPath id="Br"><path d="M253.539 37.5l74.789 38.719-84.172 162.578-74.785-38.719zm0 0" class="B"/></clipPath><clipPath id="Bs"><path d="M199.191 8.336L507.02 167.703 133.258 889.652-174.57 730.285zm0 0" class="B"/></clipPath><clipPath id="Bt"><path d="M199.191 8.336l307.82 159.363L133.25 889.645-174.57 730.285zm0 0" class="B"/></clipPath><clipPath id="Bu"><path d="M214 183h2v2h-2zm0 0" class="B"/></clipPath><clipPath id="Bv"><path d="M253.539 37.5l74.789 38.719-73.648 142.258-74.789-38.719zm0 0" class="B"/></clipPath><clipPath id="Bw"><path d="M253.539 37.5l74.789 38.719-84.172 162.578-74.785-38.719zm0 0" class="B"/></clipPath><clipPath id="Bx"><path d="M199.191 8.336L507.02 167.703 133.258 889.652-174.57 730.285zm0 0" class="B"/></clipPath><clipPath id="By"><path d="M199.191 8.336l307.82 159.363L133.25 889.645-174.57 730.285zm0 0" class="B"/></clipPath><clipPath id="Bz"><path d="M212 187h2v2h-2zm0 0" class="B"/></clipPath><clipPath id="CA"><path d="M253.539 37.5l74.789 38.719-73.648 142.258-74.789-38.719zm0 0" class="B"/></clipPath><clipPath id="CB"><path d="M253.539 37.5l74.789 38.719-84.172 162.578-74.785-38.719zm0 0" class="B"/></clipPath><clipPath id="CC"><path d="M199.191 8.336L507.02 167.703 133.258 889.652-174.57 730.285zm0 0" class="B"/></clipPath><clipPath id="CD"><path d="M199.191 8.336l307.82 159.363L133.25 889.645-174.57 730.285zm0 0" class="B"/></clipPath><clipPath id="CE"><path d="M265 75h6v4h-6zm0 0" class="B"/></clipPath><clipPath id="CF"><path d="M253.539 37.5l74.789 38.719-73.648 142.258-74.789-38.719zm0 0" class="B"/></clipPath><clipPath id="CG"><path d="M253.539 37.5l74.789 38.719-84.172 162.578-74.785-38.719zm0 0" class="B"/></clipPath><clipPath id="CH"><path d="M199.191 8.336L507.02 167.703 133.258 889.652-174.57 730.285zm0 0" class="B"/></clipPath><clipPath id="CI"><path d="M199.191 8.336l307.82 159.363L133.25 889.645-174.57 730.285zm0 0" class="B"/></clipPath><clipPath id="CJ"><path d="M206 190h4v6h-4zm0 0" class="B"/></clipPath><clipPath id="CK"><path d="M253.539 37.5l74.789 38.719-73.648 142.258-74.789-38.719zm0 0" class="B"/></clipPath><clipPath id="CL"><path d="M253.539 37.5l74.789 38.719-84.172 162.578-74.785-38.719zm0 0" class="B"/></clipPath><clipPath id="CM"><path d="M199.191 8.336L507.02 167.703 133.258 889.652-174.57 730.285zm0 0" class="B"/></clipPath><clipPath id="CN"><path d="M199.191 8.336l307.82 159.363L133.25 889.645-174.57 730.285zm0 0" class="B"/></clipPath><clipPath id="CO"><path d="M210 192h1v2h-1zm0 0" class="B"/></clipPath><clipPath id="CP"><path d="M253.539 37.5l74.789 38.719-73.648 142.258-74.789-38.719zm0 0" class="B"/></clipPath><clipPath id="CQ"><path d="M253.539 37.5l74.789 38.719-84.172 162.578-74.785-38.719zm0 0" class="B"/></clipPath><clipPath id="CR"><path d="M199.191 8.336L507.02 167.703 133.258 889.652-174.57 730.285zm0 0" class="B"/></clipPath><clipPath id="CS"><path d="M199.191 8.336l307.82 159.363L133.25 889.645-174.57 730.285zm0 0" class="B"/></clipPath><clipPath id="CT"><path d="M277 57h4v4h-4zm0 0" class="B"/></clipPath><clipPath id="CU"><path d="M253.539 37.5l74.789 38.719-73.648 142.258-74.789-38.719zm0 0" class="B"/></clipPath><clipPath id="CV"><path d="M253.539 37.5l74.789 38.719-84.172 162.578-74.785-38.719zm0 0" class="B"/></clipPath><clipPath id="CW"><path d="M199.191 8.336L507.02 167.703 133.258 889.652-174.57 730.285zm0 0" class="B"/></clipPath><clipPath id="CX"><path d="M199.191 8.336l307.82 159.363L133.25 889.645-174.57 730.285zm0 0" class="B"/></clipPath><clipPath id="CY"><path d="M215 178h2v2h-2zm0 0" class="B"/></clipPath><clipPath id="CZ"><path d="M253.539 37.5l74.789 38.719-73.648 142.258-74.789-38.719zm0 0" class="B"/></clipPath><clipPath id="Ca"><path d="M253.539 37.5l74.789 38.719-84.172 162.578-74.785-38.719zm0 0" class="B"/></clipPath><clipPath id="Cb"><path d="M199.191 8.336L507.02 167.703 133.258 889.652-174.57 730.285zm0 0" class="B"/></clipPath><clipPath id="Cc"><path d="M199.191 8.336l307.82 159.363L133.25 889.645-174.57 730.285zm0 0" class="B"/></clipPath><clipPath id="Cd"><path d="M260 81h6v4h-6zm0 0" class="B"/></clipPath><clipPath id="Ce"><path d="M253.539 37.5l74.789 38.719-73.648 142.258-74.789-38.719zm0 0" class="B"/></clipPath><clipPath id="Cf"><path d="M253.539 37.5l74.789 38.719-84.172 162.578-74.785-38.719zm0 0" class="B"/></clipPath><clipPath id="Cg"><path d="M199.191 8.336L507.02 167.703 133.258 889.652-174.57 730.285zm0 0" class="B"/></clipPath><clipPath id="Ch"><path d="M199.191 8.336l307.82 159.363L133.25 889.645-174.57 730.285zm0 0" class="B"/></clipPath><clipPath id="Ci"><path d="M210 186h2v3h-2zm0 0" class="B"/></clipPath><clipPath id="Cj"><path d="M253.539 37.5l74.789 38.719-73.648 142.258-74.789-38.719zm0 0" class="B"/></clipPath><clipPath id="Ck"><path d="M253.539 37.5l74.789 38.719-84.172 162.578-74.785-38.719zm0 0" class="B"/></clipPath><clipPath id="Cl"><path d="M199.191 8.336L507.02 167.703 133.258 889.652-174.57 730.285zm0 0" class="B"/></clipPath><clipPath id="Cm"><path d="M199.191 8.336l307.82 159.363L133.25 889.645-174.57 730.285zm0 0" class="B"/></clipPath><clipPath id="Cn"><path d="M234 139h2v2h-2zm0 0" class="B"/></clipPath><clipPath id="Co"><path d="M253.539 37.5l74.789 38.719-73.648 142.258-74.789-38.719zm0 0" class="B"/></clipPath><clipPath id="Cp"><path d="M253.539 37.5l74.789 38.719-84.172 162.578-74.785-38.719zm0 0" class="B"/></clipPath><clipPath id="Cq"><path d="M199.191 8.336L507.02 167.703 133.258 889.652-174.57 730.285zm0 0" class="B"/></clipPath><clipPath id="Cr"><path d="M199.191 8.336l307.82 159.363L133.25 889.645-174.57 730.285zm0 0" class="B"/></clipPath><clipPath id="Cs"><path d="M227 153h1v1h-1zm0 0" class="B"/></clipPath><clipPath id="Ct"><path d="M253.539 37.5l74.789 38.719-73.648 142.258-74.789-38.719zm0 0" class="B"/></clipPath><clipPath id="Cu"><path d="M253.539 37.5l74.789 38.719-84.172 162.578-74.785-38.719zm0 0" class="B"/></clipPath><clipPath id="Cv"><path d="M199.191 8.336L507.02 167.703 133.258 889.652-174.57 730.285zm0 0" class="B"/></clipPath><clipPath id="Cw"><path d="M199.191 8.336l307.82 159.363L133.25 889.645-174.57 730.285zm0 0" class="B"/></clipPath><clipPath id="Cx"><path d="M242 120h4v5h-4zm0 0" class="B"/></clipPath><clipPath id="Cy"><path d="M253.539 37.5l74.789 38.719-73.648 142.258-74.789-38.719zm0 0" class="B"/></clipPath><clipPath id="Cz"><path d="M253.539 37.5l74.789 38.719-84.172 162.578-74.785-38.719zm0 0" class="B"/></clipPath><clipPath id="DA"><path d="M199.191 8.336L507.02 167.703 133.258 889.652-174.57 730.285zm0 0" class="B"/></clipPath><clipPath id="DB"><path d="M199.191 8.336l307.82 159.363L133.25 889.645-174.57 730.285zm0 0" class="B"/></clipPath><clipPath id="DC"><path d="M256 86h5v5h-5zm0 0" class="B"/></clipPath><clipPath id="DD"><path d="M253.539 37.5l74.789 38.719-73.648 142.258-74.789-38.719zm0 0" class="B"/></clipPath><clipPath id="DE"><path d="M253.539 37.5l74.789 38.719-84.172 162.578-74.785-38.719zm0 0" class="B"/></clipPath><clipPath id="DF"><path d="M199.191 8.336L507.02 167.703 133.258 889.652-174.57 730.285zm0 0" class="B"/></clipPath><clipPath id="DG"><path d="M199.191 8.336l307.82 159.363L133.25 889.645-174.57 730.285zm0 0" class="B"/></clipPath><clipPath id="DH"><path d="M247 105h5v5h-5zm0 0" class="B"/></clipPath><clipPath id="DI"><path d="M253.539 37.5l74.789 38.719-73.648 142.258-74.789-38.719zm0 0" class="B"/></clipPath><clipPath id="DJ"><path d="M253.539 37.5l74.789 38.719-84.172 162.578-74.785-38.719zm0 0" class="B"/></clipPath><clipPath id="DK"><path d="M199.191 8.336L507.02 167.703 133.258 889.652-174.57 730.285zm0 0" class="B"/></clipPath><clipPath id="DL"><path d="M199.191 8.336l307.82 159.363L133.25 889.645-174.57 730.285zm0 0" class="B"/></clipPath><clipPath id="DM"><path d="M273 55h4v4h-4zm0 0" class="B"/></clipPath><clipPath id="DN"><path d="M253.539 37.5l74.789 38.719-73.648 142.258-74.789-38.719zm0 0" class="B"/></clipPath><clipPath id="DO"><path d="M253.539 37.5l74.789 38.719-84.172 162.578-74.785-38.719zm0 0" class="B"/></clipPath><clipPath id="DP"><path d="M199.191 8.336L507.02 167.703 133.258 889.652-174.57 730.285zm0 0" class="B"/></clipPath><clipPath id="DQ"><path d="M199.191 8.336l307.82 159.363L133.25 889.645-174.57 730.285zm0 0" class="B"/></clipPath><clipPath id="DR"><path d="M251 93h5v4h-5zm0 0" class="B"/></clipPath><clipPath id="DS"><path d="M253.539 37.5l74.789 38.719-73.648 142.258-74.789-38.719zm0 0" class="B"/></clipPath><clipPath id="DT"><path d="M253.539 37.5l74.789 38.719-84.172 162.578-74.785-38.719zm0 0" class="B"/></clipPath><clipPath id="DU"><path d="M199.191 8.336L507.02 167.703 133.258 889.652-174.57 730.285zm0 0" class="B"/></clipPath><clipPath id="DV"><path d="M199.191 8.336l307.82 159.363L133.25 889.645-174.57 730.285zm0 0" class="B"/></clipPath><clipPath id="DW"><path d="M221 155h2v2h-2zm0 0" class="B"/></clipPath><clipPath id="DX"><path d="M253.539 37.5l74.789 38.719-73.648 142.258-74.789-38.719zm0 0" class="B"/></clipPath><clipPath id="DY"><path d="M253.539 37.5l74.789 38.719-84.172 162.578-74.785-38.719zm0 0" class="B"/></clipPath><clipPath id="DZ"><path d="M199.191 8.336L507.02 167.703 133.258 889.652-174.57 730.285zm0 0" class="B"/></clipPath><clipPath id="Da"><path d="M199.191 8.336l307.82 159.363L133.25 889.645-174.57 730.285zm0 0" class="B"/></clipPath><clipPath id="Db"><path d="M272 56h2v2h-2zm0 0" class="B"/></clipPath><clipPath id="Dc"><path d="M253.539 37.5l74.789 38.719-73.648 142.258-74.789-38.719zm0 0" class="B"/></clipPath><clipPath id="Dd"><path d="M253.539 37.5l74.789 38.719-84.172 162.578-74.785-38.719zm0 0" class="B"/></clipPath><clipPath id="De"><path d="M199.191 8.336L507.02 167.703 133.258 889.652-174.57 730.285zm0 0" class="B"/></clipPath><clipPath id="Df"><path d="M199.191 8.336l307.82 159.363L133.25 889.645-174.57 730.285zm0 0" class="B"/></clipPath><clipPath id="Dg"><path d="M225 119h8v18h-8zm0 0" class="B"/></clipPath><clipPath id="Dh"><path d="M253.539 37.5l74.789 38.719-73.648 142.258-74.789-38.719zm0 0" class="B"/></clipPath><clipPath id="Di"><path d="M253.539 37.5l74.789 38.719-84.172 162.578-74.785-38.719zm0 0" class="B"/></clipPath><clipPath id="Dj"><path d="M199.191 8.336L507.02 167.703 133.258 889.652-174.57 730.285zm0 0" class="B"/></clipPath><clipPath id="Dk"><path d="M199.191 8.336l307.82 159.363L133.25 889.645-174.57 730.285zm0 0" class="B"/></clipPath><clipPath id="Dl"><path d="M272 54h3v2h-3zm0 0" class="B"/></clipPath><clipPath id="Dm"><path d="M253.539 37.5l74.789 38.719-73.648 142.258-74.789-38.719zm0 0" class="B"/></clipPath><clipPath id="Dn"><path d="M253.539 37.5l74.789 38.719-84.172 162.578-74.785-38.719zm0 0" class="B"/></clipPath><clipPath id="Do"><path d="M199.191 8.336L507.02 167.703 133.258 889.652-174.57 730.285zm0 0" class="B"/></clipPath><clipPath id="Dp"><path d="M199.191 8.336l307.82 159.363L133.25 889.645-174.57 730.285zm0 0" class="B"/></clipPath><clipPath id="Dq"><path d="M233 130h1v2h-1zm0 0" class="B"/></clipPath><clipPath id="Dr"><path d="M253.539 37.5l74.789 38.719-73.648 142.258-74.789-38.719zm0 0" class="B"/></clipPath><clipPath id="Ds"><path d="M253.539 37.5l74.789 38.719-84.172 162.578-74.785-38.719zm0 0" class="B"/></clipPath><clipPath id="Dt"><path d="M199.191 8.336L507.02 167.703 133.258 889.652-174.57 730.285zm0 0" class="B"/></clipPath><clipPath id="Du"><path d="M199.191 8.336l307.82 159.363L133.25 889.645-174.57 730.285zm0 0" class="B"/></clipPath><clipPath id="Dv"><path d="M265 65h3v2h-3zm0 0" class="B"/></clipPath><clipPath id="Dw"><path d="M253.539 37.5l74.789 38.719-73.648 142.258-74.789-38.719zm0 0" class="B"/></clipPath><clipPath id="Dx"><path d="M253.539 37.5l74.789 38.719-84.172 162.578-74.785-38.719zm0 0" class="B"/></clipPath><clipPath id="Dy"><path d="M199.191 8.336L507.02 167.703 133.258 889.652-174.57 730.285zm0 0" class="B"/></clipPath><clipPath id="Dz"><path d="M199.191 8.336l307.82 159.363L133.25 889.645-174.57 730.285zm0 0" class="B"/></clipPath><clipPath id="EA"><path d="M233 130h1v1h-1zm0 0" class="B"/></clipPath><clipPath id="EB"><path d="M253.539 37.5l74.789 38.719-73.648 142.258-74.789-38.719zm0 0" class="B"/></clipPath><clipPath id="EC"><path d="M253.539 37.5l74.789 38.719-84.172 162.578-74.785-38.719zm0 0" class="B"/></clipPath><clipPath id="ED"><path d="M199.191 8.336L507.02 167.703 133.258 889.652-174.57 730.285zm0 0" class="B"/></clipPath><clipPath id="EE"><path d="M199.191 8.336l307.82 159.363L133.25 889.645-174.57 730.285zm0 0" class="B"/></clipPath><clipPath id="EF"><path d="M261 69h3v4h-3zm0 0" class="B"/></clipPath><clipPath id="EG"><path d="M253.539 37.5l74.789 38.719-73.648 142.258-74.789-38.719zm0 0" class="B"/></clipPath><clipPath id="EH"><path d="M253.539 37.5l74.789 38.719-84.172 162.578-74.785-38.719zm0 0" class="B"/></clipPath><clipPath id="EI"><path d="M199.191 8.336L507.02 167.703 133.258 889.652-174.57 730.285zm0 0" class="B"/></clipPath><clipPath id="EJ"><path d="M199.191 8.336l307.82 159.363L133.25 889.645-174.57 730.285zm0 0" class="B"/></clipPath><clipPath id="EK"><path d="M256 74h4v4h-4zm0 0" class="B"/></clipPath><clipPath id="EL"><path d="M253.539 37.5l74.789 38.719-73.648 142.258-74.789-38.719zm0 0" class="B"/></clipPath><clipPath id="EM"><path d="M253.539 37.5l74.789 38.719-84.172 162.578-74.785-38.719zm0 0" class="B"/></clipPath><clipPath id="EN"><path d="M199.191 8.336L507.02 167.703 133.258 889.652-174.57 730.285zm0 0" class="B"/></clipPath><clipPath id="EO"><path d="M199.191 8.336l307.82 159.363L133.25 889.645-174.57 730.285zm0 0" class="B"/></clipPath><clipPath id="EP"><path d="M266 57h3v2h-3zm0 0" class="B"/></clipPath><clipPath id="EQ"><path d="M253.539 37.5l74.789 38.719-73.648 142.258-74.789-38.719zm0 0" class="B"/></clipPath><clipPath id="ER"><path d="M253.539 37.5l74.789 38.719-84.172 162.578-74.785-38.719zm0 0" class="B"/></clipPath><clipPath id="ES"><path d="M199.191 8.336L507.02 167.703 133.258 889.652-174.57 730.285zm0 0" class="B"/></clipPath><clipPath id="ET"><path d="M199.191 8.336l307.82 159.363L133.25 889.645-174.57 730.285zm0 0" class="B"/></clipPath><clipPath id="EU"><path d="M232 125h1v2h-1zm0 0" class="B"/></clipPath><clipPath id="EV"><path d="M253.539 37.5l74.789 38.719-73.648 142.258-74.789-38.719zm0 0" class="B"/></clipPath><clipPath id="EW"><path d="M253.539 37.5l74.789 38.719-84.172 162.578-74.785-38.719zm0 0" class="B"/></clipPath><clipPath id="EX"><path d="M199.191 8.336L507.02 167.703 133.258 889.652-174.57 730.285zm0 0" class="B"/></clipPath><clipPath id="EY"><path d="M199.191 8.336l307.82 159.363L133.25 889.645-174.57 730.285zm0 0" class="B"/></clipPath><clipPath id="EZ"><path d="M253 79h2v4h-2zm0 0" class="B"/></clipPath><clipPath id="Ea"><path d="M253.539 37.5l74.789 38.719-73.648 142.258-74.789-38.719zm0 0" class="B"/></clipPath><clipPath id="Eb"><path d="M253.539 37.5l74.789 38.719-84.172 162.578-74.785-38.719zm0 0" class="B"/></clipPath><clipPath id="Ec"><path d="M199.191 8.336L507.02 167.703 133.258 889.652-174.57 730.285zm0 0" class="B"/></clipPath><clipPath id="Ed"><path d="M199.191 8.336l307.82 159.363L133.25 889.645-174.57 730.285zm0 0" class="B"/></clipPath><clipPath id="Ee"><path d="M263 51h8v6h-8zm0 0" class="B"/></clipPath><clipPath id="Ef"><path d="M253.539 37.5l74.789 38.719-73.648 142.258-74.789-38.719zm0 0" class="B"/></clipPath><clipPath id="Eg"><path d="M253.539 37.5l74.789 38.719-84.172 162.578-74.785-38.719zm0 0" class="B"/></clipPath><clipPath id="Eh"><path d="M199.191 8.336L507.02 167.703 133.258 889.652-174.57 730.285zm0 0" class="B"/></clipPath><clipPath id="Ei"><path d="M199.191 8.336l307.82 159.363L133.25 889.645-174.57 730.285zm0 0" class="B"/></clipPath><clipPath id="Ej"><path d="M266 53h2v1h-2zm0 0" class="B"/></clipPath><clipPath id="Ek"><path d="M253.539 37.5l74.789 38.719-73.648 142.258-74.789-38.719zm0 0" class="B"/></clipPath><clipPath id="El"><path d="M253.539 37.5l74.789 38.719-84.172 162.578-74.785-38.719zm0 0" class="B"/></clipPath><clipPath id="Em"><path d="M199.191 8.336L507.02 167.703 133.258 889.652-174.57 730.285zm0 0" class="B"/></clipPath><clipPath id="En"><path d="M199.191 8.336l307.82 159.363L133.25 889.645-174.57 730.285zm0 0" class="B"/></clipPath><clipPath id="Eo"><path d="M241 92h4v4h-4zm0 0" class="B"/></clipPath><clipPath id="Ep"><path d="M253.539 37.5l74.789 38.719-73.648 142.258-74.789-38.719zm0 0" class="B"/></clipPath><clipPath id="Eq"><path d="M253.539 37.5l74.789 38.719-84.172 162.578-74.785-38.719zm0 0" class="B"/></clipPath><clipPath id="Er"><path d="M199.191 8.336L507.02 167.703 133.258 889.652-174.57 730.285zm0 0" class="B"/></clipPath><clipPath id="Es"><path d="M199.191 8.336l307.82 159.363L133.25 889.645-174.57 730.285zm0 0" class="B"/></clipPath><clipPath id="Et"><path d="M262 54h2v3h-2zm0 0" class="B"/></clipPath><clipPath id="Eu"><path d="M253.539 37.5l74.789 38.719-73.648 142.258-74.789-38.719zm0 0" class="B"/></clipPath><clipPath id="Ev"><path d="M253.539 37.5l74.789 38.719-84.172 162.578-74.785-38.719zm0 0" class="B"/></clipPath><clipPath id="Ew"><path d="M199.191 8.336L507.02 167.703 133.258 889.652-174.57 730.285zm0 0" class="B"/></clipPath><clipPath id="Ex"><path d="M199.191 8.336l307.82 159.363L133.25 889.645-174.57 730.285zm0 0" class="B"/></clipPath><clipPath id="Ey"><path d="M226 124h1v2h-1zm0 0" class="B"/></clipPath><clipPath id="Ez"><path d="M253.539 37.5l74.789 38.719-73.648 142.258-74.789-38.719zm0 0" class="B"/></clipPath><clipPath id="FA"><path d="M253.539 37.5l74.789 38.719-84.172 162.578-74.785-38.719zm0 0" class="B"/></clipPath><clipPath id="FB"><path d="M199.191 8.336L507.02 167.703 133.258 889.652-174.57 730.285zm0 0" class="B"/></clipPath><clipPath id="FC"><path d="M199.191 8.336l307.82 159.363L133.25 889.645-174.57 730.285zm0 0" class="B"/></clipPath><clipPath id="FD"><path d="M231 114h1v2h-1zm0 0" class="B"/></clipPath><clipPath id="FE"><path d="M253.539 37.5l74.789 38.719-73.648 142.258-74.789-38.719zm0 0" class="B"/></clipPath><clipPath id="FF"><path d="M253.539 37.5l74.789 38.719-84.172 162.578-74.785-38.719zm0 0" class="B"/></clipPath><clipPath id="FG"><path d="M199.191 8.336L507.02 167.703 133.258 889.652-174.57 730.285zm0 0" class="B"/></clipPath><clipPath id="FH"><path d="M199.191 8.336l307.82 159.363L133.25 889.645-174.57 730.285zm0 0" class="B"/></clipPath><clipPath id="FI"><path d="M237 98h3v2h-3zm0 0" class="B"/></clipPath><clipPath id="FJ"><path d="M253.539 37.5l74.789 38.719-73.648 142.258-74.789-38.719zm0 0" class="B"/></clipPath><clipPath id="FK"><path d="M253.539 37.5l74.789 38.719-84.172 162.578-74.785-38.719zm0 0" class="B"/></clipPath><clipPath id="FL"><path d="M199.191 8.336L507.02 167.703 133.258 889.652-174.57 730.285zm0 0" class="B"/></clipPath><clipPath id="FM"><path d="M199.191 8.336l307.82 159.363L133.25 889.645-174.57 730.285zm0 0" class="B"/></clipPath><clipPath id="FN"><path d="M221 120h1v2h-1zm0 0" class="B"/></clipPath><clipPath id="FO"><path d="M253.539 37.5l74.789 38.719-73.648 142.258-74.789-38.719zm0 0" class="B"/></clipPath><clipPath id="FP"><path d="M253.539 37.5l74.789 38.719-84.172 162.578-74.785-38.719zm0 0" class="B"/></clipPath><clipPath id="FQ"><path d="M199.191 8.336L507.02 167.703 133.258 889.652-174.57 730.285zm0 0" class="B"/></clipPath><clipPath id="FR"><path d="M199.191 8.336l307.82 159.363L133.25 889.645-174.57 730.285zm0 0" class="B"/></clipPath><clipPath id="FS"><path d="M217 113h2v2h-2zm0 0" class="B"/></clipPath><clipPath id="FT"><path d="M253.539 37.5l74.789 38.719-73.648 142.258-74.789-38.719zm0 0" class="B"/></clipPath><clipPath id="FU"><path d="M253.539 37.5l74.789 38.719-84.172 162.578-74.785-38.719zm0 0" class="B"/></clipPath><clipPath id="FV"><path d="M199.191 8.336L507.02 167.703 133.258 889.652-174.57 730.285zm0 0" class="B"/></clipPath><clipPath id="FW"><path d="M199.191 8.336l307.82 159.363L133.25 889.645-174.57 730.285zm0 0" class="B"/></clipPath><clipPath id="FX"><path d="M225 97h2v2h-2zm0 0" class="B"/></clipPath><clipPath id="FY"><path d="M253.539 37.5l74.789 38.719-73.648 142.258-74.789-38.719zm0 0" class="B"/></clipPath><clipPath id="FZ"><path d="M253.539 37.5l74.789 38.719-84.172 162.578-74.785-38.719zm0 0" class="B"/></clipPath><clipPath id="Fa"><path d="M199.191 8.336L507.02 167.703 133.258 889.652-174.57 730.285zm0 0" class="B"/></clipPath><clipPath id="Fb"><path d="M199.191 8.336l307.82 159.363L133.25 889.645-174.57 730.285zm0 0" class="B"/></clipPath><path id="Fc" d="M180.073 188.647c2.77 0 5.789 2.367 9.063 7.094 0 .449.133 1.031.406 1.75-.762 3.418-3.766 6.859-9.016 10.328-1.293.293-2.234.438-2.828.438h-.187c-.219 0-.445-.219-.672-.656 0-.844 1.508-3.645 4.531-8.406.57-1.426.859-2.641.859-3.641v-.219c0-1.957-1.078-3.316-3.234-4.078-2.355.594-3.793 5.262-4.312 14 0 6.012 1.66 9.016 4.984 9.016h.406c6.02-1.281 9.535-1.922 10.547-1.922h.219c.445 0 .672.281.672.844 0 1.117-2.59 3.063-7.766 5.844-1.512.867-3.453 1.508-5.828 1.922-4.93 0-8.516-3.156-10.766-9.469-.418-1.801-.703-3.816-.859-6.047 0-7.977 3.305-13.363 9.922-16.156 1.457-.426 2.742-.641 3.859-.641zm0 0"/></defs><path d="M-37.5-37.5h450v450h-450z" class="C"/><path d="M-37.5-37.5h450v450h-450z"/><g clip-path="url(#A)" class="C"><g clip-path="url(#B)"><g clip-path="url(#C)"><g clip-path="url(#D)"><g clip-path="url(#E)"><path d="M298.516 64.797c-.656-.184-.637-.934-1.035-.535.195.098.258.461-.164.32-.383-.605-1.227-1.023-.191-1.32-1.719-.707-1.527-.605-3.098-1.605-.859 1.676 1.883.758.547 2.32 1.438.215 1.625-.078 2.922 1.102.223-.418.754.023 1.02-.281zm-5.359 41.551c-.02 2.082 1.461-.641 0 0zm2.207-.891l.332-.641-1.031-.535-.332.641zm4.332-7.516c.59.934 1.574-.566.84-.785-.121.184-.246.352-.508.141zm6.547-7.59c.762-1.195 2.418-3.223 1.816-4.348-.449 1.402-2.215 3.176-1.816 4.348zm6.215 15.824c-.621.586-.668-1.246-1.387-1.535.203 1.699.762 3.941-1.129 4.707-.359-.812.699-2.023-.379-2.641-.93.234-.426 1.043.023 1.641-.934-.297-1.672-3-2.625-4.207-.637.797 1.227 2.16-.117 3.602-.461-.605-.605-1.293-1.223-1.855.445 2.164 2.301 3.934 2.484 6.168-1.719.055-1.223 1.969-2.352 2.852-1.328-.27-.02-1.277.145-1.961-1.758.531-2.07-1.508-2.945-2.746-.84-.094.242 1.551.203 2.141-.539.566-.891.398-1.199-.215-.109 1.586 1.277 2.75 1.77 4.168-.715 1.398-1.383 2.945-2.336 3.672-.941-1.02-1.965-2.012-2.27-3.207-.598-.168.012.719-.676.461.602.184.555 1.902-.676.465-.344 1.465.711 2.543 1.59 3.672-.254 1.215-1.051 1.754-1.316 3.383-.82.516-1.473-1.957-1.199-.215-.957.34-1.48-1.762-2.254-2.387-.949-.562-.672 2.313-1.863 1.07 1.527 2.324 2.949 4.371.441 6.734-1.629-.547.609-.492-.355-.996-.477-.152-.945.723-.5.961-.762.285-1.484-1.766-2.258-2.387-.41 1.039-.07.645-1.859 1.066.422 1.348 1.559 2.492 2.445 3.707-.988.273-.305 1.477-.816 2.422-.523.195-2.574.027-2.043.57-.937.246-1.367-1.984-2.602-2.566-.582-.227-.227 1.816-1.695.75.566 2.219 3.664 3.73 1.805 6.629-1.156-.883-1.781-.281-2.207.891-.734-.984-1.937-1.84-2.434-2.887-1.727-.316-1.055 1.707-2.562-.109.285 2.023 2.73 3.445 3.836 5.242-.855.965-.059 1.684-.996 1.922-.965.262-.883-.41-1.723-.891-.164.684-1.469 1.691-.141 1.961-1.898-.215-2.578-2.707-4.324-3.457-2.09-.902-3.035.402-5.129-.215.219-3.27.344-5.687 2.609-8.41.445 2.469 1.07-1.496 3.012-4.137l3.691-4.594c.047-.051.602.363.688.355.152-.316-.289-.469-.523-.676 3.652-3.609 9.449-10.926 12.398-16.355-1.621 2.445-5.09 4.629-7.047 8.551-.355-1.996 2.316-3.91 4.008-6.059 1.199-1.52 1.727-3.539 3.359-3.957 1.063.254.359 1 1.043 1.355 1.055-1.117-.758-1.434-.547-2.316 1.242-1.766 2.727-2.848 3.855-4.918.461.332-.375 1.02.191 1.32.332-1.176 1.988-4.527 3.664-6.238.41-.477.047-.742-.355-.996 1.352-.738 3.449-1.559 3.535-3.457 2.047 1.535-1.742 2.227-1.98 4.668 1.727-1.195 3.078-3.43 4.535-5.379-1.172-.914-1.121 1.578-2.387.391 1.289-.77-.172-2.746 2.156-4.168-.852-.859.035-2.207-1.07-2.996.25-.344.77.059 1.199.215-.949-1.59-1.797-3.633-2.969-4.383 1.922-.016-.754-1.121.996-1.926-.07-.711-1.281-1.105-1.734-1.711 1.023-1.496-1.469-3.09.285-3.918-.594-.363-.93.016-1.543-.395-.098-2.895-4.152-4.695-5.914-7.129-1.254-.098-2.23.578-3.051 1.676-2.223.844-6.664.25-7.219-2.926.68-1.242 1.641-1.687 2.527-2.352.785.785-1.004.758-.996 1.926 2.375-1.461 5.133-1.863 7.641-2.957-1.391-.043-.973.09-2.574-.926 6.527.859 10.469 6.867 14.332 10.266-3.09-.785-5.777-4.055-9.82-5.488-1.137.953 1.508.859.371 1.816 2.996.898 5.238 3.051 8.109 5.418 1.914 1.574 2.148 3.836 3.672 5.559 1.25 1.418 2.773 2.801 3.656 4.742 1.41 3.098 1.133 8.328 1.383 12.508.105 1.766-.91 4.738-1.09 7.164-1.285.254-1.359-2.168-2.434-2.887.906 2.492 2.766 4.715 3.184 7.344"/></g></g></g></g></g><g clip-path="url(#F)" class="C"><g clip-path="url(#G)"><g clip-path="url(#H)"><g clip-path="url(#I)"><g clip-path="url(#J)"><path d="M308.059 86.004c.605 1.125-1.051 3.152-1.812 4.348-.398-1.172 1.367-2.945 1.813-4.348"/></g></g></g></g></g><g clip-path="url(#K)" class="C"><g clip-path="url(#L)"><g clip-path="url(#M)"><g clip-path="url(#N)"><g clip-path="url(#O)"><path d="M300.539 97.156c.734.219-.254 1.719-.844.785l.332-.645c.266.211.391.043.512-.141"/></g></g></g></g></g><g clip-path="url(#P)" class="C"><g clip-path="url(#Q)"><g clip-path="url(#R)"><g clip-path="url(#S)"><g clip-path="url(#T)"><path d="M295.699 104.816l-.332.641-1.035-.535.332-.641 1.035.535"/></g></g></g></g></g><g clip-path="url(#U)" class="C"><g clip-path="url(#V)"><g clip-path="url(#W)"><g clip-path="url(#X)"><g clip-path="url(#Y)"><path d="M293.16 106.348c1.457-.641-.02 2.082 0 0"/></g></g></g></g></g><g clip-path="url(#Z)" class="C"><g clip-path="url(#a)"><g clip-path="url(#b)"><g clip-path="url(#c)"><g clip-path="url(#d)"><path d="M218.281 114.352c.32-.391.438-1.363-.012-.82-.316.387-.434 1.363.012.82zm19.77-14.574c.34-.457 2.098-.812 1.344-1.746-.219.793-1.965 1.188-1.344 1.746zm-6.602 15.289c.316-.387.434-1.363-.016-.82-.316.391-.434 1.363.016.82zm10.637-19.707c.789-.699 2.711-2.316 2.516-3.168-.797.441-3.609 2.535-2.516 3.168zm12.23-16.035c-.547 1.012-.746 4.43-.461 3.422-.219-1.035 1.527-2.621.461-3.422zm13.687-21.379c-.48-.234-.68-.543-.867-.855-.148.621-.934.559-.496.961.445-.613.688.957 1.363-.105zm-11.492 19.668c1.32.527 2.879-2.383 2.859-2.992-1.328-.055-1.852 2.145-2.859 2.992zm5.223-5.023c.227-1.594 3.148-2.672 1.824-3.527-.336 1.789-3.008 2.328-1.824 3.527zm4.172-6.375c.695 1.008 1.672-.895 1.012-1.105-.262.57-.594.957-1.012 1.105zm7.012-11.012c.059-.559 1.75-.09.844-.785-.129.348-1.82-.121-.844.785zm-43.945 77.293c.844 1.477 1.645 3.438 3.305 3.742.117-1.324-1.379-2.203-2.105-3.531-1.477-2.695-2.957-6.98-2.543-10.262.133-1.066 1.551-3.391.805-3.242-1.047 1.746-.738 3.527-2.504 3.988.07 3.426 1.43 6.473 3.043 9.305zm43.473-74.691c.242-.352.988-.41.496-.961-.242.352-.988.41-.496.961zm-50.285 98.816c.316-.387.434-1.359-.016-.82-.316.391-.434 1.363.016.82zm29.801-63.465c-.035 1.383 1.813 3.391 3.465 3.422.555-1.621-1.961-2.379-3.465-3.422zm21.516-34.816c.867-1 3.258-1.844 3.203-2.812-.781 1.246-3.551 1.027-3.203 2.813zm-25.937 47.574c-.523 2.254 2.355 1.23 3.469 3.418 0-1.461-2.098-2.34-3.469-3.418zm12.063-15.715c.309.066.543-.066.68-.465-1.086-1.008-2.066-1.59-3.801-2.781-.191.512-.738 1.121-.32 1.461.965.266 2.563 2.461 3.965 2.461-.23-.211-.672-.363-.523-.676zm-24.867 50.563l.332-.641-.687-.355-.332.641zm29.91-56.086c-.531-.477.328-.27.68-.465-.523-.312-1.219-.578-.703-1.176-2.062-.359-.871-1.582-3.785-1.961.379.281.023.465-.332.641 1.246.848 2.156 3.227 4.141 2.961zm-48.801 95.105c.172-.195.848-1.926.156-1.141-.937 1.066-.648 1.703-.156 1.141zm62.109-119.125c.5-1.172 3.203-1.102 1.84-2.707-.426.961-2.383 1.637-1.84 2.707zm-12.754 15.359c1.551.574 4.75 4.652 4.988 2.172-1.039 1.543-1.383-.797-1.047-1.352-.809-.18-2.055-1.57-2.574-.93 1.023 1.234-1.328-.719-1.367.109zm-32.055 61.074c1.738 1.621 3.262 4.754 5.547 5.313-2.41-1.434-3.559-4.672-5.547-5.312zm41.066-64.141l.664-1.281c-1.047-.687-2.551-.277-3.266-1.285.191.102.527-.055.164-.32-.328.379-.805.359-1.008 1.105zm5.016-7.16c-.273.402-.375 2.047.191 1.316-.266-.965.582-.496.32-1.461l-1.379-.711c-.125 1.215-.941.5-1.352.926.688.266.574.754 1.211 1.031.309-.449.488-1.246 1.008-1.102zm-50.617 99.453c-.285.367-.875.375.016.82-.219-1.586 1.063-3.59-1.098-4.633-.316 1.691-1.336 3.602 1.082 3.813zm12.836-21.414c-1.172-.406-.918-1.207-2.246-1.57-.973.848 1.922 1.992 2.246 1.57zm58.637-54.23c-1.324 1.672 1.422.906 0 0zm-82.422 28.488c.891-1.168-.184 4.34 2.137 5.992-2.855-1.406-2.254-7.281-4.574-8.875.137-.398.371-.531.676-.461-.113-.621-.641-.156-.699-1.176 2.688-4.141 2.141-6.176 5.516-8.125 1.836 1.043.008 3.105-.781 4.879.781.355.848-1.285 1.34-1.746.262 1.777 1.668-1.559 1.684-1.566.004-.004.477.738.523.68.316-.418.152-2.141.984-2.746.66-.48 1.422-.09 2.551-.711.121-.859-1.867-1.125-2.586-1.746.563-1.301 2.84-2.48.461-3.422 1.453-.383 2.992-.531 5.141 1.035.594.395.723-2.527 2.371-1.211-.098-.98-2.336-1.359-3.277-2.105 1.277-1.766 1.156-1.914 1.484-3.707 1.809.172 5.41 1.785 5.457-.426.121-.855-1.863-1.125-2.586-1.746 1.738-.945.453-2.414 1.66-3.207-3.395-.805 2.934-.109 4.449.68.746-.469.441-1.359 1.688-1.57.086-.461-2.121-.762-3.098-1.602 1.32-1.715.875-3.324 3.535-3.457 1.301.918 2.207 1.941 1.246 3.492 1.035-.941 1.762-4.895 3.855-4.918-.414-.844-2.426.5-3.941-.82 1.734-.422-.234-2.469 1.496-2.887-.637-.469-1.113-.496-1.367.105-.719-3.391 6.203 1.895 7.504-.996.227-.555-2.09-1.75-2.41-1.246.547-1.527-1.5-2.328-.574-3.957.633.371-.312 1.184.535 1.496.348-.324.875-.73 1.863-1.066-.594-.363-.93.012-1.543-.395 2.473-.469 5.84 1.215 6.992-.852-1.758-.809-1.531-.629-2.922-1.105.203-1.246-1.383-1.992-.395-3.457 1.668-.32-.84 1.105.203 2.137-.348-.738 2.766-1.676 1.508-2.066 1.75-1.133 4.871 1.59 6.137-.891.051-.559-2.129-.781-2.922-1.105.434-.922-.59-2.035.82-2.422-.898-.434-1.266 1.238-1.711-.07 1.145-2.242 3.727-.652 5.629-.75 1.195-.062 1.738-.82 2.895-.531 1.508-2.656 1.238-2.871 2.836-4.633.773.332-.437 1.219-.488 1.781 1.824.098 1.578-2.203 1.328-2.566 1.176-.352.824.934.879 1.676 1.711-.918 3.402-1.711 4.227-3.102-1.242.445-2.469.949-3.562 1.816.73-2.68 4.848-2.668 7.836-1.637-1.012.566-2.195.664-3.23 1.176 2.297.664 5.887-1.844 9.926 1.07-1.391.301-2.832.461-4.082 1.141 3.418-.383 7.066-.117 11.477 2.281-.883-.012-2.406.238-2.742-.605-.473.074-.453 1.188-1.516 1.246-.348.871.816-.133 1.375.715 1.215-.094-1.309.367-2.055-.25.313 1.094-1.344 1.457-2.195 1.711-.746 2.32-2.48 3.871-3.484 6.734-.07.293.18.5.012.82 9.672 5.805 14.906 12.848 20.285 19.852.023 1.473-1.117 2.727-2.172 3.352-6.965-5.492-11.246-14.035-21.305-19.57-.98-.383-1.316 1.031-2.207.891.641 1.289 3.457 3.418 5.176 3.492 5.23 5.766 11.406 11.266 15.973 17.219-.34.551.07.895-.316 1.461-.414.828-.457.258-.855-.035-.898.098-1.375 1.395-2.195 1.711-6.859-6.504-11.187-13.895-20.781-18.895-.656.008-1.035.773-1.52 1.246.559 1.211 3.219 3.516 4.652 2.816-.52.582.805 1.133 1.059 2.176 6.48 4.867 11.051 10.27 15.438 15.719-.645 1.848-1.687 2.598-2.68 3.492-1.484-1.172-4.141-3.992-6.934-6.844-2.219-2.258-5.211-4.664-6.07-5.988-.051-.082.715-.258.676-.461-1.695.336-1.484-1.617-3.277-2.105.316-.16.629-.336.844-.785-3.715.605-5.922-5.648-8.918-2.176 1.117 1.145 2.168 3.063 3.98 3.281.754.09 1.672-2.16.855.035 4.684 4.93 12.5 11.313 16.828 17.254-.551 1.723-.969 2.109-2.172 3.348-7.543-4.969-14.84-16.055-22.836-19.141-.758-.289-.82 1.359-1.52 1.246.934 1.469 3.363 3.387 5.523 3.672-.559.613.422.797.191 1.32 3.266 2.332 6.223 5.16 9 7.914 2.676 2.648 5.996 5.152 6.961 8.48-.887.934-1.707 2.031-2.695 2.672-.141-1.164-1.582-1.008-2.242-1.566-.926-.781-1.734-2.031-2.781-3.066-5.055-5.008-9.559-10.25-17.645-14.828-.656.008-1.035.773-1.52 1.246-.129 1.773 3.594 2.469 4.5 3.957.68.305.152-1.281.996-1.926.301 1.285.02 1.914-.129 2.781 6.516 5.039 12.262 10.297 16.637 15.934-.102 1.215-1.402 2.539-2.512 3.172-8.039-5.172-14.234-15.855-24.891-19.395-.957-1.352-1.32-1.395-3.457-2.602 1.305 1.313-.727 2.496 2.793 3.887 1.008.109.059-1.77 1.695-.75-.273.801-.691 1.203-1.172 1.426 8.969 6.551 17.297 13.281 22.859 20.781-1.035 1.297-2.07 2.59-3.547 2.637-.43-.398.18-.262.332-.641-5.371-2.895-10.734-10.289-17.305-14.652-.57-.023-.996.355-1.352.93-.391-.305-.016-.82.332-.645-.508-2.832-5.957-5.352-7.934-4.918-.363.465.043.719-.152 1.141.738.496 1.336.594 1.711.07-1.07 1.285 3.668 4.855 5.531 4.492.16.688.398 1.352.715 1.996 6.43 4.695 11.664 9.73 16.793 14.793-.121 1.633-1.875 3.016-3.371 3.137-.297-.457 2.742-1.215 2.004-3.031.031.715-2.426 2.34-2.527 2.352-5.953-3.187-10.832-10.508-16.945-13.652-1.672-2.074-6.031-5.77-9.309-5.633.184.613 1.309 2.055-.496.965.707 2.633.582 4.105-1.613 6.484-.707-.535.871-1.707.309-2.281-.344.301-1.113 1.441-2.02 2.211.313 1.961.5 4.984-1.266 6.664 1.238-.738-.043 1.516.031 3.184-.156-.664-.402-1.379-.859-1.582.898-.367-.082-1.414.051-2.461-1.187 3.68 1.152 8.301 4.012 11.48-.23-1.582-1.504-2.875-2.113-4.352 3.207 3.324 6.824 12.832 14.531 12.406-.516-1.012-1.668.117-2.078-1.891-.574.582-1.641-.211-2.254.262.648-.926-3.27-2.926-2.066-3.719-.473-.281-.945-.559-1.199-.215-.305-1.812-4.902-6.5-5.262-9.23-.375-.258-.652-.246-.855-.035-.836-1.152 1.074-1.09 1.52-1.246-.488-1.437-.93.734-2.055-.25.191-4.48 1.93-7.625 5.836-9.586-1.227-.289-2.07.496-2.883 1.355-1.164-.715 1.48-.75.316-1.465 4.93-2.285 7.414 4.555 3.723 8.84 1.449-.984 1.055-.191.012.82.75.945.172-.227-.156 1.141-.84 3.555 2.82 8.805 5.988 12.047.746.766 1.836.996 2.59 1.746.695.695.93 1.828 1.402 2.352.313.355 1.664-.047.523.68 1.043.305 1.852-.055 2.906.285-1.012.566-2.195.664-3.227 1.176 1.227 1.852 2.609 3.66 5.203 5.133-3.379-1.074-9.07-3.871-11.199-6.203-.777-.344-1.16.426-1.52 1.246-.82 1.406 1.316-4.059-1.676-1.754.52-.336-.703 1.637-1.055 1.969-2.281 2.168-7.59 8.512-10.57 12.828-.523.758-1.117 1.113-1.34 1.746-1.27 3.617 1.199 4.18 1.297 6.77l2.754 1.426c-6.605-3.582-2.242-13.207 3.367-14.93 1.301-4.883 9.316-.902 10.801 2.746-1.848-.059.113 1.914.215 2.957-1.344-2.223-4.344-3.383-5.543-5.312.836-.27 1.906.109 3.086.785-2.187-2.961-9.621-1.613-11.586 2.137.734.211.918-1.105 1.875-.25-2.516 1.695.207 4.098-1.102 6.344-1.652-.816-.867-2.316-2.266-3.207-2.586 3.848.984 6.711 4.418 10.016-1.695 1.066-3.766.188-5.305-.715-2.441-1.43-2.809-4.18-4.691-5.273.848 1.039.441 2.434 1.246 3.492-3.145 7.883-8.738 15.906-12.465 23.234-.094.395.574.57.355.996-1.172.629-.949 2.816-2.016 2.211-1.609-.93.855-1.004.996-1.926 2.828-6.969 5.301-14.512 9.238-22.059.414-.793 1.219-1.172 1.504-2.066.809-2.484-.031-5.078.059-7.699.117-3.52 3.82-7.781 6-9.906-.059-.48-1.75-1.289-2.742-.605-.922-.746.688-.516.664-1.281-.895-1.02-2.965-.562-2.422-2.07-1.242.449-2.363 1.242-3.203 2.816.566.332 2.234 1.422 3.621 2.281-.539.566-.891.402-1.199-.215-1.074 1.672-.133 3.938-1.637 4.848 1.73.125 2.172-3.344 3.523-4.277.035-.27.113-1.371-.293-1.395 1.871-.812.109 3.586-1.687 6.063-.547.754-1.59.961-2.195 1.711-1.324 1.652-1.133 5.145-2.168 3.352-.234.887.246 1.574.547 2.316-2.066 3.629-1.973 5.855-4.828 8.48-.699.742 1.746.609 1.047 1.352-.129 1.07-.836-.059-.855-.035-.863.938-.934 2.734-1.648 4.027-.344.625-.91.133-1.02.285-.426.598-.262 1.434-.652 2.102-.852 1.461-2.344 2.594-3.715 2.957 3.535-8.973 8.125-17.66 11.359-28.684-.52-.145-.703.652-1.008 1.102-.25-1.25-.355-2.453-.383-2.637-.047-.273.383-.492.332-.641-.32-.93-3.574-1.738-.25-5.418-.988.637-1.754 1.902-2.516 3.172-.801-2.398 2.371-4.727 3.664-6.234.656.641-.797 1.867-.984 2.742 3.125-3.211 5.711-7.922 8.543-11.437.379-.469.602-.762 1.184-.605-4.363-6.008-9.27-11.859-7.805-19.496-1.191 1.105-1.117 1.539-1.508 2.066-.18.609 1.41.203.535 1.496.523.664-.074.363-.246-.109.055-.238.133-.48.234-.707a.56.56 0 0 0-.234.707c-.965 4.285 4.855 10.543 6.602 13.977-4.672-5.922-10.332-11.566-9.34-19.07-.504-.277-1.484 1.648-.852-.035-1.086-.191-.238 1.297-.484 1.777zm97.152-20.508c.066-.215.148-.422.242-.633-.145.207-.215.418-.242.633"/></g></g></g></g></g><g clip-path="url(#e)" class="C"><g clip-path="url(#f)"><g clip-path="url(#g)"><g clip-path="url(#h)"><g clip-path="url(#i)"><path d="M300.082 89.602c1.422.906-1.324 1.672 0 0"/></g></g></g></g></g><g clip-path="url(#j)" class="C"><g clip-path="url(#k)"><g clip-path="url(#l)"><g clip-path="url(#m)"><g clip-path="url(#n)"><path d="M295.738 96.301c.352.273-1.109 2.063-2.027 1.387.551-.816 1.227-1.281 2.027-1.387"/></g></g></g></g></g><g clip-path="url(#o)" class="C"><g clip-path="url(#p)"><g clip-path="url(#q)"><g clip-path="url(#r)"><g clip-path="url(#s)"><path d="M282.906 117.715c.32.938-1.277 3.191-2.348 2.852.555-1.594 1.73-1.449 2.348-2.852"/></g></g></g></g></g><g clip-path="url(#t)" class="C"><g clip-path="url(#u)"><g clip-path="url(#v)"><g clip-path="url(#w)"><g clip-path="url(#x)"><path d="M280.574 121.387c-1.523 2.582-3.469 5.117-5.695 7.625.707-2.59 4.371-5.719 5.172-8.305.426.156.578.391.523.68"/></g></g></g></g></g><g clip-path="url(#y)" class="C"><g clip-path="url(#z)"><g clip-path="url(#AA)"><g clip-path="url(#AB)"><g clip-path="url(#AC)"><path d="M273.855 129.297c.691-.789.02.945-.152 1.141-.492.563-.781-.074.152-1.141"/></g></g></g></g></g><g clip-path="url(#AD)" class="C"><g clip-path="url(#AE)"><g clip-path="url(#AF)"><g clip-path="url(#AG)"><g clip-path="url(#AH)"><path d="M279.68 118.891c-.254.328-.434 0-.344-.176-.34-.164-.473.25-.676.461-.336-.273.098-.758-.355-.996.336-.359.867-.191 1.184-.605-.078.359-.16 1.02.191 1.316"/></g></g></g></g></g><g clip-path="url(#AI)" class="C"><g clip-path="url(#AJ)"><g clip-path="url(#AK)"><g clip-path="url(#AL)"><g clip-path="url(#AM)"><path d="M278.328 119.816c.922.746-.687.516-.664 1.281-.832-.492.461-1.137.664-1.281"/></g></g></g></g></g><g clip-path="url(#AN)" class="C"><g clip-path="url(#AO)"><g clip-path="url(#AP)"><g clip-path="url(#AQ)"><g clip-path="url(#AR)"><path d="M279.559 117.328c0 .02-.02.098-.07.246a1.21 1.21 0 0 1 .07-.246"/></g></g></g></g></g><g clip-path="url(#AS)" class="C"><g clip-path="url(#AT)"><g clip-path="url(#AU)"><g clip-path="url(#AV)"><g clip-path="url(#AW)"><path d="M232.875 199.176c.555-.727 1.344.672.699 1.176-.855-.219-.172-.867-.699-1.176"/></g></g></g></g></g><g clip-path="url(#AX)" class="C"><g clip-path="url(#AY)"><g clip-path="url(#AZ)"><g clip-path="url(#Aa)"><g clip-path="url(#Ab)"><path d="M240.316 171.309c.996-3.387-.27-6.145-.477-9.195.129-.426-.281-.398-.687-.355-3.164 3.09-4.648 8.984 1.164 9.551zm5.824-10.406c1.332 2.176.996 5.703-1.586 8.125 2.391-3.211 1.934-8.941-3.031-8.48l1.168 9.551c-1.418.543-1.062 1.164-1.328 2.566-1.641-.547-2.293-.652-4.285-1-3.984-3.102.102-10.383 4.102-11.297.813-1.324-1.074-1.895-.559-3.137.379.02.762.039 1.02-.285 1.156.867 1.102 2.074 1.414 3.172.945.027 1.836-.098 3.086.785"/></g></g></g></g></g><g clip-path="url(#Ac)" class="C"><g clip-path="url(#Ad)"><g clip-path="url(#Ae)"><g clip-path="url(#Af)"><g clip-path="url(#Ag)"><path d="M297.484 64.262c.398-.398.375.352 1.031.535-.266.305-.797-.137-1.02.285-1.297-1.184-1.484-.891-2.922-1.105 1.336-1.562-1.402-.645-.547-2.32 1.57 1 1.379.898 3.098 1.605-1.035.301-.187.715.191 1.32.422.141.359-.223.168-.32"/></g></g></g></g></g><g clip-path="url(#Ah)" class="C"><g clip-path="url(#Ai)"><g clip-path="url(#Aj)"><g clip-path="url(#Ak)"><g clip-path="url(#Al)"><path d="M204.934 204.227c1.027-1.578-.949-3.434.449-4.238l-.687-.359c-.219-.086-.43-.16-.512.145.465.398-.145.41-.344-.18l-.664 1.285c1.387 1.016.051-.785 1.023-.285.371.262.113.699-.156 1.141-.434-.16-.949-.562-1.199-.215.5.867-.027 2.02 1.238 2.672.203-.211.48-.223.852.035zm-1.707-.07c-.457.879.637 2.727 1.402 2.352-.352-.266-.355-.633-.359-.996.195.098.527-.059.168-.32-.488.707-.73-.848-1.211-1.035zm3.535-3.457c-.617.391 1.32.559 1.199.215-.152-.426-1.102-.273-1.199-.215zm1.352-.926c.332-.379.809-.359 1.012-1.105-.961-.84-1.453-.398-2.055-.25.832-1.602.008-.59-.523-.676.082.012.574-1.098.152-1.141-.289-.027-.344 1.191-.84.785-.598-.488-.137-.832-.535-1.5-2.113.855 1.543 2.004 1.414 3.176-.223-.09-.434-.164-.512.141 1.18.945 1.207-1.336 2.387-.391-.246.352-.992.41-.5.961zm-1.277 5.844c-.809-1.848-1.348.613 0 0zm2.82-5.453c.164.203.914 1.488 1.379.715-1.48-.137.359-1.195-.535-1.496-.23.402-.668.215-.844.781-.082.109-.113-1.336-.187-1.316-.777.215-.426 2.121.188 1.316zm-3.129 7.734c.309.617.66.781 1.199.215-.43-.246-.262-.656-.867-.855zm3.691-4.598c.973-.844-1.922-1.988-2.246-1.566 1.105 1.125 1.43.563 2.246 1.566zm-1.367.109c-.668 2.391 3.18.734.703 1.176.145-.5-.566-.758-.703-1.176zm.063 4.098l.332-.641-1.035-.535-.332.641zm1.34-1.746c-1.605.539.77 1.629 0 0zm-.641 2.922c-.926-.516-.969.176-1.375-.715-.215.453-.527.625-.844.785.895.418 1.508.039 2.219-.07zm2.184-2.531c.141-.406.531-.879.152-1.141-1.473.324-.945.414-.152 1.141zm.203 2.141c-.812-.18-2.055-1.57-2.578-.93.824.859 1.441 1.27 2.578.93zm.332-.645l.332-.641-.687-.355-.332.641zm.32-1.461c.648.242 1.559 1.219 1.711.074-.664-.285-1.262-.383-1.711-.074zm.891 2.496c-2.172-.141.758 1.441 0 0zm.039 2.461c-.129-.965-1.051-.031-.867-.855 1.086-.531-1.258-.137-1.711-.074 1.137-1.129-.789.227-1.047-1.352-.055 1.414-1.27-.414-1.531.426 1.859 1.016 3.672 1.898 5.156 1.855zm.957-4.383c.473.473 2.75 1.34 2.566.105-.648.543-1.918-.648-2.566-.105zm1.594 3.668c.789-1.391-1.055-.352-1.047-1.352-.789 1.391 1.055.352 1.047 1.352zm-2.258-2.387c2.25.793 4.539 1.707 6.16.75-1.648.133-4.668-1.133-6.16-.75zm2.281 4.027l.332-.641c-.344-.18-.273-.473-.523-.68-.227.523-.621 1.09.191 1.32zm1.469-4.527c.898.418 1.805.859 2.223-.07-.754-.016-1.848-.965-2.223.07zm-.816 2.426c1.055.805 3.316.98 2.73-.215-.746.523-1.984-.309-2.73.215zm4.391-3.422c-1.023.949-.82 2.941.547 2.316-2.176-1.445 2.211-3.297 1.457-5.344-1.105.309-2.32.332-2.574-.93-.68 1.504-2.422.039-3.586.18.227-.523.621-1.09-.191-1.32.199 2.199-2.422.301-4.105-.5l-1.496 2.887c3.652 1.848 6.945 2.672 9.949 2.711zm2.516-3.172c1.5 3.992-1.961 7.113-4.996 8.805-1.195-.379-.75-1.156-1.719-.895.738 2.043-1.395.645-2.898.535.27-.305.801.137 1.023-.285.141-.566-.75-.035-.523-.676-.664-.281-.773.977-1.352.926-2.281-.879-4.582-1.816-7.055-3.246.531-.875-.906-1.418.484-1.781-1.191-.336-.891.625-1.172 1.426-1.695-1.812-4.469-3.324-4.016-5.738.297.559.227 1.215.879 1.676.723-1.574-1.508-2.324-.062-4.098.25.203.18.496.523.676.078-1.594.207-1.504.805-3.242.605.199.438.609.867.855.906-1.168-1.039-1.539-.379-2.637 1.793.762.398-1.059.828-1.605 1.055.531.992 1.371 1.57 2.031.324-.914-.344-1.551-1.059-2.172.973-.656 1.742 1.684 2.945 2.742 1.59 1.406 4.922 2.895 7.754 4.422-.633.207-.395.434-.5.961.52.145.703-.652 1.008-1.102 2.605 1.523 4.352.652 7.043 2.422zm-15.094 1.914c-.035-.023-.066-.039-.094-.055l.094.055zm15.293-1.793c.02.012.047.023.07.043a.34.34 0 0 0-.07-.043zm9.738-3.141l.164.113.195.137.086.063c-.023-.016-.055-.039-.086-.062-.07-.047-.137-.094-.195-.137s-.117-.078-.164-.113zm-.312-.219l.176.125c-.074-.055-.137-.094-.176-.125"/></g></g></g></g></g><g clip-path="url(#Am)" class="C"><g clip-path="url(#An)"><g clip-path="url(#Ao)"><g clip-path="url(#Ap)"><g clip-path="url(#Aq)"><path d="M239.84 162.113c.211 3.051 1.473 5.809.48 9.195-5.816-.566-4.332-6.461-1.168-9.555.41-.039.816-.066.688.359"/></g></g></g></g></g><g clip-path="url(#Ar)" class="C"><g clip-path="url(#As)"><g clip-path="url(#At)"><g clip-path="url(#Au)"><g clip-path="url(#Av)"><path d="M219.75 200.918c-.574-.66 1.621-.109 2.398.43-.625.352-1.645-.41-2.398-.43"/></g></g></g></g></g><g clip-path="url(#Aw)" class="C"><g clip-path="url(#Ax)"><g clip-path="url(#Ay)"><g clip-path="url(#Az)"><g clip-path="url(#BA)"><path d="M230.066 182.672c-.793-.582.93-.391 1.367-.105-.406.168-.879.16-1.367.105"/></g></g></g></g></g><g clip-path="url(#BB)" class="C"><g clip-path="url(#BC)"><g clip-path="url(#BD)"><g clip-path="url(#BE)"><g clip-path="url(#BF)"><path d="M291.617 60.41l-.496.961c-.82-.719-1.023.281-1.711-.07-.934.602 1.418-1.273 2.207-.891"/></g></g></g></g></g><g clip-path="url(#BG)" class="C"><g clip-path="url(#BH)"><g clip-path="url(#BI)"><g clip-path="url(#BJ)"><g clip-path="url(#BK)"><path d="M244.352 144.117a.63.63 0 0 1 .125-.125.54.54 0 0 1-.125.125"/></g></g></g></g></g><g clip-path="url(#BL)" class="C"><g clip-path="url(#BM)"><g clip-path="url(#BN)"><g clip-path="url(#BO)"><g clip-path="url(#BP)"><path d="M212.184 197.816c.41-.687 1.531.617 2.234.75-.41.684-1.531-.621-2.234-.75"/></g></g></g></g></g><g clip-path="url(#BQ)" class="C"><g clip-path="url(#BR)"><g clip-path="url(#BS)"><g clip-path="url(#BT)"><g clip-path="url(#BU)"><path d="M239.199 142.258c1.328.363 1.074 1.164 2.246 1.57-.324.422-3.219-.723-2.246-1.57"/></g></g></g></g></g><g clip-path="url(#BV)" class="C"><g clip-path="url(#BW)"><g clip-path="url(#BX)"><g clip-path="url(#BY)"><g clip-path="url(#BZ)"><path d="M228.621 166.066c-.887-.445-.297-.453-.012-.82-2.418-.211-1.398-2.121-1.082-3.812 2.156 1.043.875 3.047 1.094 4.633"/></g></g></g></g></g><g clip-path="url(#Ba)" class="C"><g clip-path="url(#Bb)"><g clip-path="url(#Bc)"><g clip-path="url(#Bd)"><g clip-path="url(#Be)"><path d="M279.418 67.109c-.562.73-.461-.914-.187-1.32-.52-.141-.703.656-1.008 1.105-.641-.277-.527-.766-1.215-1.031.41-.43 1.227.289 1.355-.93l1.375.715c.266.965-.582.496-.32 1.461"/></g></g></g></g></g><g clip-path="url(#Bf)" class="C"><g clip-path="url(#Bg)"><g clip-path="url(#Bh)"><g clip-path="url(#Bi)"><g clip-path="url(#Bj)"><path d="M245.203 132.355c-.609.813-1.094-.543-.359-.996.336.273-.094.758.359.996"/></g></g></g></g></g><g clip-path="url(#Bk)" class="C"><g clip-path="url(#Bl)"><g clip-path="url(#Bm)"><g clip-path="url(#Bn)"><g clip-path="url(#Bo)"><path d="M274.875 71.668l-.664 1.285-3.441-1.785c.199-.742.676-.727 1.008-1.102.359.262.027.418-.168.32.715 1.008 2.219.598 3.266 1.281"/></g></g></g></g></g><g clip-path="url(#Bp)" class="C"><g clip-path="url(#Bq)"><g clip-path="url(#Br)"><g clip-path="url(#Bs)"><g clip-path="url(#Bt)"><path d="M238.691 142.402c-2.281-.559-3.805-3.687-5.543-5.309 1.984.637 3.133 3.875 5.543 5.309"/></g></g></g></g></g><g clip-path="url(#Bu)" class="C"><g clip-path="url(#Bv)"><g clip-path="url(#Bw)"><g clip-path="url(#Bx)"><g clip-path="url(#By)"><path d="M214.543 183.992c.746-.977.559 2.457.344.176 0-.016-.348-.172-.344-.176"/></g></g></g></g></g><g clip-path="url(#Bz)" class="C"><g clip-path="url(#CA)"><g clip-path="url(#CB)"><g clip-path="url(#CC)"><g clip-path="url(#CD)"><path d="M212.551 187.84c.363-2.691.773 2.629.344.176-.02-.039-.352-.141-.344-.176"/></g></g></g></g></g><g clip-path="url(#CE)" class="C"><g clip-path="url(#CF)"><g clip-path="url(#CG)"><g clip-path="url(#CH)"><g clip-path="url(#CI)"><path d="M270.188 78.191c-.238 2.477-3.437-1.598-4.988-2.176.039-.828 2.391 1.125 1.367-.109.52-.641 1.766.75 2.574.93-.332.555.008 2.895 1.047 1.355"/></g></g></g></g></g><g clip-path="url(#CJ)" class="C"><g clip-path="url(#CK)"><g clip-path="url(#CL)"><g clip-path="url(#CM)"><g clip-path="url(#CN)"><path d="M209.23 194.25c.652.375-1.437.996.535 1.496-1.301.719-4.383-3.52-3.328-5.379.559.848-.016 2.016.727 2.813 1.422.418.602-1.109 1.52-1.246.953.375-.375 1.387.879 1.676-.359.566-1.27-.41-1.711-.07-.516.391 1.355 1.359 1.379.711"/></g></g></g></g></g><g clip-path="url(#CO)" class="C"><g clip-path="url(#CP)"><g clip-path="url(#CQ)"><g clip-path="url(#CR)"><g clip-path="url(#CS)"><path d="M210.059 192.648c1.461-.641-.02 2.082 0 0"/></g></g></g></g></g><g clip-path="url(#CT)" class="C"><g clip-path="url(#CU)"><g clip-path="url(#CV)"><g clip-path="url(#CW)"><g clip-path="url(#CX)"><path d="M279.793 57.949c1.367 1.605-1.34 1.535-1.836 2.707-.543-1.066 1.414-1.742 1.836-2.707"/></g></g></g></g></g><g clip-path="url(#CY)" class="C"><g clip-path="url(#CZ)"><g clip-path="url(#Ca)"><g clip-path="url(#Cb)"><g clip-path="url(#Cc)"><path d="M216 178.645c.691-.785.016.945-.152 1.141-.492.563-.785-.074.152-1.141"/></g></g></g></g></g><g clip-path="url(#Cd)" class="C"><g clip-path="url(#Ce)"><g clip-path="url(#Cf)"><g clip-path="url(#Cg)"><g clip-path="url(#Ch)"><path d="M265.324 84.211c-.352.195-1.207-.012-.676.465-1.984.266-2.898-2.113-4.145-2.961.355-.176.711-.355.332-.641 2.914.379 1.723 1.602 3.785 1.961-.516.602.18.863.703 1.176"/></g></g></g></g></g><g clip-path="url(#Ci)" class="C"><g clip-path="url(#Cj)"><g clip-path="url(#Ck)"><g clip-path="url(#Cl)"><g clip-path="url(#Cm)"><path d="M210.648 186.449c1.328.266.02 1.273-.141 1.957-.73-.437-.324-1.191.141-1.957"/></g></g></g></g></g><g clip-path="url(#Cn)" class="C"><g clip-path="url(#Co)"><g clip-path="url(#Cp)"><g clip-path="url(#Cq)"><g clip-path="url(#Cr)"><path d="M235.07 140.121l-.332.641-.687-.355.332-.641.688.355"/></g></g></g></g></g><g clip-path="url(#Cs)" class="C"><g clip-path="url(#Ct)"><g clip-path="url(#Cu)"><g clip-path="url(#Cv)"><g clip-path="url(#Cw)"><path d="M227.992 153.516a2.5 2.5 0 0 0-.406.219c.172-.164.305-.227.406-.219"/></g></g></g></g></g><g clip-path="url(#Cx)" class="C"><g clip-path="url(#Cy)"><g clip-path="url(#Cz)"><g clip-path="url(#DA)"><g clip-path="url(#DB)"><path d="M244.57 124.301c-1.352-1.18-.59-2.945-1.773-4.168 2.762-.449 2.719 2.219 1.773 4.168"/></g></g></g></g></g><g clip-path="url(#DC)" class="C"><g clip-path="url(#DD)"><g clip-path="url(#DE)"><g clip-path="url(#DF)"><g clip-path="url(#DG)"><path d="M260.281 89.734c-.137.402-.371.531-.68.465-.148.316.293.465.523.676-1.402.004-3-2.195-3.965-2.461-.418-.34.129-.949.32-1.461 1.738 1.191 2.715 1.773 3.801 2.781"/></g></g></g></g></g><g clip-path="url(#DH)" class="C"><g clip-path="url(#DI)"><g clip-path="url(#DJ)"><g clip-path="url(#DK)"><g clip-path="url(#DL)"><path d="M251.008 109.336c-1.109-2.191-3.988-1.168-3.469-3.422 1.371 1.078 3.473 1.957 3.469 3.422"/></g></g></g></g></g><g clip-path="url(#DM)" class="C"><g clip-path="url(#DN)"><g clip-path="url(#DO)"><g clip-path="url(#DP)"><g clip-path="url(#DQ)"><path d="M276.684 55.523c.055.973-2.336 1.813-3.203 2.816-.348-1.785 2.422-1.566 3.203-2.816"/></g></g></g></g></g><g clip-path="url(#DR)" class="C"><g clip-path="url(#DS)"><g clip-path="url(#DT)"><g clip-path="url(#DU)"><g clip-path="url(#DV)"><path d="M255.43 96.574c-1.656-.031-3.5-2.039-3.469-3.422 1.508 1.047 4.023 1.801 3.469 3.422"/></g></g></g></g></g><g clip-path="url(#DW)" class="C"><g clip-path="url(#DX)"><g clip-path="url(#DY)"><g clip-path="url(#DZ)"><g clip-path="url(#Da)"><path d="M222.148 155.801c.445-.543.328.434.012.82-.445.543-.332-.434-.012-.82"/></g></g></g></g></g><g clip-path="url(#Db)" class="C"><g clip-path="url(#Dc)"><g clip-path="url(#Dd)"><g clip-path="url(#De)"><g clip-path="url(#Df)"><path d="M272.945 56.844c.492.551-.254.609-.496.961-.492-.551.254-.609.496-.961"/></g></g></g></g></g><g clip-path="url(#Dg)" class="C"><g clip-path="url(#Dh)"><g clip-path="url(#Di)"><g clip-path="url(#Dj)"><g clip-path="url(#Dk)"><path d="M232.277 136.238c-1.66-.305-2.461-2.266-3.305-3.742-1.609-2.832-2.973-5.875-3.043-9.305 1.766-.461 1.457-2.242 2.504-3.988.746-.148-.672 2.176-.805 3.242-.414 3.281 1.066 7.566 2.543 10.262.727 1.328 2.223 2.207 2.105 3.531zm-5.535-11.312l-.004.105c.004-.031.004-.066.004-.105"/></g></g></g></g></g><g clip-path="url(#Dl)" class="C"><g clip-path="url(#Dm)"><g clip-path="url(#Dn)"><g clip-path="url(#Do)"><g clip-path="url(#Dp)"><path d="M273.762 54.422c.906.695-.785.227-.844.781-.977-.902.715-.434.844-.781"/></g></g></g></g></g><g clip-path="url(#Dq)" class="C"><g clip-path="url(#Dr)"><g clip-path="url(#Ds)"><g clip-path="url(#Dt)"><g clip-path="url(#Du)"><path d="M233.566 131.215c-.094.438-.137.141-.234-.387.059.141.133.27.234.387"/></g></g></g></g></g><g clip-path="url(#Dv)" class="C"><g clip-path="url(#Dw)"><g clip-path="url(#Dx)"><g clip-path="url(#Dy)"><g clip-path="url(#Dz)"><path d="M266.918 65.109c.664.215-.316 2.113-1.008 1.105.418-.145.746-.531 1.008-1.105"/></g></g></g></g></g><g clip-path="url(#EA)" class="C"><g clip-path="url(#EB)"><g clip-path="url(#EC)"><g clip-path="url(#ED)"><g clip-path="url(#EE)"><path d="M233.199 130.129l.137.695c-.09-.211-.133-.449-.137-.695"/></g></g></g></g></g><g clip-path="url(#EF)" class="C"><g clip-path="url(#EG)"><g clip-path="url(#EH)"><g clip-path="url(#EI)"><g clip-path="url(#EJ)"><path d="M263.559 69.063c1.324.859-1.598 1.938-1.824 3.531-1.184-1.203 1.488-1.738 1.824-3.531"/></g></g></g></g></g><g clip-path="url(#EK)" class="C"><g clip-path="url(#EL)"><g clip-path="url(#EM)"><g clip-path="url(#EN)"><g clip-path="url(#EO)"><path d="M259.375 74.625c.016.605-1.539 3.52-2.859 2.992 1.004-.848 1.527-3.047 2.859-2.992"/></g></g></g></g></g><g clip-path="url(#EP)" class="C"><g clip-path="url(#EQ)"><g clip-path="url(#ER)"><g clip-path="url(#ES)"><g clip-path="url(#ET)"><path d="M267.141 57.094c.188.313.387.621.867.855-.676 1.063-.918-.512-1.363.105-.437-.406.344-.34.496-.961"/></g></g></g></g></g><g clip-path="url(#EU)" class="C"><g clip-path="url(#EV)"><g clip-path="url(#EW)"><g clip-path="url(#EX)"><g clip-path="url(#EY)"><path d="M232.629 125.441c-.098.207-.18.414-.246.629a1.32 1.32 0 0 1 .246-.629"/></g></g></g></g></g><g clip-path="url(#EZ)" class="C"><g clip-path="url(#Ea)"><g clip-path="url(#Eb)"><g clip-path="url(#Ec)"><g clip-path="url(#Ed)"><path d="M253.859 82.746c-.285 1.008-.086-2.41.461-3.418 1.066.797-.68 2.383-.461 3.418"/></g></g></g></g></g><g clip-path="url(#Ee)" class="C"><g clip-path="url(#Ef)"><g clip-path="url(#Eg)"><g clip-path="url(#Eh)"><g clip-path="url(#Ei)"><path d="M267.934 53.027c-2.605.082-2.047 1.664 0 0zm2.715-1.031c-2.328 1.336-4.371 3.469-6.762 4.633-1.02-1.184 3.168-2.164.641-2.926 1.988-.719 3.594-2.504 6.121-1.707"/></g></g></g></g></g><g clip-path="url(#Ej)" class="C"><g clip-path="url(#Ek)"><g clip-path="url(#El)"><g clip-path="url(#Em)"><g clip-path="url(#En)"><path d="M267.934 53.027c-2.047 1.664-2.605.082 0 0"/></g></g></g></g></g><g clip-path="url(#Eo)" class="C"><g clip-path="url(#Ep)"><g clip-path="url(#Eq)"><g clip-path="url(#Er)"><g clip-path="url(#Es)"><path d="M244.602 92.191c.199.852-1.723 2.469-2.512 3.172-1.098-.633 1.715-2.727 2.512-3.172"/></g></g></g></g></g><g clip-path="url(#Et)" class="C"><g clip-path="url(#Eu)"><g clip-path="url(#Ev)"><g clip-path="url(#Ew)"><g clip-path="url(#Ex)"><path d="M263.008 54.953c.395.602.348 1.266-.32 1.461-.418-.344.129-.949.32-1.461"/></g></g></g></g></g><g clip-path="url(#Ey)" class="C"><g clip-path="url(#Ez)"><g clip-path="url(#FA)"><g clip-path="url(#FB)"><g clip-path="url(#FC)"><path d="M226.738 125.031l.008-.105-.008.105"/></g></g></g></g></g><g clip-path="url(#FD)" class="C"><g clip-path="url(#FE)"><g clip-path="url(#FF)"><g clip-path="url(#FG)"><g clip-path="url(#FH)"><path d="M231.438 114.246c.445-.539.332.434.012.82-.445.543-.332-.43-.012-.82"/></g></g></g></g></g><g clip-path="url(#FI)" class="C"><g clip-path="url(#FJ)"><g clip-path="url(#FK)"><g clip-path="url(#FL)"><g clip-path="url(#FM)"><path d="M239.395 98.035c.758.934-1.004 1.289-1.34 1.746-.625-.559 1.121-.957 1.34-1.746"/></g></g></g></g></g><g clip-path="url(#FN)" class="C"><g clip-path="url(#FO)"><g clip-path="url(#FP)"><g clip-path="url(#FQ)"><g clip-path="url(#FR)"><path d="M221.965 120.734a4.15 4.15 0 0 0-.23.707c-.086-.227-.066-.492.23-.707"/></g></g></g></g></g><g clip-path="url(#FS)" class="C"><g clip-path="url(#FT)"><g clip-path="url(#FU)"><g clip-path="url(#FV)"><g clip-path="url(#FW)"><path d="M218.273 113.531c.445-.543.332.434.012.82-.445.543-.332-.43-.012-.82"/></g></g></g></g></g><g clip-path="url(#FX)" class="C"><g clip-path="url(#FY)"><g clip-path="url(#FZ)"><g clip-path="url(#Fa)"><g clip-path="url(#Fb)"><path d="M226.242 98.141l-.332.641-.687-.355.332-.641.688.355"/></g></g></g></g></g><g class="C"><path d="M130.211 168.928c1.188 0 2.523 1.836 4.016 5.5v.438c0 .625-1.883.977-5.641 1.047-2.156.5-4.883 1.789-8.172 3.859-4.961 3.168-7.437 5.945-7.437 8.328v1.031c0 1.855 2.379 3.59 7.141 5.203 11.883 5.574 17.828 10.527 17.828 14.859 0 2.773-1.984 6.289-5.953 10.547-4.23 3.492-7.695 5.719-10.391 6.688 0 .27-2.625 1.504-7.875 3.703-5.992 2.383-10.648 3.578-13.969 3.578-3.617 0-6.043-1.637-7.281-4.906v-2.969c.988-3.051 2.273-5.43 3.859-7.141 3.195-4.156 6.516-6.234 9.953-6.234h2.828c.195.023.297.121.297.297v.141c0 .898-1.387 2.73-4.156 5.5-1.117 1.418-1.961 2.703-2.531 3.859v1.203c.051.367.645.711 1.781 1.031 1.883 0 6.641-1.734 14.266-5.203 5.844-3.414 8.766-6.336 8.766-8.766 0-2.738-5.199-5.906-15.594-9.5-.199-.176-1.539-.867-4.016-2.078-3.762-2.352-5.641-4.977-5.641-7.875v-.297c0-6.02 5.789-12.211 17.375-18.578 4.727-2.176 8.242-3.266 10.547-3.266zm0 0"/><path d="M146.724 194.069c-.418 8.273.551 12.309 2.906 12.109 3.563-.25 5.594-1.148 6.094-2.703l.219-1.375c.219-4.926-2.047-7.875-6.797-8.844-.969-.469-1.777-.195-2.422.813zm-5.187-3.562h-.047c-.023.199-.008.199.047 0zm0 0c.02-.094.055-.254.109-.484.145-.613.477-1.305 1-2.078l.438-.219 1.125-.109c.813-.07 1.566.359 2.266 1.297l.438-.031c6.813.543 11.063 1.93 12.75 4.156 2.969 3.906 4.156 7.621 3.563 11.141-.156.969-.516 2.012-1.078 3.125-2.305 4.125-4.586 6.293-6.844 6.5-3.062.219-6.141-.758-9.234-2.937l-.375.031-.266 1.563c-1.262 3.273-1.746 8.508-1.453 15.703l.344 11.484c-.398.813-.793 1.281-1.187 1.406l-.187.047c-.793.039-1.871-.953-3.234-2.984-2.445-4.93-3.547-10.711-3.297-17.344.242-6.633 2.047-16.672 5.422-30.109l.031-.187zm0 0"/><use xlink:href="#Fc"/><use xlink:href="#Fc" x="27.588"/><path d="M239.297 192.288l1.828-.375c3.582-.289 5.461-.004 5.641.859l.109.641c.031.418-2.992 2.633-9.062 6.641-2.793 2.211-4.836 5.402-6.125 9.578l-.109 1.609.078.438c.758 1.043 1.535 1.477 2.328 1.297l1.016-.219c1.926-.395 3.656-1.617 5.188-3.672 1.539-2.062 2.914-3.211 4.125-3.453l.641-.125c.164-.039.645.309 1.438 1.047l.219 1.297-4.859 5.828-.406.125c-4.312 3.531-7.82 5.586-10.516 6.156-3.117.648-5.652-.551-7.609-3.594-.074-.445-.383-1.363-.922-2.75-1.094-6.02 2.555-12.187 10.953-18.5 2.895-1.656 4.91-2.598 6.047-2.828zm16.267-19.5h.703c2 0 4.238 1.922 6.719 5.766-.719 17.211-.945 25.813-.672 25.813 3.195-3.844 5.91-5.766 8.141-5.766 4.008 0 6.617 4.547 7.828 13.641.395 2.5 2.254 5.297 5.578 8.391v.484c-.25.813-1.293 1.219-3.125 1.219h-1.187c-4.555 0-7.387-3.281-8.5-9.844-1.418-3.977-2.965-5.969-4.641-5.969-1.512 0-2.715 3.281-3.609 9.844-1.336 1.031-4.133 2.141-8.391 3.328-2 0-3.199-1.359-3.594-4.078 1.75-6.758 3.406-19.113 4.969-37.062 0-.789-.234-2.316-.703-4.578v-.703c.051-.32.211-.484.484-.484zm-151.011 96.651c-.398 1.762-2.93 3.008-7.594 3.734s-7.57 1.914-8.703 3.547c-1.656 2.43-.777 5.352 2.641 8.766 5.125 3.469 8.598 5.203 10.422 5.203 1.344-.32 2.176-.672 2.5-1.047l.813-1.187c.219-1.164.27-2.453.156-3.859-.824-2.77-.937-4.602-.344-5.5l.109-.141c.125-.176.301-.273.531-.297h2.734c3.395 0 5.242 2.078 5.547 6.234.363 1.711-.012 4.086-1.125 7.125l-2 2.969c-3.469 3.27-6.984 4.906-10.547 4.906-3.273 0-7.039-1.187-11.297-3.562-3.637-2.211-5.367-3.449-5.187-3.719-1.992-.957-3.875-3.187-5.656-6.687-.957-4.25-.484-7.766 1.422-10.547 1.801-2.645 5.945-5.523 12.438-8.641l-1.859-.969c-3.469-2.352-5.008-4.977-4.609-7.875l.047-.297c.789-6.02 7.41-12.211 19.859-18.578 5.031-2.176 8.695-3.266 11-3.266 1.188 0 2.273 1.836 3.266 5.5l-.078.438c-.074.625-2.008.977-5.797 1.047-2.199.5-5.078 1.789-8.641 3.859-5.406 3.168-8.258 5.945-8.547 8.328-.824 3.855.484 6.797 3.922 8.828 3.445 2.031 4.973 3.93 4.578 5.688zm0 0"/><path d="M124.044 274.533c-.648-1.27-1.527-3.352-2.641-6.25-.594-1.531-1.199-2.754-1.812-3.672l-.375-.562c-.199-.27-.668-1.406-1.406-3.406l-.109-.187c-.156-.301-.148-.5.031-.594l.453-.297c1.926-1.457 4.723-1.879 8.391-1.266l.375.563c.469 1.43 1.531 3.914 3.188 7.453l.781-.812c1.133-1.187 1.977-2.266 2.531-3.234l.328-.594c.145-.27.848-1.223 2.109-2.859l.125-.187c.195-.27.379-.352.547-.25l.484.297c1.063.074 2.141 1.891 3.234 5.453l-.344.563c-1.281 1.262-3.523 3.922-6.719 7.984l.234.484c1.207 4.281 2.961 8.789 5.266 13.516l-.187.406-.297.188c-.324.219-2.652-.383-6.984-1.812l-4-6.062c-2.387 2.43-4.75 5.141-7.094 8.141l-.422.031-.328-.187c-.344-.195-.777-2.141-1.297-5.828 2.695-2.969 4.676-5.305 5.938-7.016zm0 0"/><path d="M146.103 260.564c.02-1.164.453-3.457 1.297-6.875.375-1.457.563-2.68.563-3.672v-.625c0-.301.875-1.055 2.625-2.266 1.758-1.219 4.004-.664 6.734 1.656v.609c-.555 1.824-1.324 5.797-2.312 11.922l.641.141c.664.18 1.223.266 1.672.266l.297-.047c.125 0 .473.496 1.047 1.484.582.992.379 2.32-.609 3.984h-.297c-.648-.227-1.871-.488-3.672-.781-2.25 10.719-3.059 17.438-2.422 20.156.695 3-.141 4.711-2.516 5.125h-.375c-2.449 0-3.711-3.687-3.781-11.062-.086-6.164.16-11.488.734-15.969-1.98-.32-4.391-.672-7.234-1.047l-.109-.219v-.219c-.051-1.437 1.605-2.266 4.969-2.484.969-.051 1.883-.078 2.75-.078zm0 0"/><use xlink:href="#Fc" x="-5.528" y="66.823"/><path d="M206.306 261.376c2.395-.914 4.832.547 7.313 4.391.832 2.555 1.391 3.828 1.672 3.828 3.188-3.844 5.895-5.766 8.125-5.766 4.008 0 8.172 3.84 12.484 11.516 1.313 2.012 3.625 4.563 6.938 7.656v.484c-.242.813-1.277 1.219-3.109 1.219h-1.187c-4.562 0-8.797-2.723-12.703-8.172-2.625-3.195-4.781-4.797-6.469-4.797-1.512 0-2.715 3.281-3.609 9.844-1.336 1.043-4.133 2.156-8.391 3.344-2 0-3.199-1.359-3.594-4.078 1.207-4.633 1.906-7.695 2.094-9.187.188-1.5-.078-2.258-.797-2.281-.719-.031-1.602.242-2.641.813-1.512 0-2.711 3.277-3.594 9.828-1.344 1.043-4.148 2.156-8.406 3.344-2 0-3.195-1.359-3.594-4.078 1.758-6.758 2.641-11.785 2.641-15.078 0-.789-.242-2.312-.719-4.562v-.719c.051-.32.211-.484.484-.484h.719c2 0 4.238 1.922 6.719 5.766.844 2.555 1.398 3.828 1.672 3.828 2.914-3.52 5.566-5.738 7.953-6.656zm0 0"/><path d="M251.663 260.892c-.418 8.273.551 12.309 2.906 12.109 3.562-.25 5.594-1.148 6.094-2.703l.219-1.375c.219-4.926-2.047-7.875-6.797-8.844-.969-.469-1.777-.195-2.422.813zm-5.187-3.562h-.047c-.023.199-.008.199.047 0zm0 0l.109-.484c.145-.613.477-1.305 1-2.078l.438-.219 1.125-.109c.813-.07 1.566.359 2.266 1.297l.438-.031c6.812.543 11.062 1.93 12.75 4.156 2.969 3.906 4.156 7.621 3.563 11.141-.156.969-.516 2.012-1.078 3.125-2.305 4.125-4.586 6.293-6.844 6.5-3.062.219-6.141-.758-9.234-2.937l-.375.031-.266 1.563c-1.262 3.273-1.746 8.508-1.453 15.703l.344 11.484c-.398.813-.793 1.281-1.187 1.406l-.187.047c-.793.039-1.871-.953-3.234-2.984-2.445-4.93-3.547-10.711-3.297-17.344.242-6.633 2.047-16.672 5.422-30.109l.031-.187zm32.738-6.641h1.125c5.27 1.387 9.602 4.148 13 8.281 2.375 2.719 3.563 6.148 3.563 10.281 0 6.781-2.687 12.527-8.062 17.234-2.75 1.188-4.766 1.781-6.047 1.781-3.699 0-7.059-1.645-10.078-4.937-1.336-2.32-2-3.66-2-4.016h-.437v.234l-.453-3.125c.25-4.039 1.734-8.375 4.453-13 2.895-2.969 5.359-4.453 7.391-4.453 2.82 0 5.359 1.559 7.609 4.672v.672c0 1.512-.516 2.266-1.547 2.266-.824 0-1.937-.145-3.344-.437-1.836 0-3.109 2.762-3.828 8.281 0 1.949.816 3.578 2.453 4.891h.219c1.488 0 3.43-1.941 5.828-5.828 1.188-2.156 1.781-3.863 1.781-5.125v-3.125c-.398-2.27-1.586-4.582-3.562-6.937-1.242-1.687-4.074-3.035-8.5-4.047-.594-.445-.891-.895-.891-1.344 0-.957.441-1.695 1.328-2.219zm0 0"/></g></svg>