<svg xmlns="http://www.w3.org/2000/svg" xmlns:xlink="http://www.w3.org/1999/xlink" width="500" zoomAndPan="magnify" viewBox="0 0 375 375" height="500" preserveAspectRatio="xMidYMid meet" xmlns:v="https://vecta.io/nano"><defs><clipPath id="A"><path d="M94.457 67.973H280.41v174.75H94.457zm0 0" clip-rule="nonzero"/></clipPath><path id="B" d="M146.263 292.03h-13.25v-5.16h12.109v-5.316h-12.109v-5.086h12.871v-5.316h-19.703v26.195h20.082zm0 0"/></defs><path fill="#fff" d="M-37.5-37.5h450v450h-450z"/><path d="M-37.5-37.5h450v450h-450z"/><g clip-path="url(#A)"><path fill="#fff" d="M125.727 185.195a1.56 1.56 0 0 1-.008 2.078 1.28 1.28 0 0 1-1.922-.012c-1.543-1.687-2.98-2.437-4.297-2.219-2.215.371-3.637 3.316-3.652 3.348-.242.508-.719.801-1.211.801a1.26 1.26 0 0 1-.613-.16c-.668-.371-.934-1.25-.598-1.977.086-.172 2.051-4.309 5.645-4.918 2.219-.379 4.461.648 6.656 3.059zm147.309-28.187c-8.289 12.867-34.406 23.719-83.094 16.594 11.586-8.363 20.742-19.055 27.133-30.109.25-.117.473-.293.664-.516.191-.234 19.035-22.422 36.703-21.937 6.434.195 12.059 3.477 16.648 9.66 6.215 9.246 6.906 18.594 1.945 26.309zm-37.219 35.641a43.52 43.52 0 0 1 3.563 4.559c.547.809 1.063 1.633 1.559 2.469.348 4.703.16 18.016-10.969 31.566a56.77 56.77 0 0 1-5.121 2.523c-1.457.637-2.988 1.227-4.578 1.766 12.102-17.828 14.914-34.879 15.547-42.883zm-33.391 46.086c-2.605.086-5.27-.027-7.98-.352l-1.094-.152c21.746-27.199 20.598-52.086 19.836-58.293 1.188.039 2.375.008 3.551.184 1.914.289 3.703 1.055 5.445 1.875l.855.418c-.062 6.012-1.535 32.043-20.613 56.32zm-25.543-5.477c-3.16-1.508-6.098-3.27-8.828-5.152 20.383-22.562 22.348-43.922 21.949-50.273 2.949.441 5.828.793 8.664 1.082.063 4.34-.379 33.387-21.785 54.344zm-21.656-16.203c-2.359-2.465-4.316-4.789-5.863-6.758.063-.074.133-.141.191-.219 3.313-4.277 7.02-8.402 8.887-13.5 1.863-5.09 3.059-10.395 3.391-15.785.023-.379.105-7.309-.363-7.211 3.453-.703 7.434-1.402 11.234-1.781.527 6.141 1.027 28.879-17.477 45.254zm-12.852-13.84c-1.668.73-7.879 3.066-17.367 2.109-7.703-.773-14.691-7.902-16.621-16.945-1.934-9.066 1.824-17.102 10.043-21.48 15.344-8.098 27.441 3.367 30.762 7.027-.02 3.363-.406 18.824-6.816 29.289zm13.117-114.461c2.793-4.277 7.199-7.949 11.496-10.629 4.332-2.703 9.176-4.586 14.211-5.437 10.211-1.73 21.039.949 28.957 7.672 4.949 4.199 8.594 9.758 10.863 15.816l.09.207c8.863 17.77-5.434 55.18-36.422 75.789-7.777-7.273-50.941-50.102-29.195-83.418zm119.031 39.531c-5.465-7.363-12.176-11.203-19.965-11.426-.25-.016-.484-.016-.738-.016-11.895 0-23.625 8.379-31.121 15.121 5.77-14.34 6.727-28.18 2.207-37.367-5.492-14.574-17.062-24.129-31.77-26.219-15.445-2.195-31.156 4.652-41.094 17.977-19.59 30.012 7.176 65.219 22.156 81.273-8.445.582-18.176 2.938-21.703 3.848-2.5-2.727-9.844-9.777-19.887-11.168.797-2.418 5.234-17.125-.809-29-1.449-2.855-3.461-5.406-5.914-7.465-2.656-2.23-5.637-3.543-8.766-4.91-1.75-.766-4.176-1.098-5.832.117-1.539 1.129-2.098 3.348-1.645 5.141.664 2.641 3.203 4.277 5.668 3.656 1.539-.387 2.684-1.562 3.168-3.035 4.043 2.023 7.055 4.93 8.969 8.684 5.52 10.82.508 25.367.457 25.512-.129.363-.164.703-.277 1.102-1.285.07-2.437.242-3.781.531-.383-4.23-2.316-18.887-11.039-24.359-3.25-2.039-7.105-2.414-10.812-1.637-3.289.688-7.457 1.859-7.535 5.91 0 .035-.004.07-.004.109 0 2.719 2.063 4.926 4.605 4.926s4.602-2.207 4.602-4.926c0-.496-.09-.961-.215-1.41 2.578-.437 4.816-.07 6.766 1.152 6.539 4.098 8.605 16.996 8.848 21.621.004.035.016.07.02.105-.887.367-1.777.77-2.684 1.25-9.906 5.281-14.437 14.926-12.117 25.801 2.285 10.715 10.82 19.188 20.289 20.137a48.69 48.69 0 0 0 4.91.25c5.859 0 10.215-1.094 12.773-1.977.328.5 1.883 2.98 2.355 3.355 6.066 8.188 20.906 25.211 42.637 30.254 8.211 1.91 16.984 2.004 25.262.484a70.08 70.08 0 0 0 3.066-.641c.016 0 .043 0 .059-.012.027 0 .043-.016.074-.016 14-3.273 25.543-10.742 30.797-18.379l12.34-1.07c.867-.07 1.605-.648 1.84-1.469.234-.805-.09-1.664-.797-2.16l-10.289-7.168a1.06 1.06 0 0 0-.148-.086c-.441-3.5-1.766-7.367-3.945-11.391-3.77-6.945-10.527-14.711-18.668-19.422-.023-.016-.047-.027-.07-.043 24.207-1.203 41.879-8.258 49.789-20.555 5.918-9.219 5.227-20.187-2.031-30.992"/></g><g fill="#fff"><path d="M79.57 270.619c-5.203 0-9.91 2.848-9.91 7.895 0 5.242 3.492 7.102 9.453 8.582 3.227.797 4.215 1.973 4.215 3.34 0 1.441-1.445 2.43-3.344 2.43-2.047 0-4.059-1.062-4.516-3.531h-6.836c.418 5.887 4.898 8.543 11.543 8.543 5.277 0 10.289-2.656 10.289-7.895 0-4.027-2.355-6.91-8.125-8.277-4.328-1.027-5.543-2.051-5.543-3.723 0-1.594 1.063-2.352 2.621-2.352 2.238 0 3.379 1.441 3.68 3.605h6.836c-.57-4.859-3.457-8.617-10.363-8.617zm32.339.719c-1.402-.148-2.469-.187-4.102-.187H97.94v26.195h6.832v-9.187h3.035l4.102-.191c3.797-.453 7.25-3.148 7.25-8.312s-3.453-7.859-7.25-8.316zm-2.656 11.469c-.496.035-1.102.035-1.824.035h-2.656v-6.375h2.656c.723 0 1.328 0 1.824.035 1.746.152 2.77 1.18 2.77 3.152s-1.023 3-2.77 3.152zm0 0"/><use xlink:href="#B"/><path d="M174.314 291.576h-13.25V271.15h-6.832v26.195h20.082zm27.633 0h-13.25V271.15h-6.832v26.195h20.082zm35.037-8.468c2.582-.91 3.832-2.73 3.832-5.125 0-3.414-2.43-6.148-6.758-6.68-1.328-.152-1.934-.152-3.34-.152h-10.742v26.195h10.438l3.875-.152c3.527-.418 7.516-2.848 7.516-7.746 0-3.187-1.52-5.391-4.82-6.34zm-10.176-6.641h3.074c.609 0 1.215.035 1.711.113 1.289.188 2.086.91 2.086 2.391 0 1.555-.871 2.203-2.125 2.391-.496.078-1.062.113-1.672.113h-3.074zm5.391 15.527c-.492.035-1.102.035-1.707.035h-3.684v-5.617h3.492c.609 0 1.215 0 1.707.039 1.406.113 2.66 1.023 2.66 2.77 0 1.707-1.254 2.695-2.469 2.773zm0 0"/><use xlink:href="#B" x="123.441"/><use xlink:href="#B" x="151.492"/></g></svg>