<svg xmlns="http://www.w3.org/2000/svg" xmlns:xlink="http://www.w3.org/1999/xlink" width="500" zoomAndPan="magnify" viewBox="0 0 375 374.999991" height="500" preserveAspectRatio="xMidYMid meet" version="1.0"><defs><g/><clipPath id="80dd6f43ed"><path d="M 51.609375 210.25 L 224.84375 210.25 L 224.84375 337.457031 L 51.609375 337.457031 Z M 51.609375 210.25 " clip-rule="nonzero"/></clipPath></defs><rect x="-37.5" width="450" fill="#ffffff" y="-37.499999" height="449.999989" fill-opacity="1"/><rect x="-37.5" width="450" fill="#000000" y="-37.499999" height="449.999989" fill-opacity="1"/><g clip-path="url(#80dd6f43ed)"><path fill="#ffffff" d="M 223.679688 315.113281 L 217.71875 312.230469 L 214.066406 303.386719 L 212.914062 303 L 189.84375 297.039062 C 200.222656 292.425781 209.835938 290.3125 210.027344 290.3125 L 216.757812 288.773438 L 162.542969 270.703125 L 161.964844 270.894531 C 160.8125 271.277344 132.546875 281.46875 124.859375 298.578125 C 92.945312 284.738281 66.988281 288.582031 61.988281 289.351562 C 61.027344 289.542969 60.257812 290.3125 60.257812 291.273438 C 60.066406 292.234375 60.644531 293.195312 61.605469 293.582031 L 70.257812 297.234375 C 62.183594 298.769531 58.527344 302.039062 58.527344 302.039062 L 58.722656 303.191406 C 59.105469 306.078125 59.105469 308.578125 58.914062 309.730469 L 53.722656 310.308594 C 52.761719 310.5 51.992188 311.074219 51.800781 312.039062 C 51.609375 313 51.992188 313.960938 52.953125 314.34375 L 98.710938 337.414062 C 98.710938 337.414062 151.199219 327.609375 155.234375 327.417969 C 155.425781 327.609375 155.8125 327.800781 156.195312 327.996094 C 157.925781 329.148438 160.617188 331.070312 163.695312 330.492188 C 166.964844 329.917969 168.5 327.996094 169.460938 326.839844 C 170.230469 325.878906 170.421875 325.6875 170.808594 325.6875 C 173.882812 325.6875 220.988281 319.34375 222.910156 319.152344 C 222.910156 319.152344 224.449219 318.574219 224.640625 317.421875 C 225.023438 316.265625 224.449219 315.496094 223.679688 315.113281 Z M 211.375 306.847656 L 213.683594 312.421875 C 205.222656 312.421875 181.191406 313.382812 170.421875 320.113281 C 170.039062 319.917969 168.308594 319.152344 168.117188 319.152344 C 178.691406 307.808594 205.414062 306.847656 211.375 306.847656 Z M 214.257812 316.265625 C 201.183594 317.996094 185.804688 320.113281 177.34375 321.074219 C 188.6875 316.84375 207.722656 316.265625 214.257812 316.265625 Z M 200.03125 303.578125 C 189.265625 304.730469 174.652344 307.613281 166.195312 315.496094 C 169.65625 308.769531 176.960938 303.578125 184.457031 299.539062 Z M 62.949219 310.308594 C 62.949219 310.113281 62.757812 310.113281 62.757812 309.921875 C 62.949219 308.769531 62.949219 307.421875 62.757812 305.691406 L 99.863281 321.265625 C 99.863281 321.265625 134.277344 312.804688 155.234375 320.6875 C 155.234375 320.6875 155.234375 320.6875 155.042969 320.6875 C 137.546875 317.996094 105.824219 326.265625 100.632812 327.800781 C 96.019531 325.6875 70.449219 313.765625 62.949219 310.308594 Z M 162.925781 274.738281 L 203.109375 288.195312 C 191.1875 291.65625 166.578125 300.695312 161.386719 317.421875 C 160.8125 317.035156 159.847656 316.460938 158.695312 315.691406 C 153.121094 312.039062 141.96875 305.308594 128.703125 299.925781 C 135.046875 285.699219 158.695312 276.277344 162.925781 274.738281 Z M 125.433594 303 C 128.703125 304.347656 131.78125 305.691406 134.855469 307.039062 C 134.277344 306.847656 133.703125 306.847656 133.125 306.652344 C 124.28125 305.308594 116.976562 304.921875 111.59375 304.921875 C 105.824219 304.921875 102.171875 305.308594 100.824219 305.5 L 68.910156 292.425781 C 79.484375 291.464844 100.632812 291.851562 125.433594 303 Z M 100.25 309.34375 L 100.824219 309.34375 C 101.019531 309.34375 113.128906 307.421875 132.546875 310.5 C 138.699219 311.460938 143.890625 313.191406 148.121094 314.921875 C 128.320312 311.074219 104.285156 316.265625 100.058594 317.226562 L 64.875 302.617188 C 67.949219 301.269531 72.757812 300.117188 79.292969 300.886719 Z M 99.289062 333.378906 L 59.875 313.382812 L 60.257812 313.382812 C 66.027344 315.882812 99.289062 331.457031 99.480469 331.648438 L 100.058594 332.03125 L 100.824219 331.839844 C 101.210938 331.839844 131.011719 323.378906 149.660156 324.148438 C 142.929688 325.109375 128.894531 327.609375 99.289062 333.378906 Z M 166.578125 324.339844 C 165.617188 325.496094 164.847656 326.265625 163.117188 326.648438 C 161.578125 326.839844 159.847656 325.6875 158.503906 324.726562 C 158.121094 324.339844 157.734375 324.148438 157.351562 323.957031 C 157.542969 323.765625 157.925781 323.574219 158.121094 323.378906 C 158.695312 322.996094 160.617188 321.648438 162.734375 321.648438 C 165.425781 321.648438 167.539062 322.996094 167.730469 322.996094 C 167.347656 323.378906 166.964844 323.957031 166.578125 324.339844 Z M 77.5625 265.316406 L 85.828125 260.894531 L 94.097656 265.316406 L 92.558594 256.089844 L 99.289062 249.554688 L 90.058594 248.207031 L 86.023438 239.941406 L 81.984375 248.207031 L 72.757812 249.554688 L 79.484375 256.089844 Z M 84.292969 251.859375 L 85.828125 248.785156 L 87.367188 251.859375 L 90.828125 252.4375 L 88.328125 254.9375 L 88.90625 258.398438 L 85.828125 256.667969 L 82.5625 258.398438 L 83.136719 254.9375 L 80.640625 252.4375 Z M 103.710938 279.738281 L 105.441406 288.773438 L 111.59375 281.851562 L 120.820312 283.007812 L 116.015625 274.929688 L 119.859375 266.472656 L 110.824219 268.585938 L 104.09375 262.242188 L 103.132812 271.46875 L 95.058594 276.085938 Z M 106.976562 273.777344 L 107.363281 270.316406 L 109.863281 272.625 L 113.324219 271.855469 L 111.785156 275.125 L 113.515625 278.199219 L 110.054688 277.816406 L 107.746094 280.507812 L 106.976562 277.046875 L 103.710938 275.699219 Z M 157.542969 227.828125 L 161.964844 235.902344 L 165.808594 227.441406 L 175.039062 225.714844 L 168.117188 219.5625 L 169.269531 210.332031 L 161.195312 214.945312 L 152.734375 210.910156 L 154.660156 219.945312 L 148.3125 226.675781 Z M 158.121094 217.832031 L 161.386719 219.367188 L 164.464844 217.636719 L 164.078125 221.097656 L 166.769531 223.40625 L 163.308594 223.984375 L 161.964844 227.25 L 160.234375 224.175781 L 156.773438 223.789062 L 159.273438 221.289062 Z M 118.320312 251.089844 C 121.011719 251.089844 123.320312 248.785156 123.320312 246.09375 C 123.320312 243.402344 121.011719 241.09375 118.320312 241.09375 C 115.628906 241.09375 113.324219 243.207031 113.324219 246.09375 C 113.324219 248.976562 115.628906 251.089844 118.320312 251.089844 Z M 118.320312 244.746094 C 118.898438 244.746094 119.476562 245.324219 119.476562 245.898438 C 119.476562 246.476562 118.898438 247.054688 118.320312 247.054688 C 117.746094 247.054688 117.167969 246.667969 117.167969 246.09375 C 117.167969 245.324219 117.746094 244.746094 118.320312 244.746094 Z M 157.351562 253.398438 C 154.660156 253.398438 152.351562 255.707031 152.351562 258.398438 C 152.351562 261.089844 154.660156 263.394531 157.351562 263.394531 C 160.042969 263.394531 162.347656 261.089844 162.347656 258.398438 C 162.347656 255.707031 160.234375 253.398438 157.351562 253.398438 Z M 157.351562 259.550781 C 156.773438 259.550781 156.195312 258.972656 156.195312 258.398438 C 156.195312 257.820312 156.773438 257.242188 157.351562 257.242188 C 157.925781 257.242188 158.503906 257.820312 158.503906 258.398438 C 158.503906 259.164062 158.121094 259.550781 157.351562 259.550781 Z M 181.191406 247.4375 C 184.457031 247.4375 187.148438 244.746094 187.148438 241.476562 C 187.148438 238.210938 184.457031 235.519531 181.191406 235.519531 C 177.921875 235.519531 175.039062 238.210938 175.039062 241.476562 C 175.039062 244.746094 177.730469 247.4375 181.191406 247.4375 Z M 181.191406 239.171875 C 182.34375 239.171875 183.304688 240.132812 183.304688 241.285156 C 183.304688 242.4375 182.34375 243.402344 181.191406 243.402344 C 180.035156 243.402344 178.882812 242.4375 178.882812 241.285156 C 178.882812 240.132812 179.84375 239.171875 181.191406 239.171875 Z M 181.191406 239.171875 " fill-opacity="1" fill-rule="nonzero"/></g><g fill="#ffffff" fill-opacity="1"><g transform="translate(92.984607, 146.627302)"><g><path d="M 128.75 -111.78125 C 134.5625 -106.445312 136.285156 -100.015625 133.921875 -92.484375 C 133.484375 -91.171875 132.941406 -89.898438 132.296875 -88.671875 C 131.078125 -86.484375 129.6875 -84.429688 128.125 -82.515625 C 126.570312 -80.609375 124.925781 -78.78125 123.1875 -77.03125 C 122.007812 -75.800781 120.640625 -75.382812 119.078125 -75.78125 C 118.640625 -75.820312 118.351562 -76.039062 118.21875 -76.4375 C 118.132812 -76.832031 118.242188 -77.160156 118.546875 -77.421875 C 121.378906 -80.160156 123.867188 -83.195312 126.015625 -86.53125 C 127.535156 -88.75 128.644531 -91.148438 129.34375 -93.734375 C 131.050781 -100.710938 129.132812 -106.460938 123.59375 -110.984375 C 120.976562 -113.046875 118.054688 -114.492188 114.828125 -115.328125 C 111.765625 -116.140625 108.695312 -116.671875 105.625 -116.921875 C 102.550781 -117.171875 99.457031 -117.1875 96.34375 -116.96875 C 91.601562 -116.6875 86.894531 -116.132812 82.21875 -115.3125 C 77.550781 -114.488281 72.90625 -113.515625 68.28125 -112.390625 C 62.25 -110.898438 56.332031 -109.070312 50.53125 -106.90625 C 44.726562 -104.75 39.101562 -102.179688 33.65625 -99.203125 C 28.375 -96.367188 23.484375 -92.96875 18.984375 -89 C 14.972656 -85.46875 11.679688 -81.34375 9.109375 -76.625 C 5.796875 -70.351562 6.070312 -64.242188 9.9375 -58.296875 C 12.394531 -54.722656 15.320312 -51.554688 18.71875 -48.796875 C 23.988281 -44.429688 29.550781 -40.503906 35.40625 -37.015625 C 40.34375 -34.054688 45.273438 -31.140625 50.203125 -28.265625 C 53.472656 -26.378906 56.722656 -24.472656 59.953125 -22.546875 C 62.273438 -21.203125 64.546875 -19.8125 66.765625 -18.375 C 68.992188 -16.9375 71.15625 -15.382812 73.25 -13.71875 C 74.519531 -12.664062 75.921875 -12.40625 77.453125 -12.9375 C 82.691406 -14.46875 88.007812 -15.5625 93.40625 -16.21875 C 93.582031 -16.21875 93.757812 -16.238281 93.9375 -16.28125 C 95.164062 -16.5 96.363281 -16.5 97.53125 -16.28125 C 97.832031 -16.195312 98.09375 -16.054688 98.3125 -15.859375 C 98.53125 -15.660156 98.640625 -15.363281 98.640625 -14.96875 C 98.640625 -14.570312 98.519531 -14.273438 98.28125 -14.078125 C 98.039062 -13.878906 97.769531 -13.78125 97.46875 -13.78125 C 95.59375 -13.738281 93.757812 -13.539062 91.96875 -13.1875 C 90.1875 -12.84375 88.421875 -12.453125 86.671875 -12.015625 C 85.265625 -11.660156 83.890625 -11.351562 82.546875 -11.09375 C 82.359375 -11.050781 82.1875 -11.015625 82.03125 -10.984375 C 81.375 -10.878906 80.726562 -10.71875 80.09375 -10.5 C 79.457031 -10.28125 78.90625 -9.953125 78.4375 -9.515625 C 78.769531 -8.648438 79.242188 -7.9375 79.859375 -7.375 C 80.117188 -7.0625 80.378906 -6.734375 80.640625 -6.390625 C 81.722656 -4.941406 82.671875 -3.441406 83.484375 -1.890625 C 84.304688 -0.347656 84.914062 1.289062 85.3125 3.03125 C 86.257812 7.539062 84.789062 11.015625 80.90625 13.453125 C 79.59375 14.222656 78.222656 14.875 76.796875 15.40625 C 71.710938 17.238281 66.492188 18.003906 61.140625 17.703125 C 59.035156 17.566406 57.070312 17.039062 55.25 16.125 C 52.75 14.8125 51.109375 12.972656 50.328125 10.609375 C 49.546875 8.253906 49.769531 5.816406 51 3.296875 C 51.832031 1.671875 52.921875 0.273438 54.265625 -0.890625 C 55.972656 -2.421875 57.796875 -3.785156 59.734375 -4.984375 C 61.671875 -6.179688 63.671875 -7.285156 65.734375 -8.296875 C 66.597656 -8.734375 67.445312 -9.171875 68.28125 -9.609375 C 68.71875 -9.828125 69.15625 -10.046875 69.59375 -10.265625 C 69.632812 -10.742188 69.554688 -11.109375 69.359375 -11.359375 C 69.160156 -11.617188 68.929688 -11.835938 68.671875 -12.015625 C 68.578125 -12.054688 68.488281 -12.128906 68.40625 -12.234375 C 64.875 -14.929688 61.1875 -17.390625 57.34375 -19.609375 C 52.675781 -22.367188 47.984375 -25.097656 43.265625 -27.796875 C 41.296875 -28.921875 39.332031 -30.078125 37.375 -31.265625 C 30.570312 -35.191406 24.023438 -39.507812 17.734375 -44.21875 C 13.847656 -47.113281 10.335938 -50.382812 7.203125 -54.03125 C 5.671875 -55.914062 4.378906 -57.953125 3.328125 -60.140625 C 1.109375 -64.796875 0.890625 -69.59375 2.671875 -74.53125 C 3.585938 -77.070312 4.804688 -79.414062 6.328125 -81.5625 C 7.859375 -83.71875 9.546875 -85.757812 11.390625 -87.6875 C 15.503906 -91.925781 20.039062 -95.546875 25 -98.546875 C 33.25 -103.628906 41.957031 -107.695312 51.125 -110.75 C 62.5625 -114.570312 74.253906 -117.296875 86.203125 -118.921875 C 90.347656 -119.484375 94.503906 -119.816406 98.671875 -119.921875 C 102.847656 -120.035156 107.007812 -119.765625 111.15625 -119.109375 C 113.632812 -118.773438 116.039062 -118.253906 118.375 -117.546875 C 120.707031 -116.835938 122.945312 -115.832031 125.09375 -114.53125 C 126.394531 -113.695312 127.613281 -112.78125 128.75 -111.78125 Z M 74.09375 -6.90625 C 73.394531 -7.613281 72.585938 -7.722656 71.671875 -7.234375 C 69.359375 -6.203125 67.125 -5.039062 64.96875 -3.75 C 62.8125 -2.457031 60.753906 -1 58.796875 0.625 C 57.742188 1.539062 56.867188 2.601562 56.171875 3.8125 C 54.867188 6.3125 54.726562 8.625 55.75 10.75 C 56.769531 12.882812 58.65625 14.203125 61.40625 14.703125 C 62.0625 14.773438 62.648438 14.832031 63.171875 14.875 C 63.347656 14.875 63.492188 14.875 63.609375 14.875 C 67.816406 14.757812 71.640625 13.90625 75.078125 12.3125 C 79.359375 10.488281 80.914062 7.328125 79.75 2.828125 C 79.25 0.960938 78.503906 -0.765625 77.515625 -2.359375 C 76.535156 -3.960938 75.394531 -5.476562 74.09375 -6.90625 Z M 74.09375 -6.90625 "/></g></g></g><g fill="#ffffff" fill-opacity="1"><g transform="translate(188.679766, 146.627302)"><g><path d="M 21.84375 -14.3125 C 22.925781 -15.363281 23.394531 -15.625 23.25 -15.09375 C 23.101562 -14.570312 22.503906 -13.617188 21.453125 -12.234375 C 20.398438 -10.859375 19.085938 -9.367188 17.515625 -7.765625 C 15.953125 -6.160156 14.296875 -4.765625 12.546875 -3.578125 C 10.804688 -2.398438 9.15625 -1.765625 7.59375 -1.671875 C 5.664062 -1.671875 4.117188 -2.238281 2.953125 -3.375 C 1.796875 -4.519531 0.96875 -6.03125 0.46875 -7.90625 C -0.0195312 -9.78125 -0.226562 -11.804688 -0.15625 -13.984375 C -0.0507812 -16.421875 0.0390625 -18.859375 0.125 -21.296875 C 0.15625 -22.535156 0.191406 -23.738281 0.234375 -24.90625 C 0.335938 -26.863281 0.410156 -28.828125 0.453125 -30.796875 C 0.484375 -31.410156 0.378906 -31.925781 0.140625 -32.34375 C -0.0859375 -32.757812 -0.507812 -32.988281 -1.125 -33.03125 C -1.820312 -33.070312 -2.695312 -33.09375 -3.75 -33.09375 C -4.664062 -33.09375 -5.445312 -33.09375 -6.09375 -33.09375 C -7.007812 -33.1875 -7.617188 -33.425781 -7.921875 -33.8125 C -8.234375 -34.195312 -7.992188 -34.585938 -7.203125 -34.984375 C -6.648438 -35.203125 -5.976562 -35.320312 -5.1875 -35.34375 C -4.40625 -35.363281 -3.640625 -35.351562 -2.890625 -35.3125 C -2.410156 -35.28125 -1.992188 -35.265625 -1.640625 -35.265625 C -0.460938 -35.265625 0.25 -35.445312 0.5 -35.8125 C 0.757812 -36.175781 0.921875 -36.90625 0.984375 -38 C 1.054688 -39.144531 1.113281 -40.304688 1.15625 -41.484375 C 1.195312 -42.097656 1.25 -42.710938 1.3125 -43.328125 C 1.3125 -44.234375 1.546875 -45.054688 2.015625 -45.796875 C 2.535156 -46.484375 3.191406 -46.75 3.984375 -46.59375 C 4.679688 -46.414062 5.066406 -45.976562 5.140625 -45.28125 C 5.203125 -44.132812 5.234375 -42.976562 5.234375 -41.8125 C 5.273438 -41.15625 5.273438 -40.5 5.234375 -39.84375 C 5.234375 -39.144531 5.253906 -38.421875 5.296875 -37.671875 C 5.253906 -36.640625 5.367188 -35.988281 5.640625 -35.71875 C 5.921875 -35.445312 6.609375 -35.3125 7.703125 -35.3125 C 9.492188 -35.3125 11.257812 -35.3125 13 -35.3125 C 13.789062 -35.3125 16.148438 -35.363281 20.078125 -35.46875 C 24.003906 -35.582031 26.117188 -35.269531 26.421875 -34.53125 C 26.734375 -33.789062 24.253906 -33.359375 18.984375 -33.234375 C 15.785156 -33.054688 13.316406 -32.96875 11.578125 -32.96875 C 10.398438 -33.007812 9.347656 -33.03125 8.421875 -33.03125 C 6.847656 -33.03125 5.878906 -32.753906 5.515625 -32.203125 C 5.148438 -31.660156 4.988281 -30.566406 5.03125 -28.921875 C 4.988281 -27.515625 4.914062 -25.804688 4.8125 -23.796875 C 4.5625 -19.691406 4.4375 -15.507812 4.4375 -11.25 C 4.53125 -8.3125 5.050781 -6.40625 6 -5.53125 C 6.957031 -4.65625 8.195312 -4.488281 9.71875 -5.03125 C 11.25 -5.582031 12.898438 -6.554688 14.671875 -7.953125 C 16.453125 -9.359375 18.21875 -10.863281 19.96875 -12.46875 C 20.34375 -12.96875 20.796875 -13.429688 21.328125 -13.859375 C 21.515625 -14.023438 21.6875 -14.175781 21.84375 -14.3125 Z M 21.84375 -14.3125 "/></g></g></g><g fill="#ffffff" fill-opacity="1"><g transform="translate(210.133811, 146.627302)"><g><path d="M 22.859375 -16.28125 C 23.148438 -16.570312 23.304688 -16.207031 23.328125 -15.1875 C 23.347656 -14.164062 22.421875 -12.738281 20.546875 -10.90625 C 18.671875 -9.070312 16.734375 -8.203125 14.734375 -8.296875 C 14.296875 -8.335938 13.921875 -8.300781 13.609375 -8.1875 C 13.304688 -8.082031 13.046875 -7.832031 12.828125 -7.4375 C 12.609375 -7.082031 12.347656 -6.753906 12.046875 -6.453125 C 12.046875 -6.453125 12.023438 -6.429688 11.984375 -6.390625 C 10.753906 -5.085938 9.3125 -4.226562 7.65625 -3.8125 C 6 -3.394531 4.425781 -3.519531 2.9375 -4.1875 C 1.457031 -4.863281 0.390625 -6.144531 -0.265625 -8.03125 C -0.742188 -9.738281 -0.785156 -11.4375 -0.390625 -13.125 C -0.046875 -14.613281 0.5 -16.007812 1.25 -17.3125 C 2.164062 -19.0625 3.351562 -20.296875 4.8125 -21.015625 C 6.269531 -21.742188 7.921875 -22.148438 9.765625 -22.234375 C 12.492188 -22.367188 14.21875 -21.078125 14.9375 -18.359375 C 15.375 -16.796875 15.484375 -15.207031 15.265625 -13.59375 C 15.203125 -13.238281 15.132812 -12.863281 15.0625 -12.46875 C 14.976562 -12.207031 14.90625 -11.945312 14.84375 -11.6875 C 14.769531 -10.820312 15.148438 -10.425781 15.984375 -10.5 C 18.285156 -10.894531 20.578125 -12.820312 22.859375 -16.28125 Z M 6.671875 -6.125 C 8.078125 -6.78125 9.054688 -7.894531 9.609375 -9.46875 C 7.265625 -10.945312 5.695312 -13.085938 4.90625 -15.890625 C 4.175781 -14.578125 3.726562 -13.046875 3.5625 -11.296875 C 3.40625 -9.554688 3.578125 -8.113281 4.078125 -6.96875 C 4.585938 -5.832031 5.453125 -5.550781 6.671875 -6.125 Z M 10.6875 -12.5625 C 11.0625 -13.113281 11.28125 -13.796875 11.34375 -14.609375 C 11.414062 -15.421875 11.378906 -16.226562 11.234375 -17.03125 C 11.085938 -17.832031 10.878906 -18.460938 10.609375 -18.921875 C 10.335938 -19.378906 10.054688 -19.519531 9.765625 -19.34375 C 9.222656 -18.863281 8.921875 -18.175781 8.859375 -17.28125 C 8.804688 -16.394531 8.941406 -15.503906 9.265625 -14.609375 C 9.597656 -13.710938 10.070312 -13.03125 10.6875 -12.5625 Z M 10.6875 -12.5625 "/></g></g></g><g fill="#ffffff" fill-opacity="1"><g transform="translate(232.302, 146.627302)"><g><path d="M 18.984375 -14.25 C 19.359375 -15.019531 19.613281 -15.375 19.75 -15.3125 C 19.894531 -15.257812 19.929688 -14.945312 19.859375 -14.375 C 19.785156 -13.8125 19.660156 -13.175781 19.484375 -12.46875 C 19.234375 -11.375 18.789062 -10.109375 18.15625 -8.671875 C 17.519531 -7.234375 16.8125 -5.929688 16.03125 -4.765625 C 14.882812 -3.140625 13.460938 -1.910156 11.765625 -1.078125 C 10.066406 -0.253906 8.53125 -0.0507812 7.15625 -0.46875 C 5.78125 -0.882812 4.984375 -2.1875 4.765625 -4.375 C 4.722656 -6.195312 4.878906 -8.203125 5.234375 -10.390625 C 5.359375 -11.296875 5.488281 -12.1875 5.625 -13.0625 C 5.625 -13.375 5.539062 -13.613281 5.375 -13.78125 C 5.21875 -13.957031 5.015625 -14.023438 4.765625 -13.984375 C 4.585938 -13.984375 4.390625 -13.984375 4.171875 -13.984375 C 3.078125 -13.804688 1.960938 -13.828125 0.828125 -14.046875 C -0.515625 -14.441406 -1.296875 -15.109375 -1.515625 -16.046875 C -1.734375 -16.992188 -1.710938 -18.226562 -1.453125 -19.75 C -1.316406 -20.84375 -0.910156 -21.660156 -0.234375 -22.203125 C 0.441406 -22.753906 1.234375 -22.976562 2.140625 -22.875 C 3.410156 -22.757812 4.023438 -22.273438 3.984375 -21.421875 C 3.941406 -20.566406 3.703125 -19.65625 3.265625 -18.6875 C 2.867188 -17.875 2.660156 -17.191406 2.640625 -16.640625 C 2.628906 -16.097656 3.097656 -15.90625 4.046875 -16.0625 C 4.265625 -16.125 4.503906 -16.195312 4.765625 -16.28125 C 5.117188 -16.414062 5.523438 -16.535156 5.984375 -16.640625 C 6.441406 -16.753906 7.035156 -16.78125 7.765625 -16.71875 C 8.640625 -16.675781 9.21875 -16.273438 9.5 -15.515625 C 9.789062 -14.753906 9.914062 -13.796875 9.875 -12.640625 C 9.832031 -11.492188 9.722656 -10.328125 9.546875 -9.140625 C 9.328125 -7.648438 9.21875 -6.375 9.21875 -5.3125 C 9.21875 -4.25 9.523438 -3.628906 10.140625 -3.453125 C 10.953125 -3.234375 12.164062 -3.972656 13.78125 -5.671875 C 15.40625 -7.367188 17.140625 -10.226562 18.984375 -14.25 Z M 18.984375 -14.25 "/></g></g></g><g fill="#ffffff" fill-opacity="1"><g transform="translate(250.512645, 146.627302)"><g><path d="M 33.59375 -15.03125 C 34.289062 -14.988281 34.410156 -14.640625 33.953125 -13.984375 C 33.492188 -13.328125 32.71875 -12.5 31.625 -11.5 C 30.539062 -10.5 29.363281 -9.453125 28.09375 -8.359375 C 26.382812 -6.910156 25.003906 -5.660156 23.953125 -4.609375 C 22.785156 -3.617188 21.835938 -2.238281 21.109375 -0.46875 C 20.390625 1.289062 20.03125 2.914062 20.03125 4.40625 C 20.03125 5.195312 20.03125 6.140625 20.03125 7.234375 C 20.0625 9.453125 20.054688 12.125 20.015625 15.25 C 19.984375 18.375 19.8125 21.601562 19.5 24.9375 C 19.195312 28.269531 18.644531 31.394531 17.84375 34.3125 C 17.039062 37.238281 15.894531 39.628906 14.40625 41.484375 C 12.914062 43.347656 11.019531 44.367188 8.71875 44.546875 C 4.289062 44.660156 1.253906 42.820312 -0.390625 39.03125 C -1.660156 35.84375 -2.085938 32.570312 -1.671875 29.21875 C -1.253906 25.863281 -0.316406 22.585938 1.140625 19.390625 C 2.597656 16.203125 4.242188 13.269531 6.078125 10.59375 C 7.921875 7.914062 9.648438 5.664062 11.265625 3.84375 C 12.878906 2.03125 14.035156 0.816406 14.734375 0.203125 C 15.023438 -0.785156 15.195312 -1.929688 15.25 -3.234375 C 15.300781 -4.546875 15.304688 -5.816406 15.265625 -7.046875 C 15.203125 -7.441406 15.171875 -7.789062 15.171875 -8.09375 C 14.296875 -6.738281 13.390625 -5.789062 12.453125 -5.25 C 11.523438 -4.707031 10.585938 -4.410156 9.640625 -4.359375 C 8.703125 -4.304688 7.820312 -4.332031 7 -4.4375 C 6.914062 -4.4375 6.832031 -4.4375 6.75 -4.4375 C 4.832031 -4.6875 3.316406 -5.585938 2.203125 -7.140625 C 1.085938 -8.691406 0.363281 -10.457031 0.03125 -12.4375 C -0.289062 -14.414062 -0.203125 -16.191406 0.296875 -17.765625 C 0.796875 -19.347656 1.695312 -20.269531 3 -20.53125 C 3.539062 -20.664062 4.132812 -20.734375 4.78125 -20.734375 C 5.4375 -20.734375 5.984375 -20.644531 6.421875 -20.46875 C 6.859375 -20.289062 7.007812 -19.960938 6.875 -19.484375 C 6.476562 -17.859375 6.25 -16.097656 6.1875 -14.203125 C 6.125 -12.304688 6.285156 -10.660156 6.671875 -9.265625 C 7.066406 -7.867188 7.765625 -7.113281 8.765625 -7 C 9.765625 -6.894531 11.097656 -7.804688 12.765625 -9.734375 C 13.554688 -10.742188 14.097656 -11.78125 14.390625 -12.84375 C 14.691406 -13.90625 14.929688 -15.050781 15.109375 -16.28125 C 15.148438 -16.71875 15.222656 -17.148438 15.328125 -17.578125 C 15.367188 -18.015625 15.425781 -18.453125 15.5 -18.890625 C 15.5625 -19.460938 15.628906 -20.03125 15.703125 -20.59375 C 15.921875 -21.5 16.429688 -22.128906 17.234375 -22.484375 C 18.046875 -22.847656 18.914062 -22.8125 19.84375 -22.375 C 20.320312 -22.09375 20.597656 -21.695312 20.671875 -21.1875 C 20.773438 -20.175781 20.828125 -19.175781 20.828125 -18.1875 C 20.765625 -14.65625 20.734375 -10.304688 20.734375 -5.140625 C 20.796875 -5.179688 21.234375 -5.550781 22.046875 -6.25 C 23.097656 -7.21875 24.429688 -8.375 26.046875 -9.71875 C 27.660156 -11.070312 29.1875 -12.285156 30.625 -13.359375 C 32.070312 -14.429688 33.0625 -14.988281 33.59375 -15.03125 Z M 14.1875 15.203125 C 14.1875 14.722656 14.21875 14.226562 14.28125 13.71875 C 14.320312 11.832031 14.378906 9.925781 14.453125 8 C 14.453125 7.925781 14.421875 7.820312 14.359375 7.6875 C 14.304688 7.5625 14.234375 7.46875 14.140625 7.40625 C 13.921875 7.25 13.734375 7.222656 13.578125 7.328125 C 13.429688 7.441406 13.289062 7.554688 13.15625 7.671875 C 11.332031 10.035156 9.609375 12.707031 7.984375 15.6875 C 6.367188 18.675781 5.101562 21.785156 4.1875 25.015625 C 3.28125 28.253906 2.90625 31.421875 3.0625 34.515625 C 3.195312 36.441406 3.8125 38.207031 4.90625 39.8125 C 6.21875 41.613281 7.363281 42.257812 8.34375 41.75 C 9.320312 41.25 10.148438 40.003906 10.828125 38.015625 C 11.503906 36.035156 12.0625 33.703125 12.5 31.015625 C 12.9375 28.328125 13.269531 25.695312 13.5 23.125 C 13.738281 20.5625 13.929688 18.425781 14.078125 16.71875 C 14.117188 16.144531 14.15625 15.640625 14.1875 15.203125 Z M 14.1875 15.203125 "/></g></g></g><g fill="#ffffff" fill-opacity="1"><g transform="translate(81.786646, 201.690559)"><g><path d="M 112.265625 -121.140625 C 113.097656 -119.878906 112.351562 -117.476562 110.03125 -113.9375 C 98.25 -95.882812 89.285156 -76.441406 83.140625 -55.609375 C 80.515625 -46.921875 78.164062 -38.179688 76.09375 -29.390625 C 74.019531 -20.609375 72.113281 -11.785156 70.375 -2.921875 C 68.40625 6.796875 66.421875 16.523438 64.421875 26.265625 C 63.585938 30.203125 62.492188 34.0625 61.140625 37.84375 C 60.742188 38.894531 60.289062 39.910156 59.78125 40.890625 C 59.675781 41.140625 59.566406 41.375 59.453125 41.59375 C 59.015625 42.46875 58.378906 43.125 57.546875 43.5625 C 56.710938 44 55.820312 44.21875 54.875 44.21875 L 54.71875 44.21875 C 52.789062 44.175781 51.242188 43.429688 50.078125 41.984375 C 48.765625 40.234375 47.691406 38.359375 46.859375 36.359375 C 45.253906 32.171875 44.035156 27.867188 43.203125 23.453125 C 41.710938 16.210938 40.640625 8.929688 39.984375 1.609375 C 38.859375 -9.734375 38.007812 -21.128906 37.4375 -32.578125 C 37.4375 -32.835938 37.394531 -33.144531 37.3125 -33.5 C 37.269531 -33.71875 37.226562 -33.957031 37.1875 -34.21875 C 36.789062 -33.6875 36.515625 -33.179688 36.359375 -32.703125 C 36.203125 -32.222656 36.082031 -31.742188 36 -31.265625 C 35.957031 -31.085938 35.921875 -30.910156 35.890625 -30.734375 C 34.796875 -25.972656 33.65625 -21.21875 32.46875 -16.46875 C 31.289062 -11.71875 29.957031 -7.003906 28.46875 -2.328125 C 27.382812 1.242188 26.007812 4.707031 24.34375 8.0625 C 23.46875 9.726562 22.445312 11.304688 21.28125 12.796875 C 20.320312 13.921875 19.097656 14.664062 17.609375 15.03125 C 16.128906 15.40625 14.664062 15.28125 13.21875 14.65625 C 11.78125 14.03125 10.644531 12.796875 9.8125 10.953125 C 8.863281 8.546875 8.082031 6.101562 7.46875 3.625 C 6.375 -1.09375 5.519531 -5.851562 4.90625 -10.65625 C 3.34375 -21.6875 2.273438 -32.796875 1.703125 -43.984375 C 1.359375 -51.179688 1.515625 -58.378906 2.171875 -65.578125 C 2.253906 -66.566406 2.421875 -67.550781 2.671875 -68.53125 C 3.066406 -69.5625 3.851562 -70.035156 5.03125 -69.953125 C 6.300781 -69.953125 6.9375 -69.335938 6.9375 -68.109375 C 6.894531 -65.191406 6.785156 -62.296875 6.609375 -59.421875 C 6.390625 -54.835938 6.367188 -50.273438 6.546875 -45.734375 C 6.722656 -41.191406 7.007812 -36.628906 7.40625 -32.046875 C 7.882812 -26.628906 8.472656 -21.222656 9.171875 -15.828125 C 9.566406 -12.273438 10.046875 -8.742188 10.609375 -5.234375 C 11.171875 -1.722656 11.910156 1.753906 12.828125 5.203125 C 13.296875 6.953125 13.910156 8.628906 14.671875 10.234375 C 15.109375 11.242188 15.535156 11.757812 15.953125 11.78125 C 16.367188 11.800781 16.90625 11.351562 17.5625 10.4375 C 18.113281 9.644531 18.628906 8.8125 19.109375 7.9375 C 20.035156 6.332031 20.828125 4.6875 21.484375 3 C 22.140625 1.3125 22.742188 -0.398438 23.296875 -2.140625 C 24.828125 -6.804688 26.191406 -11.523438 27.390625 -16.296875 C 28.585938 -21.078125 29.734375 -25.890625 30.828125 -30.734375 C 31.003906 -31.523438 31.179688 -32.289062 31.359375 -33.03125 C 32.191406 -36.4375 33.085938 -39.835938 34.046875 -43.234375 C 34.222656 -43.984375 34.421875 -44.707031 34.640625 -45.40625 C 34.929688 -46.5 35.316406 -47.570312 35.796875 -48.625 C 36.328125 -49.675781 37.226562 -50.21875 38.5 -50.25 C 39.53125 -50.332031 40.316406 -50.179688 40.859375 -49.796875 C 41.410156 -49.410156 41.753906 -48.671875 41.890625 -47.578125 C 42.109375 -45.828125 42.238281 -44.050781 42.28125 -42.25 C 42.457031 -33.257812 42.894531 -24.273438 43.59375 -15.296875 C 43.6875 -14.421875 43.753906 -13.546875 43.796875 -12.671875 C 44.128906 -8.128906 44.515625 -3.578125 44.953125 0.984375 C 45.390625 5.546875 45.96875 10.066406 46.6875 14.546875 C 47.164062 17.785156 47.75 20.984375 48.4375 24.140625 C 49.132812 27.304688 50.007812 30.4375 51.0625 33.53125 C 51.0625 33.570312 51.082031 33.625 51.125 33.6875 C 51.476562 34.8125 51.890625 35.910156 52.359375 36.984375 C 52.835938 38.054688 53.472656 39.046875 54.265625 39.953125 C 54.703125 39.859375 55.003906 39.679688 55.171875 39.421875 C 55.347656 39.160156 55.484375 38.90625 55.578125 38.65625 C 55.617188 38.507812 55.660156 38.398438 55.703125 38.328125 C 57.191406 34.429688 58.351562 30.453125 59.1875 26.390625 C 60.488281 20.066406 61.773438 13.738281 63.046875 7.40625 C 64.359375 0.957031 65.671875 -5.515625 66.984375 -12.015625 C 68.847656 -21.179688 70.929688 -30.289062 73.234375 -39.34375 C 75.546875 -48.40625 78.191406 -57.367188 81.171875 -66.234375 C 87.710938 -85.597656 96.835938 -103.597656 108.546875 -120.234375 C 110.191406 -122.097656 111.429688 -122.398438 112.265625 -121.140625 Z M 112.265625 -121.140625 "/></g></g></g><g fill="#ffffff" fill-opacity="1"><g transform="translate(166.620881, 201.690559)"><g><path d="M 18.984375 -14.25 C 19.359375 -15.019531 19.613281 -15.375 19.75 -15.3125 C 19.894531 -15.257812 19.929688 -14.945312 19.859375 -14.375 C 19.785156 -13.8125 19.660156 -13.175781 19.484375 -12.46875 C 19.234375 -11.375 18.789062 -10.109375 18.15625 -8.671875 C 17.519531 -7.234375 16.8125 -5.929688 16.03125 -4.765625 C 14.882812 -3.140625 13.460938 -1.910156 11.765625 -1.078125 C 10.066406 -0.253906 8.53125 -0.0507812 7.15625 -0.46875 C 5.78125 -0.882812 4.984375 -2.1875 4.765625 -4.375 C 4.722656 -6.195312 4.878906 -8.203125 5.234375 -10.390625 C 5.359375 -11.296875 5.488281 -12.1875 5.625 -13.0625 C 5.625 -13.375 5.539062 -13.613281 5.375 -13.78125 C 5.21875 -13.957031 5.015625 -14.023438 4.765625 -13.984375 C 4.585938 -13.984375 4.390625 -13.984375 4.171875 -13.984375 C 3.078125 -13.804688 1.960938 -13.828125 0.828125 -14.046875 C -0.515625 -14.441406 -1.296875 -15.109375 -1.515625 -16.046875 C -1.734375 -16.992188 -1.710938 -18.226562 -1.453125 -19.75 C -1.316406 -20.84375 -0.910156 -21.660156 -0.234375 -22.203125 C 0.441406 -22.753906 1.234375 -22.976562 2.140625 -22.875 C 3.410156 -22.757812 4.023438 -22.273438 3.984375 -21.421875 C 3.941406 -20.566406 3.703125 -19.65625 3.265625 -18.6875 C 2.867188 -17.875 2.660156 -17.191406 2.640625 -16.640625 C 2.628906 -16.097656 3.097656 -15.90625 4.046875 -16.0625 C 4.265625 -16.125 4.503906 -16.195312 4.765625 -16.28125 C 5.117188 -16.414062 5.523438 -16.535156 5.984375 -16.640625 C 6.441406 -16.753906 7.035156 -16.78125 7.765625 -16.71875 C 8.640625 -16.675781 9.21875 -16.273438 9.5 -15.515625 C 9.789062 -14.753906 9.914062 -13.796875 9.875 -12.640625 C 9.832031 -11.492188 9.722656 -10.328125 9.546875 -9.140625 C 9.328125 -7.648438 9.21875 -6.375 9.21875 -5.3125 C 9.21875 -4.25 9.523438 -3.628906 10.140625 -3.453125 C 10.953125 -3.234375 12.164062 -3.972656 13.78125 -5.671875 C 15.40625 -7.367188 17.140625 -10.226562 18.984375 -14.25 Z M 18.984375 -14.25 "/></g></g></g><g fill="#ffffff" fill-opacity="1"><g transform="translate(184.831527, 201.690559)"><g><path d="M 15.4375 -12.078125 C 14.820312 -10.804688 13.773438 -9.394531 12.296875 -7.84375 C 10.828125 -6.300781 9.15625 -5.320312 7.28125 -4.90625 C 5.40625 -4.488281 3.613281 -5.132812 1.90625 -6.84375 C 1.25 -7.59375 0.765625 -8.457031 0.453125 -9.4375 C 0.148438 -10.425781 0.0390625 -11.394531 0.125 -12.34375 C 0.125 -12.601562 0.125 -12.929688 0.125 -13.328125 C 0.125 -14.335938 0.164062 -15.503906 0.25 -16.828125 C 0.34375 -18.160156 0.539062 -19.363281 0.84375 -20.4375 C 1.15625 -21.507812 1.640625 -22.15625 2.296875 -22.375 C 4.179688 -22.851562 5.203125 -22.195312 5.359375 -20.40625 C 5.359375 -19.832031 5.335938 -19.257812 5.296875 -18.6875 C 5.253906 -18.382812 5.234375 -18.109375 5.234375 -17.859375 C 5.191406 -17.023438 5.15625 -16.191406 5.125 -15.359375 C 5.125 -14.703125 5.09375 -14.046875 5.03125 -13.390625 C 4.988281 -10.515625 5.628906 -8.800781 6.953125 -8.25 C 8.285156 -7.707031 9.804688 -8.289062 11.515625 -10 C 13.222656 -11.707031 14.335938 -13.125 14.859375 -14.25 C 15.390625 -15.382812 15.769531 -15.625 16 -14.96875 C 16.238281 -14.3125 16.050781 -13.347656 15.4375 -12.078125 Z M 4.96875 -28.5 C 4.707031 -28.28125 4.394531 -28.140625 4.03125 -28.078125 C 3.664062 -28.023438 3.34375 -28.054688 3.0625 -28.171875 C 2.84375 -28.359375 2.703125 -28.59375 2.640625 -28.875 C 2.585938 -29.164062 2.5625 -29.507812 2.5625 -29.90625 C 2.5625 -29.976562 2.582031 -30.054688 2.625 -30.140625 C 2.65625 -30.492188 2.742188 -30.851562 2.890625 -31.21875 C 3.285156 -32.164062 4.109375 -32.597656 5.359375 -32.515625 C 5.796875 -32.460938 6.132812 -32.285156 6.375 -31.984375 C 6.625 -31.691406 6.679688 -31.34375 6.546875 -30.9375 C 6.242188 -29.96875 5.71875 -29.15625 4.96875 -28.5 Z M 4.96875 -28.5 "/></g></g></g><g fill="#ffffff" fill-opacity="1"><g transform="translate(199.441702, 201.690559)"><g><path d="M 21.84375 -14.3125 C 22.925781 -15.363281 23.394531 -15.625 23.25 -15.09375 C 23.101562 -14.570312 22.503906 -13.617188 21.453125 -12.234375 C 20.398438 -10.859375 19.085938 -9.367188 17.515625 -7.765625 C 15.953125 -6.160156 14.296875 -4.765625 12.546875 -3.578125 C 10.804688 -2.398438 9.15625 -1.765625 7.59375 -1.671875 C 5.664062 -1.671875 4.117188 -2.238281 2.953125 -3.375 C 1.796875 -4.519531 0.96875 -6.03125 0.46875 -7.90625 C -0.0195312 -9.78125 -0.226562 -11.804688 -0.15625 -13.984375 C -0.0507812 -16.421875 0.0390625 -18.859375 0.125 -21.296875 C 0.15625 -22.535156 0.191406 -23.738281 0.234375 -24.90625 C 0.335938 -26.863281 0.410156 -28.828125 0.453125 -30.796875 C 0.484375 -31.410156 0.378906 -31.925781 0.140625 -32.34375 C -0.0859375 -32.757812 -0.507812 -32.988281 -1.125 -33.03125 C -1.820312 -33.070312 -2.695312 -33.09375 -3.75 -33.09375 C -4.664062 -33.09375 -5.445312 -33.09375 -6.09375 -33.09375 C -7.007812 -33.1875 -7.617188 -33.425781 -7.921875 -33.8125 C -8.234375 -34.195312 -7.992188 -34.585938 -7.203125 -34.984375 C -6.648438 -35.203125 -5.976562 -35.320312 -5.1875 -35.34375 C -4.40625 -35.363281 -3.640625 -35.351562 -2.890625 -35.3125 C -2.410156 -35.28125 -1.992188 -35.265625 -1.640625 -35.265625 C -0.460938 -35.265625 0.25 -35.445312 0.5 -35.8125 C 0.757812 -36.175781 0.921875 -36.90625 0.984375 -38 C 1.054688 -39.144531 1.113281 -40.304688 1.15625 -41.484375 C 1.195312 -42.097656 1.25 -42.710938 1.3125 -43.328125 C 1.3125 -44.234375 1.546875 -45.054688 2.015625 -45.796875 C 2.535156 -46.484375 3.191406 -46.75 3.984375 -46.59375 C 4.679688 -46.414062 5.066406 -45.976562 5.140625 -45.28125 C 5.203125 -44.132812 5.234375 -42.976562 5.234375 -41.8125 C 5.273438 -41.15625 5.273438 -40.5 5.234375 -39.84375 C 5.234375 -39.144531 5.253906 -38.421875 5.296875 -37.671875 C 5.253906 -36.640625 5.367188 -35.988281 5.640625 -35.71875 C 5.921875 -35.445312 6.609375 -35.3125 7.703125 -35.3125 C 9.492188 -35.3125 11.257812 -35.3125 13 -35.3125 C 13.789062 -35.3125 16.148438 -35.363281 20.078125 -35.46875 C 24.003906 -35.582031 26.117188 -35.269531 26.421875 -34.53125 C 26.734375 -33.789062 24.253906 -33.359375 18.984375 -33.234375 C 15.785156 -33.054688 13.316406 -32.96875 11.578125 -32.96875 C 10.398438 -33.007812 9.347656 -33.03125 8.421875 -33.03125 C 6.847656 -33.03125 5.878906 -32.753906 5.515625 -32.203125 C 5.148438 -31.660156 4.988281 -30.566406 5.03125 -28.921875 C 4.988281 -27.515625 4.914062 -25.804688 4.8125 -23.796875 C 4.5625 -19.691406 4.4375 -15.507812 4.4375 -11.25 C 4.53125 -8.3125 5.050781 -6.40625 6 -5.53125 C 6.957031 -4.65625 8.195312 -4.488281 9.71875 -5.03125 C 11.25 -5.582031 12.898438 -6.554688 14.671875 -7.953125 C 16.453125 -9.359375 18.21875 -10.863281 19.96875 -12.46875 C 20.34375 -12.96875 20.796875 -13.429688 21.328125 -13.859375 C 21.515625 -14.023438 21.6875 -14.175781 21.84375 -14.3125 Z M 21.84375 -14.3125 "/></g></g></g><g fill="#ffffff" fill-opacity="1"><g transform="translate(220.895748, 201.690559)"><g><path d="M 15.4375 -12.078125 C 14.820312 -10.804688 13.773438 -9.394531 12.296875 -7.84375 C 10.828125 -6.300781 9.15625 -5.320312 7.28125 -4.90625 C 5.40625 -4.488281 3.613281 -5.132812 1.90625 -6.84375 C 1.25 -7.59375 0.765625 -8.457031 0.453125 -9.4375 C 0.148438 -10.425781 0.0390625 -11.394531 0.125 -12.34375 C 0.125 -12.601562 0.125 -12.929688 0.125 -13.328125 C 0.125 -14.335938 0.164062 -15.503906 0.25 -16.828125 C 0.34375 -18.160156 0.539062 -19.363281 0.84375 -20.4375 C 1.15625 -21.507812 1.640625 -22.15625 2.296875 -22.375 C 4.179688 -22.851562 5.203125 -22.195312 5.359375 -20.40625 C 5.359375 -19.832031 5.335938 -19.257812 5.296875 -18.6875 C 5.253906 -18.382812 5.234375 -18.109375 5.234375 -17.859375 C 5.191406 -17.023438 5.15625 -16.191406 5.125 -15.359375 C 5.125 -14.703125 5.09375 -14.046875 5.03125 -13.390625 C 4.988281 -10.515625 5.628906 -8.800781 6.953125 -8.25 C 8.285156 -7.707031 9.804688 -8.289062 11.515625 -10 C 13.222656 -11.707031 14.335938 -13.125 14.859375 -14.25 C 15.390625 -15.382812 15.769531 -15.625 16 -14.96875 C 16.238281 -14.3125 16.050781 -13.347656 15.4375 -12.078125 Z M 4.96875 -28.5 C 4.707031 -28.28125 4.394531 -28.140625 4.03125 -28.078125 C 3.664062 -28.023438 3.34375 -28.054688 3.0625 -28.171875 C 2.84375 -28.359375 2.703125 -28.59375 2.640625 -28.875 C 2.585938 -29.164062 2.5625 -29.507812 2.5625 -29.90625 C 2.5625 -29.976562 2.582031 -30.054688 2.625 -30.140625 C 2.65625 -30.492188 2.742188 -30.851562 2.890625 -31.21875 C 3.285156 -32.164062 4.109375 -32.597656 5.359375 -32.515625 C 5.796875 -32.460938 6.132812 -32.285156 6.375 -31.984375 C 6.625 -31.691406 6.679688 -31.34375 6.546875 -30.9375 C 6.242188 -29.96875 5.71875 -29.15625 4.96875 -28.5 Z M 4.96875 -28.5 "/></g></g></g><g fill="#ffffff" fill-opacity="1"><g transform="translate(235.505923, 201.690559)"><g><path d="M 24.59375 -11.453125 C 26.125 -13.867188 27.035156 -15.40625 27.328125 -16.0625 C 27.617188 -16.71875 27.847656 -16.6875 28.015625 -15.96875 C 28.179688 -15.257812 27.6875 -13.648438 26.53125 -11.140625 C 25.382812 -8.628906 23.957031 -6.691406 22.25 -5.328125 C 20.550781 -3.972656 18.960938 -3.472656 17.484375 -3.828125 C 16.003906 -4.191406 14.945312 -5.222656 14.3125 -6.921875 C 13.675781 -8.617188 13.488281 -10.753906 13.75 -13.328125 C 13.75 -13.367188 13.769531 -13.476562 13.8125 -13.65625 C 13.84375 -14.09375 13.910156 -14.738281 14.015625 -15.59375 C 14.128906 -16.445312 14.210938 -17.328125 14.265625 -18.234375 C 14.316406 -19.148438 14.285156 -19.90625 14.171875 -20.5 C 14.066406 -21.09375 13.796875 -21.300781 13.359375 -21.125 C 12.304688 -20.550781 11.28125 -19.425781 10.28125 -17.75 C 9.28125 -16.070312 8.375 -14.316406 7.5625 -12.484375 C 6.75 -10.648438 6.171875 -9.164062 5.828125 -8.03125 C 5.691406 -7.675781 5.5625 -7.300781 5.4375 -6.90625 C 5.257812 -6.382812 5.0625 -5.867188 4.84375 -5.359375 C 4.269531 -3.867188 3.269531 -3.289062 1.84375 -3.625 C 1.050781 -3.800781 0.585938 -4.289062 0.453125 -5.09375 C 0.410156 -5.707031 0.390625 -6.289062 0.390625 -6.84375 C 0.390625 -7.195312 0.367188 -7.523438 0.328125 -7.828125 C 0.242188 -12.234375 0.132812 -16.664062 0 -21.125 C 0.0390625 -21.644531 0.269531 -22.003906 0.6875 -22.203125 C 1.101562 -22.398438 1.597656 -22.5 2.171875 -22.5 C 2.609375 -22.5 3.019531 -22.378906 3.40625 -22.140625 C 3.789062 -21.898438 4.035156 -21.40625 4.140625 -20.65625 C 4.179688 -20.394531 4.203125 -20.132812 4.203125 -19.875 C 4.234375 -19.738281 4.25 -19.609375 4.25 -19.484375 C 4.332031 -18.867188 4.375 -18.34375 4.375 -17.90625 C 4.375 -17.257812 4.414062 -16.816406 4.5 -16.578125 C 4.59375 -16.335938 4.78125 -16.34375 5.0625 -16.59375 C 5.351562 -16.851562 5.828125 -17.472656 6.484375 -18.453125 C 7.617188 -20.191406 9.019531 -21.664062 10.6875 -22.875 C 12.207031 -23.96875 13.878906 -24.425781 15.703125 -24.25 C 17.273438 -24.09375 18.328125 -23.269531 18.859375 -21.78125 C 19.078125 -21.03125 19.1875 -20.269531 19.1875 -19.5 C 19.1875 -18.738281 19.140625 -17.972656 19.046875 -17.203125 C 19.003906 -16.410156 18.941406 -15.597656 18.859375 -14.765625 C 18.804688 -14.503906 18.757812 -14.242188 18.71875 -13.984375 C 18.457031 -11.148438 18.546875 -9.25 18.984375 -8.28125 C 19.421875 -7.320312 20.082031 -7.003906 20.96875 -7.328125 C 21.863281 -7.660156 23.070312 -9.035156 24.59375 -11.453125 Z M 24.59375 -11.453125 "/></g></g></g><g fill="#ffffff" fill-opacity="1"><g transform="translate(261.691166, 201.690559)"><g><path d="M 32.34375 -15.03125 C 32.738281 -15.125 33.070312 -15.15625 33.34375 -15.125 C 33.625 -15.09375 33.78125 -14.992188 33.8125 -14.828125 C 33.84375 -14.660156 33.59375 -14.398438 33.0625 -14.046875 C 32.84375 -13.921875 32.582031 -13.75 32.28125 -13.53125 C 31.226562 -12.78125 30.007812 -11.945312 28.625 -11.03125 C 27.132812 -10.019531 25.78125 -9.09375 24.5625 -8.25 C 23.34375 -7.414062 22.535156 -6.78125 22.140625 -6.34375 C 21.703125 -5.726562 21.425781 -5.054688 21.3125 -4.328125 C 21.207031 -3.609375 21.132812 -2.832031 21.09375 -2 C 21.03125 -1.34375 20.960938 -0.6875 20.890625 -0.03125 C 19.753906 6.988281 17.84375 12.984375 15.15625 17.953125 C 12.46875 22.921875 9.441406 26.878906 6.078125 29.828125 C 2.722656 32.773438 -0.550781 34.695312 -3.75 35.59375 C -6.957031 36.5 -9.660156 36.378906 -11.859375 35.234375 C -14.066406 34.097656 -15.367188 31.941406 -15.765625 28.765625 C -15.984375 26.191406 -15.457031 23.5625 -14.1875 20.875 C -12.914062 18.1875 -11.222656 15.613281 -9.109375 13.15625 C -7.003906 10.695312 -4.769531 8.4375 -2.40625 6.375 C -0.0507812 4.320312 2.128906 2.625 4.140625 1.28125 C 4.691406 0.882812 5.273438 0.488281 5.890625 0.09375 C 8.722656 -1.875 11.609375 -3.769531 14.546875 -5.59375 C 16.410156 -6.644531 17.285156 -8.171875 17.171875 -10.171875 C 17.171875 -10.390625 17.171875 -10.695312 17.171875 -11.09375 C 17.109375 -11.675781 17.078125 -12.289062 17.078125 -12.9375 C 15.953125 -11.15625 14.359375 -9.539062 12.296875 -8.09375 C 10.242188 -6.644531 8.140625 -5.609375 5.984375 -4.984375 C 3.835938 -4.359375 2 -4.390625 0.46875 -5.078125 C -1.050781 -5.773438 -1.84375 -7.394531 -1.90625 -9.9375 C -1.84375 -11.25 -1.46875 -12.445312 -0.78125 -13.53125 C 0.875 -16.445312 3.164062 -18.738281 6.09375 -20.40625 C 7.1875 -21 8.503906 -21.429688 10.046875 -21.703125 C 11.597656 -21.972656 13.09375 -21.953125 14.53125 -21.640625 C 15.96875 -21.335938 17.125 -20.640625 18 -19.546875 C 18.21875 -19.898438 18.535156 -20.128906 18.953125 -20.234375 C 19.367188 -20.347656 19.753906 -20.40625 20.109375 -20.40625 C 20.191406 -20.40625 20.253906 -20.40625 20.296875 -20.40625 C 21.921875 -20.570312 22.679688 -19.832031 22.578125 -18.1875 C 22.546875 -16.988281 22.507812 -15.804688 22.46875 -14.640625 C 22.425781 -13.765625 22.375 -12.910156 22.3125 -12.078125 C 22.375 -11.085938 22.925781 -10.765625 23.96875 -11.109375 C 25.007812 -11.460938 26.273438 -12.054688 27.765625 -12.890625 C 29.460938 -13.878906 30.988281 -14.59375 32.34375 -15.03125 Z M 13.234375 -13.390625 C 15.066406 -15.234375 16.070312 -16.648438 16.25 -17.640625 C 15.8125 -18.429688 15.128906 -18.910156 14.203125 -19.078125 C 13.285156 -19.253906 12.347656 -19.25 11.390625 -19.0625 C 10.441406 -18.875 9.640625 -18.582031 8.984375 -18.1875 C 7.179688 -17.050781 5.859375 -15.675781 5.015625 -14.0625 C 4.171875 -12.445312 3.859375 -11.066406 4.078125 -9.921875 C 4.296875 -8.785156 5.144531 -8.394531 6.625 -8.75 C 8.101562 -9.101562 10.304688 -10.648438 13.234375 -13.390625 Z M 15.703125 -0.359375 C 15.703125 -0.421875 15.722656 -0.46875 15.765625 -0.5 C 15.828125 -0.757812 15.878906 -1.085938 15.921875 -1.484375 C 15.960938 -1.878906 15.945312 -2.207031 15.875 -2.46875 C 15.800781 -2.726562 15.640625 -2.769531 15.390625 -2.59375 C 13.554688 -1.320312 11.640625 0.078125 9.640625 1.609375 C 8.453125 2.484375 7.332031 3.285156 6.28125 4.015625 C 4.8125 5.109375 3.09375 6.523438 1.125 8.265625 C -0.832031 10.015625 -2.753906 11.96875 -4.640625 14.125 C -6.523438 16.289062 -8.078125 18.507812 -9.296875 20.78125 C -10.515625 23.050781 -11.125 25.226562 -11.125 27.3125 C -10.988281 30.289062 -10.15625 32.082031 -8.625 32.6875 C -7.101562 33.289062 -5.1875 32.914062 -2.875 31.5625 C -0.5625 30.21875 1.835938 28.035156 4.328125 25.015625 C 6.816406 22.003906 9.085938 18.34375 11.140625 14.03125 C 13.191406 9.71875 14.710938 4.921875 15.703125 -0.359375 Z M 15.703125 -0.359375 "/></g></g></g></svg>