<svg xmlns="http://www.w3.org/2000/svg" xmlns:xlink="http://www.w3.org/1999/xlink" width="500" zoomAndPan="magnify" viewBox="0 0 375 375" height="500" preserveAspectRatio="xMidYMid meet" xmlns:v="https://vecta.io/nano"><defs><clipPath id="A"><path d="M51.609 210.25h173.234v127.207H51.609zm0 0" clip-rule="nonzero"/></clipPath><path id="B" d="M210.524 132.315c1.082-1.051 1.551-1.312 1.406-.781-.148.523-.746 1.477-1.797 2.859-1.055 1.375-2.367 2.867-3.937 4.469-1.562 1.605-3.219 3-4.969 4.188-1.742 1.18-3.391 1.813-4.953 1.906-1.93 0-3.477-.566-4.641-1.703-1.156-1.145-1.984-2.656-2.484-4.531-.488-1.875-.695-3.898-.625-6.078l.281-7.312.109-3.609.219-5.891c.031-.613-.074-1.129-.312-1.547-.227-.414-.648-.645-1.266-.687l-2.625-.062h-2.344c-.914-.094-1.523-.332-1.828-.719-.312-.383-.07-.773.719-1.172.555-.219 1.227-.336 2.016-.359l2.297.031 1.25.047c1.18 0 1.891-.18 2.141-.547.258-.363.422-1.094.484-2.187l.172-3.484.156-1.844c0-.906.234-1.727.703-2.469.52-.687 1.176-.953 1.969-.797.695.18 1.082.617 1.156 1.313l.094 3.469a16.55 16.55 0 0 1 0 1.969l.063 2.172c-.043 1.031.07 1.684.344 1.953.281.273.969.406 2.063.406h5.297l7.078-.156c3.926-.113 6.039.199 6.344.938.313.742-2.168 1.172-7.437 1.297l-7.406.266-3.156-.062c-1.574 0-2.543.277-2.906.828-.367.543-.527 1.637-.484 3.281l-.219 5.125c-.25 4.105-.375 8.289-.375 12.547.094 2.938.613 4.844 1.563 5.719.957.875 2.195 1.043 3.719.5 1.531-.551 3.18-1.523 4.953-2.922 1.781-1.406 3.547-2.91 5.297-4.516.375-.5.828-.961 1.359-1.391l.516-.453zm0 0"/><path id="C" d="M251.286 132.377c.375-.77.629-1.125.766-1.062.145.055.18.367.109.938a17.48 17.48 0 0 1-.375 1.906c-.25 1.094-.695 2.359-1.328 3.797s-1.344 2.742-2.125 3.906c-1.148 1.625-2.57 2.855-4.266 3.688-1.699.824-3.234 1.027-4.609.609s-2.172-1.719-2.391-3.906c-.043-1.82.113-3.828.469-6.016l.391-2.672c0-.312-.086-.551-.25-.719-.156-.176-.359-.242-.609-.203h-.594a9.45 9.45 0 0 1-3.344-.062c-1.344-.395-2.125-1.062-2.344-2-.219-.945-.195-2.18.063-3.703.137-1.094.543-1.91 1.219-2.453.676-.551 1.469-.773 2.375-.672 1.27.117 1.883.602 1.844 1.453s-.281 1.766-.719 2.734c-.398.813-.605 1.496-.625 2.047-.012.543.457.734 1.406.578l.719-.219c.352-.133.758-.254 1.219-.359.457-.113 1.051-.141 1.781-.078.875.043 1.453.445 1.734 1.203.289.762.414 1.719.375 2.875-.043 1.148-.152 2.313-.328 3.5-.219 1.492-.328 2.766-.328 3.828s.305 1.684.922 1.859c.813.219 2.023-.52 3.641-2.219 1.625-1.695 3.359-4.555 5.203-8.578zm0 0"/><path id="D" d="M200.27 189.613c-.617 1.273-1.664 2.684-3.141 4.234-1.469 1.543-3.141 2.523-5.016 2.938s-3.668-.227-5.375-1.937a7.22 7.22 0 0 1-1.453-2.594c-.305-.988-.414-1.957-.328-2.906v-.984l.125-3.5c.094-1.332.289-2.535.594-3.609.313-1.07.797-1.719 1.453-1.937 1.883-.477 2.906.18 3.063 1.969l-.062 1.719c-.043.305-.062.578-.062.828l-.109 2.5-.094 1.969c-.043 2.875.598 4.59 1.922 5.141 1.332.543 2.852-.039 4.563-1.75s2.82-3.125 3.344-4.25c.531-1.133.91-1.375 1.141-.719.238.656.051 1.621-.562 2.891zm-10.469-16.422c-.262.219-.574.359-.937.422-.367.055-.687.023-.969-.094-.219-.187-.359-.422-.422-.703-.055-.289-.078-.633-.078-1.031 0-.07.02-.148.063-.234a3.75 3.75 0 0 1 .266-1.078c.395-.945 1.219-1.379 2.469-1.297.438.055.773.23 1.016.531.25.293.305.641.172 1.047a5.27 5.27 0 0 1-1.578 2.438zm0 0"/></defs><path fill="#fff" d="M-37.5-37.5h450v450h-450z"/><path d="M-37.5-37.5h450v450h-450z"/><g clip-path="url(#A)"><path fill="#fff" d="M223.68 315.113l-5.961-2.883-3.652-8.844-1.152-.387-23.07-5.961c10.379-4.613 19.992-6.727 20.184-6.727l6.73-1.539-54.215-18.07-.578.191c-1.152.383-29.418 10.574-37.105 27.684-31.914-13.84-57.871-9.996-62.871-9.227-.961.191-1.73.961-1.73 1.922-.191.961.387 1.922 1.348 2.309l8.652 3.652c-8.074 1.535-11.73 4.805-11.73 4.805l.195 1.152c.383 2.887.383 5.387.191 6.539l-5.191.578c-.961.191-1.73.766-1.922 1.73s.191 1.922 1.152 2.305l45.758 23.07 56.523-9.996c.191.191.578.383.961.578 1.73 1.152 4.422 3.074 7.5 2.496 3.27-.574 4.805-2.496 5.766-3.652.77-.961.961-1.152 1.348-1.152 3.074 0 50.18-6.344 52.102-6.535 0 0 1.539-.578 1.73-1.73.383-1.156-.191-1.926-.961-2.309zm-12.305-8.266l2.309 5.574c-8.461 0-32.492.961-43.262 7.691-.383-.195-2.113-.961-2.305-.961 10.574-11.344 37.297-12.305 43.258-12.305zm2.883 9.418l-36.914 4.809c11.344-4.23 30.379-4.809 36.914-4.809zm-14.227-12.687c-10.766 1.152-25.379 4.035-33.836 11.918 3.461-6.727 10.766-11.918 18.262-15.957zm-137.082 6.73c0-.195-.191-.195-.191-.387.191-1.152.191-2.5 0-4.23l37.105 15.574s34.414-8.461 55.371-.578h-.191c-17.496-2.691-49.219 5.578-54.41 7.113l-37.684-17.492zm99.977-35.57l40.184 13.457c-11.922 3.461-36.531 12.5-41.723 29.227-.574-.387-1.539-.961-2.691-1.73-5.574-3.652-16.727-10.383-29.992-15.766 6.344-14.227 29.992-23.648 34.223-25.187zM125.434 303l9.422 4.039c-.578-.191-1.152-.191-1.73-.387-8.844-1.344-16.148-1.73-21.531-1.73-5.77 0-9.422.387-10.77.578L68.91 292.426c10.574-.961 31.723-.574 56.523 10.574zm-25.184 6.344h.574c.195 0 12.305-1.922 31.723 1.156 6.152.961 11.344 2.691 15.574 4.422-19.801-3.848-43.836 1.344-48.062 2.305l-35.184-14.609c3.074-1.348 7.883-2.5 14.418-1.73zm-.961 24.035l-39.414-19.996h.383c5.77 2.5 39.031 18.074 39.223 18.266l.578.383.766-.191c.387 0 30.188-8.461 48.836-7.691-6.73.961-20.766 3.461-50.371 9.23zm67.289-9.039c-.961 1.156-1.73 1.926-3.461 2.309-1.539.191-3.27-.961-4.613-1.922-.383-.387-.77-.578-1.152-.77.191-.191.574-.383.77-.578.574-.383 2.496-1.73 4.613-1.73 2.691 0 4.805 1.348 4.996 1.348-.383.383-.766.961-1.152 1.344zm-89.016-59.023l8.266-4.422 8.27 4.422-1.539-9.227 6.73-6.535-9.23-1.348-4.035-8.266-4.039 8.266-9.227 1.348 6.727 6.535zm6.73-13.457l1.535-3.074 1.539 3.074 3.461.578-2.5 2.5.578 3.461-3.078-1.73-3.266 1.73.574-3.461-2.496-2.5zm19.418 27.879l1.73 9.035 6.152-6.922 9.227 1.156-4.805-8.078 3.844-8.457-9.035 2.113-6.73-6.344-.961 9.227-8.074 4.617zm3.266-5.961l.387-3.461 2.5 2.309 3.461-.77-1.539 3.27 1.73 3.074-3.461-.383-2.309 2.691-.77-3.461-3.266-1.348zm50.566-45.949l4.422 8.074 3.844-8.461 9.23-1.727-6.922-6.152 1.152-9.23-8.074 4.613-8.461-4.035 1.926 9.035-6.348 6.73zm.578-9.996l3.266 1.535 3.078-1.73-.387 3.461 2.691 2.309-3.461.578-1.344 3.266-1.73-3.074-3.461-.387 2.5-2.5zM118.32 251.09c2.691 0 5-2.305 5-4.996s-2.309-5-5-5-4.996 2.113-4.996 5 2.305 4.996 4.996 4.996zm0-6.344c.578 0 1.156.578 1.156 1.152s-.578 1.156-1.156 1.156-1.152-.387-1.152-.961c0-.77.578-1.348 1.152-1.348zm39.031 8.652c-2.691 0-5 2.309-5 5s2.309 4.996 5 4.996 4.996-2.305 4.996-4.996-2.113-5-4.996-5zm0 6.152c-.578 0-1.156-.578-1.156-1.152s.578-1.156 1.156-1.156 1.152.578 1.152 1.156c0 .766-.383 1.152-1.152 1.152zm23.84-12.113c3.266 0 5.957-2.691 5.957-5.961s-2.691-5.957-5.957-5.957-6.152 2.691-6.152 5.957 2.691 5.961 6.152 5.961zm0-8.266c1.152 0 2.113.961 2.113 2.113a2.14 2.14 0 0 1-2.113 2.117c-1.156 0-2.309-.965-2.309-2.117s.961-2.113 2.309-2.113zm0 0"/></g><g fill="#fff"><path d="M221.735 34.846c5.813 5.336 7.535 11.766 5.172 19.297-.437 1.313-.98 2.586-1.625 3.813-1.219 2.188-2.609 4.242-4.172 6.156a75.37 75.37 0 0 1-4.937 5.484c-1.18 1.23-2.547 1.648-4.109 1.25-.437-.039-.727-.258-.859-.656-.086-.395.023-.723.328-.984 2.832-2.738 5.32-5.773 7.469-9.109a23.52 23.52 0 0 0 3.328-7.203c1.707-6.977-.211-12.727-5.75-17.25a23.55 23.55 0 0 0-8.766-4.344 52.44 52.44 0 0 0-9.203-1.594 61.32 61.32 0 0 0-9.281-.047c-4.742.281-9.449.836-14.125 1.656-4.668.824-9.312 1.797-13.937 2.922a162.18 162.18 0 0 0-17.75 5.484c-5.805 2.156-11.43 4.727-16.875 7.703a77.62 77.62 0 0 0-14.672 10.203c-4.012 3.531-7.305 7.656-9.875 12.375-3.312 6.273-3.039 12.383.828 18.328 2.457 3.574 5.383 6.742 8.781 9.5a131.92 131.92 0 0 0 16.688 11.781l14.797 8.75 9.75 5.719a159.97 159.97 0 0 1 6.813 4.172c2.227 1.438 4.391 2.992 6.484 4.656 1.27 1.055 2.672 1.313 4.203.781 5.238-1.531 10.555-2.625 15.953-3.281.176 0 .352-.02.531-.062a9.92 9.92 0 0 1 3.594 0c.301.086.563.227.781.422s.328.496.328.891-.121.695-.359.891a1.24 1.24 0 0 1-.812.297c-1.875.043-3.711.242-5.5.594a99.83 99.83 0 0 0-5.297 1.172c-1.406.355-2.781.664-4.125.922a18.56 18.56 0 0 1-.516.109c-.656.105-1.305.266-1.937.484a4.57 4.57 0 0 0-1.656.984c.332.867.805 1.578 1.422 2.141a32.16 32.16 0 0 1 .781.984c1.082 1.449 2.031 2.949 2.844 4.5.82 1.543 1.43 3.18 1.828 4.922.945 4.508-.523 7.984-4.406 10.422-1.312.77-2.684 1.422-4.109 1.953-5.086 1.832-10.305 2.598-15.656 2.297-2.105-.137-4.07-.664-5.891-1.578-2.5-1.312-4.141-3.152-4.922-5.516-.781-2.355-.559-4.793.672-7.312a13.81 13.81 0 0 1 3.266-4.187c1.707-1.531 3.531-2.895 5.469-4.094s3.938-2.301 6-3.312l2.547-1.312 1.313-.656c.039-.477-.039-.844-.234-1.094-.199-.258-.43-.477-.687-.656a.68.68 0 0 1-.266-.219c-3.531-2.695-7.219-5.156-11.062-7.375l-14.078-8.187-5.891-3.469c-6.805-3.926-13.352-8.242-19.641-12.953-3.887-2.895-7.398-6.164-10.531-9.812a30.77 30.77 0 0 1-3.875-6.109c-2.219-4.656-2.437-9.453-.656-14.391.914-2.539 2.133-4.883 3.656-7.031 1.531-2.156 3.219-4.195 5.063-6.125 4.113-4.238 8.648-7.859 13.609-10.859 8.25-5.082 16.957-9.148 26.125-12.203 11.438-3.82 23.129-6.547 35.078-8.172 4.145-.562 8.301-.895 12.469-1a67.93 67.93 0 0 1 12.484.813c2.477.336 4.883.855 7.219 1.563a29.59 29.59 0 0 1 6.719 3.016c1.301.836 2.52 1.75 3.656 2.75zm-54.656 104.875c-.699-.707-1.508-.816-2.422-.328a63.3 63.3 0 0 0-6.703 3.484c-2.156 1.293-4.215 2.75-6.172 4.375a12.28 12.28 0 0 0-2.625 3.188c-1.305 2.5-1.445 4.813-.422 6.938 1.02 2.133 2.906 3.453 5.656 3.953l1.766.172h.438c4.207-.117 8.031-.969 11.469-2.562 4.281-1.824 5.836-4.984 4.672-9.484-.5-1.867-1.246-3.594-2.234-5.187a30.11 30.11 0 0 0-3.422-4.547zm0 0"/><use xlink:href="#B"/><path d="M232.993 130.346c.289-.289.445.074.469 1.094s-.906 2.449-2.781 4.281-3.812 2.703-5.812 2.609c-.437-.039-.812-.004-1.125.109-.305.105-.562.355-.781.75-.219.355-.48.684-.781.984l-.062.063c-1.23 1.305-2.672 2.164-4.328 2.578s-3.23.293-4.719-.375c-1.48-.676-2.547-1.957-3.203-3.844-.477-1.707-.52-3.406-.125-5.094.344-1.488.891-2.883 1.641-4.187.914-1.75 2.102-2.984 3.563-3.703 1.457-.727 3.109-1.133 4.953-1.219 2.727-.133 4.453 1.156 5.172 3.875a11.68 11.68 0 0 1 .328 4.766l-.203 1.125-.219.781c-.074.867.305 1.262 1.141 1.188 2.301-.395 4.594-2.32 6.875-5.781zm-16.187 10.156c1.406-.656 2.383-1.77 2.938-3.344-2.344-1.477-3.914-3.617-4.703-6.422-.73 1.313-1.18 2.844-1.344 4.594-.156 1.742.016 3.184.516 4.328.508 1.137 1.375 1.418 2.594.844zm4.016-6.437c.375-.551.594-1.234.656-2.047.07-.812.035-1.617-.109-2.422s-.355-1.43-.625-1.891-.555-.598-.844-.422c-.543.48-.844 1.168-.906 2.063-.055.887.082 1.777.406 2.672.332.898.805 1.578 1.422 2.047zm0 0"/><use xlink:href="#C"/><path d="M284.107 131.596c.695.043.816.391.359 1.047s-1.234 1.484-2.328 2.484l-3.531 3.141-4.141 3.75c-1.168.992-2.117 2.371-2.844 4.141-.719 1.758-1.078 3.383-1.078 4.875v2.828l-.016 8.016-.516 9.688c-.305 3.332-.855 6.457-1.656 9.375-.805 2.926-1.949 5.316-3.437 7.172-1.492 1.863-3.387 2.883-5.687 3.063-4.43.113-7.465-1.727-9.109-5.516-1.27-3.187-1.695-6.461-1.281-9.812s1.355-6.633 2.813-9.828c1.457-3.187 3.102-6.121 4.938-8.797 1.844-2.68 3.57-4.93 5.188-6.75 1.613-1.812 2.77-3.027 3.469-3.641.289-.988.461-2.133.516-3.437a54.03 54.03 0 0 0 .016-3.812c-.062-.395-.094-.742-.094-1.047-.875 1.355-1.781 2.305-2.719 2.844-.93.543-1.867.84-2.812.891a14.24 14.24 0 0 1-2.641-.078h-.25c-1.918-.25-3.434-1.148-4.547-2.703s-1.84-3.316-2.172-5.297c-.32-1.977-.234-3.754.266-5.328.5-1.582 1.398-2.504 2.703-2.766.539-.133 1.133-.203 1.781-.203.656 0 1.203.09 1.641.266s.586.508.453.984c-.398 1.625-.625 3.387-.687 5.281s.098 3.543.484 4.938c.395 1.398 1.094 2.152 2.094 2.266 1 .105 2.332-.805 4-2.734.789-1.008 1.332-2.047 1.625-3.109a26.89 26.89 0 0 0 .719-3.437 8.59 8.59 0 0 1 .219-1.297 16.76 16.76 0 0 1 .172-1.312l.203-1.703c.219-.906.727-1.535 1.531-1.891.813-.363 1.68-.328 2.609.109.477.281.754.68.828 1.188.102 1.012.156 2.012.156 3l-.094 13.047c.063-.039.5-.41 1.313-1.109 1.051-.969 2.383-2.125 4-3.469a106.2 106.2 0 0 1 4.578-3.641c1.445-1.07 2.438-1.629 2.969-1.672zm-19.406 30.234a12.06 12.06 0 0 1 .094-1.484l.172-5.719c0-.074-.031-.18-.094-.312a.62.62 0 0 0-.219-.281c-.219-.156-.406-.184-.562-.078-.148.113-.289.227-.422.344-1.824 2.363-3.547 5.035-5.172 8.016a45.67 45.67 0 0 0-3.797 9.328c-.906 3.238-1.281 6.406-1.125 9.5a10.54 10.54 0 0 0 1.844 5.297c1.313 1.801 2.457 2.445 3.438 1.938.977-.5 1.805-1.746 2.484-3.734.676-1.98 1.234-4.312 1.672-7a110.62 110.62 0 0 0 1-7.891l.578-6.406.109-1.516zm-70.648-81.28c.832 1.262.086 3.664-2.234 7.203-11.781 18.055-20.746 37.496-26.891 58.328a437.25 437.25 0 0 0-7.047 26.219 707.16 707.16 0 0 0-5.719 26.469l-5.953 29.188c-.836 3.938-1.93 7.797-3.281 11.578a28.89 28.89 0 0 1-1.359 3.047 9.85 9.85 0 0 1-.328.703c-.437.875-1.074 1.531-1.906 1.969a5.68 5.68 0 0 1-2.672.656h-.156c-1.93-.043-3.477-.789-4.641-2.234a25.97 25.97 0 0 1-3.219-5.625 74.6 74.6 0 0 1-3.656-12.906c-1.492-7.242-2.562-14.523-3.219-21.844a698.07 698.07 0 0 1-2.547-34.187c0-.258-.043-.566-.125-.922-.043-.219-.086-.457-.125-.719-.398.531-.672 1.039-.828 1.516a10.31 10.31 0 0 0-.359 1.438c-.043.18-.078.355-.109.531l-3.422 14.266a227.04 227.04 0 0 1-4 14.141 67.68 67.68 0 0 1-4.125 10.391 31.6 31.6 0 0 1-3.062 4.734c-.961 1.125-2.184 1.867-3.672 2.234-1.48.375-2.945.25-4.391-.375-1.437-.625-2.574-1.859-3.406-3.703a57.86 57.86 0 0 1-2.344-7.328 143.86 143.86 0 0 1-2.562-14.281 372.9 372.9 0 0 1-3.203-33.328 155.74 155.74 0 0 1 .469-21.594c.082-.988.25-1.973.5-2.953.395-1.031 1.18-1.504 2.359-1.422 1.27 0 1.906.617 1.906 1.844a187.56 187.56 0 0 1-.328 8.688 156.9 156.9 0 0 0-.062 13.688 286.26 286.26 0 0 0 .859 13.688 395.82 395.82 0 0 0 1.766 16.219c.395 3.555.875 7.086 1.438 10.594s1.301 6.988 2.219 10.438c.469 1.75 1.082 3.426 1.844 5.031.438 1.008.863 1.523 1.281 1.547s.953-.43 1.609-1.344a28 28 0 0 0 1.547-2.5 35.93 35.93 0 0 0 2.375-4.937 86.92 86.92 0 0 0 1.813-5.141 207.27 207.27 0 0 0 4.094-14.156l3.438-14.437.531-2.297a293.04 293.04 0 0 1 2.688-10.203 30.82 30.82 0 0 1 .594-2.172c.289-1.094.676-2.164 1.156-3.219.531-1.051 1.43-1.594 2.703-1.625 1.031-.082 1.816.07 2.359.453.551.387.895 1.125 1.031 2.219.219 1.75.348 3.527.391 5.328a463.7 463.7 0 0 0 1.313 26.953 45.45 45.45 0 0 1 .203 2.625l1.156 13.656a216.34 216.34 0 0 0 1.734 13.563 143.29 143.29 0 0 0 1.75 9.594 86.77 86.77 0 0 0 2.625 9.391.3.3 0 0 0 .063.156 32.41 32.41 0 0 0 1.234 3.297 11.77 11.77 0 0 0 1.906 2.969c.438-.094.738-.273.906-.531.176-.262.313-.516.406-.766a1.28 1.28 0 0 1 .125-.328c1.488-3.898 2.648-7.875 3.484-11.937l3.859-18.984 3.938-19.422a576.23 576.23 0 0 1 6.25-27.328c2.313-9.062 4.957-18.023 7.938-26.891 6.539-19.363 15.664-37.363 27.375-54 1.645-1.863 2.883-2.164 3.719-.906zm0 0"/><use xlink:href="#C" x="-65.681" y="55.064"/><use xlink:href="#D"/><use xlink:href="#B" x="10.762" y="55.064"/><use xlink:href="#D" x="36.064"/><path d="M260.1 190.238l2.734-4.609c.289-.656.52-.625.688.094.164.711-.328 2.32-1.484 4.828-1.148 2.512-2.574 4.449-4.281 5.813-1.699 1.355-3.289 1.855-4.766 1.5-1.48-.363-2.539-1.395-3.172-3.094s-.824-3.832-.562-6.406a2.09 2.09 0 0 1 .063-.328l.203-1.937.25-2.641c.051-.914.02-1.672-.094-2.266-.105-.594-.375-.801-.812-.625-1.055.574-2.078 1.699-3.078 3.375a49.54 49.54 0 0 0-2.719 5.266l-1.734 4.453-.391 1.125-.594 1.547c-.574 1.492-1.574 2.07-3 1.734-.793-.176-1.258-.664-1.391-1.469l-.062-1.75a7.73 7.73 0 0 0-.062-.984l-.328-13.297c.039-.52.27-.879.688-1.078s.91-.297 1.484-.297c.438 0 .848.121 1.234.359s.629.734.734 1.484c.039.262.063.523.063.781.031.137.047.266.047.391.082.617.125 1.141.125 1.578 0 .648.039 1.09.125 1.328.094.242.281.234.563-.016.289-.258.766-.879 1.422-1.859 1.133-1.738 2.535-3.211 4.203-4.422a7.15 7.15 0 0 1 5.016-1.375c1.57.156 2.625.98 3.156 2.469.219.75.328 1.512.328 2.281 0 .762-.047 1.527-.141 2.297a55.41 55.41 0 0 1-.187 2.438l-.141.781c-.262 2.836-.172 4.734.266 5.703.438.961 1.098 1.277 1.984.953.895-.332 2.102-1.707 3.625-4.125zm0 0"/><path d="M294.035 186.66c.395-.094.727-.125 1-.094.281.031.438.133.469.297s-.219.43-.75.781a8.76 8.76 0 0 0-.781.516l-3.656 2.5-4.062 2.781c-1.219.836-2.027 1.469-2.422 1.906a4.7 4.7 0 0 0-.828 2.016c-.105.719-.18 1.496-.219 2.328l-.203 1.969c-1.137 7.02-3.047 13.016-5.734 17.984s-5.715 8.926-9.078 11.875c-3.355 2.945-6.629 4.867-9.828 5.766-3.207.906-5.91.785-8.109-.359-2.207-1.137-3.508-3.293-3.906-6.469-.219-2.574.309-5.203 1.578-7.891s2.965-5.262 5.078-7.719c2.105-2.461 4.34-4.719 6.703-6.781 2.355-2.055 4.535-3.75 6.547-5.094a36.79 36.79 0 0 1 1.75-1.187c2.832-1.969 5.719-3.863 8.656-5.687 1.863-1.051 2.738-2.578 2.625-4.578v-.922a17.27 17.27 0 0 1-.094-1.844c-1.125 1.781-2.719 3.398-4.781 4.844-2.055 1.449-4.156 2.484-6.312 3.109-2.148.625-3.984.594-5.516-.094-1.52-.695-2.312-2.316-2.375-4.859a7.24 7.24 0 0 1 1.125-3.594 18.02 18.02 0 0 1 6.875-6.875c1.094-.594 2.41-1.023 3.953-1.297 1.551-.27 3.047-.25 4.484.063 1.438.305 2.594 1 3.469 2.094.219-.352.535-.582.953-.687.414-.113.801-.172 1.156-.172h.188c1.625-.164 2.383.574 2.281 2.219l-.109 3.547-.156 2.563c.063.992.613 1.313 1.656.969 1.039-.352 2.305-.945 3.797-1.781 1.695-.988 3.223-1.703 4.578-2.141zm-19.109 1.641c1.832-1.844 2.836-3.258 3.016-4.25-.437-.789-1.121-1.27-2.047-1.437a7.33 7.33 0 0 0-2.812.016c-.949.188-1.75.48-2.406.875-1.805 1.137-3.125 2.512-3.969 4.125s-1.156 2.996-.937 4.141c.219 1.137 1.066 1.527 2.547 1.172s3.68-1.898 6.609-4.641zm2.469 13.031c0-.062.02-.109.063-.141.063-.258.113-.586.156-.984s.023-.723-.047-.984-.234-.301-.484-.125a151.79 151.79 0 0 0-5.75 4.203l-3.359 2.406c-1.469 1.094-3.187 2.508-5.156 4.25-1.957 1.75-3.879 3.703-5.766 5.859-1.883 2.164-3.437 4.383-4.656 6.656s-1.828 4.445-1.828 6.531c.137 2.977.969 4.77 2.5 5.375 1.523.602 3.438.227 5.75-1.125 2.313-1.344 4.711-3.527 7.203-6.547 2.488-3.012 4.758-6.672 6.813-10.984s3.57-9.109 4.563-14.391zm0 0"/></g></svg>