<svg xmlns="http://www.w3.org/2000/svg" xmlns:xlink="http://www.w3.org/1999/xlink" width="500" zoomAndPan="magnify" viewBox="0 0 375 375" height="500" preserveAspectRatio="xMidYMid meet" xmlns:v="https://vecta.io/nano"><defs><clipPath id="A"><path d="M67.211 37.5H307.77v233.813H67.211zm0 0" clip-rule="nonzero"/></clipPath><path id="B" d="M171.011 311.809h-13.25v-5.16h12.109v-5.316h-12.109v-5.086h12.871v-5.316h-19.703v26.195h20.082zm0 0"/></defs><path fill="#fff" d="M-37.5-37.5h450v450h-450z"/><path d="M-37.5-37.5h450v450h-450z"/><g fill="#fff"><path d="M106.336 187.453c-2.609.465-5.691 1.172-7.25 3.395 2.082-1.645 4.84-1.816 7.414-2.043 9.73-.676 16.262 2.465 22.688 5.25-6.344-5.211-14.434-8.039-22.852-6.602m40.078-78.289c-2.633-1.934-5.91-2.707-7.996-5.234l-3.762-4.141c-1.52-1.812-4.055-3.027-6.457-2.945 1.313.75 2.617 1.449 3.656 2.473 1.035.988 1.883 2.238 2.918 3.277 2.914 3.105 3.492 4.18 7.254 5.852 2.316 1.16 5.879 2.375 5.816 5.289-.168 2.895-3.008 4.871-5.734 5.824 5.887-1.219 7.75-5.199 6.418-8.066 2.293 1.93 4.555 4.266 5.75 6.93.707 1.59 1.516 3.234 3.34 3.949-.793-2.473-1.418-4.801-2.996-6.937-2.039-2.586-4.945-5.02-8.207-6.27m-62.91 54.097c.422 4.047 1.473 8.082 3.328 11.77 1.996 4.164 4.926 7.117 9.992 7.41-4.254-4.266-6.73-.797-13.32-19.18m53.414 25.242c.098.242.184.527.375.746 3.117 3.242 8.539-2.16 10.695-4.281 2.945-2.922 5.324-6.281 7.828-9.535-4.445 3.613-13.109 13.805-17.488 13.539-.461 0-.891-.223-1.41-.469"/><path d="M119.621 111.695c.422.836.563 1.781.273 2.777 2.004-4.316-4.129-8.379-8.211-6.59-2.039.824-4.75 3.199-3.59 5.563 1.707 2.48 5.039.938 8.676 1.59 1.762.031 3.102-1.68 2.852-3.34m23.863 3.496c-2.039-3.961-10.797-6.457-15.043-4.992-1.574.543-2.844 1.926-3.094 3.512-.32 1.723.938 3.133 2.766 3.047-1.852-.742-2.074-2.191-1.059-3.547.352 1.18 3.063 2.273 4.008 2.75 3.988 1.801 4.422 1.332 8.48 1.438 2.219.012 2.367.109 3.098-.109 1.008-.305 1.242-1.344.844-2.098m-23.148 2.421c-1.234 2-1.906 4.684-.25 6.734 1.625 2.012 5.445 1.703 6.063-.715-1.344.023-2.148.238-2.961.289-3.277.004-3.074-4-2.852-6.309M179.461 87c3.816 3.297 4.684 8.539 3.438 13.105 0 .016-.004.031-.008.047-.152-.895-.359-1.801-.727-2.676-.746-1.914-2.402-3.703-4.535-4.164 3.875 2.375 3.797 6.629 4.219 8.637-.754-.937-1.941-1.773-3.344-2.508-.793-1.645-1.863-3.746-2.629-4.414-3.391-2.93-9.594-3.75-12.727-2.707-4.875 1.629-5.266 6.086-9.684 6.977-.047.008.473.223 1.043.227 3.922-.027 5.758-2.109 10.445-2.051 2.426.25 5.176.93 7.609 1.527 3.699 1.055 7.742 2.246 10.129 5.328.027-.355-.02-.699-.117-1.035 4.16-2.652 3.672-13.238-3.113-16.293"/><path d="M156.66 94.172c.375-.922.477-1.965.785-2.84.793-2.469 7.656-5.453 14.406-5.937-4.945-.75-12.543.523-15.711 4.535-.922 1.516-.902 3.43-1.641 4.934-.34.82-.887 1.59-1.484 2.492 1.66-.332 3.074-1.656 3.645-3.184m-39.172-1.629c1.352-11.832-10.574-19.156-16.875-15.844.668.184 3.77.598 6.324 1.48 6.438 2.238 9.855 8.102 10.551 14.363m-32.652-1.429c1.922-4.445 6.773-7.102 11.348-9.105-4.406.184-12.074 2.953-11.727 8.039a3.26 3.26 0 0 0 .379 1.066m96.871-16.152c7.637 4.945 13.41 14.973 14.063 20.047 2.184-3.066-.086-6.715-1.773-9.473-2.973-4.437-6.98-8.715-12.289-10.574m-8.009 7.277c-6.5-3.332-20.168.113-19.09 5.984 3.973-5.109 12.723-7.203 19.09-5.984m-48.504-27.773c5.777 1.348 7.223 4.551 8.578 9.66 1.441-5.547-2.133-10.859-8.477-10.516-2.719.227-2.695.18-.102.855m37.447 3.411c6.012.848 12.043 2.254 17.531 4.77 2.707 1.234 5.133 3.012 7.352 4.922 4.527 3.906 7.785 8.824 9.277 14.523.215-9.27-7.832-17.406-16.258-21.133-1.844-1.496-3.762-2.883-6.062-3.812-7.66-3.312-16.32-5.648-24.793-5.008 7.586.496 16.516 3.203 23.254 6.215-3.316-.855-6.723-1.418-10.133-1.809-9.805-.906-20.27-.156-22.762 10.707 3.246-10.375 13.016-10.48 22.594-9.375"/></g><g clip-path="url(#A)"><path fill="#fff" d="M83.805 132.879a13.77 13.77 0 0 0 2.375 3.023c3.52 3.379 4.77 13.688 6.32 17.66 2.086 5.336 3.23 11.461 7.281 15.039 3.543 3.125 10.941 2.883 15.418 3.688 9.164 1.645 19.551 5.773 27.863-3.59 2.648-2.98 6.426-8.898 10.617-13.016 4.16-4.086 10.227-10.191 15.387-14.539-2.863 2.82-5.766 7.082-8.695 10.695-1.836 2.32-3.973 4.465-5.707 6.848-12.141 16.32-15.695 23.012-23.66 25.098-4.078 1.105-9.105-.121-13.293-.738-7.594-1.156-18.02-.699-21.512-8.602-5.152-11.801-6.734-31.91-12.562-38.105.094-1 .234-2.391.168-3.461zm-5.219-35.871c-1.156.363-2.293 1.035-3.258 1.773 4.914-6.703 5.66-13.641 6.727-17.703 1.332-5.125 2.895-10.504 6.852-14.371 3.41-2.973 9.168-3.633 13.645-3.398 2.57.199 5.207.785 7.242 2.566-1.418-2.375-4.324-3.562-7.051-4.016-4.844-.727-10.238.168-14.262 2.934a16.13 16.13 0 0 0-1.25 1.164c5.758-8.668 11.637-10.273 22.648-11.422 3.535-.402 7.078-.656 10.664-.551-5.039-.832-10.199-.586-15.281-.187 3.738-1.687 7.102-4.664 20.285-4.996-7.031-1.527-17.66-.437-22.562 5.219-4.852.633-9.605 2.527-13.102 5.84 5-8.801 12.008-16.219 22.043-19.621 10.258-3.566 20.066 1.473 33.641 1.074 20.637-1.07 45.738 7.133 54.563 24.207 5.27 10.813 3.004 26.066 3.148 35.195.059 4.801 1.586 9.426 1.898 14.125-2.082.57-4.102 1.328-5.977 2.309-.43-.418-.914-.82-1.477-1.191.379.457.727.934 1.023 1.426-7.156 3.941-9.598 9.922-11.516 17.859-1.988.098-4.016-.121-5.867-.578-4.18-1.453-10.285-6.484-13.184-9.883-2.48-2.848-4.906-6.625-8.539-8.242 3.594 1.938 5.82 6.438 9.066 10.262 2.77 5.363 7.918 8.348 5.434 19.449-2.543 10.324-11.641 15.84-15.523 25.031 13.395-14.07 17.352-20.453 17.504-29.34l-.113-2.098c-.242-5.367-4.145-9.055-6.336-11.98 2.797 2.883 8.234 7.629 12.25 8.512 1.566.293 3.25.48 4.934.477-.887 3.965-1.535 7.969-2.133 11.98-1.055 9.387-5.961 17.68-7.949 26.746-2.66 5.723-5.535 11.332-9.277 16.5-8.898 12.191-22.48 20.902-37.344 15.949-2.324-.824-4.832-1.676-7.273-2.285-21.93-5.664-32.121 4.68-40.797-10.484-2.32-4.129-3.895-8.789-5.5-13.215-1.988-6.863-2.441-14.082-3.074-21.187-2.18-27.316-1.402-30.687-3.32-40.336 3.363 2.145 8.797 1.844 12.922-.051-1.437 1.625-2.383 3.301-2.227 5.941.059 2.02.613 3.98 1.094 5.93.711 4.637-3.82 18.715.938 28.176-1.434-7.707.027-16.773.719-24.105 5.477 6.395 6.398 26.184 11.48 38.453 3.438 8.41 14.395 8.5 22.34 9.68 9.996 1.461 16.914 4.586 28.152-10.574l10.52-14.297c2.691-3.605 5.605-6.828 8.031-10.633 2.082-3.051 4.938-7.918 8.113-10.441-1.047.629-1.992 1.391-2.871 2.223-2.176 1.383-4.641 2.473-5.875 2.613-9.551 1.078-16.344-4.5-22.191-7.5-3.191-1.637-9.035-6.215-12.758-6.242-5.16-.039-6.707 1.059-11.684-.16-4.957-1.215-9.691 1.504-14.598 3.797-5.727 2.676-13.617 4.09-18.809-2.094-.043-.164-.094-.328-.137-.484.285.258.574.508.875.754 2.914 2.574 8.215 2.258 11.668.754 2.23-1.086 10.434-7.457 20.293-9.934-6.172.574-11.98 3.152-17.238 6.18-2.867 1.559-3.836 2.898-7.949 3.113-4.578.203-4.207.012-7.797-1.402-2.121-8.004.789-7.676 5.727-14.27 1.68-2.414 4.594-3.23 7.301-4.312 2.664-1.187 5.203-2.586 7.688-4.062-2.133 3.988.938 8.238 4.824 8.07-1.797-1.738-4.008-3.449-3.687-6.035.148-1.117.836-2.27 1.684-3.09.93-1 2.367-.902 3.629-1.355 1.172-.305 1.945-1.074 2.617-1.941.051.805.422 1.574 1.219 1.984.176-.543.293-1.062.434-1.574.559-3.469 3.828-5.934 7.109-7.203a10.58 10.58 0 0 0-2.062.266c2.742-2.184 4.754-5.168 6.402-8.152 2.02-3.988 4.883-6.066 9.621-4.773 2.09.414 3.652 1.824 5.262 3.102 1.27 1.023.824 2.621 1.387 5.438-1.047-1.121-2.176-2.16-3.473-3.016 2.48 2.383 3.934 5.289 8.539 11.672 2.672 3.535 6.055 9.508 11.484 8.891-4.336-2.203-6.859-5.609-9.652-9.164 5.883 3.07 17.031.918 24.738 4.879 2.855 1.414 5.832 3.191 9.176 3.398-1.156-.684-2.285-1.414-3.418-2.133 4.418-.477 8.133 1.355 11.301 4.246 1.094 1.027 2.148 2.039 3.711 2.875-.324-3.035-3.687-5.469-6.555-6.898-2.687-1.254-6.047-1.578-8.812-.445-6.238-3.937-9.437-5.035-19.262-5.223-3.73-.18-8.145.172-11.527-1.52l-4.652-5.734c-.008-1.242-.094-3.062-.164-4.352-.043-.703.496-1.336 1.293-1.352 4.289-.379 6.945-6.672 9.512-9.133 4.516-4.734 10.59-5.555 16.977-5.949-7.531-.27-13.266.246-18.871 5.52-2.336 1.984-4.004 4.59-6.656 6.18-1.73 1.133-1.617 1.008-2.906 1.41-.418-.73-1.25-1.359-1.871-1.875-3.375-3.184-9.152-4.465-13.121-1.746-.516.355-1.227.289-1.672-.152-2.578-2.566-1.918-6.293-6.672-11.137-1.172-1.219-2.625-2.246-4.473-2.547 2.398 1.996 3.625 3.648 6.102 7.371.984 1.492 2.09 5.262 3.223 6.762 1.281 1.695.547 3.973.137 4.453-.687.801-1.086 1.379-1.621 2.277-1.848 1.875-3.164 3.105-5.516 4.574-.16-.184-.074-.09-.395-.359-.031-.535-.527-1.422-1.184-2.355-1.496-2.121-2.539-3.98-4.852-5.336-4.324-2.543-9.586-3.195-14.043-.887-2.016 1.047-5.297 3.457-6.859 5.566-2.301-.164-4.641 1.531-5.176 4.086 3.883-2.492 3.602-2.32 6.82-3.281a1.91 1.91 0 0 0-.613-.512c1.734-.551 3.559-.781 5.367-.859 6.855-.305 15.949 2.676 19.609 4.719a30.48 30.48 0 0 1-1.113.598c-2.937.629-5.012.289-7.574.188-3.68-.148-7.258 1.082-10.926.836-5.305-.18-9.641-2.887-13.937-.684-2.578 1.219-4.551 3.422-5.984 5.723 1.352-.836 2.582-1.812 3.93-2.645 3.949-2.539 5.859-2.602 10.316-1.543 8.469 1.859 11.168-.469 16.602-.66 2.211-.043 3.703.035 5.809-.355-1.473.676-2.98 1.289-4.488 1.867-1.57.617-3.559.191-4.984 1.199 1.699-.633 3.539.152 5.289-.309-.008.043 6.262-1.449 10.41-4.164a47.38 47.38 0 0 1-1.48 1.883c-2.969 1.156-4.789 3.441-5.148 5.25-.867.809-1.723 1.605-2.977 1.766-1.742.359-3.707-.219-5.809 2.84-9.207 4.742-9.176 3.832-12.641 5.395-2.441.961-3.875 3.074-5.512 4.941-4.777 2.832-13.184 4.605-16.312.563-3.504-5.773 2.734-18.215 8.793-20.898zm135.508 17.934c13.813-1.211 30.059 17.727 51.418 16.844 13.875-.164 21.582-9.227 32.504-6.824 8.016 1.789 8.914 9.965 8.117 16.559-.227 2.238-.773 5.957-.84 6.477-1.422-2.355-3.895-4.004-6.984-3.094 3.355-.437 5.684 1.789 6.547 4.672.25.867.551 1.848.371 2.703-.531 6.789-.383 8.016-2.203 14.059-.211-.871-.719-1.605-1.73-1.918-.18 2.789 1.238 3.691-1.672 9.914 1.422-1.121 1.234-1.48 1.27-1.012 1.328 15.984-1.27 21.707-4.73 27.496-2.508 3.484-6.047 6.121-10.727 6.074 3.121.434 5.973-.602 8.359-2.348-7.816 11.805-13.23 17.988-17.809 26.348.297-2.168.488-4.348.539-6.547.043-2.367-.047-4.93-1.512-6.973 1.047 4.574.363 9.301-.41 13.863-1.973 10.32-5.871 24.457-17.906 27.586-1.703.469-3.426.32-4.812-.82-.512-.336-1.102-.656-1.73-.715 1.824.727 1.895 2.742 5.273 2.848-6.43 7.629-14.098 11.16-24.648 9.254-9.125-1.746-16.691-6.254-23.273-12.039 1.074.086 2.109-.168 2.973-.652-3.184-.203-5.578-1.437-6.055-4.582-.676-4.973 2.422-9.434 5.734-13.07-6.453 4.629-8.098 10.164-7.172 14.004-5.176-5.309-9.742-11.27-14.047-17-6-7.457-10-14.426-10.961-23.926-4.379-38.082 3.844-42.668 7.387-57.699 1.199-4.879 1.676-12.316 4.078-21.121 3.285-12.637 10.66-17.09 24.652-18.359zM71.695 160.984c1.574 18.441 2.109 19.254 5.57 28.441 9.16 23.262 19.297 14.422 37.773 16.82 4.988.598 9.734 1.934 14.438 3.645 10.598 3.555 20.57.809 29.336-5.871 7.48-5.66 12.578-13.187 16.773-21.207-.887 8-.52 16.125.152 24.129 1.07 10.207 1.707 16.836 10.191 27.863 11.383 15.066 24.082 32.234 44.563 36.016 7.582 1.477 15.93-.379 21.605-5.48 2.996-2.555 4.289-4.797 5.156-5.355.289-.059.578-.113.859-.184.383-.043.777-.098 1.082-.305 10.398-3.312 14.66-15.879 16.418-26.211 3.977-7.902 11.324-15.973 18.836-26.918 5.922-8.566 8.113-13.23 8.398-23.695.066-3.328-.238-6.809-1.695-9.879.969-1.223 1.664-2.711 1.902-4.27 3.375-4.023 3.422-10.711 3.488-16.187.102-.559-.066-1.289-.207-1.848.098-.523.988-6.945 1.184-8.84.906-7.316-.336-15.984-9.16-18.016-11.547-2.613-19.078 6.578-32.891 6.719-18.953.738-33.223-14.422-47.141-16.762-3.133-.566-8.223.137-11.137.762-.363-4.629-1.828-9.086-1.898-13.672.016-11.965 1.836-25.16-3.402-35.945-8.168-15.449-27.602-23.125-44.879-24.887-7.535-.707-10.77.016-15.23-.191-12.348-.242-21.176-4.898-32.93.262-9.312 4.086-16.457 12.797-21.051 22.25-1.391 1.879-2.332 4.035-2.691 6.27-.586 1.539-2.359 2.961-4.434 12.355-.781 3.438-1.336 11.48-6.332 18.809-5.035 4.512-8.887 13.254-6.305 18.531 2.285 9.055 1.805 18.434 3.656 42.852"/></g><g fill="#fff"><path d="M149.203 134.848c-3.555-1.629-7.262-3.469-10.008-6.137-3.312-3.395-6.523-3.926-11.16-5.363 2.941 2.465 6.469 3.168 9.82 6.555 4.035 3.969 10.934 6.504 16.316 8.707 6.063 2.473 12.137 3.09 18.098-.012-8.84 3.348-15.23-.09-23.066-3.75m-7.113-51.743c-2.418-4.262-2.977-5.312-3.187-13.285-.937 2.305-1.273 4.797-1.078 7.273.234 2.316 1.102 6.082 4.266 6.012m-12.165-7.156c-.723.777-.871 1.379-1.871 2.031 1.074.953 2.746-.055 3.359-.996 1.887-2.672 2.695-5.863 2.637-9.035-1.223 2.594-2.43 5.699-4.125 8m131.008 175.598a10.46 10.46 0 0 1 .137-.422l-.137.422zm-2.602-17.98a4.4 4.4 0 0 0-3.086.25c2.844.836 4.199 1.336 5.992 6.031.949 2.652 1.078 5.445.613 8.184.16-4.551-2.625-10.594-4.355-10.906-4.801-.871-7.297 2.242-10.898 2.016-2.527-.152-4.453-.887-6.363-1.531-1.246-.797-2.477-1.488-4.129-1.648-.637-.02-1.547-.125-2.176-.109-11.281-.105-18.535 10.242-22.727 15.07 2.184-6.902 8.938-13.602 15.922-16.398 4.555-1.805 9.523-1.18 14.309-.656-12.141-7.187-28.156 5.203-30.234 17.063-.004.031-.02.035.078-.066 4.117-3.793 8.184-7.945 13.594-9.328 5.461-1.395 11.676 1.102 16.648 2.02s5.27 1.113 10.664-.93c4.199-1.586 9.258 3.188 8.602 8.926.215-.273.219-.422.145 0-.02.098 4.402-6.172 1.309-13.484-.73-1.766-1.801-3.887-3.906-4.5"/><path d="M258.57 247.27c-2.633-1.176-4.414 2.23-6.5 3.023-2.562 1.047-5.344 1.875-8.156 1.438-11.762-1.723-19.059-10.273-27.969-2.285 6.027-3.43 10.227-2.41 16.188.383 11.48 5.176 15.801 4.09 20.648 1.777 3.148-1.668 3.594-5.461 6.98-3.414-.328-.363-.707-.699-1.191-.922m-27.144 9.293c5.266-1.84 11.484-1.992 16.207 1.203-2.105-3.891-10.742-6.062-16.207-1.203m1.035-63.254c2.434-3.215 3.699-7.98 3.508-11.652-2.973 10.168-5.812 11.344-7.219 13.914 1.535-.07 2.828-1.059 3.711-2.262m-12.734-13.223c3.73-.504 13.102-6.836 15.879-4.07a2.54 2.54 0 0 0-.187-.25c-4.109-5.484-8.609-3.352-14.543-2.406-5.199.863-10.367 2.844-15.648 2.27-.715-.078-1.109.766-.57 1.215 3.477 2.91 10.277 3.992 15.07 3.242m73.6 1.393c.168-.352-.004-.77-.379-.922-8.465-.172-19.156-11.043-25.883-1.734 4.535-1.117 7.324 1.133 10.898 3.324 4.152 2.586 13.051 4.301 15.363-.668m3.607-4.015c.012-.07.012-.141.012-.207l-.301.148c-3.691 1.973-5.539-2.418-12.742-4.336-5.266-1.398-11.812-1.125-15.82 2.75 4.469-3.102 10.352-2.91 15.395-1.414 4.668 1.375 6.508 3.5 9.578 4.344 1.016.277 1.512 1.574.621 1.965.68.766 1.797-.629 2.48-1.379.93-.043 1.773-.035 2.629-.469-.25-.02-.508-.031-.773-.043-.691-.039-1.156-.668-1.078-1.359"/><path d="M264.23 181.57c8.785-.52 17.664 10.699 26.297 6.551 1.234-.668 2.234-1.629 2.883-2.762-1.195.621-2.305 1.203-3.457 1.57-8.242 2.965-16.758-7.137-25.723-5.359m-26.324-3.832c-3.465-2.629-7.93 1.637-10.773 3.148-3.891 2.051-10.109 3.293-15.852 2.594-6.535-1.52-10.496-6.707-16.676-6.437 5.066.352 8.582 4.141 12.848 6.32 5.313 2.902 14.758 1.793 20.477-1.105 3.5-1.812 6.508-5.656 9.977-4.52m-35.915-4.16c-.594.824-.637 2.051-.504 2.996.652-1.109 1.023-1.875 2.156-2.836 9.277.402 14.527-5.258 27.559-3.082 2.535.43 6.41 1.066 6.207 4.203 2.051-5.926-11.16-6.711-15.07-6.301-9.984.758-18.961 7.93-27.961.07 1.367 2.91 4.402 4.457 7.613 4.949"/><path d="M253.508 174.578c-.68.191-1.648-.531-2.73-1.148-1.039-.621-2.73-1.301-3.812-.355 1.324-.148 2.082.668 2.988 1.414 1.207 1.02 2.262 1.898 3.852 1.629 3.387-.707 6.535.328 8.789-.355-2.695 8.66-.465 19.125-.559 23.293-.023 2.199-.262 4.43-.383 6.719-.336 4.527 1.359 8.992.535 13.371-.461 2.621-2.008 4.879-4.469 6.086-2.305 1.285-5.176 2.141-7.742 1.047-3.461-1.367-5.133-5.18-8.805-6.371-6.957-1.664-8.969-4.344-10.09-8.121-.656-2.551.98-5.902 4.191-5.945 3.566-.031 7.309 1.926 9.355 4.688-1.937-3.25-7.531-6.309-11.246-4.98-6.055-2.285-10.941 4.332-13.742 8.527-3.18 4.66-6.484 9.453-8.023 14.867 2.313-5.031 5.93-9.609 9.238-14.082 3.18-4.297 6.457-8.578 11.969-9.066-2.293 1.156-3.52 4.238-2.609 7.074 1.129 4.379 4.816 6.891 9.25 7.926a23.79 23.79 0 0 1 1.242.332c2.34.797 3.793 2.813 5.605 4.395 4.191 3.883 9.273 3.016 13.676-.059 1.781-1.293 2.867-3.145 3.434-5.156 1.605-1.418 4.582-2.164 5.891-4.098.582 4.277 2.141 10.285.148 18.141 3.203-6.312 2.594-13.734 1.012-20.383l-.242-.777c.066-2.289-1.168-4.535-3.594-5.32 2.512 1.648 3.113 4.836 1.609 7.281-.906 1.453-3.133 1.996-4.41 2.988.43-3.996-.941-8.246-.672-12.285.133-2.492.406-5.035.375-7.562.539.82 1.176 1.594 1.809 2.289 1.973 2.133 4.668 4.246 7.793 4.242-2.871-.832-4.891-2.937-6.637-5.125-2.199-2.664-2.695-4.668-3.34-6.027-.523-5.199-.867-10.469.188-15.617.23-1.105.574-2.187.922-3.27 2.449-2.512.461-8.215 1.051-11.457-1.586 4.246.789 11.441-4.277 11.273-2.379-.129-5.066-.527-7.539-.02m13.343-6.362c4.316 3.129 10.258 2.617 15.234 1.41 6.242-1.652 12.875-8.137 18.047-6.113-.469-.578-1.172-.996-1.945-1.23-4.727-1.305-10.359 3.563-14.523 5.336-4.98 2.016-11.867 3.215-16.812.598m-17.513 67.21c.852-.465 1.191-1.605.762-2.371-.477.438-.82.762-1.145.902-1.008.492-2.254-.055-2.902-.926-.965-1.652-.734-3.727-1.027-5.598-.59 2.031-1.238 4.266-.25 6.313.836 1.449 2.875 2.516 4.563 1.68m-50.657-71.86c.383-.258.742-.609.801-1.223-.832-.207-1.23-.07-1.602.219-1.191.809-2.516 2.332-1.852 3.801.41-1.328 1.535-2.031 2.652-2.797m4.555-17.125c8.441-7.137 13.266-.949 21.035-2.176-9.105-2.777-15.055-5.184-21.891 1.289-2.988 2.84-6.637 7.105-6.434 11.313.441-4.062 4.238-7.785 7.289-10.426"/><path d="M252.266 142.313c3.254 3.645 4.848 8.09 5.852 12.793.496-1.176.574-2.48.453-3.73-.629-5.035-4.117-9.191-7.805-12.645-2.742-2.609-6.211-4.445-9.703-5.941 5.219 3.441 7.172 4.656 11.203 9.523m18.578 6.906c2.133-2.875 5.293-4.805 9.012-5.34-9.051-.73-14.984 9.516-13.59 14.824 1.82-3.203 2.309-6.602 4.578-9.484m6.996 1.715c-1.598 1.879 1.547 3.863 3.43 3.184 2.363-.875 3.52-3.062 5.395-4.437 3.105-2.25 5.879-3.113 8.488-4.07-.937-.383-1.977-.43-2.973-.305-2.652.355-6.211 2.734-7.562 4.25-1.113 1.18-1.891 2.461-3.199 3.395-1.309 1.195-4.645-.039-3.578-2.016m-87.997 49.034c3.289 2.262 8.773 3.707 14.352 2.809-3.457-.816-6.836-1.324-9.996-2.422-10.789-3.473-11.047-16.652-4.969-24.27-5.656 5.586-6.898 14.781-2.555 20.789 1.594 3.52 4.344 6.617 5.82 10.145.609 1.527 1.074 3.035 1.773 4.555 1.691-3.746-1.859-8.32-4.426-11.605m37.286-2.146c-5.395 4.918-12.098 7.75-19.18 9.887-5.918 1.785-6.883 4.629-8.391 9.703 2.684-2.477 3.102-6.664 8.883-8.258 7.031-2.246 14.074-5.668 18.688-11.332m-31.566 34.852c-1.332 3.676-1.609 8.258 1.07 11.457.164-1.828-.137-3.43-.312-5.039-.758-7.344 3.227-9.652 4.129-14.141-1.355 2.738-3.754 4.859-4.887 7.723m22.96 25.668c-2.488-.547-3.848-2.109-5.855-2.816 1.242 3.949 5.98 4.977 10.309 4.332 2.316-.27 4.805-.961 6.438-2.602-2.031 1.102-4.266 1.352-6.531 1.402-1.473.023-2.953.031-4.359-.316m31.909-54.211c.074-3.039 1.098-14.152-1.328-21.836 1.102 8.652-.648 19.957-.266 25.418.043 1.188.07 2.332-.137 3.582 1.711-1.707 1.707-5.035 1.73-7.164M202 160.988c7.148-3.031 18.805 1.602 26.02 3.672 1.074.316 2.574.746 3.602 1.141 5.832 2.121 12.059 6.406 18.668 3.734 2.195-.055 4.156-2.863 8.57-4.602-1.176-.082-2.293.141-3.367.516 1.23-1.801 1.813-3.957 1.367-6.242-.609 6.68-7.453 9.855-13.887 8.789-3.801-.664-7.016-2.613-10.668-3.926-2.078-.758-5.277-1.59-7.422-2.258-6.625-1.805-16.648-4.66-22.883-.824m-90.544 135.258v-5.316H87.612v5.316h8.504v20.879h6.836v-20.879zm30.594-5.316h-6.836v10.707h-10.477V290.93h-6.832v26.195h6.832v-10.176h10.477v10.176h6.836zm0 0"/><use xlink:href="#B"/><path d="M193.711 310.328l2.199 6.797h7.441l-9.453-26.195h-8.352l-9.453 26.195h7.25l2.203-6.797zm-4.062-13.363l2.43 8.051h-4.859zm41.299-.719v-5.316h-23.844v5.316h8.504v20.879h6.836v-20.879zm26.872 14.5c-.379-3.148-1.367-5.164-4.098-6.148 3.492-1.027 5.277-3.227 5.277-6.531 0-4.633-3.305-6.492-7.102-6.949-1.402-.148-2.469-.187-4.098-.187h-10.402v26.195h6.832v-9.945h1.52l2.164.035c1.746.113 2.883 1.785 3.227 4.672.227 1.859.605 3.379 1.215 5.238h7.441c-1.027-1.555-1.633-3.418-1.977-6.379zm-13.59-8.504v-5.996h2.656l1.824.035c1.746.152 3.148.762 3.148 2.961s-1.594 2.813-3.34 2.961c-.492.039-1.102.039-1.82.039zm0 0"/><use xlink:href="#B" x="116.152"/></g></svg>