<svg xmlns="http://www.w3.org/2000/svg" xmlns:xlink="http://www.w3.org/1999/xlink" width="500" zoomAndPan="magnify" viewBox="0 0 375 374.999991" height="500" preserveAspectRatio="xMidYMid meet" version="1.0"><defs><g/><clipPath id="8861009284"><path d="M 67.210938 37.5 L 307.769531 37.5 L 307.769531 271.3125 L 67.210938 271.3125 Z M 67.210938 37.5 " clip-rule="nonzero"/></clipPath></defs><rect x="-37.5" width="450" fill="#ffffff" y="-37.499999" height="449.999989" fill-opacity="1"/><rect x="-37.5" width="450" fill="#000000" y="-37.499999" height="449.999989" fill-opacity="1"/><path fill="#ffffff" d="M 106.335938 187.453125 C 103.726562 187.917969 100.644531 188.625 99.085938 190.847656 C 101.167969 189.203125 103.925781 189.03125 106.5 188.804688 C 116.230469 188.128906 122.761719 191.269531 129.1875 194.054688 C 122.84375 188.84375 114.753906 186.015625 106.335938 187.453125 " fill-opacity="1" fill-rule="nonzero"/><path fill="#ffffff" d="M 146.414062 109.164062 C 143.78125 107.230469 140.503906 106.457031 138.417969 103.929688 C 135.554688 100.789062 136.929688 102.304688 134.65625 99.789062 C 133.136719 97.976562 130.601562 96.761719 128.199219 96.84375 C 129.511719 97.59375 130.816406 98.292969 131.855469 99.316406 C 132.890625 100.304688 133.738281 101.554688 134.773438 102.59375 C 137.6875 105.699219 138.265625 106.773438 142.027344 108.445312 C 144.34375 109.605469 147.90625 110.820312 147.84375 113.734375 C 147.675781 116.628906 144.835938 118.605469 142.109375 119.558594 C 147.996094 118.339844 149.859375 114.359375 148.527344 111.492188 C 150.820312 113.421875 153.082031 115.757812 154.277344 118.421875 C 154.984375 120.011719 155.792969 121.65625 157.617188 122.371094 C 156.824219 119.898438 156.199219 117.570312 154.621094 115.433594 C 152.582031 112.847656 149.675781 110.414062 146.414062 109.164062 " fill-opacity="1" fill-rule="nonzero"/><path fill="#ffffff" d="M 83.503906 163.261719 C 83.925781 167.308594 84.976562 171.34375 86.832031 175.03125 C 88.828125 179.195312 91.757812 182.148438 96.824219 182.441406 C 92.570312 178.175781 90.09375 181.644531 83.503906 163.261719 " fill-opacity="1" fill-rule="nonzero"/><path fill="#ffffff" d="M 136.917969 188.503906 C 137.015625 188.746094 137.101562 189.03125 137.292969 189.25 C 140.410156 192.492188 145.832031 187.089844 147.988281 184.96875 C 150.933594 182.046875 153.3125 178.6875 155.816406 175.433594 C 151.371094 179.046875 142.707031 189.238281 138.328125 188.972656 C 137.867188 188.972656 137.4375 188.75 136.917969 188.503906 " fill-opacity="1" fill-rule="nonzero"/><path fill="#ffffff" d="M 119.621094 111.695312 C 120.042969 112.53125 120.183594 113.476562 119.894531 114.472656 C 121.898438 110.15625 115.765625 106.09375 111.683594 107.882812 C 109.644531 108.707031 106.933594 111.082031 108.09375 113.445312 C 109.800781 115.925781 113.132812 114.382812 116.769531 115.035156 C 118.53125 115.066406 119.871094 113.355469 119.621094 111.695312 " fill-opacity="1" fill-rule="nonzero"/><path fill="#ffffff" d="M 143.484375 115.191406 C 141.445312 111.230469 132.6875 108.734375 128.441406 110.199219 C 126.867188 110.742188 125.597656 112.125 125.347656 113.710938 C 125.027344 115.433594 126.285156 116.84375 128.113281 116.757812 C 126.261719 116.015625 126.039062 114.566406 127.054688 113.210938 C 127.40625 114.390625 130.117188 115.484375 131.0625 115.960938 C 135.050781 117.761719 135.484375 117.292969 139.542969 117.398438 C 141.761719 117.410156 141.910156 117.507812 142.640625 117.289062 C 143.648438 116.984375 143.882812 115.945312 143.484375 115.191406 " fill-opacity="1" fill-rule="nonzero"/><path fill="#ffffff" d="M 120.335938 117.613281 C 119.101562 119.613281 118.429688 122.296875 120.085938 124.347656 C 121.710938 126.359375 125.53125 126.050781 126.148438 123.632812 C 124.804688 123.65625 124 123.871094 123.1875 123.921875 C 119.910156 123.925781 120.113281 119.921875 120.335938 117.613281 " fill-opacity="1" fill-rule="nonzero"/><path fill="#ffffff" d="M 179.460938 87 C 183.277344 90.296875 184.144531 95.539062 182.898438 100.105469 C 182.898438 100.121094 182.894531 100.136719 182.890625 100.152344 C 182.738281 99.257812 182.53125 98.351562 182.164062 97.476562 C 181.417969 95.5625 179.761719 93.773438 177.628906 93.3125 C 181.503906 95.6875 181.425781 99.941406 181.847656 101.949219 C 181.09375 101.011719 179.90625 100.175781 178.503906 99.441406 C 177.710938 97.796875 176.640625 95.695312 175.875 95.027344 C 172.484375 92.097656 166.28125 91.277344 163.148438 92.320312 C 158.273438 93.949219 157.882812 98.40625 153.464844 99.296875 C 153.417969 99.304688 153.9375 99.519531 154.507812 99.523438 C 158.429688 99.496094 160.265625 97.414062 164.953125 97.472656 C 167.378906 97.722656 170.128906 98.402344 172.5625 99 C 176.261719 100.054688 180.304688 101.246094 182.691406 104.328125 C 182.71875 103.972656 182.671875 103.628906 182.574219 103.292969 C 186.734375 100.640625 186.246094 90.054688 179.460938 87 " fill-opacity="1" fill-rule="nonzero"/><path fill="#ffffff" d="M 156.660156 94.171875 C 157.035156 93.25 157.136719 92.207031 157.445312 91.332031 C 158.238281 88.863281 165.101562 85.878906 171.851562 85.394531 C 166.90625 84.644531 159.308594 85.917969 156.140625 89.929688 C 155.21875 91.445312 155.238281 93.359375 154.5 94.863281 C 154.160156 95.683594 153.613281 96.453125 153.015625 97.355469 C 154.675781 97.023438 156.089844 95.699219 156.660156 94.171875 " fill-opacity="1" fill-rule="nonzero"/><path fill="#ffffff" d="M 117.488281 92.542969 C 118.839844 80.710938 106.914062 73.386719 100.613281 76.699219 C 101.28125 76.882812 104.382812 77.296875 106.9375 78.179688 C 113.375 80.417969 116.792969 86.28125 117.488281 92.542969 " fill-opacity="1" fill-rule="nonzero"/><path fill="#ffffff" d="M 84.835938 91.113281 C 86.757812 86.667969 91.609375 84.011719 96.183594 82.007812 C 91.777344 82.191406 84.109375 84.960938 84.457031 90.046875 C 84.523438 90.414062 84.640625 90.777344 84.835938 91.113281 " fill-opacity="1" fill-rule="nonzero"/><path fill="#ffffff" d="M 181.707031 74.960938 C 189.34375 79.90625 195.117188 89.933594 195.769531 95.007812 C 197.953125 91.941406 195.683594 88.292969 193.996094 85.535156 C 191.023438 81.097656 187.015625 76.820312 181.707031 74.960938 " fill-opacity="1" fill-rule="nonzero"/><path fill="#ffffff" d="M 173.699219 82.238281 C 167.199219 78.90625 153.53125 82.351562 154.609375 88.222656 C 158.582031 83.113281 167.332031 81.019531 173.699219 82.238281 " fill-opacity="1" fill-rule="nonzero"/><path fill="#ffffff" d="M 125.195312 54.464844 C 130.972656 55.8125 132.417969 59.015625 133.773438 64.125 C 135.214844 58.578125 131.640625 53.265625 125.296875 53.609375 C 122.578125 53.835938 122.601562 53.789062 125.195312 54.464844 " fill-opacity="1" fill-rule="nonzero"/><path fill="#ffffff" d="M 162.640625 57.875 C 168.652344 58.722656 174.683594 60.128906 180.171875 62.644531 C 182.878906 63.878906 185.304688 65.65625 187.523438 67.566406 C 192.050781 71.472656 195.308594 76.390625 196.800781 82.089844 C 197.015625 72.820312 188.96875 64.683594 180.542969 60.957031 C 178.699219 59.460938 176.78125 58.074219 174.480469 57.144531 C 166.820312 53.832031 158.160156 51.496094 149.6875 52.136719 C 157.273438 52.632812 166.203125 55.339844 172.941406 58.351562 C 169.625 57.496094 166.21875 56.933594 162.808594 56.542969 C 153.003906 55.636719 142.539062 56.386719 140.046875 67.25 C 143.292969 56.875 153.0625 56.769531 162.640625 57.875 " fill-opacity="1" fill-rule="nonzero"/><g clip-path="url(#8861009284)"><path fill="#ffffff" d="M 83.804688 132.878906 C 84.445312 133.980469 85.238281 135 86.179688 135.902344 C 89.699219 139.28125 90.949219 149.589844 92.5 153.5625 C 94.585938 158.898438 95.730469 165.023438 99.78125 168.601562 C 103.324219 171.726562 110.722656 171.484375 115.199219 172.289062 C 124.363281 173.933594 134.75 178.0625 143.0625 168.699219 C 145.710938 165.71875 149.488281 159.800781 153.679688 155.683594 C 157.839844 151.597656 163.90625 145.492188 169.066406 141.144531 C 166.203125 143.964844 163.300781 148.226562 160.371094 151.839844 C 158.535156 154.160156 156.398438 156.304688 154.664062 158.6875 C 142.523438 175.007812 138.96875 181.699219 131.003906 183.785156 C 126.925781 184.890625 121.898438 183.664062 117.710938 183.046875 C 110.117188 181.890625 99.691406 182.347656 96.199219 174.445312 C 91.046875 162.644531 89.464844 142.535156 83.636719 136.339844 C 83.730469 135.339844 83.871094 133.949219 83.804688 132.878906 Z M 78.585938 97.007812 C 77.429688 97.371094 76.292969 98.042969 75.328125 98.78125 C 80.242188 92.078125 80.988281 85.140625 82.054688 81.078125 C 83.386719 75.953125 84.949219 70.574219 88.90625 66.707031 C 92.316406 63.734375 98.074219 63.074219 102.550781 63.308594 C 105.121094 63.507812 107.757812 64.09375 109.792969 65.875 C 108.375 63.5 105.46875 62.3125 102.742188 61.859375 C 97.898438 61.132812 92.503906 62.027344 88.480469 64.792969 C 88.035156 65.160156 87.625 65.554688 87.230469 65.957031 C 92.988281 57.289062 98.867188 55.683594 109.878906 54.535156 C 113.414062 54.132812 116.957031 53.878906 120.542969 53.984375 C 115.503906 53.152344 110.34375 53.398438 105.261719 53.796875 C 109 52.109375 112.363281 49.132812 125.546875 48.800781 C 118.515625 47.273438 107.886719 48.363281 102.984375 54.019531 C 98.132812 54.652344 93.378906 56.546875 89.882812 59.859375 C 94.882812 51.058594 101.890625 43.640625 111.925781 40.238281 C 122.183594 36.671875 131.992188 41.710938 145.566406 41.3125 C 166.203125 40.242188 191.304688 48.445312 200.128906 65.519531 C 205.398438 76.332031 203.132812 91.585938 203.277344 100.714844 C 203.335938 105.515625 204.863281 110.140625 205.175781 114.839844 C 203.09375 115.410156 201.074219 116.167969 199.199219 117.148438 C 198.769531 116.730469 198.285156 116.328125 197.722656 115.957031 C 198.101562 116.414062 198.449219 116.890625 198.746094 117.382812 C 191.589844 121.324219 189.148438 127.304688 187.230469 135.242188 C 185.242188 135.339844 183.214844 135.121094 181.363281 134.664062 C 177.183594 133.210938 171.078125 128.179688 168.179688 124.78125 C 165.699219 121.933594 163.273438 118.15625 159.640625 116.539062 C 163.234375 118.476562 165.460938 122.976562 168.707031 126.800781 C 171.476562 132.164062 176.625 135.148438 174.140625 146.25 C 171.597656 156.574219 162.5 162.089844 158.617188 171.28125 C 172.011719 157.210938 175.96875 150.828125 176.121094 141.941406 C 176.105469 141.644531 176.023438 140.167969 176.007812 139.84375 C 175.765625 134.476562 171.863281 130.789062 169.671875 127.863281 C 172.46875 130.746094 177.90625 135.492188 181.921875 136.375 C 183.488281 136.667969 185.171875 136.855469 186.855469 136.851562 C 185.96875 140.816406 185.320312 144.820312 184.722656 148.832031 C 183.667969 158.21875 178.761719 166.511719 176.773438 175.578125 C 174.113281 181.300781 171.238281 186.910156 167.496094 192.078125 C 158.597656 204.269531 145.015625 212.980469 130.152344 208.027344 C 127.828125 207.203125 125.320312 206.351562 122.878906 205.742188 C 100.949219 200.078125 90.757812 210.421875 82.082031 195.257812 C 79.761719 191.128906 78.1875 186.46875 76.582031 182.042969 C 74.59375 175.179688 74.140625 167.960938 73.507812 160.855469 C 71.328125 133.539062 72.105469 130.167969 70.1875 120.519531 C 73.550781 122.664062 78.984375 122.363281 83.109375 120.46875 C 81.671875 122.09375 80.726562 123.769531 80.882812 126.410156 C 80.941406 128.429688 81.496094 130.390625 81.976562 132.339844 C 82.6875 136.976562 78.15625 151.054688 82.914062 160.515625 C 81.480469 152.808594 82.941406 143.742188 83.632812 136.410156 C 89.109375 142.804688 90.03125 162.59375 95.113281 174.863281 C 98.550781 183.273438 109.507812 183.363281 117.453125 184.542969 C 127.449219 186.003906 134.367188 189.128906 145.605469 173.96875 C 149.148438 169.246094 152.707031 164.457031 156.125 159.671875 C 158.816406 156.066406 161.730469 152.84375 164.15625 149.039062 C 166.238281 145.988281 169.09375 141.121094 172.269531 138.597656 C 171.222656 139.226562 170.277344 139.988281 169.398438 140.820312 C 167.222656 142.203125 164.757812 143.292969 163.523438 143.433594 C 153.972656 144.511719 147.179688 138.933594 141.332031 135.933594 C 138.140625 134.296875 132.296875 129.71875 128.574219 129.691406 C 123.414062 129.652344 121.867188 130.75 116.890625 129.53125 C 111.933594 128.316406 107.199219 131.035156 102.292969 133.328125 C 96.566406 136.003906 88.675781 137.417969 83.484375 131.234375 C 83.441406 131.070312 83.390625 130.90625 83.347656 130.75 C 83.632812 131.007812 83.921875 131.257812 84.222656 131.503906 C 87.136719 134.078125 92.4375 133.761719 95.890625 132.257812 C 98.121094 131.171875 106.324219 124.800781 116.183594 122.324219 C 110.011719 122.898438 104.203125 125.476562 98.945312 128.503906 C 96.078125 130.0625 95.109375 131.402344 90.996094 131.617188 C 86.417969 131.820312 86.789062 131.628906 83.199219 130.214844 C 81.078125 122.210938 83.988281 122.539062 88.925781 115.945312 C 90.605469 113.53125 93.519531 112.714844 96.226562 111.632812 C 98.890625 110.445312 101.429688 109.046875 103.914062 107.570312 C 101.78125 111.558594 104.851562 115.808594 108.738281 115.640625 C 106.941406 113.902344 104.730469 112.191406 105.050781 109.605469 C 105.199219 108.488281 105.886719 107.335938 106.734375 106.515625 C 107.664062 105.515625 109.101562 105.613281 110.363281 105.160156 C 111.535156 104.855469 112.308594 104.085938 112.980469 103.21875 C 113.03125 104.023438 113.402344 104.792969 114.199219 105.203125 C 114.375 104.660156 114.492188 104.140625 114.632812 103.628906 C 115.191406 100.160156 118.460938 97.695312 121.742188 96.425781 C 121.054688 96.445312 120.359375 96.535156 119.679688 96.691406 C 122.421875 94.507812 124.433594 91.523438 126.082031 88.539062 C 128.101562 84.550781 130.964844 82.472656 135.703125 83.765625 C 137.792969 84.179688 139.355469 85.589844 140.964844 86.867188 C 142.234375 87.890625 141.789062 89.488281 142.351562 92.304688 C 141.304688 91.183594 140.175781 90.144531 138.878906 89.289062 C 141.359375 91.671875 142.8125 94.578125 147.417969 100.960938 C 150.089844 104.496094 153.472656 110.46875 158.902344 109.851562 C 154.566406 107.648438 152.042969 104.242188 149.25 100.6875 C 155.132812 103.757812 166.28125 101.605469 173.988281 105.566406 C 176.84375 106.980469 179.820312 108.757812 183.164062 108.964844 C 182.007812 108.28125 180.878906 107.550781 179.746094 106.832031 C 184.164062 106.355469 187.878906 108.1875 191.046875 111.078125 C 192.140625 112.105469 193.195312 113.117188 194.757812 113.953125 C 194.433594 110.917969 191.070312 108.484375 188.203125 107.054688 C 185.515625 105.800781 182.15625 105.476562 179.390625 106.609375 C 173.152344 102.671875 169.953125 101.574219 160.128906 101.386719 C 156.398438 101.207031 151.984375 101.558594 148.601562 99.867188 C 148.109375 99.246094 143.988281 94.179688 143.949219 94.132812 C 143.941406 92.890625 143.855469 91.070312 143.785156 89.78125 C 143.742188 89.078125 144.28125 88.445312 145.078125 88.429688 C 149.367188 88.050781 152.023438 81.757812 154.589844 79.296875 C 159.105469 74.5625 165.179688 73.742188 171.566406 73.347656 C 164.035156 73.078125 158.300781 73.59375 152.695312 78.867188 C 150.359375 80.851562 148.691406 83.457031 146.039062 85.046875 C 144.308594 86.179688 144.421875 86.054688 143.132812 86.457031 C 142.714844 85.726562 141.882812 85.097656 141.261719 84.582031 C 137.886719 81.398438 132.109375 80.117188 128.140625 82.835938 C 127.625 83.191406 126.914062 83.125 126.46875 82.683594 C 123.890625 80.117188 124.550781 76.390625 119.796875 71.546875 C 118.625 70.328125 117.171875 69.300781 115.324219 69 C 117.722656 70.996094 118.949219 72.648438 121.425781 76.371094 C 122.410156 77.863281 123.515625 81.632812 124.648438 83.132812 C 125.929688 84.828125 125.195312 87.105469 124.785156 87.585938 C 124.097656 88.386719 123.699219 88.964844 123.164062 89.863281 C 121.316406 91.738281 120 92.96875 117.648438 94.4375 C 117.488281 94.253906 117.574219 94.347656 117.253906 94.078125 C 117.222656 93.542969 116.726562 92.65625 116.070312 91.722656 C 114.574219 89.601562 113.53125 87.742188 111.21875 86.386719 C 106.894531 83.84375 101.632812 83.191406 97.175781 85.5 C 95.160156 86.546875 91.878906 88.957031 90.316406 91.066406 C 88.015625 90.902344 85.675781 92.597656 85.140625 95.152344 C 89.023438 92.660156 88.742188 92.832031 91.960938 91.871094 C 91.789062 91.648438 91.578125 91.484375 91.347656 91.359375 C 93.082031 90.808594 94.90625 90.578125 96.714844 90.5 C 103.570312 90.195312 112.664062 93.175781 116.324219 95.21875 C 115.957031 95.425781 115.585938 95.625 115.210938 95.816406 C 112.273438 96.445312 110.199219 96.105469 107.636719 96.003906 C 103.957031 95.855469 100.378906 97.085938 96.710938 96.839844 C 91.40625 96.660156 87.070312 93.953125 82.773438 96.15625 C 80.195312 97.375 78.222656 99.578125 76.789062 101.878906 C 78.140625 101.042969 79.371094 100.066406 80.71875 99.234375 C 84.667969 96.695312 86.578125 96.632812 91.035156 97.691406 C 99.503906 99.550781 102.203125 97.222656 107.636719 97.03125 C 109.847656 96.988281 111.339844 97.066406 113.445312 96.675781 C 111.972656 97.351562 110.464844 97.964844 108.957031 98.542969 C 107.386719 99.160156 105.398438 98.734375 103.972656 99.742188 C 105.671875 99.109375 107.511719 99.894531 109.261719 99.433594 C 109.253906 99.476562 115.523438 97.984375 119.671875 95.269531 C 119.199219 95.90625 118.703125 96.53125 118.191406 97.152344 C 115.222656 98.308594 113.402344 100.59375 113.042969 102.402344 C 112.175781 103.210938 111.320312 104.007812 110.066406 104.167969 C 108.324219 104.527344 106.359375 103.949219 104.257812 107.007812 C 95.050781 111.75 95.082031 110.839844 91.617188 112.402344 C 89.175781 113.363281 87.742188 115.476562 86.105469 117.34375 C 81.328125 120.175781 72.921875 121.949219 69.792969 117.90625 C 66.289062 112.132812 72.527344 99.691406 78.585938 97.007812 Z M 214.09375 114.941406 C 227.90625 113.730469 244.152344 132.667969 265.511719 131.785156 C 279.386719 131.621094 287.09375 122.558594 298.015625 124.960938 C 306.03125 126.75 306.929688 134.925781 306.132812 141.519531 C 305.90625 143.757812 305.359375 147.476562 305.292969 147.996094 C 303.871094 145.640625 301.398438 143.992188 298.308594 144.902344 C 301.664062 144.464844 303.992188 146.691406 304.855469 149.574219 C 305.105469 150.441406 305.40625 151.421875 305.226562 152.277344 C 304.695312 159.066406 304.84375 160.292969 303.023438 166.335938 C 302.8125 165.464844 302.304688 164.730469 301.292969 164.417969 C 301.113281 167.207031 302.53125 168.109375 299.621094 174.332031 C 301.042969 173.210938 300.855469 172.851562 300.890625 173.320312 C 302.21875 189.304688 299.621094 195.027344 296.160156 200.816406 C 293.652344 204.300781 290.113281 206.9375 285.433594 206.890625 C 288.554688 207.324219 291.40625 206.289062 293.792969 204.542969 C 285.976562 216.347656 280.5625 222.53125 275.984375 230.890625 C 276.28125 228.722656 276.472656 226.542969 276.523438 224.34375 C 276.566406 221.976562 276.476562 219.414062 275.011719 217.371094 C 276.058594 221.945312 275.375 226.671875 274.601562 231.234375 C 272.628906 241.554688 268.730469 255.691406 256.695312 258.820312 C 254.992188 259.289062 253.269531 259.140625 251.882812 258 C 251.371094 257.664062 250.78125 257.34375 250.152344 257.285156 C 251.976562 258.011719 252.046875 260.027344 255.425781 260.132812 C 248.996094 267.761719 241.328125 271.292969 230.777344 269.386719 C 221.652344 267.640625 214.085938 263.132812 207.503906 257.347656 C 208.578125 257.433594 209.613281 257.179688 210.476562 256.695312 C 207.292969 256.492188 204.898438 255.257812 204.421875 252.113281 C 203.746094 247.140625 206.84375 242.679688 210.15625 239.042969 C 203.703125 243.671875 202.058594 249.207031 202.984375 253.046875 C 197.808594 247.738281 193.242188 241.777344 188.9375 236.046875 C 182.9375 228.589844 178.9375 221.621094 177.976562 212.121094 C 173.597656 174.039062 181.820312 169.453125 185.363281 154.421875 C 186.5625 149.542969 187.039062 142.105469 189.441406 133.300781 C 192.726562 120.664062 200.101562 116.210938 214.09375 114.941406 Z M 71.695312 160.984375 C 73.269531 179.425781 73.804688 180.238281 77.265625 189.425781 C 86.425781 212.6875 96.5625 203.847656 115.039062 206.246094 C 120.027344 206.84375 124.773438 208.179688 129.476562 209.890625 C 140.074219 213.445312 150.046875 210.699219 158.8125 204.019531 C 166.292969 198.359375 171.390625 190.832031 175.585938 182.8125 C 174.699219 190.8125 175.066406 198.9375 175.738281 206.941406 C 176.808594 217.148438 177.445312 223.777344 185.929688 234.804688 C 197.3125 249.871094 210.011719 267.039062 230.492188 270.820312 C 238.074219 272.296875 246.421875 270.441406 252.097656 265.339844 C 255.09375 262.785156 256.386719 260.542969 257.253906 259.984375 C 257.542969 259.925781 257.832031 259.871094 258.113281 259.800781 C 258.496094 259.757812 258.890625 259.703125 259.195312 259.496094 C 269.59375 256.183594 273.855469 243.617188 275.613281 233.285156 C 279.589844 225.382812 286.9375 217.3125 294.449219 206.367188 C 300.371094 197.800781 302.5625 193.136719 302.847656 182.671875 C 302.914062 179.34375 302.609375 175.863281 301.152344 172.792969 C 302.121094 171.570312 302.816406 170.082031 303.054688 168.523438 C 306.429688 164.5 306.476562 157.8125 306.542969 152.335938 C 306.644531 151.777344 306.476562 151.046875 306.335938 150.488281 C 306.433594 149.964844 307.324219 143.542969 307.519531 141.648438 C 308.425781 134.332031 307.183594 125.664062 298.359375 123.632812 C 286.8125 121.019531 279.28125 130.210938 265.46875 130.351562 C 246.515625 131.089844 232.246094 115.929688 218.328125 113.589844 C 215.195312 113.023438 210.105469 113.726562 207.191406 114.351562 C 206.828125 109.722656 205.363281 105.265625 205.292969 100.679688 C 205.308594 88.714844 207.128906 75.519531 201.890625 64.734375 C 193.722656 49.285156 174.289062 41.609375 157.011719 39.847656 C 149.476562 39.140625 146.242188 39.863281 141.78125 39.65625 C 129.433594 39.414062 120.605469 34.757812 108.851562 39.917969 C 99.539062 44.003906 92.394531 52.714844 87.800781 62.167969 C 86.410156 64.046875 85.46875 66.203125 85.109375 68.4375 C 84.523438 69.976562 82.75 71.398438 80.675781 80.792969 C 79.894531 84.230469 79.339844 92.273438 74.34375 99.601562 C 69.308594 104.113281 65.457031 112.855469 68.039062 118.132812 C 70.324219 127.1875 69.84375 136.566406 71.695312 160.984375 " fill-opacity="1" fill-rule="nonzero"/></g><path fill="#ffffff" d="M 149.203125 134.847656 C 145.648438 133.21875 141.941406 131.378906 139.195312 128.710938 C 135.882812 125.316406 132.671875 124.785156 128.035156 123.347656 C 130.976562 125.8125 134.503906 126.515625 137.855469 129.902344 C 141.890625 133.871094 148.789062 136.40625 154.171875 138.609375 C 160.234375 141.082031 166.308594 141.699219 172.269531 138.597656 C 163.429688 141.945312 157.039062 138.507812 149.203125 134.847656 " fill-opacity="1" fill-rule="nonzero"/><path fill="#ffffff" d="M 142.089844 83.105469 C 139.671875 78.84375 139.113281 77.792969 138.902344 69.820312 C 137.964844 72.125 137.628906 74.617188 137.824219 77.09375 C 138.058594 79.410156 138.925781 83.175781 142.089844 83.105469 " fill-opacity="1" fill-rule="nonzero"/><path fill="#ffffff" d="M 129.925781 75.949219 C 129.203125 76.726562 129.054688 77.328125 128.054688 77.980469 C 129.128906 78.933594 130.800781 77.925781 131.414062 76.984375 C 133.300781 74.3125 134.109375 71.121094 134.050781 67.949219 C 132.828125 70.542969 131.621094 73.648438 129.925781 75.949219 " fill-opacity="1" fill-rule="nonzero"/><path fill="#ffffff" d="M 260.933594 251.546875 C 260.9375 251.527344 261.0625 251.136719 261.070312 251.125 C 261.027344 251.265625 260.980469 251.40625 260.933594 251.546875 Z M 258.332031 233.566406 C 257.257812 233.261719 256.15625 233.382812 255.246094 233.816406 C 258.089844 234.652344 259.445312 235.152344 261.238281 239.847656 C 262.1875 242.5 262.316406 245.292969 261.851562 248.03125 C 262.011719 243.480469 259.226562 237.4375 257.496094 237.125 C 252.695312 236.253906 250.199219 239.367188 246.597656 239.140625 C 244.070312 238.988281 242.144531 238.253906 240.234375 237.609375 C 238.988281 236.8125 237.757812 236.121094 236.105469 235.960938 C 235.46875 235.941406 234.558594 235.835938 233.929688 235.851562 C 222.648438 235.746094 215.394531 246.09375 211.203125 250.921875 C 213.386719 244.019531 220.140625 237.320312 227.125 234.523438 C 231.679688 232.71875 236.648438 233.34375 241.433594 233.867188 C 229.292969 226.679688 213.277344 239.070312 211.199219 250.929688 C 211.195312 250.960938 211.179688 250.964844 211.277344 250.863281 C 215.394531 247.070312 219.460938 242.917969 224.871094 241.535156 C 230.332031 240.140625 236.546875 242.636719 241.519531 243.554688 C 246.488281 244.46875 246.789062 244.667969 252.183594 242.625 C 256.382812 241.039062 261.441406 245.8125 260.785156 251.550781 C 261 251.277344 261.003906 251.128906 260.929688 251.550781 C 260.910156 251.648438 265.332031 245.378906 262.238281 238.066406 C 261.507812 236.300781 260.4375 234.179688 258.332031 233.566406 " fill-opacity="1" fill-rule="nonzero"/><path fill="#ffffff" d="M 258.570312 247.269531 C 255.9375 246.09375 254.15625 249.5 252.070312 250.292969 C 249.507812 251.339844 246.726562 252.167969 243.914062 251.730469 C 232.152344 250.007812 224.855469 241.457031 215.945312 249.445312 C 221.972656 246.015625 226.171875 247.035156 232.132812 249.828125 C 243.613281 255.003906 247.933594 253.917969 252.78125 251.605469 C 255.929688 249.9375 256.375 246.144531 259.761719 248.191406 C 259.433594 247.828125 259.054688 247.492188 258.570312 247.269531 " fill-opacity="1" fill-rule="nonzero"/><path fill="#ffffff" d="M 231.425781 256.5625 C 236.691406 254.722656 242.910156 254.570312 247.632812 257.765625 C 245.527344 253.875 236.890625 251.703125 231.425781 256.5625 " fill-opacity="1" fill-rule="nonzero"/><path fill="#ffffff" d="M 232.460938 193.308594 C 234.894531 190.09375 236.160156 185.328125 235.96875 181.65625 C 232.996094 191.824219 230.15625 193 228.75 195.570312 C 230.285156 195.5 231.578125 194.511719 232.460938 193.308594 " fill-opacity="1" fill-rule="nonzero"/><path fill="#ffffff" d="M 219.726562 180.085938 C 223.457031 179.582031 232.828125 173.25 235.605469 176.015625 C 235.546875 175.925781 235.484375 175.84375 235.417969 175.765625 C 231.308594 170.28125 226.808594 172.414062 220.875 173.359375 C 215.675781 174.222656 210.507812 176.203125 205.226562 175.628906 C 204.511719 175.550781 204.117188 176.394531 204.65625 176.84375 C 208.132812 179.753906 214.933594 180.835938 219.726562 180.085938 " fill-opacity="1" fill-rule="nonzero"/><path fill="#ffffff" d="M 293.328125 181.480469 C 293.496094 181.128906 293.324219 180.710938 292.949219 180.558594 C 284.484375 180.386719 273.792969 169.515625 267.066406 178.824219 C 271.601562 177.707031 274.390625 179.957031 277.964844 182.148438 C 282.117188 184.734375 291.015625 186.449219 293.328125 181.480469 " fill-opacity="1" fill-rule="nonzero"/><path fill="#ffffff" d="M 296.933594 177.464844 C 296.945312 177.394531 296.945312 177.324219 296.945312 177.257812 C 296.84375 177.304688 296.742188 177.351562 296.644531 177.40625 C 292.953125 179.378906 291.105469 174.988281 283.902344 173.070312 C 278.636719 171.671875 272.089844 171.945312 268.082031 175.820312 C 272.550781 172.71875 278.433594 172.910156 283.476562 174.40625 C 288.144531 175.78125 289.984375 177.90625 293.054688 178.75 C 294.070312 179.027344 294.566406 180.324219 293.675781 180.714844 C 294.355469 181.480469 295.472656 180.085938 296.15625 179.335938 C 297.085938 179.292969 297.929688 179.300781 298.785156 178.867188 C 298.535156 178.847656 298.277344 178.835938 298.011719 178.824219 C 297.320312 178.785156 296.855469 178.15625 296.933594 177.464844 " fill-opacity="1" fill-rule="nonzero"/><path fill="#ffffff" d="M 264.230469 181.570312 C 273.015625 181.050781 281.894531 192.269531 290.527344 188.121094 C 291.761719 187.453125 292.761719 186.492188 293.410156 185.359375 C 292.214844 185.980469 291.105469 186.5625 289.953125 186.929688 C 281.710938 189.894531 273.195312 179.792969 264.230469 181.570312 " fill-opacity="1" fill-rule="nonzero"/><path fill="#ffffff" d="M 237.90625 177.738281 C 234.441406 175.109375 229.976562 179.375 227.132812 180.886719 C 223.242188 182.9375 217.023438 184.179688 211.28125 183.480469 C 204.746094 181.960938 200.785156 176.773438 194.605469 177.042969 C 199.671875 177.394531 203.1875 181.183594 207.453125 183.363281 C 212.765625 186.265625 222.210938 185.15625 227.929688 182.257812 C 231.429688 180.445312 234.4375 176.601562 237.90625 177.738281 " fill-opacity="1" fill-rule="nonzero"/><path fill="#ffffff" d="M 201.992188 173.578125 C 201.398438 174.402344 201.355469 175.628906 201.488281 176.574219 C 202.140625 175.464844 202.511719 174.699219 203.644531 173.738281 C 212.921875 174.140625 218.171875 168.480469 231.203125 170.65625 C 233.738281 171.085938 237.613281 171.722656 237.410156 174.859375 C 239.460938 168.933594 226.25 168.148438 222.339844 168.558594 C 212.355469 169.316406 203.378906 176.488281 194.378906 168.628906 C 195.746094 171.539062 198.78125 173.085938 201.992188 173.578125 " fill-opacity="1" fill-rule="nonzero"/><path fill="#ffffff" d="M 253.507812 174.578125 C 252.828125 174.769531 251.859375 174.046875 250.777344 173.429688 C 249.738281 172.808594 248.046875 172.128906 246.964844 173.074219 C 248.289062 172.925781 249.046875 173.742188 249.953125 174.488281 C 251.160156 175.507812 252.214844 176.386719 253.804688 176.117188 C 257.191406 175.410156 260.339844 176.445312 262.59375 175.761719 C 259.898438 184.421875 262.128906 194.886719 262.035156 199.054688 C 262.011719 201.253906 261.773438 203.484375 261.652344 205.773438 C 261.316406 210.300781 263.011719 214.765625 262.1875 219.144531 C 261.726562 221.765625 260.179688 224.023438 257.71875 225.230469 C 255.414062 226.515625 252.542969 227.371094 249.976562 226.277344 C 246.515625 224.910156 244.84375 221.097656 241.171875 219.90625 C 234.214844 218.242188 232.203125 215.5625 231.082031 211.785156 C 230.425781 209.234375 232.0625 205.882812 235.273438 205.839844 C 238.839844 205.808594 242.582031 207.765625 244.628906 210.527344 C 242.691406 207.277344 237.097656 204.21875 233.382812 205.546875 C 227.328125 203.261719 222.441406 209.878906 219.640625 214.074219 C 216.460938 218.734375 213.15625 223.527344 211.617188 228.941406 C 213.929688 223.910156 217.546875 219.332031 220.855469 214.859375 C 224.035156 210.5625 227.3125 206.28125 232.824219 205.792969 C 230.53125 206.949219 229.304688 210.03125 230.214844 212.867188 C 231.34375 217.246094 235.03125 219.757812 239.464844 220.792969 C 239.894531 220.898438 240.308594 221.003906 240.707031 221.125 C 243.046875 221.921875 244.5 223.9375 246.3125 225.519531 C 250.503906 229.402344 255.585938 228.535156 259.988281 225.460938 C 261.769531 224.167969 262.855469 222.316406 263.421875 220.304688 C 265.027344 218.886719 268.003906 218.140625 269.3125 216.207031 C 269.894531 220.484375 271.453125 226.492188 269.460938 234.347656 C 272.664062 228.035156 272.054688 220.613281 270.472656 213.964844 C 270.394531 213.707031 270.3125 213.445312 270.230469 213.1875 C 270.296875 210.898438 269.0625 208.652344 266.636719 207.867188 C 269.148438 209.515625 269.75 212.703125 268.246094 215.148438 C 267.339844 216.601562 265.113281 217.144531 263.835938 218.136719 C 264.265625 214.140625 262.894531 209.890625 263.164062 205.851562 C 263.296875 203.359375 263.570312 200.816406 263.539062 198.289062 C 264.078125 199.109375 264.714844 199.882812 265.347656 200.578125 C 267.320312 202.710938 270.015625 204.824219 273.140625 204.820312 C 270.269531 203.988281 268.25 201.882812 266.503906 199.695312 C 264.304688 197.03125 263.808594 195.027344 263.164062 193.667969 C 262.640625 188.46875 262.296875 183.199219 263.351562 178.050781 C 263.582031 176.945312 263.925781 175.863281 264.273438 174.78125 C 266.722656 172.269531 264.734375 166.566406 265.324219 163.324219 C 263.738281 167.570312 266.113281 174.765625 261.046875 174.597656 C 258.667969 174.46875 255.980469 174.070312 253.507812 174.578125 " fill-opacity="1" fill-rule="nonzero"/><path fill="#ffffff" d="M 266.851562 168.21875 C 271.167969 171.347656 277.109375 170.835938 282.085938 169.628906 C 288.328125 167.976562 294.960938 161.492188 300.132812 163.515625 C 299.664062 162.9375 298.960938 162.519531 298.1875 162.285156 C 293.460938 160.980469 287.828125 165.847656 283.664062 167.621094 C 278.683594 169.636719 271.796875 170.835938 266.851562 168.21875 " fill-opacity="1" fill-rule="nonzero"/><path fill="#ffffff" d="M 249.339844 235.429688 C 250.191406 234.964844 250.53125 233.824219 250.101562 233.058594 C 249.625 233.496094 249.28125 233.820312 248.957031 233.960938 C 247.949219 234.453125 246.703125 233.90625 246.054688 233.035156 C 245.089844 231.382812 245.320312 229.308594 245.027344 227.4375 C 244.4375 229.46875 243.789062 231.703125 244.777344 233.75 C 245.613281 235.199219 247.652344 236.265625 249.339844 235.429688 " fill-opacity="1" fill-rule="nonzero"/><path fill="#ffffff" d="M 198.683594 163.570312 C 199.066406 163.3125 199.425781 162.960938 199.484375 162.347656 C 198.652344 162.140625 198.253906 162.277344 197.882812 162.566406 C 196.691406 163.375 195.367188 164.898438 196.03125 166.367188 C 196.441406 165.039062 197.566406 164.335938 198.683594 163.570312 " fill-opacity="1" fill-rule="nonzero"/><path fill="#ffffff" d="M 203.238281 146.445312 C 211.679688 139.308594 216.503906 145.496094 224.273438 144.269531 C 215.167969 141.492188 209.21875 139.085938 202.382812 145.558594 C 199.394531 148.398438 195.746094 152.664062 195.949219 156.871094 C 196.390625 152.808594 200.1875 149.085938 203.238281 146.445312 " fill-opacity="1" fill-rule="nonzero"/><path fill="#ffffff" d="M 252.265625 142.3125 C 255.519531 145.957031 257.113281 150.402344 258.117188 155.105469 C 258.613281 153.929688 258.691406 152.625 258.570312 151.375 C 257.941406 146.339844 254.453125 142.183594 250.765625 138.730469 C 248.023438 136.121094 244.554688 134.285156 241.0625 132.789062 C 246.28125 136.230469 248.234375 137.445312 252.265625 142.3125 " fill-opacity="1" fill-rule="nonzero"/><path fill="#ffffff" d="M 270.84375 149.21875 C 272.976562 146.34375 276.136719 144.414062 279.855469 143.878906 C 270.804688 143.148438 264.871094 153.394531 266.265625 158.703125 C 268.085938 155.5 268.574219 152.101562 270.84375 149.21875 " fill-opacity="1" fill-rule="nonzero"/><path fill="#ffffff" d="M 277.839844 150.933594 C 276.242188 152.8125 279.386719 154.796875 281.269531 154.117188 C 283.632812 153.242188 284.789062 151.054688 286.664062 149.679688 C 289.769531 147.429688 292.542969 146.566406 295.152344 145.609375 C 294.214844 145.226562 293.175781 145.179688 292.179688 145.304688 C 289.527344 145.660156 285.96875 148.039062 284.617188 149.554688 C 283.503906 150.734375 282.726562 152.015625 281.417969 152.949219 C 280.109375 154.144531 276.773438 152.910156 277.839844 150.933594 " fill-opacity="1" fill-rule="nonzero"/><path fill="#ffffff" d="M 189.84375 199.96875 C 193.132812 202.230469 198.617188 203.675781 204.195312 202.777344 C 200.738281 201.960938 197.359375 201.453125 194.199219 200.355469 C 183.410156 196.882812 183.152344 183.703125 189.230469 176.085938 C 183.574219 181.671875 182.332031 190.867188 186.675781 196.875 C 188.269531 200.394531 191.019531 203.492188 192.496094 207.019531 C 193.105469 208.546875 193.570312 210.054688 194.269531 211.574219 C 195.960938 207.828125 192.410156 203.253906 189.84375 199.96875 " fill-opacity="1" fill-rule="nonzero"/><path fill="#ffffff" d="M 227.128906 197.824219 C 221.734375 202.742188 215.03125 205.574219 207.949219 207.710938 C 202.03125 209.496094 201.066406 212.339844 199.558594 217.414062 C 202.242188 214.9375 202.660156 210.75 208.441406 209.15625 C 215.472656 206.910156 222.515625 203.488281 227.128906 197.824219 " fill-opacity="1" fill-rule="nonzero"/><path fill="#ffffff" d="M 195.5625 232.675781 C 194.230469 236.351562 193.953125 240.933594 196.632812 244.132812 C 196.796875 242.304688 196.496094 240.703125 196.320312 239.09375 C 195.5625 231.75 199.546875 229.441406 200.449219 224.953125 C 199.09375 227.691406 196.695312 229.8125 195.5625 232.675781 " fill-opacity="1" fill-rule="nonzero"/><path fill="#ffffff" d="M 218.523438 258.34375 C 216.035156 257.796875 214.675781 256.234375 212.667969 255.527344 C 213.910156 259.476562 218.648438 260.503906 222.976562 259.859375 C 225.292969 259.589844 227.78125 258.898438 229.414062 257.257812 C 227.382812 258.359375 225.148438 258.609375 222.882812 258.660156 C 221.410156 258.683594 219.929688 258.691406 218.523438 258.34375 " fill-opacity="1" fill-rule="nonzero"/><path fill="#ffffff" d="M 250.433594 204.132812 C 250.507812 201.09375 251.53125 189.980469 249.105469 182.296875 C 250.207031 190.949219 248.457031 202.253906 248.839844 207.714844 C 248.882812 208.902344 248.910156 210.046875 248.703125 211.296875 C 250.414062 209.589844 250.410156 206.261719 250.433594 204.132812 " fill-opacity="1" fill-rule="nonzero"/><path fill="#ffffff" d="M 202 160.988281 C 209.148438 157.957031 220.804688 162.589844 228.019531 164.660156 C 229.09375 164.976562 230.59375 165.40625 231.621094 165.800781 C 237.453125 167.921875 243.679688 172.207031 250.289062 169.535156 C 252.484375 169.480469 254.445312 166.671875 258.859375 164.933594 C 257.683594 164.851562 256.566406 165.074219 255.492188 165.449219 C 256.722656 163.648438 257.304688 161.492188 256.859375 159.207031 C 256.25 165.886719 249.40625 169.0625 242.972656 167.996094 C 239.171875 167.332031 235.957031 165.382812 232.304688 164.070312 C 230.226562 163.3125 227.027344 162.480469 224.882812 161.8125 C 218.257812 160.007812 208.234375 157.152344 202 160.988281 " fill-opacity="1" fill-rule="nonzero"/><g fill="#ffffff" fill-opacity="1"><g transform="translate(87.080542, 317.12541)"><g><path d="M 24.375 -20.878906 L 24.375 -26.195312 L 0.53125 -26.195312 L 0.53125 -20.878906 L 9.035156 -20.878906 L 9.035156 0 L 15.871094 0 L 15.871094 -20.878906 Z M 24.375 -20.878906 "/></g></g></g><g fill="#ffffff" fill-opacity="1"><g transform="translate(114.86608, 317.12541)"><g><path d="M 27.183594 -26.195312 L 20.347656 -26.195312 L 20.347656 -15.488281 L 9.871094 -15.488281 L 9.871094 -26.195312 L 3.039062 -26.195312 L 3.039062 0 L 9.871094 0 L 9.871094 -10.175781 L 20.347656 -10.175781 L 20.347656 0 L 27.183594 0 Z M 27.183594 -26.195312 "/></g></g></g><g fill="#ffffff" fill-opacity="1"><g transform="translate(147.889681, 317.12541)"><g><path d="M 23.121094 -5.316406 L 9.871094 -5.316406 L 9.871094 -10.476562 L 21.980469 -10.476562 L 21.980469 -15.792969 L 9.871094 -15.792969 L 9.871094 -20.878906 L 22.742188 -20.878906 L 22.742188 -26.195312 L 3.039062 -26.195312 L 3.039062 0 L 23.121094 0 Z M 23.121094 -5.316406 "/></g></g></g><g fill="#ffffff" fill-opacity="1"><g transform="translate(175.940916, 317.12541)"><g><path d="M 17.769531 -6.796875 L 19.96875 0 L 27.410156 0 L 17.957031 -26.195312 L 9.605469 -26.195312 L 0.152344 0 L 7.402344 0 L 9.605469 -6.796875 Z M 13.707031 -20.160156 L 16.136719 -12.109375 L 11.277344 -12.109375 Z M 13.707031 -20.160156 "/></g></g></g><g fill="#ffffff" fill-opacity="1"><g transform="translate(206.573228, 317.12541)"><g><path d="M 24.375 -20.878906 L 24.375 -26.195312 L 0.53125 -26.195312 L 0.53125 -20.878906 L 9.035156 -20.878906 L 9.035156 0 L 15.871094 0 L 15.871094 -20.878906 Z M 24.375 -20.878906 "/></g></g></g><g fill="#ffffff" fill-opacity="1"><g transform="translate(234.358761, 317.12541)"><g><path d="M 23.460938 -6.378906 C 23.082031 -9.527344 22.09375 -11.542969 19.363281 -12.527344 C 22.855469 -13.554688 24.640625 -15.753906 24.640625 -19.058594 C 24.640625 -23.691406 21.335938 -25.550781 17.539062 -26.007812 C 16.136719 -26.15625 15.070312 -26.195312 13.441406 -26.195312 L 3.039062 -26.195312 L 3.039062 0 L 9.871094 0 L 9.871094 -9.945312 L 11.390625 -9.945312 C 12.148438 -9.945312 12.792969 -9.945312 13.554688 -9.910156 C 15.300781 -9.796875 16.4375 -8.125 16.78125 -5.238281 C 17.007812 -3.378906 17.386719 -1.859375 17.996094 0 L 25.4375 0 C 24.410156 -1.554688 23.804688 -3.417969 23.460938 -6.378906 Z M 9.871094 -14.882812 L 9.871094 -20.878906 L 12.527344 -20.878906 C 13.25 -20.878906 13.855469 -20.878906 14.351562 -20.84375 C 16.097656 -20.691406 17.5 -20.082031 17.5 -17.882812 C 17.5 -15.679688 15.90625 -15.070312 14.160156 -14.921875 C 13.667969 -14.882812 13.058594 -14.882812 12.339844 -14.882812 Z M 9.871094 -14.882812 "/></g></g></g><g fill="#ffffff" fill-opacity="1"><g transform="translate(264.042146, 317.12541)"><g><path d="M 23.121094 -5.316406 L 9.871094 -5.316406 L 9.871094 -10.476562 L 21.980469 -10.476562 L 21.980469 -15.792969 L 9.871094 -15.792969 L 9.871094 -20.878906 L 22.742188 -20.878906 L 22.742188 -26.195312 L 3.039062 -26.195312 L 3.039062 0 L 23.121094 0 Z M 23.121094 -5.316406 "/></g></g></g></svg>