<svg xmlns="http://www.w3.org/2000/svg" xmlns:xlink="http://www.w3.org/1999/xlink" width="500" zoomAndPan="magnify" viewBox="0 0 375 374.999991" height="500" preserveAspectRatio="xMidYMid meet" version="1.0"><defs><g/><clipPath id="79ecc74ab8"><path d="M 0.324219 198.089844 L 366.632812 198.089844 L 366.632812 240.046875 L 0.324219 240.046875 Z M 0.324219 198.089844 " clip-rule="nonzero"/></clipPath><clipPath id="47d088f769"><path d="M 17.574219 198.089844 L 349.265625 198.089844 C 353.839844 198.089844 358.226562 199.90625 361.464844 203.140625 C 364.699219 206.378906 366.515625 210.765625 366.515625 215.339844 L 366.515625 222.796875 C 366.515625 227.371094 364.699219 231.761719 361.464844 234.996094 C 358.226562 238.230469 353.839844 240.046875 349.265625 240.046875 L 17.574219 240.046875 C 13 240.046875 8.613281 238.230469 5.375 234.996094 C 2.140625 231.761719 0.324219 227.371094 0.324219 222.796875 L 0.324219 215.339844 C 0.324219 210.765625 2.140625 206.378906 5.375 203.140625 C 8.613281 199.90625 13 198.089844 17.574219 198.089844 Z M 17.574219 198.089844 " clip-rule="nonzero"/></clipPath></defs><path stroke-linecap="butt" transform="matrix(1.207199, 0, 0, 1.207199, 49.813823, -116.879553)" fill="none" stroke-linejoin="miter" d="M 100.764831 108.241151 C 96.076162 111.334572 91.856684 113.955567 88.112868 116.1009 C 84.369052 118.249469 80.799969 120.019449 77.408854 121.417313 C 76.907306 139.485998 76.483417 155.658507 76.133951 169.931604 C 75.784485 184.207936 75.486791 196.859899 75.237635 207.890728 C 74.985243 218.921557 74.787859 228.454212 74.635777 236.488694 C 74.48693 244.526411 74.36397 251.389535 74.263661 257.078064 C 73.962731 270.354536 73.862422 279.437415 73.962731 284.329939 C 73.862422 288.025218 73.464419 291.568415 72.765487 294.962765 C 72.166865 297.855567 71.218776 300.926337 69.921222 304.171841 C 68.623668 307.414109 66.824565 310.18395 64.530386 312.481365 C 70.519844 312.681985 76.133951 312.779058 81.37594 312.779058 C 86.614694 312.779058 91.633414 312.779058 96.422392 312.779058 C 110.100102 312.779058 121.380088 312.581675 130.265584 312.180436 C 139.147844 311.782433 146.237473 311.306771 151.528 310.759922 C 156.818526 310.209836 160.562343 309.711524 162.756212 309.261748 C 164.953318 308.811972 166.250872 308.488393 166.648875 308.287774 C 161.358348 311.882743 156.967373 314.976164 153.472713 317.571273 C 149.981289 320.166381 146.858746 322.289063 144.114791 323.936083 C 141.370836 325.583104 138.675418 326.806235 136.028536 327.605476 C 133.384891 328.401482 130.314121 328.802721 126.819461 328.802721 L 103.761178 328.802721 C 97.273407 328.802721 90.23555 328.828607 82.647608 328.877144 C 75.062902 328.925681 67.824426 329.025991 60.935416 329.174837 C 54.049642 329.32692 47.885451 329.576076 42.442842 329.925542 C 37.003468 330.275008 33.136692 330.698897 30.839277 331.19721 C 33.635005 328.802721 36.181576 326.207612 38.475756 323.411884 C 40.773171 320.616157 42.743771 317.17327 44.390791 313.079988 C 46.037811 308.986705 47.309479 304.071531 48.20903 298.331229 C 49.108582 292.590927 49.555121 285.679266 49.555121 277.593012 L 49.555121 126.358374 C 46.4617 126.659303 42.717884 127.057306 38.326909 127.555618 C 33.932698 128.057167 28.9431 128.704326 23.351645 129.503567 C 28.742481 125.109356 33.609118 121.766779 37.951557 119.469364 C 42.293995 117.175184 46.011925 115.476391 49.108582 114.379456 C 52.700315 113.182212 55.894046 112.48328 58.689774 112.282661 C 62.184434 112.38297 66.05121 112.334433 70.296574 112.133814 C 74.538703 111.933195 78.628749 111.658152 82.573185 111.308686 C 86.51762 110.95922 90.13524 110.51268 93.429281 109.962595 C 96.723321 109.412509 99.169583 108.839773 100.764831 108.241151 Z M 166.648875 308.287774 L 166.648875 308.138927 C 166.749185 308.038617 166.849494 307.99008 166.949804 307.99008 Z M 166.648875 308.287774 " stroke="#000000" stroke-width="23.000025" stroke-opacity="1" stroke-miterlimit="4"/><g fill="#008080" fill-opacity="1"><g transform="translate(66.978684, 281.496136)"><g><path d="M 104.484375 -267.703125 C 98.816406 -263.972656 93.722656 -260.8125 89.203125 -258.21875 C 84.679688 -255.625 80.375 -253.484375 76.28125 -251.796875 C 75.675781 -229.984375 75.160156 -210.460938 74.734375 -193.234375 C 74.316406 -176.003906 73.957031 -160.726562 73.65625 -147.40625 C 73.351562 -134.09375 73.113281 -122.582031 72.9375 -112.875 C 72.757812 -103.175781 72.609375 -94.894531 72.484375 -88.03125 C 72.117188 -72 72 -61.03125 72.125 -55.125 C 72 -50.664062 71.515625 -46.390625 70.671875 -42.296875 C 69.953125 -38.804688 68.804688 -35.101562 67.234375 -31.1875 C 65.671875 -27.269531 63.503906 -23.925781 60.734375 -21.15625 C 67.960938 -20.90625 74.738281 -20.78125 81.0625 -20.78125 C 87.394531 -20.78125 93.453125 -20.78125 99.234375 -20.78125 C 115.742188 -20.78125 129.359375 -21.019531 140.078125 -21.5 C 150.804688 -21.988281 159.363281 -22.5625 165.75 -23.21875 C 172.144531 -23.882812 176.664062 -24.488281 179.3125 -25.03125 C 181.96875 -25.570312 183.535156 -25.960938 184.015625 -26.203125 C 177.628906 -21.867188 172.328125 -18.132812 168.109375 -15 C 163.890625 -11.863281 160.125 -9.300781 156.8125 -7.3125 C 153.5 -5.332031 150.242188 -3.859375 147.046875 -2.890625 C 143.859375 -1.929688 140.15625 -1.453125 135.9375 -1.453125 L 108.09375 -1.453125 C 100.257812 -1.453125 91.765625 -1.421875 82.609375 -1.359375 C 73.453125 -1.296875 64.710938 -1.171875 56.390625 -0.984375 C 48.078125 -0.804688 40.632812 -0.503906 34.0625 -0.078125 C 27.5 0.335938 22.832031 0.847656 20.0625 1.453125 C 23.4375 -1.441406 26.507812 -4.578125 29.28125 -7.953125 C 32.050781 -11.328125 34.429688 -15.484375 36.421875 -20.421875 C 38.410156 -25.367188 39.945312 -31.304688 41.03125 -38.234375 C 42.113281 -45.160156 42.65625 -53.503906 42.65625 -63.265625 L 42.65625 -245.84375 C 38.925781 -245.476562 34.410156 -244.992188 29.109375 -244.390625 C 23.804688 -243.785156 17.78125 -243.003906 11.03125 -242.046875 C 17.53125 -247.347656 23.398438 -251.382812 28.640625 -254.15625 C 33.890625 -256.925781 38.382812 -258.972656 42.125 -260.296875 C 46.457031 -261.742188 50.3125 -262.585938 53.6875 -262.828125 C 57.90625 -262.710938 62.570312 -262.773438 67.6875 -263.015625 C 72.8125 -263.253906 77.753906 -263.582031 82.515625 -264 C 87.273438 -264.425781 91.644531 -264.96875 95.625 -265.625 C 99.601562 -266.289062 102.554688 -266.984375 104.484375 -267.703125 Z M 184.015625 -26.203125 L 184.015625 -26.390625 C 184.140625 -26.515625 184.257812 -26.578125 184.375 -26.578125 Z M 184.015625 -26.203125 "/></g></g></g><path stroke-linecap="butt" transform="matrix(0.968053, 0, 0, 0.968053, 130.807935, 31.654524)" fill="none" stroke-linejoin="miter" d="M 151.004446 217.400075 C 150.205485 217.8964 148.906163 218.695362 147.110517 219.792925 C 145.512593 220.890489 143.265009 222.387533 140.371799 224.288094 C 137.474554 226.184619 133.633082 228.827649 128.843346 232.221219 C 129.638273 230.724174 129.614062 229.578189 128.766678 228.779227 C 127.919295 227.980265 126.793485 227.431483 125.39732 227.132882 C 123.702552 226.733401 121.705148 226.5841 119.409142 226.680944 C 115.914693 226.979546 111.274259 227.330604 105.483804 227.730085 C 99.693349 228.129566 93.204811 228.480625 86.018191 228.779227 C 85.917312 243.551949 85.792222 255.604972 85.642921 264.938298 C 85.49362 274.271623 85.36853 281.583334 85.267651 286.877464 C 85.069928 293.063365 84.86817 297.707834 84.670447 300.802802 C 84.468689 302.796171 83.871486 304.745153 82.870766 306.641679 C 82.075839 308.336446 80.800729 310.136128 79.053504 312.032653 C 77.30628 313.929178 74.885184 315.623945 71.790216 317.12099 C 77.879273 317.12099 83.919908 316.923267 89.908085 316.523786 C 95.000458 316.225184 100.415643 315.724824 106.157676 315.026742 C 111.895674 314.328659 117.113136 313.279517 121.801992 311.883352 C 117.113136 316.075883 112.343576 319.416996 107.505419 321.91476 C 102.663227 324.408489 97.821035 326.357472 92.978842 327.753637 C 88.13665 329.149803 83.395337 330.150522 78.754903 330.747726 C 74.114468 331.348965 69.768601 331.748446 65.729405 331.946169 C 61.686175 332.147927 57.941546 332.345649 54.495519 332.547407 C 51.053528 332.74513 48.132072 333.144611 45.739222 333.741815 C 48.834189 330.646847 51.25125 327.604336 52.998475 324.610247 C 54.745699 321.616158 56.069232 318.271011 56.969072 314.578839 C 57.864878 310.882632 58.441906 306.714312 58.688051 302.073877 C 58.938231 297.433443 59.014899 291.917379 58.91402 285.52972 L 58.91402 229.077829 C 56.218533 229.077829 53.498835 229.029407 50.754926 228.928528 C 48.006982 228.827649 45.238862 228.678348 42.442496 228.480625 L 58.91402 219.942226 C 58.91402 214.454408 58.889809 208.587285 58.841387 202.348927 C 58.78893 196.11057 58.764719 189.371852 58.764719 182.13681 C 58.764719 174.897732 58.740508 167.085662 58.688051 158.700599 C 58.639629 150.315536 58.615418 141.183969 58.615418 131.301861 C 54.124285 131.301861 49.879296 131.249404 45.888523 131.148525 C 41.893714 131.051681 38.201542 130.90238 34.807973 130.700622 L 62.658648 115.875444 C 81.623901 115.875444 97.821035 115.750354 111.246013 115.504209 C 124.675026 115.254029 135.779787 114.979638 144.564331 114.681036 C 154.74504 114.281555 163.230982 113.882075 170.018121 113.482594 C 173.411691 113.482594 175.659275 113.756985 176.756839 114.305766 C 177.854403 114.854548 178.306341 115.451752 178.104583 116.101413 C 177.90686 116.751074 177.305621 117.424945 176.308936 118.123028 C 175.308217 118.821111 174.412411 119.321471 173.613449 119.620072 C 172.814488 120.019553 171.317443 120.866937 169.122316 122.166259 C 167.225791 123.263822 164.554515 124.986836 161.108488 127.331264 C 157.666496 129.679727 152.949394 132.847328 146.961216 136.842136 C 148.954585 134.642974 149.806004 133.02084 149.503367 131.971698 C 149.204765 130.926591 148.506682 130.151841 147.409119 129.651481 C 146.109797 129.155156 144.314151 128.904976 142.018145 128.904976 C 140.121619 129.102699 137.276831 129.280246 133.483781 129.429547 C 129.69073 129.578848 125.27223 129.75236 120.232315 129.954118 C 115.192399 130.151841 109.724757 130.349564 103.837459 130.551322 C 97.946125 130.749044 91.90549 130.90238 85.715554 130.999224 C 85.917312 148.26971 86.018191 163.643671 86.018191 177.121106 C 86.018191 190.594506 86.018191 202.92192 86.018191 214.103349 C 95.101337 214.00247 103.385521 213.828958 110.874778 213.578778 C 118.36 213.328598 124.800116 213.054208 130.19109 212.755606 C 136.47787 212.356125 142.167446 211.956644 147.259818 211.557163 C 150.653388 211.460319 152.900972 211.633831 153.998535 212.081734 C 155.096099 212.533672 155.544002 213.106665 155.346279 213.804747 C 155.144521 214.50283 154.547317 215.200913 153.546597 215.898996 C 152.549913 216.601113 151.702529 217.097438 151.004446 217.400075 Z M 151.004446 217.400075 " stroke="#000000" stroke-width="23.000025" stroke-opacity="1" stroke-miterlimit="4"/><g fill="#ffffff" fill-opacity="1"><g transform="translate(154.646247, 351.112099)"><g><path d="M 122.34375 -109 C 121.5625 -108.519531 120.300781 -107.75 118.5625 -106.6875 C 117.019531 -105.625 114.847656 -104.171875 112.046875 -102.328125 C 109.242188 -100.492188 105.523438 -97.9375 100.890625 -94.65625 C 101.660156 -96.101562 101.632812 -97.210938 100.8125 -97.984375 C 99.988281 -98.753906 98.898438 -99.285156 97.546875 -99.578125 C 95.910156 -99.960938 93.976562 -100.109375 91.75 -100.015625 C 88.375 -99.722656 83.878906 -99.382812 78.265625 -99 C 72.660156 -98.613281 66.382812 -98.273438 59.4375 -97.984375 C 59.332031 -83.679688 59.207031 -72.007812 59.0625 -62.96875 C 58.914062 -53.9375 58.796875 -46.863281 58.703125 -41.75 C 58.515625 -35.757812 58.320312 -31.265625 58.125 -28.265625 C 57.925781 -26.328125 57.347656 -24.441406 56.390625 -22.609375 C 55.609375 -20.960938 54.375 -19.222656 52.6875 -17.390625 C 51 -15.554688 48.65625 -13.914062 45.65625 -12.46875 C 51.550781 -12.46875 57.398438 -12.660156 63.203125 -13.046875 C 68.128906 -13.335938 73.367188 -13.820312 78.921875 -14.5 C 84.484375 -15.175781 89.535156 -16.1875 94.078125 -17.53125 C 89.535156 -13.476562 84.921875 -10.242188 80.234375 -7.828125 C 75.546875 -5.410156 70.859375 -3.523438 66.171875 -2.171875 C 61.484375 -0.816406 56.890625 0.144531 52.390625 0.71875 C 47.898438 1.300781 43.695312 1.6875 39.78125 1.875 C 35.875 2.070312 32.253906 2.265625 28.921875 2.453125 C 25.585938 2.648438 22.757812 3.039062 20.4375 3.625 C 23.4375 0.625 25.78125 -2.320312 27.46875 -5.21875 C 29.15625 -8.113281 30.429688 -11.347656 31.296875 -14.921875 C 32.171875 -18.503906 32.726562 -22.539062 32.96875 -27.03125 C 33.21875 -31.53125 33.289062 -36.867188 33.1875 -43.046875 L 33.1875 -97.703125 C 30.582031 -97.703125 27.953125 -97.75 25.296875 -97.84375 C 22.640625 -97.9375 19.957031 -98.082031 17.25 -98.28125 L 33.1875 -106.53125 C 33.1875 -111.851562 33.160156 -117.53125 33.109375 -123.5625 C 33.066406 -129.601562 33.046875 -136.125 33.046875 -143.125 C 33.046875 -150.132812 33.019531 -157.695312 32.96875 -165.8125 C 32.925781 -173.9375 32.90625 -182.78125 32.90625 -192.34375 C 28.550781 -192.34375 24.441406 -192.390625 20.578125 -192.484375 C 16.710938 -192.585938 13.140625 -192.734375 9.859375 -192.921875 L 36.8125 -207.28125 C 55.175781 -207.28125 70.851562 -207.398438 83.84375 -207.640625 C 96.84375 -207.878906 107.597656 -208.144531 116.109375 -208.4375 C 125.960938 -208.820312 134.175781 -209.207031 140.75 -209.59375 C 144.03125 -209.59375 146.203125 -209.328125 147.265625 -208.796875 C 148.328125 -208.265625 148.757812 -207.6875 148.5625 -207.0625 C 148.375 -206.4375 147.796875 -205.785156 146.828125 -205.109375 C 145.867188 -204.429688 145 -203.945312 144.21875 -203.65625 C 143.445312 -203.269531 142 -202.445312 139.875 -201.1875 C 138.039062 -200.125 135.457031 -198.457031 132.125 -196.1875 C 128.789062 -193.914062 124.222656 -190.847656 118.421875 -186.984375 C 120.359375 -189.109375 121.179688 -190.675781 120.890625 -191.6875 C 120.597656 -192.707031 119.921875 -193.457031 118.859375 -193.9375 C 117.597656 -194.425781 115.859375 -194.671875 113.640625 -194.671875 C 111.804688 -194.472656 109.050781 -194.300781 105.375 -194.15625 C 101.707031 -194.007812 97.429688 -193.835938 92.546875 -193.640625 C 87.671875 -193.453125 82.378906 -193.257812 76.671875 -193.0625 C 70.972656 -192.875 65.128906 -192.734375 59.140625 -192.640625 C 59.335938 -175.921875 59.4375 -161.035156 59.4375 -147.984375 C 59.4375 -134.941406 59.4375 -123.007812 59.4375 -112.1875 C 68.226562 -112.289062 76.242188 -112.460938 83.484375 -112.703125 C 90.734375 -112.941406 96.96875 -113.207031 102.1875 -113.5 C 108.28125 -113.882812 113.789062 -114.269531 118.71875 -114.65625 C 122 -114.75 124.171875 -114.578125 125.234375 -114.140625 C 126.296875 -113.710938 126.726562 -113.160156 126.53125 -112.484375 C 126.34375 -111.804688 125.765625 -111.128906 124.796875 -110.453125 C 123.835938 -109.773438 123.019531 -109.289062 122.34375 -109 Z M 122.34375 -109 "/></g></g></g><g clip-path="url(#79ecc74ab8)"><g clip-path="url(#47d088f769)"><path fill="#000000" d="M 0.324219 198.089844 L 366.46875 198.089844 L 366.46875 240.046875 L 0.324219 240.046875 Z M 0.324219 198.089844 " fill-opacity="1" fill-rule="nonzero"/></g></g><g fill="#008080" fill-opacity="1"><g transform="translate(111.227772, 229.632484)"><g><path d="M 9.359375 -23.96875 C 8.847656 -23.632812 8.390625 -23.347656 7.984375 -23.109375 C 7.578125 -22.878906 7.191406 -22.691406 6.828125 -22.546875 C 6.773438 -20.585938 6.726562 -18.835938 6.6875 -17.296875 C 6.65625 -15.753906 6.625 -14.382812 6.59375 -13.1875 C 6.5625 -12 6.535156 -10.96875 6.515625 -10.09375 C 6.503906 -9.226562 6.492188 -8.488281 6.484375 -7.875 C 6.453125 -6.445312 6.441406 -5.46875 6.453125 -4.9375 C 6.441406 -4.539062 6.398438 -4.15625 6.328125 -3.78125 C 6.265625 -3.46875 6.160156 -3.132812 6.015625 -2.78125 C 5.878906 -2.4375 5.6875 -2.140625 5.4375 -1.890625 C 6.082031 -1.867188 6.6875 -1.859375 7.25 -1.859375 C 7.820312 -1.859375 8.367188 -1.859375 8.890625 -1.859375 C 10.359375 -1.859375 11.570312 -1.878906 12.53125 -1.921875 C 13.5 -1.960938 14.269531 -2.015625 14.84375 -2.078125 C 15.414062 -2.140625 15.816406 -2.191406 16.046875 -2.234375 C 16.285156 -2.285156 16.425781 -2.320312 16.46875 -2.34375 C 15.894531 -1.957031 15.421875 -1.625 15.046875 -1.34375 C 14.671875 -1.0625 14.332031 -0.832031 14.03125 -0.65625 C 13.738281 -0.476562 13.445312 -0.34375 13.15625 -0.25 C 12.875 -0.164062 12.546875 -0.125 12.171875 -0.125 L 9.671875 -0.125 C 8.972656 -0.125 8.210938 -0.117188 7.390625 -0.109375 C 6.578125 -0.109375 5.796875 -0.0976562 5.046875 -0.078125 C 4.304688 -0.0664062 3.640625 -0.0390625 3.046875 0 C 2.460938 0.03125 2.046875 0.0703125 1.796875 0.125 C 2.097656 -0.132812 2.375 -0.414062 2.625 -0.71875 C 2.875 -1.019531 3.085938 -1.390625 3.265625 -1.828125 C 3.441406 -2.265625 3.578125 -2.796875 3.671875 -3.421875 C 3.765625 -4.046875 3.8125 -4.789062 3.8125 -5.65625 L 3.8125 -22 C 3.476562 -21.96875 3.070312 -21.925781 2.59375 -21.875 C 2.125 -21.820312 1.585938 -21.753906 0.984375 -21.671875 C 1.566406 -22.140625 2.09375 -22.5 2.5625 -22.75 C 3.03125 -23 3.429688 -23.179688 3.765625 -23.296875 C 4.160156 -23.429688 4.507812 -23.507812 4.8125 -23.53125 C 5.1875 -23.519531 5.601562 -23.523438 6.0625 -23.546875 C 6.519531 -23.566406 6.960938 -23.59375 7.390625 -23.625 C 7.816406 -23.664062 8.207031 -23.71875 8.5625 -23.78125 C 8.914062 -23.84375 9.179688 -23.90625 9.359375 -23.96875 Z M 16.46875 -2.34375 L 16.46875 -2.359375 C 16.476562 -2.367188 16.488281 -2.375 16.5 -2.375 Z M 16.46875 -2.34375 "/></g></g></g><g fill="#008080" fill-opacity="1"><g transform="translate(129.451846, 229.632484)"><g><path d="M 9.78125 -2.09375 C 9.195312 -1.695312 8.710938 -1.359375 8.328125 -1.078125 C 7.953125 -0.796875 7.609375 -0.566406 7.296875 -0.390625 C 6.992188 -0.210938 6.695312 -0.0820312 6.40625 0 C 6.125 0.0820312 5.789062 0.125 5.40625 0.125 C 4.882812 0.125 4.441406 0.101562 4.078125 0.0625 C 3.710938 0.0195312 3.347656 0 2.984375 0 C 2.796875 0 2.609375 0.00390625 2.421875 0.015625 C 2.234375 0.0351562 2.023438 0.0703125 1.796875 0.125 C 2.097656 -0.132812 2.375 -0.414062 2.625 -0.71875 C 2.875 -1.019531 3.085938 -1.390625 3.265625 -1.828125 C 3.441406 -2.265625 3.578125 -2.796875 3.671875 -3.421875 C 3.765625 -4.046875 3.8125 -4.789062 3.8125 -5.65625 L 3.8125 -22 C 3.476562 -21.96875 3.070312 -21.925781 2.59375 -21.875 C 2.125 -21.820312 1.585938 -21.753906 0.984375 -21.671875 C 1.566406 -22.140625 2.09375 -22.5 2.5625 -22.75 C 3.03125 -23 3.429688 -23.179688 3.765625 -23.296875 C 4.160156 -23.429688 4.507812 -23.507812 4.8125 -23.53125 C 5.1875 -23.519531 5.601562 -23.523438 6.0625 -23.546875 C 6.519531 -23.566406 6.960938 -23.59375 7.390625 -23.625 C 7.816406 -23.664062 8.207031 -23.71875 8.5625 -23.78125 C 8.914062 -23.84375 9.179688 -23.90625 9.359375 -23.96875 C 8.847656 -23.632812 8.390625 -23.347656 7.984375 -23.109375 C 7.578125 -22.878906 7.191406 -22.691406 6.828125 -22.546875 C 6.773438 -20.585938 6.726562 -18.835938 6.6875 -17.296875 C 6.65625 -15.753906 6.625 -14.382812 6.59375 -13.1875 C 6.5625 -12 6.535156 -10.96875 6.515625 -10.09375 C 6.503906 -9.226562 6.492188 -8.488281 6.484375 -7.875 C 6.453125 -6.445312 6.441406 -5.46875 6.453125 -4.9375 C 6.441406 -4.539062 6.390625 -4.144531 6.296875 -3.75 C 6.210938 -3.40625 6.082031 -3.039062 5.90625 -2.65625 C 5.726562 -2.28125 5.476562 -1.9375 5.15625 -1.625 C 5.363281 -1.59375 5.5625 -1.578125 5.75 -1.578125 C 5.945312 -1.578125 6.140625 -1.578125 6.328125 -1.578125 C 6.878906 -1.578125 7.367188 -1.601562 7.796875 -1.65625 C 8.222656 -1.707031 8.582031 -1.765625 8.875 -1.828125 C 9.21875 -1.898438 9.519531 -1.988281 9.78125 -2.09375 Z M 9.78125 -2.09375 "/></g></g></g><g fill="#008080" fill-opacity="1"><g transform="translate(142.273134, 229.632484)"><g><path d="M 20.546875 -22.609375 C 20.429688 -22.546875 20.25 -22.441406 20 -22.296875 C 19.78125 -22.179688 19.484375 -22.007812 19.109375 -21.78125 C 18.742188 -21.5625 18.265625 -21.28125 17.671875 -20.9375 C 17.859375 -21.175781 17.941406 -21.347656 17.921875 -21.453125 C 17.898438 -21.554688 17.847656 -21.625 17.765625 -21.65625 C 17.660156 -21.695312 17.515625 -21.703125 17.328125 -21.671875 C 17.222656 -21.648438 16.988281 -21.625 16.625 -21.59375 C 16.269531 -21.5625 15.828125 -21.535156 15.296875 -21.515625 C 14.765625 -21.492188 14.15625 -21.472656 13.46875 -21.453125 C 12.789062 -21.429688 12.078125 -21.414062 11.328125 -21.40625 C 11.285156 -19.601562 11.25 -17.988281 11.21875 -16.5625 C 11.1875 -15.144531 11.15625 -13.882812 11.125 -12.78125 C 11.09375 -11.6875 11.066406 -10.734375 11.046875 -9.921875 C 11.035156 -9.109375 11.023438 -8.414062 11.015625 -7.84375 C 10.984375 -6.507812 10.96875 -5.582031 10.96875 -5.0625 C 10.957031 -4.664062 10.90625 -4.273438 10.8125 -3.890625 C 10.726562 -3.546875 10.597656 -3.179688 10.421875 -2.796875 C 10.242188 -2.421875 9.992188 -2.078125 9.671875 -1.765625 C 9.878906 -1.742188 10.070312 -1.726562 10.25 -1.71875 C 10.4375 -1.71875 10.625 -1.71875 10.8125 -1.71875 C 11.3125 -1.71875 11.765625 -1.738281 12.171875 -1.78125 C 12.578125 -1.832031 12.925781 -1.882812 13.21875 -1.9375 C 13.507812 -1.988281 13.742188 -2.039062 13.921875 -2.09375 C 14.097656 -2.15625 14.207031 -2.195312 14.25 -2.21875 C 13.6875 -1.832031 13.210938 -1.5 12.828125 -1.21875 C 12.453125 -0.9375 12.113281 -0.707031 11.8125 -0.53125 C 11.507812 -0.351562 11.210938 -0.21875 10.921875 -0.125 C 10.628906 -0.0390625 10.289062 0 9.90625 0 C 9.382812 0 8.941406 -0.0195312 8.578125 -0.0625 C 8.222656 -0.101562 7.863281 -0.125 7.5 -0.125 C 7.3125 -0.125 7.125 -0.113281 6.9375 -0.09375 C 6.75 -0.0820312 6.535156 -0.0507812 6.296875 0 C 6.597656 -0.257812 6.875 -0.539062 7.125 -0.84375 C 7.382812 -1.15625 7.597656 -1.53125 7.765625 -1.96875 C 7.941406 -2.414062 8.078125 -2.945312 8.171875 -3.5625 C 8.265625 -4.175781 8.3125 -4.921875 8.3125 -5.796875 L 8.3125 -21.3125 C 7.375 -21.289062 6.453125 -21.269531 5.546875 -21.25 C 4.648438 -21.226562 3.835938 -21.207031 3.109375 -21.1875 C 2.390625 -21.175781 1.785156 -21.15625 1.296875 -21.125 C 0.804688 -21.101562 0.5 -21.085938 0.375 -21.078125 C 0.0703125 -21.046875 -0.140625 -21.054688 -0.265625 -21.109375 C -0.398438 -21.171875 -0.460938 -21.253906 -0.453125 -21.359375 C -0.441406 -21.472656 -0.363281 -21.613281 -0.21875 -21.78125 C -0.0703125 -21.945312 0.125 -22.117188 0.375 -22.296875 L 2.59375 -23.90625 C 2.425781 -23.707031 2.375 -23.554688 2.4375 -23.453125 C 2.5 -23.359375 2.59375 -23.285156 2.71875 -23.234375 C 2.863281 -23.179688 3.0625 -23.148438 3.3125 -23.140625 C 3.488281 -23.140625 3.835938 -23.144531 4.359375 -23.15625 C 4.890625 -23.164062 5.535156 -23.175781 6.296875 -23.1875 C 7.054688 -23.207031 7.898438 -23.222656 8.828125 -23.234375 C 9.765625 -23.253906 10.710938 -23.273438 11.671875 -23.296875 C 12.628906 -23.328125 13.570312 -23.351562 14.5 -23.375 C 15.425781 -23.40625 16.269531 -23.425781 17.03125 -23.4375 C 17.789062 -23.457031 18.4375 -23.472656 18.96875 -23.484375 C 19.5 -23.503906 19.847656 -23.519531 20.015625 -23.53125 C 20.347656 -23.539062 20.585938 -23.507812 20.734375 -23.4375 C 20.890625 -23.375 20.972656 -23.289062 20.984375 -23.1875 C 21.003906 -23.082031 20.96875 -22.972656 20.875 -22.859375 C 20.789062 -22.753906 20.679688 -22.671875 20.546875 -22.609375 Z M 14.25 -2.21875 L 14.25 -2.234375 C 14.257812 -2.242188 14.269531 -2.25 14.28125 -2.25 Z M 14.25 -2.21875 "/></g></g></g><g fill="#008080" fill-opacity="1"><g transform="translate(164.961783, 229.632484)"><g><path d="M 17.234375 -9.90625 C 16.898438 -9.90625 16.59375 -9.78125 16.3125 -9.53125 C 16.03125 -9.289062 15.753906 -9.023438 15.484375 -8.734375 C 15.210938 -8.453125 14.929688 -8.191406 14.640625 -7.953125 C 14.347656 -7.710938 14.03125 -7.59375 13.6875 -7.59375 L 1.625 -7.59375 C 1.800781 -7.625 1.984375 -7.703125 2.171875 -7.828125 C 2.367188 -7.960938 2.566406 -8.113281 2.765625 -8.28125 C 2.960938 -8.445312 3.160156 -8.625 3.359375 -8.8125 C 3.554688 -9.007812 3.753906 -9.1875 3.953125 -9.34375 C 4.160156 -9.5 4.363281 -9.628906 4.5625 -9.734375 C 4.769531 -9.847656 4.96875 -9.90625 5.15625 -9.90625 Z M 17.234375 -9.90625 "/></g></g></g><g fill="#008080" fill-opacity="1"><g transform="translate(186.194593, 229.632484)"><g><path d="M 13.65625 -12.171875 C 13.570312 -12.117188 13.429688 -12.03125 13.234375 -11.90625 C 13.066406 -11.789062 12.828125 -11.628906 12.515625 -11.421875 C 12.203125 -11.210938 11.785156 -10.925781 11.265625 -10.5625 C 11.347656 -10.726562 11.34375 -10.851562 11.25 -10.9375 C 11.15625 -11.019531 11.035156 -11.078125 10.890625 -11.109375 C 10.703125 -11.160156 10.488281 -11.179688 10.25 -11.171875 C 9.863281 -11.128906 9.359375 -11.085938 8.734375 -11.046875 C 8.109375 -11.003906 7.410156 -10.96875 6.640625 -10.9375 C 6.628906 -9.34375 6.613281 -8.039062 6.59375 -7.03125 C 6.570312 -6.019531 6.554688 -5.226562 6.546875 -4.65625 C 6.523438 -3.988281 6.503906 -3.488281 6.484375 -3.15625 C 6.460938 -2.9375 6.398438 -2.726562 6.296875 -2.53125 C 6.210938 -2.34375 6.070312 -2.144531 5.875 -1.9375 C 5.6875 -1.738281 5.425781 -1.554688 5.09375 -1.390625 C 5.75 -1.390625 6.40625 -1.410156 7.0625 -1.453125 C 7.601562 -1.484375 8.179688 -1.535156 8.796875 -1.609375 C 9.421875 -1.691406 9.988281 -1.804688 10.5 -1.953125 C 9.988281 -1.503906 9.472656 -1.144531 8.953125 -0.875 C 8.429688 -0.601562 7.910156 -0.390625 7.390625 -0.234375 C 6.867188 -0.0859375 6.351562 0.015625 5.84375 0.078125 C 5.34375 0.140625 4.875 0.179688 4.4375 0.203125 C 4 0.234375 3.59375 0.257812 3.21875 0.28125 C 2.851562 0.300781 2.539062 0.34375 2.28125 0.40625 C 2.613281 0.0703125 2.875 -0.253906 3.0625 -0.578125 C 3.25 -0.898438 3.390625 -1.257812 3.484375 -1.65625 C 3.585938 -2.0625 3.648438 -2.515625 3.671875 -3.015625 C 3.703125 -3.515625 3.710938 -4.113281 3.703125 -4.8125 L 3.703125 -10.90625 C 3.410156 -10.90625 3.113281 -10.910156 2.8125 -10.921875 C 2.519531 -10.929688 2.222656 -10.945312 1.921875 -10.96875 L 3.703125 -11.890625 C 3.703125 -12.484375 3.695312 -13.117188 3.6875 -13.796875 C 3.6875 -14.472656 3.6875 -15.203125 3.6875 -15.984375 C 3.6875 -16.765625 3.679688 -17.609375 3.671875 -18.515625 C 3.671875 -19.421875 3.671875 -20.40625 3.671875 -21.46875 C 3.179688 -21.46875 2.722656 -21.472656 2.296875 -21.484375 C 1.867188 -21.492188 1.46875 -21.507812 1.09375 -21.53125 L 4.109375 -23.140625 C 6.160156 -23.140625 7.910156 -23.148438 9.359375 -23.171875 C 10.804688 -23.203125 12.007812 -23.234375 12.96875 -23.265625 C 14.0625 -23.304688 14.976562 -23.351562 15.71875 -23.40625 C 16.082031 -23.40625 16.320312 -23.375 16.4375 -23.3125 C 16.5625 -23.25 16.609375 -23.179688 16.578125 -23.109375 C 16.554688 -23.046875 16.492188 -22.972656 16.390625 -22.890625 C 16.285156 -22.816406 16.1875 -22.765625 16.09375 -22.734375 C 16.007812 -22.691406 15.847656 -22.597656 15.609375 -22.453125 C 15.410156 -22.335938 15.125 -22.148438 14.75 -21.890625 C 14.375 -21.640625 13.863281 -21.300781 13.21875 -20.875 C 13.4375 -21.113281 13.53125 -21.289062 13.5 -21.40625 C 13.46875 -21.519531 13.390625 -21.601562 13.265625 -21.65625 C 13.128906 -21.707031 12.9375 -21.734375 12.6875 -21.734375 C 12.476562 -21.710938 12.171875 -21.691406 11.765625 -21.671875 C 11.359375 -21.660156 10.878906 -21.644531 10.328125 -21.625 C 9.785156 -21.601562 9.195312 -21.578125 8.5625 -21.546875 C 7.925781 -21.523438 7.273438 -21.507812 6.609375 -21.5 C 6.628906 -19.632812 6.640625 -17.972656 6.640625 -16.515625 C 6.640625 -15.066406 6.640625 -13.738281 6.640625 -12.53125 C 7.617188 -12.539062 8.507812 -12.554688 9.3125 -12.578125 C 10.125 -12.609375 10.820312 -12.640625 11.40625 -12.671875 C 12.082031 -12.710938 12.695312 -12.753906 13.25 -12.796875 C 13.613281 -12.804688 13.851562 -12.785156 13.96875 -12.734375 C 14.09375 -12.691406 14.144531 -12.628906 14.125 -12.546875 C 14.101562 -12.472656 14.035156 -12.398438 13.921875 -12.328125 C 13.816406 -12.253906 13.726562 -12.203125 13.65625 -12.171875 Z M 13.65625 -12.171875 "/></g></g></g><g fill="#008080" fill-opacity="1"><g transform="translate(204.920122, 229.632484)"><g><path d="M 14.21875 -12.6875 C 14.125 -12.644531 13.976562 -12.5625 13.78125 -12.4375 C 13.613281 -12.332031 13.367188 -12.175781 13.046875 -11.96875 C 12.734375 -11.757812 12.316406 -11.46875 11.796875 -11.09375 C 11.878906 -11.257812 11.875 -11.382812 11.78125 -11.46875 C 11.695312 -11.5625 11.578125 -11.625 11.421875 -11.65625 C 11.242188 -11.695312 11.03125 -11.710938 10.78125 -11.703125 C 10.382812 -11.671875 9.820312 -11.628906 9.09375 -11.578125 C 8.375 -11.535156 7.554688 -11.5 6.640625 -11.46875 C 6.640625 -9.75 6.625 -8.34375 6.59375 -7.25 C 6.570312 -6.164062 6.554688 -5.320312 6.546875 -4.71875 C 6.523438 -4.007812 6.503906 -3.488281 6.484375 -3.15625 C 6.460938 -2.9375 6.398438 -2.726562 6.296875 -2.53125 C 6.210938 -2.34375 6.070312 -2.144531 5.875 -1.9375 C 5.6875 -1.738281 5.425781 -1.554688 5.09375 -1.390625 L 12.421875 -1.390625 C 12.773438 -1.390625 13.128906 -1.410156 13.484375 -1.453125 C 13.785156 -1.484375 14.109375 -1.535156 14.453125 -1.609375 C 14.796875 -1.691406 15.125 -1.804688 15.4375 -1.953125 C 14.894531 -1.453125 14.359375 -1.066406 13.828125 -0.796875 C 13.304688 -0.523438 12.820312 -0.328125 12.375 -0.203125 C 11.863281 -0.0664062 11.375 0.0078125 10.90625 0.03125 C 9.851562 0.03125 8.851562 0.0351562 7.90625 0.046875 C 6.96875 0.0546875 6.117188 0.078125 5.359375 0.109375 C 4.609375 0.140625 3.96875 0.179688 3.4375 0.234375 C 2.90625 0.285156 2.519531 0.34375 2.28125 0.40625 C 2.613281 0.0703125 2.875 -0.253906 3.0625 -0.578125 C 3.25 -0.898438 3.390625 -1.257812 3.484375 -1.65625 C 3.585938 -2.0625 3.648438 -2.515625 3.671875 -3.015625 C 3.703125 -3.515625 3.710938 -4.113281 3.703125 -4.8125 L 3.703125 -11.4375 C 3.390625 -11.4375 3.082031 -11.441406 2.78125 -11.453125 C 2.488281 -11.460938 2.203125 -11.476562 1.921875 -11.5 L 3.703125 -12.421875 C 3.703125 -13.003906 3.695312 -13.617188 3.6875 -14.265625 C 3.6875 -14.910156 3.6875 -15.597656 3.6875 -16.328125 C 3.6875 -17.054688 3.679688 -17.84375 3.671875 -18.6875 C 3.671875 -19.539062 3.671875 -20.46875 3.671875 -21.46875 C 3.179688 -21.46875 2.722656 -21.472656 2.296875 -21.484375 C 1.867188 -21.492188 1.46875 -21.507812 1.09375 -21.53125 L 4.109375 -23.140625 C 6.160156 -23.140625 7.910156 -23.148438 9.359375 -23.171875 C 10.804688 -23.203125 12.007812 -23.234375 12.96875 -23.265625 C 14.0625 -23.304688 14.976562 -23.351562 15.71875 -23.40625 C 16.082031 -23.40625 16.320312 -23.375 16.4375 -23.3125 C 16.5625 -23.25 16.609375 -23.179688 16.578125 -23.109375 C 16.554688 -23.046875 16.492188 -22.972656 16.390625 -22.890625 C 16.285156 -22.816406 16.1875 -22.765625 16.09375 -22.734375 C 16.007812 -22.691406 15.847656 -22.597656 15.609375 -22.453125 C 15.410156 -22.335938 15.125 -22.148438 14.75 -21.890625 C 14.375 -21.640625 13.863281 -21.300781 13.21875 -20.875 C 13.4375 -21.113281 13.53125 -21.289062 13.5 -21.40625 C 13.46875 -21.519531 13.390625 -21.601562 13.265625 -21.65625 C 13.128906 -21.707031 12.9375 -21.734375 12.6875 -21.734375 C 12.476562 -21.710938 12.171875 -21.691406 11.765625 -21.671875 C 11.359375 -21.660156 10.878906 -21.644531 10.328125 -21.625 C 9.785156 -21.601562 9.195312 -21.578125 8.5625 -21.546875 C 7.925781 -21.523438 7.273438 -21.507812 6.609375 -21.5 C 6.617188 -19.78125 6.625 -18.234375 6.625 -16.859375 C 6.632812 -15.492188 6.640625 -14.238281 6.640625 -13.09375 C 7.734375 -13.101562 8.71875 -13.117188 9.59375 -13.140625 C 10.476562 -13.171875 11.234375 -13.203125 11.859375 -13.234375 C 12.597656 -13.273438 13.25 -13.3125 13.8125 -13.34375 C 14.175781 -13.351562 14.414062 -13.332031 14.53125 -13.28125 C 14.644531 -13.226562 14.691406 -13.164062 14.671875 -13.09375 C 14.648438 -13.019531 14.585938 -12.941406 14.484375 -12.859375 C 14.390625 -12.773438 14.300781 -12.71875 14.21875 -12.6875 Z M 14.21875 -12.6875 "/></g></g></g><g fill="#008080" fill-opacity="1"><g transform="translate(224.341219, 229.632484)"><g><path d="M 15.40625 -6.828125 C 15.40625 -6.273438 15.226562 -5.707031 14.875 -5.125 C 14.519531 -4.539062 14.050781 -3.976562 13.46875 -3.4375 C 12.894531 -2.894531 12.25 -2.378906 11.53125 -1.890625 C 10.8125 -1.410156 10.085938 -0.984375 9.359375 -0.609375 C 8.628906 -0.234375 7.929688 0.0625 7.265625 0.28125 C 6.597656 0.5 6.03125 0.613281 5.5625 0.625 C 5.125 0.644531 4.648438 0.609375 4.140625 0.515625 C 3.628906 0.421875 3.144531 0.300781 2.6875 0.15625 C 2.226562 0.0078125 1.816406 -0.144531 1.453125 -0.3125 C 1.097656 -0.476562 0.859375 -0.628906 0.734375 -0.765625 C 0.648438 -0.847656 0.582031 -0.941406 0.53125 -1.046875 C 0.488281 -1.148438 0.46875 -1.257812 0.46875 -1.375 C 0.46875 -1.5 0.5 -1.628906 0.5625 -1.765625 C 0.632812 -1.898438 0.753906 -2.039062 0.921875 -2.1875 C 1.078125 -2.300781 1.265625 -2.453125 1.484375 -2.640625 C 1.679688 -2.785156 1.929688 -2.976562 2.234375 -3.21875 C 2.535156 -3.46875 2.90625 -3.765625 3.34375 -4.109375 C 3.1875 -3.953125 3.085938 -3.800781 3.046875 -3.65625 C 3.003906 -3.519531 2.988281 -3.390625 3 -3.265625 C 3.007812 -3.140625 3.050781 -3.019531 3.125 -2.90625 C 3.226562 -2.769531 3.414062 -2.613281 3.6875 -2.4375 C 3.957031 -2.269531 4.285156 -2.113281 4.671875 -1.96875 C 5.054688 -1.820312 5.488281 -1.695312 5.96875 -1.59375 C 6.445312 -1.5 6.941406 -1.453125 7.453125 -1.453125 C 8.097656 -1.453125 8.734375 -1.515625 9.359375 -1.640625 C 9.984375 -1.765625 10.546875 -1.972656 11.046875 -2.265625 C 11.546875 -2.554688 11.945312 -2.941406 12.25 -3.421875 C 12.5625 -3.898438 12.71875 -4.492188 12.71875 -5.203125 C 12.71875 -5.867188 12.5625 -6.453125 12.25 -6.953125 C 11.945312 -7.453125 11.546875 -7.898438 11.046875 -8.296875 C 10.554688 -8.703125 9.988281 -9.066406 9.34375 -9.390625 C 8.695312 -9.722656 8.039062 -10.050781 7.375 -10.375 C 6.71875 -10.695312 6.066406 -11.023438 5.421875 -11.359375 C 4.785156 -11.691406 4.21875 -12.066406 3.71875 -12.484375 C 3.226562 -12.898438 2.828125 -13.367188 2.515625 -13.890625 C 2.210938 -14.410156 2.0625 -15.019531 2.0625 -15.71875 C 2.0625 -16.382812 2.222656 -17.035156 2.546875 -17.671875 C 2.878906 -18.316406 3.3125 -18.921875 3.84375 -19.484375 C 4.382812 -20.054688 5.003906 -20.582031 5.703125 -21.0625 C 6.398438 -21.550781 7.113281 -21.96875 7.84375 -22.3125 C 8.582031 -22.664062 9.300781 -22.941406 10 -23.140625 C 10.707031 -23.347656 11.347656 -23.457031 11.921875 -23.46875 C 12.472656 -23.476562 13 -23.453125 13.5 -23.390625 C 14.007812 -23.328125 14.4375 -23.238281 14.78125 -23.125 C 15.132812 -23.007812 15.375 -22.859375 15.5 -22.671875 C 15.632812 -22.492188 15.601562 -22.296875 15.40625 -22.078125 C 15.238281 -21.890625 15.039062 -21.691406 14.8125 -21.484375 C 14.59375 -21.304688 14.328125 -21.101562 14.015625 -20.875 C 13.703125 -20.644531 13.316406 -20.398438 12.859375 -20.140625 C 12.953125 -20.273438 13.003906 -20.390625 13.015625 -20.484375 C 13.023438 -20.585938 13.019531 -20.675781 13 -20.75 C 12.96875 -20.820312 12.921875 -20.882812 12.859375 -20.9375 C 12.785156 -21 12.65625 -21.066406 12.46875 -21.140625 C 12.28125 -21.222656 12.046875 -21.300781 11.765625 -21.375 C 11.484375 -21.445312 11.164062 -21.507812 10.8125 -21.5625 C 10.457031 -21.613281 10.078125 -21.640625 9.671875 -21.640625 C 9.023438 -21.640625 8.398438 -21.5625 7.796875 -21.40625 C 7.203125 -21.25 6.675781 -21.003906 6.21875 -20.671875 C 5.757812 -20.347656 5.390625 -19.9375 5.109375 -19.4375 C 4.835938 -18.945312 4.703125 -18.367188 4.703125 -17.703125 C 4.703125 -16.972656 4.851562 -16.332031 5.15625 -15.78125 C 5.46875 -15.226562 5.875 -14.738281 6.375 -14.3125 C 6.882812 -13.882812 7.457031 -13.5 8.09375 -13.15625 C 8.738281 -12.8125 9.390625 -12.476562 10.046875 -12.15625 C 10.710938 -11.84375 11.367188 -11.519531 12.015625 -11.1875 C 12.660156 -10.851562 13.234375 -10.476562 13.734375 -10.0625 C 14.234375 -9.65625 14.632812 -9.1875 14.9375 -8.65625 C 15.25 -8.132812 15.40625 -7.523438 15.40625 -6.828125 Z M 15.40625 -6.828125 "/></g></g></g><g fill="#008080" fill-opacity="1"><g transform="translate(243.487325, 229.632484)"><g><path d="M 20.546875 -22.609375 C 20.429688 -22.546875 20.25 -22.441406 20 -22.296875 C 19.78125 -22.179688 19.484375 -22.007812 19.109375 -21.78125 C 18.742188 -21.5625 18.265625 -21.28125 17.671875 -20.9375 C 17.859375 -21.175781 17.941406 -21.347656 17.921875 -21.453125 C 17.898438 -21.554688 17.847656 -21.625 17.765625 -21.65625 C 17.660156 -21.695312 17.515625 -21.703125 17.328125 -21.671875 C 17.222656 -21.648438 16.988281 -21.625 16.625 -21.59375 C 16.269531 -21.5625 15.828125 -21.535156 15.296875 -21.515625 C 14.765625 -21.492188 14.15625 -21.472656 13.46875 -21.453125 C 12.789062 -21.429688 12.078125 -21.414062 11.328125 -21.40625 C 11.285156 -19.601562 11.25 -17.988281 11.21875 -16.5625 C 11.1875 -15.144531 11.15625 -13.882812 11.125 -12.78125 C 11.09375 -11.6875 11.066406 -10.734375 11.046875 -9.921875 C 11.035156 -9.109375 11.023438 -8.414062 11.015625 -7.84375 C 10.984375 -6.507812 10.96875 -5.582031 10.96875 -5.0625 C 10.957031 -4.664062 10.90625 -4.273438 10.8125 -3.890625 C 10.726562 -3.546875 10.597656 -3.179688 10.421875 -2.796875 C 10.242188 -2.421875 9.992188 -2.078125 9.671875 -1.765625 C 9.878906 -1.742188 10.070312 -1.726562 10.25 -1.71875 C 10.4375 -1.71875 10.625 -1.71875 10.8125 -1.71875 C 11.3125 -1.71875 11.765625 -1.738281 12.171875 -1.78125 C 12.578125 -1.832031 12.925781 -1.882812 13.21875 -1.9375 C 13.507812 -1.988281 13.742188 -2.039062 13.921875 -2.09375 C 14.097656 -2.15625 14.207031 -2.195312 14.25 -2.21875 C 13.6875 -1.832031 13.210938 -1.5 12.828125 -1.21875 C 12.453125 -0.9375 12.113281 -0.707031 11.8125 -0.53125 C 11.507812 -0.351562 11.210938 -0.21875 10.921875 -0.125 C 10.628906 -0.0390625 10.289062 0 9.90625 0 C 9.382812 0 8.941406 -0.0195312 8.578125 -0.0625 C 8.222656 -0.101562 7.863281 -0.125 7.5 -0.125 C 7.3125 -0.125 7.125 -0.113281 6.9375 -0.09375 C 6.75 -0.0820312 6.535156 -0.0507812 6.296875 0 C 6.597656 -0.257812 6.875 -0.539062 7.125 -0.84375 C 7.382812 -1.15625 7.597656 -1.53125 7.765625 -1.96875 C 7.941406 -2.414062 8.078125 -2.945312 8.171875 -3.5625 C 8.265625 -4.175781 8.3125 -4.921875 8.3125 -5.796875 L 8.3125 -21.3125 C 7.375 -21.289062 6.453125 -21.269531 5.546875 -21.25 C 4.648438 -21.226562 3.835938 -21.207031 3.109375 -21.1875 C 2.390625 -21.175781 1.785156 -21.15625 1.296875 -21.125 C 0.804688 -21.101562 0.5 -21.085938 0.375 -21.078125 C 0.0703125 -21.046875 -0.140625 -21.054688 -0.265625 -21.109375 C -0.398438 -21.171875 -0.460938 -21.253906 -0.453125 -21.359375 C -0.441406 -21.472656 -0.363281 -21.613281 -0.21875 -21.78125 C -0.0703125 -21.945312 0.125 -22.117188 0.375 -22.296875 L 2.59375 -23.90625 C 2.425781 -23.707031 2.375 -23.554688 2.4375 -23.453125 C 2.5 -23.359375 2.59375 -23.285156 2.71875 -23.234375 C 2.863281 -23.179688 3.0625 -23.148438 3.3125 -23.140625 C 3.488281 -23.140625 3.835938 -23.144531 4.359375 -23.15625 C 4.890625 -23.164062 5.535156 -23.175781 6.296875 -23.1875 C 7.054688 -23.207031 7.898438 -23.222656 8.828125 -23.234375 C 9.765625 -23.253906 10.710938 -23.273438 11.671875 -23.296875 C 12.628906 -23.328125 13.570312 -23.351562 14.5 -23.375 C 15.425781 -23.40625 16.269531 -23.425781 17.03125 -23.4375 C 17.789062 -23.457031 18.4375 -23.472656 18.96875 -23.484375 C 19.5 -23.503906 19.847656 -23.519531 20.015625 -23.53125 C 20.347656 -23.539062 20.585938 -23.507812 20.734375 -23.4375 C 20.890625 -23.375 20.972656 -23.289062 20.984375 -23.1875 C 21.003906 -23.082031 20.96875 -22.972656 20.875 -22.859375 C 20.789062 -22.753906 20.679688 -22.671875 20.546875 -22.609375 Z M 14.25 -2.21875 L 14.25 -2.234375 C 14.257812 -2.242188 14.269531 -2.25 14.28125 -2.25 Z M 14.25 -2.21875 "/></g></g></g></svg>